solid AssimpScene
 facet normal 0 0 0
  outer loop
  vertex -0.0456529967 0.0108639989 0.0274689998
  vertex -0.0524679981 0.00140900002 0.0265590008
  vertex -0.0525709987 -0.00743700005 0.0266149994
  endloop
 endfacet

 facet normal 0 0 0
  outer loop
  vertex -0.0456529967 0.0108639989 0.0274689998
  vertex -0.0525709987 -0.00743700005 0.0266149994
  vertex -0.0446300022 -0.0191319995 0.027493
  endloop
 endfacet

 facet normal 0 0 0
  outer loop
  vertex -0.0456529967 0.0108639989 0.0274689998
  vertex -0.0446300022 -0.0191319995 0.027493
  vertex -0.0212970003 -0.0245890003 0.0296570007
  endloop
 endfacet

 facet normal 0 0 0
  outer loop
  vertex -0.0456529967 0.0108639989 0.0274689998
  vertex -0.0212970003 -0.0245890003 0.0296570007
  vertex -0.00301499991 -0.00191199989 0.0312950015
  endloop
 endfacet

 facet normal 0 0 0
  outer loop
  vertex -0.0456529967 0.0108639989 0.0274689998
  vertex -0.00301499991 -0.00191199989 0.0312950015
  vertex -0.00559200021 0.00885600038 0.0308529977
  endloop
 endfacet

 facet normal 0 0 0
  outer loop
  vertex -0.0456529967 0.0108639989 0.0274689998
  vertex -0.00559200021 0.00885600038 0.0308529977
  vertex -0.0166369993 0.0175190009 0.0297269989
  endloop
 endfacet

 facet normal 0 0 0
  outer loop
  vertex -0.0456529967 0.0108639989 0.0274689998
  vertex -0.0166369993 0.0175190009 0.0297269989
  vertex -0.0306719989 0.0187120009 0.0286829993
  endloop
 endfacet

 facet normal 0 0 0
  outer loop
  vertex 0.0180610009 -0.0162870008 -0.0306209996
  vertex 0.0199660007 -0.0229239985 -0.0638109967
  vertex 0.0184850004 -0.00738399988 -0.0349580012
  endloop
 endfacet

 facet normal 0 0 0
  outer loop
  vertex 0.00214 -0.0063339998 0.0266500004
  vertex 0.0098059997 -0.00664300006 0.0100979991
  vertex -0.000237 0.00420799991 0.0285679996
  endloop
 endfacet

 facet normal 0 0 0
  outer loop
  vertex -0.0329440013 -0.029197 -0.0727479979
  vertex -0.0312650017 -0.0257130004 -0.0776510015
  vertex -0.00965300016 -0.0292760003 -0.0757929981
  endloop
 endfacet

 facet normal 0 0 0
  outer loop
  vertex 0.0155350007 -0.00101300003 -0.0372590013
  vertex 0.0119739994 -0.00352000003 -0.0667280033
  vertex 0.00837600045 0.0062239999 -0.0173460003
  endloop
 endfacet

 facet normal 0 0 0
  outer loop
  vertex 0.0155350007 -0.00101300003 -0.0372590013
  vertex 0.0157680009 -0.00965300016 -0.0693370029
  vertex 0.0119739994 -0.00352000003 -0.0667280033
  endloop
 endfacet

 facet normal 0 0 0
  outer loop
  vertex -0.0456239991 -0.0201709997 0.0230699982
  vertex -0.057895001 -0.0136739993 0.00789900031
  vertex -0.0599570014 -0.0156909991 -0.00812699925
  endloop
 endfacet

 facet normal 0 0 0
  outer loop
  vertex -0.0456239991 -0.0201709997 0.0230699982
  vertex -0.0599570014 -0.0156909991 -0.00812699925
  vertex -0.0599870011 -0.0245919991 -0.0533649959
  endloop
 endfacet

 facet normal 0 0 0
  outer loop
  vertex -0.0456239991 -0.0201709997 0.0230699982
  vertex -0.0599870011 -0.0245919991 -0.0533649959
  vertex -0.0568899997 -0.0269269999 -0.0527479984
  endloop
 endfacet

 facet normal 0 0 0
  outer loop
  vertex -0.050255999 -0.00565899955 -0.0732949972
  vertex -0.0510529988 -0.0129709998 -0.0754039958
  vertex -0.0544880033 -0.00791000016 -0.0710529983
  endloop
 endfacet

 facet normal 0 0 0
  outer loop
  vertex -0.050255999 -0.00565899955 -0.0732949972
  vertex -0.0544880033 -0.00791000016 -0.0710529983
  vertex -0.0503449999 -0.00122199999 -0.0679619983
  endloop
 endfacet

 facet normal 0 0 0
  outer loop
  vertex -0.0312650017 -0.0257130004 -0.0776510015
  vertex -0.0521549992 -0.0223159995 -0.0731830001
  vertex -0.0510529988 -0.0129709998 -0.0754039958
  endloop
 endfacet

 facet normal 0 0 0
  outer loop
  vertex -0.0312650017 -0.0257130004 -0.0776510015
  vertex -0.0510529988 -0.0129709998 -0.0754039958
  vertex -0.0308299996 -0.0162909999 -0.0797989964
  endloop
 endfacet

 facet normal 0 0 0
  outer loop
  vertex -0.0308299996 -0.0162909999 -0.0797989964
  vertex -0.0510529988 -0.0129709998 -0.0754039958
  vertex -0.050255999 -0.00565899955 -0.0732949972
  endloop
 endfacet

 facet normal 0 0 0
  outer loop
  vertex -0.0308299996 -0.0162909999 -0.0797989964
  vertex -0.050255999 -0.00565899955 -0.0732949972
  vertex -0.0306700021 -0.0090119997 -0.0776930004
  endloop
 endfacet

 facet normal 0 0 0
  outer loop
  vertex -0.0390480012 -0.0312389974 -0.0610769987
  vertex -0.0566250049 -0.0256730001 -0.0653730035
  vertex -0.0538970008 -0.0247750003 -0.0701590031
  endloop
 endfacet

 facet normal 0 0 0
  outer loop
  vertex -0.0390480012 -0.0312389974 -0.0610769987
  vertex -0.0538970008 -0.0247750003 -0.0701590031
  vertex -0.0329440013 -0.029197 -0.0727479979
  endloop
 endfacet

 facet normal 0 0 0
  outer loop
  vertex -0.0390480012 -0.0312389974 -0.0610769987
  vertex -0.0329440013 -0.029197 -0.0727479979
  vertex -0.0140770003 -0.0339009985 -0.0582780018
  endloop
 endfacet

 facet normal 0 0 0
  outer loop
  vertex -0.0390480012 -0.0312389974 -0.0610769987
  vertex -0.0140770003 -0.0339009985 -0.0582780018
  vertex -0.0295659993 -0.0260649994 0.0279959999
  endloop
 endfacet

 facet normal 0 0 0
  outer loop
  vertex -0.0085479999 -0.0111109996 -0.0788509995
  vertex -0.00965300016 -0.0173969995 -0.0803949907
  vertex -0.0308299996 -0.0162909999 -0.0797989964
  endloop
 endfacet

 facet normal 0 0 0
  outer loop
  vertex -0.0085479999 -0.0111109996 -0.0788509995
  vertex -0.0308299996 -0.0162909999 -0.0797989964
  vertex -0.0306700021 -0.0090119997 -0.0776930004
  endloop
 endfacet

 facet normal 0 0 0
  outer loop
  vertex -0.0085479999 -0.0111109996 -0.0788509995
  vertex 0.0122070005 -0.0107610002 -0.0744479969
  vertex -0.00965300016 -0.0173969995 -0.0803949907
  endloop
 endfacet

 facet normal 0 0 0
  outer loop
  vertex -0.00559200021 0.00885600038 0.0308529977
  vertex -0.000237 0.00420799991 0.0285679996
  vertex -0.0054429993 0.0122339996 0.0268920008
  endloop
 endfacet

 facet normal 0 0 0
  outer loop
  vertex -0.00804900005 -0.0256730001 -0.078734003
  vertex -0.00965300016 -0.0292760003 -0.0757929981
  vertex -0.0312650017 -0.0257130004 -0.0776510015
  endloop
 endfacet

 facet normal 0 0 0
  outer loop
  vertex -0.0312650017 -0.0257130004 -0.0776510015
  vertex -0.0308299996 -0.0162909999 -0.0797989964
  vertex -0.00965300016 -0.0173969995 -0.0803949907
  endloop
 endfacet

 facet normal 0 0 0
  outer loop
  vertex -0.0312650017 -0.0257130004 -0.0776510015
  vertex -0.00965300016 -0.0173969995 -0.0803949907
  vertex -0.00804900005 -0.0256730001 -0.078734003
  endloop
 endfacet

 facet normal 0 0 0
  outer loop
  vertex -0.0379789993 -0.0235389993 0.0275490005
  vertex -0.0456239991 -0.0201709997 0.0230699982
  vertex -0.0568899997 -0.0269269999 -0.0527479984
  endloop
 endfacet

 facet normal 0 0 0
  outer loop
  vertex -0.0379789993 -0.0235389993 0.0275490005
  vertex -0.0568899997 -0.0269269999 -0.0527479984
  vertex -0.0538970008 -0.0282070022 -0.0571729988
  endloop
 endfacet

 facet normal 0 0 0
  outer loop
  vertex -0.0379789993 -0.0235389993 0.0275490005
  vertex -0.0538970008 -0.0282070022 -0.0571729988
  vertex -0.0295659993 -0.0260649994 0.0279959999
  endloop
 endfacet

 facet normal 0 0 0
  outer loop
  vertex -0.0534330048 -0.00724000065 0.0254170001
  vertex -0.0602849983 -0.00861699972 0.0092559997
  vertex -0.0500160009 -0.0146150002 0.0263199992
  endloop
 endfacet

 facet normal 0 0 0
  outer loop
  vertex 0.0102580003 -0.00545099983 -0.0713530034
  vertex 0.0122070005 -0.0107610002 -0.0744479969
  vertex -0.0085479999 -0.0111109996 -0.0788509995
  endloop
 endfacet

 facet normal 0 0 0
  outer loop
  vertex 0.00837600045 0.0062239999 -0.0173460003
  vertex 0.0119739994 -0.00352000003 -0.0667280033
  vertex 0.00915300008 -0.00234999997 -0.0658650026
  endloop
 endfacet

 facet normal 0 0 0
  outer loop
  vertex 0.00837600045 0.0062239999 -0.0173460003
  vertex 0.00915300008 -0.00234999997 -0.0658650026
  vertex -0.000406000006 0.0096760001 -0.0166040007
  endloop
 endfacet

 facet normal 0 0 0
  outer loop
  vertex -0.0601250008 0.00552000012 0.00144699996
  vertex -0.0610990003 0.00308299996 -0.0124469995
  vertex -0.0619659983 -0.000805000018 0.00365899992
  endloop
 endfacet

 facet normal 0 0 0
  outer loop
  vertex -0.0598709956 -0.00191199989 0.0127689997
  vertex -0.0619659983 -0.000805000018 0.00365899992
  vertex -0.0602849983 -0.00861699972 0.0092559997
  endloop
 endfacet

 facet normal 0 0 0
  outer loop
  vertex -0.0598709956 -0.00191199989 0.0127689997
  vertex -0.0602849983 -0.00861699972 0.0092559997
  vertex -0.0534330048 -0.00724000065 0.0254170001
  endloop
 endfacet

 facet normal 0 0 0
  outer loop
  vertex -0.0598709956 -0.00191199989 0.0127689997
  vertex -0.0534330048 -0.00724000065 0.0254170001
  vertex -0.0524679981 0.00140900002 0.0265590008
  endloop
 endfacet

 facet normal 0 0 0
  outer loop
  vertex 0.0121440003 0.00146699999 -0.0162700005
  vertex 0.0184850004 -0.00738399988 -0.0349580012
  vertex 0.0155350007 -0.00101300003 -0.0372590013
  endloop
 endfacet

 facet normal 0 0 0
  outer loop
  vertex 0.0121440003 0.00146699999 -0.0162700005
  vertex 0.0155350007 -0.00101300003 -0.0372590013
  vertex 0.00837600045 0.0062239999 -0.0173460003
  endloop
 endfacet

 facet normal 0 0 0
  outer loop
  vertex 0.0121440003 0.00146699999 -0.0162700005
  vertex 0.00837600045 0.0062239999 -0.0173460003
  vertex -0.0054429993 0.0122339996 0.0268920008
  endloop
 endfacet

 facet normal 0 0 0
  outer loop
  vertex 0.0121440003 0.00146699999 -0.0162700005
  vertex -0.0054429993 0.0122339996 0.0268920008
  vertex -0.000237 0.00420799991 0.0285679996
  endloop
 endfacet

 facet normal 0 0 0
  outer loop
  vertex 0.0121440003 0.00146699999 -0.0162700005
  vertex -0.000237 0.00420799991 0.0285679996
  vertex 0.0098059997 -0.00664300006 0.0100979991
  endloop
 endfacet

 facet normal 0 0 0
  outer loop
  vertex -0.0544490032 -0.00357199972 -0.0654599965
  vertex -0.0503449999 -0.00122199999 -0.0679619983
  vertex -0.0544880033 -0.00791000016 -0.0710529983
  endloop
 endfacet

 facet normal 0 0 0
  outer loop
  vertex -0.00301799993 -0.0331050009 -0.0582780018
  vertex 0.0151620014 -0.0278850012 -0.066482991
  vertex 0.0164260007 -0.0279740021 -0.0540429987
  endloop
 endfacet

 facet normal 0 0 0
  outer loop
  vertex -0.00301799993 -0.0331050009 -0.0582780018
  vertex 0.0164260007 -0.0279740021 -0.0540429987
  vertex -0.0212640017 -0.0256909989 0.0285550021
  endloop
 endfacet

 facet normal 0 0 0
  outer loop
  vertex -0.00301799993 -0.0331050009 -0.0582780018
  vertex -0.0212640017 -0.0256909989 0.0285550021
  vertex -0.0295659993 -0.0260649994 0.0279959999
  endloop
 endfacet

 facet normal 0 0 0
  outer loop
  vertex -0.00301799993 -0.0331050009 -0.0582780018
  vertex -0.0295659993 -0.0260649994 0.0279959999
  vertex -0.0140770003 -0.0339009985 -0.0582780018
  endloop
 endfacet

 facet normal 0 0 0
  outer loop
  vertex 0.0183910001 -0.0266319998 -0.0638109967
  vertex 0.0164260007 -0.0279740021 -0.0540429987
  vertex 0.0151620014 -0.0278850012 -0.066482991
  endloop
 endfacet

 facet normal 0 0 0
  outer loop
  vertex -0.0158869997 0.0184950009 0.0257830005
  vertex 0.00837600045 0.0062239999 -0.0173460003
  vertex -0.000406000006 0.0096760001 -0.0166040007
  endloop
 endfacet

 facet normal 0 0 0
  outer loop
  vertex -0.0158869997 0.0184950009 0.0257830005
  vertex -0.000406000006 0.0096760001 -0.0166040007
  vertex -0.0240369998 0.0200219993 0.0224629976
  endloop
 endfacet

 facet normal 0 0 0
  outer loop
  vertex 0.0124690002 -0.0162899997 -0.0750159994
  vertex -0.00965300016 -0.0173969995 -0.0803949907
  vertex 0.0122070005 -0.0107610002 -0.0744479969
  endloop
 endfacet

 facet normal 0 0 0
  outer loop
  vertex 0.0124690002 -0.0162899997 -0.0750159994
  vertex 0.0151739996 -0.0233040005 -0.072052002
  vertex -0.00804900005 -0.0256730001 -0.078734003
  endloop
 endfacet

 facet normal 0 0 0
  outer loop
  vertex 0.0124690002 -0.0162899997 -0.0750159994
  vertex -0.00804900005 -0.0256730001 -0.078734003
  vertex -0.00965300016 -0.0173969995 -0.0803949907
  endloop
 endfacet

 facet normal 0 0 0
  outer loop
  vertex -0.0599870011 -0.0245919991 -0.0533649959
  vertex -0.0566250049 -0.0256730001 -0.0653730035
  vertex -0.0568899997 -0.0269269999 -0.0527479984
  endloop
 endfacet

 facet normal 0 0 0
  outer loop
  vertex -0.0599870011 -0.0245919991 -0.0533649959
  vertex -0.0599570014 -0.0156909991 -0.00812699925
  vertex -0.0610910021 -0.0212779995 -0.0522110015
  endloop
 endfacet

 facet normal 0 0 0
  outer loop
  vertex -0.0503449999 -0.00122199999 -0.0679619983
  vertex -0.0561079979 0.00934599992 -0.000765000004
  vertex -0.0483639985 0.0135979997 0.0125139998
  endloop
 endfacet

 facet normal 0 0 0
  outer loop
  vertex -0.0503449999 -0.00122199999 -0.0679619983
  vertex -0.0483639985 0.0135979997 0.0125139998
  vertex -0.0303840004 0.0186180007 0.014725999
  endloop
 endfacet

 facet normal 0 0 0
  outer loop
  vertex 0.0184380002 -0.0241570007 -0.0483170003
  vertex 0.0164260007 -0.0279740021 -0.0540429987
  vertex 0.0183910001 -0.0266319998 -0.0638109967
  endloop
 endfacet

 facet normal 0 0 0
  outer loop
  vertex 0.0184380002 -0.0241570007 -0.0483170003
  vertex 0.0183910001 -0.0266319998 -0.0638109967
  vertex 0.0199660007 -0.0229239985 -0.0638109967
  endloop
 endfacet

 facet normal 0 0 0
  outer loop
  vertex 0.0184380002 -0.0241570007 -0.0483170003
  vertex 0.0199660007 -0.0229239985 -0.0638109967
  vertex 0.0180610009 -0.0162870008 -0.0306209996
  endloop
 endfacet

 facet normal 0 0 0
  outer loop
  vertex 0.0184380002 -0.0241570007 -0.0483170003
  vertex 0.0180610009 -0.0162870008 -0.0306209996
  vertex 0.0119390003 -0.0135610001 -0.00123499997
  endloop
 endfacet

 facet normal 0 0 0
  outer loop
  vertex -0.0610910021 -0.0212779995 -0.0522110015
  vertex -0.0599570014 -0.0156909991 -0.00812699925
  vertex -0.0602849983 -0.00861699972 0.0092559997
  endloop
 endfacet

 facet normal 0 0 0
  outer loop
  vertex -0.0610910021 -0.0212779995 -0.0522110015
  vertex -0.0602849983 -0.00861699972 0.0092559997
  vertex -0.0621999986 -0.0102230003 -0.0122950003
  endloop
 endfacet

 facet normal 0 0 0
  outer loop
  vertex -0.0621999986 -0.0102230003 -0.0122950003
  vertex -0.0602849983 -0.00861699972 0.0092559997
  vertex -0.0619659983 -0.000805000018 0.00365899992
  endloop
 endfacet

 facet normal 0 0 0
  outer loop
  vertex 0.0135740014 -0.0265110005 -0.0706290007
  vertex -0.00965300016 -0.0292760003 -0.0757929981
  vertex -0.00804900005 -0.0256730001 -0.078734003
  endloop
 endfacet

 facet normal 0 0 0
  outer loop
  vertex 0.0135740014 -0.0265110005 -0.0706290007
  vertex -0.00804900005 -0.0256730001 -0.078734003
  vertex 0.0151739996 -0.0233040005 -0.072052002
  endloop
 endfacet

 facet normal 0 0 0
  outer loop
  vertex 0.0195509996 -0.0174630005 -0.0638680011
  vertex 0.0199660007 -0.0229239985 -0.0638109967
  vertex 0.0177030005 -0.0173920002 -0.0692209974
  endloop
 endfacet

 facet normal 0 0 0
  outer loop
  vertex 0.0195509996 -0.0174630005 -0.0638680011
  vertex 0.0177030005 -0.0173920002 -0.0692209974
  vertex 0.0157680009 -0.00965300016 -0.0693370029
  endloop
 endfacet

 facet normal 0 0 0
  outer loop
  vertex 0.0195509996 -0.0174630005 -0.0638680011
  vertex 0.0157680009 -0.00965300016 -0.0693370029
  vertex 0.0155350007 -0.00101300003 -0.0372590013
  endloop
 endfacet

 facet normal 0 0 0
  outer loop
  vertex 0.0195509996 -0.0174630005 -0.0638680011
  vertex 0.0155350007 -0.00101300003 -0.0372590013
  vertex 0.0184850004 -0.00738399988 -0.0349580012
  endloop
 endfacet

 facet normal 0 0 0
  outer loop
  vertex 0.0195509996 -0.0174630005 -0.0638680011
  vertex 0.0184850004 -0.00738399988 -0.0349580012
  vertex 0.0199660007 -0.0229239985 -0.0638109967
  endloop
 endfacet

 facet normal 0 0 0
  outer loop
  vertex 0.00964900013 -0.0201200005 -0.0102829989
  vertex 0.0164260007 -0.0279740021 -0.0540429987
  vertex 0.0184380002 -0.0241570007 -0.0483170003
  endloop
 endfacet

 facet normal 0 0 0
  outer loop
  vertex 0.00964900013 -0.0201200005 -0.0102829989
  vertex 0.0184380002 -0.0241570007 -0.0483170003
  vertex 0.0119390003 -0.0135610001 -0.00123499997
  endloop
 endfacet

 facet normal 0 0 0
  outer loop
  vertex 0.00964900013 -0.0201200005 -0.0102829989
  vertex 0.0119390003 -0.0135610001 -0.00123499997
  vertex 0.00196700008 -0.0146319997 0.0208209995
  endloop
 endfacet

 facet normal 0 0 0
  outer loop
  vertex 0.00196700008 -0.0146319997 0.0208209995
  vertex -0.0109440014 -0.0204390008 0.0299359988
  vertex -0.0156670008 -0.0235089976 0.0296939984
  endloop
 endfacet

 facet normal 0 0 0
  outer loop
  vertex 0.00196700008 -0.0146319997 0.0208209995
  vertex -0.0156670008 -0.0235089976 0.0296939984
  vertex -0.0145429997 -0.0235200003 0.0276260003
  endloop
 endfacet

 facet normal 0 0 0
  outer loop
  vertex 0.00196700008 -0.0146319997 0.0208209995
  vertex -0.0145429997 -0.0235200003 0.0276260003
  vertex 0.00964900013 -0.0201200005 -0.0102829989
  endloop
 endfacet

 facet normal 0 0 0
  outer loop
  vertex -0.0596989989 -0.0207119994 -0.0649159998
  vertex -0.0589339994 -0.0162879992 -0.0667119995
  vertex -0.0577070005 -0.0220890008 -0.0687019974
  endloop
 endfacet

 facet normal 0 0 0
  outer loop
  vertex -0.0596989989 -0.0207119994 -0.0649159998
  vertex -0.0610910021 -0.0212779995 -0.0522110015
  vertex -0.061152 -0.0110860001 -0.0512770005
  endloop
 endfacet

 facet normal 0 0 0
  outer loop
  vertex -0.0596989989 -0.0207119994 -0.0649159998
  vertex -0.061152 -0.0110860001 -0.0512770005
  vertex -0.0589339994 -0.0162879992 -0.0667119995
  endloop
 endfacet

 facet normal 0 0 0
  outer loop
  vertex -0.0625279993 -0.00522800023 -0.0228749998
  vertex -0.0619659983 -0.000805000018 0.00365899992
  vertex -0.0610990003 0.00308299996 -0.0124469995
  endloop
 endfacet

 facet normal 0 0 0
  outer loop
  vertex -0.0625279993 -0.00522800023 -0.0228749998
  vertex -0.061152 -0.0110860001 -0.0512770005
  vertex -0.0610910021 -0.0212779995 -0.0522110015
  endloop
 endfacet

 facet normal 0 0 0
  outer loop
  vertex -0.0625279993 -0.00522800023 -0.0228749998
  vertex -0.0610910021 -0.0212779995 -0.0522110015
  vertex -0.0621999986 -0.0102230003 -0.0122950003
  endloop
 endfacet

 facet normal 0 0 0
  outer loop
  vertex -0.0625279993 -0.00522800023 -0.0228749998
  vertex -0.0621999986 -0.0102230003 -0.0122950003
  vertex -0.0619659983 -0.000805000018 0.00365899992
  endloop
 endfacet

 facet normal 0 0 0
  outer loop
  vertex -0.0373100005 0.0171579998 0.0268949997
  vertex -0.0306719989 0.0187120009 0.0286829993
  vertex -0.0240369998 0.0200219993 0.0224629976
  endloop
 endfacet

 facet normal 0 0 0
  outer loop
  vertex -0.0373100005 0.0171579998 0.0268949997
  vertex -0.0240369998 0.0200219993 0.0224629976
  vertex -0.0303840004 0.0186180007 0.014725999
  endloop
 endfacet

 facet normal 0 0 0
  outer loop
  vertex -0.0373100005 0.0171579998 0.0268949997
  vertex -0.0303840004 0.0186180007 0.014725999
  vertex -0.0483639985 0.0135979997 0.0125139998
  endloop
 endfacet

 facet normal 0 0 0
  outer loop
  vertex -0.0373100005 0.0171579998 0.0268949997
  vertex -0.0483639985 0.0135979997 0.0125139998
  vertex -0.0542630032 0.0106869992 0.00919200014
  endloop
 endfacet

 facet normal 0 0 0
  outer loop
  vertex -0.0373100005 0.0171579998 0.0268949997
  vertex -0.0542630032 0.0106869992 0.00919200014
  vertex -0.0444369987 0.0129739996 0.0262160003
  endloop
 endfacet

 facet normal 0 0 0
  outer loop
  vertex -0.0373100005 0.0171579998 0.0268949997
  vertex -0.0444369987 0.0129739996 0.0262160003
  vertex -0.0456529967 0.0108639989 0.0274689998
  endloop
 endfacet

 facet normal 0 0 0
  outer loop
  vertex -0.0373100005 0.0171579998 0.0268949997
  vertex -0.0456529967 0.0108639989 0.0274689998
  vertex -0.0306719989 0.0187120009 0.0286829993
  endloop
 endfacet

 facet normal 0 0 0
  outer loop
  vertex -0.057895001 -0.0136739993 0.00789900031
  vertex -0.0500160009 -0.0146150002 0.0263199992
  vertex -0.0602849983 -0.00861699972 0.0092559997
  endloop
 endfacet

 facet normal 0 0 0
  outer loop
  vertex -0.057895001 -0.0136739993 0.00789900031
  vertex -0.0602849983 -0.00861699972 0.0092559997
  vertex -0.0599570014 -0.0156909991 -0.00812699925
  endloop
 endfacet

 facet normal 0 0 0
  outer loop
  vertex -0.0229279976 0.0193980001 0.0279959999
  vertex -0.0306719989 0.0187120009 0.0286829993
  vertex -0.0166369993 0.0175190009 0.0297269989
  endloop
 endfacet

 facet normal 0 0 0
  outer loop
  vertex -0.0229279976 0.0193980001 0.0279959999
  vertex -0.0166369993 0.0175190009 0.0297269989
  vertex -0.0158869997 0.0184950009 0.0257830005
  endloop
 endfacet

 facet normal 0 0 0
  outer loop
  vertex -0.0229279976 0.0193980001 0.0279959999
  vertex -0.0158869997 0.0184950009 0.0257830005
  vertex -0.0240369998 0.0200219993 0.0224629976
  endloop
 endfacet

 facet normal 0 0 0
  outer loop
  vertex -0.0229279976 0.0193980001 0.0279959999
  vertex -0.0240369998 0.0200219993 0.0224629976
  vertex -0.0306719989 0.0187120009 0.0286829993
  endloop
 endfacet

 facet normal 0 0 0
  outer loop
  vertex -0.0538970008 -0.0247750003 -0.0701590031
  vertex -0.0521549992 -0.0223159995 -0.0731830001
  vertex -0.0312650017 -0.0257130004 -0.0776510015
  endloop
 endfacet

 facet normal 0 0 0
  outer loop
  vertex -0.0538970008 -0.0247750003 -0.0701590031
  vertex -0.0312650017 -0.0257130004 -0.0776510015
  vertex -0.0329440013 -0.029197 -0.0727479979
  endloop
 endfacet

 facet normal 0 0 0
  outer loop
  vertex -0.0538970008 -0.0247750003 -0.0701590031
  vertex -0.0577070005 -0.0220890008 -0.0687019974
  vertex -0.0521549992 -0.0223159995 -0.0731830001
  endloop
 endfacet

 facet normal 0 0 0
  outer loop
  vertex 0.0186579991 -0.0247959998 -0.0667830035
  vertex 0.0199660007 -0.0229239985 -0.0638109967
  vertex 0.0183910001 -0.0266319998 -0.0638109967
  endloop
 endfacet

 facet normal 0 0 0
  outer loop
  vertex 0.0186579991 -0.0247959998 -0.0667830035
  vertex 0.0183910001 -0.0266319998 -0.0638109967
  vertex 0.0151620014 -0.0278850012 -0.066482991
  endloop
 endfacet

 facet normal 0 0 0
  outer loop
  vertex 0.0186579991 -0.0247959998 -0.0667830035
  vertex 0.0151620014 -0.0278850012 -0.066482991
  vertex 0.0135740014 -0.0265110005 -0.0706290007
  endloop
 endfacet

 facet normal 0 0 0
  outer loop
  vertex 0.0186579991 -0.0247959998 -0.0667830035
  vertex 0.0135740014 -0.0265110005 -0.0706290007
  vertex 0.0151739996 -0.0233040005 -0.072052002
  endloop
 endfacet

 facet normal 0 0 0
  outer loop
  vertex 0.0186579991 -0.0247959998 -0.0667830035
  vertex 0.0151739996 -0.0233040005 -0.072052002
  vertex 0.0177030005 -0.0173920002 -0.0692209974
  endloop
 endfacet

 facet normal 0 0 0
  outer loop
  vertex 0.0186579991 -0.0247959998 -0.0667830035
  vertex 0.0177030005 -0.0173920002 -0.0692209974
  vertex 0.0199660007 -0.0229239985 -0.0638109967
  endloop
 endfacet

 facet normal 0 0 0
  outer loop
  vertex -0.0212970003 -0.0245890003 0.0296570007
  vertex -0.0295659993 -0.0260649994 0.0279959999
  vertex -0.0212640017 -0.0256909989 0.0285550021
  endloop
 endfacet

 facet normal 0 0 0
  outer loop
  vertex -0.0212970003 -0.0245890003 0.0296570007
  vertex -0.0156670008 -0.0235089976 0.0296939984
  vertex -0.0109440014 -0.0204390008 0.0299359988
  endloop
 endfacet

 facet normal 0 0 0
  outer loop
  vertex -0.0212970003 -0.0245890003 0.0296570007
  vertex -0.0109440014 -0.0204390008 0.0299359988
  vertex -0.00363199995 -0.0112119997 0.0307199992
  endloop
 endfacet

 facet normal 0 0 0
  outer loop
  vertex -0.0212970003 -0.0245890003 0.0296570007
  vertex -0.00363199995 -0.0112119997 0.0307199992
  vertex -0.00301499991 -0.00191199989 0.0312950015
  endloop
 endfacet

 facet normal 0 0 0
  outer loop
  vertex -0.0212970003 -0.0245890003 0.0296570007
  vertex -0.0379789993 -0.0235389993 0.0275490005
  vertex -0.0295659993 -0.0260649994 0.0279959999
  endloop
 endfacet

 facet normal 0 0 0
  outer loop
  vertex 0.00861100014 -0.0102350004 0.0119989989
  vertex 0.00196700008 -0.0146319997 0.0208209995
  vertex 0.0119390003 -0.0135610001 -0.00123499997
  endloop
 endfacet

 facet normal 0 0 0
  outer loop
  vertex 0.00861100014 -0.0102350004 0.0119989989
  vertex 0.0098059997 -0.00664300006 0.0100979991
  vertex 0.00214 -0.0063339998 0.0266500004
  endloop
 endfacet

 facet normal 0 0 0
  outer loop
  vertex -0.0112539995 0.0163700003 0.0275090002
  vertex -0.0054429993 0.0122339996 0.0268920008
  vertex 0.00837600045 0.0062239999 -0.0173460003
  endloop
 endfacet

 facet normal 0 0 0
  outer loop
  vertex -0.0112539995 0.0163700003 0.0275090002
  vertex 0.00837600045 0.0062239999 -0.0173460003
  vertex -0.0158869997 0.0184950009 0.0257830005
  endloop
 endfacet

 facet normal 0 0 0
  outer loop
  vertex -0.0112539995 0.0163700003 0.0275090002
  vertex -0.0158869997 0.0184950009 0.0257830005
  vertex -0.0166369993 0.0175190009 0.0297269989
  endloop
 endfacet

 facet normal 0 0 0
  outer loop
  vertex -0.0295640007 -0.00561599992 -0.0745389983
  vertex -0.0306700021 -0.0090119997 -0.0776930004
  vertex -0.050255999 -0.00565899955 -0.0732949972
  endloop
 endfacet

 facet normal 0 0 0
  outer loop
  vertex -0.0295640007 -0.00561599992 -0.0745389983
  vertex -0.050255999 -0.00565899955 -0.0732949972
  vertex -0.0503449999 -0.00122199999 -0.0679619983
  endloop
 endfacet

 facet normal 0 0 0
  outer loop
  vertex -0.0511329994 0.00528099993 0.0263439994
  vertex -0.0524679981 0.00140900002 0.0265590008
  vertex -0.0456529967 0.0108639989 0.0274689998
  endloop
 endfacet

 facet normal 0 0 0
  outer loop
  vertex -0.0511329994 0.00528099993 0.0263439994
  vertex -0.0456529967 0.0108639989 0.0274689998
  vertex -0.0444369987 0.0129739996 0.0262160003
  endloop
 endfacet

 facet normal 0 0 0
  outer loop
  vertex -0.0511329994 0.00528099993 0.0263439994
  vertex -0.0444369987 0.0129739996 0.0262160003
  vertex -0.055585999 0.00863900036 0.0120350001
  endloop
 endfacet

 facet normal 0 0 0
  outer loop
  vertex -0.0538970008 -0.0282070022 -0.0571729988
  vertex -0.0566250049 -0.0256730001 -0.0653730035
  vertex -0.0390480012 -0.0312389974 -0.0610769987
  endloop
 endfacet

 facet normal 0 0 0
  outer loop
  vertex -0.0538970008 -0.0282070022 -0.0571729988
  vertex -0.0390480012 -0.0312389974 -0.0610769987
  vertex -0.0295659993 -0.0260649994 0.0279959999
  endloop
 endfacet

 facet normal 0 0 0
  outer loop
  vertex -0.0538970008 -0.0282070022 -0.0571729988
  vertex -0.0568899997 -0.0269269999 -0.0527479984
  vertex -0.0566250049 -0.0256730001 -0.0653730035
  endloop
 endfacet

 facet normal 0 0 0
  outer loop
  vertex -0.0600799993 0.00328000006 0.00785099994
  vertex -0.0601250008 0.00552000012 0.00144699996
  vertex -0.0619659983 -0.000805000018 0.00365899992
  endloop
 endfacet

 facet normal 0 0 0
  outer loop
  vertex -0.0600799993 0.00328000006 0.00785099994
  vertex -0.0619659983 -0.000805000018 0.00365899992
  vertex -0.0598709956 -0.00191199989 0.0127689997
  endloop
 endfacet

 facet normal 0 0 0
  outer loop
  vertex -0.0600799993 0.00328000006 0.00785099994
  vertex -0.0598709956 -0.00191199989 0.0127689997
  vertex -0.0524679981 0.00140900002 0.0265590008
  endloop
 endfacet

 facet normal 0 0 0
  outer loop
  vertex -0.0600799993 0.00328000006 0.00785099994
  vertex -0.0524679981 0.00140900002 0.0265590008
  vertex -0.0511329994 0.00528099993 0.0263439994
  endloop
 endfacet

 facet normal 0 0 0
  outer loop
  vertex -0.0600799993 0.00328000006 0.00785099994
  vertex -0.0511329994 0.00528099993 0.0263439994
  vertex -0.055585999 0.00863900036 0.0120350001
  endloop
 endfacet

 facet normal 0 0 0
  outer loop
  vertex -0.0600799993 0.00328000006 0.00785099994
  vertex -0.055585999 0.00863900036 0.0120350001
  vertex -0.0601250008 0.00552000012 0.00144699996
  endloop
 endfacet

 facet normal 0 0 0
  outer loop
  vertex 0.0130669996 -0.0079330001 -0.0721599981
  vertex 0.0122070005 -0.0107610002 -0.0744479969
  vertex 0.0102580003 -0.00545099983 -0.0713530034
  endloop
 endfacet

 facet normal 0 0 0
  outer loop
  vertex 0.0130669996 -0.0079330001 -0.0721599981
  vertex 0.0102580003 -0.00545099983 -0.0713530034
  vertex 0.0119739994 -0.00352000003 -0.0667280033
  endloop
 endfacet

 facet normal 0 0 0
  outer loop
  vertex 0.0130669996 -0.0079330001 -0.0721599981
  vertex 0.0119739994 -0.00352000003 -0.0667280033
  vertex 0.0157680009 -0.00965300016 -0.0693370029
  endloop
 endfacet

 facet normal 0 0 0
  outer loop
  vertex -0.0588780008 -0.02348 -0.0654740036
  vertex -0.0566250049 -0.0256730001 -0.0653730035
  vertex -0.0599870011 -0.0245919991 -0.0533649959
  endloop
 endfacet

 facet normal 0 0 0
  outer loop
  vertex -0.0599870011 -0.0245919991 -0.0533649959
  vertex -0.0610910021 -0.0212779995 -0.0522110015
  vertex -0.0596989989 -0.0207119994 -0.0649159998
  endloop
 endfacet

 facet normal 0 0 0
  outer loop
  vertex -0.0599870011 -0.0245919991 -0.0533649959
  vertex -0.0596989989 -0.0207119994 -0.0649159998
  vertex -0.0588780008 -0.02348 -0.0654740036
  endloop
 endfacet

 facet normal 0 0 0
  outer loop
  vertex -0.0588780008 -0.02348 -0.0654740036
  vertex -0.0596989989 -0.0207119994 -0.0649159998
  vertex -0.0577070005 -0.0220890008 -0.0687019974
  endloop
 endfacet

 facet normal 0 0 0
  outer loop
  vertex -0.0577070005 -0.0220890008 -0.0687019974
  vertex -0.0538970008 -0.0247750003 -0.0701590031
  vertex -0.0566250049 -0.0256730001 -0.0653730035
  endloop
 endfacet

 facet normal 0 0 0
  outer loop
  vertex -0.0577070005 -0.0220890008 -0.0687019974
  vertex -0.0566250049 -0.0256730001 -0.0653730035
  vertex -0.0588780008 -0.02348 -0.0654740036
  endloop
 endfacet

 facet normal 0 0 0
  outer loop
  vertex -0.00131399999 -0.00110700005 0.0308029987
  vertex -0.00301499991 -0.00191199989 0.0312950015
  vertex -0.00363199995 -0.0112119997 0.0307199992
  endloop
 endfacet

 facet normal 0 0 0
  outer loop
  vertex -0.00131399999 -0.00110700005 0.0308029987
  vertex -0.00363199995 -0.0112119997 0.0307199992
  vertex 0.00214 -0.0063339998 0.0266500004
  endloop
 endfacet

 facet normal 0 0 0
  outer loop
  vertex -0.00131399999 -0.00110700005 0.0308029987
  vertex 0.00214 -0.0063339998 0.0266500004
  vertex -0.000237 0.00420799991 0.0285679996
  endloop
 endfacet

 facet normal 0 0 0
  outer loop
  vertex -0.00131399999 -0.00110700005 0.0308029987
  vertex -0.000237 0.00420799991 0.0285679996
  vertex -0.00559200021 0.00885600038 0.0308529977
  endloop
 endfacet

 facet normal 0 0 0
  outer loop
  vertex -0.00131399999 -0.00110700005 0.0308029987
  vertex -0.00559200021 0.00885600038 0.0308529977
  vertex -0.00301499991 -0.00191199989 0.0312950015
  endloop
 endfacet

 facet normal 0 0 0
  outer loop
  vertex -0.0503449999 -0.00122199999 -0.0679619983
  vertex -0.0303840004 0.0186180007 0.014725999
  vertex -0.0240369998 0.0200219993 0.0224629976
  endloop
 endfacet

 facet normal 0 0 0
  outer loop
  vertex -0.0503449999 -0.00122199999 -0.0679619983
  vertex -0.0240369998 0.0200219993 0.0224629976
  vertex -0.000406000006 0.0096760001 -0.0166040007
  endloop
 endfacet

 facet normal 0 0 0
  outer loop
  vertex -0.0503449999 -0.00122199999 -0.0679619983
  vertex -0.000406000006 0.0096760001 -0.0166040007
  vertex 0.00915300008 -0.00234999997 -0.0658650026
  endloop
 endfacet

 facet normal 0 0 0
  outer loop
  vertex 0.00915300008 -0.00234999997 -0.0658650026
  vertex 0.0119739994 -0.00352000003 -0.0667280033
  vertex 0.0102580003 -0.00545099983 -0.0713530034
  endloop
 endfacet

 facet normal 0 0 0
  outer loop
  vertex 0.00915300008 -0.00234999997 -0.0658650026
  vertex 0.0102580003 -0.00545099983 -0.0713530034
  vertex -0.0295640007 -0.00561599992 -0.0745389983
  endloop
 endfacet

 facet normal 0 0 0
  outer loop
  vertex 0.00915300008 -0.00234999997 -0.0658650026
  vertex -0.0295640007 -0.00561599992 -0.0745389983
  vertex -0.0503449999 -0.00122199999 -0.0679619983
  endloop
 endfacet

 facet normal 0 0 0
  outer loop
  vertex -0.061152 -0.0110860001 -0.0512770005
  vertex -0.0625279993 -0.00522800023 -0.0228749998
  vertex -0.0610990003 0.00308299996 -0.0124469995
  endloop
 endfacet

 facet normal 0 0 0
  outer loop
  vertex -0.061152 -0.0110860001 -0.0512770005
  vertex -0.0610990003 0.00308299996 -0.0124469995
  vertex -0.0600229986 -0.00240099989 -0.0380139984
  endloop
 endfacet

 facet normal 0 0 0
  outer loop
  vertex -0.0547470003 -0.0129709998 -0.0724319965
  vertex -0.0510529988 -0.0129709998 -0.0754039958
  vertex -0.0521549992 -0.0223159995 -0.0731830001
  endloop
 endfacet

 facet normal 0 0 0
  outer loop
  vertex -0.0547470003 -0.0129709998 -0.0724319965
  vertex -0.0521549992 -0.0223159995 -0.0731830001
  vertex -0.0577070005 -0.0220890008 -0.0687019974
  endloop
 endfacet

 facet normal 0 0 0
  outer loop
  vertex -0.0547470003 -0.0129709998 -0.0724319965
  vertex -0.0577070005 -0.0220890008 -0.0687019974
  vertex -0.0589339994 -0.0162879992 -0.0667119995
  endloop
 endfacet

 facet normal 0 0 0
  outer loop
  vertex -0.0547470003 -0.0129709998 -0.0724319965
  vertex -0.0589339994 -0.0162879992 -0.0667119995
  vertex -0.0544880033 -0.00791000016 -0.0710529983
  endloop
 endfacet

 facet normal 0 0 0
  outer loop
  vertex -0.0547470003 -0.0129709998 -0.0724319965
  vertex -0.0544880033 -0.00791000016 -0.0710529983
  vertex -0.0510529988 -0.0129709998 -0.0754039958
  endloop
 endfacet

 facet normal 0 0 0
  outer loop
  vertex 0.0130710006 -0.00890900008 -0.00214400003
  vertex 0.0098059997 -0.00664300006 0.0100979991
  vertex 0.00861100014 -0.0102350004 0.0119989989
  endloop
 endfacet

 facet normal 0 0 0
  outer loop
  vertex 0.0130710006 -0.00890900008 -0.00214400003
  vertex 0.00861100014 -0.0102350004 0.0119989989
  vertex 0.0119390003 -0.0135610001 -0.00123499997
  endloop
 endfacet

 facet normal 0 0 0
  outer loop
  vertex 0.0130710006 -0.00890900008 -0.00214400003
  vertex 0.0119390003 -0.0135610001 -0.00123499997
  vertex 0.0180610009 -0.0162870008 -0.0306209996
  endloop
 endfacet

 facet normal 0 0 0
  outer loop
  vertex 0.0130710006 -0.00890900008 -0.00214400003
  vertex 0.0180610009 -0.0162870008 -0.0306209996
  vertex 0.0184850004 -0.00738399988 -0.0349580012
  endloop
 endfacet

 facet normal 0 0 0
  outer loop
  vertex 0.0184850004 -0.00738399988 -0.0349580012
  vertex 0.0121440003 0.00146699999 -0.0162700005
  vertex 0.0098059997 -0.00664300006 0.0100979991
  endloop
 endfacet

 facet normal 0 0 0
  outer loop
  vertex 0.0184850004 -0.00738399988 -0.0349580012
  vertex 0.0098059997 -0.00664300006 0.0100979991
  vertex 0.0130710006 -0.00890900008 -0.00214400003
  endloop
 endfacet

 facet normal 0 0 0
  outer loop
  vertex 0.00211300002 -0.0115669994 0.0243069995
  vertex 0.00214 -0.0063339998 0.0266500004
  vertex -0.00363199995 -0.0112119997 0.0307199992
  endloop
 endfacet

 facet normal 0 0 0
  outer loop
  vertex 0.00211300002 -0.0115669994 0.0243069995
  vertex -0.00363199995 -0.0112119997 0.0307199992
  vertex -0.0109440014 -0.0204390008 0.0299359988
  endloop
 endfacet

 facet normal 0 0 0
  outer loop
  vertex 0.00211300002 -0.0115669994 0.0243069995
  vertex -0.0109440014 -0.0204390008 0.0299359988
  vertex 0.00196700008 -0.0146319997 0.0208209995
  endloop
 endfacet

 facet normal 0 0 0
  outer loop
  vertex 0.00211300002 -0.0115669994 0.0243069995
  vertex 0.00196700008 -0.0146319997 0.0208209995
  vertex 0.00861100014 -0.0102350004 0.0119989989
  endloop
 endfacet

 facet normal 0 0 0
  outer loop
  vertex 0.00211300002 -0.0115669994 0.0243069995
  vertex 0.00861100014 -0.0102350004 0.0119989989
  vertex 0.00214 -0.0063339998 0.0266500004
  endloop
 endfacet

 facet normal 0 0 0
  outer loop
  vertex 0.0139520001 -0.0140779987 -0.0741380006
  vertex 0.0122070005 -0.0107610002 -0.0744479969
  vertex 0.0130669996 -0.0079330001 -0.0721599981
  endloop
 endfacet

 facet normal 0 0 0
  outer loop
  vertex 0.0139520001 -0.0140779987 -0.0741380006
  vertex 0.0130669996 -0.0079330001 -0.0721599981
  vertex 0.0157680009 -0.00965300016 -0.0693370029
  endloop
 endfacet

 facet normal 0 0 0
  outer loop
  vertex 0.0139520001 -0.0140779987 -0.0741380006
  vertex 0.0157680009 -0.00965300016 -0.0693370029
  vertex 0.0177030005 -0.0173920002 -0.0692209974
  endloop
 endfacet

 facet normal 0 0 0
  outer loop
  vertex 0.0139520001 -0.0140779987 -0.0741380006
  vertex 0.0177030005 -0.0173920002 -0.0692209974
  vertex 0.0151739996 -0.0233040005 -0.072052002
  endloop
 endfacet

 facet normal 0 0 0
  outer loop
  vertex 0.0139520001 -0.0140779987 -0.0741380006
  vertex 0.0151739996 -0.0233040005 -0.072052002
  vertex 0.0124690002 -0.0162899997 -0.0750159994
  endloop
 endfacet

 facet normal 0 0 0
  outer loop
  vertex 0.0139520001 -0.0140779987 -0.0741380006
  vertex 0.0124690002 -0.0162899997 -0.0750159994
  vertex 0.0122070005 -0.0107610002 -0.0744479969
  endloop
 endfacet

 facet normal 0 0 0
  outer loop
  vertex -0.0525709987 -0.00743700005 0.0266149994
  vertex -0.0524679981 0.00140900002 0.0265590008
  vertex -0.0534330048 -0.00724000065 0.0254170001
  endloop
 endfacet

 facet normal 0 0 0
  outer loop
  vertex -0.0525709987 -0.00743700005 0.0266149994
  vertex -0.0534330048 -0.00724000065 0.0254170001
  vertex -0.0500160009 -0.0146150002 0.0263199992
  endloop
 endfacet

 facet normal 0 0 0
  outer loop
  vertex -0.00633600028 -0.0304099992 -0.0726569965
  vertex 0.0151620014 -0.0278850012 -0.066482991
  vertex -0.00301799993 -0.0331050009 -0.0582780018
  endloop
 endfacet

 facet normal 0 0 0
  outer loop
  vertex -0.00633600028 -0.0304099992 -0.0726569965
  vertex -0.00301799993 -0.0331050009 -0.0582780018
  vertex -0.0140770003 -0.0339009985 -0.0582780018
  endloop
 endfacet

 facet normal 0 0 0
  outer loop
  vertex -0.0140770003 -0.0339009985 -0.0582780018
  vertex -0.0329440013 -0.029197 -0.0727479979
  vertex -0.00965300016 -0.0292760003 -0.0757929981
  endloop
 endfacet

 facet normal 0 0 0
  outer loop
  vertex -0.0140770003 -0.0339009985 -0.0582780018
  vertex -0.00965300016 -0.0292760003 -0.0757929981
  vertex -0.00633600028 -0.0304099992 -0.0726569965
  endloop
 endfacet

 facet normal 0 0 0
  outer loop
  vertex -0.00633600028 -0.0304099992 -0.0726569965
  vertex -0.00965300016 -0.0292760003 -0.0757929981
  vertex 0.0135740014 -0.0265110005 -0.0706290007
  endloop
 endfacet

 facet normal 0 0 0
  outer loop
  vertex -0.00633600028 -0.0304099992 -0.0726569965
  vertex 0.0135740014 -0.0265110005 -0.0706290007
  vertex 0.0151620014 -0.0278850012 -0.066482991
  endloop
 endfacet

 facet normal 0 0 0
  outer loop
  vertex -0.0100400001 0.0142339999 0.0297859982
  vertex -0.00559200021 0.00885600038 0.0308529977
  vertex -0.0054429993 0.0122339996 0.0268920008
  endloop
 endfacet

 facet normal 0 0 0
  outer loop
  vertex -0.0100400001 0.0142339999 0.0297859982
  vertex -0.0054429993 0.0122339996 0.0268920008
  vertex -0.0112539995 0.0163700003 0.0275090002
  endloop
 endfacet

 facet normal 0 0 0
  outer loop
  vertex -0.0100400001 0.0142339999 0.0297859982
  vertex -0.0112539995 0.0163700003 0.0275090002
  vertex -0.0166369993 0.0175190009 0.0297269989
  endloop
 endfacet

 facet normal 0 0 0
  outer loop
  vertex -0.0100400001 0.0142339999 0.0297859982
  vertex -0.0166369993 0.0175190009 0.0297269989
  vertex -0.00559200021 0.00885600038 0.0308529977
  endloop
 endfacet

 facet normal 0 0 0
  outer loop
  vertex -0.0542630032 0.0106869992 0.00919200014
  vertex -0.055585999 0.00863900036 0.0120350001
  vertex -0.0444369987 0.0129739996 0.0262160003
  endloop
 endfacet

 facet normal 0 0 0
  outer loop
  vertex -0.0542630032 0.0106869992 0.00919200014
  vertex -0.0483639985 0.0135979997 0.0125139998
  vertex -0.0561079979 0.00934599992 -0.000765000004
  endloop
 endfacet

 facet normal 0 0 0
  outer loop
  vertex -0.0542630032 0.0106869992 0.00919200014
  vertex -0.0561079979 0.00934599992 -0.000765000004
  vertex -0.0601250008 0.00552000012 0.00144699996
  endloop
 endfacet

 facet normal 0 0 0
  outer loop
  vertex -0.0542630032 0.0106869992 0.00919200014
  vertex -0.0601250008 0.00552000012 0.00144699996
  vertex -0.055585999 0.00863900036 0.0120350001
  endloop
 endfacet

 facet normal 0 0 0
  outer loop
  vertex -0.0456489995 -0.0190849993 0.0264309999
  vertex -0.0456239991 -0.0201709997 0.0230699982
  vertex -0.0379789993 -0.0235389993 0.0275490005
  endloop
 endfacet

 facet normal 0 0 0
  outer loop
  vertex -0.0456489995 -0.0190849993 0.0264309999
  vertex -0.0500160009 -0.0146150002 0.0263199992
  vertex -0.057895001 -0.0136739993 0.00789900031
  endloop
 endfacet

 facet normal 0 0 0
  outer loop
  vertex -0.0456489995 -0.0190849993 0.0264309999
  vertex -0.057895001 -0.0136739993 0.00789900031
  vertex -0.0456239991 -0.0201709997 0.0230699982
  endloop
 endfacet

 facet normal 0 0 0
  outer loop
  vertex -0.0567619987 -0.00777999964 -0.0657370016
  vertex -0.061152 -0.0110860001 -0.0512770005
  vertex -0.0600229986 -0.00240099989 -0.0380139984
  endloop
 endfacet

 facet normal 0 0 0
  outer loop
  vertex -0.0567619987 -0.00777999964 -0.0657370016
  vertex -0.0600229986 -0.00240099989 -0.0380139984
  vertex -0.0544490032 -0.00357199972 -0.0654599965
  endloop
 endfacet

 facet normal 0 0 0
  outer loop
  vertex -0.0567619987 -0.00777999964 -0.0657370016
  vertex -0.0544490032 -0.00357199972 -0.0654599965
  vertex -0.0544880033 -0.00791000016 -0.0710529983
  endloop
 endfacet

 facet normal 0 0 0
  outer loop
  vertex -0.0567619987 -0.00777999964 -0.0657370016
  vertex -0.0544880033 -0.00791000016 -0.0710529983
  vertex -0.0589339994 -0.0162879992 -0.0667119995
  endloop
 endfacet

 facet normal 0 0 0
  outer loop
  vertex -0.0567619987 -0.00777999964 -0.0657370016
  vertex -0.0589339994 -0.0162879992 -0.0667119995
  vertex -0.061152 -0.0110860001 -0.0512770005
  endloop
 endfacet

 facet normal 0 0 0
  outer loop
  vertex -0.00893200003 -0.00796999875 -0.0765520036
  vertex -0.0085479999 -0.0111109996 -0.0788509995
  vertex -0.0306700021 -0.0090119997 -0.0776930004
  endloop
 endfacet

 facet normal 0 0 0
  outer loop
  vertex -0.00893200003 -0.00796999875 -0.0765520036
  vertex -0.0306700021 -0.0090119997 -0.0776930004
  vertex -0.0295640007 -0.00561599992 -0.0745389983
  endloop
 endfacet

 facet normal 0 0 0
  outer loop
  vertex -0.00893200003 -0.00796999875 -0.0765520036
  vertex -0.0295640007 -0.00561599992 -0.0745389983
  vertex 0.0102580003 -0.00545099983 -0.0713530034
  endloop
 endfacet

 facet normal 0 0 0
  outer loop
  vertex -0.00893200003 -0.00796999875 -0.0765520036
  vertex 0.0102580003 -0.00545099983 -0.0713530034
  vertex -0.0085479999 -0.0111109996 -0.0788509995
  endloop
 endfacet

 facet normal 0 0 0
  outer loop
  vertex -0.0446300022 -0.0191319995 0.027493
  vertex -0.0500160009 -0.0146150002 0.0263199992
  vertex -0.0456489995 -0.0190849993 0.0264309999
  endloop
 endfacet

 facet normal 0 0 0
  outer loop
  vertex -0.0446300022 -0.0191319995 0.027493
  vertex -0.0456489995 -0.0190849993 0.0264309999
  vertex -0.0379789993 -0.0235389993 0.0275490005
  endloop
 endfacet

 facet normal 0 0 0
  outer loop
  vertex -0.0446300022 -0.0191319995 0.027493
  vertex -0.0379789993 -0.0235389993 0.0275490005
  vertex -0.0212970003 -0.0245890003 0.0296570007
  endloop
 endfacet

 facet normal 0 0 0
  outer loop
  vertex -0.0446300022 -0.0191319995 0.027493
  vertex -0.0525709987 -0.00743700005 0.0266149994
  vertex -0.0500160009 -0.0146150002 0.0263199992
  endloop
 endfacet

 facet normal 0 0 0
  outer loop
  vertex -0.0577390045 0.00747499987 -0.00787099916
  vertex -0.0561079979 0.00934599992 -0.000765000004
  vertex -0.0503449999 -0.00122199999 -0.0679619983
  endloop
 endfacet

 facet normal 0 0 0
  outer loop
  vertex -0.0577390045 0.00747499987 -0.00787099916
  vertex -0.0503449999 -0.00122199999 -0.0679619983
  vertex -0.0544490032 -0.00357199972 -0.0654599965
  endloop
 endfacet

 facet normal 0 0 0
  outer loop
  vertex -0.0577390045 0.00747499987 -0.00787099916
  vertex -0.0544490032 -0.00357199972 -0.0654599965
  vertex -0.0600229986 -0.00240099989 -0.0380139984
  endloop
 endfacet

 facet normal 0 0 0
  outer loop
  vertex -0.0577390045 0.00747499987 -0.00787099916
  vertex -0.0600229986 -0.00240099989 -0.0380139984
  vertex -0.0610990003 0.00308299996 -0.0124469995
  endloop
 endfacet

 facet normal 0 0 0
  outer loop
  vertex -0.0577390045 0.00747499987 -0.00787099916
  vertex -0.0610990003 0.00308299996 -0.0124469995
  vertex -0.0601250008 0.00552000012 0.00144699996
  endloop
 endfacet

 facet normal 0 0 0
  outer loop
  vertex -0.0577390045 0.00747499987 -0.00787099916
  vertex -0.0601250008 0.00552000012 0.00144699996
  vertex -0.0561079979 0.00934599992 -0.000765000004
  endloop
 endfacet

 facet normal 0 0 0
  outer loop
  vertex -0.0145429997 -0.0235200003 0.0276260003
  vertex -0.0156670008 -0.0235089976 0.0296939984
  vertex -0.0212640017 -0.0256909989 0.0285550021
  endloop
 endfacet

 facet normal 0 0 0
  outer loop
  vertex -0.0145429997 -0.0235200003 0.0276260003
  vertex -0.0212640017 -0.0256909989 0.0285550021
  vertex 0.0164260007 -0.0279740021 -0.0540429987
  endloop
 endfacet

 facet normal 0 0 0
  outer loop
  vertex -0.0145429997 -0.0235200003 0.0276260003
  vertex 0.0164260007 -0.0279740021 -0.0540429987
  vertex 0.00964900013 -0.0201200005 -0.0102829989
  endloop
 endfacet

 facet normal 0 0 0
  outer loop
  vertex -0.0156670008 -0.0235089976 0.0296939984
  vertex -0.0212970003 -0.0245890003 0.0296570007
  vertex -0.0212640017 -0.0256909989 0.0285550021
  endloop
 endfacet

endsolid AssimpScene
