# Blender 4.1.1
# www.blender.org
mtllib idx-F2_C_L.mtl
o idx-F2_C_L
v -0.002596 0.004647 -0.005303
v 0.018395 -0.006989 -0.005303
v -0.003110 0.003719 -0.006236
v 0.017881 -0.007916 -0.006236
v -0.003697 0.002661 -0.006929
v 0.017294 -0.008975 -0.006929
v -0.004333 0.001512 -0.007356
v 0.016658 -0.010123 -0.007356
v -0.004995 0.000318 -0.007500
v 0.015995 -0.011318 -0.007500
v -0.005658 -0.000877 -0.007356
v 0.015333 -0.012512 -0.007356
v -0.006294 -0.002025 -0.006929
v 0.014697 -0.013661 -0.006929
v -0.006881 -0.003084 -0.006236
v 0.014110 -0.014719 -0.006236
v -0.007395 -0.004011 -0.005303
v 0.013596 -0.015647 -0.005303
v 0.016382 -0.008057 -0.005820
v 0.031762 -0.012467 -0.005820
v 0.016048 -0.009220 -0.006467
v 0.031428 -0.013630 -0.006467
v 0.015686 -0.010482 -0.006865
v 0.031067 -0.014892 -0.006865
v 0.015310 -0.011795 -0.007000
v 0.030690 -0.016205 -0.007000
v 0.014933 -0.013108 -0.006865
v 0.030314 -0.017518 -0.006865
v 0.014572 -0.014370 -0.006467
v 0.029952 -0.018780 -0.006467
v 0.014238 -0.015533 -0.005820
v 0.029618 -0.019943 -0.005820
v 0.011250 0.003263 -0.006500
v 0.012042 0.002684 -0.006500
v 0.012698 0.001944 -0.006500
v 0.013192 0.001071 -0.006500
v 0.013506 0.000100 -0.006500
v 0.013628 -0.000932 -0.006500
v 0.013553 -0.001987 -0.006500
v 0.013283 -0.003023 -0.006500
v 0.012830 -0.004000 -0.006500
v 0.012210 -0.004881 -0.006500
v 0.011448 -0.005632 -0.006500
v 0.010573 -0.006225 -0.006500
v 0.009617 -0.006636 -0.006500
v 0.008619 -0.006849 -0.006500
v 0.007616 -0.006857 -0.006500
v 0.006648 -0.006659 -0.006500
v 0.005750 -0.006263 -0.006500
v 0.004958 -0.005684 -0.006500
v 0.004302 -0.004944 -0.006500
v 0.003808 -0.004071 -0.006500
v 0.003494 -0.003100 -0.006500
v 0.003372 -0.002068 -0.006500
v 0.003447 -0.001013 -0.006500
v 0.003717 0.000023 -0.006500
v 0.004170 0.001000 -0.006500
v 0.004790 0.001881 -0.006500
v 0.005552 0.002632 -0.006500
v 0.006427 0.003225 -0.006500
v 0.007383 0.003636 -0.006500
v 0.008381 0.003849 -0.006500
v 0.009384 0.003857 -0.006500
v 0.010352 0.003659 -0.006500
v 0.033336 -0.012918 -0.005820
v 0.033002 -0.014081 -0.006467
v 0.032641 -0.015343 -0.006865
v 0.032264 -0.016656 -0.007000
v 0.031888 -0.017969 -0.006865
v 0.031526 -0.019231 -0.006467
v 0.031192 -0.020394 -0.005820
v -0.007433 -0.004080 -0.005200
v 0.013558 -0.015716 -0.005200
v 0.014030 -0.016260 -0.005200
v 0.029410 -0.020670 -0.005200
v 0.033544 -0.012191 -0.005200
v 0.034175 -0.014964 -0.005200
v 0.033992 -0.017152 -0.005200
v 0.032980 -0.019102 -0.005200
v 0.011250 0.003263 -0.005200
v 0.012698 0.001944 -0.005200
v 0.013506 0.000100 -0.005200
v 0.013553 -0.001987 -0.005200
v 0.012830 -0.004000 -0.005200
v 0.011448 -0.005632 -0.005200
v 0.009617 -0.006636 -0.005200
v 0.007616 -0.006857 -0.005200
v 0.005750 -0.006263 -0.005200
v 0.004302 -0.004944 -0.005200
v 0.003494 -0.003100 -0.005200
v 0.003447 -0.001013 -0.005200
v 0.004170 0.001000 -0.005200
v 0.005552 0.002632 -0.005200
v 0.007383 0.003636 -0.005200
v 0.009384 0.003857 -0.005200
v 0.012042 0.002684 -0.005200
v 0.013192 0.001071 -0.005200
v 0.013628 -0.000932 -0.005200
v 0.013283 -0.003023 -0.005200
v 0.012210 -0.004881 -0.005200
v 0.010573 -0.006225 -0.005200
v 0.008619 -0.006849 -0.005200
v 0.006648 -0.006659 -0.005200
v 0.004958 -0.005684 -0.005200
v 0.003808 -0.004071 -0.005200
v 0.003372 -0.002068 -0.005200
v 0.003717 0.000023 -0.005200
v 0.004790 0.001881 -0.005200
v 0.006427 0.003225 -0.005200
v 0.008381 0.003849 -0.005200
v 0.010352 0.003659 -0.005200
v 0.030984 -0.021121 -0.005200
v 0.032022 -0.020201 -0.005200
v 0.033599 -0.018115 -0.005200
v 0.034165 -0.016125 -0.005200
v 0.033932 -0.013520 -0.005200
v 0.018433 -0.006920 -0.005200
v -0.002558 0.004716 -0.005200
v 0.031970 -0.011740 -0.005200
v 0.016590 -0.007330 -0.005200
vn 0.3849 0.6943 -0.6081
vn 0.3202 0.5776 -0.7509
vn 0.2410 0.4347 -0.8677
vn 0.1499 0.2704 -0.9510
vn 0.0509 0.0917 -0.9945
vn -0.0508 -0.0917 -0.9945
vn -0.1500 -0.2706 -0.9509
vn -0.2408 -0.4345 -0.8679
vn -0.3203 -0.5779 -0.7506
vn 0.1748 0.6095 -0.7733
vn 0.1300 0.4533 -0.8818
vn 0.0800 0.2789 -0.9570
vn 0.0271 0.0946 -0.9952
vn -0.0271 -0.0945 -0.9952
vn -0.0800 -0.2789 -0.9570
vn -0.1300 -0.4533 -0.8818
vn -0.0000 -0.0000 -1.0000
vn -0.1748 -0.6095 -0.7733
vn -0.0271 -0.0946 -0.9952
vn -0.1300 -0.4533 -0.8819
vn 0.0271 0.0945 -0.9952
vn 0.8043 0.2352 -0.5457
vn 0.7349 0.0037 -0.6782
vn 0.6572 -0.2675 -0.7046
vn 0.5889 -0.5137 -0.6239
vn 0.7726 0.1245 -0.6226
vn 0.7004 -0.1289 -0.7020
vn 0.6242 -0.3915 -0.6761
vn 0.5548 -0.6261 -0.5479
vn 0.8746 -0.4848 -0.0003
vn -0.9613 0.2755 0.0002
vn -0.8746 0.4848 -0.0003
vn -0.0080 1.0000 -0.0000
vn 0.2004 0.9797 -0.0000
vn -0.3950 0.9187 -0.0000
vn -0.2087 0.9780 -0.0000
vn -0.7019 0.7122 -0.0000
vn -0.5610 0.8278 -0.0005
vn -0.5607 0.8280 0.0002
vn -0.5606 0.8281 -0.0000
vn -0.9072 0.4206 -0.0000
vn -0.8178 0.5755 -0.0000
vn -0.9975 0.0709 -0.0000
vn -0.9677 0.2522 -0.0000
vn -0.9515 -0.3077 -0.0000
vn -0.9931 -0.1174 -0.0000
vn -0.7483 -0.6634 -0.0000
vn -0.8705 -0.4922 0.0006
vn -0.8700 -0.4931 -0.0000
vn -0.4035 -0.9150 -0.0000
vn -0.5902 -0.8073 -0.0000
vn 0.0080 -1.0000 -0.0000
vn -0.2004 -0.9797 -0.0000
vn 0.3950 -0.9187 -0.0000
vn 0.2087 -0.9780 -0.0000
vn 0.7019 -0.7122 -0.0000
vn 0.5610 -0.8278 -0.0007
vn 0.5605 -0.8281 0.0003
vn 0.5605 -0.8282 -0.0000
vn 0.9072 -0.4206 -0.0000
vn 0.8178 -0.5755 -0.0000
vn 0.9975 -0.0709 -0.0000
vn 0.9677 -0.2522 -0.0000
vn 0.9515 0.3077 -0.0000
vn 0.9931 0.1174 -0.0000
vn 0.7483 0.6634 -0.0000
vn 0.8703 0.4925 -0.0000
vn 0.5902 0.8073 -0.0000
vn 0.4035 0.9150 -0.0003
vn 0.4039 0.9148 0.0002
vn 0.4039 0.9148 -0.0000
vn -0.3847 -0.6941 -0.6085
vn 0.3847 0.6941 -0.6085
vn 0.3203 0.5779 -0.7506
vn 0.2408 0.4345 -0.8679
vn 0.1500 0.2706 -0.9509
vn 0.0508 0.0917 -0.9945
vn -0.0509 -0.0917 -0.9945
vn -0.1499 -0.2704 -0.9510
vn -0.2410 -0.4347 -0.8677
vn -0.3202 -0.5776 -0.7509
vn 0.1300 0.4533 -0.8819
vn 0.7360 -0.0064 -0.6770
vn 0.6614 -0.2617 -0.7029
vn 0.5864 -0.5159 -0.6245
vn 0.7708 0.1299 -0.6237
vn 0.6998 -0.1184 -0.7044
vn 0.6237 -0.3922 -0.6762
vn 0.8746 -0.4848 0.0003
vn 0.8753 -0.4836 0.0012
vn 0.8755 -0.4831 0.0040
vn 0.8745 -0.4850 -0.0014
vn 0.8749 -0.4844 -0.0009
vn 0.8746 -0.4848 -0.0002
vn 0.8746 -0.4848 -0.0004
vn 0.8745 -0.4850 0.0008
vn -0.9613 0.2756 0.0005
vn -0.9607 0.2776 -0.0030
vn -0.9614 0.2751 0.0022
vn -0.9610 0.2764 0.0049
vn -0.9612 0.2757 -0.0007
vn -0.9613 0.2754 0.0005
vn -0.8746 0.4848 0.0003
vn -0.8753 0.4836 0.0012
vn -0.8755 0.4831 0.0040
vn -0.8745 0.4850 -0.0014
vn -0.8749 0.4844 -0.0009
vn -0.8746 0.4848 -0.0002
vn -0.8746 0.4848 -0.0004
vn -0.8745 0.4850 0.0008
vn -0.5608 0.8280 -0.0004
vn -0.5606 0.8281 -0.0001
vn -0.8702 -0.4926 0.0007
vn -0.8701 -0.4928 0.0005
vn 0.5607 -0.8280 -0.0005
vn 0.5605 -0.8282 -0.0002
vn 0.4037 0.9149 -0.0003
vn 0.4039 0.9148 -0.0001
vn -0.3849 -0.6943 -0.6081
vt 0.877833 1.000000
vt 0.875000 0.500000
vt 0.877833 0.500000
vt 0.875000 1.000000
vt 0.843750 0.500000
vt 0.812500 1.000000
vt 0.812500 0.500000
vt 0.781250 0.500000
vt 0.750000 1.000000
vt 0.750000 0.500000
vt 0.718750 1.000000
vt 0.718750 0.500000
vt 0.687500 0.500000
vt 0.656250 1.000000
vt 0.656250 0.500000
vt 0.625000 0.500000
vt 0.866020 1.000000
vt 0.866020 0.500000
vt 0.796822 0.014612
vt 0.514612 0.203178
vt 0.703178 0.485388
vt 0.633980 1.000000
vt 0.781250 1.000000
vt 0.687500 1.000000
vt 0.843750 1.000000
vt 0.845410 1.000000
vt 0.809433 1.000000
vt 0.722529 1.000000
vt 0.745969 1.000000
vt 0.657910 1.000000
vt 0.684433 1.000000
vt 0.842090 1.000000
vt 0.777471 1.000000
vt 0.690567 1.000000
vt 0.714970 1.000000
vt 0.654590 1.000000
vt 0.416408 0.077588
vt 0.485388 0.203178
vt 0.449553 0.383337
vt 0.928283 0.409255
vt 0.990000 0.250000
vt 0.971731 0.158156
vt 0.916408 0.422412
vt 0.985388 0.296822
vt 0.949553 0.116663
vt 0.093750 0.550000
vt 0.062500 0.500000
vt 0.093750 0.500000
vt 0.062500 0.550000
vt 0.031250 0.500000
vt 0.156250 0.550000
vt 0.125000 0.500000
vt 0.156250 0.500000
vt 0.125000 0.550000
vt 0.218750 0.550000
vt 0.187500 0.500000
vt 0.218750 0.500000
vt 0.187500 0.550000
vt 0.281250 0.550000
vt 0.250000 0.500000
vt 0.281250 0.500000
vt 0.250000 0.550000
vt 0.343750 0.550000
vt 0.312500 0.500000
vt 0.343750 0.500000
vt 0.312500 0.550000
vt 0.406250 0.550000
vt 0.375000 0.500000
vt 0.406250 0.500000
vt 0.375000 0.550000
vt 0.468750 0.550000
vt 0.437500 0.500000
vt 0.468750 0.500000
vt 0.437500 0.550000
vt 0.531250 0.550000
vt 0.500000 0.500000
vt 0.531250 0.500000
vt 0.500000 0.550000
vt 0.593750 0.550000
vt 0.562500 0.500000
vt 0.593750 0.500000
vt 0.562500 0.550000
vt 0.656250 0.550000
vt 0.625000 0.550000
vt 0.718750 0.550000
vt 0.687500 0.550000
vt 0.750000 0.550000
vt 0.843750 0.550000
vt 0.812500 0.550000
vt 0.906250 0.550000
vt 0.906250 0.500000
vt 0.875000 0.550000
vt 0.968750 0.550000
vt 0.937500 0.500000
vt 0.968750 0.500000
vt 0.937500 0.550000
vt 1.000000 0.500000
vt 0.031250 0.550000
vt 0.000000 0.500000
vt 0.633980 0.500000
vt 0.625000 1.000000
vt 0.622167 0.500000
vt 0.750000 0.490000
vt 0.796822 0.485388
vt 0.841844 0.471731
vt 0.883337 0.449553
vt 0.919706 0.419706
vt 0.949553 0.383337
vt 0.971731 0.341844
vt 0.985388 0.203178
vt 0.919706 0.080294
vt 0.883337 0.050447
vt 0.841844 0.028269
vt 0.750000 0.010000
vt 0.703178 0.014612
vt 0.658156 0.028269
vt 0.616663 0.050447
vt 0.580294 0.080294
vt 0.550447 0.116663
vt 0.528269 0.158156
vt 0.510000 0.250000
vt 0.514612 0.296822
vt 0.528269 0.341844
vt 0.550447 0.383337
vt 0.580294 0.419706
vt 0.616663 0.449553
vt 0.658156 0.471731
vt 0.785032 1.000000
vt 0.815566 1.000000
vt 0.754030 1.000000
vt 0.419706 0.419706
vt 0.416408 0.422412
vt 0.419706 0.080294
vt 0.449553 0.116663
vt 0.471731 0.158156
vt 0.490000 0.250000
vt 0.485388 0.296822
vt 0.471731 0.341844
vt 0.928283 0.090745
vt 0.916408 0.077588
vt 0.781250 0.550000
vt 1.000000 0.550000
vt 0.000000 0.550000
vt 0.622167 1.000000
s 0
f 117/1/1 1/2/1 118/3/1
f 2/4/2 3/5/2 1/2/2
f 3/5/3 6/6/3 5/7/3
f 6/6/4 7/8/4 5/7/4
f 7/8/5 10/9/5 9/10/5
f 9/10/6 12/11/6 11/12/6
f 12/11/7 13/13/7 11/12/7
f 13/13/8 16/14/8 15/15/8
f 16/14/9 17/16/9 15/15/9
f 119/17/10 19/5/10 120/18/10
f 19/5/11 22/6/11 21/7/11
f 22/6/12 23/8/12 21/7/12
f 23/8/13 26/9/13 25/10/13
f 25/10/14 28/11/14 27/12/14
f 28/11/15 29/13/15 27/12/15
f 29/13/16 32/14/16 31/15/16
f 48/19/17 56/20/17 64/21/17
f 75/22/18 71/14/18 112/22/18
f 24/23/12 66/6/12 67/23/12
f 28/11/19 68/9/19 69/11/19
f 30/24/20 71/14/20 32/14/20
f 20/25/11 66/6/11 22/6/11
f 24/23/21 68/9/21 26/9/21
f 28/11/15 70/24/15 30/24/15
f 76/17/22 116/26/22 65/25/22
f 77/27/23 67/23/23 66/6/23
f 114/28/24 68/9/24 78/29/24
f 113/30/25 70/24/25 79/31/25
f 116/32/26 66/6/26 65/25/26
f 115/33/27 68/9/27 67/23/27
f 79/34/28 69/11/28 114/35/28
f 113/36/29 112/22/29 71/14/29
f 73/37/30 12/38/30 4/39/30
f 120/40/31 25/41/31 29/42/31
f 118/43/32 7/44/32 15/45/32
f 110/46/33 63/47/33 62/48/33
f 95/49/34 64/50/34 63/47/34
f 109/51/35 61/52/35 60/53/35
f 94/54/36 62/48/36 61/52/36
f 108/55/37 59/56/37 58/57/37
f 93/58/38 60/53/39 59/56/40
f 107/59/41 57/60/41 56/61/41
f 92/62/42 58/57/42 57/60/42
f 106/63/43 55/64/43 54/65/43
f 91/66/44 56/61/44 55/64/44
f 105/67/45 53/68/45 52/69/45
f 90/70/46 54/65/46 53/68/46
f 104/71/47 51/72/47 50/73/47
f 89/74/48 52/69/49 51/72/49
f 103/75/50 49/76/50 48/77/50
f 88/78/51 50/73/51 49/76/51
f 102/79/52 47/80/52 46/81/52
f 87/82/53 48/77/53 47/80/53
f 101/83/54 45/16/54 44/15/54
f 86/84/55 46/81/55 45/16/55
f 100/85/56 43/13/56 42/12/56
f 85/86/57 44/15/58 43/13/59
f 40/8/60 84/87/60 41/10/60
f 84/87/61 42/12/61 41/10/61
f 98/88/62 39/7/62 38/5/62
f 83/89/63 40/8/63 39/7/63
f 97/90/64 37/2/64 36/91/64
f 82/92/65 38/5/65 37/2/65
f 96/93/66 35/94/66 34/95/66
f 81/96/67 36/91/67 35/94/67
f 33/97/68 96/93/68 34/95/68
f 111/98/69 33/99/70 64/50/71
f 32/14/18 74/100/18 31/15/18
f 20/25/10 76/17/10 65/25/10
f 18/101/72 72/102/72 17/16/72
f 117/1/73 2/4/73 1/2/73
f 2/4/74 4/25/74 3/5/74
f 3/5/75 4/25/75 6/6/75
f 6/6/76 8/23/76 7/8/76
f 7/8/77 8/23/77 10/9/77
f 9/10/78 10/9/78 12/11/78
f 12/11/79 14/24/79 13/13/79
f 13/13/80 14/24/80 16/14/80
f 16/14/81 18/101/81 17/16/81
f 119/17/10 20/25/10 19/5/10
f 19/5/82 20/25/82 22/6/82
f 22/6/12 24/23/12 23/8/12
f 23/8/21 24/23/21 26/9/21
f 25/10/19 26/9/19 28/11/19
f 28/11/15 30/24/15 29/13/15
f 29/13/16 30/24/16 32/14/16
f 64/21/17 33/103/17 34/104/17
f 34/104/17 35/105/17 36/106/17
f 36/106/17 37/107/17 38/108/17
f 38/108/17 39/109/17 40/44/17
f 40/44/17 41/41/17 42/110/17
f 42/110/17 43/42/17 44/45/17
f 44/45/17 45/111/17 46/112/17
f 46/112/17 47/113/17 48/19/17
f 48/19/17 49/114/17 50/115/17
f 50/115/17 51/116/17 52/117/17
f 52/117/17 53/118/17 54/119/17
f 54/119/17 55/120/17 56/20/17
f 56/20/17 57/121/17 58/122/17
f 58/122/17 59/123/17 60/124/17
f 60/124/17 61/125/17 62/126/17
f 62/126/17 63/127/17 64/21/17
f 64/21/17 34/104/17 36/106/17
f 36/106/17 38/108/17 40/44/17
f 40/44/17 42/110/17 44/45/17
f 44/45/17 46/112/17 48/19/17
f 48/19/17 50/115/17 52/117/17
f 52/117/17 54/119/17 56/20/17
f 56/20/17 58/122/17 60/124/17
f 60/124/17 62/126/17 64/21/17
f 64/21/17 36/106/17 40/44/17
f 40/44/17 44/45/17 48/19/17
f 48/19/17 52/117/17 56/20/17
f 56/20/17 60/124/17 64/21/17
f 64/21/17 40/44/17 48/19/17
f 75/22/18 32/14/18 71/14/18
f 24/23/12 22/6/12 66/6/12
f 28/11/19 26/9/19 68/9/19
f 30/24/16 70/24/16 71/14/16
f 20/25/11 65/25/11 66/6/11
f 24/23/21 67/23/21 68/9/21
f 28/11/15 69/11/15 70/24/15
f 77/27/83 115/128/83 67/23/83
f 114/28/84 69/11/84 68/9/84
f 113/30/85 71/14/85 70/24/85
f 116/32/86 77/129/86 66/6/86
f 115/33/87 78/130/87 68/9/87
f 79/34/88 70/24/88 69/11/88
f 2/131/89 117/132/89 73/37/89
f 73/37/90 18/133/90 16/134/90
f 16/134/91 14/135/91 12/38/91
f 12/38/92 10/136/92 8/137/92
f 8/137/93 6/138/93 4/39/93
f 4/39/94 2/131/94 73/37/94
f 73/37/95 16/134/95 12/38/95
f 12/38/96 8/137/96 4/39/96
f 31/45/97 74/139/97 120/40/97
f 120/40/98 19/108/98 21/109/98
f 21/109/99 23/44/99 25/41/99
f 25/41/100 27/110/100 29/42/100
f 29/42/101 31/45/101 120/40/101
f 120/40/102 21/109/102 25/41/102
f 17/111/103 72/140/103 118/43/103
f 118/43/104 1/107/104 3/108/104
f 3/108/105 5/109/105 7/44/105
f 7/44/106 9/41/106 11/110/106
f 11/110/107 13/42/107 15/45/107
f 15/45/108 17/111/108 118/43/108
f 118/43/109 3/108/109 7/44/109
f 7/44/110 11/110/110 15/45/110
f 110/46/33 95/49/33 63/47/33
f 95/49/34 111/98/34 64/50/34
f 109/51/35 94/54/35 61/52/35
f 94/54/36 110/46/36 62/48/36
f 108/55/37 93/58/37 59/56/37
f 93/58/111 109/51/40 60/53/112
f 107/59/41 92/62/41 57/60/41
f 92/62/42 108/55/42 58/57/42
f 106/63/43 91/66/43 55/64/43
f 91/66/44 107/59/44 56/61/44
f 105/67/45 90/70/45 53/68/45
f 90/70/46 106/63/46 54/65/46
f 104/71/47 89/74/47 51/72/47
f 89/74/113 105/67/49 52/69/114
f 103/75/50 88/78/50 49/76/50
f 88/78/51 104/71/51 50/73/51
f 102/79/52 87/82/52 47/80/52
f 87/82/53 103/75/53 48/77/53
f 101/83/54 86/84/54 45/16/54
f 86/84/55 102/79/55 46/81/55
f 100/85/56 85/86/56 43/13/56
f 85/86/115 101/83/59 44/15/116
f 40/8/60 99/141/60 84/87/60
f 84/87/61 100/85/61 42/12/61
f 98/88/62 83/89/62 39/7/62
f 83/89/63 99/141/63 40/8/63
f 97/90/64 82/92/64 37/2/64
f 82/92/65 98/88/65 38/5/65
f 96/93/66 81/96/66 35/94/66
f 81/96/67 97/90/67 36/91/67
f 33/97/68 80/142/68 96/93/68
f 111/98/117 80/143/71 33/99/118
f 32/14/18 75/22/18 74/100/18
f 20/25/10 119/17/10 76/17/10
f 18/101/119 73/144/119 72/102/119
