# Blender 4.1.1
# www.blender.org
mtllib idx-F2_C_TIP.mtl
o idx-F2_C_TIP
v 0.033932 -0.013520 -0.005200
v 0.032022 -0.020201 -0.005200
v 0.030984 -0.021121 -0.005200
v 0.033544 -0.012191 -0.005200
v 0.033977 -0.012335 -0.004626
v 0.031411 -0.021234 -0.004636
v 0.031411 -0.021234 -0.004636
v 0.034226 -0.012646 -0.004396
v 0.031858 -0.021076 -0.004361
v 0.032252 -0.019937 -0.005200
v 0.034270 -0.012408 -0.004139
v 0.032178 -0.020165 -0.005083
v 0.033977 -0.013788 -0.005200
v 0.034020 -0.013608 -0.005109
v 0.031749 -0.021359 -0.004036
v 0.030984 -0.021121 -0.005200
v 0.037368 -0.015721 0.000000
v 0.037398 -0.015777 -0.000450
v 0.037323 -0.015891 -0.000883
v 0.037294 -0.016104 -0.001280
v 0.037212 -0.016379 -0.001629
v 0.037092 -0.016708 -0.001916
v 0.037020 -0.017102 -0.002129
v 0.036857 -0.017505 -0.002261
v 0.036771 -0.017948 -0.002305
v 0.036621 -0.018373 -0.002261
v 0.036506 -0.018790 -0.002129
v 0.036418 -0.019180 -0.001916
v 0.036298 -0.019509 -0.001629
v 0.036233 -0.019788 -0.001280
v 0.036160 -0.019989 -0.000882
v 0.036135 -0.020118 -0.000450
v 0.036120 -0.020160 0.000000
v 0.036135 -0.020118 0.000450
v 0.036160 -0.019989 0.000882
v 0.036233 -0.019788 0.001280
v 0.036298 -0.019509 0.001629
v 0.036418 -0.019180 0.001916
v 0.036506 -0.018790 0.002129
v 0.036621 -0.018373 0.002261
v 0.036771 -0.017948 0.002305
v 0.036857 -0.017505 0.002261
v 0.037020 -0.017102 0.002129
v 0.037092 -0.016708 0.001916
v 0.037212 -0.016379 0.001629
v 0.037294 -0.016104 0.001280
v 0.037398 -0.015777 0.000450
v 0.037323 -0.015891 0.000883
v 0.032022 -0.020201 0.005200
v 0.033599 -0.018115 0.005200
v 0.034165 -0.016125 0.005200
v 0.033932 -0.013520 0.005200
v 0.033544 -0.012191 0.005200
v 0.034175 -0.014964 0.005200
v 0.033992 -0.017152 0.005200
v 0.032980 -0.019102 0.005200
v 0.030984 -0.021121 0.005200
v 0.034165 -0.016125 -0.005200
v 0.033599 -0.018115 -0.005200
v 0.032980 -0.019102 -0.005200
v 0.033992 -0.017152 -0.005200
v 0.034175 -0.014964 -0.005200
v 0.035687 -0.012758 -0.000934
v 0.034887 -0.012561 -0.003113
v 0.034873 -0.012541 0.003123
v 0.035684 -0.012752 0.000935
v 0.035390 -0.012675 0.001942
v 0.033953 -0.012304 0.004649
v 0.035398 -0.012687 -0.001938
v 0.035752 -0.012772 0.000000
v 0.032255 -0.021546 -0.003142
v 0.033002 -0.021824 -0.000948
v 0.032998 -0.021826 0.000949
v 0.032241 -0.021552 0.003149
v 0.031389 -0.021242 0.004649
v 0.032732 -0.021730 0.001967
v 0.033080 -0.021855 0.000000
v 0.032740 -0.021726 -0.001964
v 0.034020 -0.013608 -0.005109
v 0.032178 -0.020165 -0.005083
v 0.033977 -0.013788 -0.005200
v 0.031749 -0.021359 -0.004036
v 0.032252 -0.019937 -0.005200
v 0.031858 -0.021076 -0.004361
v 0.034226 -0.012646 -0.004396
v 0.034270 -0.012408 -0.004139
v 0.032769 -0.020754 0.003800
v 0.033227 -0.019080 0.004985
v 0.034358 -0.012811 0.004274
v 0.032996 -0.019975 0.004472
v 0.034232 -0.013823 0.004888
v 0.034116 -0.014608 0.005200
v 0.033366 -0.018487 0.005200
v 0.034393 -0.012418 0.003919
v 0.032551 -0.021415 0.003004
v 0.032464 -0.021633 0.002611
v 0.031858 -0.021076 -0.004361
v 0.032551 -0.021415 0.003004
v 0.032464 -0.021633 0.002611
v 0.034232 -0.013823 0.004888
v 0.034116 -0.014608 0.005200
v 0.034393 -0.012418 0.003919
v 0.034358 -0.012811 0.004274
v 0.033366 -0.018487 0.005200
v 0.033227 -0.019080 0.004985
v 0.032996 -0.019975 0.004472
v 0.032769 -0.020754 0.003800
vn 0.5872 -0.5122 -0.6268
vn 0.7747 0.1305 -0.6187
vn 0.8031 0.2346 -0.5478
vn 0.8298 0.3308 -0.4494
vn 0.5304 -0.7184 -0.4501
vn 0.5559 -0.6274 -0.5453
vn 0.9622 -0.2723 0.0021
vn 0.6258 -0.3867 -0.6774
vn 0.6262 -0.3867 -0.6770
vn 0.7747 0.1305 0.6187
vn 0.7202 -0.0663 0.6906
vn 0.7103 -0.0679 0.7006
vn 0.6598 -0.2686 0.7019
vn 0.6239 -0.3913 0.6765
vn 0.5872 -0.5122 0.6268
vn 0.5860 -0.5122 -0.6279
vn 0.5949 -0.5103 -0.6211
vn 0.5855 -0.5203 -0.6217
vn 0.7115 -0.1073 -0.6945
vn 0.7021 -0.1276 -0.7006
vn 0.7017 -0.1274 -0.7010
vn 0.7159 -0.0042 -0.6982
vn 0.7332 0.0010 -0.6800
vn 0.7333 0.0011 -0.6799
vn 0.7586 0.1491 -0.6343
vn 0.7729 0.1276 -0.6215
vn 0.7708 0.1282 -0.6241
vn 0.8830 0.4693 0.0005
vn 0.8763 0.4816 -0.0107
vn 0.8763 0.4816 -0.0109
vn 0.8676 0.4453 0.2215
vn 0.8678 0.4530 0.2042
vn 0.8673 0.4539 0.2046
vn 0.8298 0.3308 0.4494
vn 0.8027 0.2347 0.5483
vn 0.8519 0.4408 -0.2828
vn 0.8549 0.4483 -0.2610
vn 0.8535 0.4382 -0.2821
vn 0.8768 0.4806 0.0151
vn 0.8819 0.4715 -0.0004
vn 0.8768 0.4806 0.0154
vn 0.5550 -0.6280 0.5456
vn 0.5289 -0.7186 0.4515
vn 0.5066 -0.7964 0.3303
vn 0.4932 -0.8408 0.2230
vn 0.4859 -0.8716 0.0652
vn 0.4854 -0.8716 -0.0683
vn 0.4946 -0.8437 -0.2088
vn 0.5066 -0.7964 -0.3302
vn 0.6425 -0.3075 -0.7019
vn 0.6441 -0.2944 -0.7060
vn 0.6434 -0.3075 -0.7011
vn 0.7921 0.2427 -0.5601
vn 0.8028 0.2370 -0.5472
vn 0.8028 0.2370 -0.5471
vn 0.5291 -0.7189 -0.4509
vn 0.5441 -0.6546 -0.5248
vn 0.8299 0.3292 -0.4504
vn 0.8611 0.4278 -0.2747
vn 0.8616 0.4174 -0.2888
vn 0.8611 0.4280 -0.2744
vn 0.8297 0.3310 0.4496
vn 0.7971 0.2049 0.5681
vn 0.6243 -0.3913 0.6762
vn 0.5928 -0.4854 0.6426
vn 0.5560 -0.6296 0.5426
vn 0.8510 0.4110 0.3269
vn 0.8508 0.4021 0.3382
vn 0.8518 0.4106 0.3253
vn 0.8022 0.2350 -0.5488
vn 0.8043 0.2352 -0.5457
vn 0.5541 -0.6281 -0.5464
vn 0.5569 -0.6255 -0.5465
vn 0.5022 -0.8535 0.1391
vn 0.5022 -0.8535 -0.1391
vn 0.8242 -0.5226 -0.2180
vn 0.8726 0.0992 0.4783
vn 0.7298 -0.0738 0.6797
vn 0.8846 -0.3443 0.3146
vn 0.9199 0.0068 -0.3921
vn 0.9851 -0.0178 -0.1708
vn 0.9923 -0.1222 -0.0208
vn 0.9923 -0.1220 0.0208
vn 0.9851 -0.0179 0.1708
vn 0.9199 0.0069 0.3921
vn 0.8845 -0.3443 -0.3147
vn 0.7298 -0.0738 -0.6797
vn 0.8726 0.0992 -0.4782
vn 0.8243 -0.5225 0.2181
vn 0.9676 -0.2524 -0.0000
vn 0.9584 -0.2824 -0.0411
vn 0.9555 -0.2911 -0.0477
vn 0.9606 -0.2780 0.0008
vn 0.9743 -0.2253 -0.0000
vn 0.9606 -0.2780 -0.0008
vn 0.9555 -0.2911 0.0477
vn 0.9584 -0.2823 0.0411
vn 0.9700 -0.2429 -0.0000
vn 0.9565 -0.2914 0.0148
vn 0.9608 -0.2772 -0.0000
vn 0.9554 -0.2910 0.0503
vn 0.9601 -0.2793 -0.0156
vn 0.6239 -0.3913 -0.6765
vn 0.6237 -0.3919 -0.6763
vn 0.6238 -0.3917 -0.6764
vn 0.7314 -0.0063 0.6820
vn 0.7038 -0.1191 0.7004
vn 0.6453 -0.3007 0.7023
vn 0.5899 -0.5110 0.6253
vn 0.6057 -0.4841 -0.6314
vn 0.5988 -0.4829 -0.6389
vn 0.5989 -0.4828 -0.6389
vn 0.5859 -0.5125 -0.6278
vn 0.5857 -0.5203 -0.6214
vn 0.5853 -0.5204 -0.6218
vn 0.7115 -0.0527 -0.7007
vn 0.7132 -0.0534 -0.6989
vn 0.7058 -0.0743 -0.7045
vn 0.7134 -0.0873 -0.6953
vn 0.7131 -0.0879 -0.6955
vn 0.7253 -0.0682 -0.6851
vn 0.7915 0.1712 -0.5866
vn 0.7930 0.1962 -0.5768
vn 0.7929 0.1956 -0.5771
vn 0.7572 0.1456 -0.6368
vn 0.7696 0.1253 -0.6261
vn 0.7688 0.1263 -0.6269
vn 0.8724 0.4843 0.0661
vn 0.8725 0.4841 0.0663
vn 0.8676 0.4946 0.0522
vn 0.8552 0.4417 0.2711
vn 0.8557 0.4409 0.2709
vn 0.8526 0.4543 0.2583
vn 0.8038 0.2328 0.5474
vn 0.8029 0.2368 0.5471
vn 0.8684 0.4384 -0.2316
vn 0.8674 0.4509 -0.2107
vn 0.8677 0.4504 -0.2105
vn 0.8658 0.4979 -0.0496
vn 0.8719 0.4855 -0.0639
vn 0.8719 0.4856 -0.0637
vn 0.5548 -0.6261 0.5479
vn 0.5304 -0.7185 0.4501
vn 0.4946 -0.8437 0.2088
vn 0.4854 -0.8716 0.0683
vn 0.4859 -0.8716 -0.0652
vn 0.4932 -0.8408 -0.2230
vn 0.5069 -0.8034 -0.3123
vn 0.6606 -0.2751 -0.6986
vn 0.6615 -0.2615 -0.7029
vn 0.6619 -0.2615 -0.7025
vn 0.7929 0.1920 -0.5783
vn 0.7928 0.1918 -0.5786
vn 0.7986 0.2035 -0.5664
vn 0.5347 -0.7060 -0.4643
vn 0.5286 -0.7201 -0.4494
vn 0.5564 -0.6275 -0.5446
vn 0.8288 0.3288 -0.4528
vn 0.8284 0.3276 -0.4543
vn 0.8283 0.3279 -0.4544
vn 0.8300 0.3291 -0.4503
vn 0.8441 0.4242 -0.3278
vn 0.8511 0.4078 -0.3305
vn 0.8511 0.4080 -0.3305
vn 0.5069 -0.8034 0.3123
vn 0.7811 0.1806 0.5978
vn 0.8293 0.3281 0.4523
vn 0.8297 0.3313 0.4492
vn 0.8020 0.2343 0.5495
vn 0.6249 -0.3867 0.6782
vn 0.6242 -0.3915 0.6761
vn 0.5441 -0.6546 0.5248
vn 0.5347 -0.7061 0.4643
vn 0.8595 0.4220 0.2883
vn 0.8662 0.4093 0.2867
vt 0.664292 1.000000
vt 0.658222 1.000000
vt 0.657910 1.000000
vt 0.841847 1.000000
vt 0.837168 1.000000
vt 0.842090 1.000000
vt 0.845653 1.000000
vt 0.866020 1.000000
vt 0.873976 1.000000
vt 0.884749 1.000000
vt 0.876753 1.000000
vt 0.876024 1.000000
vt 0.623136 1.000000
vt 0.613067 1.000000
vt 0.624006 1.000000
vt 0.626864 1.000000
vt 0.633980 1.000000
vt 0.654590 1.000000
vt 0.219768 0.176970
vt 0.323009 0.219759
vt 0.280280 0.323014
vt 0.698000 1.000000
vt 0.714970 1.000000
vt 0.708296 1.000000
vt 0.177908 1.000000
vt 0.158744 1.000000
vt 0.157910 1.000000
vt 0.197999 1.000000
vt 0.214968 1.000000
vt 0.208290 1.000000
vt 0.229202 1.000000
vt 0.245970 1.000000
vt 0.239487 1.000000
vt 0.270800 1.000000
vt 0.254031 1.000000
vt 0.277471 1.000000
vt 0.308912 1.000000
vt 0.294221 1.000000
vt 0.309433 1.000000
vt 0.340142 1.000000
vt 0.315567 1.000000
vt 0.342090 1.000000
vt 0.666701 1.000000
vt 0.684433 1.000000
vt 0.770798 1.000000
vt 0.754030 1.000000
vt 0.777471 1.000000
vt 0.802001 1.000000
vt 0.785032 1.000000
vt 0.809433 1.000000
vt 0.822995 1.000000
vt 0.005178 1.000000
vt 0.020848 1.000000
vt 0.010546 1.000000
vt 0.051961 1.000000
vt 0.036155 1.000000
vt 0.058177 1.000000
vt 0.122862 1.000000
vt 0.111016 1.000000
vt 0.124048 1.000000
vt 0.127139 1.000000
vt 0.133980 1.000000
vt 0.154590 1.000000
vt 0.948039 1.000000
vt 0.963835 1.000000
vt 0.958341 1.000000
vt 0.979152 1.000000
vt 0.994822 1.000000
vt 0.989454 1.000000
vt 0.347359 1.000000
vt 0.366020 1.000000
vt 0.374049 1.000000
vt 0.378636 1.000000
vt 0.403278 1.000000
vt 0.402697 1.000000
vt 0.420188 1.000000
vt 0.409804 1.000000
vt 0.409222 1.000000
vt 0.447981 1.000000
vt 0.463965 1.000000
vt 0.458249 1.000000
vt 0.479247 1.000000
vt 0.495041 1.000000
vt 0.489549 1.000000
vt 0.520753 1.000000
vt 0.504959 1.000000
vt 0.526460 1.000000
vt 0.552019 1.000000
vt 0.536042 1.000000
vt 0.558332 1.000000
vt 0.583277 1.000000
vt 0.566668 1.000000
vt 0.590752 1.000000
vt 0.729200 1.000000
vt 0.745969 1.000000
vt 0.739485 1.000000
vt 0.864497 1.000000
vt 0.873247 1.000000
vt 0.604220 1.000000
vt 0.635503 1.000000
vt 0.654278 1.000000
vt 0.645799 1.000000
vt 0.885499 1.000000
vt 0.903138 1.000000
vt 0.916713 1.000000
vt 0.933155 1.000000
vt 0.926964 1.000000
vt 0.416723 1.000000
vt 0.433346 1.000000
vt 0.166701 1.000000
vt 0.184434 1.000000
vt 0.104210 1.000000
vt 0.135503 1.000000
vt 0.153756 1.000000
vt 0.145799 1.000000
vt 0.291704 1.000000
vt 0.322998 1.000000
vt 0.333299 1.000000
vt 0.364497 1.000000
vt 0.371363 1.000000
vt 0.395780 1.000000
vt 0.083287 1.000000
vt 0.066821 1.000000
vt 0.090679 1.000000
vt 0.845410 1.000000
vt 0.625995 1.000000
vt 0.265440 0.327504
vt 0.250000 0.329035
vt 0.234560 0.327504
vt 0.219720 0.323014
vt 0.206110 0.315733
vt 0.194131 0.305902
vt 0.184303 0.293917
vt 0.176987 0.280239
vt 0.172493 0.265418
vt 0.170970 0.250002
vt 0.172495 0.234589
vt 0.176991 0.219759
vt 0.184303 0.206083
vt 0.194131 0.194099
vt 0.206099 0.184278
vt 0.234560 0.172481
vt 0.250000 0.170964
vt 0.265440 0.172481
vt 0.280232 0.176970
vt 0.293901 0.184278
vt 0.305869 0.194099
vt 0.315697 0.206083
vt 0.327505 0.234589
vt 0.329030 0.250002
vt 0.327507 0.265418
vt 0.323013 0.280239
vt 0.315697 0.293917
vt 0.305869 0.305902
vt 0.293890 0.315733
vt 0.690567 1.000000
vt 0.190567 1.000000
vt 0.222529 1.000000
vt 0.260515 1.000000
vt 0.316087 1.000000
vt 0.677002 1.000000
vt 0.760513 1.000000
vt 0.791710 1.000000
vt 0.833299 1.000000
vt 0.815566 1.000000
vt 0.026349 1.000000
vt 0.041659 1.000000
vt 0.125952 1.000000
vt 0.941846 1.000000
vt 0.973662 1.000000
vt 0.345410 1.000000
vt 0.375951 1.000000
vt 0.441653 1.000000
vt 0.473534 1.000000
vt 0.510451 1.000000
vt 0.541751 1.000000
vt 0.572981 1.000000
vt 0.722529 1.000000
vt 0.854201 1.000000
vt 0.614501 1.000000
vt 0.596747 1.000000
vt 0.895790 1.000000
vt 0.909362 1.000000
vt 0.427019 1.000000
vt 0.177005 1.000000
vt 0.114501 1.000000
vt 0.096820 1.000000
vt 0.302000 1.000000
vt 0.285030 1.000000
vt 0.354201 1.000000
vt 0.385499 1.000000
vt 0.073036 1.000000
s 0
f 10/1/1 12/2/1 2/3/1
f 14/4/2 13/5/2 1/6/2
f 14/7/3 4/8/3 5/9/3
f 11/10/4 8/11/4 5/12/4
f 9/13/5 15/14/5 7/15/5
f 9/16/6 3/17/6 2/18/6
f 35/19/7 27/20/7 19/21/7
f 27/22/8 59/23/9 26/24/8
f 92/25/10 100/26/10 52/27/10
f 43/28/11 51/29/11 42/30/11
f 42/31/12 55/32/12 41/33/12
f 40/34/13 55/35/13 50/36/13
f 88/37/14 104/38/14 56/39/14
f 106/40/15 56/41/15 49/42/15
f 28/43/16 83/1/17 60/44/18
f 24/45/19 61/46/20 58/47/21
f 23/48/22 58/49/23 62/50/24
f 23/51/25 81/5/26 79/4/27
f 70/52/28 47/53/29 17/54/30
f 48/55/31 66/56/32 67/57/33
f 89/58/34 102/59/34 68/60/34
f 89/61/35 53/62/35 52/63/35
f 19/64/36 63/65/37 18/66/38
f 18/67/39 70/68/40 17/69/41
f 106/70/42 57/71/42 75/72/42
f 87/73/43 74/74/43 98/75/43
f 96/76/44 98/77/44 74/78/44
f 35/79/45 73/80/45 34/81/45
f 34/82/46 77/83/46 33/84/46
f 32/85/47 77/86/47 72/87/47
f 31/88/48 72/89/48 78/90/48
f 30/91/49 78/92/49 71/93/49
f 26/94/50 61/95/51 25/96/52
f 21/97/53 79/7/54 85/98/55
f 30/99/56 82/14/56 97/13/56
f 29/100/57 80/101/57 28/102/57
f 21/103/58 86/10/4 64/104/4
f 20/105/59 69/106/60 19/107/61
f 36/108/44 99/76/44 76/109/44
f 44/110/10 101/25/10 54/111/10
f 46/112/62 94/59/62 103/58/62
f 45/113/63 91/114/63 44/115/63
f 40/116/64 93/38/64 105/37/64
f 39/117/65 90/40/65 38/118/65
f 37/119/66 90/70/66 107/120/66
f 36/121/43 107/73/43 95/75/43
f 46/122/67 67/123/68 65/124/69
f 5/9/70 8/98/70 14/7/70
f 14/7/71 1/125/71 4/8/71
f 2/18/72 12/101/72 9/16/72
f 9/16/73 7/126/73 3/17/73
f 19/21/74 18/127/74 17/128/74
f 17/128/75 47/129/75 48/130/75
f 48/130/76 46/131/76 45/132/76
f 45/132/77 44/133/77 43/134/77
f 43/134/78 42/135/78 41/136/78
f 41/136/79 40/137/79 39/138/79
f 39/138/80 38/139/80 37/140/80
f 37/140/81 36/141/81 35/19/81
f 35/19/82 34/142/82 33/143/82
f 33/143/83 32/144/83 31/145/83
f 31/145/84 30/146/84 29/147/84
f 29/147/85 28/148/85 27/20/85
f 27/20/86 26/149/86 25/150/86
f 25/150/87 24/151/87 23/152/87
f 23/152/88 22/153/88 21/154/88
f 21/154/89 20/155/89 19/21/89
f 19/21/90 17/128/90 48/130/90
f 48/130/91 45/132/91 43/134/91
f 43/134/92 41/136/92 39/138/92
f 39/138/93 37/140/93 35/19/93
f 35/19/94 33/143/94 31/145/94
f 31/145/95 29/147/95 27/20/95
f 27/20/96 25/150/96 23/152/96
f 23/152/97 21/154/97 19/21/97
f 19/21/98 48/130/98 43/134/98
f 43/134/99 39/138/99 35/19/99
f 35/19/100 31/145/100 27/20/100
f 27/20/101 23/152/101 19/21/101
f 19/21/102 43/134/102 35/19/102
f 27/22/103 60/156/104 59/23/105
f 43/28/106 54/157/106 51/29/106
f 42/31/107 51/158/107 55/32/107
f 40/34/108 41/159/108 55/35/108
f 106/40/109 88/160/109 56/41/109
f 60/44/110 27/161/111 28/43/112
f 28/43/113 80/2/114 83/1/115
f 24/45/116 25/162/117 61/46/118
f 23/48/119 24/163/120 58/49/121
f 79/4/122 22/164/123 23/51/124
f 23/51/125 62/165/126 81/5/127
f 70/52/128 66/166/129 47/53/130
f 48/55/131 47/167/132 66/56/133
f 52/63/134 100/114/134 89/61/134
f 89/61/135 68/168/135 53/62/135
f 19/64/136 69/169/137 63/65/138
f 18/67/139 63/170/140 70/68/141
f 75/72/66 87/120/66 106/70/66
f 106/70/142 49/171/142 57/71/142
f 87/73/143 75/172/143 74/74/143
f 35/79/144 76/173/144 73/80/144
f 34/82/145 73/174/145 77/83/145
f 32/85/146 33/175/146 77/86/146
f 31/88/147 32/176/147 72/89/147
f 30/91/148 31/177/148 78/92/148
f 26/94/149 59/178/150 61/95/151
f 21/97/152 22/179/153 79/7/154
f 97/13/155 29/180/155 30/99/155
f 30/99/156 71/181/156 82/14/156
f 29/100/157 84/16/157 80/101/157
f 64/104/158 20/182/159 21/103/160
f 21/103/161 85/11/4 86/10/4
f 20/105/162 64/183/163 69/106/164
f 76/109/165 35/184/165 36/108/165
f 36/108/44 95/77/44 99/76/44
f 54/111/166 43/185/166 44/110/166
f 44/110/10 91/26/10 101/25/10
f 103/58/167 45/186/167 46/112/167
f 46/112/168 65/187/168 94/59/168
f 45/113/169 103/61/169 91/114/169
f 105/37/170 39/188/170 40/116/170
f 40/116/171 50/189/171 93/38/171
f 39/117/109 105/160/109 90/40/109
f 37/119/172 38/190/172 90/70/172
f 36/121/173 37/191/173 107/73/173
f 46/122/174 48/192/174 67/123/175
l 6 16
