# Blender 4.1.1
# www.blender.org
mtllib idx-F2_C_R.mtl
o idx-F2_C_R
v -0.007395 -0.004011 0.005303
v 0.013596 -0.015647 0.005303
v -0.006881 -0.003084 0.006236
v 0.014110 -0.014719 0.006236
v -0.006294 -0.002025 0.006929
v 0.014697 -0.013661 0.006929
v -0.005658 -0.000877 0.007356
v 0.015333 -0.012512 0.007356
v -0.004995 0.000318 0.007500
v 0.015995 -0.011318 0.007500
v -0.004333 0.001512 0.007356
v 0.016658 -0.010123 0.007356
v -0.003697 0.002661 0.006929
v 0.017294 -0.008975 0.006929
v -0.003110 0.003719 0.006236
v 0.017881 -0.007916 0.006236
v -0.002596 0.004647 0.005303
v 0.018395 -0.006989 0.005303
v 0.014238 -0.015533 0.005820
v 0.029618 -0.019943 0.005820
v 0.014572 -0.014370 0.006467
v 0.029952 -0.018780 0.006467
v 0.014933 -0.013108 0.006865
v 0.030314 -0.017518 0.006865
v 0.015310 -0.011795 0.007000
v 0.030690 -0.016205 0.007000
v 0.015686 -0.010482 0.006865
v 0.031067 -0.014892 0.006865
v 0.016048 -0.009220 0.006467
v 0.031428 -0.013630 0.006467
v 0.016382 -0.008057 0.005820
v 0.031762 -0.012467 0.005820
v 0.011250 0.003263 0.006500
v 0.012042 0.002684 0.006500
v 0.012698 0.001944 0.006500
v 0.013192 0.001071 0.006500
v 0.013506 0.000100 0.006500
v 0.013628 -0.000932 0.006500
v 0.013553 -0.001987 0.006500
v 0.013283 -0.003023 0.006500
v 0.012830 -0.004000 0.006500
v 0.012210 -0.004881 0.006500
v 0.011448 -0.005632 0.006500
v 0.010573 -0.006225 0.006500
v 0.009617 -0.006636 0.006500
v 0.008619 -0.006849 0.006500
v 0.007616 -0.006857 0.006500
v 0.006648 -0.006659 0.006500
v 0.005750 -0.006263 0.006500
v 0.004958 -0.005684 0.006500
v 0.004302 -0.004944 0.006500
v 0.003808 -0.004071 0.006500
v 0.003494 -0.003100 0.006500
v 0.003372 -0.002068 0.006500
v 0.003447 -0.001013 0.006500
v 0.003717 0.000023 0.006500
v 0.004170 0.001000 0.006500
v 0.004790 0.001881 0.006500
v 0.005552 0.002632 0.006500
v 0.006427 0.003225 0.006500
v 0.007383 0.003636 0.006500
v 0.008381 0.003849 0.006500
v 0.009384 0.003857 0.006500
v 0.010352 0.003659 0.006500
v 0.031192 -0.020394 0.005820
v 0.031526 -0.019231 0.006467
v 0.031888 -0.017969 0.006865
v 0.032264 -0.016656 0.007000
v 0.032641 -0.015343 0.006865
v 0.033002 -0.014081 0.006467
v 0.033336 -0.012918 0.005820
v -0.002558 0.004716 0.005200
v 0.018433 -0.006920 0.005200
v 0.016590 -0.007330 0.005200
v 0.031970 -0.011740 0.005200
v 0.030984 -0.021121 0.005200
v 0.032980 -0.019102 0.005200
v 0.033992 -0.017152 0.005200
v 0.034175 -0.014964 0.005200
v 0.033544 -0.012191 0.005200
v 0.033932 -0.013520 0.005200
v 0.034165 -0.016125 0.005200
v 0.033599 -0.018115 0.005200
v 0.032022 -0.020201 0.005200
v 0.013558 -0.015716 0.005200
v -0.007433 -0.004080 0.005200
v 0.029410 -0.020670 0.005200
v 0.008381 0.003849 0.005200
v 0.009384 0.003857 0.005200
v 0.010352 0.003659 0.005200
v 0.006427 0.003225 0.005200
v 0.007383 0.003636 0.005200
v 0.004790 0.001881 0.005200
v 0.005552 0.002632 0.005200
v 0.003717 0.000023 0.005200
v 0.004170 0.001000 0.005200
v 0.003372 -0.002068 0.005200
v 0.003447 -0.001013 0.005200
v 0.003808 -0.004071 0.005200
v 0.003494 -0.003100 0.005200
v 0.004958 -0.005684 0.005200
v 0.004302 -0.004944 0.005200
v 0.006648 -0.006659 0.005200
v 0.005750 -0.006263 0.005200
v 0.008619 -0.006849 0.005200
v 0.007616 -0.006857 0.005200
v 0.010573 -0.006225 0.005200
v 0.009617 -0.006636 0.005200
v 0.012210 -0.004881 0.005200
v 0.011448 -0.005632 0.005200
v 0.013283 -0.003023 0.005200
v 0.012830 -0.004000 0.005200
v 0.013628 -0.000932 0.005200
v 0.013553 -0.001987 0.005200
v 0.013192 0.001071 0.005200
v 0.013506 0.000100 0.005200
v 0.012042 0.002684 0.005200
v 0.012698 0.001944 0.005200
v 0.011250 0.003263 0.005200
v 0.014030 -0.016260 0.005200
vn -0.3847 -0.6941 0.6085
vn -0.3203 -0.5779 0.7506
vn -0.2408 -0.4345 0.8679
vn -0.1500 -0.2706 0.9509
vn -0.0508 -0.0917 0.9945
vn 0.0509 0.0917 0.9945
vn 0.1499 0.2704 0.9510
vn 0.2410 0.4347 0.8677
vn 0.3202 0.5776 0.7509
vn 0.8746 -0.4848 -0.0002
vn -0.8746 0.4848 -0.0002
vn -0.1748 -0.6095 0.7733
vn -0.1749 -0.6099 0.7730
vn -0.1300 -0.4533 0.8818
vn -0.0801 -0.2792 0.9569
vn -0.0803 -0.2789 0.9570
vn -0.0274 -0.0944 0.9952
vn -0.0270 -0.0942 0.9952
vn 0.0271 0.0946 0.9952
vn 0.0800 0.2789 0.9570
vn 0.1300 0.4533 0.8818
vn -0.9613 0.2755 0.0002
vn 0.5902 0.8073 -0.0000
vn 0.7483 0.6634 -0.0000
vn 0.8702 0.4928 0.0001
vn 0.8702 0.4927 0.0003
vn 0.8702 0.4928 -0.0000
vn 0.9515 0.3077 -0.0000
vn 0.9931 0.1174 -0.0000
vn 0.9975 -0.0709 -0.0000
vn 0.9677 -0.2522 -0.0000
vn 0.9072 -0.4206 -0.0000
vn 0.8178 -0.5755 -0.0000
vn 0.7019 -0.7122 -0.0000
vn 0.5607 -0.8280 -0.0005
vn 0.5609 -0.8279 -0.0007
vn 0.5605 -0.8282 -0.0000
vn 0.3950 -0.9187 -0.0000
vn 0.2087 -0.9780 -0.0000
vn 0.0080 -1.0000 -0.0000
vn -0.2004 -0.9797 -0.0000
vn -0.4035 -0.9150 -0.0000
vn -0.5902 -0.8073 -0.0000
vn -0.7483 -0.6634 -0.0000
vn -0.8702 -0.4928 0.0001
vn -0.8702 -0.4927 0.0003
vn -0.8702 -0.4928 -0.0000
vn -0.9515 -0.3077 -0.0000
vn -0.9931 -0.1174 -0.0000
vn -0.9975 0.0709 -0.0000
vn -0.9677 0.2522 -0.0000
vn -0.9072 0.4206 -0.0000
vn -0.8178 0.5755 -0.0000
vn -0.7019 0.7122 -0.0000
vn -0.5607 0.8280 -0.0005
vn -0.5609 0.8279 -0.0007
vn -0.5605 0.8282 -0.0000
vn -0.3950 0.9187 -0.0000
vn -0.2087 0.9780 -0.0000
vn -0.2089 0.9779 0.0003
vn -0.0080 1.0000 -0.0000
vn -0.0000 -0.0000 1.0000
vn 0.2004 0.9797 -0.0000
vn 0.4038 0.9149 -0.0004
vn 0.4036 0.9150 -0.0003
vn 0.4039 0.9148 -0.0000
vn -0.0800 -0.2789 0.9570
vn 0.0271 0.0945 0.9952
vn -0.0271 -0.0946 0.9952
vn 0.1748 0.6095 0.7733
vn 0.5548 -0.6261 0.5479
vn 0.6237 -0.3921 0.6762
vn 0.6998 -0.1184 0.7044
vn 0.7708 0.1299 0.6237
vn 0.5864 -0.5158 0.6245
vn 0.6614 -0.2617 0.7029
vn 0.7360 -0.0064 0.6770
vn 0.8043 0.2352 0.5457
vn 0.3849 0.6943 0.6081
vn -0.3849 -0.6943 0.6081
vn -0.3202 -0.5776 0.7509
vn -0.2410 -0.4347 0.8677
vn -0.1499 -0.2704 0.9510
vn -0.0509 -0.0917 0.9945
vn 0.0508 0.0917 0.9945
vn 0.1500 0.2706 0.9509
vn 0.2408 0.4345 0.8679
vn 0.3203 0.5779 0.7506
vn 0.8746 -0.4848 -0.0001
vn 0.8740 -0.4859 -0.0013
vn 0.8749 -0.4844 0.0009
vn 0.8745 -0.4850 0.0014
vn 0.8755 -0.4831 -0.0040
vn 0.8746 -0.4848 0.0003
vn 0.8748 -0.4845 0.0005
vn 0.8745 -0.4850 0.0008
vn -0.8746 0.4848 -0.0001
vn -0.8741 0.4858 -0.0012
vn -0.8749 0.4844 0.0009
vn -0.8745 0.4850 0.0014
vn -0.8755 0.4831 -0.0040
vn -0.8746 0.4848 0.0003
vn -0.8748 0.4845 0.0005
vn -0.8745 0.4850 0.0008
vn -0.0802 -0.2791 0.9569
vn -0.0272 -0.0942 0.9952
vn -0.9613 0.2756 0.0005
vn -0.9607 0.2776 -0.0030
vn -0.9610 0.2764 -0.0049
vn -0.9614 0.2751 -0.0022
vn -0.9612 0.2757 -0.0007
vn -0.9613 0.2754 0.0005
vn 0.8702 0.4927 -0.0001
vn 0.8703 0.4925 0.0003
vn 0.5613 -0.8276 -0.0006
vn -0.8702 -0.4927 -0.0001
vn -0.8703 -0.4925 0.0003
vn -0.5613 0.8276 -0.0006
vn -0.2087 0.9780 0.0003
vn 0.4033 0.9151 -0.0003
vn -0.1300 -0.4533 0.8819
vn 0.6242 -0.3915 0.6761
vn 0.7004 -0.1289 0.7020
vn 0.7726 0.1245 0.6226
vn 0.5889 -0.5137 0.6239
vn 0.6572 -0.2675 0.7046
vn 0.7349 0.0037 0.6782
vn 0.3847 0.6941 0.6085
vt 0.377833 0.500000
vt 0.375000 1.000000
vt 0.375000 0.500000
vt 0.343750 1.000000
vt 0.343750 0.500000
vt 0.312500 0.500000
vt 0.281250 1.000000
vt 0.281250 0.500000
vt 0.250000 0.500000
vt 0.250000 1.000000
vt 0.218750 0.500000
vt 0.187500 1.000000
vt 0.187500 0.500000
vt 0.156250 0.500000
vt 0.125000 1.000000
vt 0.125000 0.500000
vt 0.083592 0.422412
vt 0.014612 0.296822
vt 0.050447 0.116663
vt 0.583592 0.077588
vt 0.514612 0.203178
vt 0.550447 0.383337
vt 0.366020 0.500000
vt 0.571717 0.090745
vt 0.510000 0.250000
vt 0.528269 0.341844
vt 1.000000 1.000000
vt 0.968750 0.950000
vt 1.000000 0.950000
vt 0.968750 1.000000
vt 0.937500 0.950000
vt 0.937500 1.000000
vt 0.906250 0.950000
vt 0.906250 1.000000
vt 0.875000 0.950000
vt 0.875000 1.000000
vt 0.843750 0.950000
vt 0.843750 1.000000
vt 0.812500 0.950000
vt 0.812500 1.000000
vt 0.781250 0.950000
vt 0.781250 1.000000
vt 0.750000 0.950000
vt 0.750000 1.000000
vt 0.718750 0.950000
vt 0.718750 1.000000
vt 0.687500 0.950000
vt 0.687500 1.000000
vt 0.656250 0.950000
vt 0.656250 1.000000
vt 0.625000 0.950000
vt 0.625000 1.000000
vt 0.593750 0.950000
vt 0.593750 1.000000
vt 0.562500 0.950000
vt 0.562500 1.000000
vt 0.531250 0.950000
vt 0.531250 1.000000
vt 0.500000 0.950000
vt 0.500000 1.000000
vt 0.468750 0.950000
vt 0.468750 1.000000
vt 0.437500 0.950000
vt 0.437500 1.000000
vt 0.406250 0.950000
vt 0.406250 1.000000
vt 0.375000 0.950000
vt 0.343750 0.950000
vt 0.312500 0.950000
vt 0.312500 1.000000
vt 0.281250 0.950000
vt 0.250000 0.950000
vt 0.218750 0.950000
vt 0.218750 1.000000
vt 0.187500 0.950000
vt 0.156250 0.950000
vt 0.156250 1.000000
vt 0.125000 0.950000
vt 0.093750 0.950000
vt 0.062500 1.000000
vt 0.062500 0.950000
vt 0.158156 0.028269
vt 0.471731 0.158156
vt 0.341844 0.471731
vt 0.031250 0.950000
vt 0.031250 1.000000
vt 0.000000 0.950000
vt 0.133980 1.000000
vt 0.366020 1.000000
vt 0.345410 1.000000
vt 0.309433 1.000000
vt 0.222529 1.000000
vt 0.245970 1.000000
vt 0.157910 1.000000
vt 0.184434 1.000000
vt 0.342090 1.000000
vt 0.277471 1.000000
vt 0.190567 1.000000
vt 0.214968 1.000000
vt 0.154590 1.000000
vt 0.133980 0.500000
vt 0.122167 1.000000
vt 0.122167 0.500000
vt 0.377833 1.000000
vt 0.080294 0.080294
vt 0.083592 0.077588
vt 0.080294 0.419706
vt 0.050447 0.383337
vt 0.028269 0.341844
vt 0.010000 0.250000
vt 0.014612 0.203178
vt 0.028269 0.158156
vt 0.580294 0.419706
vt 0.583591 0.422412
vt 0.580294 0.080294
vt 0.550447 0.116663
vt 0.528269 0.158156
vt 0.514612 0.296822
vt 0.571717 0.409255
vt 0.093750 1.000000
vt 0.296822 0.485388
vt 0.250000 0.490000
vt 0.203178 0.485388
vt 0.158156 0.471731
vt 0.116663 0.449553
vt 0.116663 0.050447
vt 0.203178 0.014612
vt 0.250000 0.010000
vt 0.296822 0.014612
vt 0.341844 0.028269
vt 0.383337 0.050447
vt 0.419706 0.080294
vt 0.449553 0.116663
vt 0.485388 0.203178
vt 0.490000 0.250000
vt 0.485388 0.296822
vt 0.471731 0.341844
vt 0.449553 0.383337
vt 0.419706 0.419706
vt 0.383337 0.449553
vt 0.000000 1.000000
vt 0.285030 1.000000
vt 0.315567 1.000000
vt 0.254031 1.000000
s 0
f 86/1/1 2/2/1 1/3/1
f 1/3/2 4/4/2 3/5/2
f 4/4/3 5/6/3 3/5/3
f 5/6/4 8/7/4 7/8/4
f 8/7/5 9/9/5 7/8/5
f 10/10/6 11/11/6 9/9/6
f 11/11/7 14/12/7 13/13/7
f 14/12/8 15/14/8 13/13/8
f 15/14/9 18/15/9 17/16/9
f 73/17/10 12/18/10 4/19/10
f 86/20/11 7/21/11 15/22/11
f 120/23/12 20/4/12 19/5/13
f 20/4/14 21/6/14 19/5/14
f 21/6/15 24/7/16 23/8/15
f 24/7/17 25/9/18 23/8/18
f 26/10/19 27/11/19 25/9/19
f 27/11/20 30/12/20 29/13/20
f 30/12/21 31/14/21 29/13/21
f 120/24/22 25/25/22 29/26/22
f 33/27/23 117/28/23 119/29/23
f 34/30/24 118/31/24 117/28/24
f 35/32/25 115/33/26 118/31/27
f 36/34/28 116/35/28 115/33/28
f 37/36/29 113/37/29 116/35/29
f 38/38/30 114/39/30 113/37/30
f 39/40/31 111/41/31 114/39/31
f 40/42/32 112/43/32 111/41/32
f 41/44/33 109/45/33 112/43/33
f 42/46/34 110/47/34 109/45/34
f 43/48/35 107/49/36 110/47/37
f 44/50/38 108/51/38 107/49/38
f 45/52/39 105/53/39 108/51/39
f 46/54/40 106/55/40 105/53/40
f 47/56/41 103/57/41 106/55/41
f 48/58/42 104/59/42 103/57/42
f 49/60/43 101/61/43 104/59/43
f 50/62/44 102/63/44 101/61/44
f 51/64/45 99/65/46 102/63/47
f 52/66/48 100/67/48 99/65/48
f 53/2/49 97/68/49 100/67/49
f 54/4/50 98/69/50 97/68/50
f 55/70/51 95/71/51 98/69/51
f 56/7/52 96/72/52 95/71/52
f 57/10/53 93/73/53 96/72/53
f 58/74/54 94/75/54 93/73/54
f 59/12/55 91/76/56 94/75/57
f 60/77/58 92/78/58 91/76/58
f 61/15/59 88/79/60 92/78/59
f 88/79/61 63/80/61 89/81/61
f 51/82/62 43/83/62 35/84/62
f 63/80/63 90/85/63 89/81/63
f 64/86/64 119/87/65 90/85/66
f 24/7/67 66/70/67 67/7/67
f 28/74/68 68/10/68 69/74/68
f 32/77/21 70/12/21 71/77/21
f 22/70/14 65/4/14 66/70/14
f 24/7/69 68/10/69 26/10/69
f 28/74/20 70/12/20 30/12/20
f 32/77/70 80/88/70 75/88/70
f 76/89/71 84/90/71 65/4/71
f 77/91/72 67/7/72 66/70/72
f 82/92/73 68/10/73 78/93/73
f 81/94/74 70/12/74 79/95/74
f 84/96/75 66/70/75 65/4/75
f 83/97/76 68/10/76 67/7/76
f 79/98/77 69/74/77 82/99/77
f 81/100/78 80/88/78 71/77/78
f 31/14/70 75/88/70 74/101/70
f 87/89/12 65/4/12 20/4/12
f 17/16/79 73/102/79 72/103/79
f 86/1/80 85/104/80 2/2/80
f 1/3/81 2/2/81 4/4/81
f 4/4/82 6/70/82 5/6/82
f 5/6/83 6/70/83 8/7/83
f 8/7/84 10/10/84 9/9/84
f 10/10/85 12/74/85 11/11/85
f 11/11/86 12/74/86 14/12/86
f 14/12/87 16/77/87 15/14/87
f 15/14/88 16/77/88 18/15/88
f 2/105/89 85/106/89 73/17/89
f 73/17/90 18/107/90 16/108/90
f 16/108/91 14/109/91 12/18/91
f 12/18/92 10/110/92 8/111/92
f 8/111/93 6/112/93 4/19/93
f 4/19/94 2/105/94 73/17/94
f 73/17/95 16/108/95 12/18/95
f 12/18/96 8/111/96 4/19/96
f 17/113/97 72/114/97 86/20/97
f 86/20/98 1/115/98 3/116/98
f 3/116/99 5/117/99 7/21/99
f 7/21/100 9/25/100 11/118/100
f 11/118/101 13/26/101 15/22/101
f 15/22/102 17/113/102 86/20/102
f 86/20/103 3/116/103 7/21/103
f 7/21/104 11/118/104 15/22/104
f 120/23/12 87/89/13 20/4/12
f 20/4/14 22/70/14 21/6/14
f 21/6/105 22/70/15 24/7/15
f 24/7/18 26/10/18 25/9/106
f 26/10/68 28/74/68 27/11/68
f 27/11/20 28/74/20 30/12/20
f 30/12/21 32/77/21 31/14/21
f 31/22/107 74/119/107 120/24/107
f 120/24/108 19/116/108 21/117/108
f 21/117/109 23/21/109 25/25/109
f 25/25/110 27/118/110 29/26/110
f 29/26/111 31/22/111 120/24/111
f 120/24/112 21/117/112 25/25/112
f 33/27/23 34/30/23 117/28/23
f 34/30/24 35/32/24 118/31/24
f 35/32/113 36/34/27 115/33/114
f 36/34/28 37/36/28 116/35/28
f 37/36/29 38/38/29 113/37/29
f 38/38/30 39/40/30 114/39/30
f 39/40/31 40/42/31 111/41/31
f 40/42/32 41/44/32 112/43/32
f 41/44/33 42/46/33 109/45/33
f 42/46/34 43/48/34 110/47/34
f 43/48/37 44/50/37 107/49/115
f 44/50/38 45/52/38 108/51/38
f 45/52/39 46/54/39 105/53/39
f 46/54/40 47/56/40 106/55/40
f 47/56/41 48/58/41 103/57/41
f 48/58/42 49/60/42 104/59/42
f 49/60/43 50/62/43 101/61/43
f 50/62/44 51/64/44 102/63/44
f 51/64/116 52/66/47 99/65/117
f 52/66/48 53/2/48 100/67/48
f 53/2/49 54/4/49 97/68/49
f 54/4/50 55/70/50 98/69/50
f 55/70/51 56/7/51 95/71/51
f 56/7/52 57/10/52 96/72/52
f 57/10/53 58/74/53 93/73/53
f 58/74/54 59/12/54 94/75/54
f 59/12/57 60/77/57 91/76/118
f 60/77/58 61/15/58 92/78/58
f 61/15/59 62/120/59 88/79/119
f 88/79/61 62/120/61 63/80/61
f 35/84/62 34/121/62 33/122/62
f 33/122/62 64/123/62 63/124/62
f 63/124/62 62/125/62 61/107/62
f 61/107/62 60/108/62 59/109/62
f 59/109/62 58/18/62 57/110/62
f 57/110/62 56/111/62 55/112/62
f 55/112/62 54/19/62 53/105/62
f 53/105/62 52/126/62 51/82/62
f 51/82/62 50/127/62 49/128/62
f 49/128/62 48/129/62 47/130/62
f 47/130/62 46/131/62 45/132/62
f 45/132/62 44/133/62 43/83/62
f 43/83/62 42/134/62 41/135/62
f 41/135/62 40/136/62 39/137/62
f 39/137/62 38/138/62 37/139/62
f 37/139/62 36/140/62 35/84/62
f 35/84/62 33/122/62 63/124/62
f 63/124/62 61/107/62 59/109/62
f 59/109/62 57/110/62 55/112/62
f 55/112/62 53/105/62 51/82/62
f 51/82/62 49/128/62 47/130/62
f 47/130/62 45/132/62 43/83/62
f 43/83/62 41/135/62 39/137/62
f 39/137/62 37/139/62 35/84/62
f 35/84/62 63/124/62 59/109/62
f 59/109/62 55/112/62 51/82/62
f 51/82/62 47/130/62 43/83/62
f 43/83/62 39/137/62 35/84/62
f 35/84/62 59/109/62 51/82/62
f 63/80/63 64/86/63 90/85/63
f 64/86/66 33/141/66 119/87/120
f 24/7/67 22/70/67 66/70/67
f 28/74/68 26/10/68 68/10/68
f 32/77/21 30/12/21 70/12/21
f 22/70/121 20/4/121 65/4/121
f 24/7/69 67/7/69 68/10/69
f 28/74/20 69/74/20 70/12/20
f 32/77/70 71/77/70 80/88/70
f 77/91/122 83/142/122 67/7/122
f 82/92/123 69/74/123 68/10/123
f 81/94/124 71/77/124 70/12/124
f 84/96/125 77/143/125 66/70/125
f 83/97/126 78/144/126 68/10/126
f 79/98/127 70/12/127 69/74/127
f 31/14/70 32/77/70 75/88/70
f 87/89/12 76/89/12 65/4/12
f 17/16/128 18/15/128 73/102/128
