# Blender 4.1.1
# www.blender.org
mtllib idx-F2_C_Base.mtl
o idx-F2_C.002
v -0.007817 -0.004773 -0.004167
v 0.013174 -0.016408 -0.004167
v -0.008131 -0.005339 -0.002870
v 0.012860 -0.016974 -0.002870
v -0.008324 -0.005687 -0.001463
v 0.012667 -0.017322 -0.001463
v -0.008389 -0.005805 0.000000
v 0.012602 -0.017440 0.000000
v -0.008324 -0.005687 0.001463
v 0.012667 -0.017322 0.001463
v -0.008131 -0.005339 0.002870
v 0.012860 -0.016974 0.002870
v -0.007817 -0.004773 0.004167
v 0.013174 -0.016408 0.004167
v 0.013946 -0.016553 -0.004950
v 0.029326 -0.020963 -0.004950
v 0.013706 -0.017390 -0.003889
v 0.029086 -0.021800 -0.003889
v 0.013527 -0.018012 -0.002679
v 0.028908 -0.022422 -0.002679
v 0.013418 -0.018394 -0.001366
v 0.028798 -0.022805 -0.001366
v 0.013380 -0.018524 0.000000
v 0.028761 -0.022934 0.000000
v 0.013418 -0.018394 0.001366
v 0.028798 -0.022805 0.001366
v 0.013527 -0.018012 0.002679
v 0.028908 -0.022422 0.002679
v 0.013706 -0.017390 0.003889
v 0.029086 -0.021800 0.003889
v 0.013946 -0.016553 0.004950
v 0.029326 -0.020963 0.004950
v 0.030900 -0.021414 -0.004950
v 0.030660 -0.022251 -0.003889
v 0.030482 -0.022873 -0.002679
v 0.030372 -0.023256 -0.001366
v 0.030335 -0.023385 0.000000
v 0.030372 -0.023256 0.001366
v 0.030482 -0.022873 0.002679
v 0.030660 -0.022251 0.003889
v 0.030900 -0.021414 0.004950
v 0.014030 -0.016260 0.005200
v 0.029410 -0.020670 0.005200
v -0.007433 -0.004080 0.005200
v 0.013558 -0.015716 0.005200
v 0.029410 -0.020670 -0.005200
v 0.014030 -0.016260 -0.005200
v 0.013558 -0.015716 -0.005200
v -0.007433 -0.004080 -0.005200
v 0.016435 -0.007871 0.005200
v -0.006340 -0.002108 0.005200
v 0.017712 -0.008221 -0.005200
v -0.006353 -0.002132 -0.005200
v 0.017725 -0.008197 0.005200
v 0.016428 -0.007896 -0.005200
v -0.000766 -0.009421 -0.002870
v -0.003995 -0.008240 0.000000
v -0.000714 -0.009450 0.002870
v 0.003177 -0.010867 -0.004167
v -0.003185 -0.008535 -0.001463
v -0.003159 -0.008550 0.001463
v 0.003254 -0.010910 0.004167
v 0.031411 -0.021234 -0.004636
v 0.032740 -0.021726 -0.001964
v 0.033080 -0.021855 0.000000
v 0.032732 -0.021730 0.001967
v 0.031389 -0.021242 0.004649
v 0.008101 -0.012691 0.005200
v 0.014028 -0.014868 0.005200
v 0.008005 -0.012638 -0.005200
v 0.014396 -0.014985 -0.005200
v 0.014391 -0.015001 0.005200
v 0.014036 -0.014853 -0.005200
v 0.014396 -0.014985 -0.005200
v 0.014391 -0.015001 0.005200
v 0.014028 -0.014868 0.005200
v 0.014036 -0.014853 -0.005200
v 0.030984 -0.021121 0.005200
v 0.032241 -0.021552 0.003149
v 0.032998 -0.021826 0.000949
v 0.033002 -0.021824 -0.000948
v 0.032255 -0.021546 -0.003142
v 0.030984 -0.021121 -0.005200
v 0.003254 -0.010910 0.004167
v 0.008101 -0.012691 0.005200
v 0.008005 -0.012638 -0.005200
v 0.003177 -0.010867 -0.004167
v -0.003159 -0.008550 0.001463
v -0.000714 -0.009450 0.002870
v -0.003185 -0.008535 -0.001463
v -0.003995 -0.008240 0.000000
v -0.000766 -0.009421 -0.002870
v 0.032255 -0.021546 -0.003142
v 0.030984 -0.021121 -0.005200
v 0.031411 -0.021234 -0.004636
vn -0.3848 -0.6943 -0.6082
vn -0.4338 -0.7826 -0.4465
vn -0.4665 -0.8416 -0.2722
vn -0.4828 -0.8709 -0.0917
vn -0.4828 -0.8709 0.0917
vn -0.4665 -0.8416 0.2722
vn -0.4338 -0.7826 0.4465
vn -0.1748 -0.6095 -0.7733
vn -0.2131 -0.7431 -0.6344
vn -0.2430 -0.8476 -0.4717
vn -0.2636 -0.9200 -0.2899
vn -0.2638 -0.9200 -0.2899
vn -0.2638 -0.9201 -0.2896
vn -0.2743 -0.9566 -0.0987
vn -0.2743 -0.9566 0.0987
vn -0.2638 -0.9200 0.2899
vn -0.2636 -0.9200 0.2899
vn -0.2638 -0.9201 0.2896
vn -0.2430 -0.8476 0.4717
vn -0.2131 -0.7431 0.6344
vn -0.1748 -0.6095 0.7733
vn -0.2430 -0.8477 -0.4715
vn -0.2743 -0.9567 -0.0978
vn -0.2637 -0.9198 0.2904
vn -0.2130 -0.7431 0.6344
vn -0.2130 -0.7431 -0.6344
vn -0.2637 -0.9198 -0.2904
vn -0.2743 -0.9567 0.0978
vn -0.2430 -0.8477 0.4715
vn 0.5298 -0.7200 -0.4482
vn 0.4940 -0.8449 -0.2051
vn 0.4858 -0.8714 0.0683
vn 0.5085 -0.7950 0.3308
vn 0.5073 -0.7945 -0.3338
vn 0.4855 -0.8715 -0.0691
vn 0.4930 -0.8447 0.2085
vn 0.5286 -0.7201 0.4494
vn 0.5569 -0.6255 0.5465
vn -0.3848 -0.6943 0.6082
vn -0.1749 -0.6098 0.7731
vn 0.5569 -0.6255 -0.5465
vn 0.8745 -0.4850 -0.0000
vn -0.9612 0.2758 -0.0000
vn -0.8746 0.4848 -0.0000
vn -0.9613 0.2756 -0.0000
vn 0.8746 -0.4848 -0.0000
vn -0.3847 -0.6941 0.6085
vn -0.3847 -0.6941 -0.6085
vn -0.3849 -0.6943 -0.6081
vn -0.4665 -0.8416 -0.2721
vn -0.4665 -0.8416 0.2721
vn -0.2431 -0.8477 -0.4715
vn -0.2638 -0.9197 -0.2907
vn -0.2635 -0.9199 -0.2904
vn -0.2744 -0.9566 -0.0978
vn -0.2744 -0.9566 0.0978
vn -0.2635 -0.9199 0.2904
vn -0.2638 -0.9197 0.2907
vn -0.2431 -0.8477 0.4715
vn 0.5286 -0.7201 -0.4494
vn 0.4930 -0.8447 -0.2085
vn 0.4855 -0.8715 0.0692
vn 0.5073 -0.7945 0.3338
vn 0.5085 -0.7950 -0.3308
vn 0.4858 -0.8714 -0.0683
vn 0.4940 -0.8449 0.2051
vn 0.5298 -0.7200 0.4482
vn -0.3849 -0.6943 0.6081
vn -0.1750 -0.6097 0.7731
vn 0.8746 -0.4848 -0.0001
vn 0.8744 -0.4853 0.0001
vn 0.8759 -0.4825 -0.0000
vn 0.8744 -0.4853 -0.0001
vn 0.8745 -0.4849 -0.0000
vn 0.8745 -0.4851 -0.0000
vn -0.9613 0.2756 0.0005
vn -0.9618 0.2739 -0.0015
vn -0.9625 0.2714 -0.0009
vn -0.9625 0.2714 0.0009
vn -0.9618 0.2739 0.0015
vn -0.9614 0.2753 -0.0000
vn -0.9613 0.2755 -0.0004
vn -0.9612 0.2760 -0.0000
vn -0.9612 0.2759 0.0001
vn -0.8746 0.4848 0.0003
vn -0.8744 0.4853 0.0001
vn -0.8759 0.4825 -0.0000
vn -0.8744 0.4853 -0.0001
vn -0.8748 0.4845 -0.0001
vn -0.8747 0.4847 -0.0002
vn -0.8745 0.4851 -0.0000
vn -0.3848 -0.6942 0.6083
vn -0.3848 -0.6942 -0.6083
vt 0.622167 0.867739
vt 0.593750 1.000000
vt 0.593750 0.761884
vt 0.562500 1.000000
vt 0.562500 0.675422
vt 0.531250 1.000000
vt 0.531250 0.622398
vt 0.500000 1.000000
vt 0.500000 0.604656
vt 0.468750 0.623041
vt 0.468750 1.000000
vt 0.437500 0.676682
vt 0.437500 1.000000
vt 0.406250 0.763714
vt 0.633980 1.000000
vt 0.625000 0.500000
vt 0.633980 0.500000
vt 0.593750 0.500000
vt 0.562500 0.500000
vt 0.531250 0.500000
vt 0.500000 0.500000
vt 0.468750 0.500000
vt 0.437500 0.500000
vt 0.406250 0.500000
vt 0.406250 1.000000
vt 0.375000 0.500000
vt 0.375000 1.000000
vt 0.366020 1.000000
vt 0.625000 1.000000
vt 0.624006 1.000000
vt 0.558332 1.000000
vt 0.473534 1.000000
vt 0.495041 1.000000
vt 0.409222 1.000000
vt 0.433346 1.000000
vt 0.590752 1.000000
vt 0.526460 1.000000
vt 0.441653 1.000000
vt 0.463965 1.000000
vt 0.375951 1.000000
vt 0.403278 1.000000
vt 0.374049 1.000000
vt 0.377833 0.870021
vt 0.366020 0.500000
vt 0.625995 1.000000
vt 0.083592 0.110847
vt 0.203178 0.014612
vt 0.383337 0.050447
vt 0.928283 0.136231
vt 0.841844 0.028269
vt 0.658156 0.028269
vt 0.916408 0.153957
vt 0.796822 0.014612
vt 0.616663 0.050447
vt 0.928283 0.389063
vt 0.571717 0.135653
vt 0.571717 0.389979
vt 0.416408 0.371401
vt 0.416409 0.111431
vt 0.377833 0.500000
vt 0.622167 0.500000
vt 0.622167 1.000000
vt 0.596747 1.000000
vt 0.536042 1.000000
vt 0.566668 1.000000
vt 0.504959 1.000000
vt 0.377833 1.000000
vt 0.416408 0.077588
vt 0.083592 0.077588
vt 0.116663 0.050447
vt 0.158156 0.028269
vt 0.250000 0.010000
vt 0.296822 0.014612
vt 0.341844 0.028269
vt 0.571717 0.090745
vt 0.928283 0.090745
vt 0.919706 0.080294
vt 0.883337 0.050447
vt 0.750000 0.010000
vt 0.703178 0.014612
vt 0.580294 0.080294
vt 0.583592 0.077588
vt 0.583592 0.154904
vt 0.916408 0.077588
vt 0.083592 0.372348
s 0
f 70/1/1 2/2/1 87/3/1
f 87/3/2 4/4/2 92/5/2
f 92/5/3 6/6/3 90/7/3
f 90/7/4 8/8/4 91/9/4
f 8/8/5 88/10/5 91/9/5
f 10/11/6 89/12/6 88/10/6
f 12/13/7 84/14/7 89/12/7
f 46/15/8 15/16/8 47/17/8
f 15/16/9 18/2/9 17/18/9
f 17/18/10 20/4/10 19/19/10
f 20/4/11 21/20/12 19/19/13
f 21/20/14 24/8/14 23/21/14
f 24/8/15 25/22/15 23/21/15
f 25/22/16 28/13/17 27/23/18
f 28/13/19 29/24/19 27/23/19
f 30/25/20 31/26/20 29/24/20
f 32/27/21 78/28/21 43/28/21
f 20/4/22 34/2/22 35/4/22
f 22/6/23 37/8/23 24/8/23
f 28/13/24 38/11/24 39/13/24
f 32/27/25 40/25/25 41/27/25
f 16/29/26 34/2/26 18/2/26
f 20/4/27 36/6/27 22/6/27
f 26/11/28 37/8/28 38/11/28
f 28/13/29 40/25/29 30/25/29
f 95/30/30 34/2/30 33/29/30
f 64/31/31 36/6/31 35/4/31
f 80/32/32 37/8/32 65/33/32
f 79/34/33 39/13/33 66/35/33
f 82/36/34 35/4/34 34/2/34
f 81/37/35 37/8/35 36/6/35
f 66/38/36 38/11/36 80/39/36
f 67/40/37 40/25/37 79/41/37
f 67/42/38 78/28/38 41/27/38
f 14/25/39 68/43/39 84/14/39
f 31/26/40 43/28/21 42/44/21
f 94/15/41 63/45/41 33/29/41
f 16/29/8 83/15/8 33/29/8
f 76/46/42 10/47/42 2/48/42
f 74/49/43 19/50/43 27/51/43
f 53/52/44 5/53/44 13/54/44
f 55/55/45 75/56/45 50/57/45
f 52/58/46 69/46/46 77/59/46
f 62/14/47 44/60/47 13/24/47
f 49/61/48 59/3/48 1/18/48
f 61/10/6 11/23/6 9/22/6
f 58/12/7 13/24/7 11/23/7
f 5/20/4 57/9/4 7/21/4
f 57/9/5 9/22/5 7/21/5
f 1/18/2 56/5/2 3/19/2
f 3/19/3 60/7/3 5/20/3
f 70/1/49 48/62/49 2/2/49
f 87/3/2 2/2/2 4/4/2
f 92/5/50 4/4/50 6/6/50
f 90/7/4 6/6/4 8/8/4
f 8/8/5 10/11/5 88/10/5
f 10/11/51 12/13/51 89/12/51
f 12/13/7 14/25/7 84/14/7
f 46/15/8 16/29/8 15/16/8
f 15/16/9 16/29/9 18/2/9
f 17/18/52 18/2/52 20/4/52
f 20/4/53 22/6/53 21/20/54
f 21/20/55 22/6/55 24/8/55
f 24/8/56 26/11/56 25/22/56
f 25/22/57 26/11/58 28/13/58
f 28/13/59 30/25/59 29/24/59
f 30/25/20 32/27/20 31/26/20
f 32/27/21 41/27/21 78/28/21
f 20/4/22 18/2/22 34/2/22
f 22/6/23 36/6/23 37/8/23
f 28/13/24 26/11/24 38/11/24
f 32/27/25 30/25/25 40/25/25
f 16/29/26 33/29/26 34/2/26
f 20/4/27 35/4/27 36/6/27
f 26/11/28 24/8/28 37/8/28
f 28/13/29 39/13/29 40/25/29
f 95/30/60 93/63/60 34/2/60
f 64/31/61 81/64/61 36/6/61
f 80/32/62 38/11/62 37/8/62
f 79/34/63 40/25/63 39/13/63
f 82/36/64 64/65/64 35/4/64
f 81/37/65 65/66/65 37/8/65
f 66/38/66 39/13/66 38/11/66
f 67/40/67 41/27/67 40/25/67
f 14/25/68 45/67/68 68/43/68
f 31/26/69 32/27/21 43/28/21
f 16/29/8 46/15/8 83/15/8
f 48/68/46 73/59/46 76/46/46
f 76/46/70 45/69/70 14/70/70
f 14/70/71 12/71/71 10/47/71
f 10/47/72 8/72/72 6/73/72
f 6/73/73 4/74/73 2/48/73
f 2/48/74 48/68/74 76/46/74
f 76/46/70 14/70/70 10/47/70
f 10/47/75 6/73/75 2/48/75
f 42/75/45 72/56/45 74/49/45
f 74/49/76 47/76/76 15/77/76
f 15/77/77 17/78/77 19/50/77
f 19/50/78 21/53/78 23/79/78
f 23/79/79 25/80/79 27/51/79
f 27/51/80 29/54/80 31/81/80
f 31/81/81 42/75/81 74/49/81
f 74/49/82 15/77/82 19/50/82
f 19/50/83 23/79/83 27/51/83
f 27/51/84 31/81/84 74/49/84
f 44/82/44 51/83/44 53/52/44
f 53/52/85 49/84/85 1/78/85
f 1/78/86 3/50/86 5/53/86
f 5/53/87 7/79/87 9/80/87
f 9/80/88 11/51/88 13/54/88
f 13/54/89 44/82/89 53/52/89
f 53/52/90 1/78/90 5/53/90
f 5/53/91 9/80/91 13/54/91
f 55/55/45 71/49/45 75/56/45
f 52/58/46 54/85/46 69/46/46
f 62/14/92 85/43/92 44/60/92
f 49/61/93 86/1/93 59/3/93
f 61/10/51 58/12/51 11/23/51
f 58/12/7 62/14/7 13/24/7
f 5/20/4 60/7/4 57/9/4
f 57/9/5 61/10/5 9/22/5
f 1/18/2 59/3/2 56/5/2
f 3/19/3 56/5/3 60/7/3
