# Blender 4.1.1
# www.blender.org
mtllib thumb_F2_C_Base.mtl
o geometry_0
v -0.067486 0.020738 0.000215
v -0.067594 0.020364 0.002707
v -0.028998 0.017088 0.002697
v -0.028618 0.017307 0.000144
v -0.066593 0.020664 -0.001316
v -0.067137 0.019810 -0.003320
v -0.077765 0.010985 0.006851
v -0.067369 0.019511 0.005450
v -0.028595 0.016291 0.005237
v -0.021620 0.016181 0.002180
v -0.027439 0.016654 -0.003464
v -0.032063 0.017465 -0.001781
v -0.065158 0.020125 -0.003516
v -0.065220 0.019154 -0.005456
v -0.077866 0.010778 -0.007082
v -0.064251 0.017921 -0.006911
v -0.025461 0.015444 0.006393
v -0.015313 0.012958 0.003748
v -0.017408 0.014576 -0.000458
v -0.020162 0.015288 -0.002658
v -0.032070 0.016399 -0.005083
v -0.077656 -0.003449 -0.004973
v -0.078316 -0.001122 -0.004596
v -0.078308 -0.001605 0.004757
v -0.076865 -0.005036 0.005105
v -0.014018 0.010940 0.006249
v -0.010588 0.011027 -0.000623
v -0.076873 -0.004935 -0.005155
v -0.017948 0.011918 -0.007000
v -0.014976 0.010762 -0.007000
v -0.070186 -0.002570 -0.007000
v -0.078394 0.009531 -0.007000
v -0.031008 0.015019 -0.007090
v -0.076958 0.011746 -0.006931
v -0.025096 0.014282 -0.007048
v -0.067690 -0.004701 -0.007000
v -0.069110 -0.003765 -0.007000
v -0.077804 0.006743 -0.007000
v -0.077882 0.006979 -0.007000
v -0.066048 -0.005247 -0.007000
v -0.067384 -0.004885 -0.007000
v -0.078347 0.008575 -0.007000
v -0.078396 0.008857 -0.007000
v -0.078401 0.009509 -0.007000
v -0.065500 -0.004904 0.007000
v -0.060233 -0.006053 0.007000
v -0.027395 0.015223 0.007000
v -0.025275 0.014900 0.007000
v -0.069603 -0.003330 0.007000
v -0.078394 0.009005 0.007000
v -0.012305 0.009114 0.007000
v -0.072522 -0.000579 0.007000
v -0.078003 0.010231 0.007000
v -0.077271 0.011117 0.007000
v -0.077162 0.011241 0.007000
v -0.076807 0.011541 0.007000
v -0.067067 0.018645 0.007091
v -0.029596 0.015546 0.006913
v -0.070727 -0.002453 0.007000
v -0.014922 0.010726 0.007000
v -0.078219 0.007399 0.007000
v -0.078385 0.007959 0.007000
v -0.078392 0.008788 0.007000
v -0.068285 -0.003839 0.007000
v -0.020433 0.013695 0.006964
v -0.069566 -0.006000 -0.006326
v -0.067312 -0.006000 -0.006567
v -0.070227 -0.006000 0.006110
v -0.076051 -0.006000 -0.000920
v -0.075926 -0.006000 0.005108
v -0.073136 -0.006000 0.005722
v -0.076021 -0.006000 -0.005132
v -0.074011 -0.006000 -0.005553
v -0.069972 -0.006000 -0.006258
v -0.067795 -0.006000 0.006395
v -0.072470 -0.006000 0.005845
v -0.061016 -0.006000 -0.007000
v -0.010000 0.009823 0.003208
v -0.010000 0.008989 0.004959
v -0.010000 0.009688 -0.005366
v -0.010000 0.008388 0.005928
v -0.010000 0.009614 -0.005636
v -0.010000 0.010214 -0.002955
v -0.010000 0.010664 -0.000631
v -0.010000 0.010635 -0.000847
v -0.010000 0.007496 0.007000
v -0.010000 0.008537 -0.007000
v -0.010000 0.009405 -0.005997
v -0.010000 0.010621 -0.000415
vn 0.0836 0.9849 0.1516
vn 0.0877 0.9913 0.0980
vn 0.0880 0.9961 0.0025
vn -0.3890 0.8809 -0.2697
vn -0.5529 0.7909 -0.2623
vn -0.6884 0.7253 -0.0003
vn -0.6568 0.7494 0.0840
vn -0.5848 0.7598 0.2843
vn 0.0808 0.9536 0.2900
vn 0.0811 0.9546 0.2865
vn 0.1364 0.9513 0.2766
vn 0.1286 0.9863 0.1036
vn 0.1223 0.9829 -0.1378
vn 0.0908 0.9926 -0.0807
vn 0.1901 0.9751 -0.1143
vn -0.1805 0.9216 -0.3436
vn 0.0882 0.9793 -0.1824
vn -0.1832 0.8816 -0.4350
vn -0.3864 0.7256 -0.5694
vn -0.7288 0.6847 -0.0049
vn -0.3000 0.6196 -0.7253
vn -0.5204 0.7120 0.4714
vn 0.0756 0.8877 0.4542
vn 0.0766 0.8931 0.4432
vn 0.0777 0.8928 0.4437
vn 0.1454 0.9436 0.2975
vn 0.3513 0.8636 0.3615
vn 0.4245 0.8956 0.1329
vn 0.3100 0.9472 -0.0813
vn 0.1960 0.9732 -0.1204
vn 0.2620 0.8814 0.3929
vn 0.1239 0.8629 -0.4900
vn 0.0850 0.9180 -0.3874
vn 0.0896 0.9709 -0.2219
vn 0.2124 0.8731 -0.4389
vn 0.0790 0.8906 -0.4479
vn 0.0758 0.8397 -0.5377
vn 0.0649 0.7820 -0.6198
vn -0.5765 -0.1679 -0.7997
vn -0.8174 -0.1411 -0.5585
vn -1.0000 -0.0081 0.0004
vn -0.6208 -0.1838 0.7622
vn -0.2406 -0.1718 0.9553
vn 0.3948 0.8041 0.4444
vn 0.4609 0.8807 0.1091
vn 0.1090 0.8449 -0.5237
vn -0.5222 -0.1736 -0.8350
vn -0.2063 -0.1688 -0.9638
vn -0.9222 -0.3866 0.0115
vn -0.9626 -0.2707 -0.0132
vn -0.8847 -0.4662 -0.0040
vn 0.3949 0.6409 0.6582
vn 0.5196 0.8380 0.1668
vn -0.9208 0.3900 0.0009
vn 0.3202 0.7163 -0.6200
vn 0.2753 0.8224 -0.4979
vn -0.3933 0.4659 0.7926
vn -0.3480 0.3049 0.8865
vn -0.3451 0.2853 0.8942
vn -1.0000 -0.0080 0.0003
vn -0.9528 0.3034 0.0114
vn -0.1123 -0.2907 0.9502
vn 0.1153 0.7566 0.6436
vn 0.1934 0.7589 0.6218
vn 0.3640 0.6832 0.6331
vn -0.0771 -0.3535 0.9323
vn 0.0941 0.8005 0.5919
vn -0.4589 0.6209 0.6355
vn -0.1664 -0.2524 -0.9532
vn -0.2015 -0.1815 -0.9625
vn -0.1760 -0.2256 0.9582
vn -0.2105 -0.2016 0.9566
vn -0.7810 -0.6245 -0.0056
vn -0.7160 -0.6979 0.0149
vn -0.1114 -0.2914 0.9501
vn -0.0624 -0.4168 -0.9069
vn -0.1588 -0.2646 -0.9512
vn -0.0990 -0.3659 -0.9254
vn 0.5206 0.8464 -0.1121
vn 0.5005 0.8490 -0.1695
vn 0.3193 0.8206 -0.4741
vn 0.4749 0.6767 0.5627
vn 0.4496 0.8727 -0.1905
vn 0.4186 0.8758 -0.2403
vn 0.5030 0.7344 0.4558
vn 0.4994 0.7822 0.3725
vn 0.5134 0.8381 0.1846
s 0
f 1//1 2//1 3//1
f 1//2 3//2 4//2
f 1//3 4//3 5//3
f 1//4 5//4 6//4
f 1//5 6//5 34//5
f 1//6 34//6 7//6
f 1//7 7//7 2//7
f 2//8 7//8 8//8
f 2//9 8//9 9//9
f 2//10 9//10 3//10
f 3//11 9//11 10//11
f 3//12 10//12 4//12
f 4//13 11//13 12//13
f 4//14 12//14 5//14
f 4//15 10//15 11//15
f 5//16 13//16 6//16
f 5//17 12//17 13//17
f 6//18 13//18 14//18
f 6//19 14//19 34//19
f 34//20 15//20 7//20
f 34//21 14//21 16//21
f 7//22 57//22 8//22
f 8//23 57//23 58//23
f 8//24 58//24 9//24
f 9//25 58//25 17//25
f 9//26 17//26 10//26
f 10//27 65//27 18//27
f 10//28 18//28 19//28
f 10//29 19//29 20//29
f 10//30 20//30 11//30
f 10//31 17//31 65//31
f 11//32 35//32 21//32
f 11//33 21//33 13//33
f 11//34 13//34 12//34
f 11//35 20//35 35//35
f 13//36 21//36 14//36
f 14//37 21//37 33//37
f 14//38 33//38 16//38
f 42//39 39//39 22//39
f 42//40 22//40 23//40 43//40
f 63//41 23//41 24//41 62//41
f 62//42 24//42 25//42 61//42
f 61//43 25//43 52//43
f 65//44 26//44 18//44
f 18//45 27//45 19//45
f 35//46 33//46 21//46
f 38//47 28//47 22//47 39//47
f 38//48 31//48 28//48
f 22//49 25//49 24//49
f 22//50 24//50 23//50
f 22//51 28//51 25//51
f 60//52 51//52 26//52
f 89//53 84//53 27//53
f 7//54 15//54 32//54
f 88//55 87//55 30//55
f 20//56 29//56 35//56
f 7//57 55//57 56//57
f 7//58 54//58 55//58
f 7//59 53//59 54//59
f 43//60 23//60 63//60 50//60 44//60
f 7//61 32//61 44//61 50//61 53//61
f 76//62 68//62 64//62 49//62
f 17//63 47//63 48//63
f 17//64 48//64 65//64
f 26//65 65//65 60//65
f 46//66 45//66 75//66
f 17//67 58//67 47//67
f 7//68 56//68 57//68
f 36//69 74//69 73//69 37//69
f 28//70 31//70 37//70 73//70 72//70
f 59//71 71//71 76//71 49//71
f 25//72 70//72 71//72 59//72 52//72
f 25//73 28//73 72//73 69//73
f 25//74 69//74 70//74
f 64//75 68//75 75//75 45//75
f 40//76 77//76 67//76
f 36//77 41//77 66//77 74//77
f 40//78 67//78 66//78 41//78
f 27//79 84//79 85//79
f 27//80 85//80 83//80
f 20//81 82//81 88//81 30//81 29//81
f 26//82 51//82 86//82 81//82
f 19//83 27//83 83//83 80//83
f 19//84 80//84 82//84 20//84
f 26//85 81//85 79//85
f 18//86 26//86 79//86 78//86
f 18//87 78//87 89//87 27//87
