# Blender 4.1.1
# www.blender.org
mtllib thumb_F2_C_L.mtl
o geometry_L
v -0.076958 0.011746 -0.006931
v -0.062777 0.016094 -0.008342
v -0.061838 0.014629 -0.009086
v -0.078401 0.009515 -0.007158
v -0.025096 0.014282 -0.007048
v -0.031008 0.015019 -0.007090
v -0.057012 0.010422 -0.010416
v -0.030294 0.012854 -0.009125
v -0.027873 0.010940 -0.010336
v -0.023762 0.008158 -0.011531
v -0.077905 0.008008 -0.007200
v -0.053901 0.005421 -0.011494
v -0.053770 0.004250 -0.011607
v -0.017672 0.011497 -0.007543
v -0.019976 0.009152 -0.010439
v -0.025608 0.005583 -0.012090
v -0.014561 0.004603 -0.011470
v -0.023009 0.004517 -0.012244
v -0.053723 0.003250 -0.011543
v -0.023568 0.001887 -0.012188
v -0.010402 0.006858 -0.009148
v -0.004964 0.005244 -0.007820
v -0.015748 0.000725 -0.012075
v -0.010782 0.002851 -0.010943
v -0.053738 0.002088 -0.011218
v -0.017866 -0.000913 -0.012009
v -0.006081 0.001016 -0.009525
v -0.012489 -0.001703 -0.011399
v -0.017493 -0.002647 -0.011536
v -0.018494 -0.004291 -0.010522
v -0.018564 -0.005132 -0.009882
v -0.018634 -0.005944 -0.009135
v -0.007090 -0.003979 -0.008457
v -0.014227 -0.004668 -0.010164
v -0.015763 -0.007025 -0.007950
v -0.010364 -0.006456 -0.007580
v -0.003515 0.004016 -0.007000
v -0.078401 0.009509 -0.007000
v -0.078347 0.008575 -0.007000
v -0.078396 0.008857 -0.007000
v -0.067384 -0.004885 -0.007000
v -0.066048 -0.005247 -0.007000
v -0.016176 -0.007621 -0.007000
v -0.015159 -0.007573 -0.007000
v -0.077882 0.006979 -0.007000
v -0.077804 0.006743 -0.007000
v -0.069110 -0.003765 -0.007000
v -0.067690 -0.004701 -0.007000
v -0.064251 0.017921 -0.006911
v -0.077866 0.010778 -0.007082
v -0.009518 -0.006477 -0.007000
v -0.006747 -0.004989 -0.007000
v -0.050195 -0.007234 -0.007000
v -0.046296 -0.007362 -0.007000
v -0.052685 -0.007099 -0.007000
v -0.055362 -0.006847 -0.007000
v -0.011309 -0.006989 -0.007000
v -0.004004 -0.000958 -0.007000
v -0.002841 0.001605 -0.007000
v -0.078394 0.009531 -0.007000
v -0.010425 -0.006761 -0.007000
v -0.070186 -0.002570 -0.007000
v -0.032908 -0.007594 -0.007000
v -0.044671 -0.007415 -0.007000
v -0.004349 0.005260 -0.007000
v -0.006756 0.006893 -0.007000
v -0.009665 0.008387 -0.007000
v -0.014976 0.010762 -0.007000
v -0.017948 0.011918 -0.007000
vn -0.2308 0.4776 -0.8477
vn -0.1962 0.3416 -0.9191
vn -0.1943 0.3275 -0.9247
vn -0.9208 0.3900 0.0009
vn -0.9529 0.3030 0.0114
vn -0.1543 0.1326 -0.9791
vn -0.1546 0.1244 -0.9801
vn 0.0567 0.6937 -0.7180
vn 0.0451 0.6383 -0.7685
vn 0.0367 0.5669 -0.8230
vn 0.0176 0.4622 -0.8866
vn 0.0108 0.4082 -0.9128
vn -0.0125 0.2884 -0.9574
vn -0.1544 0.1155 -0.9812
vn -0.1613 0.0765 -0.9839
vn -0.1846 -0.0337 -0.9822
vn 0.3193 0.8206 -0.4741
vn 0.2753 0.8224 -0.4979
vn 0.1270 0.6399 -0.7579
vn 0.0920 0.6980 -0.7101
vn 0.2056 0.6741 -0.7095
vn 0.1341 0.6361 -0.7599
vn -0.0174 0.2238 -0.9745
vn -0.0217 0.1977 -0.9800
vn 0.1071 0.5220 -0.8462
vn 0.1580 0.3935 -0.9057
vn 0.0871 0.2087 -0.9741
vn 0.0224 0.1965 -0.9802
vn -0.1899 -0.0712 -0.9792
vn -0.0215 0.0934 -0.9954
vn -0.0214 0.0919 -0.9955
vn -0.0206 -0.0171 -0.9996
vn -0.0242 -0.0647 -0.9976
vn 0.3202 0.7163 -0.6200
vn 0.5144 0.7582 -0.4007
vn 0.3585 0.6979 -0.6201
vn 0.2518 0.6443 -0.7221
vn 0.2267 0.4640 -0.8564
vn 0.0892 0.1268 -0.9879
vn 0.2935 0.3676 -0.8825
vn 0.1815 0.0971 -0.9786
vn 0.0109 -0.0237 -0.9997
vn -0.2015 -0.1815 -0.9625
vn -0.0265 -0.1174 -0.9927
vn -0.0437 -0.2692 -0.9621
vn 0.0070 -0.0494 -0.9988
vn 0.7016 0.4703 -0.5354
vn 0.3211 0.3618 -0.8752
vn 0.3709 0.2613 -0.8911
vn 0.2153 0.0170 -0.9764
vn 0.0889 -0.1547 -0.9840
vn 0.2849 -0.0109 -0.9585
vn -0.0439 -0.2716 -0.9614
vn 0.0732 -0.2477 -0.9661
vn -0.0475 -0.5033 -0.8628
vn -0.0326 -0.6029 -0.7971
vn -0.0222 -0.6761 -0.7365
vn -0.0221 -0.6771 -0.7355
vn 0.7137 -0.4857 -0.5047
vn 0.6211 -0.2818 -0.7314
vn 0.3727 -0.2654 -0.8892
vn 0.2472 -0.4924 -0.8345
vn 0.1065 -0.4348 -0.8942
vn 0.0235 -0.5352 -0.8444
vn -0.0115 -0.7526 -0.6584
vn -0.0014 -0.8466 -0.5322
vn 0.0131 -0.6056 -0.7956
vn 0.0249 -0.6783 -0.7344
vn 0.0341 -0.6961 -0.7172
vn 0.2704 -0.8634 -0.4260
vn 0.3835 -0.7143 -0.5855
vn 0.2249 -0.8718 -0.4352
vn 0.2412 -0.5913 -0.7695
vn 0.1227 -0.7209 -0.6821
vn -0.1664 -0.2524 -0.9532
vn -0.5222 -0.1736 -0.8350
vn 0.1247 -0.8231 -0.5540
vn 0.0408 -0.8541 -0.5185
vn -0.0624 -0.4168 -0.9069
vn -0.1588 -0.2646 -0.9512
vn -0.0990 -0.3659 -0.9254
vn -0.5765 -0.1679 -0.7997
vn -0.8174 -0.1411 -0.5585
vn -1.0000 -0.0080 0.0002
vn -0.2063 -0.1688 -0.9638
vn 0.5875 0.1643 -0.7924
s 0
f 1//1 49//1 2//1
f 1//2 2//2 3//2
f 1//3 3//3 50//3
f 50//4 4//4 60//4
f 60//5 4//5 38//5
f 50//6 3//6 7//6
f 50//7 7//7 4//7
f 49//8 6//8 8//8
f 49//9 8//9 2//9
f 2//10 8//10 9//10
f 2//11 9//11 3//11
f 3//12 9//12 10//12
f 3//13 10//13 7//13
f 4//14 7//14 12//14
f 4//15 12//15 13//15
f 4//16 13//16 11//16
f 69//17 68//17 14//17
f 69//18 14//18 5//18
f 5//19 9//19 8//19
f 5//20 8//20 6//20
f 5//21 14//21 15//21
f 5//22 15//22 9//22
f 7//23 10//23 16//23
f 7//24 16//24 12//24
f 9//25 15//25 10//25
f 10//26 15//26 17//26
f 10//27 17//27 18//27
f 10//28 18//28 16//28
f 11//29 13//29 19//29
f 12//30 16//30 13//30
f 13//31 16//31 18//31
f 13//32 18//32 20//32
f 13//33 20//33 19//33
f 67//34 21//34 14//34 68//34
f 66//35 65//35 22//35
f 66//36 22//36 21//36 67//36
f 14//37 21//37 15//37
f 15//38 21//38 17//38
f 17//39 23//39 18//39
f 17//40 21//40 24//40
f 17//41 24//41 23//41
f 18//42 23//42 20//42
f 62//43 19//43 47//43
f 19//44 20//44 26//44
f 19//45 26//45 25//45
f 20//46 23//46 26//46
f 65//47 37//47 22//47
f 21//48 22//48 24//48
f 22//49 27//49 24//49
f 23//50 24//50 28//50
f 23//51 28//51 26//51
f 24//52 27//52 28//52
f 25//53 26//53 29//53
f 26//54 28//54 29//54
f 56//55 29//55 30//55 55//55
f 55//56 30//56 31//56 53//56
f 53//57 31//57 32//57 54//57
f 54//58 32//58 64//58
f 58//59 52//59 33//59
f 58//60 33//60 27//60 59//60
f 27//61 33//61 28//61
f 28//62 33//62 34//62
f 28//63 34//63 29//63
f 29//64 34//64 30//64
f 64//65 32//65 35//65 63//65
f 63//66 35//66 43//66
f 30//67 34//67 31//67
f 31//68 34//68 32//68
f 32//69 34//69 35//69
f 51//70 61//70 36//70
f 51//71 36//71 33//71 52//71
f 61//72 57//72 36//72
f 33//73 36//73 34//73
f 34//74 36//74 35//74
f 19//75 48//75 47//75
f 11//76 46//76 45//76
f 35//77 36//77 57//77 44//77
f 35//78 44//78 43//78
f 25//79 29//79 56//79 42//79
f 19//80 25//80 41//80 48//80
f 25//81 42//81 41//81
f 4//82 11//82 45//82 39//82
f 4//83 39//83 40//83
f 4//84 40//84 38//84
f 11//85 19//85 62//85 46//85
f 22//86 37//86 59//86 27//86
