# Blender 4.1.1
# www.blender.org
mtllib thumb_F2_C_TIP.mtl
o geometry_tip
v -0.002024 0.005115 0.002398
v -0.009270 0.009206 -0.005850
v -0.002497 0.003621 0.005328
v 0.000746 0.000689 0.002868
v -0.000286 0.004154 -0.001478
v -0.002629 0.006116 -0.000743
v -0.002016 0.005322 -0.003888
v 0.000855 0.001297 -0.000750
v -0.002000 -0.001039 0.006580
v -0.001054 0.001929 -0.005608
v -0.009665 0.008387 -0.007000
v -0.006756 0.006893 -0.007000
v -0.002841 0.001605 -0.007000
v -0.004004 -0.000958 -0.007000
v -0.004349 0.005260 -0.007000
v -0.006747 -0.004989 -0.007000
v -0.003515 0.004016 -0.007000
v -0.003238 0.002159 0.007000
v -0.003125 -0.001729 0.007000
v -0.002853 0.001250 0.007000
v -0.002728 -0.001042 0.007000
v -0.002522 -0.000271 0.007000
v -0.007223 -0.005591 0.007000
v -0.006018 0.004701 0.007000
v -0.004665 -0.006000 0.000270
v -0.005709 -0.006000 -0.004449
v -0.004948 -0.006000 0.002095
v -0.006468 -0.006000 0.005724
v -0.004592 -0.006000 0.001002
v -0.005872 -0.006000 -0.004791
v -0.007291 -0.006000 0.006607
v -0.008629 -0.006000 -0.007000
v -0.006403 -0.006000 -0.005542
v -0.008133 -0.006000 0.007000
v -0.010000 0.010621 -0.000415
v -0.010000 0.009405 -0.005997
v -0.010000 0.008537 -0.007000
v -0.010000 0.010664 -0.000631
v -0.010000 0.010635 -0.000847
v -0.010000 0.010214 -0.002955
v -0.010000 0.009614 -0.005636
v -0.010000 0.007496 0.007000
v -0.010000 0.008388 0.005928
v -0.010000 0.009688 -0.005366
v -0.010000 0.008989 0.004959
v -0.010000 0.009823 0.003208
vn 0.4994 0.7822 0.3725
vn 0.5134 0.8381 0.1846
vn 0.4496 0.8727 -0.1905
vn 0.4186 0.8758 -0.2403
vn 0.5030 0.7344 0.4558
vn 0.7624 0.5183 0.3875
vn 0.8132 0.5336 0.2323
vn 0.6581 0.7448 0.1104
vn 0.5206 0.8464 -0.1121
vn 0.5005 0.8490 -0.1694
vn 0.4907 0.5365 0.6866
vn 0.9163 0.3895 0.0929
vn 0.8200 0.4261 -0.3821
vn 0.6265 0.7759 -0.0737
vn 0.9053 0.2801 -0.3192
vn 0.5875 0.1643 -0.7924
vn 0.4816 -0.2781 0.8311
vn 0.4964 -0.1328 0.8579
vn 0.3835 -0.7143 -0.5855
vn 0.6211 -0.2818 -0.7314
vn 0.7016 0.4703 -0.5354
vn 0.5144 0.7582 -0.4007
vn 0.3585 0.6979 -0.6201
vn 0.3193 0.8206 -0.4741
vn 0.7547 0.1646 0.6351
vn 0.7369 0.3121 0.5996
vn 0.4749 0.6767 0.5627
vn 0.3078 -0.6852 0.6601
vn 0.7137 -0.4857 -0.5047
vn 0.5780 -0.6133 0.5383
vn 0.7261 -0.6455 0.2368
vn 0.6865 -0.6678 0.2875
vn 0.7761 -0.5098 -0.3712
vn 0.7898 -0.6083 -0.0785
vn 0.7741 -0.6094 -0.1713
vn 0.3202 0.7163 -0.6200
vn 0.5196 0.8380 0.1668
s 0
f 46//1 45//1 1//1
f 46//2 1//2 35//2
f 44//3 40//3 2//3
f 44//4 2//4 41//4
f 43//5 3//5 1//5 45//5
f 1//6 3//6 4//6
f 1//7 4//7 5//7
f 1//8 5//8 6//8
f 38//9 6//9 7//9 39//9
f 39//10 7//10 2//10 40//10
f 24//11 18//11 3//11
f 4//12 8//12 5//12
f 5//13 10//13 7//13
f 5//14 7//14 6//14
f 5//15 8//15 10//15
f 17//16 10//16 13//16
f 21//17 19//17 9//17
f 21//18 9//18 22//18
f 33//19 32//19 16//19
f 10//20 14//20 13//20
f 7//21 10//21 17//21 15//21
f 2//22 7//22 15//22 12//22
f 2//23 12//23 11//23
f 41//24 2//24 36//24
f 4//25 20//25 22//25 9//25
f 3//26 18//26 20//26 4//26
f 43//27 42//27 24//27 3//27
f 23//28 34//28 31//28
f 10//29 30//29 33//29 16//29 14//29
f 9//30 19//30 23//30 31//30 28//30
f 4//31 9//31 27//31 29//31
f 9//32 28//32 27//32
f 8//33 26//33 30//33 10//33
f 4//34 29//34 25//34 8//34
f 8//35 25//35 26//35
f 2//36 11//36 37//36 36//36
f 1//37 6//37 38//37 35//37
