# Blender 4.1.1
# www.blender.org
mtllib thumb_F2_C_B.mtl
o geometry_B
v -0.075484 -0.006671 -0.005118
v -0.074282 -0.007687 0.005115
v -0.073529 -0.008025 -0.005101
v -0.071791 -0.008669 -0.005032
v -0.071147 -0.008828 0.004899
v -0.071636 -0.008645 0.005051
v -0.072055 -0.008034 0.005271
v -0.005988 -0.007750 0.000514
v -0.069146 -0.008798 -0.004993
v -0.069068 -0.008956 -0.004699
v -0.069790 -0.008995 -0.004447
v -0.070030 -0.008986 0.004585
v -0.013746 -0.008600 0.006315
v -0.006213 -0.006561 -0.004733
v -0.007478 -0.007121 0.005531
v -0.008874 -0.008810 0.002317
v -0.010845 -0.008843 -0.003048
v -0.016508 -0.008100 -0.006237
v -0.014080 -0.008552 -0.005302
v -0.016578 -0.009088 -0.003937
v -0.016616 -0.009438 -0.002710
v -0.016648 -0.009690 -0.001458
v -0.016686 -0.009834 -0.000201
v -0.017547 -0.009855 0.001068
v -0.013893 -0.009837 0.002008
v -0.017633 -0.009355 0.004434
v -0.044671 -0.007415 -0.007000
v -0.032908 -0.007594 -0.007000
v -0.010425 -0.006761 -0.007000
v -0.011309 -0.006989 -0.007000
v -0.055362 -0.006847 -0.007000
v -0.052685 -0.007099 -0.007000
v -0.050195 -0.007234 -0.007000
v -0.046296 -0.007362 -0.007000
v -0.009518 -0.006477 -0.007000
v -0.015159 -0.007573 -0.007000
v -0.016176 -0.007621 -0.007000
v -0.058846 -0.006311 0.007000
v -0.052211 -0.007126 0.007000
v -0.057144 -0.006595 0.007000
v -0.015211 -0.008179 0.007000
v -0.046857 -0.007521 0.007000
v -0.009732 -0.006718 0.007000
v -0.032343 -0.007997 0.007000
v -0.045588 -0.007571 0.007000
v -0.013614 -0.008017 0.007000
v -0.006403 -0.006000 -0.005542
v -0.061016 -0.006000 -0.007000
v -0.008629 -0.006000 -0.007000
v -0.067795 -0.006000 0.006395
v -0.072470 -0.006000 0.005845
v -0.008133 -0.006000 0.007000
v -0.060233 -0.006053 0.007000
v -0.069972 -0.006000 -0.006258
v -0.074011 -0.006000 -0.005553
v -0.076021 -0.006000 -0.005132
v -0.007291 -0.006000 0.006607
v -0.073136 -0.006000 0.005722
v -0.005872 -0.006000 -0.004791
v -0.075926 -0.006000 0.005108
v -0.076051 -0.006000 -0.000920
v -0.070227 -0.006000 0.006110
v -0.067312 -0.006000 -0.006567
v -0.069566 -0.006000 -0.006326
v -0.006468 -0.006000 0.005724
v -0.004948 -0.006000 0.002095
v -0.004592 -0.006000 0.001002
v -0.005709 -0.006000 -0.004449
v -0.004665 -0.006000 0.000270
vn -0.7810 -0.6245 -0.0056
vn -0.7160 -0.6979 0.0149
vn -0.1760 -0.2256 0.9582
vn -0.1588 -0.2646 -0.9512
vn -0.1664 -0.2524 -0.9532
vn -0.5691 -0.8221 -0.0147
vn -0.3476 -0.9376 0.0055
vn -0.3416 -0.9398 0.0071
vn -0.3395 -0.9398 0.0377
vn -0.1279 -0.4131 0.9016
vn -0.1114 -0.2914 0.9501
vn 0.7261 -0.6455 0.2368
vn 0.7898 -0.6083 -0.0785
vn -0.0990 -0.3659 -0.9254
vn -0.0624 -0.4168 -0.9069
vn -0.0361 -0.8833 -0.4674
vn -0.0607 -0.9456 -0.3195
vn -0.1594 -0.9872 -0.0054
vn -0.1414 -0.9899 -0.0028
vn -0.0071 -0.9021 0.4315
vn 0.7741 -0.6094 -0.1713
vn 0.7761 -0.5098 -0.3712
vn 0.6865 -0.6678 0.2875
vn 0.4654 -0.8506 0.2448
vn 0.2876 -0.9525 -0.0998
vn 0.3653 -0.9044 -0.2206
vn 0.0004 -0.8799 -0.4752
vn 0.0018 -0.8986 -0.4389
vn 0.0029 -0.9325 -0.3610
vn 0.0016 -0.9616 -0.2745
vn -0.0015 -0.9804 -0.1970
vn -0.0037 -0.9866 -0.1629
vn -0.0066 -0.9935 -0.1138
vn -0.0137 -0.9996 -0.0258
vn -0.0165 -0.9999 0.0006
vn -0.0121 -0.9977 0.0660
vn -0.0064 -0.9826 0.1855
vn -0.0054 -0.9242 0.3819
vn 0.1775 -0.9475 0.2660
vn 0.2567 -0.8970 0.3599
vn 0.0538 -0.9602 0.2739
vn 0.3078 -0.6852 0.6601
vn 0.2041 -0.9765 -0.0690
vn 0.1088 -0.9858 -0.1282
vn 0.0895 -0.9769 -0.1941
vn 0.0852 -0.9653 -0.2467
vn 0.1247 -0.8231 -0.5540
vn 0.0408 -0.8541 -0.5185
vn 0.0573 -0.9605 -0.2724
vn 0.0864 -0.9901 -0.1106
vn 0.0078 -0.9999 -0.0112
vn -0.0222 -0.6761 -0.7365
vn -0.0326 -0.6030 -0.7971
vn -0.0475 -0.5033 -0.8628
vn 0.7137 -0.4857 -0.5047
vn 0.2704 -0.8634 -0.4260
vn 0.2249 -0.8718 -0.4352
vn -0.2015 -0.1814 -0.9625
vn -0.0014 -0.8466 -0.5322
vn -0.0221 -0.6771 -0.7355
vn -0.0115 -0.7526 -0.6584
vn -0.0229 -0.7107 0.7031
vn 0.2542 -0.7600 0.5982
vn -0.2105 -0.2016 0.9566
vn -0.0267 -0.6805 0.7323
vn 0.5780 -0.6133 0.5383
vn -0.0091 -0.8607 0.5091
vn 0.0781 -0.7664 0.6377
vn -0.0407 -0.5501 0.8341
vn -0.0511 -0.4745 0.8788
vn -0.0665 -0.3990 0.9145
vn -0.0709 -0.3813 0.9217
vn -0.0771 -0.3535 0.9323
vn 0.3835 -0.7143 -0.5855
vn -0.1123 -0.2907 0.9502
s 0
f 61//1 56//1 1//1
f 61//2 1//2 2//2 60//2
f 58//3 2//3 51//3
f 54//4 64//4 3//4
f 54//5 3//5 1//5 55//5
f 1//6 3//6 2//6
f 2//7 3//7 4//7
f 2//8 4//8 5//8
f 2//9 5//9 6//9
f 2//10 6//10 7//10
f 62//11 7//11 50//11
f 67//12 66//12 8//12
f 67//13 8//13 69//13
f 63//14 4//14 3//14 64//14
f 48//15 31//15 4//15 63//15
f 4//16 9//16 10//16
f 4//17 10//17 11//17
f 4//18 11//18 5//18
f 5//19 11//19 12//19
f 5//20 12//20 13//20
f 69//21 8//21 14//21 68//21
f 68//22 14//22 59//22
f 65//23 15//23 8//23 66//23
f 8//24 15//24 16//24
f 8//25 16//25 17//25
f 8//26 17//26 14//26
f 9//27 18//27 10//27
f 10//28 18//28 19//28
f 10//29 19//29 20//29
f 10//30 20//30 21//30
f 10//31 21//31 22//31
f 10//32 22//32 11//32
f 11//33 22//33 23//33
f 11//34 23//34 24//34
f 11//35 24//35 12//35
f 12//36 24//36 25//36
f 12//37 25//37 26//37
f 12//38 26//38 13//38
f 13//39 25//39 16//39
f 13//40 16//40 15//40
f 13//41 26//41 25//41
f 52//42 43//42 15//42 57//42
f 16//43 25//43 17//43
f 17//44 25//44 22//44
f 17//45 22//45 21//45
f 17//46 21//46 19//46
f 36//47 30//47 19//47
f 36//48 19//48 18//48 37//48
f 19//49 21//49 20//49
f 22//50 25//50 23//50
f 23//51 25//51 24//51
f 4//52 33//52 34//52
f 4//53 32//53 33//53
f 4//54 31//54 32//54
f 59//55 14//55 47//55
f 14//56 17//56 29//56 35//56
f 17//57 19//57 30//57 29//57
f 56//58 55//58 1//58
f 9//59 28//59 37//59 18//59
f 4//60 34//60 27//60 9//60
f 9//61 27//61 28//61
f 5//62 44//62 45//62
f 13//63 15//63 43//63 46//63
f 60//64 2//64 58//64
f 5//65 45//65 42//65 6//65
f 65//66 57//66 15//66
f 5//67 13//67 41//67 44//67
f 13//68 46//68 41//68
f 6//69 42//69 39//69
f 6//70 39//70 40//70
f 6//71 40//71 38//71
f 6//72 38//72 53//72 7//72
f 7//73 53//73 50//73
f 14//74 35//74 49//74 47//74
f 2//75 7//75 62//75 51//75
