# Blender 4.1.1
# www.blender.org
mtllib thumb_F2_C_R.mtl
o geometry_R
v -0.078393 0.008997 0.007243
v -0.065166 0.014354 0.010639
v -0.065934 0.016013 0.009767
v -0.066601 0.017462 0.008583
v -0.067067 0.018645 0.007091
v -0.029596 0.015546 0.006913
v -0.020433 0.013695 0.006964
v -0.062389 0.009823 0.011423
v -0.063917 0.012156 0.011293
v -0.028843 0.009359 0.011935
v -0.028657 0.010796 0.011344
v -0.032024 0.013048 0.010065
v -0.032241 0.014668 0.008520
v -0.024530 0.012710 0.009441
v -0.017718 0.010063 0.009323
v -0.058742 0.006780 0.011376
v -0.028797 0.002759 0.012640
v -0.028541 0.005319 0.012782
v -0.028455 0.007236 0.012537
v -0.019890 0.007933 0.011290
v -0.008843 0.002588 0.010122
v -0.009037 0.005628 0.008434
v -0.054173 0.000504 0.009987
v -0.025965 -0.000311 0.012010
v -0.022419 0.001249 0.012562
v -0.020464 0.003918 0.012459
v -0.007299 -0.001062 0.009642
v -0.003637 0.001372 0.007900
v -0.014157 0.000761 0.011557
v -0.016989 -0.007669 0.007831
v -0.017416 -0.006186 0.009316
v -0.018339 -0.004476 0.010399
v -0.023459 -0.001829 0.011530
v -0.014033 -0.002386 0.011143
v -0.006973 -0.004093 0.008439
v -0.013180 -0.006102 0.009247
v -0.006018 0.004701 0.007000
v -0.068285 -0.003839 0.007000
v -0.078392 0.008788 0.007000
v -0.078385 0.007959 0.007000
v -0.078219 0.007399 0.007000
v -0.014922 0.010726 0.007000
v -0.070727 -0.002453 0.007000
v -0.007223 -0.005591 0.007000
v -0.002728 -0.001042 0.007000
v -0.002522 -0.000271 0.007000
v -0.032343 -0.007997 0.007000
v -0.045588 -0.007571 0.007000
v -0.077162 0.011241 0.007000
v -0.076807 0.011541 0.007000
v -0.077271 0.011117 0.007000
v -0.078003 0.010231 0.007000
v -0.009732 -0.006718 0.007000
v -0.013614 -0.008017 0.007000
v -0.072522 -0.000579 0.007000
v -0.046857 -0.007521 0.007000
v -0.012305 0.009114 0.007000
v -0.002853 0.001250 0.007000
v -0.078394 0.009005 0.007000
v -0.003125 -0.001729 0.007000
v -0.003238 0.002159 0.007000
v -0.069603 -0.003330 0.007000
v -0.027395 0.015223 0.007000
v -0.025275 0.014900 0.007000
v -0.065500 -0.004904 0.007000
v -0.060233 -0.006053 0.007000
v -0.015211 -0.008179 0.007000
v -0.052211 -0.007126 0.007000
v -0.057144 -0.006595 0.007000
v -0.058846 -0.006311 0.007000
vn -0.3451 0.2853 0.8942
vn -0.3480 0.3049 0.8865
vn -0.3933 0.4660 0.7926
vn -0.4589 0.6209 0.6355
vn -1.0000 -0.0080 0.0003
vn -0.2460 -0.1075 0.9633
vn -0.2911 0.1171 0.9495
vn 0.0054 0.2880 0.9576
vn 0.0189 0.3778 0.9257
vn 0.0294 0.4757 0.8791
vn 0.0396 0.5375 0.8424
vn 0.0497 0.6452 0.7624
vn 0.0577 0.6932 0.7184
vn 0.0655 0.7917 0.6073
vn 0.0707 0.8220 0.5652
vn 0.0941 0.8005 0.5919
vn 0.1153 0.7566 0.6436
vn 0.1934 0.7589 0.6218
vn 0.3640 0.6832 0.6331
vn 0.2677 0.6575 0.7043
vn -0.2105 -0.2016 0.9566
vn -0.0525 -0.0782 0.9956
vn -0.0468 -0.0507 0.9976
vn -0.0358 0.0321 0.9988
vn -0.0171 0.1275 0.9917
vn 0.0042 0.2738 0.9618
vn 0.1146 0.2906 0.9500
vn 0.1243 0.3632 0.9234
vn 0.1660 0.4921 0.8546
vn 0.0934 0.5936 0.7993
vn 0.0909 0.6938 0.7144
vn 0.2205 0.5310 0.8182
vn 0.3089 0.4560 0.8347
vn 0.3263 0.4747 0.8174
vn 0.4749 0.6767 0.5627
vn -0.1123 -0.2907 0.9502
vn -0.0766 -0.2683 0.9603
vn -0.0765 -0.2676 0.9605
vn -0.0450 -0.2404 0.9696
vn -0.0008 -0.0553 0.9985
vn 0.0414 0.0082 0.9991
vn 0.0612 0.1239 0.9904
vn 0.1181 0.2618 0.9579
vn 0.2179 0.2438 0.9450
vn 0.4019 0.0497 0.9143
vn 0.4373 0.4578 0.7741
vn 0.2110 0.1456 0.9666
vn 0.2654 -0.0146 0.9640
vn 0.7369 0.3121 0.5996
vn 0.7547 0.1646 0.6351
vn -0.0091 -0.8607 0.5091
vn -0.0229 -0.7107 0.7031
vn -0.0267 -0.6805 0.7323
vn -0.0407 -0.5501 0.8341
vn -0.0511 -0.4745 0.8788
vn -0.0665 -0.3990 0.9145
vn -0.0709 -0.3813 0.9217
vn -0.0771 -0.3535 0.9323
vn -0.0090 -0.3149 0.9491
vn 0.0197 -0.3236 0.9460
vn 0.1124 -0.1252 0.9857
vn 0.1177 -0.0480 0.9919
vn 0.2381 -0.1174 0.9641
vn 0.2669 -0.3306 0.9053
vn 0.5780 -0.6133 0.5383
vn 0.2542 -0.7600 0.5982
vn 0.0781 -0.7664 0.6377
vn 0.0254 -0.7037 0.7100
vn 0.0242 -0.5255 0.8505
vn 0.0601 -0.4426 0.8947
vn 0.0166 -0.3657 0.9306
vn 0.2435 -0.3958 0.8855
vn -0.9528 0.3034 0.0114
vn 0.4964 -0.1328 0.8579
vn 0.3078 -0.6852 0.6601
vn 0.3949 0.6409 0.6582
vn -0.2406 -0.1718 0.9553
vn -0.6208 -0.1838 0.7622
vn -1.0000 -0.0082 0.0004
vn 0.4816 -0.2781 0.8311
vn -0.1760 -0.2256 0.9582
vn -0.1114 -0.2914 0.9501
vn 0.4907 0.5365 0.6866
s 0
f 52//1 1//1 2//1 51//1
f 51//2 2//2 3//2 49//2
f 49//3 3//3 4//3 50//3
f 50//4 4//4 5//4
f 59//5 39//5 1//5
f 1//6 8//6 9//6
f 1//7 9//7 2//7
f 2//8 9//8 10//8
f 2//9 10//9 11//9
f 2//10 11//10 3//10
f 3//11 11//11 12//11
f 3//12 12//12 4//12
f 4//13 12//13 13//13
f 4//14 13//14 5//14
f 5//15 13//15 6//15
f 6//16 13//16 63//16
f 63//17 13//17 14//17 64//17
f 64//18 14//18 7//18
f 7//19 15//19 42//19
f 7//20 14//20 15//20
f 55//21 43//21 8//21
f 8//22 16//22 17//22
f 8//23 17//23 18//23
f 8//24 18//24 9//24
f 9//25 18//25 19//25
f 9//26 19//26 10//26
f 10//27 19//27 20//27
f 10//28 20//28 11//28
f 11//29 20//29 14//29
f 11//30 14//30 12//30
f 12//31 14//31 13//31
f 14//32 20//32 15//32
f 15//33 20//33 21//33
f 15//34 21//34 22//34
f 57//35 22//35 37//35
f 62//36 38//36 16//36
f 16//37 23//37 24//37
f 16//38 24//38 17//38
f 17//39 24//39 25//39
f 17//40 25//40 18//40
f 18//41 25//41 26//41
f 18//42 26//42 19//42
f 19//43 26//43 20//43
f 20//44 26//44 21//44
f 21//45 27//45 28//45
f 21//46 28//46 22//46
f 21//47 26//47 29//47
f 21//48 29//48 27//48
f 61//49 28//49 58//49
f 58//50 28//50 46//50
f 47//51 67//51 30//51
f 47//52 30//52 31//52 48//52
f 48//53 31//53 56//53
f 56//54 31//54 32//54 68//54
f 68//55 32//55 33//55 69//55
f 69//56 33//56 24//56 70//56
f 70//57 24//57 66//57
f 66//58 24//58 23//58 65//58
f 24//59 33//59 25//59
f 25//60 33//60 34//60
f 25//61 34//61 29//61
f 25//62 29//62 26//62
f 27//63 29//63 34//63
f 27//64 34//64 35//64
f 60//65 35//65 44//65
f 54//66 53//66 36//66
f 54//67 36//67 30//67 67//67
f 30//68 36//68 31//68
f 31//69 36//69 32//69
f 32//70 36//70 34//70
f 32//71 34//71 33//71
f 34//72 36//72 35//72
f 52//73 59//73 1//73
f 27//74 45//74 46//74 28//74
f 35//75 36//75 53//75 44//75
f 15//76 22//76 57//76 42//76
f 1//77 41//77 55//77 8//77
f 1//78 40//78 41//78
f 1//79 39//79 40//79
f 27//80 35//80 60//80 45//80
f 8//81 43//81 62//81 16//81
f 16//82 38//82 65//82 23//82
f 22//83 28//83 61//83 37//83
