solid AssimpScene
 facet normal 0 0 0
  outer loop
  vertex -0.00885673985 -0.0180977806 0.0312157385
  vertex -0.00278331991 -0.00520134997 0.0317289717
  vertex -0.00538048055 0.00901039969 0.0312998705
  endloop
 endfacet

 facet normal 0 0 0
  outer loop
  vertex -0.00885673985 -0.0180977806 0.0312157385
  vertex -0.00538048055 0.00901039969 0.0312998705
  vertex -0.0195464399 0.0181106199 0.0302397478
  endloop
 endfacet

 facet normal 0 0 0
  outer loop
  vertex -0.00885673985 -0.0180977806 0.0312157385
  vertex -0.0195464399 0.0181106199 0.0302397478
  vertex -0.0325787403 0.0188858509 0.0290262178
  endloop
 endfacet

 facet normal 0 0 0
  outer loop
  vertex -0.00885673985 -0.0180977806 0.0312157385
  vertex -0.0325787403 0.0188858509 0.0290262178
  vertex -0.0469967052 0.0100029903 0.0278812293
  endloop
 endfacet

 facet normal 0 0 0
  outer loop
  vertex -0.00885673985 -0.0180977806 0.0312157385
  vertex -0.0469967052 0.0100029903 0.0278812293
  vertex -0.0519501604 -0.00854806975 0.0273961984
  endloop
 endfacet

 facet normal 0 0 0
  outer loop
  vertex -0.00885673985 -0.0180977806 0.0312157385
  vertex -0.0519501604 -0.00854806975 0.0273961984
  vertex -0.0307222325 -0.0253108796 0.0293522291
  endloop
 endfacet

 facet normal 0 0 0
  outer loop
  vertex 0.0190536901 -0.00669845007 -0.0363961048
  vertex 0.0115552396 0.00367431017 -0.0162875578
  vertex 0.0123661002 -0.00942530017 0.0034591998
  endloop
 endfacet

 facet normal 0 0 0
  outer loop
  vertex 0.0146559505 -0.0281612594 -0.0683654919
  vertex 0.0169821996 -0.0282929502 -0.0542823076
  vertex -0.0031769101 -0.0337302014 -0.0584724471
  endloop
 endfacet

 facet normal 0 0 0
  outer loop
  vertex 0.0189894605 -0.0157131199 -0.031482555
  vertex 0.0206091423 -0.0219594296 -0.0632206202
  vertex 0.0190536901 -0.00669845007 -0.0363961048
  endloop
 endfacet

 facet normal 0 0 0
  outer loop
  vertex 0.0189894605 -0.0157131199 -0.031482555
  vertex 0.0190536901 -0.00669845007 -0.0363961048
  vertex 0.0123661002 -0.00942530017 0.0034591998
  endloop
 endfacet

 facet normal 0 0 0
  outer loop
  vertex -0.0109641701 0.0167044196 0.0280437972
  vertex 0.0039162999 0.00919753965 -0.0162875578
  vertex -0.0206623804 0.0203295406 0.0239295382
  endloop
 endfacet

 facet normal 0 0 0
  outer loop
  vertex 0.0155734112 -0.00025556999 -0.0375151187
  vertex 0.0115552396 0.00367431017 -0.0162875578
  vertex 0.0190536901 -0.00669845007 -0.0363961048
  endloop
 endfacet

 facet normal 0 0 0
  outer loop
  vertex 0.0188774392 -0.0268290099 -0.0643389821
  vertex 0.0169821996 -0.0282929502 -0.0542823076
  vertex 0.0146559505 -0.0281612594 -0.0683654919
  endloop
 endfacet

 facet normal 0 0 0
  outer loop
  vertex -0.0195464399 -0.02624093 0.0261675604
  vertex 0.0169821996 -0.0282929502 -0.0542823076
  vertex -0.0111167096 -0.0214341804 0.0301135499
  endloop
 endfacet

 facet normal 0 0 0
  outer loop
  vertex -0.0195464399 -0.02624093 0.0261675604
  vertex -0.0031769101 -0.0337302014 -0.0584724471
  vertex 0.0169821996 -0.0282929502 -0.0542823076
  endloop
 endfacet

 facet normal 0 0 0
  outer loop
  vertex -0.0503790602 -0.00568926986 -0.0738723874
  vertex -0.0548108183 -0.00783045031 -0.0716902837
  vertex -0.0507670306 -0.00110461004 -0.0687741935
  endloop
 endfacet

 facet normal 0 0 0
  outer loop
  vertex -0.00837557018 -0.0106685804 -0.0792014599
  vertex -0.00949202105 -0.0174942408 -0.0809629112
  vertex -0.030720612 -0.0163746402 -0.080340609
  endloop
 endfacet

 facet normal 0 0 0
  outer loop
  vertex -0.00837557018 -0.0106685804 -0.0792014599
  vertex -0.030720612 -0.0163746402 -0.080340609
  vertex -0.0304634105 -0.00901539996 -0.0783564299
  endloop
 endfacet

 facet normal 0 0 0
  outer loop
  vertex -0.00837557018 -0.0106685804 -0.0792014599
  vertex 0.0122219501 -0.0102663198 -0.0749409124
  vertex -0.00949202105 -0.0174942408 -0.0809629112
  endloop
 endfacet

 facet normal 0 0 0
  outer loop
  vertex 0.0111899506 -0.0158254001 -0.00118510984
  vertex 0.0123661002 -0.00942530017 0.0034591998
  vertex 0.0032941103 -0.0122804902 0.023256449
  endloop
 endfacet

 facet normal 0 0 0
  outer loop
  vertex 0.0111899506 -0.0158254001 -0.00118510984
  vertex 0.0189894605 -0.0157131199 -0.031482555
  vertex 0.0123661002 -0.00942530017 0.0034591998
  endloop
 endfacet

 facet normal 0 0 0
  outer loop
  vertex -0.0188359395 -0.0247866102 0.0301135499
  vertex -0.0307222325 -0.0253108796 0.0293522291
  vertex -0.0296058413 -0.0267542098 0.0272848792
  endloop
 endfacet

 facet normal 0 0 0
  outer loop
  vertex -0.0188359395 -0.0247866102 0.0301135499
  vertex -0.0296058413 -0.0267542098 0.0272848792
  vertex -0.0195464399 -0.02624093 0.0261675604
  endloop
 endfacet

 facet normal 0 0 0
  outer loop
  vertex -0.0188359395 -0.0247866102 0.0301135499
  vertex -0.0195464399 -0.02624093 0.0261675604
  vertex -0.0111167096 -0.0214341804 0.0301135499
  endloop
 endfacet

 facet normal 0 0 0
  outer loop
  vertex -0.0599375106 -0.0219591092 -0.0654528365
  vertex -0.0593449138 -0.0163731407 -0.0673408732
  vertex -0.0572537333 -0.0230769292 -0.0696613789
  endloop
 endfacet

 facet normal 0 0 0
  outer loop
  vertex -0.0599375106 -0.0219591092 -0.0654528365
  vertex -0.0572537333 -0.0230769292 -0.0696613789
  vertex -0.057098113 -0.0259580892 -0.065227963
  endloop
 endfacet

 facet normal 0 0 0
  outer loop
  vertex -0.0599375106 -0.0219591092 -0.0654528365
  vertex -0.0617206395 -0.01078205 -0.0509243757
  vertex -0.0593449138 -0.0163731407 -0.0673408732
  endloop
 endfacet

 facet normal 0 0 0
  outer loop
  vertex -0.0537942722 -0.00743373018 0.0258933976
  vertex -0.0528143346 0.00150219002 0.0269986279
  vertex -0.0606455915 -0.00408542017 0.0127577987
  endloop
 endfacet

 facet normal 0 0 0
  outer loop
  vertex -0.0340718515 -0.0297426078 -0.072158359
  vertex -0.0314750709 -0.0270807594 -0.0772820264
  vertex -0.01116776 -0.030339241 -0.0749509707
  endloop
 endfacet

 facet normal 0 0 0
  outer loop
  vertex -0.0525810905 -0.0292422827 -0.0571519211
  vertex -0.030720612 -0.0331482105 -0.0587513782
  vertex -0.0296058413 -0.0267542098 0.0272848792
  endloop
 endfacet

 facet normal 0 0 0
  outer loop
  vertex -0.0525810905 -0.0292422827 -0.0571519211
  vertex -0.0537385903 -0.0259077009 -0.0694364905
  vertex -0.0340718515 -0.0297426078 -0.072158359
  endloop
 endfacet

 facet normal 0 0 0
  outer loop
  vertex -0.0525810905 -0.0292422827 -0.0571519211
  vertex -0.0340718515 -0.0297426078 -0.072158359
  vertex -0.030720612 -0.0331482105 -0.0587513782
  endloop
 endfacet

 facet normal 0 0 0
  outer loop
  vertex 0.00454251003 0.00109180994 0.0213886295
  vertex 0.0123661002 -0.00942530017 0.0034591998
  vertex 0.0115552396 0.00367431017 -0.0162875578
  endloop
 endfacet

 facet normal 0 0 0
  outer loop
  vertex 0.0115552396 0.00367431017 -0.0162875578
  vertex -0.00316064991 0.0101332199 0.0281699989
  vertex -4.16600014e-05 0.00526231015 0.0288346782
  endloop
 endfacet

 facet normal 0 0 0
  outer loop
  vertex 0.0115552396 0.00367431017 -0.0162875578
  vertex -4.16600014e-05 0.00526231015 0.0288346782
  vertex 0.00454251003 0.00109180994 0.0213886295
  endloop
 endfacet

 facet normal 0 0 0
  outer loop
  vertex 0.0106230099 -0.00481483992 -0.0714019537
  vertex 0.0122219501 -0.0102663198 -0.0749409124
  vertex -0.00837557018 -0.0106685804 -0.0792014599
  endloop
 endfacet

 facet normal 0 0 0
  outer loop
  vertex -0.0307222325 0.0192466807 0.0149921291
  vertex -0.0507670306 -0.00110461004 -0.0687741935
  vertex -0.057850495 0.00862864032 -0.00511677936
  endloop
 endfacet

 facet normal 0 0 0
  outer loop
  vertex -0.0307222325 0.0192466807 0.0149921291
  vertex -0.057850495 0.00862864032 -0.00511677936
  vertex -0.0480593443 0.0143595096 0.0109926099
  endloop
 endfacet

 facet normal 0 0 0
  outer loop
  vertex -0.0480593443 0.0143595096 0.0109926099
  vertex -0.057850495 0.00862864032 -0.00511677936
  vertex -0.0551173985 0.0103001399 0.0116366697
  endloop
 endfacet

 facet normal 0 0 0
  outer loop
  vertex -0.0480593443 0.0143595096 0.0109926099
  vertex -0.0551173985 0.0103001399 0.0116366697
  vertex -0.0401329808 0.0165404305 0.02639433
  endloop
 endfacet

 facet normal 0 0 0
  outer loop
  vertex -0.0547063686 -0.00358271995 -0.0669924244
  vertex -0.0619852617 -0.000731789973 -0.0263388697
  vertex -0.0615221709 0.00441008015 -0.00623791991
  endloop
 endfacet

 facet normal 0 0 0
  outer loop
  vertex -0.0547063686 -0.00358271995 -0.0669924244
  vertex -0.0615221709 0.00441008015 -0.00623791991
  vertex -0.057850495 0.00862864032 -0.00511677936
  endloop
 endfacet

 facet normal 0 0 0
  outer loop
  vertex -0.0547063686 -0.00358271995 -0.0669924244
  vertex -0.057850495 0.00862864032 -0.00511677936
  vertex -0.0507670306 -0.00110461004 -0.0687741935
  endloop
 endfacet

 facet normal 0 0 0
  outer loop
  vertex -0.0547063686 -0.00358271995 -0.0669924244
  vertex -0.0507670306 -0.00110461004 -0.0687741935
  vertex -0.0548108183 -0.00783045031 -0.0716902837
  endloop
 endfacet

 facet normal 0 0 0
  outer loop
  vertex -0.057098113 -0.0259580892 -0.065227963
  vertex -0.0525810905 -0.0292422827 -0.0571519211
  vertex -0.0572047047 -0.0271388907 -0.0509293154
  endloop
 endfacet

 facet normal 0 0 0
  outer loop
  vertex -0.057098113 -0.0259580892 -0.065227963
  vertex -0.0572047047 -0.0271388907 -0.0509293154
  vertex -0.059984412 -0.0254259408 -0.0542827994
  endloop
 endfacet

 facet normal 0 0 0
  outer loop
  vertex -0.059984412 -0.0254259408 -0.0542827994
  vertex -0.0615597218 -0.0217009094 -0.0509293154
  vertex -0.0599375106 -0.0219591092 -0.0654528365
  endloop
 endfacet

 facet normal 0 0 0
  outer loop
  vertex -0.059984412 -0.0254259408 -0.0542827994
  vertex -0.0599375106 -0.0219591092 -0.0654528365
  vertex -0.057098113 -0.0259580892 -0.065227963
  endloop
 endfacet

 facet normal 0 0 0
  outer loop
  vertex -0.0150763998 -0.0342958793 -0.0609850548
  vertex -0.01116776 -0.030339241 -0.0749509707
  vertex -0.00644268049 -0.0293172691 -0.0761837214
  endloop
 endfacet

 facet normal 0 0 0
  outer loop
  vertex -0.0150763998 -0.0342958793 -0.0609850548
  vertex -0.00644268049 -0.0293172691 -0.0761837214
  vertex -0.0031769101 -0.0337302014 -0.0584724471
  endloop
 endfacet

 facet normal 0 0 0
  outer loop
  vertex -0.0150763998 -0.0342958793 -0.0609850548
  vertex -0.0031769101 -0.0337302014 -0.0584724471
  vertex -0.0195464399 -0.02624093 0.0261675604
  endloop
 endfacet

 facet normal 0 0 0
  outer loop
  vertex -0.0150763998 -0.0342958793 -0.0609850548
  vertex -0.0195464399 -0.02624093 0.0261675604
  vertex -0.0296058413 -0.0267542098 0.0272848792
  endloop
 endfacet

 facet normal 0 0 0
  outer loop
  vertex -0.0150763998 -0.0342958793 -0.0609850548
  vertex -0.0296058413 -0.0267542098 0.0272848792
  vertex -0.030720612 -0.0331482105 -0.0587513782
  endloop
 endfacet

 facet normal 0 0 0
  outer loop
  vertex -0.0150763998 -0.0342958793 -0.0609850548
  vertex -0.030720612 -0.0331482105 -0.0587513782
  vertex -0.0340718515 -0.0297426078 -0.072158359
  endloop
 endfacet

 facet normal 0 0 0
  outer loop
  vertex -0.0150763998 -0.0342958793 -0.0609850548
  vertex -0.0340718515 -0.0297426078 -0.072158359
  vertex -0.01116776 -0.030339241 -0.0749509707
  endloop
 endfacet

 facet normal 0 0 0
  outer loop
  vertex 0.01173707 -0.0163762607 -0.0757770166
  vertex -0.00949202105 -0.0174942408 -0.0809629112
  vertex 0.0122219501 -0.0102663198 -0.0749409124
  endloop
 endfacet

 facet normal 0 0 0
  outer loop
  vertex 0.01173707 -0.0163762607 -0.0757770166
  vertex -0.00837557018 -0.0264294893 -0.078978993
  vertex -0.00949202105 -0.0174942408 -0.0809629112
  endloop
 endfacet

 facet normal 0 0 0
  outer loop
  vertex -0.0597359426 0.00261652004 0.0116366697
  vertex -0.062282972 0.00150219002 0.0026993698
  vertex -0.0606455915 -0.00408542017 0.0127577987
  endloop
 endfacet

 facet normal 0 0 0
  outer loop
  vertex -0.0597359426 0.00261652004 0.0116366697
  vertex -0.0606455915 -0.00408542017 0.0127577987
  vertex -0.0528143346 0.00150219002 0.0269986279
  endloop
 endfacet

 facet normal 0 0 0
  outer loop
  vertex -0.00107329013 -5.77399951e-05 0.0312241483
  vertex -0.00538048055 0.00901039969 0.0312998705
  vertex -0.00278331991 -0.00520134997 0.0317289717
  endloop
 endfacet

 facet normal 0 0 0
  outer loop
  vertex -0.0615221709 0.00441008015 -0.00623791991
  vertex -0.0619852617 -0.000731789973 -0.0263388697
  vertex -0.062282972 0.00150219002 0.0026993698
  endloop
 endfacet

 facet normal 0 0 0
  outer loop
  vertex 0.0189533308 -0.0245673899 -0.0486884117
  vertex 0.0169821996 -0.0282929502 -0.0542823076
  vertex 0.0188774392 -0.0268290099 -0.0643389821
  endloop
 endfacet

 facet normal 0 0 0
  outer loop
  vertex 0.0189533308 -0.0245673899 -0.0486884117
  vertex 0.0188774392 -0.0268290099 -0.0643389821
  vertex 0.0206091423 -0.0219594296 -0.0632206202
  endloop
 endfacet

 facet normal 0 0 0
  outer loop
  vertex 0.0189533308 -0.0245673899 -0.0486884117
  vertex 0.0206091423 -0.0219594296 -0.0632206202
  vertex 0.0189894605 -0.0157131199 -0.031482555
  endloop
 endfacet

 facet normal 0 0 0
  outer loop
  vertex 0.0189533308 -0.0245673899 -0.0486884117
  vertex 0.0189894605 -0.0157131199 -0.031482555
  vertex 0.0111899506 -0.0158254001 -0.00118510984
  endloop
 endfacet

 facet normal 0 0 0
  outer loop
  vertex 0.0188774392 -0.0241951495 -0.0679976791
  vertex 0.0206091423 -0.0219594296 -0.0632206202
  vertex 0.0188774392 -0.0268290099 -0.0643389821
  endloop
 endfacet

 facet normal 0 0 0
  outer loop
  vertex 0.0188774392 -0.0241951495 -0.0679976791
  vertex 0.0188774392 -0.0268290099 -0.0643389821
  vertex 0.0146559505 -0.0281612594 -0.0683654919
  endloop
 endfacet

 facet normal 0 0 0
  outer loop
  vertex 0.0188774392 -0.0241951495 -0.0679976791
  vertex 0.0181347392 -0.0174910594 -0.0697211996
  vertex 0.0206091423 -0.0219594296 -0.0632206202
  endloop
 endfacet

 facet normal 0 0 0
  outer loop
  vertex -0.0537385903 -0.0259077009 -0.0694364905
  vertex -0.0515578799 -0.0226298105 -0.0739044994
  vertex -0.0314750709 -0.0270807594 -0.0772820264
  endloop
 endfacet

 facet normal 0 0 0
  outer loop
  vertex -0.0537385903 -0.0259077009 -0.0694364905
  vertex -0.0314750709 -0.0270807594 -0.0772820264
  vertex -0.0340718515 -0.0297426078 -0.072158359
  endloop
 endfacet

 facet normal 0 0 0
  outer loop
  vertex -0.0537385903 -0.0259077009 -0.0694364905
  vertex -0.0525810905 -0.0292422827 -0.0571519211
  vertex -0.057098113 -0.0259580892 -0.065227963
  endloop
 endfacet

 facet normal 0 0 0
  outer loop
  vertex -0.0537385903 -0.0259077009 -0.0694364905
  vertex -0.057098113 -0.0259580892 -0.065227963
  vertex -0.0572537333 -0.0230769292 -0.0696613789
  endloop
 endfacet

 facet normal 0 0 0
  outer loop
  vertex -0.0537385903 -0.0259077009 -0.0694364905
  vertex -0.0572537333 -0.0230769292 -0.0696613789
  vertex -0.0515578799 -0.0226298105 -0.0739044994
  endloop
 endfacet

 facet normal 0 0 0
  outer loop
  vertex -0.0631636679 -0.01078205 -0.0308154691
  vertex -0.0626550987 -0.00726923998 -0.000648130022
  vertex -0.062282972 0.00150219002 0.0026993698
  endloop
 endfacet

 facet normal 0 0 0
  outer loop
  vertex -0.0631636679 -0.01078205 -0.0308154691
  vertex -0.062282972 0.00150219002 0.0026993698
  vertex -0.0619852617 -0.000731789973 -0.0263388697
  endloop
 endfacet

 facet normal 0 0 0
  outer loop
  vertex -0.0631636679 -0.01078205 -0.0308154691
  vertex -0.0619852617 -0.000731789973 -0.0263388697
  vertex -0.0617206395 -0.01078205 -0.0509243757
  endloop
 endfacet

 facet normal 0 0 0
  outer loop
  vertex -0.0631636679 -0.01078205 -0.0308154691
  vertex -0.0617206395 -0.01078205 -0.0509243757
  vertex -0.0599375106 -0.0219591092 -0.0654528365
  endloop
 endfacet

 facet normal 0 0 0
  outer loop
  vertex -0.0631636679 -0.01078205 -0.0308154691
  vertex -0.0599375106 -0.0219591092 -0.0654528365
  vertex -0.0615597218 -0.0217009094 -0.0509293154
  endloop
 endfacet

 facet normal 0 0 0
  outer loop
  vertex -4.16600014e-05 0.00526231015 0.0288346782
  vertex -0.00316064991 0.0101332199 0.0281699989
  vertex -0.00538048055 0.00901039969 0.0312998705
  endloop
 endfacet

 facet normal 0 0 0
  outer loop
  vertex -4.16600014e-05 0.00526231015 0.0288346782
  vertex -0.00538048055 0.00901039969 0.0312998705
  vertex -0.00107329013 -5.77399951e-05 0.0312241483
  endloop
 endfacet

 facet normal 0 0 0
  outer loop
  vertex -4.16600014e-05 0.00526231015 0.0288346782
  vertex -0.00107329013 -5.77399951e-05 0.0312241483
  vertex 0.00216212007 -0.000731440028 0.0276904292
  endloop
 endfacet

 facet normal 0 0 0
  outer loop
  vertex -4.16600014e-05 0.00526231015 0.0288346782
  vertex 0.00216212007 -0.000731440028 0.0276904292
  vertex 0.00454251003 0.00109180994 0.0213886295
  endloop
 endfacet

 facet normal 0 0 0
  outer loop
  vertex 0.0142557314 -0.0152583998 -0.0747399181
  vertex 0.0155141009 -0.0230772905 -0.0726015642
  vertex 0.01173707 -0.0163762607 -0.0757770166
  endloop
 endfacet

 facet normal 0 0 0
  outer loop
  vertex 0.0142557314 -0.0152583998 -0.0747399181
  vertex 0.01173707 -0.0163762607 -0.0757770166
  vertex 0.0122219501 -0.0102663198 -0.0749409124
  endloop
 endfacet

 facet normal 0 0 0
  outer loop
  vertex 0.0142557314 -0.0152583998 -0.0747399181
  vertex 0.0122219501 -0.0102663198 -0.0749409124
  vertex 0.0131436 -0.00721899932 -0.0723749027
  endloop
 endfacet

 facet normal 0 0 0
  outer loop
  vertex 0.0142557314 -0.0152583998 -0.0747399181
  vertex 0.0131436 -0.00721899932 -0.0723749027
  vertex 0.0162375607 -0.00967216957 -0.0699222013
  endloop
 endfacet

 facet normal 0 0 0
  outer loop
  vertex 0.0142557314 -0.0152583998 -0.0747399181
  vertex 0.0162375607 -0.00967216957 -0.0699222013
  vertex 0.0181347392 -0.0174910594 -0.0697211996
  endloop
 endfacet

 facet normal 0 0 0
  outer loop
  vertex 0.0142557314 -0.0152583998 -0.0747399181
  vertex 0.0181347392 -0.0174910594 -0.0697211996
  vertex 0.0188774392 -0.0241951495 -0.0679976791
  endloop
 endfacet

 facet normal 0 0 0
  outer loop
  vertex 0.0142557314 -0.0152583998 -0.0747399181
  vertex 0.0188774392 -0.0241951495 -0.0679976791
  vertex 0.0155141009 -0.0230772905 -0.0726015642
  endloop
 endfacet

 facet normal 0 0 0
  outer loop
  vertex 0.00783010013 -0.00580018992 0.0166769996
  vertex 0.0123661002 -0.00942530017 0.0034591998
  vertex 0.00454251003 0.00109180994 0.0213886295
  endloop
 endfacet

 facet normal 0 0 0
  outer loop
  vertex 0.00783010013 -0.00580018992 0.0166769996
  vertex 0.00454251003 0.00109180994 0.0213886295
  vertex 0.00216212007 -0.000731440028 0.0276904292
  endloop
 endfacet

 facet normal 0 0 0
  outer loop
  vertex 0.00783010013 -0.00580018992 0.0166769996
  vertex 0.0032941103 -0.0122804902 0.023256449
  vertex 0.0123661002 -0.00942530017 0.0034591998
  endloop
 endfacet

 facet normal 0 0 0
  outer loop
  vertex 0.00896610972 -0.0202953108 -0.00674651936
  vertex 0.0169821996 -0.0282929502 -0.0542823076
  vertex 0.0189533308 -0.0245673899 -0.0486884117
  endloop
 endfacet

 facet normal 0 0 0
  outer loop
  vertex 0.00896610972 -0.0202953108 -0.00674651936
  vertex 0.0189533308 -0.0245673899 -0.0486884117
  vertex 0.0111899506 -0.0158254001 -0.00118510984
  endloop
 endfacet

 facet normal 0 0 0
  outer loop
  vertex 0.00896610972 -0.0202953108 -0.00674651936
  vertex -0.0111167096 -0.0214341804 0.0301135499
  vertex 0.0169821996 -0.0282929502 -0.0542823076
  endloop
 endfacet

 facet normal 0 0 0
  outer loop
  vertex -0.00644268049 -0.0293172691 -0.0761837214
  vertex -0.01116776 -0.030339241 -0.0749509707
  vertex -0.0314750709 -0.0270807594 -0.0772820264
  endloop
 endfacet

 facet normal 0 0 0
  outer loop
  vertex -0.00644268049 -0.0293172691 -0.0761837214
  vertex -0.0314750709 -0.0270807594 -0.0772820264
  vertex -0.00837557018 -0.0264294893 -0.078978993
  endloop
 endfacet

 facet normal 0 0 0
  outer loop
  vertex -0.00644268049 -0.0293172691 -0.0761837214
  vertex 0.0146559505 -0.0281612594 -0.0683654919
  vertex -0.0031769101 -0.0337302014 -0.0584724471
  endloop
 endfacet

 facet normal 0 0 0
  outer loop
  vertex -0.0602734722 0.00643179985 0.00158618996
  vertex -0.0551173985 0.0103001399 0.0116366697
  vertex -0.057850495 0.00862864032 -0.00511677936
  endloop
 endfacet

 facet normal 0 0 0
  outer loop
  vertex -0.0602734722 0.00643179985 0.00158618996
  vertex -0.057850495 0.00862864032 -0.00511677936
  vertex -0.0615221709 0.00441008015 -0.00623791991
  endloop
 endfacet

 facet normal 0 0 0
  outer loop
  vertex -0.0602734722 0.00643179985 0.00158618996
  vertex -0.0615221709 0.00441008015 -0.00623791991
  vertex -0.062282972 0.00150219002 0.0026993698
  endloop
 endfacet

 facet normal 0 0 0
  outer loop
  vertex -0.0602734722 0.00643179985 0.00158618996
  vertex -0.062282972 0.00150219002 0.0026993698
  vertex -0.0597359426 0.00261652004 0.0116366697
  endloop
 endfacet

 facet normal 0 0 0
  outer loop
  vertex -0.0602734722 0.00643179985 0.00158618996
  vertex -0.0597359426 0.00261652004 0.0116366697
  vertex -0.0551173985 0.0103001399 0.0116366697
  endloop
 endfacet

 facet normal 0 0 0
  outer loop
  vertex -0.0614311993 -0.00787416007 0.00873443019
  vertex -0.0606455915 -0.00408542017 0.0127577987
  vertex -0.062282972 0.00150219002 0.0026993698
  endloop
 endfacet

 facet normal 0 0 0
  outer loop
  vertex -0.0614311993 -0.00787416007 0.00873443019
  vertex -0.062282972 0.00150219002 0.0026993698
  vertex -0.0626550987 -0.00726923998 -0.000648130022
  endloop
 endfacet

 facet normal 0 0 0
  outer loop
  vertex -0.0614311993 -0.00787416007 0.00873443019
  vertex -0.0592149645 -0.0135838101 0.00662733009
  vertex -0.0503624082 -0.0147936586 0.0268077981
  endloop
 endfacet

 facet normal 0 0 0
  outer loop
  vertex -0.0614311993 -0.00787416007 0.00873443019
  vertex -0.0503624082 -0.0147936586 0.0268077981
  vertex -0.0537942722 -0.00743373018 0.0258933976
  endloop
 endfacet

 facet normal 0 0 0
  outer loop
  vertex -0.0614311993 -0.00787416007 0.00873443019
  vertex -0.0537942722 -0.00743373018 0.0258933976
  vertex -0.0606455915 -0.00408542017 0.0127577987
  endloop
 endfacet

 facet normal 0 0 0
  outer loop
  vertex -0.0507670306 -0.00110461004 -0.0687741935
  vertex -0.0307222325 0.0192466807 0.0149921291
  vertex -0.0262525398 0.0206316393 0.0228162277
  endloop
 endfacet

 facet normal 0 0 0
  outer loop
  vertex -0.0507670306 -0.00110461004 -0.0687741935
  vertex -0.0262525398 0.0206316393 0.0228162277
  vertex -0.00166739011 0.0105502699 -0.0162875578
  endloop
 endfacet

 facet normal 0 0 0
  outer loop
  vertex -0.0507670306 -0.00110461004 -0.0687741935
  vertex -0.00166739011 0.0105502699 -0.0162875578
  vertex 0.00950509962 -0.00207072007 -0.0665713996
  endloop
 endfacet

 facet normal 0 0 0
  outer loop
  vertex 0.00950509962 -0.00207072007 -0.0665713996
  vertex 0.0039162999 0.00919753965 -0.0162875578
  vertex 0.0124547705 -0.00339377997 -0.0674566925
  endloop
 endfacet

 facet normal 0 0 0
  outer loop
  vertex 0.00950509962 -0.00207072007 -0.0665713996
  vertex 0.0124547705 -0.00339377997 -0.0674566925
  vertex 0.0106230099 -0.00481483992 -0.0714019537
  endloop
 endfacet

 facet normal 0 0 0
  outer loop
  vertex 0.00212197006 -0.00631882017 0.0277072489
  vertex 0.00216212007 -0.000731440028 0.0276904292
  vertex -0.00107329013 -5.77399951e-05 0.0312241483
  endloop
 endfacet

 facet normal 0 0 0
  outer loop
  vertex 0.00212197006 -0.00631882017 0.0277072489
  vertex -0.00107329013 -5.77399951e-05 0.0312241483
  vertex -0.00278331991 -0.00520134997 0.0317289717
  endloop
 endfacet

 facet normal 0 0 0
  outer loop
  vertex 0.00212197006 -0.00631882017 0.0277072489
  vertex -0.00278331991 -0.00520134997 0.0317289717
  vertex -0.00331721012 -0.0113875698 0.0312157385
  endloop
 endfacet

 facet normal 0 0 0
  outer loop
  vertex 0.00212197006 -0.00631882017 0.0277072489
  vertex -0.00331721012 -0.0113875698 0.0312157385
  vertex 0.0032941103 -0.0122804902 0.023256449
  endloop
 endfacet

 facet normal 0 0 0
  outer loop
  vertex 0.00212197006 -0.00631882017 0.0277072489
  vertex 0.0032941103 -0.0122804902 0.023256449
  vertex 0.00783010013 -0.00580018992 0.0166769996
  endloop
 endfacet

 facet normal 0 0 0
  outer loop
  vertex 0.00212197006 -0.00631882017 0.0277072489
  vertex 0.00783010013 -0.00580018992 0.0166769996
  vertex 0.00216212007 -0.000731440028 0.0276904292
  endloop
 endfacet

 facet normal 0 0 0
  outer loop
  vertex -0.0507670306 -0.00110461004 -0.0687741935
  vertex 0.00950509962 -0.00207072007 -0.0665713996
  vertex 0.0106230099 -0.00481483992 -0.0714019537
  endloop
 endfacet

 facet normal 0 0 0
  outer loop
  vertex -0.0507670306 -0.00110461004 -0.0687741935
  vertex 0.0106230099 -0.00481483992 -0.0714019537
  vertex -0.0296041705 -0.00494433008 -0.0745671168
  endloop
 endfacet

 facet normal 0 0 0
  outer loop
  vertex -0.0296041705 -0.00494433008 -0.0745671168
  vertex 0.0106230099 -0.00481483992 -0.0714019537
  vertex -0.00837557018 -0.0106685804 -0.0792014599
  endloop
 endfacet

 facet normal 0 0 0
  outer loop
  vertex -0.0296041705 -0.00494433008 -0.0745671168
  vertex -0.00837557018 -0.0106685804 -0.0792014599
  vertex -0.0304634105 -0.00901539996 -0.0783564299
  endloop
 endfacet

 facet normal 0 0 0
  outer loop
  vertex -0.0296041705 -0.00494433008 -0.0745671168
  vertex -0.0304634105 -0.00901539996 -0.0783564299
  vertex -0.0503790602 -0.00568926986 -0.0738723874
  endloop
 endfacet

 facet normal 0 0 0
  outer loop
  vertex -0.0296041705 -0.00494433008 -0.0745671168
  vertex -0.0503790602 -0.00568926986 -0.0738723874
  vertex -0.0507670306 -0.00110461004 -0.0687741935
  endloop
 endfacet

 facet normal 0 0 0
  outer loop
  vertex -0.0262525398 0.0206316393 0.0228162277
  vertex -0.0307222325 0.0192466807 0.0149921291
  vertex -0.0480593443 0.0143595096 0.0109926099
  endloop
 endfacet

 facet normal 0 0 0
  outer loop
  vertex -0.0262525398 0.0206316393 0.0228162277
  vertex -0.0480593443 0.0143595096 0.0109926099
  vertex -0.0401329808 0.0165404305 0.02639433
  endloop
 endfacet

 facet normal 0 0 0
  outer loop
  vertex -0.0262525398 0.0206316393 0.0228162277
  vertex -0.0401329808 0.0165404305 0.02639433
  vertex -0.0325787403 0.0188858509 0.0290262178
  endloop
 endfacet

 facet normal 0 0 0
  outer loop
  vertex 0.0198067892 -0.0163762607 -0.0643389821
  vertex 0.0206091423 -0.0219594296 -0.0632206202
  vertex 0.0181347392 -0.0174910594 -0.0697211996
  endloop
 endfacet

 facet normal 0 0 0
  outer loop
  vertex 0.0198067892 -0.0163762607 -0.0643389821
  vertex 0.0181347392 -0.0174910594 -0.0697211996
  vertex 0.0162375607 -0.00967216957 -0.0699222013
  endloop
 endfacet

 facet normal 0 0 0
  outer loop
  vertex 0.0198067892 -0.0163762607 -0.0643389821
  vertex 0.0190536901 -0.00669845007 -0.0363961048
  vertex 0.0206091423 -0.0219594296 -0.0632206202
  endloop
 endfacet

 facet normal 0 0 0
  outer loop
  vertex -0.0313493311 -0.0227160994 -0.0794568285
  vertex -0.0515578799 -0.0226298105 -0.0739044994
  vertex -0.0535936393 -0.0201580003 -0.0738130733
  endloop
 endfacet

 facet normal 0 0 0
  outer loop
  vertex -0.0313493311 -0.0227160994 -0.0794568285
  vertex -0.0535936393 -0.0201580003 -0.0738130733
  vertex -0.0510718599 -0.0130228205 -0.0759877712
  endloop
 endfacet

 facet normal 0 0 0
  outer loop
  vertex -0.0313493311 -0.0227160994 -0.0794568285
  vertex -0.0510718599 -0.0130228205 -0.0759877712
  vertex -0.030720612 -0.0163746402 -0.080340609
  endloop
 endfacet

 facet normal 0 0 0
  outer loop
  vertex -0.0313493311 -0.0227160994 -0.0794568285
  vertex -0.030720612 -0.0163746402 -0.080340609
  vertex -0.00949202105 -0.0174942408 -0.0809629112
  endloop
 endfacet

 facet normal 0 0 0
  outer loop
  vertex -0.0313493311 -0.0227160994 -0.0794568285
  vertex -0.00949202105 -0.0174942408 -0.0809629112
  vertex -0.00837557018 -0.0264294893 -0.078978993
  endloop
 endfacet

 facet normal 0 0 0
  outer loop
  vertex -0.0313493311 -0.0227160994 -0.0794568285
  vertex -0.00837557018 -0.0264294893 -0.078978993
  vertex -0.0314750709 -0.0270807594 -0.0772820264
  endloop
 endfacet

 facet normal 0 0 0
  outer loop
  vertex -0.0313493311 -0.0227160994 -0.0794568285
  vertex -0.0314750709 -0.0270807594 -0.0772820264
  vertex -0.0515578799 -0.0226298105 -0.0739044994
  endloop
 endfacet

 facet normal 0 0 0
  outer loop
  vertex -0.0117228506 0.0156510994 0.0302060992
  vertex -0.00538048055 0.00901039969 0.0312998705
  vertex -0.00316064991 0.0101332199 0.0281699989
  endloop
 endfacet

 facet normal 0 0 0
  outer loop
  vertex -0.0117228506 0.0156510994 0.0302060992
  vertex -0.00316064991 0.0101332199 0.0281699989
  vertex -0.0109641701 0.0167044196 0.0280437972
  endloop
 endfacet

 facet normal 0 0 0
  outer loop
  vertex -0.0117228506 0.0156510994 0.0302060992
  vertex -0.0109641701 0.0167044196 0.0280437972
  vertex -0.0195464399 0.0181106199 0.0302397478
  endloop
 endfacet

 facet normal 0 0 0
  outer loop
  vertex -0.0117228506 0.0156510994 0.0302060992
  vertex -0.0195464399 0.0181106199 0.0302397478
  vertex -0.00538048055 0.00901039969 0.0312998705
  endloop
 endfacet

 facet normal 0 0 0
  outer loop
  vertex 0.0137246801 -0.0249822494 -0.0728945211
  vertex 0.0146559505 -0.0281612594 -0.0683654919
  vertex -0.00644268049 -0.0293172691 -0.0761837214
  endloop
 endfacet

 facet normal 0 0 0
  outer loop
  vertex 0.0137246801 -0.0249822494 -0.0728945211
  vertex -0.00644268049 -0.0293172691 -0.0761837214
  vertex -0.00837557018 -0.0264294893 -0.078978993
  endloop
 endfacet

 facet normal 0 0 0
  outer loop
  vertex 0.0137246801 -0.0249822494 -0.0728945211
  vertex -0.00837557018 -0.0264294893 -0.078978993
  vertex 0.01173707 -0.0163762607 -0.0757770166
  endloop
 endfacet

 facet normal 0 0 0
  outer loop
  vertex 0.0137246801 -0.0249822494 -0.0728945211
  vertex 0.01173707 -0.0163762607 -0.0757770166
  vertex 0.0155141009 -0.0230772905 -0.0726015642
  endloop
 endfacet

 facet normal 0 0 0
  outer loop
  vertex 0.0137246801 -0.0249822494 -0.0728945211
  vertex 0.0155141009 -0.0230772905 -0.0726015642
  vertex 0.0188774392 -0.0241951495 -0.0679976791
  endloop
 endfacet

 facet normal 0 0 0
  outer loop
  vertex 0.0137246801 -0.0249822494 -0.0728945211
  vertex 0.0188774392 -0.0241951495 -0.0679976791
  vertex 0.0146559505 -0.0281612594 -0.0683654919
  endloop
 endfacet

 facet normal 0 0 0
  outer loop
  vertex -0.0217663124 0.01978793 0.0282946974
  vertex -0.0206623804 0.0203295406 0.0239295382
  vertex -0.0262525398 0.0206316393 0.0228162277
  endloop
 endfacet

 facet normal 0 0 0
  outer loop
  vertex -0.0217663124 0.01978793 0.0282946974
  vertex -0.0262525398 0.0206316393 0.0228162277
  vertex -0.0325787403 0.0188858509 0.0290262178
  endloop
 endfacet

 facet normal 0 0 0
  outer loop
  vertex -0.0217663124 0.01978793 0.0282946974
  vertex -0.0325787403 0.0188858509 0.0290262178
  vertex -0.0195464399 0.0181106199 0.0302397478
  endloop
 endfacet

 facet normal 0 0 0
  outer loop
  vertex -0.0217663124 0.01978793 0.0282946974
  vertex -0.0195464399 0.0181106199 0.0302397478
  vertex -0.0109641701 0.0167044196 0.0280437972
  endloop
 endfacet

 facet normal 0 0 0
  outer loop
  vertex -0.0217663124 0.01978793 0.0282946974
  vertex -0.0109641701 0.0167044196 0.0280437972
  vertex -0.0206623804 0.0203295406 0.0239295382
  endloop
 endfacet

 facet normal 0 0 0
  outer loop
  vertex -0.0572047047 -0.0271388907 -0.0509293154
  vertex -0.0446481518 -0.0213788692 0.0232456103
  vertex -0.0503499992 -0.0181154497 0.0202241
  endloop
 endfacet

 facet normal 0 0 0
  outer loop
  vertex -0.0572047047 -0.0271388907 -0.0509293154
  vertex -0.0503499992 -0.0181154497 0.0202241
  vertex -0.0581564605 -0.0192085598 -0.0110246204
  endloop
 endfacet

 facet normal 0 0 0
  outer loop
  vertex -0.0581564605 -0.0192085598 -0.0110246204
  vertex -0.059984412 -0.0254259408 -0.0542827994
  vertex -0.0572047047 -0.0271388907 -0.0509293154
  endloop
 endfacet

 facet normal 0 0 0
  outer loop
  vertex -0.0614932254 -0.0159026906 -0.0162883997
  vertex -0.0592149645 -0.0135838101 0.00662733009
  vertex -0.0614311993 -0.00787416007 0.00873443019
  endloop
 endfacet

 facet normal 0 0 0
  outer loop
  vertex -0.0614932254 -0.0159026906 -0.0162883997
  vertex -0.0614311993 -0.00787416007 0.00873443019
  vertex -0.0626550987 -0.00726923998 -0.000648130022
  endloop
 endfacet

 facet normal 0 0 0
  outer loop
  vertex -0.0614932254 -0.0159026906 -0.0162883997
  vertex -0.0626550987 -0.00726923998 -0.000648130022
  vertex -0.0631636679 -0.01078205 -0.0308154691
  endloop
 endfacet

 facet normal 0 0 0
  outer loop
  vertex -0.0614932254 -0.0159026906 -0.0162883997
  vertex -0.0631636679 -0.01078205 -0.0308154691
  vertex -0.0615597218 -0.0217009094 -0.0509293154
  endloop
 endfacet

 facet normal 0 0 0
  outer loop
  vertex -0.0614932254 -0.0159026906 -0.0162883997
  vertex -0.0615597218 -0.0217009094 -0.0509293154
  vertex -0.059984412 -0.0254259408 -0.0542827994
  endloop
 endfacet

 facet normal 0 0 0
  outer loop
  vertex -0.059984412 -0.0254259408 -0.0542827994
  vertex -0.0581564605 -0.0192085598 -0.0110246204
  vertex -0.0592149645 -0.0135838101 0.00662733009
  endloop
 endfacet

 facet normal 0 0 0
  outer loop
  vertex -0.059984412 -0.0254259408 -0.0542827994
  vertex -0.0592149645 -0.0135838101 0.00662733009
  vertex -0.0614932254 -0.0159026906 -0.0162883997
  endloop
 endfacet

 facet normal 0 0 0
  outer loop
  vertex 0.00220226008 -0.0157826301 0.0199414808
  vertex -0.0111167096 -0.0214341804 0.0301135499
  vertex 0.00896610972 -0.0202953108 -0.00674651936
  endloop
 endfacet

 facet normal 0 0 0
  outer loop
  vertex 0.00220226008 -0.0157826301 0.0199414808
  vertex 0.00896610972 -0.0202953108 -0.00674651936
  vertex 0.0111899506 -0.0158254001 -0.00118510984
  endloop
 endfacet

 facet normal 0 0 0
  outer loop
  vertex 0.00220226008 -0.0157826301 0.0199414808
  vertex 0.0111899506 -0.0158254001 -0.00118510984
  vertex 0.0032941103 -0.0122804902 0.023256449
  endloop
 endfacet

 facet normal 0 0 0
  outer loop
  vertex 0.00220226008 -0.0157826301 0.0199414808
  vertex 0.0032941103 -0.0122804902 0.023256449
  vertex -0.0111167096 -0.0214341804 0.0301135499
  endloop
 endfacet

 facet normal 0 0 0
  outer loop
  vertex -0.0514250509 0.00657506986 0.0256787073
  vertex -0.0470049754 0.0110801803 0.0268873107
  vertex -0.0551173985 0.0103001399 0.0116366697
  endloop
 endfacet

 facet normal 0 0 0
  outer loop
  vertex -0.0514250509 0.00657506986 0.0256787073
  vertex -0.0551173985 0.0103001399 0.0116366697
  vertex -0.0597359426 0.00261652004 0.0116366697
  endloop
 endfacet

 facet normal 0 0 0
  outer loop
  vertex -0.0514250509 0.00657506986 0.0256787073
  vertex -0.0597359426 0.00261652004 0.0116366697
  vertex -0.0528143346 0.00150219002 0.0269986279
  endloop
 endfacet

 facet normal 0 0 0
  outer loop
  vertex 0.00848039985 0.00686634006 -0.0173476804
  vertex 0.0115552396 0.00367431017 -0.0162875578
  vertex 0.0155734112 -0.00025556999 -0.0375151187
  endloop
 endfacet

 facet normal 0 0 0
  outer loop
  vertex 0.00848039985 0.00686634006 -0.0173476804
  vertex 0.0155734112 -0.00025556999 -0.0375151187
  vertex 0.0124547705 -0.00339377997 -0.0674566925
  endloop
 endfacet

 facet normal 0 0 0
  outer loop
  vertex 0.00848039985 0.00686634006 -0.0173476804
  vertex 0.0124547705 -0.00339377997 -0.0674566925
  vertex 0.0039162999 0.00919753965 -0.0162875578
  endloop
 endfacet

 facet normal 0 0 0
  outer loop
  vertex 0.00848039985 0.00686634006 -0.0173476804
  vertex 0.0039162999 0.00919753965 -0.0162875578
  vertex -0.0109641701 0.0167044196 0.0280437972
  endloop
 endfacet

 facet normal 0 0 0
  outer loop
  vertex -0.037428841 -0.0244194102 0.0272848792
  vertex -0.0296058413 -0.0267542098 0.0272848792
  vertex -0.0307222325 -0.0253108796 0.0293522291
  endloop
 endfacet

 facet normal 0 0 0
  outer loop
  vertex -0.037428841 -0.0244194102 0.0272848792
  vertex -0.0307222325 -0.0253108796 0.0293522291
  vertex -0.04239057 -0.0213576406 0.0277778581
  endloop
 endfacet

 facet normal 0 0 0
  outer loop
  vertex -0.037428841 -0.0244194102 0.0272848792
  vertex -0.04239057 -0.0213576406 0.0277778581
  vertex -0.0446481518 -0.0213788692 0.0232456103
  endloop
 endfacet

 facet normal 0 0 0
  outer loop
  vertex -0.037428841 -0.0244194102 0.0272848792
  vertex -0.0446481518 -0.0213788692 0.0232456103
  vertex -0.0572047047 -0.0271388907 -0.0509293154
  endloop
 endfacet

 facet normal 0 0 0
  outer loop
  vertex -0.037428841 -0.0244194102 0.0272848792
  vertex -0.0572047047 -0.0271388907 -0.0509293154
  vertex -0.0525810905 -0.0292422827 -0.0571519211
  endloop
 endfacet

 facet normal 0 0 0
  outer loop
  vertex -0.037428841 -0.0244194102 0.0272848792
  vertex -0.0525810905 -0.0292422827 -0.0571519211
  vertex -0.0296058413 -0.0267542098 0.0272848792
  endloop
 endfacet

 facet normal 0 0 0
  outer loop
  vertex -0.0561282039 -0.0152584687 -0.0718929097
  vertex -0.0572537333 -0.0230769292 -0.0696613789
  vertex -0.0593449138 -0.0163731407 -0.0673408732
  endloop
 endfacet

 facet normal 0 0 0
  outer loop
  vertex -0.0561282039 -0.0152584687 -0.0718929097
  vertex -0.0593449138 -0.0163731407 -0.0673408732
  vertex -0.0548108183 -0.00783045031 -0.0716902837
  endloop
 endfacet

 facet normal 0 0 0
  outer loop
  vertex -0.0469967052 0.0100029903 0.0278812293
  vertex -0.0470049754 0.0110801803 0.0268873107
  vertex -0.0514250509 0.00657506986 0.0256787073
  endloop
 endfacet

 facet normal 0 0 0
  outer loop
  vertex -0.0469967052 0.0100029903 0.0278812293
  vertex -0.0514250509 0.00657506986 0.0256787073
  vertex -0.0528143346 0.00150219002 0.0269986279
  endloop
 endfacet

 facet normal 0 0 0
  outer loop
  vertex 0.0131436 -0.00721899932 -0.0723749027
  vertex 0.0122219501 -0.0102663198 -0.0749409124
  vertex 0.0106230099 -0.00481483992 -0.0714019537
  endloop
 endfacet

 facet normal 0 0 0
  outer loop
  vertex 0.0131436 -0.00721899932 -0.0723749027
  vertex 0.0106230099 -0.00481483992 -0.0714019537
  vertex 0.0124547705 -0.00339377997 -0.0674566925
  endloop
 endfacet

 facet normal 0 0 0
  outer loop
  vertex 0.0154063506 -0.00617157994 -0.0665713996
  vertex 0.0124547705 -0.00339377997 -0.0674566925
  vertex 0.0155734112 -0.00025556999 -0.0375151187
  endloop
 endfacet

 facet normal 0 0 0
  outer loop
  vertex 0.0154063506 -0.00617157994 -0.0665713996
  vertex 0.0155734112 -0.00025556999 -0.0375151187
  vertex 0.0190536901 -0.00669845007 -0.0363961048
  endloop
 endfacet

 facet normal 0 0 0
  outer loop
  vertex 0.0190536901 -0.00669845007 -0.0363961048
  vertex 0.0198067892 -0.0163762607 -0.0643389821
  vertex 0.0162375607 -0.00967216957 -0.0699222013
  endloop
 endfacet

 facet normal 0 0 0
  outer loop
  vertex 0.0190536901 -0.00669845007 -0.0363961048
  vertex 0.0162375607 -0.00967216957 -0.0699222013
  vertex 0.0154063506 -0.00617157994 -0.0665713996
  endloop
 endfacet

 facet normal 0 0 0
  outer loop
  vertex 0.0154063506 -0.00617157994 -0.0665713996
  vertex 0.0162375607 -0.00967216957 -0.0699222013
  vertex 0.0131436 -0.00721899932 -0.0723749027
  endloop
 endfacet

 facet normal 0 0 0
  outer loop
  vertex 0.0154063506 -0.00617157994 -0.0665713996
  vertex 0.0131436 -0.00721899932 -0.0723749027
  vertex 0.0124547705 -0.00339377997 -0.0674566925
  endloop
 endfacet

 facet normal 0 0 0
  outer loop
  vertex -0.0425518192 0.0144125801 0.0278891791
  vertex -0.0401329808 0.0165404305 0.02639433
  vertex -0.0551173985 0.0103001399 0.0116366697
  endloop
 endfacet

 facet normal 0 0 0
  outer loop
  vertex -0.0425518192 0.0144125801 0.0278891791
  vertex -0.0551173985 0.0103001399 0.0116366697
  vertex -0.0470049754 0.0110801803 0.0268873107
  endloop
 endfacet

 facet normal 0 0 0
  outer loop
  vertex -0.0425518192 0.0144125801 0.0278891791
  vertex -0.0470049754 0.0110801803 0.0268873107
  vertex -0.0469967052 0.0100029903 0.0278812293
  endloop
 endfacet

 facet normal 0 0 0
  outer loop
  vertex -0.0425518192 0.0144125801 0.0278891791
  vertex -0.0469967052 0.0100029903 0.0278812293
  vertex -0.0325787403 0.0188858509 0.0290262178
  endloop
 endfacet

 facet normal 0 0 0
  outer loop
  vertex -0.0425518192 0.0144125801 0.0278891791
  vertex -0.0325787403 0.0188858509 0.0290262178
  vertex -0.0401329808 0.0165404305 0.02639433
  endloop
 endfacet

 facet normal 0 0 0
  outer loop
  vertex -0.0535936393 -0.0201580003 -0.0738130733
  vertex -0.0515578799 -0.0226298105 -0.0739044994
  vertex -0.0572537333 -0.0230769292 -0.0696613789
  endloop
 endfacet

 facet normal 0 0 0
  outer loop
  vertex -0.0535936393 -0.0201580003 -0.0738130733
  vertex -0.0572537333 -0.0230769292 -0.0696613789
  vertex -0.0561282039 -0.0152584687 -0.0718929097
  endloop
 endfacet

 facet normal 0 0 0
  outer loop
  vertex -0.0535936393 -0.0201580003 -0.0738130733
  vertex -0.0561282039 -0.0152584687 -0.0718929097
  vertex -0.0510718599 -0.0130228205 -0.0759877712
  endloop
 endfacet

 facet normal 0 0 0
  outer loop
  vertex -0.00166739011 0.0105502699 -0.0162875578
  vertex 0.0039162999 0.00919753965 -0.0162875578
  vertex 0.00950509962 -0.00207072007 -0.0665713996
  endloop
 endfacet

 facet normal 0 0 0
  outer loop
  vertex -0.00166739011 0.0105502699 -0.0162875578
  vertex -0.0262525398 0.0206316393 0.0228162277
  vertex -0.0206623804 0.0203295406 0.0239295382
  endloop
 endfacet

 facet normal 0 0 0
  outer loop
  vertex -0.00166739011 0.0105502699 -0.0162875578
  vertex -0.0206623804 0.0203295406 0.0239295382
  vertex 0.0039162999 0.00919753965 -0.0162875578
  endloop
 endfacet

 facet normal 0 0 0
  outer loop
  vertex -0.0519501604 -0.00854806975 0.0273961984
  vertex -0.0528143346 0.00150219002 0.0269986279
  vertex -0.0537942722 -0.00743373018 0.0258933976
  endloop
 endfacet

 facet normal 0 0 0
  outer loop
  vertex -0.0519501604 -0.00854806975 0.0273961984
  vertex -0.0537942722 -0.00743373018 0.0258933976
  vertex -0.0503624082 -0.0147936586 0.0268077981
  endloop
 endfacet

 facet normal 0 0 0
  outer loop
  vertex -0.0519501604 -0.00854806975 0.0273961984
  vertex -0.0503624082 -0.0147936586 0.0268077981
  vertex -0.04239057 -0.0213576406 0.0277778581
  endloop
 endfacet

 facet normal 0 0 0
  outer loop
  vertex -0.0519501604 -0.00854806975 0.0273961984
  vertex -0.04239057 -0.0213576406 0.0277778581
  vertex -0.0307222325 -0.0253108796 0.0293522291
  endloop
 endfacet

 facet normal 0 0 0
  outer loop
  vertex -0.0519501604 -0.00854806975 0.0273961984
  vertex -0.0469967052 0.0100029903 0.0278812293
  vertex -0.0528143346 0.00150219002 0.0269986279
  endloop
 endfacet

 facet normal 0 0 0
  outer loop
  vertex -0.0577610731 -0.00855467003 -0.0654528365
  vertex -0.0617206395 -0.01078205 -0.0509243757
  vertex -0.0619852617 -0.000731789973 -0.0263388697
  endloop
 endfacet

 facet normal 0 0 0
  outer loop
  vertex -0.0577610731 -0.00855467003 -0.0654528365
  vertex -0.0619852617 -0.000731789973 -0.0263388697
  vertex -0.0547063686 -0.00358271995 -0.0669924244
  endloop
 endfacet

 facet normal 0 0 0
  outer loop
  vertex -0.0577610731 -0.00855467003 -0.0654528365
  vertex -0.0547063686 -0.00358271995 -0.0669924244
  vertex -0.0548108183 -0.00783045031 -0.0716902837
  endloop
 endfacet

 facet normal 0 0 0
  outer loop
  vertex -0.0577610731 -0.00855467003 -0.0654528365
  vertex -0.0548108183 -0.00783045031 -0.0716902837
  vertex -0.0593449138 -0.0163731407 -0.0673408732
  endloop
 endfacet

 facet normal 0 0 0
  outer loop
  vertex -0.0577610731 -0.00855467003 -0.0654528365
  vertex -0.0593449138 -0.0163731407 -0.0673408732
  vertex -0.0617206395 -0.01078205 -0.0509243757
  endloop
 endfacet

 facet normal 0 0 0
  outer loop
  vertex -0.0515834652 -0.00881601963 -0.0750709325
  vertex -0.0548108183 -0.00783045031 -0.0716902837
  vertex -0.0503790602 -0.00568926986 -0.0738723874
  endloop
 endfacet

 facet normal 0 0 0
  outer loop
  vertex -0.0515834652 -0.00881601963 -0.0750709325
  vertex -0.0503790602 -0.00568926986 -0.0738723874
  vertex -0.0304634105 -0.00901539996 -0.0783564299
  endloop
 endfacet

 facet normal 0 0 0
  outer loop
  vertex -0.0515834652 -0.00881601963 -0.0750709325
  vertex -0.0304634105 -0.00901539996 -0.0783564299
  vertex -0.030720612 -0.0163746402 -0.080340609
  endloop
 endfacet

 facet normal 0 0 0
  outer loop
  vertex -0.0515834652 -0.00881601963 -0.0750709325
  vertex -0.030720612 -0.0163746402 -0.080340609
  vertex -0.0510718599 -0.0130228205 -0.0759877712
  endloop
 endfacet

 facet normal 0 0 0
  outer loop
  vertex -0.0515834652 -0.00881601963 -0.0750709325
  vertex -0.0510718599 -0.0130228205 -0.0759877712
  vertex -0.0561282039 -0.0152584687 -0.0718929097
  endloop
 endfacet

 facet normal 0 0 0
  outer loop
  vertex -0.0515834652 -0.00881601963 -0.0750709325
  vertex -0.0561282039 -0.0152584687 -0.0718929097
  vertex -0.0548108183 -0.00783045031 -0.0716902837
  endloop
 endfacet

 facet normal 0 0 0
  outer loop
  vertex -0.00312854 0.0122933201 0.0194619074
  vertex -0.00316064991 0.0101332199 0.0281699989
  vertex 0.0115552396 0.00367431017 -0.0162875578
  endloop
 endfacet

 facet normal 0 0 0
  outer loop
  vertex -0.00312854 0.0122933201 0.0194619074
  vertex 0.0115552396 0.00367431017 -0.0162875578
  vertex 0.00848039985 0.00686634006 -0.0173476804
  endloop
 endfacet

 facet normal 0 0 0
  outer loop
  vertex -0.00312854 0.0122933201 0.0194619074
  vertex 0.00848039985 0.00686634006 -0.0173476804
  vertex -0.0109641701 0.0167044196 0.0280437972
  endloop
 endfacet

 facet normal 0 0 0
  outer loop
  vertex -0.00312854 0.0122933201 0.0194619074
  vertex -0.0109641701 0.0167044196 0.0280437972
  vertex -0.00316064991 0.0101332199 0.0281699989
  endloop
 endfacet

 facet normal 0 0 0
  outer loop
  vertex -0.0503499992 -0.0181154497 0.0202241
  vertex -0.0592149645 -0.0135838101 0.00662733009
  vertex -0.0581564605 -0.0192085598 -0.0110246204
  endloop
 endfacet

 facet normal 0 0 0
  outer loop
  vertex -0.0503499992 -0.0181154497 0.0202241
  vertex -0.0446481518 -0.0213788692 0.0232456103
  vertex -0.04239057 -0.0213576406 0.0277778581
  endloop
 endfacet

 facet normal 0 0 0
  outer loop
  vertex -0.0503499992 -0.0181154497 0.0202241
  vertex -0.04239057 -0.0213576406 0.0277778581
  vertex -0.0503624082 -0.0147936586 0.0268077981
  endloop
 endfacet

 facet normal 0 0 0
  outer loop
  vertex -0.0503499992 -0.0181154497 0.0202241
  vertex -0.0503624082 -0.0147936586 0.0268077981
  vertex -0.0592149645 -0.0135838101 0.00662733009
  endloop
 endfacet

 facet normal 0 0 0
  outer loop
  vertex -0.00885673985 -0.0180977806 0.0312157385
  vertex -0.00331721012 -0.0113875698 0.0312157385
  vertex -0.00278331991 -0.00520134997 0.0317289717
  endloop
 endfacet

 facet normal 0 0 0
  outer loop
  vertex -0.00885673985 -0.0180977806 0.0312157385
  vertex -0.0307222325 -0.0253108796 0.0293522291
  vertex -0.0188359395 -0.0247866102 0.0301135499
  endloop
 endfacet

 facet normal 0 0 0
  outer loop
  vertex -0.00885673985 -0.0180977806 0.0312157385
  vertex -0.0188359395 -0.0247866102 0.0301135499
  vertex -0.0111167096 -0.0214341804 0.0301135499
  endloop
 endfacet

 facet normal 0 0 0
  outer loop
  vertex -0.00885673985 -0.0180977806 0.0312157385
  vertex -0.0111167096 -0.0214341804 0.0301135499
  vertex 0.0032941103 -0.0122804902 0.023256449
  endloop
 endfacet

 facet normal 0 0 0
  outer loop
  vertex -0.00885673985 -0.0180977806 0.0312157385
  vertex 0.0032941103 -0.0122804902 0.023256449
  vertex -0.00331721012 -0.0113875698 0.0312157385
  endloop
 endfacet

endsolid AssimpScene
