solid AssimpScene
 facet normal 0 0 0
  outer loop
  vertex 0.0459712297 0.0111122411 0.0278551094
  vertex 0.032642629 0.0188733395 0.0289850291
  vertex 0.0196284801 0.0186998509 0.0299364608
  endloop
 endfacet

 facet normal 0 0 0
  outer loop
  vertex 0.0459712297 0.0111122411 0.0278551094
  vertex 0.0196284801 0.0186998509 0.0299364608
  vertex 0.00558512006 0.00995637011 0.0312148985
  endloop
 endfacet

 facet normal 0 0 0
  outer loop
  vertex 0.0459712297 0.0111122411 0.0278551094
  vertex 0.00558512006 0.00995637011 0.0312148985
  vertex 0.00287109008 -0.00520753069 0.0317111388
  endloop
 endfacet

 facet normal 0 0 0
  outer loop
  vertex 0.0459712297 0.0111122411 0.0278551094
  vertex 0.00287109008 -0.00520753069 0.0317111388
  vertex 0.00767343957 -0.01712659 0.0312317293
  endloop
 endfacet

 facet normal 0 0 0
  outer loop
  vertex 0.0459712297 0.0111122411 0.0278551094
  vertex 0.00767343957 -0.01712659 0.0312317293
  vertex 0.0207492206 -0.0249309316 0.0301626977
  endloop
 endfacet

 facet normal 0 0 0
  outer loop
  vertex 0.0459712297 0.0111122411 0.0278551094
  vertex 0.0207492206 -0.0249309316 0.0301626977
  vertex 0.0308040604 -0.026046481 0.0290964302
  endloop
 endfacet

 facet normal 0 0 0
  outer loop
  vertex 0.0459712297 0.0111122411 0.0278551094
  vertex 0.0308040604 -0.026046481 0.0290964302
  vertex 0.0481622405 -0.0148005914 0.0278232805
  endloop
 endfacet

 facet normal 0 0 0
  outer loop
  vertex -0.0156214498 -0.0281384308 -0.0672133714
  vertex 0.0103475703 -0.0303511415 -0.0749749541
  vertex 0.00399274006 -0.0338215008 -0.0587583594
  endloop
 endfacet

 facet normal 0 0 0
  outer loop
  vertex -0.0156214498 -0.0281384308 -0.0672133714
  vertex 0.00399274006 -0.0338215008 -0.0587583594
  vertex -0.0169382598 -0.0283154715 -0.0542904511
  endloop
 endfacet

 facet normal 0 0 0
  outer loop
  vertex 0.0336244218 -0.0292329919 -0.0738516375
  vertex 0.0103475703 -0.0303511415 -0.0749749541
  vertex 0.00651809014 -0.0282614212 -0.077340208
  endloop
 endfacet

 facet normal 0 0 0
  outer loop
  vertex 0.0336244218 -0.0292329919 -0.0738516375
  vertex 0.00651809014 -0.0282614212 -0.077340208
  vertex 0.0317162499 -0.0250742417 -0.0784588307
  endloop
 endfacet

 facet normal 0 0 0
  outer loop
  vertex 0.0336244218 -0.0292329919 -0.0738516375
  vertex 0.0317162499 -0.0250742417 -0.0784588307
  vertex 0.051575169 -0.0226033702 -0.0738884285
  endloop
 endfacet

 facet normal 0 0 0
  outer loop
  vertex -0.0189272203 -0.0158957895 -0.0312184878
  vertex -0.0189233106 -0.00682729064 -0.0346248709
  vertex -0.0205566492 -0.0230776127 -0.0632272437
  endloop
 endfacet

 facet normal 0 0 0
  outer loop
  vertex 0.0404045582 -0.0225829426 0.0278710201
  vertex 0.0308040604 -0.026046481 0.0290964302
  vertex 0.0296830796 -0.0267476905 0.0272503607
  endloop
 endfacet

 facet normal 0 0 0
  outer loop
  vertex 0.0404045582 -0.0225829426 0.0278710201
  vertex 0.0296830796 -0.0267476905 0.0272503607
  vertex 0.0566268414 -0.0279093813 -0.0542900674
  endloop
 endfacet

 facet normal 0 0 0
  outer loop
  vertex 0.0404045582 -0.0225829426 0.0278710201
  vertex 0.0566268414 -0.0279093813 -0.0542900674
  vertex 0.0462599657 -0.0205218103 0.0227784105
  endloop
 endfacet

 facet normal 0 0 0
  outer loop
  vertex 0.0307996105 -0.01637985 -0.0803346485
  vertex 0.0509188361 -0.0118465004 -0.0759742036
  vertex 0.0536500402 -0.020077901 -0.0738067776
  endloop
 endfacet

 facet normal 0 0 0
  outer loop
  vertex 0.0307996105 -0.01637985 -0.0803346485
  vertex 0.0536500402 -0.020077901 -0.0738067776
  vertex 0.051575169 -0.0226033702 -0.0738884285
  endloop
 endfacet

 facet normal 0 0 0
  outer loop
  vertex 0.0307996105 -0.01637985 -0.0803346485
  vertex 0.051575169 -0.0226033702 -0.0738884285
  vertex 0.0317162499 -0.0250742417 -0.0784588307
  endloop
 endfacet

 facet normal 0 0 0
  outer loop
  vertex 0.0317162499 -0.0250742417 -0.0784588307
  vertex 0.0075879395 -0.0249972213 -0.0795380026
  vertex 0.00957627967 -0.0174942426 -0.080940403
  endloop
 endfacet

 facet normal 0 0 0
  outer loop
  vertex 0.0317162499 -0.0250742417 -0.0784588307
  vertex 0.00957627967 -0.0174942426 -0.080940403
  vertex 0.0307996105 -0.01637985 -0.0803346485
  endloop
 endfacet

 facet normal 0 0 0
  outer loop
  vertex 0.0123545602 0.0176981613 0.0267403591
  vertex -0.00892361999 0.00657832064 -0.0163061395
  vertex 0.00457616011 0.0120769711 0.0276907776
  endloop
 endfacet

 facet normal 0 0 0
  outer loop
  vertex 0.00769989984 -0.0112563306 -0.0794804394
  vertex 0.00957627967 -0.0174942426 -0.080940403
  vertex -0.0127614504 -0.0152605101 -0.0755782798
  endloop
 endfacet

 facet normal 0 0 0
  outer loop
  vertex 0.00769989984 -0.0112563306 -0.0794804394
  vertex -0.0127614504 -0.0152605101 -0.0755782798
  vertex -0.0122181298 -0.0102180112 -0.0749615878
  endloop
 endfacet

 facet normal 0 0 0
  outer loop
  vertex -0.0122750998 -0.00780767063 0.00356859015
  vertex -0.0189233106 -0.00682729064 -0.0346248709
  vertex -0.0189272203 -0.0158957895 -0.0312184878
  endloop
 endfacet

 facet normal 0 0 0
  outer loop
  vertex -0.0122750998 -0.00780767063 0.00356859015
  vertex -0.0189272203 -0.0158957895 -0.0312184878
  vertex -0.0113169691 -0.0119582899 0.00495638
  endloop
 endfacet

 facet normal 0 0 0
  outer loop
  vertex 0.0319887288 0.018958332 0.0149087301
  vertex 0.0229826905 0.0205573011 0.0227784105
  vertex 0.0281841997 0.0199517105 0.0278630592
  endloop
 endfacet

 facet normal 0 0 0
  outer loop
  vertex 0.0599360317 -0.0219609812 -0.0654587299
  vertex 0.0571074411 -0.0215705093 -0.0705432668
  vertex 0.0593432188 -0.015622111 -0.0672302768
  endloop
 endfacet

 facet normal 0 0 0
  outer loop
  vertex 0.0599360317 -0.0219609812 -0.0654587299
  vertex 0.0593432188 -0.015622111 -0.0672302768
  vertex 0.0618899688 -0.0107898908 -0.0498151854
  endloop
 endfacet

 facet normal 0 0 0
  outer loop
  vertex 0.0599360317 -0.0219609812 -0.0654587299
  vertex 0.0618899688 -0.0107898908 -0.0498151854
  vertex 0.061578989 -0.0215988513 -0.0520558357
  endloop
 endfacet

 facet normal 0 0 0
  outer loop
  vertex 0.0011308199 5.13500054e-05 0.0312064886
  vertex 0.00287109008 -0.00520753069 0.0317111388
  vertex 0.00558512006 0.00995637011 0.0312148985
  endloop
 endfacet

 facet normal 0 0 0
  outer loop
  vertex -0.00111001998 0.0098871002 -0.0169453602
  vertex -0.00892361999 0.00657832064 -0.0163061395
  vertex 0.0123545602 0.0176981613 0.0267403591
  endloop
 endfacet

 facet normal 0 0 0
  outer loop
  vertex 0.0502301008 0.00749464054 0.0264705494
  vertex 0.052858457 0.00149187003 0.0269559398
  vertex 0.0580302365 0.00625159033 0.0116064902
  endloop
 endfacet

 facet normal 0 0 0
  outer loop
  vertex 0.0502301008 0.00749464054 0.0264705494
  vertex 0.0580302365 0.00625159033 0.0116064902
  vertex 0.0525782108 0.0121056195 0.0121714501
  endloop
 endfacet

 facet normal 0 0 0
  outer loop
  vertex 0.0602637082 -0.000739239971 0.0129512604
  vertex 0.0614738464 -0.00769820018 0.00854296982
  vertex 0.0624801852 0.000376320037 0.00267055002
  endloop
 endfacet

 facet normal 0 0 0
  outer loop
  vertex 0.0602637082 -0.000739239971 0.0129512604
  vertex 0.0624801852 0.000376320037 0.00267055002
  vertex 0.0580302365 0.00625159033 0.0116064902
  endloop
 endfacet

 facet normal 0 0 0
  outer loop
  vertex 0.0602637082 -0.000739239971 0.0129512604
  vertex 0.0580302365 0.00625159033 0.0116064902
  vertex 0.052858457 0.00149187003 0.0269559398
  endloop
 endfacet

 facet normal 0 0 0
  outer loop
  vertex -0.0189191308 -0.0270029493 -0.063824743
  vertex -0.0156214498 -0.0281384308 -0.0672133714
  vertex -0.0169382598 -0.0283154715 -0.0542904511
  endloop
 endfacet

 facet normal 0 0 0
  outer loop
  vertex 0.0505970158 -7.25100035e-05 -0.066329658
  vertex 0.0319887288 0.018958332 0.0149087301
  vertex 0.0464340597 0.0148998303 0.0116064902
  endloop
 endfacet

 facet normal 0 0 0
  outer loop
  vertex 0.0505970158 -7.25100035e-05 -0.066329658
  vertex 0.0464340597 0.0148998303 0.0116064902
  vertex 0.0549645387 0.00993292965 -0.00492062932
  endloop
 endfacet

 facet normal 0 0 0
  outer loop
  vertex 0.0308040604 -0.026046481 0.0290964302
  vertex 0.0207492206 -0.0249309316 0.0301626977
  vertex 0.0296830796 -0.0267476905 0.0272503607
  endloop
 endfacet

 facet normal 0 0 0
  outer loop
  vertex 0.0625141636 -0.00195042009 -0.0252353773
  vertex 0.0618899688 -0.0107898908 -0.0498151854
  vertex 0.0596352816 -0.00288536004 -0.0442769788
  endloop
 endfacet

 facet normal 0 0 0
  outer loop
  vertex 0.0625141636 -0.00195042009 -0.0252353773
  vertex 0.0596352816 -0.00288536004 -0.0442769788
  vertex 0.0600513965 0.00615597051 -0.00849341974
  endloop
 endfacet

 facet normal 0 0 0
  outer loop
  vertex -0.00218937011 -0.00520753069 0.0278590005
  vertex -0.00323743979 -0.0123845404 0.0232835207
  vertex 0.00337557006 -0.0114467908 0.0311980899
  endloop
 endfacet

 facet normal 0 0 0
  outer loop
  vertex -0.00218937011 -0.00520753069 0.0278590005
  vertex 0.00337557006 -0.0114467908 0.0311980899
  vertex 0.00287109008 -0.00520753069 0.0317111388
  endloop
 endfacet

 facet normal 0 0 0
  outer loop
  vertex -0.00218937011 -0.00520753069 0.0278590005
  vertex 0.00287109008 -0.00520753069 0.0317111388
  vertex 0.0011308199 5.13500054e-05 0.0312064886
  endloop
 endfacet

 facet normal 0 0 0
  outer loop
  vertex -0.0127614504 -0.0152605101 -0.0755782798
  vertex 0.00957627967 -0.0174942426 -0.080940403
  vertex 0.0075879395 -0.0249972213 -0.0795380026
  endloop
 endfacet

 facet normal 0 0 0
  outer loop
  vertex -0.0120795602 0.00292322016 -0.0163061395
  vertex -0.0189233106 -0.00682729064 -0.0346248709
  vertex -0.0122750998 -0.00780767063 0.00356859015
  endloop
 endfacet

 facet normal 0 0 0
  outer loop
  vertex -0.0120795602 0.00292322016 -0.0163061395
  vertex -0.0122750998 -0.00780767063 0.00356859015
  vertex -0.00906831957 -0.00632644026 0.0137877204
  endloop
 endfacet

 facet normal 0 0 0
  outer loop
  vertex -0.0120795602 0.00292322016 -0.0163061395
  vertex -0.00906831957 -0.00632644026 0.0137877204
  vertex -0.00330784009 0.00109566003 0.0245367307
  endloop
 endfacet

 facet normal 0 0 0
  outer loop
  vertex -0.0120795602 0.00292322016 -0.0163061395
  vertex 0.00457616011 0.0120769711 0.0276907776
  vertex -0.00892361999 0.00657832064 -0.0163061395
  endloop
 endfacet

 facet normal 0 0 0
  outer loop
  vertex -0.0120795602 0.00292322016 -0.0163061395
  vertex -0.00892361999 0.00657832064 -0.0163061395
  vertex -0.0165573303 -0.00142988015 -0.0375265889
  endloop
 endfacet

 facet normal 0 0 0
  outer loop
  vertex -0.0120795602 0.00292322016 -0.0163061395
  vertex -0.0165573303 -0.00142988015 -0.0375265889
  vertex -0.0189233106 -0.00682729064 -0.0346248709
  endloop
 endfacet

 facet normal 0 0 0
  outer loop
  vertex 0.0603698604 -0.0247025024 -0.0506268293
  vertex 0.0566268414 -0.0279093813 -0.0542900674
  vertex 0.0570248663 -0.0258531123 -0.0659412071
  endloop
 endfacet

 facet normal 0 0 0
  outer loop
  vertex 0.0603698604 -0.0247025024 -0.0506268293
  vertex 0.0570248663 -0.0258531123 -0.0659412071
  vertex 0.0599360317 -0.0219609812 -0.0654587299
  endloop
 endfacet

 facet normal 0 0 0
  outer loop
  vertex 0.0603698604 -0.0247025024 -0.0506268293
  vertex 0.0599360317 -0.0219609812 -0.0654587299
  vertex 0.061578989 -0.0215988513 -0.0520558357
  endloop
 endfacet

 facet normal 0 0 0
  outer loop
  vertex 0.0603698604 -0.0247025024 -0.0506268293
  vertex 0.061578989 -0.0215988513 -0.0520558357
  vertex 0.0604080781 -0.0158311594 -0.00676669972
  endloop
 endfacet

 facet normal 0 0 0
  outer loop
  vertex 0.0604080781 -0.0158311594 -0.00676669972
  vertex 0.0462599657 -0.0205218103 0.0227784105
  vertex 0.0566268414 -0.0279093813 -0.0542900674
  endloop
 endfacet

 facet normal 0 0 0
  outer loop
  vertex 0.0604080781 -0.0158311594 -0.00676669972
  vertex 0.0566268414 -0.0279093813 -0.0542900674
  vertex 0.0603698604 -0.0247025024 -0.0506268293
  endloop
 endfacet

 facet normal 0 0 0
  outer loop
  vertex 0.000133590001 0.00528358016 0.0287925899
  vertex -0.00330784009 0.00109566003 0.0245367307
  vertex -0.00218937011 -0.00520753069 0.0278590005
  endloop
 endfacet

 facet normal 0 0 0
  outer loop
  vertex 0.000133590001 0.00528358016 0.0287925899
  vertex -0.00218937011 -0.00520753069 0.0278590005
  vertex 0.0011308199 5.13500054e-05 0.0312064886
  endloop
 endfacet

 facet normal 0 0 0
  outer loop
  vertex 0.000133590001 0.00528358016 0.0287925899
  vertex 0.0011308199 5.13500054e-05 0.0312064886
  vertex 0.00558512006 0.00995637011 0.0312148985
  endloop
 endfacet

 facet normal 0 0 0
  outer loop
  vertex 0.000133590001 0.00528358016 0.0287925899
  vertex 0.00558512006 0.00995637011 0.0312148985
  vertex 0.00457616011 0.0120769711 0.0276907776
  endloop
 endfacet

 facet normal 0 0 0
  outer loop
  vertex 0.000133590001 0.00528358016 0.0287925899
  vertex 0.00457616011 0.0120769711 0.0276907776
  vertex -0.0120795602 0.00292322016 -0.0163061395
  endloop
 endfacet

 facet normal 0 0 0
  outer loop
  vertex 0.000133590001 0.00528358016 0.0287925899
  vertex -0.0120795602 0.00292322016 -0.0163061395
  vertex -0.00330784009 0.00109566003 0.0245367307
  endloop
 endfacet

 facet normal 0 0 0
  outer loop
  vertex 0.0603656061 0.00645877048 0.000442529999
  vertex 0.0525782108 0.0121056195 0.0121714501
  vertex 0.0580302365 0.00625159033 0.0116064902
  endloop
 endfacet

 facet normal 0 0 0
  outer loop
  vertex 0.0603656061 0.00645877048 0.000442529999
  vertex 0.0580302365 0.00625159033 0.0116064902
  vertex 0.0624801852 0.000376320037 0.00267055002
  endloop
 endfacet

 facet normal 0 0 0
  outer loop
  vertex 0.0603656061 0.00645877048 0.000442529999
  vertex 0.0624801852 0.000376320037 0.00267055002
  vertex 0.0625141636 -0.00195042009 -0.0252353773
  endloop
 endfacet

 facet normal 0 0 0
  outer loop
  vertex 0.0603656061 0.00645877048 0.000442529999
  vertex 0.0625141636 -0.00195042009 -0.0252353773
  vertex 0.0600513965 0.00615597051 -0.00849341974
  endloop
 endfacet

 facet normal 0 0 0
  outer loop
  vertex 0.0539029986 -0.00632766029 0.0259851608
  vertex 0.0514614768 -0.0135787912 0.0266853999
  vertex 0.0614738464 -0.00769820018 0.00854296982
  endloop
 endfacet

 facet normal 0 0 0
  outer loop
  vertex 0.0539029986 -0.00632766029 0.0259851608
  vertex 0.0614738464 -0.00769820018 0.00854296982
  vertex 0.0602637082 -0.000739239971 0.0129512604
  endloop
 endfacet

 facet normal 0 0 0
  outer loop
  vertex 0.0539029986 -0.00632766029 0.0259851608
  vertex 0.0602637082 -0.000739239971 0.0129512604
  vertex 0.052858457 0.00149187003 0.0269559398
  endloop
 endfacet

 facet normal 0 0 0
  outer loop
  vertex 0.0539029986 -0.00632766029 0.0259851608
  vertex 0.052858457 0.00149187003 0.0269559398
  vertex 0.0514614768 -0.0135787912 0.0266853999
  endloop
 endfacet

 facet normal 0 0 0
  outer loop
  vertex 0.0140443603 -0.0342463218 -0.0609927885
  vertex 0.0319165811 -0.0330214314 -0.0587583482
  vertex 0.0296830796 -0.0267476905 0.0272503607
  endloop
 endfacet

 facet normal 0 0 0
  outer loop
  vertex 0.0140443603 -0.0342463218 -0.0609927885
  vertex 0.0296830796 -0.0267476905 0.0272503607
  vertex 0.0207492206 -0.0266627017 0.02501438
  endloop
 endfacet

 facet normal 0 0 0
  outer loop
  vertex 0.0140443603 -0.0342463218 -0.0609927885
  vertex 0.0207492206 -0.0266627017 0.02501438
  vertex 0.00399274006 -0.0338215008 -0.0587583594
  endloop
 endfacet

 facet normal 0 0 0
  outer loop
  vertex 0.0140443603 -0.0342463218 -0.0609927885
  vertex 0.00399274006 -0.0338215008 -0.0587583594
  vertex 0.0103475703 -0.0303511415 -0.0749749541
  endloop
 endfacet

 facet normal 0 0 0
  outer loop
  vertex 0.0140443603 -0.0342463218 -0.0609927885
  vertex 0.0103475703 -0.0303511415 -0.0749749541
  vertex 0.0336244218 -0.0292329919 -0.0738516375
  endloop
 endfacet

 facet normal 0 0 0
  outer loop
  vertex 0.0140443603 -0.0342463218 -0.0609927885
  vertex 0.0336244218 -0.0292329919 -0.0738516375
  vertex 0.0319165811 -0.0330214314 -0.0587583482
  endloop
 endfacet

 facet normal 0 0 0
  outer loop
  vertex -0.0188842006 -0.0246765725 -0.0483765304
  vertex -0.0169382598 -0.0283154715 -0.0542904511
  vertex -0.0100068897 -0.0203181524 -0.00895509031
  endloop
 endfacet

 facet normal 0 0 0
  outer loop
  vertex -0.0188842006 -0.0246765725 -0.0483765304
  vertex -0.0100068897 -0.0203181524 -0.00895509031
  vertex -0.0113169691 -0.0119582899 0.00495638
  endloop
 endfacet

 facet normal 0 0 0
  outer loop
  vertex -0.0188842006 -0.0246765725 -0.0483765304
  vertex -0.0113169691 -0.0119582899 0.00495638
  vertex -0.0189272203 -0.0158957895 -0.0312184878
  endloop
 endfacet

 facet normal 0 0 0
  outer loop
  vertex -0.0188842006 -0.0246765725 -0.0483765304
  vertex -0.0189272203 -0.0158957895 -0.0312184878
  vertex -0.0205566492 -0.0230776127 -0.0632272437
  endloop
 endfacet

 facet normal 0 0 0
  outer loop
  vertex -0.0188842006 -0.0246765725 -0.0483765304
  vertex -0.0205566492 -0.0230776127 -0.0632272437
  vertex -0.0189191308 -0.0270029493 -0.063824743
  endloop
 endfacet

 facet normal 0 0 0
  outer loop
  vertex -0.0188842006 -0.0246765725 -0.0483765304
  vertex -0.0189191308 -0.0270029493 -0.063824743
  vertex -0.0169382598 -0.0283154715 -0.0542904511
  endloop
 endfacet

 facet normal 0 0 0
  outer loop
  vertex 0.032642629 0.0188733395 0.0289850291
  vertex 0.0281841997 0.0199517105 0.0278630592
  vertex 0.0196284801 0.0186998509 0.0299364608
  endloop
 endfacet

 facet normal 0 0 0
  outer loop
  vertex -0.0189153608 -0.0236606225 -0.0682653934
  vertex -0.0189191308 -0.0270029493 -0.063824743
  vertex -0.0205566492 -0.0230776127 -0.0632272437
  endloop
 endfacet

 facet normal 0 0 0
  outer loop
  vertex -0.0189153608 -0.0236606225 -0.0682653934
  vertex -0.0205566492 -0.0230776127 -0.0632272437
  vertex -0.0189455394 -0.0178580694 -0.0683230087
  endloop
 endfacet

 facet normal 0 0 0
  outer loop
  vertex 0.0630873814 -0.0119054504 -0.0308292992
  vertex 0.061578989 -0.0215988513 -0.0520558357
  vertex 0.0618899688 -0.0107898908 -0.0498151854
  endloop
 endfacet

 facet normal 0 0 0
  outer loop
  vertex 0.0630873814 -0.0119054504 -0.0308292992
  vertex 0.0618899688 -0.0107898908 -0.0498151854
  vertex 0.0625141636 -0.00195042009 -0.0252353773
  endloop
 endfacet

 facet normal 0 0 0
  outer loop
  vertex 0.0630873814 -0.0119054504 -0.0308292992
  vertex 0.062981233 -0.00632766029 -0.0040294202
  vertex 0.0614738464 -0.00769820018 0.00854296982
  endloop
 endfacet

 facet normal 0 0 0
  outer loop
  vertex 0.0630873814 -0.0119054504 -0.0308292992
  vertex 0.0614738464 -0.00769820018 0.00854296982
  vertex 0.0604080781 -0.0158311594 -0.00676669972
  endloop
 endfacet

 facet normal 0 0 0
  outer loop
  vertex 0.0630873814 -0.0119054504 -0.0308292992
  vertex 0.0604080781 -0.0158311594 -0.00676669972
  vertex 0.061578989 -0.0215988513 -0.0520558357
  endloop
 endfacet

 facet normal 0 0 0
  outer loop
  vertex 0.0547234565 -0.00364659028 -0.0668542013
  vertex 0.0505970158 -7.25100035e-05 -0.066329658
  vertex 0.0600513965 0.00615597051 -0.00849341974
  endloop
 endfacet

 facet normal 0 0 0
  outer loop
  vertex 0.0547234565 -0.00364659028 -0.0668542013
  vertex 0.0600513965 0.00615597051 -0.00849341974
  vertex 0.0596352816 -0.00288536004 -0.0442769788
  endloop
 endfacet

 facet normal 0 0 0
  outer loop
  vertex 0.0547234565 -0.00364659028 -0.0668542013
  vertex 0.0596352816 -0.00288536004 -0.0442769788
  vertex 0.0618899688 -0.0107898908 -0.0498151854
  endloop
 endfacet

 facet normal 0 0 0
  outer loop
  vertex 0.0547234565 -0.00364659028 -0.0668542013
  vertex 0.0618899688 -0.0107898908 -0.0498151854
  vertex 0.0593432188 -0.015622111 -0.0672302768
  endloop
 endfacet

 facet normal 0 0 0
  outer loop
  vertex 0.0547234565 -0.00364659028 -0.0668542013
  vertex 0.0593432188 -0.015622111 -0.0672302768
  vertex 0.0546789989 -0.0071419403 -0.0713845119
  endloop
 endfacet

 facet normal 0 0 0
  outer loop
  vertex 0.058429379 -0.0138869006 0.0082565099
  vertex 0.0604080781 -0.0158311594 -0.00676669972
  vertex 0.0614738464 -0.00769820018 0.00854296982
  endloop
 endfacet

 facet normal 0 0 0
  outer loop
  vertex 0.058429379 -0.0138869006 0.0082565099
  vertex 0.0614738464 -0.00769820018 0.00854296982
  vertex 0.0514614768 -0.0135787912 0.0266853999
  endloop
 endfacet

 facet normal 0 0 0
  outer loop
  vertex 0.058429379 -0.0138869006 0.0082565099
  vertex 0.0462599657 -0.0205218103 0.0227784105
  vertex 0.0604080781 -0.0158311594 -0.00676669972
  endloop
 endfacet

 facet normal 0 0 0
  outer loop
  vertex 0.0207492206 -0.0266627017 0.02501438
  vertex 0.0296830796 -0.0267476905 0.0272503607
  vertex 0.0207492206 -0.0249309316 0.0301626977
  endloop
 endfacet

 facet normal 0 0 0
  outer loop
  vertex 0.0207492206 -0.0266627017 0.02501438
  vertex -0.0169382598 -0.0283154715 -0.0542904511
  vertex 0.00399274006 -0.0338215008 -0.0587583594
  endloop
 endfacet

 facet normal 0 0 0
  outer loop
  vertex 0.0111813499 0.0154923107 0.0300794505
  vertex 0.0196284801 0.0186998509 0.0299364608
  vertex 0.0123545602 0.0176981613 0.0267403591
  endloop
 endfacet

 facet normal 0 0 0
  outer loop
  vertex 0.0111813499 0.0154923107 0.0300794505
  vertex 0.0123545602 0.0176981613 0.0267403591
  vertex 0.00457616011 0.0120769711 0.0276907776
  endloop
 endfacet

 facet normal 0 0 0
  outer loop
  vertex 0.0111813499 0.0154923107 0.0300794505
  vertex 0.00457616011 0.0120769711 0.0276907776
  vertex 0.00558512006 0.00995637011 0.0312148985
  endloop
 endfacet

 facet normal 0 0 0
  outer loop
  vertex 0.0111813499 0.0154923107 0.0300794505
  vertex 0.00558512006 0.00995637011 0.0312148985
  vertex 0.0196284801 0.0186998509 0.0299364608
  endloop
 endfacet

 facet normal 0 0 0
  outer loop
  vertex 0.0103475703 -0.0303511415 -0.0749749541
  vertex -0.0156214498 -0.0281384308 -0.0672133714
  vertex -0.0127614504 -0.0263009127 -0.0720146596
  endloop
 endfacet

 facet normal 0 0 0
  outer loop
  vertex 0.0103475703 -0.0303511415 -0.0749749541
  vertex -0.0127614504 -0.0263009127 -0.0720146596
  vertex 0.00651809014 -0.0282614212 -0.077340208
  endloop
 endfacet

 facet normal 0 0 0
  outer loop
  vertex 0.00651809014 -0.0282614212 -0.077340208
  vertex 0.0075879395 -0.0249972213 -0.0795380026
  vertex 0.0317162499 -0.0250742417 -0.0784588307
  endloop
 endfacet

 facet normal 0 0 0
  outer loop
  vertex -0.0155723998 -0.0124065513 -0.0727423206
  vertex -0.0122181298 -0.0102180112 -0.0749615878
  vertex -0.0127614504 -0.0152605101 -0.0755782798
  endloop
 endfacet

 facet normal 0 0 0
  outer loop
  vertex -0.0155723998 -0.0124065513 -0.0727423206
  vertex -0.0127614504 -0.0152605101 -0.0755782798
  vertex -0.0155610796 -0.0225403998 -0.0727273896
  endloop
 endfacet

 facet normal 0 0 0
  outer loop
  vertex -0.0155723998 -0.0124065513 -0.0727423206
  vertex -0.0155610796 -0.0225403998 -0.0727273896
  vertex -0.0189153608 -0.0236606225 -0.0682653934
  endloop
 endfacet

 facet normal 0 0 0
  outer loop
  vertex -0.0155723998 -0.0124065513 -0.0727423206
  vertex -0.0189153608 -0.0236606225 -0.0682653934
  vertex -0.0189455394 -0.0178580694 -0.0683230087
  endloop
 endfacet

 facet normal 0 0 0
  outer loop
  vertex -0.0155723998 -0.0124065513 -0.0727423206
  vertex -0.0189455394 -0.0178580694 -0.0683230087
  vertex -0.0166307501 -0.00924125127 -0.0680776089
  endloop
 endfacet

 facet normal 0 0 0
  outer loop
  vertex -0.00906831957 -0.00632644026 0.0137877204
  vertex -0.0122750998 -0.00780767063 0.00356859015
  vertex -0.0113169691 -0.0119582899 0.00495638
  endloop
 endfacet

 facet normal 0 0 0
  outer loop
  vertex -0.00906831957 -0.00632644026 0.0137877204
  vertex -0.0113169691 -0.0119582899 0.00495638
  vertex -0.00323743979 -0.0123845404 0.0232835207
  endloop
 endfacet

 facet normal 0 0 0
  outer loop
  vertex -0.00906831957 -0.00632644026 0.0137877204
  vertex -0.00323743979 -0.0123845404 0.0232835207
  vertex -0.00218937011 -0.00520753069 0.0278590005
  endloop
 endfacet

 facet normal 0 0 0
  outer loop
  vertex -0.00906831957 -0.00632644026 0.0137877204
  vertex -0.00218937011 -0.00520753069 0.0278590005
  vertex -0.00330784009 0.00109566003 0.0245367307
  endloop
 endfacet

 facet normal 0 0 0
  outer loop
  vertex -0.0133557199 -0.00684210006 -0.0716518983
  vertex -0.010529669 -0.00380194001 -0.0700984225
  vertex -0.0122181298 -0.0102180112 -0.0749615878
  endloop
 endfacet

 facet normal 0 0 0
  outer loop
  vertex -0.0133557199 -0.00684210006 -0.0716518983
  vertex -0.0122181298 -0.0102180112 -0.0749615878
  vertex -0.0155723998 -0.0124065513 -0.0727423206
  endloop
 endfacet

 facet normal 0 0 0
  outer loop
  vertex -0.0133557199 -0.00684210006 -0.0716518983
  vertex -0.0155723998 -0.0124065513 -0.0727423206
  vertex -0.0166307501 -0.00924125127 -0.0680776089
  endloop
 endfacet

 facet normal 0 0 0
  outer loop
  vertex 0.00767343957 -0.01712659 0.0312317293
  vertex 0.00287109008 -0.00520753069 0.0317111388
  vertex 0.00337557006 -0.0114467908 0.0311980899
  endloop
 endfacet

 facet normal 0 0 0
  outer loop
  vertex 0.00767343957 -0.01712659 0.0312317293
  vertex 0.00337557006 -0.0114467908 0.0311980899
  vertex -0.00323743979 -0.0123845404 0.0232835207
  endloop
 endfacet

 facet normal 0 0 0
  outer loop
  vertex 0.00767343957 -0.01712659 0.0312317293
  vertex -0.00323743979 -0.0123845404 0.0232835207
  vertex 0.0104187597 -0.0211759824 0.029482279
  endloop
 endfacet

 facet normal 0 0 0
  outer loop
  vertex 0.0538024791 -0.0259097926 -0.0694422349
  vertex 0.0336244218 -0.0292329919 -0.0738516375
  vertex 0.051575169 -0.0226033702 -0.0738884285
  endloop
 endfacet

 facet normal 0 0 0
  outer loop
  vertex -0.0200227592 -0.0169362593 -0.0637927279
  vertex -0.0189233106 -0.00682729064 -0.0346248709
  vertex -0.0165573303 -0.00142988015 -0.0375265889
  endloop
 endfacet

 facet normal 0 0 0
  outer loop
  vertex -0.0200227592 -0.0169362593 -0.0637927279
  vertex -0.0165573303 -0.00142988015 -0.0375265889
  vertex -0.0166307501 -0.00924125127 -0.0680776089
  endloop
 endfacet

 facet normal 0 0 0
  outer loop
  vertex -0.0200227592 -0.0169362593 -0.0637927279
  vertex -0.0166307501 -0.00924125127 -0.0680776089
  vertex -0.0189455394 -0.0178580694 -0.0683230087
  endloop
 endfacet

 facet normal 0 0 0
  outer loop
  vertex -0.0200227592 -0.0169362593 -0.0637927279
  vertex -0.0189455394 -0.0178580694 -0.0683230087
  vertex -0.0205566492 -0.0230776127 -0.0632272437
  endloop
 endfacet

 facet normal 0 0 0
  outer loop
  vertex -0.0200227592 -0.0169362593 -0.0637927279
  vertex -0.0205566492 -0.0230776127 -0.0632272437
  vertex -0.0189233106 -0.00682729064 -0.0346248709
  endloop
 endfacet

 facet normal 0 0 0
  outer loop
  vertex 0.00846081972 -0.00791091006 -0.077259101
  vertex 0.00769989984 -0.0112563306 -0.0794804394
  vertex -0.0122181298 -0.0102180112 -0.0749615878
  endloop
 endfacet

 facet normal 0 0 0
  outer loop
  vertex 0.00846081972 -0.00791091006 -0.077259101
  vertex -0.0122181298 -0.0102180112 -0.0749615878
  vertex -0.010529669 -0.00380194001 -0.0700984225
  endloop
 endfacet

 facet normal 0 0 0
  outer loop
  vertex 0.00846081972 -0.00791091006 -0.077259101
  vertex 0.0296846572 -0.0076592504 -0.0774732232
  vertex 0.00769989984 -0.0112563306 -0.0794804394
  endloop
 endfacet

 facet normal 0 0 0
  outer loop
  vertex 0.0150842387 -0.0238986611 0.0295579787
  vertex 0.0104187597 -0.0211759824 0.029482279
  vertex -0.0100068897 -0.0203181524 -0.00895509031
  endloop
 endfacet

 facet normal 0 0 0
  outer loop
  vertex 0.0150842387 -0.0238986611 0.0295579787
  vertex -0.0100068897 -0.0203181524 -0.00895509031
  vertex -0.0169382598 -0.0283154715 -0.0542904511
  endloop
 endfacet

 facet normal 0 0 0
  outer loop
  vertex 0.0150842387 -0.0238986611 0.0295579787
  vertex -0.0169382598 -0.0283154715 -0.0542904511
  vertex 0.0207492206 -0.0266627017 0.02501438
  endloop
 endfacet

 facet normal 0 0 0
  outer loop
  vertex 0.0150842387 -0.0238986611 0.0295579787
  vertex 0.0207492206 -0.0266627017 0.02501438
  vertex 0.0207492206 -0.0249309316 0.0301626977
  endloop
 endfacet

 facet normal 0 0 0
  outer loop
  vertex 0.0150842387 -0.0238986611 0.0295579787
  vertex 0.0207492206 -0.0249309316 0.0301626977
  vertex 0.00767343957 -0.01712659 0.0312317293
  endloop
 endfacet

 facet normal 0 0 0
  outer loop
  vertex 0.0150842387 -0.0238986611 0.0295579787
  vertex 0.00767343957 -0.01712659 0.0312317293
  vertex 0.0104187597 -0.0211759824 0.029482279
  endloop
 endfacet

 facet normal 0 0 0
  outer loop
  vertex 0.0486724749 -0.0299089812 -0.0587585196
  vertex 0.0570248663 -0.0258531123 -0.0659412071
  vertex 0.0566268414 -0.0279093813 -0.0542900674
  endloop
 endfacet

 facet normal 0 0 0
  outer loop
  vertex 0.0486724749 -0.0299089812 -0.0587585196
  vertex 0.0566268414 -0.0279093813 -0.0542900674
  vertex 0.0296830796 -0.0267476905 0.0272503607
  endloop
 endfacet

 facet normal 0 0 0
  outer loop
  vertex 0.0486724749 -0.0299089812 -0.0587585196
  vertex 0.0296830796 -0.0267476905 0.0272503607
  vertex 0.0319165811 -0.0330214314 -0.0587583482
  endloop
 endfacet

 facet normal 0 0 0
  outer loop
  vertex 0.0319165811 -0.0330214314 -0.0587583482
  vertex 0.0336244218 -0.0292329919 -0.0738516375
  vertex 0.0538024791 -0.0259097926 -0.0694422349
  endloop
 endfacet

 facet normal 0 0 0
  outer loop
  vertex 0.0319165811 -0.0330214314 -0.0587583482
  vertex 0.0538024791 -0.0259097926 -0.0694422349
  vertex 0.0486724749 -0.0299089812 -0.0587585196
  endloop
 endfacet

 facet normal 0 0 0
  outer loop
  vertex 0.0486724749 -0.0299089812 -0.0587585196
  vertex 0.0538024791 -0.0259097926 -0.0694422349
  vertex 0.0570248663 -0.0258531123 -0.0659412071
  endloop
 endfacet

 facet normal 0 0 0
  outer loop
  vertex 0.0548991896 -0.0107947411 -0.0728096664
  vertex 0.0546789989 -0.0071419403 -0.0713845119
  vertex 0.0593432188 -0.015622111 -0.0672302768
  endloop
 endfacet

 facet normal 0 0 0
  outer loop
  vertex 0.0548991896 -0.0107947411 -0.0728096664
  vertex 0.0593432188 -0.015622111 -0.0672302768
  vertex 0.0571074411 -0.0215705093 -0.0705432668
  endloop
 endfacet

 facet normal 0 0 0
  outer loop
  vertex 0.0464340597 0.0148998303 0.0116064902
  vertex 0.0319887288 0.018958332 0.0149087301
  vertex 0.0281841997 0.0199517105 0.0278630592
  endloop
 endfacet

 facet normal 0 0 0
  outer loop
  vertex 0.0464340597 0.0148998303 0.0116064902
  vertex 0.0281841997 0.0199517105 0.0278630592
  vertex 0.032642629 0.0188733395 0.0289850291
  endloop
 endfacet

 facet normal 0 0 0
  outer loop
  vertex 0.0464340597 0.0148998303 0.0116064902
  vertex 0.032642629 0.0188733395 0.0289850291
  vertex 0.039292071 0.0166209694 0.0278630592
  endloop
 endfacet

 facet normal 0 0 0
  outer loop
  vertex 0.0464340597 0.0148998303 0.0116064902
  vertex 0.039292071 0.0166209694 0.0278630592
  vertex 0.0525782108 0.0121056195 0.0121714501
  endloop
 endfacet

 facet normal 0 0 0
  outer loop
  vertex 0.0515053011 -0.00349859032 -0.0716418326
  vertex 0.0505970158 -7.25100035e-05 -0.066329658
  vertex 0.0547234565 -0.00364659028 -0.0668542013
  endloop
 endfacet

 facet normal 0 0 0
  outer loop
  vertex 0.0515053011 -0.00349859032 -0.0716418326
  vertex 0.0547234565 -0.00364659028 -0.0668542013
  vertex 0.0546789989 -0.0071419403 -0.0713845119
  endloop
 endfacet

 facet normal 0 0 0
  outer loop
  vertex 0.0459712297 0.0111122411 0.0278551094
  vertex 0.052858457 0.00149187003 0.0269559398
  vertex 0.0502301008 0.00749464054 0.0264705494
  endloop
 endfacet

 facet normal 0 0 0
  outer loop
  vertex 0.0459712297 0.0111122411 0.0278551094
  vertex 0.0502301008 0.00749464054 0.0264705494
  vertex 0.0525782108 0.0121056195 0.0121714501
  endloop
 endfacet

 facet normal 0 0 0
  outer loop
  vertex 0.0459712297 0.0111122411 0.0278551094
  vertex 0.0525782108 0.0121056195 0.0121714501
  vertex 0.039292071 0.0166209694 0.0278630592
  endloop
 endfacet

 facet normal 0 0 0
  outer loop
  vertex 0.0459712297 0.0111122411 0.0278551094
  vertex 0.039292071 0.0166209694 0.0278630592
  vertex 0.032642629 0.0188733395 0.0289850291
  endloop
 endfacet

 facet normal 0 0 0
  outer loop
  vertex -0.0168005396 -0.0260109417 -0.0695094541
  vertex -0.0156214498 -0.0281384308 -0.0672133714
  vertex -0.0189191308 -0.0270029493 -0.063824743
  endloop
 endfacet

 facet normal 0 0 0
  outer loop
  vertex -0.0168005396 -0.0260109417 -0.0695094541
  vertex -0.0189191308 -0.0270029493 -0.063824743
  vertex -0.0189153608 -0.0236606225 -0.0682653934
  endloop
 endfacet

 facet normal 0 0 0
  outer loop
  vertex -0.0168005396 -0.0260109417 -0.0695094541
  vertex -0.0189153608 -0.0236606225 -0.0682653934
  vertex -0.0155610796 -0.0225403998 -0.0727273896
  endloop
 endfacet

 facet normal 0 0 0
  outer loop
  vertex -0.0168005396 -0.0260109417 -0.0695094541
  vertex -0.0127614504 -0.0263009127 -0.0720146596
  vertex -0.0156214498 -0.0281384308 -0.0672133714
  endloop
 endfacet

 facet normal 0 0 0
  outer loop
  vertex -0.00309274998 -0.01568266 0.0183127299
  vertex -0.00323743979 -0.0123845404 0.0232835207
  vertex -0.0113169691 -0.0119582899 0.00495638
  endloop
 endfacet

 facet normal 0 0 0
  outer loop
  vertex -0.00309274998 -0.01568266 0.0183127299
  vertex -0.0113169691 -0.0119582899 0.00495638
  vertex -0.0100068897 -0.0203181524 -0.00895509031
  endloop
 endfacet

 facet normal 0 0 0
  outer loop
  vertex -0.00309274998 -0.01568266 0.0183127299
  vertex -0.0100068897 -0.0203181524 -0.00895509031
  vertex 0.0104187597 -0.0211759824 0.029482279
  endloop
 endfacet

 facet normal 0 0 0
  outer loop
  vertex -0.00309274998 -0.01568266 0.0183127299
  vertex 0.0104187597 -0.0211759824 0.029482279
  vertex -0.00323743979 -0.0123845404 0.0232835207
  endloop
 endfacet

 facet normal 0 0 0
  outer loop
  vertex 0.0486724749 -0.00121242995 -0.0694942027
  vertex 0.04979036 -0.00435196003 -0.0729878098
  vertex 0.0296846572 -0.0076592504 -0.0774732232
  endloop
 endfacet

 facet normal 0 0 0
  outer loop
  vertex 0.0486724749 -0.00121242995 -0.0694942027
  vertex 0.0296846572 -0.0076592504 -0.0774732232
  vertex 0.00846081972 -0.00791091006 -0.077259101
  endloop
 endfacet

 facet normal 0 0 0
  outer loop
  vertex 0.0486724749 -0.00121242995 -0.0694942027
  vertex 0.00846081972 -0.00791091006 -0.077259101
  vertex -0.010529669 -0.00380194001 -0.0700984225
  endloop
 endfacet

 facet normal 0 0 0
  outer loop
  vertex 0.0486724749 -0.00121242995 -0.0694942027
  vertex 0.0505970158 -7.25100035e-05 -0.066329658
  vertex 0.0515053011 -0.00349859032 -0.0716418326
  endloop
 endfacet

 facet normal 0 0 0
  outer loop
  vertex 0.0486724749 -0.00121242995 -0.0694942027
  vertex 0.0515053011 -0.00349859032 -0.0716418326
  vertex 0.04979036 -0.00435196003 -0.0729878098
  endloop
 endfacet

 facet normal 0 0 0
  outer loop
  vertex 0.0195776392 0.0200958196 0.0261852406
  vertex 0.0229826905 0.0205573011 0.0227784105
  vertex -0.00111001998 0.0098871002 -0.0169453602
  endloop
 endfacet

 facet normal 0 0 0
  outer loop
  vertex 0.0195776392 0.0200958196 0.0261852406
  vertex -0.00111001998 0.0098871002 -0.0169453602
  vertex 0.0123545602 0.0176981613 0.0267403591
  endloop
 endfacet

 facet normal 0 0 0
  outer loop
  vertex 0.0195776392 0.0200958196 0.0261852406
  vertex 0.0123545602 0.0176981613 0.0267403591
  vertex 0.0196284801 0.0186998509 0.0299364608
  endloop
 endfacet

 facet normal 0 0 0
  outer loop
  vertex 0.0195776392 0.0200958196 0.0261852406
  vertex 0.0196284801 0.0186998509 0.0299364608
  vertex 0.0281841997 0.0199517105 0.0278630592
  endloop
 endfacet

 facet normal 0 0 0
  outer loop
  vertex 0.0195776392 0.0200958196 0.0261852406
  vertex 0.0281841997 0.0199517105 0.0278630592
  vertex 0.0229826905 0.0205573011 0.0227784105
  endloop
 endfacet

 facet normal 0 0 0
  outer loop
  vertex -0.00941284001 -0.00167750008 -0.065459311
  vertex -0.0119879702 -0.00257794 -0.065459311
  vertex -0.00111001998 0.0098871002 -0.0169453602
  endloop
 endfacet

 facet normal 0 0 0
  outer loop
  vertex -0.00941284001 -0.00167750008 -0.065459311
  vertex -0.00111001998 0.0098871002 -0.0169453602
  vertex 0.0229826905 0.0205573011 0.0227784105
  endloop
 endfacet

 facet normal 0 0 0
  outer loop
  vertex -0.00941284001 -0.00167750008 -0.065459311
  vertex 0.0229826905 0.0205573011 0.0227784105
  vertex 0.0319887288 0.018958332 0.0149087301
  endloop
 endfacet

 facet normal 0 0 0
  outer loop
  vertex -0.00941284001 -0.00167750008 -0.065459311
  vertex 0.0319887288 0.018958332 0.0149087301
  vertex 0.0505970158 -7.25100035e-05 -0.066329658
  endloop
 endfacet

 facet normal 0 0 0
  outer loop
  vertex -0.00941284001 -0.00167750008 -0.065459311
  vertex 0.0505970158 -7.25100035e-05 -0.066329658
  vertex 0.0486724749 -0.00121242995 -0.0694942027
  endloop
 endfacet

 facet normal 0 0 0
  outer loop
  vertex -0.00941284001 -0.00167750008 -0.065459311
  vertex 0.0486724749 -0.00121242995 -0.0694942027
  vertex -0.010529669 -0.00380194001 -0.0700984225
  endloop
 endfacet

 facet normal 0 0 0
  outer loop
  vertex -0.00941284001 -0.00167750008 -0.065459311
  vertex -0.010529669 -0.00380194001 -0.0700984225
  vertex -0.0119879702 -0.00257794 -0.065459311
  endloop
 endfacet

 facet normal 0 0 0
  outer loop
  vertex -0.0143595096 0.000882540073 -0.0375265889
  vertex -0.0165573303 -0.00142988015 -0.0375265889
  vertex -0.00892361999 0.00657832064 -0.0163061395
  endloop
 endfacet

 facet normal 0 0 0
  outer loop
  vertex -0.0143595096 0.000882540073 -0.0375265889
  vertex -0.00892361999 0.00657832064 -0.0163061395
  vertex -0.00111001998 0.0098871002 -0.0169453602
  endloop
 endfacet

 facet normal 0 0 0
  outer loop
  vertex -0.0143595096 0.000882540073 -0.0375265889
  vertex -0.00111001998 0.0098871002 -0.0169453602
  vertex -0.0119879702 -0.00257794 -0.065459311
  endloop
 endfacet

 facet normal 0 0 0
  outer loop
  vertex 0.0630873814 -0.0119054504 -0.0308292992
  vertex 0.0625141636 -0.00195042009 -0.0252353773
  vertex 0.0624801852 0.000376320037 0.00267055002
  endloop
 endfacet

 facet normal 0 0 0
  outer loop
  vertex 0.0630873814 -0.0119054504 -0.0308292992
  vertex 0.0624801852 0.000376320037 0.00267055002
  vertex 0.062981233 -0.00632766029 -0.0040294202
  endloop
 endfacet

 facet normal 0 0 0
  outer loop
  vertex 0.062981233 -0.00632766029 -0.0040294202
  vertex 0.0624801852 0.000376320037 0.00267055002
  vertex 0.0614738464 -0.00769820018 0.00854296982
  endloop
 endfacet

 facet normal 0 0 0
  outer loop
  vertex 0.0567729175 -0.0244927518 -0.0690933689
  vertex 0.0570248663 -0.0258531123 -0.0659412071
  vertex 0.0538024791 -0.0259097926 -0.0694422349
  endloop
 endfacet

 facet normal 0 0 0
  outer loop
  vertex 0.0567729175 -0.0244927518 -0.0690933689
  vertex 0.0538024791 -0.0259097926 -0.0694422349
  vertex 0.051575169 -0.0226033702 -0.0738884285
  endloop
 endfacet

 facet normal 0 0 0
  outer loop
  vertex 0.0567729175 -0.0244927518 -0.0690933689
  vertex 0.051575169 -0.0226033702 -0.0738884285
  vertex 0.0536500402 -0.020077901 -0.0738067776
  endloop
 endfacet

 facet normal 0 0 0
  outer loop
  vertex 0.0567729175 -0.0244927518 -0.0690933689
  vertex 0.0536500402 -0.020077901 -0.0738067776
  vertex 0.0571074411 -0.0215705093 -0.0705432668
  endloop
 endfacet

 facet normal 0 0 0
  outer loop
  vertex 0.0567729175 -0.0244927518 -0.0690933689
  vertex 0.0571074411 -0.0215705093 -0.0705432668
  vertex 0.0599360317 -0.0219609812 -0.0654587299
  endloop
 endfacet

 facet normal 0 0 0
  outer loop
  vertex 0.0567729175 -0.0244927518 -0.0690933689
  vertex 0.0599360317 -0.0219609812 -0.0654587299
  vertex 0.0570248663 -0.0258531123 -0.0659412071
  endloop
 endfacet

 facet normal 0 0 0
  outer loop
  vertex -0.0144348191 -0.00465355022 -0.06599278
  vertex -0.0166307501 -0.00924125127 -0.0680776089
  vertex -0.0165573303 -0.00142988015 -0.0375265889
  endloop
 endfacet

 facet normal 0 0 0
  outer loop
  vertex -0.0144348191 -0.00465355022 -0.06599278
  vertex -0.0165573303 -0.00142988015 -0.0375265889
  vertex -0.0143595096 0.000882540073 -0.0375265889
  endloop
 endfacet

 facet normal 0 0 0
  outer loop
  vertex -0.0144348191 -0.00465355022 -0.06599278
  vertex -0.0143595096 0.000882540073 -0.0375265889
  vertex -0.0119879702 -0.00257794 -0.065459311
  endloop
 endfacet

 facet normal 0 0 0
  outer loop
  vertex -0.0144348191 -0.00465355022 -0.06599278
  vertex -0.0119879702 -0.00257794 -0.065459311
  vertex -0.010529669 -0.00380194001 -0.0700984225
  endloop
 endfacet

 facet normal 0 0 0
  outer loop
  vertex -0.0144348191 -0.00465355022 -0.06599278
  vertex -0.010529669 -0.00380194001 -0.0700984225
  vertex -0.0133557199 -0.00684210006 -0.0716518983
  endloop
 endfacet

 facet normal 0 0 0
  outer loop
  vertex -0.0144348191 -0.00465355022 -0.06599278
  vertex -0.0133557199 -0.00684210006 -0.0716518983
  vertex -0.0166307501 -0.00924125127 -0.0680776089
  endloop
 endfacet

 facet normal 0 0 0
  outer loop
  vertex 0.0307996105 -0.0107922405 -0.0791843012
  vertex 0.0509188361 -0.0118465004 -0.0759742036
  vertex 0.0307996105 -0.01637985 -0.0803346485
  endloop
 endfacet

 facet normal 0 0 0
  outer loop
  vertex 0.0307996105 -0.0107922405 -0.0791843012
  vertex 0.0307996105 -0.01637985 -0.0803346485
  vertex 0.00957627967 -0.0174942426 -0.080940403
  endloop
 endfacet

 facet normal 0 0 0
  outer loop
  vertex 0.0307996105 -0.0107922405 -0.0791843012
  vertex 0.00957627967 -0.0174942426 -0.080940403
  vertex 0.00769989984 -0.0112563306 -0.0794804394
  endloop
 endfacet

 facet normal 0 0 0
  outer loop
  vertex 0.0307996105 -0.0107922405 -0.0791843012
  vertex 0.00769989984 -0.0112563306 -0.0794804394
  vertex 0.0296846572 -0.0076592504 -0.0774732232
  endloop
 endfacet

 facet normal 0 0 0
  outer loop
  vertex 0.0296846572 -0.0076592504 -0.0774732232
  vertex 0.04979036 -0.00435196003 -0.0729878098
  vertex 0.0516323373 -0.00666330056 -0.0739750192
  endloop
 endfacet

 facet normal 0 0 0
  outer loop
  vertex 0.0296846572 -0.0076592504 -0.0774732232
  vertex 0.0516323373 -0.00666330056 -0.0739750192
  vertex 0.0307996105 -0.0107922405 -0.0791843012
  endloop
 endfacet

 facet normal 0 0 0
  outer loop
  vertex 0.0460094512 -0.0192893893 0.0269400291
  vertex 0.0404045582 -0.0225829426 0.0278710201
  vertex 0.0462599657 -0.0205218103 0.0227784105
  endloop
 endfacet

 facet normal 0 0 0
  outer loop
  vertex 0.0460094512 -0.0192893893 0.0269400291
  vertex 0.0462599657 -0.0205218103 0.0227784105
  vertex 0.058429379 -0.0138869006 0.0082565099
  endloop
 endfacet

 facet normal 0 0 0
  outer loop
  vertex 0.0460094512 -0.0192893893 0.0269400291
  vertex 0.058429379 -0.0138869006 0.0082565099
  vertex 0.0514614768 -0.0135787912 0.0266853999
  endloop
 endfacet

 facet normal 0 0 0
  outer loop
  vertex 0.0581746101 0.00875894073 -0.00133988995
  vertex 0.0525782108 0.0121056195 0.0121714501
  vertex 0.0603656061 0.00645877048 0.000442529999
  endloop
 endfacet

 facet normal 0 0 0
  outer loop
  vertex 0.0581746101 0.00875894073 -0.00133988995
  vertex 0.0603656061 0.00645877048 0.000442529999
  vertex 0.0600513965 0.00615597051 -0.00849341974
  endloop
 endfacet

 facet normal 0 0 0
  outer loop
  vertex 0.0581746101 0.00875894073 -0.00133988995
  vertex 0.0600513965 0.00615597051 -0.00849341974
  vertex 0.0505970158 -7.25100035e-05 -0.066329658
  endloop
 endfacet

 facet normal 0 0 0
  outer loop
  vertex 0.0581746101 0.00875894073 -0.00133988995
  vertex 0.0505970158 -7.25100035e-05 -0.066329658
  vertex 0.0549645387 0.00993292965 -0.00492062932
  endloop
 endfacet

 facet normal 0 0 0
  outer loop
  vertex 0.0581746101 0.00875894073 -0.00133988995
  vertex 0.0549645387 0.00993292965 -0.00492062932
  vertex 0.0464340597 0.0148998303 0.0116064902
  endloop
 endfacet

 facet normal 0 0 0
  outer loop
  vertex 0.0581746101 0.00875894073 -0.00133988995
  vertex 0.0464340597 0.0148998303 0.0116064902
  vertex 0.0525782108 0.0121056195 0.0121714501
  endloop
 endfacet

 facet normal 0 0 0
  outer loop
  vertex 0.0481622405 -0.0148005914 0.0278232805
  vertex 0.052858457 0.00149187003 0.0269559398
  vertex 0.0459712297 0.0111122411 0.0278551094
  endloop
 endfacet

 facet normal 0 0 0
  outer loop
  vertex 0.0481622405 -0.0148005914 0.0278232805
  vertex 0.0308040604 -0.026046481 0.0290964302
  vertex 0.0404045582 -0.0225829426 0.0278710201
  endloop
 endfacet

 facet normal 0 0 0
  outer loop
  vertex 0.0481622405 -0.0148005914 0.0278232805
  vertex 0.0404045582 -0.0225829426 0.0278710201
  vertex 0.0460094512 -0.0192893893 0.0269400291
  endloop
 endfacet

 facet normal 0 0 0
  outer loop
  vertex 0.0481622405 -0.0148005914 0.0278232805
  vertex 0.0460094512 -0.0192893893 0.0269400291
  vertex 0.0514614768 -0.0135787912 0.0266853999
  endloop
 endfacet

 facet normal 0 0 0
  outer loop
  vertex 0.0481622405 -0.0148005914 0.0278232805
  vertex 0.0514614768 -0.0135787912 0.0266853999
  vertex 0.052858457 0.00149187003 0.0269559398
  endloop
 endfacet

 facet normal 0 0 0
  outer loop
  vertex 0.0516323373 -0.00666330056 -0.0739750192
  vertex 0.0509188361 -0.0118465004 -0.0759742036
  vertex 0.0307996105 -0.0107922405 -0.0791843012
  endloop
 endfacet

 facet normal 0 0 0
  outer loop
  vertex 0.0516323373 -0.00666330056 -0.0739750192
  vertex 0.04979036 -0.00435196003 -0.0729878098
  vertex 0.0515053011 -0.00349859032 -0.0716418326
  endloop
 endfacet

 facet normal 0 0 0
  outer loop
  vertex 0.0516323373 -0.00666330056 -0.0739750192
  vertex 0.0515053011 -0.00349859032 -0.0716418326
  vertex 0.0546789989 -0.0071419403 -0.0713845119
  endloop
 endfacet

 facet normal 0 0 0
  outer loop
  vertex 0.0516323373 -0.00666330056 -0.0739750192
  vertex 0.0546789989 -0.0071419403 -0.0713845119
  vertex 0.0548991896 -0.0107947411 -0.0728096664
  endloop
 endfacet

 facet normal 0 0 0
  outer loop
  vertex 0.0516323373 -0.00666330056 -0.0739750192
  vertex 0.0548991896 -0.0107947411 -0.0728096664
  vertex 0.0509188361 -0.0118465004 -0.0759742036
  endloop
 endfacet

 facet normal 0 0 0
  outer loop
  vertex 0.0536500402 -0.020077901 -0.0738067776
  vertex 0.0509188361 -0.0118465004 -0.0759742036
  vertex 0.0548991896 -0.0107947411 -0.0728096664
  endloop
 endfacet

 facet normal 0 0 0
  outer loop
  vertex 0.0536500402 -0.020077901 -0.0738067776
  vertex 0.0548991896 -0.0107947411 -0.0728096664
  vertex 0.0571074411 -0.0215705093 -0.0705432668
  endloop
 endfacet

 facet normal 0 0 0
  outer loop
  vertex -0.0132934591 -0.0236178804 -0.0738284811
  vertex 0.0075879395 -0.0249972213 -0.0795380026
  vertex 0.00651809014 -0.0282614212 -0.077340208
  endloop
 endfacet

 facet normal 0 0 0
  outer loop
  vertex -0.0132934591 -0.0236178804 -0.0738284811
  vertex 0.00651809014 -0.0282614212 -0.077340208
  vertex -0.0127614504 -0.0263009127 -0.0720146596
  endloop
 endfacet

 facet normal 0 0 0
  outer loop
  vertex -0.0132934591 -0.0236178804 -0.0738284811
  vertex -0.0127614504 -0.0263009127 -0.0720146596
  vertex -0.0168005396 -0.0260109417 -0.0695094541
  endloop
 endfacet

 facet normal 0 0 0
  outer loop
  vertex -0.0132934591 -0.0236178804 -0.0738284811
  vertex -0.0168005396 -0.0260109417 -0.0695094541
  vertex -0.0155610796 -0.0225403998 -0.0727273896
  endloop
 endfacet

 facet normal 0 0 0
  outer loop
  vertex -0.0132934591 -0.0236178804 -0.0738284811
  vertex -0.0155610796 -0.0225403998 -0.0727273896
  vertex -0.0127614504 -0.0152605101 -0.0755782798
  endloop
 endfacet

 facet normal 0 0 0
  outer loop
  vertex -0.0132934591 -0.0236178804 -0.0738284811
  vertex -0.0127614504 -0.0152605101 -0.0755782798
  vertex 0.0075879395 -0.0249972213 -0.0795380026
  endloop
 endfacet

endsolid AssimpScene
