# https://github.com/mikedh/trimesh

o geometry_0
v -0.01259207 0.03531667 -0.00433559
v -0.01004558 0.03587462 0.02712369
v -0.00000027 0.03749708 -0.00433559
v -0.01005261 -0.03588059 0.02712369
v -0.00666197 -0.03690106 -0.00433559
v -0.00000027 -0.03750305 0.01148550
v 0.03436339 -0.02790045 0.03843318
v 0.03436339 -0.01793812 0.04414584
v 0.00211712 -0.01803356 0.05459569
v 0.01316837 -0.03113803 0.04218879
v -0.00016207 -0.00369573 0.05735143
v -0.01455471 0.00401278 0.05735752
v -0.01653141 -0.00395268 0.05694294
v -0.01173386 -0.01086832 0.05680882
v 0.00295423 0.03690976 0.03017207
v 0.01337237 -0.00585411 0.05449204
v 0.00916572 0.00947481 0.05526024
v 0.03436339 0.01208102 0.04578587
v 0.03436339 -0.00282944 0.04695645
v 0.01069221 -0.01290924 0.05419331
v 0.00399534 -0.03722408 -0.00433559
v 0.01531390 -0.03417738 -0.00433559
v 0.03436339 -0.03211444 0.02243528
v 0.03436339 -0.03295136 0.02928804
v -0.00204028 -0.03187217 0.04408488
v -0.01384422 -0.02828221 0.04656626
v -0.01132586 -0.03318629 0.03961595
v -0.00837839 -0.02745997 0.04830993
v -0.03129688 -0.02050762 0.03051959
v -0.03170488 -0.02000841 -0.00433559
v -0.02570443 -0.02729846 -0.00433559
v -0.02414277 -0.02801058 0.03425080
v -0.03238723 -0.00934864 0.04787706
v -0.03340724 -0.01368009 0.04198149
v -0.02697768 -0.01832722 0.04820019
v -0.02599284 -0.00926788 0.05313247
v -0.01897942 0.03232871 -0.00433559
v -0.01942964 0.03201302 0.02528857
v -0.02876445 0.02393744 0.02942217
v -0.02720279 0.02495056 0.03571402
v -0.02722389 0.02577280 -0.00433559
v 0.03436339 0.03303348 0.02639208
v 0.00941193 0.03613891 -0.00433559
v 0.00752667 0.01680891 0.05391285
v 0.03436339 0.02445134 0.04098163
v 0.01055855 0.02940681 0.04452384
v -0.00390443 0.01738888 0.05535169
v -0.01987281 -0.03179142 -0.00433559
v -0.00837839 0.02745399 0.04830993
v 0.00119560 0.03342992 0.04171933
v -0.01281014 0.03099990 0.04328010
v -0.02147668 0.02569204 0.04536520
v -0.01985874 0.02194791 0.04995606
v -0.00773121 0.03474404 0.03740283
v -0.03179633 -0.00000299 0.05051696
v -0.03457497 -0.00000299 0.04674916
v -0.02840569 -0.00000299 0.05311418
v -0.03687526 0.00675114 -0.00433559
v -0.03643208 0.00845435 0.03272051
v -0.03506035 0.01327767 -0.00433559
v -0.03682602 -0.00703608 -0.00433559
v -0.03718478 -0.00404812 0.03303145
v -0.03646726 0.00428441 0.03995127
v -0.02896845 -0.02183642 0.03990860
v -0.02329862 -0.02569068 0.04338985
v -0.01335180 0.01086968 0.05654665
v 0.03436339 0.02335747 -0.00348205
v 0.03436339 0.01882780 -0.00432949
v 0.01669970 0.03352536 -0.00433559
v 0.03436339 0.02707224 -0.00042757
v -0.02849010 0.00934266 0.05173631
v -0.02445932 0.01384296 0.05235818
v -0.03231689 0.01761646 0.03809176
v -0.03173302 0.01995838 -0.00433559
v -0.03486339 0.00912976 0.04265214
v -0.03024170 0.01815973 0.04376175
v -0.03517994 -0.01271102 0.03219010
v 0.00759702 0.03536072 0.03654318
v 0.03436339 0.03236541 0.03183648
v 0.03436339 0.02978857 0.03643344
v -0.01942964 -0.03201900 0.02528247
v -0.02697065 0.01832858 0.04820019
v -0.02165958 0.02857723 0.03948182
v -0.00737245 -0.01599998 0.05579065
v -0.03573566 -0.00438583 0.04304233
v -0.03238020 0.00934266 0.04787706
v -0.00472747 0.01045856 0.05707707
v -0.01470947 0.03321702 0.03575670
v 0.03436339 -0.03132156 0.03419593
v -0.01826190 -0.03113803 0.03768937
v 0.02295339 -0.02965506 -0.00433559
v 0.03436339 -0.02469959 0.00088933
v 0.01265484 -0.03447838 0.03713457
v 0.00319340 -0.03609350 0.03506777
v -0.01712231 -0.02166023 0.05099250
v -0.02229269 -0.02215211 0.04859648
v 0.03436339 -0.02298903 -0.00213466
v 0.03436339 -0.01969272 -0.00406734
v 0.00639411 -0.03685701 0.02764801
v -0.00412954 -0.03588059 0.03507387
v 0.03436339 0.02873140 0.00347436
v -0.02238413 -0.01810697 0.05129734
f 74 41 37
f 74 37 1
f 74 1 3
f 74 3 43
f 74 43 69
f 74 69 68
f 74 68 98
f 74 98 91
f 74 91 22
f 74 22 21
f 74 21 5
f 74 5 48
f 74 48 31
f 74 31 30
f 74 30 61
f 74 61 58
f 74 58 60
f 1 2 3
f 4 5 6
f 7 8 9
f 7 9 10
f 11 12 13
f 11 13 14
f 15 3 2
f 16 17 11
f 18 17 16
f 18 16 19
f 19 16 20
f 19 20 8
f 21 22 23
f 21 23 24
f 21 6 5
f 25 26 27
f 10 9 28
f 10 28 25
f 29 30 31
f 29 31 32
f 33 34 35
f 33 35 36
f 2 1 37
f 2 37 38
f 39 40 38
f 39 38 37
f 39 37 41
f 42 43 3
f 42 3 15
f 44 17 18
f 44 18 45
f 44 45 46
f 44 46 47
f 48 5 4
f 49 50 51
f 49 51 52
f 49 52 53
f 49 53 47
f 49 47 46
f 49 46 50
f 54 51 50
f 54 15 2
f 55 56 33
f 33 36 57
f 33 57 55
f 58 59 60
f 58 61 62
f 58 62 63
f 58 63 59
f 64 32 65
f 64 65 35
f 64 35 34
f 64 34 29
f 64 29 32
f 66 47 53
f 67 68 69
f 67 69 70
f 57 71 55
f 57 12 66
f 57 66 72
f 57 72 71
f 73 74 60
f 73 60 59
f 73 59 75
f 73 75 76
f 77 62 61
f 77 61 30
f 77 30 29
f 77 29 34
f 78 79 42
f 78 42 15
f 78 15 54
f 78 54 50
f 80 79 78
f 80 78 50
f 80 50 46
f 80 46 45
f 32 31 48
f 32 48 81
f 81 48 4
f 52 76 82
f 52 82 53
f 52 51 83
f 9 11 14
f 9 14 84
f 85 62 77
f 85 77 34
f 85 34 33
f 85 33 56
f 86 71 82
f 86 82 76
f 86 76 75
f 86 75 56
f 86 56 55
f 86 55 71
f 87 47 66
f 87 66 12
f 87 12 11
f 87 11 17
f 17 44 47
f 17 47 87
f 88 83 51
f 88 51 54
f 88 54 2
f 88 2 38
f 88 38 83
f 89 7 10
f 90 27 26
f 90 26 65
f 90 65 32
f 90 32 81
f 90 81 4
f 90 4 27
f 91 92 23
f 91 23 22
f 63 62 85
f 63 85 56
f 63 56 75
f 63 75 59
f 93 24 89
f 93 89 10
f 93 10 25
f 93 25 94
f 20 16 11
f 20 11 9
f 20 9 8
f 28 26 25
f 28 9 84
f 28 84 95
f 28 95 26
f 72 66 53
f 72 53 82
f 72 82 71
f 96 65 26
f 96 26 95
f 96 35 65
f 97 92 91
f 97 91 98
f 40 39 73
f 40 73 76
f 40 76 52
f 40 52 83
f 40 83 38
f 13 36 14
f 13 12 57
f 13 57 36
f 99 24 93
f 99 93 94
f 99 6 21
f 99 21 24
f 100 94 25
f 100 25 27
f 100 27 4
f 100 4 6
f 6 99 94
f 6 94 100
f 74 73 39
f 74 39 41
f 101 69 43
f 101 43 42
f 101 42 79
f 101 79 80
f 101 80 45
f 101 45 18
f 101 18 19
f 101 19 8
f 101 8 7
f 101 7 89
f 101 89 24
f 101 24 23
f 101 23 92
f 101 92 97
f 101 97 98
f 101 98 68
f 101 68 67
f 101 67 70
f 101 70 69
f 102 36 35
f 102 35 96
f 102 96 95
f 102 95 84
f 102 84 14
f 102 14 36