# https://github.com/mikedh/trimesh

o geometry_0
v 0.04218864 -0.00512667 -0.10110109
v 0.04218864 0.00512689 -0.10110109
v 0.04730995 0.02841938 -0.05303049
v 0.04755676 0.02288601 -0.05303049
v 0.04040808 -0.01267897 -0.08299756
v 0.03972936 -0.01507178 -0.10110109
v -0.02344522 -0.02918562 -0.06634814
v -0.01314089 -0.03740155 -0.07310108
v -0.00901564 -0.03425164 -0.06538814
v -0.01733667 -0.02358682 -0.05303049
v 0.00224948 -0.04213108 -0.08314815
v -0.00591288 -0.04121509 -0.08025873
v -0.01168648 -0.04085991 -0.08591991
v -0.01017036 -0.04126182 -0.10110109
v 0.00000174 -0.04249561 -0.10110109
v -0.03753984 0.02038104 -0.05303049
v -0.03132551 0.03263484 -0.05303049
v -0.03497478 0.02412915 -0.10110109
v -0.03973469 0.01506265 -0.10110109
v 0.01017385 -0.03564433 -0.07114343
v 0.01090546 -0.02571791 -0.05712460
v 0.00310450 -0.02648436 -0.05526578
v -0.00113535 -0.03755110 -0.07006578
v -0.02212302 -0.03606494 -0.08310579
v -0.01974307 -0.03763522 -0.10110109
v -0.02970362 -0.02350269 -0.06457402
v -0.03044405 -0.02943798 -0.08308226
v -0.04214109 0.00498668 -0.08232932
v -0.03992861 0.00851047 -0.05303049
v -0.04218516 0.00512689 -0.10110109
v -0.02179688 0.04307534 -0.05303049
v -0.02817868 0.03180296 -0.10109639
v 0.02892260 -0.01076286 -0.05303049
v 0.01831858 -0.01874512 -0.05303049
v 0.02536148 -0.01772631 -0.05760931
v 0.00692124 0.05297371 -0.05303049
v 0.00000174 0.04248648 -0.10109639
v -0.01017036 0.04125269 -0.10109639
v -0.00556911 0.05150625 -0.05303049
v 0.03016546 -0.02993337 -0.08767050
v 0.03496945 -0.02414763 -0.10110109
v 0.03417613 -0.02458694 -0.08287991
v -0.03478967 -0.01905357 -0.06789637
v -0.03429605 -0.01159473 -0.05303049
v -0.03793650 -0.00684650 -0.05558108
v -0.03999031 -0.01373517 -0.08165167
v -0.03699333 -0.02074536 -0.08307285
v 0.04374002 0.01046397 -0.05303049
v -0.02817868 -0.03181210 -0.10110109
v -0.03497478 -0.02413828 -0.10110109
v -0.03973469 -0.01507178 -0.10110109
v -0.04211464 -0.00473410 -0.08200932
v -0.04218516 -0.00512667 -0.10110109
v 0.02818217 -0.03181210 -0.10110109
v -0.02955377 -0.01670749 -0.05303049
v -0.03929395 0.00023845 -0.05303049
v -0.01406643 0.04816940 -0.05303049
v -0.01974307 0.03762609 -0.10110109
v 0.01016503 0.04125269 -0.10109639
v 0.02313138 0.05019768 -0.05303049
v 0.03104693 0.04691691 -0.05303049
v 0.01974655 0.03762609 -0.10109639
v 0.01974655 -0.03763522 -0.10110109
v 0.01016503 -0.04126182 -0.10110109
v 0.02818217 0.03180296 -0.10109639
v 0.03496945 0.02412915 -0.10109639
v 0.03972936 0.01506265 -0.10110109
v 0.04438349 0.03588756 -0.05303049
v 0.03791354 0.04261734 -0.05303049
v 0.03275697 -0.01481007 -0.06306814
v 0.03864515 0.00166853 -0.05303049
v 0.02088364 -0.02892390 -0.06951049
v 0.02818217 -0.02894260 -0.07875285
v 0.00105950 -0.02496081 -0.05303049
v -0.00631836 -0.02931647 -0.05795284
v 0.00834040 -0.04167308 -0.08719050
v 0.01870642 -0.03756044 -0.08328932
v 0.01058813 -0.03940179 -0.07928932
v -0.00485513 -0.03914942 -0.07310108
v 0.02557303 -0.03323282 -0.08323756
v -0.01040836 -0.02519448 -0.05303049
f 2 1 6
f 2 6 41
f 2 41 54
f 2 54 63
f 2 63 64
f 2 64 15
f 2 15 14
f 2 14 25
f 2 25 49
f 2 49 50
f 2 50 51
f 2 51 53
f 2 53 30
f 2 30 19
f 2 19 18
f 2 18 32
f 2 32 58
f 2 58 38
f 2 38 37
f 2 37 59
f 2 59 62
f 2 62 65
f 2 65 66
f 2 66 67
f 1 2 3
f 1 3 4
f 4 5 6
f 4 6 1
f 7 8 9
f 7 9 10
f 11 12 13
f 11 13 14
f 11 14 15
f 16 17 18
f 16 18 19
f 20 21 22
f 20 22 23
f 24 25 13
f 24 13 8
f 24 8 7
f 24 7 26
f 24 26 27
f 28 29 16
f 16 19 30
f 16 30 28
f 31 32 18
f 31 18 17
f 33 34 35
f 36 37 38
f 36 38 39
f 40 41 42
f 43 44 45
f 45 46 47
f 45 47 43
f 48 42 5
f 48 5 4
f 49 25 24
f 49 24 27
f 49 27 50
f 51 46 52
f 51 52 53
f 30 53 52
f 30 52 28
f 54 41 40
f 14 13 25
f 5 42 41
f 5 41 6
f 55 7 10
f 56 45 44
f 32 31 57
f 32 57 58
f 58 57 39
f 58 39 38
f 59 37 36
f 59 36 60
f 59 60 61
f 59 61 62
f 67 66 68
f 65 69 68
f 65 68 66
f 70 71 33
f 70 33 35
f 70 35 72
f 70 72 73
f 70 73 42
f 42 48 71
f 42 71 70
f 52 46 45
f 52 45 56
f 52 56 29
f 52 29 28
f 3 2 67
f 3 67 68
f 47 27 43
f 47 46 51
f 47 51 50
f 47 50 27
f 65 62 61
f 65 61 69
f 23 22 74
f 23 74 75
f 12 8 13
f 76 11 15
f 76 15 64
f 76 64 63
f 76 63 77
f 78 77 20
f 78 20 23
f 78 23 79
f 78 79 11
f 78 11 76
f 78 76 77
f 26 7 55
f 26 55 44
f 26 44 43
f 26 43 27
f 72 20 77
f 80 40 42
f 80 42 73
f 80 73 72
f 80 72 77
f 80 77 63
f 63 54 40
f 63 40 80
f 81 75 74
f 81 74 34
f 81 34 33
f 81 33 71
f 81 71 48
f 81 48 4
f 81 4 3
f 81 3 68
f 81 68 69
f 81 69 61
f 81 61 60
f 81 60 36
f 81 36 39
f 81 39 57
f 81 57 31
f 81 31 17
f 81 17 16
f 81 16 29
f 81 29 56
f 81 56 44
f 81 44 55
f 81 55 10
f 9 23 75
f 9 75 81
f 9 81 10
f 79 8 12
f 79 12 11
f 79 23 9
f 79 9 8
f 20 72 35
f 20 35 34
f 20 34 21
f 34 74 22
f 34 22 21