# https://github.com/mikedh/trimesh

o geometry_0
v 0.00448426 0.01940518 0.00785547
v -0.00385058 -0.02549525 -0.05302578
v 0.00448426 -0.02424536 -0.05302578
v 0.00448426 0.04370853 0.02176533
v -0.00692886 0.03943809 0.01280446
v -0.01052019 0.03180857 0.00787744
v 0.00448426 0.03263315 0.01896872
v 0.00448426 0.06060804 0.00740889
v -0.00541146 0.05523526 0.00352146
v 0.00448426 0.05318684 0.01825858
v -0.00990714 0.05007080 -0.05302578
v -0.00433319 0.05756144 -0.03343484
v 0.00448426 0.06079899 -0.02993542
v 0.00448426 0.05294380 -0.05302578
v -0.01027671 0.04710232 0.00658162
v -0.01625936 0.04889903 -0.00671327
v -0.02238984 0.04302283 -0.01266523
v -0.02005069 0.04012379 -0.00393862
v -0.02449854 0.01019595 -0.01967873
v -0.02007243 0.02473456 -0.00437788
v -0.03070293 0.01166283 -0.02468627
v -0.03299425 -0.00498496 -0.04268124
v -0.02808552 -0.00810100 -0.04092421
v -0.03878124 0.01171491 -0.04571945
v -0.03956821 0.00125579 -0.05302578
v -0.03657254 0.00979668 -0.03698552
v -0.03414208 0.02081130 -0.02855907
v -0.01688545 0.03613977 0.00215975
v -0.02658986 0.02983826 -0.01220401
v -0.02462898 0.04332662 -0.03585809
v -0.02109852 0.04461122 -0.04893336
v -0.02179853 0.04307491 -0.05302578
v -0.03132902 0.03263315 -0.05302578
v -0.03056380 0.03442986 -0.04820858
v -0.02819857 0.03747646 -0.02420309
v -0.02302897 0.04514937 -0.02363937
v -0.00678104 0.05750068 -0.00720378
v 0.00448426 0.06317725 -0.00671327
v -0.00662886 0.05831658 -0.01984711
v -0.01580283 0.05183279 -0.03066751
v -0.01707676 0.05088670 -0.01791437
v -0.03992908 0.00852075 -0.05302578
v -0.03432469 0.02721697 -0.03687570
v -0.03754645 0.02038600 -0.05302578
v -0.00159839 0.04667701 0.01648691
v -0.03664645 -0.00099227 -0.04502395
v -0.03430296 -0.01159895 -0.05302578
v -0.01736372 -0.02173691 -0.05062450
v -0.01734197 -0.02358570 -0.05302578
v -0.02382463 -0.02043495 -0.05257188
v -0.02944640 0.03215576 -0.02017655
v 0.00448426 0.02539422 0.01423937
v -0.03083772 0.01920555 -0.02099650
v 0.00426251 0.06299497 -0.01670641
v -0.03768123 -0.00548839 -0.05302578
f 55 25 42
f 55 42 44
f 55 44 33
f 55 33 32
f 55 32 11
f 55 11 14
f 55 14 3
f 55 3 2
f 55 2 49
f 55 49 47
f 1 2 3
f 4 5 6
f 4 6 7
f 8 9 10
f 11 12 13
f 11 13 14
f 15 10 9
f 16 17 18
f 16 18 15
f 16 15 9
f 19 20 21
f 21 22 23
f 21 23 19
f 24 25 26
f 24 26 27
f 28 18 29
f 28 29 20
f 28 5 15
f 28 15 18
f 30 31 32
f 30 32 33
f 30 33 34
f 34 35 36
f 34 36 30
f 37 9 8
f 37 8 38
f 37 38 39
f 37 39 40
f 37 40 41
f 37 41 16
f 37 16 9
f 42 25 24
f 40 39 12
f 40 12 11
f 40 11 32
f 40 32 31
f 40 31 30
f 43 35 34
f 43 34 33
f 43 33 44
f 43 44 42
f 43 42 24
f 43 24 27
f 45 5 4
f 45 4 10
f 45 10 15
f 45 15 5
f 6 5 28
f 6 28 20
f 46 22 21
f 46 21 26
f 46 26 25
f 46 47 22
f 2 1 48
f 2 48 49
f 49 48 50
f 49 50 47
f 51 27 29
f 51 29 18
f 51 35 43
f 51 43 27
f 52 20 19
f 52 1 3
f 52 3 14
f 52 14 13
f 52 13 38
f 52 38 8
f 52 8 10
f 52 10 4
f 52 4 7
f 52 7 6
f 52 6 20
f 53 21 20
f 53 20 29
f 53 29 27
f 53 27 26
f 53 26 21
f 54 13 12
f 54 12 39
f 54 39 38
f 54 38 13
f 50 48 1
f 50 1 52
f 50 52 23
f 23 52 19
f 23 22 47
f 23 47 50
f 16 41 36
f 16 36 17
f 17 35 51
f 17 51 18
f 55 47 46
f 55 46 25
f 36 41 40
f 36 40 30
f 36 35 17