# https://github.com/mikedh/trimesh

o geometry_0
v 0.01774027 -0.06044695 0.00100002
v 0.00598734 -0.06270399 0.00100002
v -0.00588878 -0.06171731 0.00000000
v 0.02840906 -0.05510650 0.00000000
v -0.02340729 -0.05848590 0.00899911
v -0.03405145 -0.05299745 0.00899911
v -0.02886488 -0.05599452 0.00100002
v 0.03148897 0.05455149 0.00899911
v 0.02340730 0.05848591 0.00100002
v 0.01774027 0.06044696 0.00899911
v 0.05952844 0.02059711 0.00899911
v 0.05729859 0.02615956 0.00100002
v 0.05455131 0.03148767 0.00899911
v -0.01774026 -0.06044695 0.00100002
v -0.02886488 0.05599453 0.00899911
v -0.02340729 0.05848591 0.00100002
v -0.03405145 0.05299746 0.00100002
v -0.03894234 0.04951939 0.00899911
v -0.03894234 -0.04951938 0.00100002
v -0.04346364 -0.04558496 0.00899911
v 0.06121624 -0.01484964 0.00899911
v 0.06249747 -0.00595712 0.00899911
v 0.06136407 0.00881852 0.00999912
v 0.05638694 -0.02575254 0.00999912
v -0.05952844 -0.02059710 0.00100002
v -0.05455131 -0.03148766 0.00100002
v -0.05729859 -0.02615955 0.00899911
v 0.05131125 0.03653211 0.00100002
v 0.04346365 0.04558497 0.00100002
v 0.04760305 0.04125588 0.00899911
v -0.04760304 -0.04125587 0.00100002
v -0.04319261 -0.04409260 0.00000000
v 0.03405146 0.05299746 0.00100002
v 0.04760305 -0.04125587 0.00100002
v 0.05455131 -0.03150000 0.00100002
v 0.05131125 -0.03653210 0.00899911
v -0.04760304 0.04125588 0.00899911
v -0.05131124 0.03653211 0.00100002
v -0.05455131 0.03150001 0.00899911
v 0.06121624 0.01484965 0.00100002
v -0.06121623 -0.01484964 0.00899911
v -0.06292865 -0.00299706 0.00899911
v -0.06234963 -0.00895419 0.00100002
v -0.06291633 0.00299707 0.00100002
v -0.06234963 0.00895419 0.00899911
v -0.06121623 0.01484965 0.00100002
v 0.00598734 0.06270400 0.00899911
v 0.00000000 0.06300001 0.00100002
v -0.00598734 0.06270400 0.00899911
v 0.04346365 -0.04558496 0.00899911
v 0.03894235 -0.04951938 0.00100002
v 0.03405146 -0.05299745 0.00899911
v -0.04346364 0.04558497 0.00100002
v 0.06234964 -0.00895419 0.00100002
v 0.05952844 -0.02059710 0.00100002
v 0.06292866 0.00299707 0.00100002
v -0.01191308 0.06185299 0.00100002
v 0.01191308 0.06185299 0.00100002
v -0.01191308 -0.06185298 0.00899911
v 0.01191308 -0.06185298 0.00899911
v 0.02340730 -0.05848590 0.00899911
v 0.00000000 -0.06300000 0.00899911
v 0.05368894 0.03099433 0.00999912
v 0.03974312 0.04737334 0.00999912
v 0.01745692 0.05948493 0.00999912
v -0.01745691 0.05948493 0.00999912
v -0.04574277 0.04165055 0.00999912
v -0.05857983 0.02027643 0.00999912
v -0.06024298 -0.01461531 0.00999912
v -0.05049815 -0.03595243 0.00999912
v 0.00045583 -0.04749667 0.01059664
v 0.03350939 -0.05214644 0.00999912
v 0.04277375 0.04486962 0.00000000
v -0.01172828 0.06087863 0.00000000
v 0.06136407 -0.00881852 0.00000000
v -0.05952844 0.02059711 0.00899911
v -0.01774026 0.06044696 0.00899911
v 0.02886489 -0.05599452 0.00100002
v -0.05131124 -0.03653210 0.00899911
v -0.06136406 -0.00881852 0.00000000
v -0.05638693 0.02575255 0.00000000
v -0.05729859 0.02615956 0.00100002
v 0.05729859 -0.02615955 0.00899911
v 0.06234964 0.00895419 0.00899911
v -0.02303770 -0.05754855 0.00999912
v 0.01172829 -0.06087862 0.00999912
v -0.00598734 -0.06270399 0.00100002
v 0.01172829 0.06087863 0.00000000
v -0.04277374 0.04486962 0.00000000
v 0.05702756 0.02390251 0.00000000
v 0.05368894 -0.03099432 0.00000000
v 0.03894235 0.04951939 0.00899911
v -0.02840906 -0.05510650 0.00000000
v -0.05368893 -0.03099432 0.00000000
f 94 80 81
f 94 81 89
f 94 89 74
f 94 74 88
f 94 88 73
f 94 73 90
f 94 90 75
f 94 75 91
f 94 91 4
f 94 4 3
f 94 3 93
f 94 93 32
f 1 2 3
f 1 3 4
f 5 6 7
f 8 9 10
f 11 12 13
f 14 5 7
f 15 16 17
f 15 17 18
f 19 7 6
f 19 6 20
f 21 22 23
f 21 23 24
f 25 26 27
f 28 29 30
f 28 30 13
f 28 13 12
f 31 32 19
f 31 19 20
f 33 9 8
f 34 35 36
f 37 38 39
f 40 12 11
f 41 42 43
f 41 43 25
f 41 25 27
f 44 42 45
f 44 45 46
f 44 43 42
f 47 48 49
f 50 51 34
f 50 34 36
f 50 52 51
f 53 38 37
f 53 37 18
f 53 18 17
f 54 22 21
f 54 21 55
f 54 56 22
f 57 49 48
f 58 10 9
f 58 48 47
f 58 47 10
f 59 5 14
f 60 1 61
f 60 62 2
f 60 2 1
f 23 63 64
f 23 64 65
f 23 65 66
f 23 66 67
f 23 67 68
f 23 68 69
f 23 69 70
f 23 70 71
f 23 71 72
f 23 72 24
f 73 33 29
f 73 29 28
f 74 57 48
f 74 16 57
f 75 56 54
f 75 54 55
f 76 46 45
f 76 45 68
f 76 68 39
f 72 61 52
f 72 52 50
f 50 36 24
f 50 24 72
f 77 66 49
f 77 49 57
f 77 57 16
f 77 16 15
f 77 15 66
f 78 52 61
f 78 61 1
f 78 1 4
f 78 4 51
f 78 51 52
f 79 26 31
f 79 31 20
f 79 20 70
f 79 70 27
f 79 27 26
f 80 25 43
f 80 43 44
f 80 44 46
f 80 46 81
f 82 81 46
f 82 46 76
f 82 76 39
f 82 39 38
f 82 38 81
f 83 35 55
f 83 55 21
f 83 21 24
f 83 24 36
f 83 36 35
f 84 56 40
f 84 40 11
f 84 11 23
f 84 23 22
f 84 22 56
f 85 5 59
f 85 86 71
f 85 71 70
f 85 70 20
f 85 20 6
f 85 6 5
f 87 62 59
f 87 59 14
f 87 14 3
f 87 3 2
f 87 2 62
f 65 64 8
f 65 8 10
f 65 10 47
f 65 47 49
f 65 49 66
f 86 60 61
f 86 61 72
f 86 72 71
f 86 85 59
f 86 59 62
f 86 62 60
f 88 9 33
f 88 33 73
f 88 74 48
f 88 48 58
f 88 58 9
f 89 17 16
f 89 16 74
f 89 81 38
f 89 38 53
f 89 53 17
f 90 40 56
f 90 56 75
f 90 73 28
f 90 28 12
f 90 12 40
f 91 75 55
f 91 55 35
f 91 35 34
f 34 51 4
f 34 4 91
f 69 42 41
f 69 41 27
f 69 27 70
f 69 68 45
f 69 45 42
f 67 18 37
f 67 37 39
f 67 39 68
f 66 15 18
f 66 18 67
f 92 8 64
f 92 64 30
f 92 30 29
f 92 29 33
f 92 33 8
f 63 23 11
f 63 11 13
f 63 13 30
f 63 30 64
f 93 3 14
f 93 14 7
f 93 7 19
f 93 19 32
f 94 26 25
f 94 25 80
f 94 32 31
f 94 31 26