# https://github.com/mikedh/trimesh

o geometry_0
v 0.04219506 -0.15642440 -0.00037003
v 0.04037647 -0.15642440 -0.01224804
v 0.04544253 -0.10563483 0.00282378
v 0.00010783 -0.10413801 -0.04179077
v 0.00986880 -0.15642440 -0.04094292
v -0.00636855 -0.15642440 -0.04171669
v -0.01699242 -0.10666680 -0.03839118
v -0.01944194 -0.15642440 -0.03738694
v 0.02866702 -0.07111503 0.04184916
v 0.02690410 -0.07123589 -0.00688935
v 0.01857202 -0.06652230 -0.00959751
v 0.01880398 -0.06536018 0.02203602
v 0.03529186 -0.15642440 -0.02313004
v 0.03171964 -0.10503982 -0.02792898
v 0.03786200 -0.09828089 -0.01894022
v -0.01863471 -0.06656879 -0.00962220
v -0.01891307 -0.06541596 0.02202779
v -0.00960675 -0.06292436 -0.00195047
v 0.02972476 -0.14699723 0.04184916
v 0.03570011 -0.15642440 0.02248875
v 0.04070122 -0.13347939 0.04184916
v 0.03917954 -0.08800770 -0.01001731
v 0.03314853 -0.08316395 -0.01978806
v -0.00475410 -0.06417016 -0.01957404
v -0.01846770 -0.06780529 -0.01721984
v -0.04738875 -0.10744775 0.04121534
v -0.04623821 -0.11913409 0.04184916
v -0.04531037 -0.09511061 0.04184916
v -0.00004062 -0.06192958 -0.00241967
v 0.00939560 -0.06488603 -0.01908015
v 0.04058987 -0.15642440 0.01152444
v 0.04639821 -0.11830666 0.04184916
v -0.04038349 -0.15642440 0.01224057
v -0.03528960 -0.15642440 0.02312257
v -0.04012369 -0.13442767 0.04184916
v -0.04219280 -0.15642440 0.00036257
v -0.00871601 -0.09471084 -0.04025149
v 0.04428271 -0.09334418 0.01270977
v 0.04014450 -0.08460499 0.00851172
v 0.04138782 -0.08579501 0.04184916
v 0.04639821 -0.09985209 0.04184916
v -0.03232049 -0.09159634 -0.02550893
v -0.03158749 -0.10503982 -0.02809361
v -0.03780407 -0.09830878 -0.01910485
v -0.03873192 -0.09052719 -0.01403426
v -0.03312771 -0.08320114 -0.01988684
v 0.03383514 -0.07871069 -0.01000908
v 0.02246899 -0.07183090 -0.02183770
v -0.02714309 -0.07062229 0.00172076
v -0.03414835 -0.07764153 -0.00330867
v -0.03554940 -0.07752997 0.04184916
v -0.02868332 -0.07114292 0.04184916
v 0.00461718 -0.07329053 -0.03490927
v 0.00001505 -0.06893023 -0.03124626
v 0.00923786 -0.06985993 -0.03048074
v 0.01358947 -0.07508485 -0.03332059
v -0.02220693 -0.07470367 -0.02666956
v -0.02580699 -0.08100705 -0.02823355
v -0.02643792 -0.07438758 -0.02005970
v -0.04402066 -0.09403216 0.00603405
v -0.04139485 -0.08583220 0.04184916
v -0.04018864 -0.08470726 0.00847056
v -0.04170104 -0.10590444 -0.01183647
v -0.04058762 -0.15642440 -0.01153190
v -0.04544027 -0.10571850 0.00272500
v 0.04174969 -0.10587655 -0.01166360
v 0.04274248 -0.09876434 -0.00727623
v 0.00637081 -0.15642440 0.04170922
v 0.01786686 -0.15642440 0.03821908
v 0.02028854 -0.15212919 0.04184916
v -0.00563555 -0.15642440 0.04181623
v 0.03239697 -0.09157775 -0.02536900
v 0.02587419 -0.08097916 -0.02813477
v 0.04725183 -0.10880511 0.02689258
v 0.04740028 -0.10799627 0.04184916
v 0.04657450 -0.10274346 0.01722884
v 0.00951622 -0.06290577 -0.00194224
v -0.00000351 -0.06145543 0.04184916
v 0.01286575 -0.06340781 0.04184916
v 0.01990812 -0.06584362 0.04184916
v -0.02722659 -0.15642440 -0.03222581
v -0.03341535 -0.15642440 -0.02536900
v 0.03431761 -0.07690707 0.00480756
v 0.02791546 -0.15642440 0.03163391
v 0.02505768 -0.10035413 -0.03348522
v 0.01708746 -0.11804634 -0.03859697
v 0.01750499 -0.08863989 -0.03647324
v -0.00920777 -0.06987853 -0.03051366
v -0.01351299 -0.07510345 -0.03336998
v -0.01386557 -0.06811209 -0.02461170
v -0.01020985 -0.06257108 0.04184916
v -0.01992442 -0.06585292 0.04184916
v -0.02489769 -0.10035413 -0.03361692
v -0.02164094 -0.08381475 -0.03292548
v -0.02963900 -0.14705300 0.04184916
v -0.02431315 -0.15642440 0.03418566
v -0.02430387 -0.15071604 0.04184916
v -0.03957626 -0.08639931 -0.00510313
v 0.00007072 -0.08546032 -0.03986461
v 0.00897807 -0.08625986 -0.03900030
v 0.00883889 -0.10477951 -0.04089354
v -0.01333670 -0.08045852 -0.03611929
v -0.00446646 -0.07874788 -0.03773266
v 0.01386783 -0.06808420 -0.02457877
v 0.04364250 -0.09493397 0.00060128
v 0.01718953 -0.15642440 -0.03853934
v 0.03553310 -0.07750208 0.04184916
v 0.02449170 -0.15642440 -0.03393795
v 0.00468213 -0.06617832 -0.02598635
v -0.04321343 -0.09657954 -0.00392603
v 0.02223702 -0.07467578 -0.02660371
v -0.00454069 -0.07329983 -0.03492573
v -0.01736356 -0.08863989 -0.03655556
v -0.04681348 -0.11061803 0.01750871
v -0.00468915 -0.06618761 -0.02599459
v -0.04658152 -0.10286432 0.01718769
v -0.01636149 -0.15642440 0.03887760
v 0.02557728 -0.08605532 -0.03067829
v 0.01769056 -0.08192745 -0.03463763
v 0.00458006 -0.07873858 -0.03771619
v -0.03350813 -0.08057938 -0.01556532
v 0.03021652 -0.14257187 -0.02960820
v 0.02734947 -0.15642440 -0.03213526
v -0.02671628 -0.07249099 -0.01416597
v -0.03773912 -0.14257187 -0.01927771
v -0.03569785 -0.15642440 -0.02250445
f 126 82 81
f 126 81 8
f 126 8 6
f 126 6 5
f 126 5 106
f 126 106 108
f 126 108 123
f 126 123 13
f 126 13 2
f 126 2 1
f 126 1 31
f 126 31 20
f 126 20 84
f 126 84 69
f 126 69 68
f 126 68 71
f 126 71 117
f 126 117 96
f 126 96 34
f 126 34 33
f 126 33 36
f 126 36 64
f 1 2 3
f 4 5 6
f 7 6 8
f 9 10 11
f 9 11 12
f 13 14 15
f 16 17 18
f 19 20 21
f 22 15 23
f 24 25 16
f 24 16 18
f 26 27 28
f 29 30 24
f 29 24 18
f 31 1 32
f 31 32 21
f 31 21 20
f 33 34 35
f 33 35 27
f 33 27 36
f 37 4 6
f 37 6 7
f 38 39 40
f 38 40 41
f 42 43 44
f 42 44 45
f 42 45 46
f 47 39 22
f 47 22 23
f 47 23 48
f 47 48 10
f 49 17 16
f 50 51 52
f 50 52 49
f 53 54 55
f 53 55 56
f 57 58 46
f 57 46 59
f 60 28 61
f 60 61 62
f 62 51 50
f 11 10 48
f 63 64 65
f 66 2 13
f 66 13 15
f 66 67 3
f 66 3 2
f 68 69 70
f 68 70 71
f 72 73 23
f 72 23 15
f 72 15 14
f 74 75 32
f 74 32 1
f 1 3 76
f 1 76 74
f 77 12 11
f 77 11 30
f 77 30 29
f 77 29 78
f 77 78 79
f 77 79 80
f 77 80 12
f 81 82 43
f 83 39 47
f 83 47 10
f 83 10 9
f 84 20 19
f 19 70 69
f 19 69 84
f 85 86 87
f 88 89 57
f 88 57 90
f 91 78 29
f 91 29 18
f 18 17 92
f 18 92 91
f 93 7 8
f 93 8 81
f 93 81 43
f 93 43 42
f 93 42 94
f 61 51 62
f 95 35 34
f 34 96 97
f 34 97 95
f 98 60 62
f 98 62 50
f 99 100 101
f 99 101 4
f 99 4 37
f 102 94 89
f 102 103 99
f 102 99 37
f 58 57 89
f 58 89 94
f 58 94 42
f 58 42 46
f 104 30 11
f 104 11 48
f 22 39 38
f 22 38 105
f 101 100 87
f 101 87 86
f 101 86 106
f 101 106 5
f 101 5 4
f 107 40 39
f 107 39 83
f 107 83 9
f 52 92 17
f 52 17 49
f 106 86 108
f 109 30 104
f 109 104 55
f 109 55 54
f 109 24 30
f 110 60 98
f 110 98 45
f 110 45 44
f 110 44 63
f 110 63 65
f 111 48 23
f 111 23 73
f 111 56 55
f 111 55 104
f 111 104 48
f 112 103 102
f 112 102 89
f 112 89 88
f 112 88 54
f 112 54 53
f 113 94 102
f 113 102 37
f 113 37 7
f 113 7 93
f 113 93 94
f 80 79 78
f 80 78 91
f 80 91 92
f 80 92 52
f 80 52 51
f 80 51 61
f 80 61 28
f 80 28 27
f 80 27 35
f 80 35 95
f 80 95 97
f 80 97 71
f 80 71 70
f 80 70 19
f 80 19 21
f 80 21 32
f 80 32 75
f 80 75 41
f 80 41 40
f 80 40 107
f 80 107 9
f 80 9 12
f 114 36 27
f 114 27 26
f 114 65 64
f 114 64 36
f 115 54 88
f 115 88 90
f 115 90 24
f 115 24 109
f 115 109 54
f 116 60 110
f 116 110 65
f 116 65 114
f 116 114 26
f 116 26 28
f 116 28 60
f 117 97 96
f 117 71 97
f 118 73 72
f 118 72 14
f 118 14 85
f 118 85 87
f 67 22 105
f 67 105 3
f 67 66 15
f 67 15 22
f 119 56 111
f 119 111 73
f 119 73 118
f 119 118 87
f 119 87 100
f 120 100 99
f 120 99 103
f 120 103 112
f 120 112 53
f 120 53 56
f 120 56 119
f 120 119 100
f 121 59 46
f 121 46 45
f 121 45 98
f 121 98 50
f 122 14 13
f 122 123 85
f 122 85 14
f 25 90 57
f 25 57 59
f 25 24 90
f 123 108 86
f 123 86 85
f 123 122 13
f 49 16 25
f 49 25 124
f 124 25 59
f 124 59 121
f 124 121 50
f 124 50 49
f 125 64 63
f 125 63 44
f 76 38 41
f 41 75 74
f 41 74 76
f 76 3 105
f 76 105 38
f 126 64 125
f 126 125 44
f 126 44 43
f 126 43 82