# https://github.com/mikedh/trimesh

o geometry_0
v 0.07804452 -0.02604898 -0.03352589
v 0.07804452 -0.06719075 -0.03352589
v 0.06928105 -0.06719075 -0.03867908
v 0.06927279 -0.02604898 -0.03868732
v 0.01198839 -0.06719075 -0.01207216
v 0.01027200 -0.06719075 -0.00203788
v 0.01028025 -0.02604898 -0.00203788
v 0.01198839 -0.02604898 -0.01207216
v 0.03556395 -0.06719075 0.03868463
v 0.03556395 -0.02604898 0.03868463
v 0.02680873 -0.02604898 0.03353145
v 0.02680048 -0.06719075 0.03352320
v 0.04531765 -0.02604898 0.04159515
v 0.04531765 -0.06719075 0.04159515
v 0.05546743 -0.06719075 0.04208161
v 0.05546743 -0.02604898 0.04208986
v 0.06545218 -0.06719075 0.04013577
v 0.06545218 -0.02604898 0.04013577
v 0.04937756 -0.06719075 -0.04208430
v 0.03939281 -0.06719075 -0.04013021
v 0.03938456 -0.02604898 -0.04013021
v 0.04936106 -0.02604898 -0.04208430
v 0.08878844 -0.06719075 0.02139467
v 0.09285661 -0.06719075 0.01206947
v 0.09285661 -0.02604898 0.01206947
v 0.08879669 -0.02604898 0.02138643
v 0.08261605 -0.02604898 0.02947486
v 0.08260780 -0.06719075 0.02947486
v 0.08532266 -0.06719075 -0.02641862
v 0.08532266 -0.02604898 -0.02641862
v 0.09069462 -0.02604898 -0.01776952
v 0.09069462 -0.06719075 -0.01776952
v 0.05952735 -0.06719075 -0.04158960
v 0.05953560 -0.02604898 -0.04158960
v 0.07467776 -0.02604898 0.03584832
v 0.07467776 -0.06719075 0.03584832
v 0.09456474 -0.06719477 0.00204344
v 0.09457299 -0.02604898 0.00204344
v 0.01952234 -0.06719075 0.02641593
v 0.01952234 -0.02604898 0.02641593
v 0.01415038 -0.02604898 0.01777508
v 0.01415038 -0.06719075 0.01777508
v 0.01101467 -0.06719075 0.00809534
v 0.01101467 -0.02604898 0.00811183
v 0.01605656 -0.06719075 -0.02139736
v 0.01605656 -0.02604898 -0.02139736
v 0.02222895 -0.02604898 -0.02946931
v 0.02222895 -0.06719075 -0.02947755
v 0.03016724 -0.06719075 -0.03584276
v 0.03015898 -0.02604898 -0.03584276
v 0.09383033 -0.02604898 -0.00810627
v 0.09383033 -0.06719075 -0.00809803
f 51 31 30
f 51 30 1
f 51 1 4
f 51 4 34
f 51 34 22
f 51 22 21
f 51 21 50
f 51 50 47
f 51 47 46
f 51 46 8
f 51 8 7
f 51 7 44
f 51 44 41
f 51 41 40
f 51 40 11
f 51 11 10
f 51 10 13
f 51 13 16
f 51 16 18
f 51 18 35
f 51 35 27
f 51 27 26
f 51 26 25
f 51 25 38
f 1 2 3
f 1 3 4
f 5 6 7
f 5 7 8
f 9 10 11
f 9 11 12
f 13 14 15
f 13 15 16
f 16 15 17
f 16 17 18
f 10 9 14
f 10 14 13
f 19 20 21
f 19 21 22
f 23 24 25
f 23 25 26
f 26 27 28
f 26 28 23
f 29 2 1
f 29 1 30
f 29 30 31
f 29 31 32
f 3 33 34
f 3 34 4
f 35 18 17
f 35 17 36
f 35 36 28
f 35 28 27
f 25 24 37
f 25 37 38
f 34 33 19
f 34 19 22
f 39 12 11
f 39 11 40
f 39 40 41
f 39 41 42
f 7 6 43
f 7 43 44
f 45 5 8
f 45 8 46
f 45 46 47
f 45 47 48
f 49 48 47
f 49 47 50
f 49 50 21
f 49 21 20
f 51 38 37
f 51 37 52
f 52 32 31
f 52 31 51
f 43 42 41
f 43 41 44
f 43 6 5
f 43 5 45
f 43 45 48
f 43 48 49
f 43 49 20
f 43 20 19
f 43 19 33
f 43 33 3
f 43 3 2
f 43 2 29
f 43 29 32
f 43 32 52
f 43 52 37
f 43 37 24
f 43 24 23
f 43 23 28
f 43 28 36
f 43 36 17
f 43 17 15
f 43 15 14
f 43 14 9
f 43 9 12
f 43 12 39
f 43 39 42