# https://github.com/mikedh/trimesh

o geometry_0
v 0.11349187 0.03494756 -0.00076551
v 0.11109871 0.03494756 0.01318862
v 0.11135430 -0.02052499 0.01116088
v 0.11277160 -0.02052499 0.00471351
v 0.11103675 0.03494756 -0.01334574
v 0.11344541 -0.01254724 -0.00184145
v 0.11237661 -0.01254724 -0.00907508
v 0.07987146 0.03494756 -0.03729783
v 0.07489926 -0.01254724 -0.03747991
v 0.07009745 0.03494756 -0.03702471
v 0.10323769 0.03494756 -0.02576871
v 0.10119304 -0.01692502 -0.02763920
v 0.09536117 0.03494756 -0.03210849
v 0.04780001 -0.01692502 -0.02457690
v 0.04488794 -0.02379456 -0.01878338
v 0.03437043 -0.02113761 -0.00353812
v 0.03437043 0.02091250 -0.00413403
v 0.04247929 0.03494756 -0.01680530
v 0.04673122 0.03494756 -0.02343475
v 0.10190557 -0.02997577 -0.02042212
v 0.10229281 -0.03241246 -0.01438857
v 0.09004045 -0.03241246 -0.02648049
v 0.10587868 0.03494756 0.02264862
v 0.09762267 0.03494756 0.03063541
v 0.10020170 -0.02052499 0.02807798
v 0.10470146 -0.01692502 0.02398940
v 0.06617855 -0.02052499 -0.03575013
v 0.08798807 -0.01254724 -0.03552667
v 0.08470424 -0.02052499 -0.03603981
v 0.10748187 -0.02052499 0.01957805
v 0.11061079 -0.01254724 0.01441353
v 0.03437043 0.02789905 0.03843184
v 0.03437043 0.01793203 0.04414260
v 0.07723046 0.03494756 0.03738073
v 0.03437043 0.03149214 0.03385496
v 0.03437043 -0.02329897 0.04172587
v 0.08315527 -0.02700907 0.03428533
v 0.08357350 -0.02052499 0.03625513
v 0.03437043 -0.01208606 0.04578134
v 0.03437043 0.02873193 0.00347204
v 0.03866108 0.03494756 -0.00340570
v 0.10720305 -0.02997577 -0.01070554
v 0.10787686 -0.02379456 -0.01745087
v 0.11188869 -0.02379456 -0.00572311
v 0.10896113 -0.02997577 0.00126223
v 0.10048051 -0.02379456 -0.02686121
v 0.08998624 -0.03490421 -0.01534037
v 0.10180489 -0.03404380 0.00098910
v 0.09793246 -0.03404380 0.01363554
v 0.08677212 -0.03490421 0.01774067
v 0.06620953 -0.03522773 0.01257616
v 0.08060722 -0.03534475 -0.00868609
v 0.03437043 -0.02469627 0.00088979
v 0.05113030 -0.02997577 -0.02167186
v 0.05034032 -0.03241246 -0.01548934
v 0.03437043 -0.03304572 0.02638130
v 0.08700447 0.03494756 0.03582475
v 0.08966095 -0.02052499 0.03445086
v 0.09541538 -0.01692502 0.03196792
v 0.09337074 -0.02052499 -0.03275405
v 0.09241812 -0.02700907 -0.03095806
v 0.03437043 0.03303400 0.02638130
v 0.04931025 0.03494756 0.02632337
v 0.06385509 -0.02700907 -0.03286992
v 0.05950249 -0.02997577 -0.02856616
v 0.05368610 -0.02700907 -0.02701846
v 0.05782959 -0.02379456 -0.03147120
v 0.07496896 -0.02700907 -0.03503008
v 0.11106773 -0.02052499 -0.01202978
v 0.10888369 -0.01254724 -0.01799711
v 0.07978626 -0.03404380 -0.02554525
v 0.06562092 -0.03490421 -0.01798056
v 0.06101273 -0.03241246 -0.02595079
v 0.07058537 -0.03241246 -0.02947657
v 0.08083182 -0.02997577 -0.03262990
v 0.04860547 -0.02379456 -0.02388168
v 0.06005237 -0.01254724 -0.03392931
v 0.05688472 0.03494756 -0.03225746
v 0.08815845 -0.02997577 0.03066024
v 0.08212521 -0.03241246 0.02933600
v 0.09155844 -0.03241246 0.02561987
v 0.10388825 -0.02379456 0.02330246
v 0.10834929 -0.02700907 0.01347002
v 0.07491475 -0.02052499 -0.03705781
v 0.08853795 0.03494756 -0.03533631
v 0.10559987 -0.03241246 -0.00472166
v 0.10401217 -0.02997577 0.01741789
v 0.09888508 -0.02700907 0.02654683
v 0.10527458 -0.03241246 0.00640191
v 0.11023903 -0.02700907 0.00748613
v 0.10144863 -0.03241246 0.01582881
v 0.07684322 -0.03404380 0.02581023
v 0.03437043 -0.03132490 0.03419429
v 0.05202870 -0.03404380 -0.00960478
v 0.05218359 -0.01692502 -0.02883928
v 0.06051706 0.03494756 0.03404531
v 0.10511194 -0.02052499 -0.02295471
v 0.09419170 -0.02700907 0.02995674
v 0.09660034 -0.02933562 -0.02646394
v 0.08720584 -0.02700907 -0.03320098
v 0.03437043 -0.02790390 0.03843184
v 0.08365869 -0.01254724 0.03666067
v 0.03437043 -0.00000586 0.04707247
v 0.03437043 0.00914893 0.04632759
v 0.09753747 -0.02997577 0.02498258
v 0.10769872 0.03494756 -0.02002485
v 0.07004323 -0.02997577 -0.03244782
f 106 11 13
f 106 13 85
f 106 85 8
f 106 8 10
f 106 10 78
f 106 78 19
f 106 19 18
f 106 18 41
f 106 41 63
f 106 63 96
f 106 96 34
f 106 34 57
f 106 57 24
f 106 24 23
f 106 23 2
f 106 2 1
f 106 1 5
f 1 2 3
f 1 3 4
f 5 1 6
f 5 6 7
f 8 9 10
f 11 12 13
f 14 15 16
f 14 16 17
f 14 17 18
f 14 18 19
f 20 21 22
f 23 24 25
f 23 25 26
f 27 10 9
f 9 8 28
f 9 28 29
f 2 23 26
f 2 26 30
f 2 30 31
f 32 33 34
f 32 34 35
f 36 37 38
f 36 38 39
f 18 17 40
f 18 40 41
f 42 21 20
f 42 20 43
f 42 43 44
f 42 44 45
f 46 43 20
f 47 22 21
f 47 21 48
f 48 49 50
f 48 50 51
f 48 51 52
f 48 52 47
f 53 16 15
f 53 15 54
f 53 54 55
f 53 55 56
f 24 57 58
f 24 58 59
f 60 29 28
f 60 13 12
f 60 12 46
f 60 46 61
f 62 41 40
f 62 63 41
f 64 65 66
f 64 66 67
f 64 67 27
f 64 27 68
f 5 7 69
f 5 69 70
f 71 22 47
f 71 47 52
f 71 52 72
f 71 72 73
f 71 73 74
f 71 74 75
f 71 75 22
f 73 55 54
f 73 54 65
f 76 15 14
f 76 54 15
f 77 78 10
f 77 10 27
f 77 27 67
f 79 80 81
f 30 26 82
f 30 82 83
f 84 68 27
f 84 27 9
f 84 9 29
f 84 29 68
f 85 28 8
f 85 13 60
f 85 60 28
f 86 48 21
f 86 21 42
f 86 42 45
f 87 83 82
f 87 82 88
f 89 48 86
f 89 86 45
f 89 45 90
f 89 90 83
f 89 83 87
f 89 87 91
f 50 81 80
f 50 80 92
f 92 80 93
f 92 93 56
f 51 50 92
f 51 92 56
f 51 56 94
f 51 94 72
f 51 72 52
f 94 55 73
f 94 73 72
f 94 56 55
f 95 14 19
f 95 19 78
f 95 78 77
f 95 77 67
f 95 67 66
f 95 66 76
f 95 76 14
f 90 45 44
f 90 44 4
f 3 31 30
f 3 30 83
f 3 83 90
f 3 90 4
f 3 2 31
f 96 63 62
f 96 62 35
f 96 35 34
f 69 44 43
f 69 43 97
f 69 97 70
f 66 65 54
f 66 54 76
f 98 58 37
f 98 37 79
f 98 25 59
f 98 59 58
f 6 4 44
f 6 44 69
f 6 69 7
f 6 1 4
f 99 61 46
f 99 46 20
f 99 20 22
f 99 22 75
f 99 75 100
f 99 100 61
f 100 75 68
f 100 68 29
f 100 29 60
f 100 60 61
f 101 93 80
f 101 80 79
f 101 79 37
f 101 37 36
f 102 58 57
f 102 57 103
f 104 34 33
f 104 33 32
f 104 32 35
f 104 35 62
f 104 62 40
f 104 40 17
f 104 17 16
f 104 16 53
f 104 53 56
f 104 56 93
f 104 93 101
f 104 101 36
f 104 36 39
f 104 39 103
f 103 57 34
f 103 34 104
f 105 81 91
f 105 91 87
f 105 87 88
f 105 88 98
f 105 98 79
f 105 79 81
f 106 5 70
f 97 43 46
f 97 46 12
f 106 70 97
f 106 97 12
f 106 12 11
f 38 58 102
f 38 102 103
f 38 103 39
f 38 37 58
f 49 48 89
f 49 89 91
f 49 91 81
f 49 81 50
f 107 74 73
f 107 73 65
f 107 65 64
f 107 64 68
f 107 68 75
f 107 75 74
f 25 98 88
f 25 88 82
f 25 82 26
f 25 24 59