# https://github.com/mikedh/trimesh

o geometry_0
v 0.00448860 0.04010451 0.02146863
v 0.00448860 0.02220338 0.01121358
v 0.01086761 -0.00784521 0.00992936
v 0.01433829 -0.00784521 0.01956573
v 0.07990331 -0.00784521 -0.03125957
v 0.07307618 -0.00784521 -0.03613401
v 0.04732289 0.02843149 -0.05302578
v 0.08072924 0.01703713 -0.02904733
v 0.00525303 0.06112345 0.00729529
v 0.00448860 0.06317188 -0.00669995
v 0.00448860 0.05283185 0.01852523
v 0.00448860 0.06197445 -0.02454786
v 0.01155296 0.06553661 -0.00638123
v 0.04331624 0.03735570 -0.05302578
v 0.03105904 0.04692004 -0.05302578
v 0.06913103 0.05222938 -0.02130449
v 0.06812937 0.04471346 -0.02885986
v 0.04328988 0.05443595 0.03618566
v 0.03543473 0.05071565 0.03612005
v 0.03706023 0.03979573 0.03876349
v 0.05191824 0.03560098 0.04110696
v 0.05309563 0.04583557 0.03911970
v 0.07725857 0.03882424 0.03016762
v 0.08331248 0.01907049 0.02810536
v 0.08497313 0.03531480 0.02147801
v 0.03951167 0.06179371 0.03089878
v 0.02824735 0.05607017 0.03152683
v 0.05190067 0.06059629 0.03235174
v 0.09377723 -0.00715989 -0.00620313
v 0.09004295 -0.00784521 -0.01798613
v 0.09060529 0.01644971 -0.01444279
v 0.09401446 0.01019147 -0.00205986
v 0.09391781 -0.00784521 0.00632978
v 0.04379071 0.06699008 0.02374650
v 0.03761379 0.06909122 0.01090424
v 0.03143686 0.06623699 0.02166549
v 0.07936733 0.04629497 0.02400896
v 0.07362094 0.05393890 0.02525569
v 0.06889380 0.05286950 0.03071131
v 0.00448860 -0.00784521 -0.03587154
v 0.01967171 -0.00784521 0.02759917
v 0.03047913 -0.00784521 0.03685121
v 0.04374678 0.01047012 -0.05302578
v 0.06625784 -0.00784521 -0.03927426
v 0.03163016 -0.00784521 -0.05302578
v 0.08166940 -0.00784521 0.03056132
v 0.08840866 -0.00784521 0.02207794
v 0.06802393 0.05991097 -0.00926840
v 0.07480713 0.05841984 0.00225213
v 0.07393726 0.05497065 -0.01087133
v 0.06421937 0.05656721 -0.02018899
v 0.02230767 0.06693736 0.01125108
v 0.01464582 0.05225950 -0.05302578
v 0.00448860 -0.00784521 -0.05302578
v 0.00448860 0.05294481 -0.05302578
v 0.08695010 0.03902757 0.01378203
v 0.09185298 0.02212054 0.01035118
v 0.07948156 0.05012070 0.02013754
v 0.05120653 0.06836072 0.01374454
v 0.05278811 0.06531820 0.02606185
v 0.05841148 0.06554414 0.02207794
v 0.06562521 0.06428646 0.01499127
v 0.04552165 0.02373970 0.04182875
v 0.04266603 -0.00503616 0.04172564
v 0.04336896 -0.00784521 0.04187562
v 0.05400943 -0.00784521 0.04273802
v 0.05782278 0.02605924 0.04156629
v 0.07822508 0.03033683 -0.02740690
v 0.09011325 0.01221731 0.01834712
v 0.00837224 0.04684473 0.02414957
v 0.03187619 0.02904903 0.03765737
v 0.02162232 0.04587323 0.03196741
v 0.07755731 0.01605810 0.03382344
v 0.07160883 -0.00784521 0.03798546
v 0.06858627 0.03312329 0.03743240
v 0.08297859 0.04832080 0.01296651
v 0.08517522 0.04579792 0.00510180
v 0.08774967 0.00717908 -0.02186692
v 0.01895122 0.06336768 0.01847836
v 0.05705835 0.06665872 0.00165220
v 0.06615241 0.06424127 0.00707032
v 0.06308591 -0.00784521 0.04132256
v 0.06317377 0.00470139 0.04128507
v 0.04081208 0.06839837 -0.00056941
v 0.06027422 0.06448980 -0.00507826
v 0.05112745 0.06389485 -0.01412408
v 0.02908207 0.06612402 -0.01500523
v 0.06413150 0.05942898 0.02860218
v 0.06521225 0.06287817 0.02181547
v 0.01286215 0.06277274 -0.02687259
v 0.00448860 0.05500830 -0.04791700
v 0.01543661 0.05271135 0.02675552
v 0.01742236 0.05876626 0.02370900
v 0.03032976 0.06218532 0.02754292
v 0.02627039 0.06817245 -0.00086000
v 0.01539267 0.06558932 -0.01474276
v 0.08490284 0.02999041 -0.01920473
v 0.07847989 0.04521804 -0.01736745
v 0.08379574 0.04427666 -0.00781544
v 0.08716976 0.03453158 -0.01117130
v 0.00448860 0.04702547 0.02131865
v 0.07447324 0.05735797 0.01857210
v 0.02396832 0.06110086 -0.03126895
v 0.07891922 0.05257580 -0.00492828
v 0.05465964 0.05957960 -0.02172631
v 0.00594716 0.05763661 0.01498189
v 0.07639749 0.03860584 -0.02516654
v 0.06431602 0.04830573 0.03557636
v 0.09054378 0.03173006 0.00600169
v 0.08564090 -0.00784521 -0.02512904
v 0.09194963 -0.00784521 0.01448508
v 0.05990519 0.03746866 0.03976650
v 0.05884202 0.05174739 0.03615754
v 0.07226782 0.06083728 0.00970438
v 0.07799663 0.05561078 0.01164478
v 0.07056324 0.01595267 0.03821043
v 0.08034264 0.05307284 0.00395818
v 0.04646181 0.06414337 0.02901463
v 0.08794298 0.03834979 -0.00281915
v 0.09105340 0.02919212 -0.00235046
v 0.08553547 0.02087040 -0.02236374
v 0.05783157 0.05884157 0.03235174
v 0.09367179 0.01113284 0.00632041
v 0.09263498 0.01863370 -0.00630624
v 0.05308685 0.05428533 0.03619504
v 0.09305673 0.02053150 0.00206465
f 6 5 110
f 6 110 30
f 6 30 33
f 6 33 111
f 6 111 47
f 6 47 46
f 6 46 74
f 6 74 82
f 6 82 66
f 6 66 65
f 6 65 42
f 6 42 41
f 6 41 4
f 6 4 3
f 6 3 40
f 6 40 54
f 6 54 45
f 6 45 44
f 1 2 3
f 1 3 4
f 5 6 7
f 5 7 8
f 9 10 11
f 12 10 13
f 14 15 16
f 14 16 17
f 18 19 20
f 18 20 21
f 18 21 22
f 23 24 25
f 26 27 18
f 26 18 28
f 29 30 31
f 29 32 33
f 29 33 30
f 34 35 36
f 37 38 39
f 37 39 23
f 37 23 25
f 3 2 40
f 41 42 1
f 41 1 4
f 43 44 45
f 46 47 24
f 48 49 50
f 48 50 16
f 48 16 51
f 52 13 10
f 52 10 9
f 52 36 35
f 53 15 14
f 53 14 7
f 53 7 43
f 53 43 45
f 53 45 54
f 53 54 55
f 56 25 57
f 56 58 37
f 56 37 25
f 59 35 34
f 59 34 60
f 59 60 61
f 59 61 62
f 63 64 65
f 63 65 66
f 66 67 21
f 66 21 63
f 68 8 7
f 68 7 14
f 69 57 25
f 69 25 24
f 69 24 47
f 70 1 42
f 70 42 71
f 70 71 72
f 73 74 46
f 73 46 24
f 73 24 23
f 73 23 75
f 76 56 77
f 78 31 30
f 79 36 52
f 79 52 9
f 80 59 62
f 80 62 81
f 81 49 48
f 67 66 82
f 67 82 83
f 84 35 59
f 84 59 80
f 84 80 85
f 84 85 86
f 84 86 87
f 60 88 89
f 60 89 61
f 90 91 12
f 92 93 11
f 92 70 72
f 92 72 19
f 92 19 27
f 92 27 93
f 89 62 61
f 94 36 79
f 94 79 93
f 94 93 27
f 94 27 26
f 95 35 84
f 84 87 96
f 84 96 95
f 95 13 52
f 95 52 35
f 97 98 99
f 97 99 100
f 100 31 97
f 101 1 70
f 101 70 92
f 101 92 11
f 101 11 10
f 101 10 12
f 101 12 91
f 101 91 55
f 101 55 54
f 101 54 40
f 101 40 2
f 101 2 1
f 38 102 89
f 38 89 88
f 38 88 39
f 53 55 91
f 53 91 103
f 91 90 87
f 91 87 103
f 103 87 86
f 19 18 27
f 19 72 20
f 99 98 50
f 99 50 104
f 104 50 49
f 105 51 15
f 105 15 53
f 53 103 86
f 53 86 105
f 106 11 93
f 106 93 79
f 106 79 9
f 106 9 11
f 16 98 107
f 16 107 17
f 16 15 51
f 16 50 98
f 108 75 23
f 108 23 39
f 109 77 56
f 109 56 57
f 71 20 72
f 71 42 65
f 71 65 64
f 64 63 20
f 64 20 71
f 5 8 78
f 5 78 110
f 110 78 30
f 111 69 47
f 112 75 108
f 112 108 113
f 112 113 22
f 114 62 89
f 114 89 102
f 114 102 115
f 114 49 81
f 114 81 62
f 116 74 73
f 116 73 75
f 75 112 67
f 75 67 83
f 75 83 116
f 116 83 82
f 116 82 74
f 77 99 104
f 77 104 117
f 117 104 49
f 117 49 114
f 117 114 115
f 117 115 76
f 117 76 77
f 118 28 60
f 118 60 34
f 118 34 36
f 118 36 94
f 118 94 26
f 118 26 28
f 85 80 81
f 85 81 48
f 48 51 105
f 48 105 86
f 48 86 85
f 119 120 100
f 119 100 99
f 119 99 77
f 77 109 120
f 77 120 119
f 121 97 31
f 121 31 78
f 121 78 8
f 121 8 68
f 121 68 97
f 107 98 97
f 107 97 68
f 68 14 17
f 68 17 107
f 96 13 95
f 96 87 90
f 96 90 12
f 96 12 13
f 6 44 43
f 6 43 7
f 122 113 108
f 122 108 39
f 122 39 88
f 122 88 60
f 122 60 28
f 123 33 32
f 111 33 123
f 111 123 57
f 111 57 69
f 124 32 29
f 124 29 31
f 31 100 120
f 31 120 124
f 21 20 63
f 67 112 22
f 67 22 21
f 58 56 76
f 76 115 102
f 76 102 58
f 58 102 38
f 58 38 37
f 125 18 22
f 125 22 113
f 125 113 122
f 125 122 28
f 125 28 18
f 126 109 57
f 126 57 123
f 126 123 32
f 126 32 124
f 126 124 120
f 126 120 109