# https://github.com/mikedh/trimesh

o geometry_0
v -0.00259745 0.00475638 0.03740697
v 0.00716732 0.00475638 0.03680766
v -0.00038489 0.01805309 0.03749511
v 0.03369595 0.00475638 -0.01645220
v 0.02828992 0.00475638 -0.02461348
v 0.03655016 0.07203949 -0.05254339
v 0.03683042 0.06190904 0.00214425
v 0.03740568 0.00475638 0.00259373
v 0.00694607 0.05604026 0.03659613
v 0.01645271 0.00475638 0.03369650
v 0.01671822 0.06068571 0.03278871
v -0.00655794 0.06111747 0.03641986
v -0.00038489 0.06975274 0.03487750
v -0.01436829 0.06974474 0.03188092
v -0.01583596 0.06078166 0.03359073
v -0.03331520 0.07810816 -0.05254339
v -0.03728307 0.07263116 -0.05254339
v -0.03420023 0.07754847 -0.04621531
v 0.00643718 0.07730060 0.02913112
v 0.01921104 0.07569348 0.02415150
v 0.01224884 0.08167420 0.01966544
v -0.00038489 0.08065876 0.02564979
v -0.03696593 0.07263116 -0.01082920
v -0.03782883 0.06095756 -0.00149572
v -0.03402322 0.07625317 -0.00592890
v -0.00719959 0.07744452 0.02898129
v -0.01301125 0.08172218 0.01955968
v -0.01995870 0.07582941 0.02401049
v -0.02596949 0.07139184 0.02227423
v -0.02431007 0.07913160 0.01320516
v -0.02967923 0.07518976 0.01203297
v 0.02522184 0.07119994 0.02239762
v 0.02892419 0.07510980 0.01213873
v 0.02355504 0.07909162 0.01330211
v -0.00037752 0.05928648 -0.05254339
v 0.00259469 0.00475638 -0.03740183
v -0.00717008 0.00475638 -0.03680252
v -0.02607275 0.06279655 -0.05254339
v -0.00038489 0.08497639 0.01339906
v -0.03578590 0.05820707 0.01168043
v -0.03680368 0.00474838 0.00716793
v -0.03369134 0.00475638 0.01644852
v -0.02959072 0.05951835 0.02289118
v 0.01484492 0.08475251 -0.05177662
v 0.00216693 0.08599983 -0.05254339
v -0.00038489 0.08626368 0.00088392
v 0.01138594 0.08448066 0.00960045
v 0.01522105 0.08492842 -0.01657558
v 0.02465394 0.06254869 -0.05254339
v -0.01309975 0.08515230 -0.05242881
v -0.02560811 0.08197804 -0.05254339
v -0.01600559 0.08492842 -0.01627592
v 0.02989772 0.07992316 -0.02208401
v 0.03466948 0.07548560 -0.01201901
v 0.03399096 0.07690082 -0.05254339
v 0.02483095 0.08200203 -0.05254339
v 0.02225700 0.08197804 0.00436524
v 0.03545863 0.00475638 0.01219161
v 0.03573151 0.05794321 0.00941536
v 0.03545125 0.03805012 0.01216517
v -0.03740844 0.00475638 -0.00260622
v -0.03546139 0.00475638 -0.01218647
v -0.02828531 0.00475638 0.02460980
v -0.01218523 0.00475638 0.03545919
v -0.02220076 0.04945187 0.03033856
v -0.02095435 0.00475638 0.03109652
v 0.02460969 0.00475638 0.02828502
v 0.03109250 0.00475638 0.02095221
v 0.02733852 0.05972623 0.02463624
v 0.03680092 0.00475638 -0.00718042
v -0.03109526 0.00475638 -0.02094707
v -0.02461246 0.00475638 -0.02828869
v -0.01644810 0.00475638 -0.03369136
v 0.01218984 0.00475638 -0.03545405
v 0.02095159 0.00475638 -0.03109138
v 0.03241267 0.05889469 0.01753258
v -0.02097648 0.06484343 0.02988026
v -0.03103626 0.06654650 0.01861663
v -0.03406010 0.06663445 -0.05254339
v -0.01215573 0.08447267 0.00960045
v -0.02302678 0.08197005 0.00436524
v 0.03564301 0.07019250 0.00058426
v 0.03358532 0.06780181 0.01102823
v -0.03068225 0.07990717 -0.02184604
v 0.00683544 0.06546709 0.03545919
v 0.01361326 0.06945690 0.03200430
v 0.03137276 0.07768439 -0.00361977
v 0.01997806 0.06868133 0.02867281
v 0.03028860 0.06629863 0.01871359
v -0.03661192 0.06818560 0.00263780
v -0.03433298 0.06796972 0.01092247
v 0.03407209 0.06728209 -0.05254339
v -0.00038489 0.07604528 0.03113177
v 0.03619615 0.07263916 -0.01082920
v -0.03355859 0.07295098 0.00652454
v 0.00660681 0.07389447 0.03195143
v 0.02051645 0.04949984 0.03118465
v -0.00736922 0.07411035 0.03180160
v -0.00037752 0.05533665 0.03733646
v -0.02847707 0.07884376 0.00492049
v 0.03233891 0.07484595 0.00366016
v 0.01336250 0.07334277 0.02996840
f 70 8 58
f 70 58 68
f 70 68 67
f 70 67 10
f 70 10 2
f 70 2 1
f 70 1 64
f 70 64 66
f 70 66 63
f 70 63 42
f 70 42 41
f 70 41 61
f 70 61 62
f 70 62 71
f 70 71 72
f 70 72 73
f 70 73 37
f 70 37 36
f 70 36 74
f 70 74 75
f 70 75 5
f 70 5 4
f 1 2 3
f 4 5 6
f 7 8 6
f 9 2 10
f 9 10 11
f 12 13 14
f 12 14 15
f 16 17 18
f 19 20 21
f 19 21 22
f 23 17 24
f 23 25 18
f 23 18 17
f 26 22 27
f 26 27 28
f 29 28 30
f 29 30 31
f 29 14 28
f 32 33 34
f 32 34 20
f 35 36 37
f 35 37 38
f 39 22 21
f 39 27 22
f 40 41 42
f 40 42 43
f 40 24 41
f 44 45 46
f 44 46 47
f 44 47 48
f 49 36 35
f 50 51 52
f 50 52 46
f 50 46 45
f 50 45 51
f 53 54 55
f 53 55 56
f 56 48 57
f 56 57 53
f 58 8 7
f 58 7 59
f 58 59 60
f 61 17 62
f 61 41 24
f 61 24 17
f 63 43 42
f 64 1 12
f 64 12 15
f 64 15 65
f 64 65 66
f 67 68 69
f 70 4 6
f 70 6 8
f 76 69 68
f 76 68 58
f 76 58 60
f 77 15 14
f 77 14 29
f 77 29 78
f 77 78 43
f 71 62 17
f 71 17 79
f 71 79 72
f 47 57 48
f 47 46 39
f 47 39 21
f 47 21 34
f 47 34 57
f 80 27 39
f 80 39 46
f 80 46 52
f 80 52 81
f 80 81 30
f 80 30 27
f 82 83 59
f 82 59 7
f 34 21 20
f 30 28 27
f 84 81 52
f 84 52 51
f 84 51 16
f 84 16 18
f 84 18 25
f 79 38 37
f 79 37 73
f 79 73 72
f 85 9 11
f 85 11 86
f 87 57 34
f 87 54 53
f 87 53 57
f 88 11 69
f 88 69 89
f 88 89 32
f 88 32 20
f 88 86 11
f 44 48 56
f 44 56 45
f 90 23 24
f 90 24 40
f 90 40 91
f 74 36 49
f 74 49 92
f 92 49 35
f 92 35 38
f 92 38 79
f 92 79 17
f 92 17 16
f 92 16 51
f 92 51 45
f 92 45 56
f 92 56 55
f 92 55 6
f 92 6 5
f 92 5 75
f 92 75 74
f 29 31 91
f 29 91 78
f 78 91 40
f 78 40 43
f 65 15 77
f 65 77 43
f 65 43 63
f 65 63 66
f 89 69 76
f 89 76 83
f 89 83 33
f 89 33 32
f 93 19 22
f 93 22 26
f 94 82 7
f 94 7 6
f 6 55 54
f 6 54 94
f 95 25 23
f 95 23 90
f 95 90 91
f 95 91 31
f 96 19 93
f 96 93 13
f 96 13 85
f 96 85 86
f 97 11 10
f 97 10 67
f 97 67 69
f 97 69 11
f 98 13 93
f 98 93 26
f 98 26 28
f 98 28 14
f 98 14 13
f 59 83 76
f 59 76 60
f 99 9 85
f 85 13 12
f 85 12 99
f 99 12 1
f 99 1 3
f 99 3 2
f 99 2 9
f 25 95 31
f 25 31 100
f 100 31 30
f 100 30 81
f 100 81 84
f 100 84 25
f 82 94 54
f 82 54 101
f 101 54 87
f 87 34 33
f 87 33 101
f 101 33 83
f 101 83 82
f 102 20 19
f 102 19 96
f 102 96 86
f 102 86 88
f 102 88 20