# https://github.com/mikedh/trimesh

o geometry_0
v -0.09230575 0.01446887 0.03386181
v -0.08873624 0.01594528 0.03585618
v -0.09042962 0.01938532 0.03182554
v -0.09230575 0.00761095 0.03220025
v -0.09042962 0.00922024 0.03474190
v -0.09007227 0.01275870 0.03585865
v -0.08883370 0.00455971 0.03219039
v -0.06063497 0.01462390 0.03909056
v -0.05111628 0.01719039 0.03857040
v -0.06063497 0.01940008 0.03716029
v -0.06063497 0.00355821 0.01828649
v -0.08884182 0.00323586 0.02495987
v -0.08904893 0.00897171 0.01824212
v -0.06063497 0.00082931 0.02265488
v -0.05111628 0.00178652 0.02021677
v -0.05111628 0.02503997 0.02601006
v -0.05082389 0.01908019 0.01649181
v -0.05111628 0.02359308 0.02097359
v -0.06063497 0.02437804 0.02347334
v -0.05111628 0.01203526 0.03948254
v -0.05111628 0.00695149 0.03821541
v -0.05111628 0.00282001 0.03498842
v -0.05111628 0.00036178 0.03036365
v -0.05111628 -0.00000486 0.02513983
v -0.05111628 0.00542341 0.01644743
v -0.05111628 0.02430914 0.03119690
v -0.05111628 0.02153349 0.03563924
v -0.06063497 0.00153307 0.03270808
v -0.05111628 0.01028325 0.01448265
v -0.06063497 0.02195919 0.01892499
v -0.06063497 0.01789907 0.01575470
v -0.08986110 0.01828539 0.02004667
v -0.08845604 0.02019980 0.02140501
v -0.06063497 0.00947615 0.03891060
v -0.06063497 0.02297791 0.03345258
v -0.08919512 0.02189521 0.02721556
v -0.09230575 0.00903323 0.02064819
v -0.09230575 0.01210170 0.01977549
v -0.09007227 0.01224196 0.01814105
v -0.09230981 0.00543325 0.02572409
v -0.05111628 0.01551466 0.01466507
v -0.06063497 0.01289896 0.01450976
v -0.09230575 0.01940008 0.02516695
v -0.09230575 0.01940500 0.02881549
v -0.06063497 0.00484515 0.03665245
v -0.06063497 0.00011326 0.02775544
v -0.09230575 0.01783263 0.02218895
v -0.06063497 0.00782995 0.01540464
v -0.06063497 0.02473976 0.02861088
v -0.08934131 0.00351884 0.02957478
f 21 22 23
f 21 23 24
f 21 24 15
f 21 15 25
f 21 25 17
f 21 17 16
f 21 16 26
f 21 26 27
f 21 27 9
f 21 9 20
f 1 2 3
f 4 5 6
f 4 6 1
f 4 7 5
f 8 9 10
f 8 10 2
f 11 12 13
f 14 12 11
f 14 11 15
f 16 17 18
f 16 18 19
f 20 9 8
f 22 28 23
f 25 15 11
f 25 29 17
f 24 14 15
f 27 10 9
f 30 18 17
f 31 32 33
f 31 33 30
f 31 30 17
f 34 21 20
f 34 20 8
f 3 2 10
f 3 10 35
f 35 10 27
f 35 27 26
f 35 36 3
f 37 38 39
f 37 39 13
f 37 13 12
f 37 12 40
f 41 29 42
f 41 42 31
f 41 31 17
f 41 17 29
f 33 43 36
f 33 36 19
f 33 19 18
f 33 18 30
f 39 38 32
f 39 32 31
f 39 31 42
f 39 42 13
f 44 1 3
f 44 3 36
f 44 36 43
f 7 28 22
f 7 22 45
f 45 22 21
f 45 21 34
f 45 34 5
f 45 5 7
f 12 14 24
f 12 24 46
f 46 24 23
f 47 38 37
f 47 37 40
f 47 40 4
f 47 4 1
f 47 1 44
f 47 44 43
f 47 43 33
f 47 33 32
f 47 32 38
f 48 29 25
f 48 25 11
f 48 11 13
f 48 13 42
f 48 42 29
f 49 26 16
f 49 16 19
f 49 19 36
f 49 36 35
f 49 35 26
f 50 40 12
f 50 12 46
f 50 46 23
f 50 23 28
f 50 28 7
f 50 7 4
f 50 4 40
f 6 2 1
f 6 5 34
f 6 34 8
f 6 8 2