# https://github.com/mikedh/trimesh

o geometry_0
v 0.04515827 -0.01447045 0.07549907
v 0.04739914 0.00134803 0.07549907
v 0.04699002 -0.04939424 0.09754053
v -0.01946423 -0.04939424 0.11667296
v -0.00122116 -0.04939424 0.11853849
v -0.00122116 0.00862263 0.11878553
v -0.01504758 0.00679451 0.11758442
v 0.04282442 -0.04939424 0.09082374
v 0.01711490 -0.04939424 0.11694128
v 0.01265176 0.00724917 0.11778035
v -0.03780958 -0.04939424 0.08729711
v -0.03440644 -0.03262855 0.07549907
v -0.02267211 -0.04939424 0.07880422
v -0.04757269 -0.04939424 0.09637351
v -0.04389990 -0.01793725 0.07549907
v 0.01579455 -0.04939424 0.07624869
v 0.03533007 -0.03163397 0.07549907
v 0.02940712 -0.04939424 0.08049087
v 0.00314900 -0.04939424 0.07550333
v -0.01054726 0.04563977 0.09261687
v -0.00238343 0.04736370 0.07549907
v -0.01792073 0.04389689 0.07549907
v -0.01944563 0.04313912 0.08383436
v -0.01945493 0.04256133 0.09210577
v -0.03464819 0.02543569 0.10345233
v -0.03123575 0.02248985 0.10893395
v -0.02362982 0.03438686 0.10656156
v -0.02760016 0.03591188 0.09902274
v -0.03467609 0.02953713 0.09743405
v -0.04030150 0.01225994 0.10448306
v 0.04704581 -0.00146520 0.09409483
v 0.04567897 0.01271460 0.07549907
v 0.04519547 0.01122748 0.09279576
v 0.04490722 -0.00322702 0.10183809
v -0.03466679 0.03143155 0.09028282
v -0.03145891 0.03547616 0.07549907
v -0.04142658 0.02307713 0.07549907
v -0.04037589 0.02194047 0.09553870
v -0.04680094 -0.00901450 0.09896312
v -0.04591761 0.00890680 0.09224632
v -0.04725656 0.00391498 0.07549907
v 0.04116934 -0.00907133 0.10698323
v 0.03271728 0.00625460 0.11156614
v 0.03272658 -0.04939424 0.11235836
v 0.04322425 -0.04939424 0.10549250
v 0.04601371 -0.04939424 0.10143772
v 0.00908125 0.04653962 0.07549907
v 0.00814213 0.04610390 0.09265947
v 0.01719858 0.04347065 0.09220373
v 0.01718928 0.04406739 0.08388547
v 0.01881647 0.04352748 0.07549907
v -0.04691252 -0.00688327 0.07549907
v -0.00935709 -0.04939424 0.07586536
v 0.03291254 0.02946134 0.10104587
v 0.03901216 0.02393908 0.09596036
v 0.03294044 0.03313654 0.09049152
v 0.02556696 0.03720956 0.09926552
v 0.02144786 0.03544774 0.10682137
v 0.02931414 0.02724487 0.10745600
v 0.03889129 0.02713120 0.07549907
v 0.03216869 0.03484152 0.07549907
v 0.00345584 0.04080898 0.10879339
v -0.00122116 0.04509986 0.10133124
v -0.00590745 0.04059112 0.10874654
v -0.00122116 0.03778736 0.11180040
v -0.04483902 0.01541416 0.07549907
v -0.04461587 -0.04939424 0.10458954
v -0.03474118 -0.04939424 0.11177911
v -0.03463890 -0.00238400 0.11151077
v -0.04263535 -0.01050162 0.10616120
v -0.03460170 0.01230730 0.10984116
v -0.04442990 -0.00139889 0.10286456
v -0.02359263 0.02010287 0.11383205
v -0.02360193 0.02781319 0.11127652
v 0.02539959 -0.01309699 0.11514815
v 0.02539959 0.00294882 0.11488408
v -0.00122116 0.04684273 0.09280854
v 0.00813283 0.04433261 0.10110550
v -0.01054726 0.04387794 0.10103310
v 0.02556696 0.03974809 0.08351492
v 0.04141110 0.01590672 0.10006199
v 0.03883550 0.01408806 0.10514324
v -0.01051936 0.02479158 0.11626833
v -0.01504758 0.03162100 0.11297595
v -0.02361123 0.00393392 0.11568055
v -0.00122116 0.02585246 0.11681351
v 0.00809564 0.02516100 0.11639184
v 0.02136417 0.02102167 0.11416427
v 0.01267036 0.03223668 0.11315057
v 0.02923045 0.01645609 0.11180040
v -0.04261675 0.01384178 0.09944867
v 0.02139207 0.02881724 0.11158744
v -0.02760016 -0.01375057 0.11471797
v -0.02760016 0.03775894 0.09131781
v 0.01269825 0.03904715 0.10812044
v 0.01271685 0.04149097 0.10468324
v 0.03634358 -0.04939424 0.08466491
v -0.01506618 0.03839358 0.10797562
v -0.01507548 0.04082792 0.10455121
v 0.01718928 0.04165200 0.10039847
v -0.04700550 -0.04939424 0.10038569
v 0.04348460 0.01871994 0.07549907
v -0.01945493 0.04076161 0.10024514
v -0.00590745 0.03371434 0.11390872
v 0.00344654 0.03391325 0.11396409
v 0.03877041 0.00748597 0.10724304
v 0.03608323 0.02361704 0.10269845
v 0.04356828 0.01755487 0.08794877
f 32 2 1
f 32 1 17
f 32 17 19
f 32 19 12
f 32 12 15
f 32 15 52
f 32 52 41
f 32 41 66
f 32 66 37
f 32 37 36
f 32 36 22
f 32 22 21
f 32 21 47
f 32 47 51
f 32 51 61
f 32 61 60
f 32 60 102
f 1 2 3
f 4 5 6
f 4 6 7
f 8 1 3
f 9 10 6
f 9 6 5
f 11 12 13
f 11 14 15
f 11 15 12
f 16 17 18
f 16 19 17
f 20 21 22
f 22 23 24
f 22 24 20
f 25 26 27
f 27 28 29
f 27 29 25
f 25 30 26
f 31 2 32
f 31 32 33
f 31 33 34
f 31 3 2
f 35 36 37
f 35 37 38
f 39 40 41
f 39 41 14
f 42 43 44
f 42 44 45
f 42 45 46
f 42 46 34
f 47 48 49
f 47 49 50
f 47 50 51
f 52 15 14
f 52 14 41
f 53 13 12
f 53 12 19
f 54 55 56
f 54 56 57
f 54 57 58
f 54 58 59
f 60 61 56
f 60 56 55
f 62 63 64
f 62 64 65
f 66 41 40
f 66 40 38
f 66 38 37
f 67 68 69
f 67 69 70
f 71 26 30
f 71 30 72
f 71 72 70
f 71 70 69
f 71 73 74
f 71 74 26
f 75 76 10
f 75 10 9
f 75 9 44
f 44 43 76
f 44 76 75
f 77 63 78
f 77 78 48
f 77 48 47
f 77 47 21
f 77 21 20
f 77 20 79
f 77 79 63
f 80 61 51
f 80 51 50
f 80 50 49
f 80 49 57
f 80 57 56
f 80 56 61
f 81 82 34
f 81 34 33
f 83 84 73
f 83 73 85
f 83 85 7
f 7 6 86
f 7 86 83
f 87 86 6
f 87 6 10
f 87 10 88
f 87 88 89
f 90 82 59
f 91 40 39
f 91 39 72
f 91 72 30
f 91 30 25
f 91 25 38
f 91 38 40
f 92 89 88
f 92 88 90
f 92 90 59
f 92 59 58
f 93 69 68
f 93 68 4
f 94 24 23
f 94 23 22
f 94 22 36
f 94 36 35
f 94 35 29
f 94 29 28
f 95 96 62
f 95 89 92
f 95 92 58
f 95 58 96
f 97 17 1
f 97 1 8
f 97 18 17
f 29 35 38
f 29 38 25
f 98 64 99
f 98 99 27
f 98 27 74
f 98 74 84
f 78 100 49
f 78 49 48
f 78 63 62
f 78 62 96
f 67 70 72
f 67 72 39
f 67 39 101
f 101 39 14
f 20 24 103
f 20 103 79
f 79 99 64
f 79 64 63
f 98 84 104
f 98 104 65
f 98 65 64
f 104 84 83
f 104 83 86
f 74 27 26
f 74 73 84
f 46 45 44
f 46 44 9
f 46 9 5
f 46 5 4
f 46 4 68
f 46 68 67
f 46 67 101
f 46 101 14
f 46 14 11
f 46 11 13
f 46 13 53
f 46 53 19
f 46 19 16
f 46 16 18
f 46 18 97
f 46 97 8
f 46 8 3
f 46 3 31
f 46 31 34
f 105 65 104
f 105 104 86
f 105 86 87
f 105 87 89
f 62 65 105
f 62 105 89
f 62 89 95
f 76 88 10
f 76 43 90
f 76 90 88
f 100 57 49
f 100 78 96
f 100 96 58
f 100 58 57
f 73 71 69
f 73 69 85
f 85 69 93
f 85 93 4
f 85 4 7
f 103 99 79
f 24 94 28
f 24 28 103
f 103 28 27
f 103 27 99
f 106 43 42
f 106 42 34
f 106 34 82
f 106 82 90
f 106 90 43
f 107 82 81
f 107 81 55
f 107 55 54
f 107 54 59
f 107 59 82
f 108 55 81
f 108 81 33
f 108 33 32
f 108 32 102
f 108 102 60
f 108 60 55