# https://github.com/mikedh/trimesh

o geometry_0
v -0.04040280 -0.03125947 -0.05092727
v -0.04040280 -0.03139648 -0.06128722
v -0.02094126 -0.03400287 -0.05875138
v -0.02094126 -0.03350704 -0.05092438
v -0.02094126 -0.00100375 -0.05092438
v -0.04040280 -0.00067754 -0.05093016
v -0.03072061 -0.00346988 -0.07171937
v -0.02358376 -0.00937423 -0.07355914
v -0.02094126 -0.01972478 -0.07144210
v -0.03266582 -0.01637464 -0.07960124
v -0.03796035 -0.02692092 -0.07267536
v -0.03914919 -0.01890600 -0.07169337
v -0.03483774 -0.01078997 -0.07628271
v -0.03234193 -0.00691136 -0.07603721
v -0.02693881 -0.00695377 -0.07598523
v -0.02873350 -0.01125971 -0.07945972
v -0.04040280 -0.00418101 -0.05864452
v -0.04040280 -0.01975740 -0.06901891
v -0.03295540 -0.02958929 -0.07327321
v -0.02670256 -0.02927939 -0.07392306
v -0.03072061 -0.02710359 -0.07730513
v -0.03134933 -0.02271610 -0.07945683
v -0.02563946 -0.01335722 -0.07836799
v -0.02709694 -0.02440259 -0.07816292
v -0.02960417 -0.01637464 -0.08043015
v -0.02696548 -0.01880488 -0.07935286
v -0.02347707 -0.02695354 -0.07381042
v -0.02674638 -0.00459856 -0.07279088
v -0.02094126 -0.03276002 -0.06323097
v -0.02117369 -0.02599122 -0.07060163
v -0.03183706 -0.01078997 -0.07886187
v -0.03585511 -0.02818334 -0.07393172
v -0.02345421 -0.01807744 -0.07607476
f 29 9 5
f 29 5 4
f 29 4 3
f 1 2 3
f 4 5 6
f 4 6 1
f 4 1 3
f 7 6 5
f 8 5 9
f 10 11 12
f 10 12 13
f 14 7 15
f 14 15 16
f 17 6 7
f 17 7 14
f 17 14 13
f 13 12 18
f 13 18 17
f 19 3 2
f 20 19 21
f 22 11 10
f 23 16 15
f 23 15 8
f 24 21 22
f 24 22 25
f 24 25 26
f 24 27 20
f 24 20 21
f 28 5 8
f 28 8 15
f 28 15 7
f 28 7 5
f 29 3 19
f 29 19 20
f 29 20 27
f 29 27 30
f 29 30 9
f 25 16 23
f 25 23 26
f 25 22 10
f 18 2 1
f 18 1 6
f 18 6 17
f 18 12 11
f 18 11 2
f 31 10 13
f 31 13 14
f 31 14 16
f 31 16 25
f 31 25 10
f 32 21 19
f 32 19 2
f 32 2 11
f 32 11 22
f 32 22 21
f 27 24 26
f 27 26 33
f 33 26 23
f 33 23 8
f 33 8 9
f 33 9 30
f 33 30 27