# https://github.com/mikedh/trimesh

o geometry_0
v 0.00095436 -0.03253469 -0.05422457
v 0.00095436 -0.03275826 -0.05763310
v 0.01698027 -0.02828988 -0.05422457
v 0.01487529 -0.02823782 -0.06768763
v 0.01831945 -0.02733128 -0.06433898
v 0.02016467 -0.02484443 -0.06394338
v 0.01964709 -0.02195943 -0.05422457
v 0.02005115 -0.01723686 -0.06433898
v 0.01324365 -0.02349687 -0.07378194
v 0.01285498 -0.01525840 -0.07551828
v 0.01786921 -0.02470661 -0.06934485
v 0.01456551 -0.00460352 -0.06504035
v 0.00950510 -0.00147045 -0.06322062
v 0.01061916 -0.00295276 -0.05422457
v 0.01550833 -0.00587144 -0.05422457
v 0.00095436 -0.00277513 -0.05422457
v 0.01062301 -0.00346728 -0.06945605
v 0.01583350 -0.00858493 -0.06985378
v 0.01343414 -0.00796322 -0.07274056
v 0.01839064 -0.01079003 -0.05422457
v 0.00095436 -0.03163121 -0.06186490
v 0.00095436 -0.02741091 -0.06540601
v 0.00892595 -0.02699133 -0.07160296
v 0.01671474 -0.01414054 -0.07149390
v 0.00950510 -0.02307729 -0.07424810
v 0.01222195 -0.01026632 -0.07494092
v 0.00780996 -0.00796934 -0.07384609
v 0.00758869 -0.00344584 -0.06949026
v 0.00663241 -0.00235555 -0.06615016
v 0.00566073 -0.00472296 -0.06927643
v 0.01456166 -0.02588878 -0.07162006
v 0.01006117 -0.01469794 -0.07606997
v 0.00700184 -0.01525840 -0.07476557
v 0.00440237 -0.01005806 -0.07168421
v 0.00095436 -0.02197781 -0.06791858
v 0.00095436 -0.01637626 -0.06805329
v 0.00324020 -0.00772433 -0.06853228
v 0.01768065 -0.00975179 -0.06428765
f 20 15 14
f 20 14 16
f 20 16 1
f 20 1 3
f 20 3 7
f 1 2 3
f 4 5 3
f 4 3 2
f 6 7 3
f 6 8 7
f 9 10 11
f 12 13 14
f 12 14 15
f 14 13 16
f 17 13 12
f 17 12 18
f 17 18 19
f 20 7 8
f 21 22 23
f 21 23 4
f 21 4 2
f 24 8 6
f 24 6 11
f 24 11 10
f 25 9 23
f 25 23 22
f 26 27 17
f 26 17 19
f 26 19 24
f 26 24 10
f 13 17 28
f 13 28 29
f 29 30 16
f 29 16 13
f 5 4 31
f 5 31 11
f 5 11 6
f 5 6 3
f 18 8 24
f 18 24 19
f 32 33 27
f 32 27 26
f 32 26 10
f 32 10 9
f 32 9 25
f 32 25 33
f 34 30 27
f 34 27 33
f 34 33 35
f 34 35 36
f 37 30 34
f 37 34 36
f 37 36 16
f 37 16 30
f 35 33 25
f 35 25 22
f 35 22 21
f 35 21 2
f 35 2 1
f 35 1 16
f 35 16 36
f 31 4 23
f 31 23 9
f 31 9 11
f 28 30 29
f 28 17 27
f 28 27 30
f 38 8 18
f 38 18 12
f 12 15 20
f 12 20 38
f 38 20 8