# https://github.com/mikedh/trimesh

o geometry_0
v -0.06194555 -0.01190500 -0.05092685
v -0.05970729 -0.01860879 -0.06656985
v -0.06155972 -0.02169776 -0.05092685
v -0.04579382 -0.01365258 -0.07496221
v -0.04471093 -0.00694879 -0.07268619
v -0.04040281 -0.02217953 -0.06870995
v -0.04040281 -0.03165111 -0.05986782
v -0.05696169 -0.02586047 -0.06597181
v -0.05345934 -0.02469857 -0.07155188
v -0.05019148 -0.02586362 -0.07046948
v -0.05307138 -0.00080863 -0.05092685
v -0.04971824 0.00051702 -0.06322131
v -0.05051123 -0.00004662 -0.06632272
v -0.05809787 -0.00351660 -0.05092685
v -0.04040281 -0.03126066 -0.05092932
v -0.04040281 -0.00067953 -0.05092932
v -0.06035745 -0.02479303 -0.05092932
v -0.05642024 -0.02752619 -0.05092685
v -0.04792976 -0.02371614 -0.07277268
v -0.05923193 -0.02367835 -0.06605089
v -0.05998441 -0.02542594 -0.05428280
v -0.05690840 -0.02236845 -0.07042747
v -0.04040281 -0.00418099 -0.05864456
v -0.04568937 -0.00120538 -0.06731369
v -0.05143424 -0.02034063 -0.07497209
v -0.05258109 -0.02924228 -0.05715192
v -0.05144277 -0.00459348 -0.07275291
v -0.04971824 -0.00219095 -0.07072649
v -0.04859911 -0.00631903 -0.07438393
v -0.05083524 -0.01079032 -0.07577772
v -0.05481082 -0.00783045 -0.07169028
v -0.05363414 -0.00240192 -0.06714318
v -0.04675094 -0.00230746 -0.07060540
v -0.04672323 -0.00889474 -0.07503634
v -0.05696595 -0.00690155 -0.06595451
v -0.04040281 -0.03024990 -0.06259361
v -0.04244708 -0.00795640 -0.06938707
v -0.04802143 -0.01362109 -0.07607427
v -0.05499628 -0.01302282 -0.07296297
v -0.04793403 -0.00016312 -0.06715801
f 15 16 11
f 15 11 14
f 15 14 1
f 15 1 3
f 15 3 17
f 15 17 18
f 1 2 3
f 4 5 6
f 7 8 9
f 7 9 10
f 11 12 13
f 11 13 14
f 11 16 12
f 19 4 6
f 20 8 21
f 20 21 3
f 20 3 2
f 20 2 22
f 23 24 16
f 8 20 22
f 8 22 9
f 9 22 25
f 9 25 19
f 9 19 10
f 26 7 15
f 26 15 18
f 26 18 21
f 26 21 8
f 26 8 7
f 17 3 21
f 17 21 18
f 27 28 29
f 27 29 30
f 27 30 31
f 27 31 32
f 27 32 13
f 27 13 28
f 33 5 34
f 33 34 29
f 33 29 28
f 35 1 14
f 35 14 32
f 35 32 31
f 35 31 2
f 35 2 1
f 36 7 10
f 36 10 19
f 36 19 6
f 36 6 23
f 36 23 16
f 36 16 15
f 36 15 7
f 37 5 33
f 37 33 24
f 37 24 23
f 37 23 6
f 37 6 5
f 38 4 19
f 38 19 25
f 38 25 30
f 39 30 25
f 39 25 22
f 39 22 2
f 39 2 31
f 39 31 30
f 40 24 33
f 40 33 28
f 40 12 16
f 40 16 24
f 34 5 4
f 34 4 38
f 34 38 30
f 34 30 29
f 13 12 40
f 13 40 28
f 13 32 14