# https://github.com/mikedh/trimesh

o geometry_0
v -0.00309763 -0.01414079 -0.07644022
v 0.00095244 -0.01431268 -0.06744456
v -0.00100831 -0.02719831 -0.07287284
v -0.00541838 -0.02510748 -0.07845292
v -0.00673197 -0.01586908 -0.08052844
v -0.02093935 -0.01511588 -0.06881602
v -0.02093935 -0.00258654 -0.05422457
v -0.01318851 -0.00710885 -0.07439087
v -0.01218564 -0.01268752 -0.07935851
v -0.02093935 -0.02084144 -0.07143594
v -0.01060847 -0.01637538 -0.08077447
v -0.01107347 -0.02455118 -0.07937159
v -0.00426336 -0.03046113 -0.07292780
v 0.00095244 -0.03266447 -0.05852741
v -0.01395995 -0.03449277 -0.05875250
v -0.01172491 -0.03110807 -0.07327590
v -0.02093935 -0.02531063 -0.07015084
v -0.01365352 -0.02935165 -0.07512633
v -0.02093935 -0.03276136 -0.06323070
v -0.00725698 -0.02937978 -0.07627271
v -0.00655626 -0.00564621 -0.07291471
v -0.00549338 -0.00899966 -0.07622560
v -0.00949202 -0.00915280 -0.07827756
v -0.01107347 -0.00688696 -0.07605809
v -0.00949202 -0.00503365 -0.07327590
v -0.00718413 -0.03387709 -0.05422457
v 0.00095244 -0.03253633 -0.05422457
v 0.00095244 -0.00277718 -0.05422457
v -0.01843003 -0.00256778 -0.05422457
v -0.02093935 -0.03378646 -0.05422457
v -0.01060847 -0.02843593 -0.07746096
v 0.00065672 -0.02531063 -0.06880555
v -0.00837557 -0.02307604 -0.08009397
v 0.00095244 -0.00501490 -0.05894095
v -0.02093935 -0.03393335 -0.05988579
v -0.00949202 -0.00373352 -0.06880555
v -0.00440694 -0.02816091 -0.07613138
v -0.00661197 -0.01236562 -0.07946843
v -0.01217492 -0.00469299 -0.07146735
f 35 30 7
f 35 7 6
f 35 6 10
f 35 10 17
f 35 17 19
f 1 2 3
f 3 4 5
f 3 5 1
f 6 7 8
f 6 8 9
f 6 9 10
f 11 12 10
f 11 10 9
f 13 3 14
f 14 15 16
f 14 16 13
f 17 10 12
f 17 12 18
f 17 18 19
f 16 19 18
f 16 20 13
f 21 22 23
f 21 23 24
f 21 24 25
f 26 15 14
f 26 14 27
f 26 27 28
f 26 28 29
f 26 29 7
f 26 7 30
f 26 30 15
f 31 20 16
f 31 16 18
f 31 18 12
f 32 3 2
f 32 14 3
f 33 5 4
f 33 4 20
f 33 20 31
f 33 31 12
f 33 12 11
f 33 11 5
f 34 2 1
f 34 1 22
f 34 22 21
f 34 21 28
f 34 28 27
f 34 27 14
f 34 14 32
f 34 32 2
f 35 19 16
f 35 16 15
f 35 15 30
f 28 21 25
f 28 25 36
f 36 7 29
f 36 29 28
f 37 3 13
f 37 13 20
f 37 20 4
f 37 4 3
f 38 5 11
f 38 11 9
f 38 9 23
f 38 23 22
f 38 22 1
f 38 1 5
f 39 8 7
f 39 7 36
f 39 36 25
f 24 23 9
f 24 9 8
f 24 8 39
f 24 39 25