# https://github.com/mikedh/trimesh

o geometry_0
v -0.06174958 -0.02084292 -0.05092438
v -0.06172064 -0.01078205 -0.05092438
v -0.06014942 -0.00634593 -0.05092438
v -0.02093935 -0.00258677 -0.05422457
v -0.01507467 -0.03414882 -0.05422457
v -0.05195016 -0.02900411 -0.05092438
v 0.01544897 -0.00036786 -0.03863414
v 0.01005796 0.00540667 -0.01574909
v 0.01368676 -0.00062450 -0.01618660
v 0.01903763 -0.00674657 -0.03560523
v 0.01838734 -0.01078339 -0.05422457
v 0.01583433 -0.00554889 -0.05293729
v 0.01898946 -0.01571312 -0.03148256
v 0.01283576 -0.00966591 0.00158297
v -0.06033549 -0.02475902 -0.05033598
v -0.02066238 -0.02633718 0.02728657
v 0.01682583 -0.02814973 -0.05239040
v -0.01111671 -0.02143418 0.03011355
v -0.03072223 -0.02633501 0.02839807
v -0.00551295 -0.03369969 -0.05361879
v -0.04690160 -0.02026983 0.02219603
v -0.05036241 -0.01479366 0.02680780
v -0.05921496 -0.01358381 0.00662733
v -0.00471413 0.01182815 0.02839717
v 0.00697910 0.00776995 -0.01740657
v -0.01172285 0.01734068 0.02616756
v -0.03072223 0.01924668 0.01499213
v -0.02290337 0.02057858 0.02392942
v -0.00055145 0.01014926 -0.01740657
v 0.01620765 -0.02865233 -0.05422457
v 0.01964778 -0.02195816 -0.05422457
v -0.03257874 0.01888585 0.02902622
v -0.01954644 0.01867203 0.02991162
v -0.04239057 -0.02135764 0.02777786
v 0.00221430 -0.00541522 0.02780822
v -0.00331721 -0.01138757 0.03121574
v 0.00329411 -0.01228049 0.02325645
v -0.05195430 -0.00066812 -0.05092438
v -0.05685814 -0.00247759 -0.05092438
v -0.05593609 -0.00013217 -0.04601046
v -0.01954644 -0.02485612 0.03016403
v -0.05343455 -0.00743373 0.02644999
v -0.05281433 0.00150219 0.02699863
v 0.01550517 -0.00586969 -0.05422457
v 0.01061593 -0.00295570 -0.05422457
v 0.00052033 0.00415017 -0.03853317
v -0.06257240 -0.01248539 -0.01563639
v 0.00786623 0.00318775 -0.03923150
v -0.06143120 -0.00787416 0.00873443
v -0.05880149 -0.00631940 0.01611327
v -0.06234085 -0.00185144 0.00605483
v -0.05973594 0.00261652 0.01163667
v -0.05478248 0.00993400 0.01340981
v -0.06027347 0.00643180 0.00158619
v -0.04636408 0.01500689 0.01275780
v -0.03916544 0.01662003 0.02787328
v 0.01011818 -0.00670379 0.01123339
v 0.00335834 0.00094211 0.02449325
v 0.01895333 -0.02456739 -0.04868841
v 0.01111369 -0.01227514 0.00531861
v 0.01118995 -0.01582540 -0.00118511
v -0.06311819 -0.00743373 -0.02858115
v -0.06189843 0.00261652 -0.01293294
v -0.06033135 -0.00463728 -0.04591504
v -0.01257787 0.01643173 0.02986955
v -0.00678945 0.01094059 0.03117367
v -0.05908678 0.00755145 -0.00623792
v -0.05627928 0.01011973 0.00158619
v 0.00896611 -0.02029531 -0.00674652
v -0.05470393 0.00987564 -0.00564157
v 0.00220226 -0.01578263 0.01994148
v -0.04019500 -0.02474310 0.01771148
v -0.05815646 -0.01920856 -0.01102462
v -0.03295914 -0.03235774 -0.05092438
v -0.00101710 -0.00073144 0.03126621
v -0.00278332 -0.00520135 0.03172897
v -0.00004166 0.00526231 0.02883468
v -0.00043504 0.00373847 0.02968446
v -0.05122658 0.00627261 0.02642614
v -0.04700497 0.01108018 0.02688731
v -0.04699670 0.01000299 0.02788123
v -0.03072223 -0.02531088 0.02935223
v -0.00885674 -0.01809778 0.03121574
v -0.01731056 0.01955425 0.02616756
v -0.06062492 -0.00296577 0.01275780
v 0.01978025 -0.01413582 -0.04980742
v -0.05266135 0.01221043 0.01163667
v -0.06299828 -0.00073179 -0.00847224
v -0.05921496 0.00094502 -0.03362229
f 81 43 82
f 81 82 83
f 81 83 76
f 81 76 66
f 81 66 33
f 81 33 32
f 1 2 3
f 1 3 4
f 1 4 5
f 6 1 5
f 7 8 9
f 7 9 10
f 10 11 12
f 10 12 7
f 13 10 14
f 15 1 6
f 16 17 18
f 19 5 20
f 19 20 16
f 21 22 23
f 24 8 25
f 24 25 26
f 27 28 29
f 30 31 17
f 30 17 16
f 32 33 28
f 32 28 27
f 34 22 21
f 35 36 37
f 38 4 39
f 38 39 40
f 41 19 16
f 41 16 18
f 42 22 43
f 12 44 45
f 12 45 7
f 46 45 4
f 46 4 38
f 38 27 29
f 38 29 46
f 47 1 15
f 47 15 23
f 20 5 30
f 20 30 16
f 48 7 45
f 48 45 46
f 48 46 29
f 49 23 22
f 49 22 42
f 49 42 50
f 49 51 47
f 49 47 23
f 52 53 54
f 52 54 51
f 55 56 32
f 55 32 27
f 57 58 35
f 57 35 37
f 59 17 31
f 59 31 13
f 59 13 60
f 59 60 61
f 62 2 1
f 62 1 47
f 62 63 64
f 62 64 2
f 65 66 24
f 65 24 26
f 65 33 66
f 25 8 7
f 25 7 48
f 25 48 29
f 67 63 54
f 67 54 68
f 69 17 59
f 69 59 61
f 69 18 17
f 70 68 55
f 70 55 27
f 70 27 38
f 70 38 40
f 70 40 67
f 70 67 68
f 9 58 57
f 9 57 14
f 9 14 10
f 71 18 69
f 71 69 61
f 71 37 18
f 3 2 64
f 3 39 4
f 72 19 34
f 72 34 21
f 72 21 73
f 72 73 15
f 72 15 6
f 72 6 19
f 74 19 6
f 74 6 5
f 74 5 19
f 75 76 36
f 75 36 35
f 75 35 77
f 75 77 78
f 75 78 66
f 75 66 76
f 79 80 53
f 79 53 52
f 79 52 43
f 44 12 11
f 44 11 31
f 44 31 30
f 44 30 5
f 44 5 4
f 44 4 45
f 81 56 80
f 81 80 79
f 81 79 43
f 81 32 56
f 73 21 23
f 73 23 15
f 77 24 66
f 77 66 78
f 77 35 58
f 77 58 9
f 77 9 8
f 77 8 24
f 84 33 65
f 84 65 26
f 84 26 25
f 84 25 29
f 84 29 28
f 84 28 33
f 85 50 42
f 85 42 43
f 85 43 52
f 85 52 51
f 85 51 49
f 85 49 50
f 60 37 71
f 60 71 61
f 60 13 14
f 60 14 57
f 60 57 37
f 86 10 13
f 86 13 31
f 86 31 11
f 86 11 10
f 82 19 41
f 82 43 22
f 82 22 34
f 82 34 19
f 87 53 80
f 87 80 56
f 87 56 55
f 87 55 68
f 68 54 53
f 68 53 87
f 88 63 62
f 62 47 51
f 62 51 88
f 88 51 54
f 88 54 63
f 89 40 39
f 89 39 3
f 89 3 64
f 89 64 63
f 89 63 67
f 89 67 40
f 83 36 76
f 83 82 41
f 83 41 18
f 83 18 37
f 83 37 36