# https://github.com/mikedh/trimesh

o geometry_0
v 0.01663000 -0.00688800 0.00420000
v 0.01800000 0.00000000 0.00420000
v 0.01663000 0.00688800 0.00420000
v 0.01272800 0.01272800 0.00420000
v 0.00688800 0.01663000 0.00420000
v 0.00000000 0.01800000 0.00420000
v -0.00688800 0.01663000 0.00420000
v -0.01272800 0.01272800 0.00420000
v -0.01663000 0.00688800 0.00420000
v -0.01800000 0.00000000 0.00420000
v -0.01663000 -0.00688800 0.00420000
v -0.01272800 -0.01272800 0.00420000
v -0.00688800 -0.01663000 0.00420000
v 0.00000000 -0.01800000 0.00420000
v 0.00688800 -0.01663000 0.00420000
v 0.01272800 -0.01272800 0.00420000
v 0.00688800 0.01663000 -0.00020000
v 0.00000000 0.01800000 -0.00020000
v 0.01272800 0.01272800 -0.00020000
v 0.01663000 0.00688800 -0.00020000
v 0.01800000 0.00000000 -0.00020000
v -0.00688800 0.01663000 -0.00020000
v -0.01272800 0.01272800 -0.00020000
v -0.01663000 0.00688800 -0.00020000
v -0.01800000 0.00000000 -0.00020000
v -0.00688800 -0.01663000 -0.00020000
v 0.00000000 -0.01800000 -0.00020000
v -0.01272800 -0.01272800 -0.00020000
v -0.01663000 -0.00688800 -0.00020000
v 0.00688800 -0.01663000 -0.00020000
v 0.01272800 -0.01272800 -0.00020000
v 0.01663000 -0.00688800 -0.00020000
f 1 2 3
f 1 3 4
f 1 4 5
f 1 5 6
f 1 6 7
f 1 7 8
f 1 8 9
f 1 9 10
f 1 10 11
f 1 11 12
f 1 12 13
f 1 13 14
f 1 14 15
f 1 15 16
f 17 18 6
f 17 6 5
f 17 5 4
f 17 4 19
f 20 19 4
f 20 4 3
f 20 3 2
f 20 2 21
f 22 23 8
f 22 8 7
f 22 7 6
f 22 6 18
f 24 25 10
f 24 10 9
f 24 9 8
f 24 8 23
f 26 27 14
f 26 14 13
f 26 13 12
f 26 12 28
f 29 28 12
f 29 12 11
f 29 11 10
f 29 10 25
f 30 31 16
f 30 16 15
f 30 15 14
f 30 14 27
f 32 21 2
f 32 2 1
f 32 1 16
f 32 16 31
f 32 31 30
f 32 30 27
f 32 27 26
f 32 26 28
f 32 28 29
f 32 29 25
f 32 25 24
f 32 24 23
f 32 23 22
f 32 22 18
f 32 18 17
f 32 17 19
f 32 19 20
f 32 20 21