# https://github.com/mikedh/trimesh

o geometry_0
v 0.01847800 -0.00765400 0.00600000
v 0.02000000 0.00000000 0.00600000
v 0.01847800 0.00765400 0.00600000
v 0.01414200 0.01414200 0.00600000
v 0.00765400 0.01847800 0.00600000
v 0.00000000 0.02000000 0.00600000
v -0.00765400 0.01847800 0.00600000
v -0.01414200 0.01414200 0.00600000
v -0.01847800 0.00765400 0.00600000
v -0.02000000 0.00000000 0.00600000
v -0.01847800 -0.00765400 0.00600000
v -0.01414200 -0.01414200 0.00600000
v -0.00765400 -0.01847800 0.00600000
v 0.00000000 -0.02000000 0.00600000
v 0.00765400 -0.01847800 0.00600000
v 0.01414200 -0.01414200 0.00600000
v 0.01847800 0.00765400 0.00400000
v 0.01414200 0.01414200 0.00400000
v 0.02000000 0.00000000 0.00400000
v -0.00765400 0.01847800 0.00400000
v -0.01414200 0.01414200 0.00400000
v 0.00000000 0.02000000 0.00400000
v -0.01847800 -0.00765400 0.00400000
v -0.01414200 -0.01414200 0.00400000
v -0.02000000 0.00000000 0.00400000
v 0.00765400 -0.01847800 0.00400000
v 0.01414200 -0.01414200 0.00400000
v 0.00000000 -0.02000000 0.00400000
v 0.00765400 0.01847800 0.00400000
v -0.01847800 0.00765400 0.00400000
v -0.00765400 -0.01847800 0.00400000
v 0.01847800 -0.00765400 0.00400000
f 1 2 3
f 1 3 4
f 1 4 5
f 1 5 6
f 1 6 7
f 1 7 8
f 1 8 9
f 1 9 10
f 1 10 11
f 1 11 12
f 1 12 13
f 1 13 14
f 1 14 15
f 1 15 16
f 17 18 4
f 17 4 3
f 17 3 2
f 17 2 19
f 20 21 8
f 20 8 7
f 20 7 6
f 20 6 22
f 23 24 12
f 23 12 11
f 23 11 10
f 23 10 25
f 26 27 16
f 26 16 15
f 26 15 14
f 26 14 28
f 29 22 6
f 29 6 5
f 29 5 4
f 29 4 18
f 30 25 10
f 30 10 9
f 30 9 8
f 30 8 21
f 31 28 14
f 31 14 13
f 31 13 12
f 31 12 24
f 32 19 2
f 32 2 1
f 32 1 16
f 32 16 27
f 32 27 26
f 32 26 28
f 32 28 31
f 32 31 24
f 32 24 23
f 32 23 25
f 32 25 30
f 32 30 21
f 32 21 20
f 32 20 22
f 32 22 29
f 32 29 18
f 32 18 17
f 32 17 19