# https://github.com/mikedh/trimesh

o geometry_0
v 0.01667400 -0.00703700 0.00495000
v 0.01531000 -0.01179500 0.00700000
v 0.03142800 -0.01363000 0.00646700
v 0.01394600 -0.01655300 -0.00495000
v 0.02890800 -0.02242200 -0.00267900
v 0.01338000 -0.01852400 0.00000000
v 0.01394600 -0.01655300 0.00495000
v 0.01723900 -0.00506600 0.00000000
v 0.01667400 -0.00703700 -0.00495000
v 0.01531000 -0.01179500 -0.00700000
v 0.03205400 -0.01144700 -0.00495000
v 0.03069000 -0.01620500 -0.00700000
v 0.03262000 -0.00947600 0.00000000
v 0.02879800 -0.02280500 0.00136600
v 0.02932600 -0.02096300 0.00495000
v 0.03229400 -0.01061000 0.00388900
v 0.03031400 -0.01751800 0.00686500
v 0.02961800 -0.01994300 -0.00582000
f 18 12 11
f 18 11 13
f 18 13 16
f 18 16 3
f 18 3 17
f 18 17 15
f 18 15 14
f 18 14 5
f 1 2 3
f 4 5 6
f 7 2 1
f 7 1 8
f 7 8 9
f 7 9 10
f 7 10 4
f 7 4 6
f 11 12 10
f 11 10 9
f 11 9 8
f 11 8 13
f 14 6 5
f 14 15 7
f 14 7 6
f 16 13 8
f 16 8 1
f 16 1 3
f 17 3 2
f 17 2 7
f 17 7 15
f 18 5 4
f 18 4 10
f 18 10 12