# https://github.com/mikedh/trimesh

o geometry_0
v 0.09989094 0.03495084 -0.02889969
v 0.10224708 0.06851706 -0.02678118
v 0.10771537 0.06851706 -0.02000781
v 0.10769335 0.03495084 -0.02003713
v 0.03864608 0.03495084 0.00311990
v 0.03850662 0.06851706 -0.00070662
v 0.03998930 0.03495084 -0.01044151
v 0.07986746 0.03495084 -0.03729311
v 0.08743498 0.06851706 -0.03570972
v 0.09015812 0.03495084 -0.03472011
v 0.05687861 0.03495084 -0.03225706
v 0.05112406 0.03495084 -0.02804936
v 0.05418484 0.06851706 -0.03049774
v 0.04352718 0.03495084 0.01874118
v 0.05012583 0.03495084 0.02706129
v 0.04682283 0.06851706 0.02354998
v 0.04217662 0.06851706 0.01619017
v 0.04014344 0.03495084 0.01094154
v 0.11294144 0.03495084 0.00641862
v 0.10955036 0.03495084 0.01673996
v 0.10032400 0.03495084 0.02853472
v 0.09363727 0.03502314 0.03308696
v 0.08606975 0.03502314 0.03612178
v 0.07746728 0.03502314 0.03747059
v 0.06879141 0.03502314 0.03679618
v 0.06049723 0.03502314 0.03414254
v 0.04284456 0.03502314 -0.01751544
v 0.07009793 0.03495084 -0.03702921
v 0.11104038 0.03495084 -0.01334439
v 0.11349194 0.03502314 -0.00076526
v 0.11315429 0.06851706 0.00505515
v 0.07888390 0.06851706 -0.03738841
v 0.07019335 0.06851706 -0.03704387
v 0.11147344 0.06851706 -0.01214952
v 0.08606975 0.06851706 0.03612178
v 0.07746728 0.06851706 0.03747059
v 0.09412905 0.06851706 0.03282306
v 0.10120480 0.06851706 0.02775769
v 0.06180374 0.06851706 -0.03470544
v 0.09536217 0.06851706 -0.03211045
v 0.04774033 0.06851706 -0.02464068
v 0.04281520 0.06851706 -0.01745680
v 0.05303980 0.06851706 0.02964162
v 0.06049723 0.06851706 0.03414254
v 0.11098166 0.06851706 0.01349255
v 0.10692999 0.06851706 0.02119690
v 0.06879141 0.06851706 0.03679618
v 0.11331578 0.06851706 -0.00363881
v 0.03935806 0.06851706 0.00795069
v 0.03968836 0.06851706 -0.00933461
v 0.10588037 0.03502314 0.02265566
f 50 6 49
f 50 49 17
f 50 17 16
f 50 16 43
f 50 43 44
f 50 44 47
f 50 47 36
f 50 36 35
f 50 35 37
f 50 37 38
f 50 38 46
f 50 46 45
f 50 45 31
f 50 31 48
f 50 48 34
f 50 34 3
f 50 3 2
f 50 2 40
f 50 40 9
f 50 9 32
f 50 32 33
f 50 33 39
f 50 39 13
f 50 13 41
f 50 41 42
f 1 2 3
f 1 3 4
f 5 6 7
f 8 9 10
f 11 12 13
f 14 15 16
f 14 16 17
f 14 17 18
f 19 20 21
f 19 21 22
f 19 22 23
f 19 23 24
f 19 24 25
f 19 25 26
f 19 26 15
f 19 15 14
f 19 14 18
f 19 18 5
f 19 5 7
f 19 7 27
f 19 27 12
f 19 12 11
f 19 11 28
f 19 28 8
f 19 8 10
f 19 10 1
f 19 1 4
f 19 4 29
f 19 29 30
f 19 30 31
f 32 9 8
f 8 28 33
f 8 33 32
f 34 29 4
f 34 4 3
f 24 23 35
f 24 35 36
f 37 22 21
f 37 21 38
f 39 33 28
f 39 28 11
f 39 11 13
f 40 2 1
f 40 1 10
f 40 10 9
f 41 12 27
f 41 27 42
f 41 13 12
f 43 16 15
f 43 15 26
f 43 26 44
f 45 46 20
f 45 20 19
f 45 19 31
f 47 25 24
f 47 24 36
f 47 44 26
f 47 26 25
f 48 31 30
f 30 29 34
f 30 34 48
f 49 18 17
f 49 6 5
f 49 5 18
f 50 42 27
f 50 27 7
f 50 7 6
f 37 35 23
f 37 23 22
f 51 20 46
f 46 38 21
f 46 21 51
f 51 21 20