# https://github.com/mikedh/trimesh

o geometry_0
v 0.03404152 0.07685443 -0.05254339
v 0.03412469 0.07571959 -0.06204548
v 0.02529336 0.08048079 -0.06445798
v 0.02482458 0.08200386 -0.05254339
v 0.03407176 0.06728510 -0.05254339
v 0.03820767 0.04242533 -0.10574771
v 0.03655935 0.07199084 -0.05254339
v -0.00251624 0.04242533 -0.09477594
v -0.00038402 0.05929004 -0.05254339
v -0.01316222 0.06003664 -0.05254339
v -0.02724849 0.04242533 -0.09823293
v 0.03643838 0.04242533 -0.11538846
v 0.03632496 0.06624412 -0.08082783
v -0.03331246 0.07811299 -0.05254339
v -0.02549432 0.08201666 -0.05254339
v -0.02564554 0.08185880 -0.05575081
v -0.02612945 0.08033573 -0.06516047
v -0.03338808 0.07705921 -0.06176818
v 0.02505897 0.04242533 -0.09775228
v 0.01438274 0.06027129 -0.05254339
v -0.03174733 0.05657240 -0.10720815
v -0.03648055 0.06755388 -0.08042112
v -0.02460968 0.07025018 -0.09380539
v -0.02241697 0.05659800 -0.11649765
v -0.03227660 0.04242533 -0.12374438
v 0.03073733 0.07458902 -0.07506002
v 0.03443469 0.07300195 -0.07127952
v 0.02592849 0.06714858 -0.09673551
v -0.00894315 0.07651312 -0.09245588
v -0.01809960 0.07996030 -0.07737084
v 0.00391067 0.04242533 -0.14586355
v 0.02186064 0.05642735 -0.11635900
v 0.03010976 0.04242533 -0.12513088
v -0.03710812 0.04242533 -0.11616489
v -0.03903619 0.04242533 -0.10743923
v -0.01332101 0.08459777 -0.06010439
v -0.01310173 0.08514386 -0.05254339
v -0.03641250 0.04242533 -0.10215208
v -0.02520700 0.06248551 -0.05254339
v -0.03406101 0.06663235 -0.05254339
v -0.03142220 0.07519057 -0.07375672
v -0.03678300 0.07316834 -0.06221186
v 0.03153125 0.05569355 -0.10710648
v 0.01550178 0.06783119 -0.10469398
v 0.01953183 0.07259239 -0.09323231
v 0.00746437 0.07193964 -0.10142186
v -0.03728203 0.07263078 -0.05254339
v 0.03520592 0.04242533 -0.10155126
v 0.02465067 0.06255377 -0.05254339
v 0.01486665 0.08469163 -0.05254339
v 0.01613691 0.08151323 -0.07298953
v 0.01001245 0.08488788 -0.06083461
v 0.00185406 0.08600565 -0.05254339
v -0.00033109 0.07688855 -0.09322307
v -0.00759728 0.08243049 -0.07652970
v -0.00036134 0.08213185 -0.07920101
v 0.01193296 0.07926062 -0.08370249
v -0.00038402 0.08515239 -0.06454117
v 0.02187576 0.07821111 -0.07760192
v -0.03646543 0.06916654 -0.05254339
v -0.02008816 0.06538233 -0.10624685
v -0.01051585 0.06889776 -0.10577544
v -0.00086793 0.04242533 -0.14697275
v -0.02184989 0.04242533 -0.13275658
v -0.00027816 0.06977662 -0.10607123
v 0.03639301 0.07218709 -0.06238748
f 10 9 20
f 10 20 49
f 10 49 5
f 10 5 7
f 10 7 1
f 10 1 4
f 10 4 50
f 10 50 53
f 10 53 37
f 10 37 15
f 10 15 14
f 10 14 47
f 10 47 60
f 10 60 40
f 10 40 39
f 1 2 3
f 1 3 4
f 5 6 7
f 8 9 10
f 8 10 11
f 12 13 6
f 14 15 16
f 14 16 17
f 14 17 18
f 19 20 9
f 19 9 8
f 21 22 23
f 21 24 25
f 26 3 2
f 26 27 13
f 26 13 28
f 29 23 30
f 31 32 33
f 34 35 22
f 34 22 21
f 34 21 25
f 36 16 15
f 36 15 37
f 38 39 40
f 41 22 42
f 41 42 18
f 41 30 23
f 41 23 22
f 43 28 13
f 43 13 12
f 43 12 33
f 43 33 32
f 43 32 28
f 44 45 28
f 44 28 32
f 44 32 31
f 44 31 46
f 42 47 14
f 42 14 18
f 42 22 35
f 42 35 47
f 48 6 5
f 48 5 49
f 50 4 3
f 50 3 51
f 50 51 52
f 50 52 53
f 54 29 55
f 54 55 56
f 54 56 57
f 54 57 46
f 58 36 37
f 58 37 53
f 58 53 52
f 45 44 46
f 45 46 57
f 45 59 26
f 45 26 28
f 35 38 40
f 35 40 60
f 60 47 35
f 61 62 63
f 61 63 24
f 61 24 21
f 61 21 23
f 23 29 62
f 23 62 61
f 20 19 48
f 20 48 49
f 39 38 11
f 39 11 10
f 64 25 24
f 64 24 63
f 64 63 31
f 64 31 33
f 64 33 12
f 64 12 6
f 64 6 48
f 64 48 19
f 64 19 8
f 64 8 11
f 64 11 38
f 64 38 35
f 64 35 34
f 64 34 25
f 17 30 41
f 17 41 18
f 17 16 36
f 17 36 30
f 65 63 62
f 62 29 54
f 62 54 65
f 65 54 46
f 65 46 31
f 65 31 63
f 59 3 26
f 59 45 57
f 51 57 56
f 51 56 58
f 51 58 52
f 51 3 59
f 51 59 57
f 66 2 1
f 66 1 7
f 7 6 13
f 7 13 66
f 55 30 36
f 55 36 58
f 55 58 56
f 55 29 30
f 27 26 2
f 27 2 66
f 27 66 13