# https://github.com/mikedh/trimesh

o geometry_0
v 0.07893757 -0.16917539 -0.04217636
v 0.06799096 -0.16917539 -0.04104529
v 0.07379308 -0.07587576 -0.04218703
v 0.08428185 -0.06587577 -0.04039439
v 0.07351005 -0.06053573 -0.03871913
v 0.08480629 -0.05629140 -0.03555000
v 0.07201998 -0.04166925 0.01162415
v 0.06084028 -0.04246270 0.06651306
v 0.07810513 -0.04051056 0.06651306
v 0.11979382 -0.07819313 0.06651306
v 0.11873662 -0.09243745 0.06651306
v 0.11992701 -0.16917539 0.00119910
v 0.12007686 -0.08732411 -0.00252489
v 0.11990205 -0.07787828 0.00833765
v 0.11098659 -0.06479265 -0.01960832
v 0.10693259 -0.06328131 -0.02509294
v 0.10212941 -0.05702188 -0.02512495
v 0.10621670 -0.05442742 -0.01268318
v 0.11334240 -0.06301683 -0.01069847
v 0.11148605 -0.05708485 0.06651306
v 0.11075351 -0.05593876 0.01370490
v 0.10945490 -0.05547276 -0.00297305
v 0.10389418 -0.04960375 0.01050375
v 0.10336974 -0.04916295 0.06651306
v 0.07007206 -0.04494380 -0.01488130
v 0.07999477 -0.04532164 -0.01867998
v 0.07966179 -0.04884808 -0.02736575
v 0.07406778 -0.05017050 -0.02930777
v 0.06392864 -0.04969191 -0.02380181
v 0.05765203 -0.04999418 -0.01722880
v 0.05957497 -0.04640476 -0.00567268
v 0.11725488 -0.07826870 -0.01323804
v 0.11852852 -0.07231153 -0.00047616
v 0.11813726 -0.09996893 -0.01318469
v 0.11273472 -0.07703445 -0.02290549
v 0.09612750 -0.04930148 -0.01837054
v 0.08989251 -0.04515791 -0.01159479
v 0.10042290 -0.04835690 -0.00418949
v 0.09032538 -0.05139216 -0.02795263
v 0.11880322 -0.16917539 -0.00975947
v 0.11487409 -0.16917539 -0.02005648
v 0.05769365 -0.16917539 -0.03711856
v 0.04876987 -0.16917539 -0.03066293
v 0.04727147 -0.08475484 -0.02956386
v 0.05701937 -0.07433924 -0.03661705
v 0.04181898 -0.16917539 -0.02211588
v 0.03731547 -0.16917539 -0.01206429
v 0.03709071 -0.09037196 -0.01210697
v 0.04222687 -0.08306718 -0.02296952
v 0.08746178 -0.08426366 -0.04137608
v 0.09484554 -0.07326871 -0.03840968
v 0.03557567 -0.16917539 -0.00119108
v 0.03669946 -0.16917539 0.00976749
v 0.03615005 -0.08741227 0.06651306
v 0.03616670 -0.07675737 0.06651306
v 0.03547577 -0.08705962 -0.00217277
v 0.08981759 -0.16917539 -0.04042641
v 0.09973197 -0.08705962 -0.03636096
v 0.09987348 -0.16917539 -0.03593414
v 0.10841434 -0.16917539 -0.02897699
v 0.10639984 -0.08983040 -0.03137785
v 0.11818721 -0.16917539 0.01206164
v 0.11368370 -0.16917539 0.02212390
v 0.09648545 -0.05852061 -0.03191137
v 0.10177978 -0.06489340 -0.03174064
v 0.04740467 -0.11164398 0.06651306
v 0.03962966 -0.09999412 0.06651306
v 0.04708834 -0.16917539 0.02898501
v 0.04062859 -0.16917539 0.02005383
v 0.04091162 -0.06208484 0.00709987
v 0.04653060 -0.05673220 -0.00956740
v 0.03893040 -0.06830650 -0.00444558
v 0.03977117 -0.06379769 0.06651306
v 0.04797905 -0.05005715 0.06651306
v 0.06311285 -0.06668181 -0.03818561
v 0.06285479 -0.05980525 -0.03502715
v 0.10673281 -0.16917539 0.03067095
v 0.10730719 -0.11287823 0.06651306
v 0.09780903 -0.16917539 0.03712658
v 0.11358381 -0.10489335 0.06651306
v 0.05562919 -0.16917539 0.03593149
v 0.06568509 -0.16917539 0.04043443
v 0.05737732 -0.11972961 0.06651306
v 0.07656511 -0.16917539 0.04217371
v 0.08751172 -0.16917539 0.04105331
v 0.08327459 -0.12496889 0.06651306
v 0.04849517 -0.05296646 0.00019608
v 0.06444475 -0.08483041 -0.04036238
v 0.10595864 -0.07198408 -0.03036415
v 0.11192725 -0.09325609 -0.02523165
v 0.09452921 -0.04459116 0.00746267
v 0.08500607 -0.04212265 0.00540327
v 0.09552814 -0.12114018 0.06651306
v 0.03616670 -0.07620321 0.00807089
v 0.06317944 -0.05396143 -0.03003337
v 0.05362301 -0.04548537 0.06651306
v 0.06656748 -0.04364658 -0.00287702
v 0.08992580 -0.06150550 -0.03724660
v 0.05020167 -0.07156846 -0.03085499
v 0.04478247 -0.07020826 -0.02358840
v 0.04970221 -0.06255084 -0.02575451
v 0.03825613 -0.07459113 -0.01047439
v 0.04101983 -0.06949037 -0.01521208
v 0.05587060 -0.06401179 -0.03294641
v 0.07353502 -0.12510744 0.06651306
v 0.05618693 -0.05581281 -0.02649077
v 0.05070114 -0.05562389 -0.01826383
v 0.07370151 -0.05472969 -0.03474971
v 0.04505718 -0.06247527 -0.01752758
v 0.11419981 -0.06092615 0.00475237
v 0.11710504 -0.06697149 0.06651306
v 0.11721326 -0.06669441 0.01605240
v 0.07599073 -0.04188335 0.00146587
v 0.09565301 -0.04469192 0.06651306
v 0.07353502 -0.06755083 -0.04113066
v 0.09018386 -0.04772718 -0.02060067
v 0.08736188 -0.04190854 0.06651306
v 0.05259910 -0.05090098 -0.00854303
v 0.11577313 -0.07009491 -0.01241642
v 0.08030277 -0.04305464 -0.00841499
v 0.09562804 -0.06781532 -0.03700118
f 84 82 81
f 84 81 68
f 84 68 69
f 84 69 53
f 84 53 52
f 84 52 47
f 84 47 46
f 84 46 43
f 84 43 42
f 84 42 2
f 84 2 1
f 84 1 57
f 84 57 59
f 84 59 60
f 84 60 41
f 84 41 40
f 84 40 12
f 84 12 62
f 84 62 63
f 84 63 77
f 84 77 79
f 84 79 85
f 1 2 3
f 4 5 6
f 7 8 9
f 10 11 12
f 12 13 14
f 12 14 10
f 15 16 17
f 15 17 18
f 15 18 19
f 20 21 22
f 20 22 23
f 20 23 24
f 25 26 27
f 25 27 28
f 25 29 30
f 25 30 31
f 32 33 13
f 32 13 34
f 32 34 35
f 36 37 38
f 36 38 18
f 36 18 17
f 36 17 39
f 40 41 34
f 40 34 13
f 40 13 12
f 42 43 44
f 42 44 45
f 46 47 48
f 46 48 49
f 50 1 3
f 50 3 4
f 50 4 51
f 52 53 54
f 52 54 55
f 52 55 56
f 52 56 48
f 52 48 47
f 57 1 50
f 50 51 58
f 50 58 59
f 50 59 57
f 60 59 58
f 60 58 61
f 62 11 63
f 62 12 11
f 64 17 16
f 64 16 65
f 64 6 39
f 64 39 17
f 66 67 68
f 69 68 67
f 69 67 54
f 69 54 53
f 70 71 72
f 70 73 74
f 75 76 5
f 77 78 79
f 80 78 77
f 80 77 63
f 80 63 11
f 81 82 83
f 81 83 66
f 81 66 68
f 84 85 86
f 87 71 70
f 87 70 74
f 88 45 75
f 88 75 3
f 88 3 2
f 88 2 42
f 88 42 45
f 89 35 90
f 89 90 61
f 91 38 37
f 91 37 92
f 93 86 85
f 93 85 79
f 93 79 78
f 94 56 55
f 94 55 73
f 94 73 70
f 94 70 72
f 29 25 28
f 29 28 95
f 96 8 97
f 96 97 31
f 96 87 74
f 98 6 64
f 98 4 6
f 44 99 45
f 43 46 49
f 43 49 44
f 100 101 99
f 100 99 44
f 100 44 49
f 100 49 102
f 100 102 103
f 104 76 75
f 104 75 45
f 104 45 99
f 104 99 101
f 83 82 84
f 83 84 105
f 105 84 86
f 106 101 107
f 106 107 30
f 106 30 29
f 106 29 95
f 106 95 76
f 106 76 104
f 106 104 101
f 108 5 76
f 108 76 95
f 108 95 28
f 108 6 5
f 109 103 72
f 109 72 71
f 109 71 107
f 109 107 101
f 109 101 100
f 109 100 103
f 110 21 20
f 20 111 112
f 20 112 110
f 110 112 33
f 110 33 19
f 113 7 9
f 113 9 92
f 102 72 103
f 102 49 48
f 102 48 56
f 56 94 72
f 56 72 102
f 114 24 23
f 114 23 38
f 114 38 91
f 27 39 6
f 6 108 28
f 6 28 27
f 22 21 110
f 22 110 19
f 22 19 18
f 22 18 38
f 22 38 23
f 115 3 75
f 115 75 5
f 115 5 4
f 115 4 3
f 97 7 113
f 97 25 31
f 97 8 7
f 116 26 37
f 116 37 36
f 116 36 39
f 116 39 27
f 116 27 26
f 117 9 8
f 117 8 96
f 117 96 74
f 117 74 73
f 117 73 55
f 117 55 54
f 117 54 67
f 117 67 66
f 117 66 83
f 117 83 105
f 117 105 86
f 117 86 93
f 117 93 78
f 117 78 80
f 117 80 11
f 117 11 10
f 117 10 111
f 117 111 20
f 117 20 24
f 117 24 114
f 117 114 91
f 117 91 92
f 117 92 9
f 51 89 61
f 51 61 58
f 16 15 35
f 16 35 89
f 16 89 65
f 118 30 107
f 118 107 71
f 118 71 87
f 118 87 96
f 118 96 31
f 118 31 30
f 119 19 33
f 119 33 32
f 119 32 35
f 119 35 15
f 119 15 19
f 120 26 25
f 120 25 97
f 120 97 113
f 120 113 92
f 120 92 37
f 120 37 26
f 90 35 34
f 90 34 41
f 90 41 60
f 90 60 61
f 121 51 4
f 121 4 98
f 98 64 65
f 98 65 121
f 121 65 89
f 121 89 51
f 14 13 33
f 14 33 112
f 14 112 111
f 14 111 10