# https://github.com/mikedh/trimesh

o geometry_0
v -0.07767971 -0.00600083 0.02899857
v -0.07908814 -0.00872272 0.03166965
v -0.05593017 -0.00587609 0.03286845
v -0.05082679 -0.00365492 0.02703784
v -0.07836943 -0.00677703 0.02361687
v -0.05082679 -0.00468581 0.02285665
v -0.05593017 -0.00587609 0.02113155
v -0.08042702 -0.00740076 0.02709976
v -0.08042702 -0.00995111 0.02258490
v -0.08042991 -0.01691608 0.02445104
v -0.07887659 -0.01418380 0.02094580
v -0.07767971 -0.01878034 0.02439944
v -0.07794632 -0.01897438 0.02899857
v -0.08042991 -0.01691608 0.02954896
v -0.08042702 -0.01249974 0.03209963
v -0.07795212 -0.01313906 0.03374562
v -0.07819555 -0.01175126 0.02032662
v -0.05593017 -0.01563744 0.01872535
v -0.05082679 -0.01912339 0.02113155
v -0.05593017 -0.01143420 0.01821452
v -0.05593017 -0.01563744 0.03527465
v -0.05082679 -0.01147232 0.03578548
v -0.05082679 -0.00747353 0.01971776
v -0.05082679 -0.01143420 0.01821452
v -0.05082679 -0.01563744 0.01872535
v -0.05082679 -0.00466502 0.03111239
v -0.05082679 -0.00744407 0.03425645
v -0.05082679 -0.01563744 0.03527465
v -0.05593017 -0.01912339 0.03286845
v -0.05082679 -0.01912339 0.03286845
v -0.05082679 -0.02134975 0.02700000
v -0.05593017 -0.02109160 0.02488275
v -0.05593017 -0.02109160 0.02911725
v -0.05593017 -0.00936204 0.03527465
v -0.07908814 -0.01627676 0.03166965
f 28 30 31
f 28 31 19
f 28 19 25
f 28 25 24
f 28 24 23
f 28 23 6
f 28 6 4
f 28 4 26
f 28 26 27
f 28 27 22
f 1 2 3
f 1 4 5
f 6 7 5
f 6 5 4
f 8 1 5
f 8 5 9
f 8 2 1
f 10 11 12
f 10 12 13
f 10 13 14
f 14 15 8
f 14 8 9
f 14 9 10
f 10 9 11
f 15 16 2
f 15 2 8
f 17 11 9
f 17 9 5
f 17 5 7
f 18 19 12
f 18 12 11
f 18 11 17
f 18 17 20
f 21 22 16
f 23 7 6
f 23 24 20
f 20 17 7
f 20 7 23
f 25 19 18
f 25 18 20
f 25 20 24
f 26 3 27
f 26 4 1
f 26 1 3
f 28 22 21
f 28 21 29
f 28 29 30
f 32 12 19
f 32 19 31
f 32 31 33
f 32 33 13
f 32 13 12
f 34 22 27
f 34 27 3
f 34 3 2
f 34 2 16
f 34 16 22
f 35 14 13
f 35 13 29
f 35 29 21
f 35 21 16
f 35 16 15
f 35 15 14
f 33 29 13
f 33 31 30
f 33 30 29