# https://github.com/mikedh/trimesh

o geometry_0
v 0.04613241 0.00778331 -0.07869614
v 0.04657979 -0.00471375 -0.04929038
v 0.04730677 -0.01167559 -0.04929038
v 0.04714833 -0.00017715 -0.11199402
v -0.01413283 -0.04544810 -0.11199402
v -0.01914717 -0.04623749 -0.04929038
v -0.02760071 -0.04207180 -0.04929038
v -0.02674324 -0.03948489 -0.11199402
v 0.03893712 0.02478845 -0.08425807
v 0.04087574 0.02357108 -0.11199402
v 0.03318647 0.03352878 -0.11199402
v 0.03323307 0.03352878 -0.10047728
v -0.04642777 -0.01149489 -0.11199402
v -0.04746233 -0.01532770 -0.04929038
v -0.04777922 0.00252389 -0.11199402
v 0.01426621 -0.04519131 -0.11199402
v 0.02340945 -0.04112072 -0.11199402
v 0.02287819 -0.04434486 -0.04929038
v 0.01398660 -0.04773067 -0.04929038
v 0.00185153 -0.04966134 -0.04929038
v -0.00034807 -0.04749290 -0.11199402
v 0.01342738 0.04541716 -0.11199402
v -0.00034807 0.04750001 -0.11199402
v -0.00033875 0.04723371 -0.09836547
v 0.00890702 0.04604487 -0.09605106
v 0.04486484 0.01455493 -0.11199402
v 0.03491073 -0.03181926 -0.11199402
v 0.04074526 -0.02381125 -0.11199402
v 0.04029788 -0.03002174 -0.04929038
v 0.04595532 -0.01901785 -0.04929038
v 0.04480892 -0.01470950 -0.11199402
v -0.01454293 0.04532206 -0.11199402
v -0.00960316 0.04604487 -0.09600809
v -0.04241071 -0.02206128 -0.11199402
v -0.04324022 -0.02646474 -0.04929038
v -0.03601696 -0.03136275 -0.11199402
v -0.03812336 -0.03340755 -0.04929038
v -0.04584991 0.01361337 -0.11199402
v -0.04134820 0.02397053 -0.11199402
v -0.03452571 0.03297716 -0.11199402
v -0.02334132 0.04155582 -0.11199402
v 0.02341877 0.04111833 -0.11199402
v 0.03433287 -0.03654608 -0.04929038
v 0.04315923 0.01486878 -0.07376653
v 0.03560044 0.02400857 -0.07215198
v 0.04371844 0.00169646 -0.04929038
v 0.01781725 0.04335334 -0.09563361
v -0.01850407 0.04334383 -0.09558450
v 0.00878585 0.04270661 -0.08446679
v -0.00032011 0.04319166 -0.08393884
v -0.00015234 0.02248686 -0.04929038
v 0.00861809 0.02090808 -0.04929038
v 0.01738852 0.03720943 -0.07802086
v -0.00944471 0.04269710 -0.08444224
v -0.01801009 0.03719040 -0.07797174
v -0.00892277 0.02080346 -0.04929038
v -0.00992937 -0.04881489 -0.04929038
v 0.03930061 0.00687028 -0.04929038
v -0.04351051 0.01244355 -0.06664531
v -0.04563554 0.01227236 -0.08011425
v -0.04739709 -0.00595015 -0.04929038
v -0.04415361 0.00177254 -0.04929038
v -0.03967053 0.00693686 -0.04929038
v -0.03623133 0.02398004 -0.07204762
v -0.03961461 0.02477894 -0.08418440
v -0.02604421 0.03297716 -0.07611163
v -0.03124496 0.01231040 -0.04929038
v 0.02541332 0.03299619 -0.07619143
v 0.03100552 0.01226285 -0.04929038
v -0.03371484 0.03192148 -0.08643127
v -0.03392921 0.03352878 -0.10038519
v -0.02654751 0.03777056 -0.08821772
v 0.03303735 0.03192148 -0.08649266
v 0.02587001 0.03778007 -0.08827297
v 0.04257205 0.01984288 -0.09099868
v -0.01822446 0.04005313 -0.08347228
v 0.01756560 0.04006264 -0.08352139
v -0.02673392 0.03943493 -0.10084562
v -0.04255984 0.02121242 -0.09099868
v 0.02603778 0.03943493 -0.10092542
v -0.04753689 0.00319915 -0.07705703
v 0.00171172 0.04577857 -0.09099868
f 38 39 40
f 38 40 41
f 38 41 32
f 38 32 23
f 38 23 22
f 38 22 42
f 38 42 11
f 38 11 10
f 38 10 26
f 38 26 4
f 38 4 31
f 38 31 28
f 38 28 27
f 38 27 17
f 38 17 16
f 38 16 21
f 38 21 5
f 38 5 8
f 38 8 36
f 38 36 34
f 38 34 13
f 38 13 15
f 1 2 3
f 1 3 4
f 5 6 7
f 5 7 8
f 9 10 11
f 9 11 12
f 13 14 15
f 16 17 18
f 16 19 20
f 16 20 21
f 22 23 24
f 22 24 25
f 26 1 4
f 27 28 29
f 4 3 30
f 4 30 31
f 32 33 24
f 32 24 23
f 14 13 34
f 14 34 35
f 34 36 37
f 34 37 35
f 30 29 28
f 30 28 31
f 7 37 36
f 7 36 8
f 43 18 17
f 43 17 27
f 43 27 29
f 44 9 45
f 44 45 46
f 47 42 22
f 47 22 25
f 48 33 32
f 48 32 41
f 19 16 18
f 2 1 44
f 2 44 46
f 49 50 51
f 49 51 52
f 49 52 53
f 54 55 56
f 54 56 51
f 54 51 50
f 57 6 5
f 57 5 21
f 57 21 20
f 58 46 45
f 59 60 61
f 59 61 62
f 59 62 63
f 59 63 64
f 59 64 65
f 66 64 63
f 66 63 67
f 68 53 52
f 68 52 69
f 68 69 58
f 68 58 45
f 56 55 66
f 56 66 67
f 56 67 63
f 56 63 62
f 56 62 61
f 56 61 14
f 56 14 35
f 56 35 37
f 56 37 7
f 56 7 6
f 56 6 57
f 56 57 20
f 56 20 19
f 56 19 18
f 56 18 43
f 56 43 29
f 56 29 30
f 56 30 3
f 56 3 2
f 56 2 46
f 56 46 58
f 56 58 69
f 56 69 52
f 56 52 51
f 70 71 65
f 70 65 64
f 64 66 72
f 64 72 70
f 73 9 12
f 73 74 68
f 73 68 45
f 73 45 9
f 75 9 44
f 75 44 1
f 75 1 26
f 75 26 10
f 75 10 9
f 76 55 54
f 76 54 33
f 76 33 48
f 76 48 72
f 76 72 66
f 76 66 55
f 77 74 47
f 47 25 49
f 47 49 77
f 77 49 53
f 77 53 68
f 77 68 74
f 41 40 71
f 41 71 78
f 71 70 72
f 71 72 78
f 78 72 48
f 78 48 41
f 79 39 38
f 79 38 60
f 79 60 59
f 79 59 65
f 79 65 71
f 79 71 40
f 79 40 39
f 80 74 73
f 80 73 12
f 80 12 11
f 80 11 42
f 80 42 47
f 80 47 74
f 15 14 61
f 15 61 81
f 81 61 60
f 81 60 38
f 81 38 15
f 82 25 24
f 82 24 33
f 82 33 54
f 82 54 50
f 82 50 49
f 82 49 25