# https://github.com/mikedh/trimesh

o geometry_0
v -0.03842259 -0.04940371 0.08777819
v -0.02266859 -0.04940371 0.07880455
v -0.03294496 -0.07207279 0.07205157
v -0.04370492 -0.04940371 0.10556620
v -0.04749927 -0.04940371 0.09818524
v -0.04603919 -0.09648887 0.10203044
v 0.00329668 -0.15615869 0.07205157
v -0.00122307 -0.15627375 0.07581941
v -0.01014165 -0.15517534 0.07205157
v -0.01592618 -0.05916386 0.07205157
v -0.01946943 -0.04940371 0.11667403
v -0.01055085 -0.09517078 0.11764784
v -0.00122307 -0.04940371 0.11853520
v 0.02150584 -0.14130399 0.10498828
v 0.02152444 -0.14640898 0.09866759
v 0.02943864 -0.14169104 0.09651975
v 0.03296330 -0.13446248 0.10122955
v 0.03290750 -0.12854151 0.10567086
v 0.02555129 -0.13278870 0.10834202
v -0.01932064 -0.15213117 0.07205157
v -0.01947873 -0.15171273 0.08337783
v -0.04456051 -0.11038114 0.10104297
v -0.04592759 -0.11572673 0.09156878
v -0.04041276 -0.12677360 0.09731609
v 0.01871588 -0.05957184 0.07205157
v 0.00329668 -0.05556526 0.07205157
v 0.00949970 -0.04940371 0.07564194
v -0.01056015 -0.15335512 0.09265635
v -0.00122307 -0.15450583 0.09306590
v -0.00122307 -0.15127337 0.10105662
v -0.01947873 -0.14219318 0.10564811
v -0.00591951 -0.14536288 0.10744101
v -0.01055085 -0.13734972 0.11146368
v -0.02367298 -0.13367788 0.10908375
v -0.03131748 -0.12971315 0.10657641
v -0.03132678 -0.13582240 0.10213965
v -0.00936046 -0.04940371 0.07586491
v 0.02152444 -0.14932761 0.09108187
v 0.01722790 -0.15260191 0.08352799
v 0.02560709 -0.14827104 0.08236761
v -0.04277493 -0.08791081 0.10672203
v -0.03475844 -0.10626995 0.11107233
v -0.03473984 -0.04940371 0.11178221
v 0.04126809 -0.08860124 0.10754112
v 0.04501594 -0.09762913 0.10303155
v 0.04322106 -0.04940371 0.10549339
v 0.03273080 -0.04940371 0.11236013
v 0.00815121 -0.15378402 0.09275191
v 0.01274536 -0.14961006 0.10018747
v 0.04344426 -0.11185615 0.10194853
v 0.03892452 -0.11722267 0.10560715
v 0.04150059 -0.12505800 0.09627857
v 0.04360236 -0.12458724 0.08914789
v 0.04639233 -0.11379144 0.09051760
v -0.00122307 -0.11279764 0.11719734
v -0.00122307 -0.12991191 0.11464905
v 0.01718140 -0.11978562 0.11483562
v 0.01714420 -0.09467911 0.11666493
v 0.01711630 -0.04940371 0.11693796
v -0.01948803 -0.11930441 0.11457169
v 0.04695962 -0.09793250 0.09767558
v 0.04741531 -0.10979532 0.07205157
v 0.04699682 -0.04940371 0.09753907
v -0.04747138 -0.09642611 0.09647879
v -0.04735048 -0.11109249 0.07205157
v -0.02766263 -0.09315180 0.11443517
v -0.02764403 -0.12456632 0.11085846
v -0.03776230 -0.11842569 0.10659006
v -0.04274704 -0.10719052 0.10505654
v -0.03470264 -0.13730787 0.09474504
v -0.04040346 -0.13237026 0.08533001
v -0.03132678 -0.14288361 0.08892492
v 0.02934564 -0.12370851 0.11008486
v 0.03888732 -0.10373838 0.10861050
v 0.03284240 -0.10703361 0.11163205
v 0.03299120 -0.14128307 0.08825599
v 0.03283310 -0.14290453 0.07205157
v 0.00815121 -0.14810367 0.10417373
v 0.00814191 -0.14152367 0.10963892
v 0.01718140 -0.12799755 0.11314282
v 0.01719070 -0.13586424 0.11034425
v 0.03906402 -0.13428463 0.08588062
v 0.03905472 -0.13556089 0.07205157
v 0.04361166 -0.12726527 0.07205157
v -0.01056015 -0.14772707 0.10405542
v -0.01947873 -0.14741324 0.09927737
v -0.02367298 -0.14827104 0.09081794
v -0.03147558 -0.14418077 0.07205157
v 0.03619965 -0.13564457 0.09386679
v -0.03773440 -0.13743341 0.07257488
v -0.04266334 -0.12936793 0.07205157
v -0.02764403 -0.14305098 0.09729334
v -0.04590900 -0.12043421 0.07205157
v 0.04505314 -0.09471050 0.07205157
v 0.04181678 -0.08505495 0.07205157
v 0.04283047 -0.04940371 0.09082704
v 0.02517930 -0.14890917 0.07205157
v 0.01733950 -0.15287390 0.07205157
v -0.04684828 -0.04940371 0.09552318
v -0.04642049 -0.10011886 0.07205157
v -0.04378862 -0.09034824 0.07205157
v 0.03646935 -0.04940371 0.08475664
v 0.03384678 -0.07174850 0.07205157
v 0.02940144 -0.04940371 0.08049280
v 0.02251023 -0.04940371 0.07783074
v 0.04642953 -0.11819554 0.07205157
v -0.00122307 -0.13817614 0.11198699
v 0.00815121 -0.15519626 0.08426063
v -0.04450471 -0.12413742 0.08256783
v -0.04022677 -0.08210493 0.07205157
v 0.04601103 -0.04940371 0.10143887
v -0.00591951 -0.15558332 0.08441535
v -0.03774370 -0.12466047 0.10344565
v 0.02547689 -0.09354932 0.11484472
v -0.01947873 -0.12743264 0.11287889
f 110 3 10
f 110 10 26
f 110 26 25
f 110 25 103
f 110 103 95
f 110 95 94
f 110 94 62
f 110 62 106
f 110 106 84
f 110 84 83
f 110 83 77
f 110 77 97
f 110 97 98
f 110 98 7
f 110 7 9
f 110 9 20
f 110 20 88
f 110 88 91
f 110 91 93
f 110 93 65
f 110 65 100
f 110 100 101
f 1 2 3
f 4 5 6
f 7 8 9
f 10 3 2
f 11 12 13
f 14 15 16
f 14 16 17
f 14 17 18
f 14 18 19
f 20 9 21
f 22 23 24
f 25 26 27
f 28 29 30
f 31 32 33
f 31 33 34
f 31 34 35
f 31 35 36
f 37 27 26
f 37 26 10
f 37 10 2
f 38 39 40
f 41 42 43
f 41 43 4
f 41 4 6
f 44 45 46
f 44 46 47
f 48 49 30
f 48 30 29
f 48 39 38
f 48 38 49
f 50 51 52
f 50 52 53
f 50 53 54
f 55 56 57
f 55 57 58
f 55 58 59
f 55 59 13
f 55 13 12
f 55 12 60
f 55 60 56
f 61 45 50
f 61 50 54
f 61 54 62
f 61 62 63
f 64 65 23
f 23 22 6
f 23 6 64
f 64 6 5
f 64 5 65
f 66 12 11
f 66 11 43
f 66 43 42
f 66 42 60
f 66 60 12
f 67 60 42
f 67 42 68
f 69 68 42
f 69 42 41
f 69 41 6
f 69 6 22
f 70 36 24
f 70 24 71
f 70 71 72
f 73 51 74
f 73 74 75
f 73 75 57
f 76 16 38
f 76 38 40
f 76 40 77
f 78 79 32
f 78 32 30
f 78 30 49
f 78 49 14
f 78 14 79
f 80 81 19
f 80 19 73
f 80 73 57
f 80 57 56
f 53 82 83
f 53 83 84
f 85 86 28
f 85 28 30
f 85 30 32
f 85 32 31
f 85 31 86
f 87 72 88
f 87 88 20
f 87 20 21
f 87 21 28
f 87 28 86
f 83 82 76
f 83 76 77
f 89 17 16
f 89 16 76
f 89 76 82
f 89 82 53
f 89 53 52
f 89 52 17
f 74 51 50
f 74 50 45
f 74 45 44
f 74 44 47
f 74 47 75
f 90 88 72
f 90 72 71
f 90 71 91
f 90 91 88
f 92 70 72
f 92 72 87
f 92 87 86
f 92 86 31
f 92 31 36
f 92 36 70
f 93 23 65
f 15 49 38
f 15 38 16
f 15 14 49
f 94 95 96
f 94 96 63
f 94 63 62
f 97 77 40
f 97 40 39
f 97 39 98
f 65 5 99
f 65 99 100
f 100 99 101
f 102 96 95
f 102 95 103
f 102 103 104
f 35 34 67
f 35 67 68
f 18 17 52
f 18 52 51
f 18 51 73
f 18 73 19
f 105 104 103
f 105 103 25
f 105 25 27
f 106 62 54
f 54 53 84
f 54 84 106
f 107 56 33
f 107 33 32
f 107 32 79
f 79 81 80
f 79 80 56
f 79 56 107
f 108 39 48
f 108 48 29
f 108 8 7
f 108 7 98
f 108 98 39
f 109 91 71
f 109 71 24
f 109 24 23
f 109 23 93
f 109 93 91
f 110 101 99
f 110 99 1
f 110 1 3
f 111 63 96
f 111 96 102
f 111 102 104
f 111 104 105
f 111 105 27
f 111 27 37
f 111 37 2
f 111 2 1
f 111 1 99
f 111 99 5
f 111 5 4
f 111 4 43
f 111 43 11
f 111 11 13
f 111 13 59
f 111 59 47
f 111 47 46
f 111 46 45
f 111 45 61
f 111 61 63
f 112 29 28
f 112 28 21
f 112 21 9
f 112 9 8
f 112 8 108
f 112 108 29
f 81 79 14
f 81 14 19
f 113 24 36
f 113 36 35
f 113 35 68
f 113 68 69
f 113 69 22
f 113 22 24
f 114 47 59
f 114 59 58
f 114 58 57
f 114 57 75
f 114 75 47
f 115 60 67
f 115 67 34
f 115 34 33
f 33 56 60
f 33 60 115