# https://github.com/mikedh/trimesh

o geometry_0
v 0.01714305 0.03913996 0.06749767
v 0.01835358 0.03858062 0.08133757
v 0.02462921 0.03408948 0.08677467
v 0.03049071 0.02994381 0.06749767
v 0.10985989 -0.05509181 0.06651306
v 0.11737790 -0.06766044 0.06651306
v 0.11979895 -0.07817267 0.06651306
v 0.11944854 -0.08886587 0.06651306
v 0.11357111 -0.10488922 0.06651306
v 0.10731141 -0.11286799 0.06651306
v 0.10180032 -0.11752365 0.06651306
v 0.09297621 -0.12237672 0.06651306
v 0.08601568 -0.12443310 0.06651306
v 0.07351221 -0.12510760 0.06651306
v 0.06494295 -0.12314992 0.06651306
v 0.05736123 -0.11972809 0.06651306
v 0.04899903 -0.11341088 0.06651306
v -0.03436807 -0.02539762 0.06749767
v -0.03965617 -0.01592180 0.06749767
v -0.04237985 -0.00542601 0.06749767
v -0.04185423 0.00857385 0.06749767
v -0.03835007 0.01883933 0.06749767
v -0.03236115 0.02788742 0.06749767
v -0.02132304 0.03693551 0.06749767
v -0.00947262 0.04165698 0.06749767
v 0.00132656 0.04270984 0.06749767
v -0.03188330 -0.02742110 0.08677467
v 0.02725733 -0.09144869 0.08941217
v 0.07811540 -0.12535436 0.07814253
v 0.05861954 -0.09162965 0.10388079
v -0.00048924 0.00196052 0.10690580
v -0.01945947 -0.00980199 0.10488122
v 0.09106486 -0.12092903 0.09018720
v 0.09944298 -0.11831330 0.08565562
v 0.09734049 -0.11485857 0.09331501
v 0.11360296 -0.06216578 0.07794877
v 0.11664521 -0.07325380 0.08218378
v 0.09987304 -0.04606017 0.08425186
v 0.06319087 -0.06700239 0.10581047
v 0.08270266 -0.09786461 0.10284477
v -0.01619424 0.01456205 0.10488122
v -0.02716862 0.00362208 0.10310575
v 0.06658353 -0.12365990 0.08150760
v 0.07384670 -0.12362700 0.08955056
v 0.07282731 -0.10972584 0.10068970
v 0.05323588 -0.10544856 0.09900519
v 0.09171790 -0.10801493 0.09907637
v 0.11967153 -0.07725141 0.07114350
v 0.09346998 -0.04388863 0.09208129
v 0.07387856 -0.02414734 0.09518538
v 0.09251430 -0.05293672 0.09717042
v 0.10732734 -0.06537373 0.09119949
v 0.01958003 0.03124344 0.09635979
v 0.03329403 0.02494268 0.09022674
v 0.03955373 0.01515429 0.09484927
v 0.01889513 0.01989220 0.10310575
v 0.06954614 -0.03077712 0.10024683
v 0.08330793 -0.12438375 0.08637925
v -0.01171847 0.04037379 0.08677862
v -0.02127526 0.03686971 0.08133757
v -0.04266655 0.00000285 0.08133757
v -0.04121711 0.00827774 0.08677862
v 0.10398246 -0.10947907 0.09241345
v 0.10673800 -0.10020067 0.09435498
v -0.03690062 0.02130699 0.08133757
v -0.03095948 0.02844676 0.08677862
v 0.11589660 -0.10006906 0.07885034
v 0.11165975 -0.10660013 0.08321584
v 0.11740975 -0.09092226 0.08338587
v -0.02559175 -0.02013327 0.10018752
v -0.03293455 -0.01657984 0.09635979
v -0.01971432 -0.03390282 0.09667613
v -0.03248857 -0.00218515 0.10018752
v -0.03655021 0.00488881 0.09635979
v -0.03951281 -0.00659404 0.09188753
v 0.01147269 0.03047024 0.10018752
v 0.01038958 0.03867933 0.09188753
v -0.00144491 0.03683681 0.09635979
v -0.00770461 0.03162182 0.10018752
v -0.00107857 0.02739389 0.10310575
v 0.11381003 -0.09640046 0.08831288
v 0.11315698 -0.08649692 0.09054308
v -0.01888607 -0.04007198 0.09235809
v 0.03933074 -0.10191158 0.09306590
v 0.08122136 -0.07580372 0.10409036
v 0.07526429 -0.05319994 0.10339046
v 0.10528856 -0.07971907 0.09618976
v 0.10578232 -0.05512471 0.08630807
v 0.05036884 -0.11443085 0.08461169
v 0.05823727 -0.11999131 0.08371803
v 0.05607106 -0.11737559 0.08940030
v 0.09179754 -0.12273864 0.08200979
v 0.10614866 -0.11388796 0.08024224
v 0.00768182 0.02038573 0.10488122
v -0.01165476 0.02481107 0.10310575
v 0.09872622 -0.09236995 0.09956274
v 0.09732456 -0.08119967 0.10011238
v -0.03076835 0.01063024 0.10018752
v -0.02218316 0.02941737 0.09635979
v -0.01566861 0.03338208 0.09635979
v -0.01793038 0.03581684 0.09189148
v -0.03390616 0.02132344 0.09189148
v -0.02420601 0.02176762 0.10018752
v 0.03819986 -0.09442634 0.09793359
v 0.06796927 -0.11525340 0.09772401
v 0.07918258 -0.11828040 0.09640724
v 0.04919017 -0.10844266 0.09523283
v 0.06212370 -0.11778687 0.09388838
v -0.00431195 0.04249598 0.08133757
v 0.00339720 0.04190374 0.08677862
v -0.00404118 0.03984735 0.09189148
v 0.06527744 -0.12214641 0.08838405
v -0.03690062 -0.02154807 0.08133757
v -0.03459106 -0.02021553 0.09188753
v -0.03954467 -0.01429314 0.08677467
v 0.11858842 -0.08291058 0.08110822
v 0.11439936 -0.07878136 0.08815075
v 0.10551155 -0.11161771 0.08871621
v 0.08125322 -0.12120869 0.09352064
v 0.08744920 -0.11586209 0.09672358
v -0.03905090 0.01558202 0.08677862
v 0.01107449 0.04126215 0.08133757
v -0.02530504 0.03356304 0.08677862
v -0.03720325 0.01484171 0.09189148
v 0.03087298 0.02954898 0.08133362
v -0.02449272 -0.01233546 0.10310575
v -0.04204536 0.00067734 0.08677862
v 0.01806688 0.03797194 0.08677467
v 0.07250875 -0.12171868 0.09272979
v -0.03177181 0.01872417 0.09635979
v 0.11094299 -0.10511954 0.08731245
v -0.04214093 -0.00703821 0.08133757
v -0.02361668 0.01392045 0.10310575
v 0.08829339 -0.06520922 0.10161104
v 0.04487368 -0.09437699 0.10060271
f 1 4 5
f 1 5 6
f 1 6 7
f 1 7 8
f 1 8 9
f 1 9 10
f 1 10 11
f 1 11 12
f 1 12 13
f 1 13 14
f 1 14 15
f 1 15 16
f 1 16 17
f 1 17 18
f 1 18 19
f 1 19 20
f 1 20 21
f 1 21 22
f 1 22 23
f 1 23 24
f 1 24 25
f 1 25 26
f 1 2 3
f 1 3 4
f 27 18 28
f 14 13 29
f 30 31 32
f 33 34 35
f 36 37 6
f 36 6 5
f 36 5 38
f 39 31 30
f 39 30 40
f 41 42 32
f 41 32 31
f 43 14 29
f 43 29 44
f 45 40 30
f 45 30 46
f 45 47 40
f 48 6 37
f 17 28 18
f 49 50 51
f 49 51 52
f 3 53 54
f 55 54 53
f 55 53 56
f 55 56 57
f 55 57 50
f 55 50 49
f 55 49 38
f 55 38 54
f 58 29 13
f 58 44 29
f 59 25 24
f 59 24 60
f 61 62 21
f 61 21 20
f 63 64 47
f 63 47 35
f 65 66 23
f 65 23 22
f 67 68 9
f 67 9 8
f 67 8 69
f 70 71 72
f 73 74 75
f 73 75 71
f 76 53 77
f 76 77 78
f 76 78 79
f 76 79 80
f 76 56 53
f 81 69 82
f 81 82 64
f 7 6 48
f 7 48 8
f 83 27 28
f 83 28 84
f 85 86 39
f 85 39 40
f 87 64 82
f 87 52 51
f 88 52 37
f 88 37 36
f 88 36 38
f 88 38 49
f 88 49 52
f 89 28 17
f 17 16 90
f 17 90 89
f 89 91 84
f 89 84 28
f 92 34 33
f 92 33 58
f 92 58 13
f 92 12 11
f 92 11 34
f 93 10 9
f 93 9 68
f 93 34 11
f 94 80 95
f 94 95 41
f 94 41 31
f 94 31 39
f 94 39 86
f 94 86 56
f 94 56 76
f 94 76 80
f 96 97 85
f 96 85 40
f 96 40 47
f 96 47 64
f 96 64 87
f 96 87 97
f 98 74 73
f 98 73 42
f 99 100 101
f 99 66 102
f 103 95 79
f 103 79 100
f 103 100 99
f 104 72 83
f 104 83 84
f 104 70 72
f 105 106 45
f 105 45 46
f 105 46 107
f 105 107 108
f 109 110 26
f 109 26 25
f 109 25 59
f 109 59 111
f 109 111 110
f 112 43 44
f 112 108 91
f 113 18 27
f 113 27 114
f 113 114 115
f 113 115 19
f 113 19 18
f 116 69 8
f 116 8 48
f 116 48 37
f 116 117 82
f 116 82 69
f 114 27 83
f 83 72 71
f 83 71 114
f 114 71 75
f 114 75 115
f 118 63 35
f 118 35 34
f 118 34 93
f 118 93 68
f 119 44 58
f 119 58 33
f 111 59 101
f 111 101 100
f 111 100 78
f 111 78 77
f 111 77 110
f 107 46 104
f 107 104 84
f 107 84 91
f 107 91 108
f 120 35 47
f 120 47 45
f 120 45 106
f 120 106 119
f 120 119 33
f 120 33 35
f 121 102 66
f 121 66 65
f 121 65 22
f 22 21 62
f 22 62 121
f 122 1 26
f 122 26 110
f 122 2 1
f 79 78 100
f 79 95 80
f 57 51 50
f 57 56 86
f 123 66 99
f 123 99 101
f 123 101 59
f 123 59 60
f 123 60 24
f 123 24 23
f 123 23 66
f 52 87 82
f 52 82 117
f 117 116 37
f 117 37 52
f 124 102 121
f 124 121 62
f 124 62 74
f 125 4 3
f 125 3 54
f 125 54 38
f 125 38 5
f 125 5 4
f 126 32 42
f 126 42 73
f 126 73 71
f 126 71 70
f 12 92 13
f 127 62 61
f 127 75 74
f 127 74 62
f 90 43 112
f 90 112 91
f 90 91 89
f 128 77 53
f 128 53 3
f 128 3 2
f 128 2 122
f 122 110 77
f 122 77 128
f 129 106 105
f 129 105 108
f 129 108 112
f 129 112 44
f 129 44 119
f 129 119 106
f 130 102 124
f 124 74 98
f 124 98 130
f 130 98 103
f 130 103 99
f 130 99 102
f 10 93 11
f 131 81 64
f 131 64 63
f 131 63 118
f 131 118 68
f 131 68 67
f 131 67 69
f 131 69 81
f 15 14 43
f 15 43 90
f 15 90 16
f 132 115 75
f 132 75 127
f 132 127 61
f 132 61 20
f 132 20 19
f 132 19 115
f 133 103 98
f 133 98 42
f 133 42 41
f 133 41 95
f 133 95 103
f 134 97 87
f 134 87 51
f 51 57 86
f 51 86 134
f 134 86 85
f 134 85 97
f 30 32 126
f 30 126 135
f 135 126 70
f 135 70 104
f 135 104 46
f 135 46 30