# https://github.com/mikedh/trimesh

o geometry_0
v -0.00563453 -0.15642440 0.04180879
v -0.00563453 -0.19177951 0.04181698
v 0.00636904 -0.19177605 0.04171054
v 0.00636904 -0.15642440 0.04171054
v -0.00636978 -0.19177605 -0.04172045
v -0.00636978 -0.15642440 -0.04172045
v 0.00563379 -0.15642440 -0.04181870
v 0.00563379 -0.19177605 -0.04182689
v 0.01718298 -0.15642440 -0.03854368
v 0.01718298 -0.19177951 -0.03854368
v -0.01718373 -0.19177951 0.03853378
v -0.01739852 -0.15642440 0.03843552
v -0.02734504 -0.15642440 0.03212293
v -0.02734504 -0.19177605 0.03212293
v -0.02037256 -0.15642440 -0.03679974
v -0.01786941 -0.19177951 -0.03823256
v -0.02791506 -0.19177951 -0.03164979
v -0.02790680 -0.15642440 -0.03164159
v 0.03569640 -0.15642440 0.02249439
v 0.02791432 -0.15642440 0.03163987
v 0.02791432 -0.19177605 0.03163987
v 0.03569640 -0.19177605 0.02249439
v 0.01786867 -0.15642440 0.03822265
v 0.01786867 -0.19177951 0.03822265
v -0.04038126 -0.15642440 0.01223541
v -0.04038126 -0.19177951 0.01223541
v -0.03529234 -0.19177951 0.02311664
v -0.03529234 -0.15642440 0.02311664
v -0.04219873 -0.15642440 0.00036348
v -0.04219046 -0.19177605 0.00036348
v 0.02734430 -0.19177605 -0.03213284
v 0.02734430 -0.15642440 -0.03213284
v 0.03529160 -0.15642440 -0.02312656
v 0.03529160 -0.19177951 -0.02312656
v 0.04058704 -0.19177951 0.01152310
v 0.04058704 -0.15642440 0.01152310
v -0.04058779 -0.19177951 -0.01153301
v -0.03569714 -0.19177605 -0.02250430
v 0.04038051 -0.19177605 -0.01224532
v 0.04219798 -0.19177605 -0.00037339
v 0.04218972 -0.15642440 -0.00037339
v -0.04058779 -0.15642440 -0.01153301
v -0.03569714 -0.15642440 -0.02250430
v 0.04168579 -0.15642440 -0.00371391
v 0.04038051 -0.15642440 -0.01224532
f 41 44 45
f 41 45 33
f 41 33 32
f 41 32 9
f 41 9 7
f 41 7 6
f 41 6 15
f 41 15 18
f 41 18 43
f 41 43 42
f 41 42 29
f 41 29 25
f 41 25 28
f 41 28 13
f 41 13 12
f 41 12 1
f 41 1 4
f 41 4 23
f 41 23 20
f 41 20 19
f 41 19 36
f 1 2 3
f 1 3 4
f 5 6 7
f 5 7 8
f 8 7 9
f 8 9 10
f 11 12 13
f 11 13 14
f 11 2 1
f 11 1 12
f 15 6 5
f 15 5 16
f 16 17 18
f 16 18 15
f 19 20 21
f 19 21 22
f 23 24 21
f 23 21 20
f 3 24 23
f 3 23 4
f 25 26 27
f 25 27 28
f 25 29 30
f 25 30 26
f 31 10 9
f 31 9 32
f 31 32 33
f 31 33 34
f 35 36 19
f 35 19 22
f 11 14 27
f 11 27 26
f 11 26 30
f 11 30 37
f 11 37 38
f 11 38 17
f 11 17 16
f 11 16 5
f 11 5 8
f 11 8 10
f 11 10 31
f 11 31 34
f 11 34 39
f 11 39 40
f 11 40 35
f 11 35 22
f 11 22 21
f 11 21 24
f 11 24 3
f 11 3 2
f 35 40 41
f 35 41 36
f 42 43 38
f 42 38 37
f 42 37 30
f 42 30 29
f 13 28 27
f 13 27 14
f 44 40 39
f 44 39 45
f 45 39 34
f 45 34 33
f 18 17 38
f 18 38 43
f 41 40 44