# https://github.com/mikedh/trimesh

o geometry_0
v -0.05014057 -0.02691045 0.04399952
v -0.05082390 0.02478105 0.02722259
v -0.05045817 0.02649201 0.01059768
v -0.05057367 -0.02625954 0.01059768
v -0.05045817 0.02649201 0.04399952
v 0.04345559 -0.01904374 0.04435640
v 0.03742116 -0.02925372 0.04435640
v 0.03742116 -0.02925372 0.01059768
v 0.04300325 -0.02015959 0.01059768
v 0.04344596 0.01864390 0.04435640
v 0.04257015 0.02105227 0.01059768
v 0.03684371 0.02996973 0.01059768
v 0.03684371 0.02996973 0.04435640
v 0.04619851 0.01100967 0.04435640
v 0.04620813 0.01097247 0.01059768
v -0.02022830 -0.04296931 0.01059768
v -0.02018980 -0.04298791 0.04435640
v -0.01011318 -0.04640053 0.01059768
v -0.01011318 -0.04640053 0.04435640
v -0.02101749 0.04258807 0.01059768
v -0.02101749 0.04258807 0.04435640
v 0.00045429 -0.04749778 0.04435640
v 0.00045429 -0.04749778 0.01059768
v 0.02925015 0.03741799 0.04435640
v 0.02925015 0.03741799 0.01059768
v 0.02019369 0.04298791 0.01059768
v 0.02019369 0.04298791 0.04435640
v 0.04641024 -0.01010769 0.01059768
v 0.04640062 -0.01011699 0.04435640
v 0.02997197 -0.03684146 0.01059768
v 0.02997197 -0.03684146 0.04435640
v 0.02102138 -0.04258806 0.04435640
v 0.02102138 -0.04258806 0.01059768
v 0.01101213 -0.04619596 0.01059768
v 0.01101213 -0.04619596 0.04435640
v -0.01096974 0.04620527 0.01059768
v -0.00046002 0.04749778 0.01059768
v 0.01011707 0.04640053 0.01059768
v 0.04749779 0.00045564 0.01059768
v 0.01011707 0.04640053 0.04435640
v -0.00046002 0.04749778 0.04435640
v -0.01100823 0.04619597 0.04435640
v 0.04749779 0.00045564 0.04435640
f 34 23 18
f 34 18 16
f 34 16 4
f 34 4 3
f 34 3 20
f 34 20 36
f 34 36 37
f 34 37 38
f 34 38 26
f 34 26 25
f 34 25 12
f 34 12 11
f 34 11 15
f 34 15 39
f 34 39 28
f 34 28 9
f 34 9 8
f 34 8 30
f 34 30 33
f 1 2 3
f 1 3 4
f 5 3 2
f 5 2 1
f 6 7 8
f 6 8 9
f 10 11 12
f 10 12 13
f 10 14 15
f 10 15 11
f 16 17 1
f 16 1 4
f 16 18 19
f 16 19 17
f 20 3 5
f 20 5 21
f 22 19 18
f 22 18 23
f 24 25 26
f 24 26 27
f 28 29 6
f 28 6 9
f 30 8 7
f 30 7 31
f 30 31 32
f 30 32 33
f 12 25 24
f 12 24 13
f 34 35 22
f 34 22 23
f 34 33 32
f 34 32 35
f 40 27 26
f 40 26 38
f 40 38 37
f 40 37 41
f 36 20 21
f 36 21 42
f 42 41 37
f 42 37 36
f 29 28 39
f 29 39 43
f 14 10 13
f 14 13 24
f 14 24 27
f 14 27 40
f 14 40 41
f 14 41 42
f 14 42 21
f 14 21 5
f 14 5 1
f 14 1 17
f 14 17 19
f 14 19 22
f 14 22 35
f 14 35 32
f 14 32 31
f 14 31 7
f 14 7 6
f 14 6 29
f 14 29 43
f 14 43 39
f 14 39 15