# https://github.com/mikedh/trimesh

o geometry_0
v -0.00479104 -0.03742093 0.00000000
v -0.00920027 -0.03773103 -0.01562226
v 0.00159423 -0.03769411 -0.02700000
v 0.00920347 -0.03773103 -0.01237676
v 0.00794264 -0.03688195 0.00000000
v 0.02935469 -0.02370276 -0.02700000
v 0.03557038 -0.01256874 -0.02700000
v 0.03293811 -0.01839417 0.00000000
v 0.02492334 -0.02831732 0.00000000
v 0.01977678 -0.03212710 -0.02700000
v -0.00479104 0.03742357 0.00000000
v 0.00794264 0.03687721 0.00000000
v 0.00159423 0.03769675 -0.02700000
v 0.03557038 0.01256400 0.00000000
v 0.03293811 0.01839681 -0.02700000
v 0.02935469 0.02369802 0.00000000
v -0.02723535 0.02610497 0.00000000
v -0.01698647 0.03368762 0.00000000
v -0.01698647 0.03368762 -0.02700000
v -0.02723535 0.02610497 -0.02700000
v -0.03438007 0.01553947 -0.02700000
v -0.03438007 0.01553947 0.00000000
v 0.01406248 0.03500923 -0.02700000
v 0.01977678 0.03212236 0.00000000
v 0.01977678 0.03212236 -0.02700000
v 0.02492334 0.02831996 -0.02700000
v -0.03759483 -0.00319934 0.00000000
v -0.03759483 -0.00319934 -0.02700000
v -0.03438007 -0.01553683 -0.02700000
v -0.03438007 -0.01553683 0.00000000
v -0.03759483 0.00319460 -0.02700000
v -0.03759483 0.00319460 0.00000000
v -0.00479104 0.03742357 -0.02700000
v 0.03718513 -0.00637416 0.00000000
v 0.03773075 -0.00000237 -0.02700000
v 0.03773075 -0.00000237 0.00000000
v 0.01977678 -0.03212710 0.00000000
v -0.03125379 -0.02112599 0.00000000
v -0.03125379 -0.02112599 -0.02700000
v -0.02243533 -0.03033296 -0.02700000
v -0.02243533 -0.03033296 0.00000000
v 0.03718513 0.00636942 -0.02700000
v -0.01698647 -0.03368498 0.00000000
v -0.01698647 -0.03368498 -0.02700000
v 0.00794264 -0.03688195 -0.02700000
v -0.00479104 -0.03742093 -0.02700000
f 46 44 40
f 46 40 39
f 46 39 29
f 46 29 28
f 46 28 31
f 46 31 21
f 46 21 20
f 46 20 19
f 46 19 33
f 46 33 13
f 46 13 23
f 46 23 25
f 46 25 26
f 46 26 15
f 46 15 42
f 46 42 35
f 46 35 7
f 46 7 6
f 46 6 10
f 46 10 45
f 46 45 3
f 1 2 3
f 1 3 4
f 5 1 4
f 6 7 8
f 6 8 9
f 6 9 10
f 11 12 13
f 14 15 16
f 17 18 19
f 17 19 20
f 17 20 21
f 17 21 22
f 23 12 24
f 23 24 25
f 23 13 12
f 26 25 24
f 26 24 16
f 26 16 15
f 27 28 29
f 27 29 30
f 31 32 22
f 31 22 21
f 31 28 27
f 31 27 32
f 33 19 18
f 33 18 11
f 33 11 13
f 34 8 7
f 34 7 35
f 34 35 36
f 37 5 4
f 37 4 10
f 37 10 9
f 38 39 40
f 38 40 41
f 38 30 29
f 38 29 39
f 42 15 14
f 42 14 36
f 42 36 35
f 43 1 5
f 43 5 37
f 43 37 9
f 43 9 8
f 43 8 34
f 43 34 36
f 43 36 14
f 43 14 16
f 43 16 24
f 43 24 12
f 43 12 11
f 43 11 18
f 43 18 17
f 43 17 22
f 43 22 32
f 43 32 27
f 43 27 30
f 43 30 38
f 43 38 41
f 43 41 40
f 43 40 44
f 43 44 2
f 43 2 1
f 45 10 4
f 45 4 3
f 46 3 2
f 46 2 44