# https://github.com/mikedh/trimesh

o geometry_0
v -0.04297522 -0.08918191 0.04184916
v -0.04022754 -0.08209829 0.07205157
v -0.03554905 -0.07753044 0.04184916
v 0.03099874 -0.07315990 0.04184916
v 0.01990590 -0.06583951 0.04184916
v 0.02571688 -0.06392555 0.07205157
v -0.00000553 -0.06144924 0.04184916
v -0.01021652 -0.06256408 0.04184916
v -0.00931609 -0.05677287 0.07205157
v 0.00328984 -0.05555938 0.07205157
v 0.01643416 -0.15324029 0.07205157
v 0.02435232 -0.15067521 0.04184916
v 0.02967132 -0.14570285 0.07205157
v -0.02247899 -0.06729964 0.04184916
v -0.02265536 -0.06284032 0.07205157
v -0.03129757 -0.14434139 0.07205157
v -0.02963596 -0.14705448 0.04184916
v -0.02430768 -0.15071467 0.04184916
v -0.01932286 -0.15212548 0.07205157
v -0.04012543 -0.13443618 0.04184916
v -0.04035750 -0.13359757 0.07205157
v -0.04590856 -0.12042678 0.07205157
v -0.04560223 -0.12183758 0.04997921
v -0.04543514 -0.12243939 0.04184916
v -0.04738452 -0.10739410 0.04184916
v -0.04740308 -0.10724612 0.07205157
v 0.04545193 -0.12244926 0.04184916
v 0.04360467 -0.12726375 0.07205157
v 0.04021649 -0.13434736 0.04184916
v 0.01589576 -0.05823301 0.07205157
v 0.04741988 -0.10979148 0.07205157
v 0.04739202 -0.10798605 0.04184916
v 0.04531269 -0.09506190 0.04184916
v 0.04488569 -0.09401613 0.07205157
v -0.01014226 -0.15517399 0.07205157
v 0.00010586 -0.15634803 0.04827042
v 0.00328984 -0.15616056 0.07205157
v -0.03294989 -0.07207467 0.07205157
v 0.03905614 -0.13556086 0.07205157
v 0.04138611 -0.08579795 0.04184916
v 0.03906543 -0.07955292 0.07205157
v -0.01282496 -0.15473990 0.04505388
v -0.00006122 -0.15531211 0.04451877
v 0.01267466 -0.15476950 0.04513666
v 0.02972701 -0.14700514 0.04184916
v 0.01018689 -0.06256408 0.04184916
v -0.01383678 -0.15279634 0.04184916
v 0.01684260 -0.15265822 0.04184916
v -0.04531447 -0.09511123 0.04184916
v -0.04575075 -0.09690680 0.07205157
v 0.04643590 -0.11819712 0.07205157
v 0.03384854 -0.07174910 0.07205157
v -0.02868912 -0.07114729 0.04184916
v 0.03553800 -0.07750084 0.04184916
f 54 40 33
f 54 33 32
f 54 32 27
f 54 27 29
f 54 29 45
f 54 45 12
f 54 12 48
f 54 48 47
f 54 47 18
f 54 18 17
f 54 17 20
f 54 20 24
f 54 24 25
f 54 25 49
f 54 49 1
f 54 1 3
f 54 3 53
f 54 53 14
f 54 14 8
f 54 8 7
f 54 7 46
f 54 46 5
f 54 5 4
f 1 2 3
f 4 5 6
f 7 8 9
f 7 9 10
f 11 12 13
f 14 15 9
f 14 9 8
f 16 17 18
f 16 18 19
f 20 21 22
f 20 22 23
f 20 23 24
f 24 23 25
f 26 25 23
f 26 23 22
f 27 28 29
f 30 6 5
f 31 32 33
f 31 33 34
f 35 36 37
f 38 3 2
f 39 29 28
f 33 40 41
f 33 41 34
f 42 36 35
f 42 35 19
f 42 19 18
f 42 43 36
f 44 12 11
f 44 11 37
f 44 37 36
f 44 36 43
f 45 29 39
f 45 39 13
f 45 13 12
f 17 16 21
f 17 21 20
f 46 7 10
f 46 10 30
f 46 30 5
f 47 43 42
f 47 42 18
f 48 43 47
f 48 12 44
f 48 44 43
f 49 25 26
f 49 26 50
f 50 2 1
f 50 1 49
f 51 28 27
f 27 32 31
f 27 31 51
f 51 31 34
f 51 34 41
f 51 41 52
f 51 52 6
f 51 6 30
f 51 30 10
f 51 10 9
f 51 9 15
f 51 15 38
f 51 38 2
f 51 2 50
f 51 50 26
f 51 26 22
f 51 22 21
f 51 21 16
f 51 16 19
f 51 19 35
f 51 35 37
f 51 37 11
f 51 11 13
f 51 13 39
f 51 39 28
f 53 15 14
f 53 3 38
f 53 38 15
f 54 4 6
f 54 6 52
f 54 52 41
f 54 41 40