# https://github.com/mikedh/trimesh

o geometry_0
v -0.04298792 0.02018749 0.15480001
v -0.03741799 0.02925373 0.15480001
v -0.03741799 0.02925373 0.04435641
v -0.04298792 0.02018749 0.04435641
v 0.04298791 -0.02018748 0.15480001
v 0.03741799 -0.02925372 0.15480001
v 0.03741799 -0.02925372 0.04435641
v 0.04346214 -0.01904374 0.04435641
v 0.04477326 -0.01585429 0.14477836
v 0.02925373 0.03741799 0.04435641
v 0.02018749 0.04298791 0.04435641
v 0.02018749 0.04298791 0.15480001
v 0.02925373 0.03741799 0.15480001
v 0.04619597 0.01100967 0.04435641
v 0.04042147 0.02439980 0.04435641
v 0.04258807 0.02101508 0.15480001
v -0.02018749 -0.04298791 0.04435641
v -0.02018749 -0.04298791 0.15480001
v -0.02925373 -0.03741798 0.15480001
v -0.03018360 -0.03660899 0.04435641
v -0.04258807 -0.02101507 0.15480001
v -0.04257877 -0.02104296 0.04435641
v -0.03684147 -0.02996972 0.04435641
v -0.03684147 -0.02996972 0.15480001
v 0.03684147 0.02996973 0.04435641
v 0.03684147 0.02996973 0.15480001
v -0.02996973 0.03684147 0.15480001
v -0.02101507 0.04258807 0.15480001
v -0.02101507 0.04258807 0.04435641
v -0.02996973 0.03684147 0.04435641
v 0.02996972 -0.03684146 0.04435641
v 0.02996972 -0.03684146 0.15480001
v 0.02101507 -0.04258806 0.15480001
v 0.02101507 -0.04258806 0.04435641
v -0.01100967 0.04619597 0.15480001
v -0.01100967 0.04619597 0.04435641
v -0.00045564 0.04749778 0.15480001
v -0.00045564 0.04749778 0.04435641
v 0.04619597 0.01100967 0.15480001
v 0.04749778 0.00045564 0.15480001
v 0.04749778 0.00045564 0.04435641
v -0.04619597 -0.01100966 0.15480001
v -0.04749779 -0.00045563 0.15480001
v -0.04749779 -0.00045563 0.04435641
v -0.04620527 -0.01098177 0.04435641
v 0.01100967 -0.04619596 0.15480001
v 0.00045564 -0.04749778 0.15480001
v 0.00045564 -0.04749778 0.04435641
v 0.01100967 -0.04619596 0.04435641
v -0.01011699 -0.04640053 0.15480001
v -0.01011699 -0.04640053 0.04435641
v 0.01011699 0.04640053 0.04435641
v 0.01011699 0.04640053 0.15480001
v -0.04640054 0.01011699 0.04435641
v -0.04640054 0.01011699 0.15480001
v 0.04640054 -0.01011699 0.15480001
v 0.04640054 -0.01011699 0.04435641
f 56 40 39
f 56 39 16
f 56 16 26
f 56 26 13
f 56 13 12
f 56 12 53
f 56 53 37
f 56 37 35
f 56 35 28
f 56 28 27
f 56 27 2
f 56 2 1
f 56 1 55
f 56 55 43
f 56 43 42
f 56 42 21
f 56 21 24
f 56 24 19
f 56 19 18
f 56 18 50
f 56 50 47
f 56 47 46
f 56 46 33
f 56 33 32
f 56 32 6
f 56 6 5
f 1 2 3
f 1 3 4
f 5 6 7
f 5 7 8
f 5 8 9
f 10 11 12
f 10 12 13
f 14 15 16
f 17 18 19
f 17 19 20
f 21 22 23
f 21 23 24
f 24 23 20
f 24 20 19
f 16 15 25
f 16 25 26
f 27 28 29
f 27 29 30
f 27 30 3
f 27 3 2
f 31 7 6
f 31 6 32
f 31 32 33
f 31 33 34
f 35 36 29
f 35 29 28
f 35 37 38
f 35 38 36
f 39 40 41
f 39 41 14
f 39 14 16
f 42 43 44
f 42 44 45
f 45 22 21
f 45 21 42
f 46 47 48
f 46 48 49
f 46 49 34
f 46 34 33
f 50 18 17
f 50 17 51
f 50 51 48
f 50 48 47
f 52 38 37
f 52 37 53
f 52 53 12
f 52 12 11
f 54 44 43
f 54 43 55
f 54 55 1
f 54 1 4
f 56 5 9
f 57 41 40
f 57 40 56
f 57 56 9
f 57 9 8
f 25 10 13
f 25 13 26
f 25 15 14
f 25 14 41
f 25 41 57
f 25 57 8
f 25 8 7
f 25 7 31
f 25 31 34
f 25 34 49
f 25 49 48
f 25 48 51
f 25 51 17
f 25 17 20
f 25 20 23
f 25 23 22
f 25 22 45
f 25 45 44
f 25 44 54
f 25 54 4
f 25 4 3
f 25 3 30
f 25 30 29
f 25 29 36
f 25 36 38
f 25 38 52
f 25 52 11
f 25 11 10