# https://github.com/mikedh/trimesh

o geometry_0
v 0.01133306 -0.04070661 -0.17299265
v 0.01099252 -0.04110589 -0.14880489
v 0.00007870 -0.04255325 -0.14901942
v -0.00277019 -0.04217061 -0.17299265
v -0.02850986 -0.03119893 -0.17299265
v -0.01657443 -0.03887661 -0.17299265
v -0.01966419 -0.03720466 -0.14359500
v -0.02844342 -0.03160651 -0.14740281
v 0.04178213 0.01146505 -0.13001859
v 0.04225556 0.00021054 -0.17300031
v 0.04069407 0.01139018 -0.17299265
v 0.03805282 0.04242533 -0.10492676
v -0.04204832 0.01800314 -0.12571275
v -0.04194034 0.00523473 -0.17299265
v -0.04204832 -0.00428960 -0.17299265
v -0.04177422 -0.00341619 -0.13922019
v -0.04018782 0.01251314 -0.12305417
v -0.03748013 0.04242533 -0.10324121
v -0.03898348 0.04242533 -0.10887250
v 0.03409095 0.04242533 -0.10089675
v 0.02505424 0.04242533 -0.09774782
v 0.02093457 -0.02421997 -0.13076942
v 0.03940667 0.00251468 -0.12777373
v -0.01141653 -0.04098943 -0.14878957
v -0.02716432 -0.02949369 -0.13836209
v -0.03171590 -0.02723115 -0.14235380
v 0.00276148 0.04216747 -0.17299265
v -0.03326909 0.04242533 -0.10038342
v -0.02544502 0.04242533 -0.09774782
v -0.00675697 0.04242533 -0.09498963
v 0.00770343 0.04242533 -0.09512754
v 0.03643319 0.04242533 -0.11539254
v 0.03450624 0.02439151 -0.17300031
v 0.03759600 -0.01442946 -0.13702130
v 0.04122564 -0.00725919 -0.14010894
v 0.04129208 0.01045023 -0.12669344
v 0.03157430 -0.02485215 -0.13820121
v 0.03679034 -0.02116719 -0.14585517
v 0.01158224 -0.03508352 -0.13501395
v 0.01202244 -0.03865202 -0.13930447
v 0.02287813 -0.03309547 -0.13872986
v -0.03806153 -0.01272423 -0.13650031
v -0.03752166 -0.01983628 -0.14565597
v -0.03351826 -0.02169956 -0.13753463
v 0.00615024 -0.04113084 -0.14177153
v 0.03002942 -0.02931070 -0.14300504
v -0.01445645 -0.03777029 -0.13921253
v -0.01832695 -0.03201411 -0.13473049
v 0.03086830 -0.01398028 -0.12994963
v 0.02499610 -0.02748901 -0.13459258
v 0.01211381 0.04048719 -0.17299265
v 0.02087643 0.03673570 -0.17299265
v -0.03973930 0.01439305 -0.17300031
v -0.00664069 0.04173492 -0.17300031
v -0.01582691 0.03918124 -0.17300031
v -0.04147522 -0.00931378 -0.15063602
v -0.03825257 -0.01797301 -0.17299265
v 0.01824349 -0.03793666 -0.14367926
v 0.02416552 -0.03466761 -0.17300031
v 0.02419875 -0.03498370 -0.14790082
v -0.02418254 0.03465615 -0.17299265
v -0.03125908 0.02844246 -0.17299265
v 0.00003717 -0.03334501 -0.13254693
v 0.01107558 -0.02934397 -0.13116783
v 0.02850115 0.03119578 -0.17300031
v -0.00926532 -0.03579057 -0.13507526
v -0.00455593 -0.04030734 -0.13947304
v 0.03124206 -0.02844560 -0.17299265
v 0.03607604 -0.02189920 -0.17299265
v 0.04048642 -0.01255787 -0.14458334
v 0.04238014 -0.00347441 -0.14671327
v 0.04160770 -0.00738396 -0.17300031
v 0.00595090 -0.03857716 -0.13724349
v -0.01336839 -0.02848720 -0.13109121
v -0.02786201 -0.01739074 -0.13007988
v -0.02600982 -0.02611651 -0.13419418
v -0.00468052 -0.04194602 -0.14418493
v -0.04077753 -0.01154305 -0.14443010
v -0.03326909 -0.02605829 -0.17299265
v -0.03683228 0.02072319 -0.17299265
v -0.03449834 -0.01458751 -0.13307557
v 0.03890001 -0.01649237 -0.17300031
f 82 69 68
f 82 68 59
f 82 59 1
f 82 1 4
f 82 4 6
f 82 6 5
f 82 5 79
f 82 79 57
f 82 57 15
f 82 15 14
f 82 14 53
f 82 53 80
f 82 80 62
f 82 62 61
f 82 61 55
f 82 55 54
f 82 54 27
f 82 27 51
f 82 51 52
f 82 52 65
f 82 65 33
f 82 33 11
f 82 11 10
f 82 10 72
f 1 2 3
f 1 3 4
f 5 6 7
f 5 7 8
f 9 10 11
f 9 11 12
f 13 14 15
f 13 15 16
f 13 16 17
f 13 17 18
f 13 18 19
f 20 21 22
f 20 23 12
f 24 7 6
f 24 6 4
f 25 26 8
f 25 8 7
f 27 19 18
f 27 18 28
f 27 28 29
f 27 29 30
f 27 30 31
f 27 31 21
f 27 21 20
f 27 20 12
f 27 12 32
f 32 12 11
f 32 11 33
f 34 35 36
f 34 36 23
f 34 37 38
f 39 40 41
f 42 17 16
f 42 43 44
f 45 3 2
f 46 38 37
f 46 37 41
f 47 48 25
f 47 25 7
f 49 37 34
f 49 34 23
f 49 23 20
f 20 22 50
f 20 50 49
f 51 27 32
f 51 32 52
f 14 13 19
f 14 19 53
f 54 55 19
f 54 19 27
f 56 15 57
f 56 16 15
f 58 40 45
f 58 45 2
f 59 60 58
f 59 58 2
f 59 2 1
f 58 60 46
f 58 46 41
f 58 41 40
f 61 19 55
f 61 62 19
f 30 63 64
f 30 64 31
f 65 52 32
f 65 32 33
f 66 48 47
f 66 47 67
f 26 25 44
f 26 44 43
f 68 69 38
f 68 38 46
f 46 60 59
f 46 59 68
f 50 22 39
f 50 39 41
f 50 41 37
f 50 37 49
f 70 35 34
f 70 34 38
f 71 35 70
f 71 70 72
f 71 72 10
f 71 10 9
f 73 40 39
f 73 39 63
f 63 66 67
f 63 67 73
f 73 67 45
f 73 45 40
f 74 66 63
f 74 63 30
f 74 30 29
f 29 28 75
f 29 75 76
f 29 76 48
f 29 48 74
f 74 48 66
f 77 67 47
f 77 47 7
f 77 7 24
f 24 4 3
f 24 3 77
f 77 3 45
f 77 45 67
f 35 71 9
f 35 9 36
f 36 9 12
f 36 12 23
f 78 16 56
f 78 56 57
f 78 57 43
f 78 43 42
f 78 42 16
f 79 43 57
f 79 5 8
f 79 8 26
f 79 26 43
f 80 53 19
f 80 19 62
f 64 63 39
f 64 39 22
f 64 22 21
f 64 21 31
f 81 75 28
f 81 28 18
f 81 18 17
f 81 17 42
f 81 42 44
f 76 75 81
f 76 81 44
f 76 44 25
f 76 25 48
f 82 72 70
f 82 70 38
f 82 38 69