# https://github.com/mikedh/trimesh

o geometry_0
v 0.00701686 -0.03773103 -0.00783132
v 0.00920712 -0.05200000 -0.01237800
v 0.00933876 -0.03773103 -0.01411869
v -0.00710467 -0.03773103 -0.00793382
v -0.00933881 -0.03773103 -0.01411686
v -0.00920718 -0.05200000 -0.01237800
v -0.00600954 -0.03773103 -0.02116019
v -0.00000003 -0.03773103 -0.02334750
v -0.00000003 -0.05200000 -0.02334750
v -0.00600954 -0.05200000 -0.02116019
v -0.00600954 -0.05200000 -0.00683925
v 0.00600948 -0.05200000 -0.00683925
v -0.00809559 -0.05200000 -0.01867452
v 0.00809553 -0.05200000 -0.01867452
v -0.00000003 -0.05200000 -0.00465194
v 0.00600948 -0.05200000 -0.02116019
v 0.00702051 -0.03773103 -0.02016446
v -0.00319767 -0.03773103 -0.00521570
v -0.00000003 -0.03773103 -0.00465194
v -0.00809559 -0.03773103 -0.01867452
v 0.00319761 -0.03773103 -0.02278374
v 0.00319761 -0.03773103 -0.00521570
f 22 1 3
f 22 3 17
f 22 17 21
f 22 21 8
f 22 8 7
f 22 7 20
f 22 20 5
f 22 5 4
f 22 4 18
f 22 18 19
f 1 2 3
f 4 5 6
f 7 8 9
f 7 9 10
f 11 4 6
f 12 2 1
f 13 6 5
f 14 2 12
f 14 12 15
f 14 15 11
f 14 11 6
f 14 6 13
f 14 13 10
f 14 10 9
f 14 9 16
f 14 16 17
f 14 17 3
f 14 3 2
f 18 4 11
f 18 11 15
f 18 15 19
f 20 7 10
f 20 10 13
f 20 13 5
f 21 17 16
f 21 16 9
f 21 9 8
f 22 19 15
f 22 15 12
f 22 12 1