# https://github.com/mikedh/trimesh

o geometry_0
v 0.01441328 0.01857636 -0.04927472
v 0.02427021 0.07528973 -0.04082986
v 0.02109754 0.01857636 -0.04526198
v -0.02926975 0.01857636 -0.03920951
v -0.02470375 0.07528973 -0.04056298
v -0.01448907 0.01857636 -0.04927472
v -0.04184746 0.07528973 0.02246846
v -0.04161210 0.01857636 0.02408880
v -0.03663185 0.01857636 0.03113254
v -0.03602933 0.07528973 0.03094191
v -0.00538530 0.07528973 -0.04718734
v 0.00487645 0.07528973 -0.04724452
v 0.04682723 0.07528973 -0.00792732
v 0.04761804 0.01857636 -0.00671682
v 0.04393699 0.01857636 -0.01962240
v 0.04498200 0.03350005 -0.01699172
v 0.04732619 0.01857636 0.00848583
v 0.04582929 0.07528973 0.01246044
v 0.04505731 0.01857636 0.01678772
v 0.00006566 0.01857636 0.04807945
v 0.00739011 0.01857636 0.04750756
v 0.00822799 0.03350005 0.04737412
v 0.01044980 0.07528973 0.04632566
v 0.00024454 0.07528973 0.04749803
v 0.04403114 0.07528973 -0.01781142
v 0.03903206 0.01857636 -0.02842945
v 0.03916387 0.07528973 -0.02685676
v 0.04208235 0.07528973 0.02202048
v 0.03247961 0.07528973 -0.03465349
v 0.03068145 0.01857636 -0.03790371
v 0.04743916 0.07528973 0.00230946
v -0.02853543 0.07528973 0.03796659
v -0.03047480 0.01857636 0.03718501
v -0.04569797 0.07528973 0.01294655
v -0.04741140 0.07529528 0.00282415
v -0.04744906 0.01857636 0.00780910
v -0.00996072 0.07528973 0.04644004
v -0.01971409 0.07528973 0.04320888
v -0.01557173 0.01857636 0.04547737
v -0.01540227 0.07528973 -0.04492838
v -0.03284724 0.07528973 -0.03430082
v 0.02893978 0.07528973 0.03765205
v 0.03123690 0.03350005 0.03655593
v 0.03628304 0.01857636 0.03155193
v 0.03635836 0.07528973 0.03055112
v 0.01492166 0.07528973 -0.04509042
v -0.04421048 0.07528973 -0.01734438
v -0.04184746 0.01857636 -0.02389249
v -0.04697833 0.01857636 -0.01031971
v -0.04691243 0.07528973 -0.00743168
v -0.03945619 0.07528973 -0.02643738
v 0.01956299 0.01857636 0.04378077
v 0.02016551 0.07528973 0.04299919
v 0.02726400 0.01857636 0.03945349
v -0.03621762 0.01857636 -0.03209906
v -0.04808923 0.01857636 -0.00000669
v -0.04525549 0.01857636 0.01622536
v 0.04132919 0.01857636 0.02456538
v -0.02338572 0.01857636 0.04200792
f 23 53 42
f 23 42 45
f 23 45 28
f 23 28 18
f 23 18 31
f 23 31 13
f 23 13 25
f 23 25 27
f 23 27 29
f 23 29 2
f 23 2 46
f 23 46 12
f 23 12 11
f 23 11 40
f 23 40 5
f 23 5 41
f 23 41 51
f 23 51 47
f 23 47 50
f 23 50 35
f 23 35 34
f 23 34 7
f 23 7 10
f 23 10 32
f 23 32 38
f 23 38 37
f 23 37 24
f 1 2 3
f 4 5 6
f 7 8 9
f 7 9 10
f 1 6 11
f 1 11 12
f 13 14 15
f 13 15 16
f 17 18 19
f 20 21 22
f 20 22 23
f 20 23 24
f 25 13 16
f 25 16 15
f 25 15 26
f 25 26 27
f 28 19 18
f 29 27 26
f 29 26 30
f 30 3 2
f 30 2 29
f 31 18 17
f 31 17 14
f 31 14 13
f 32 10 9
f 32 9 33
f 34 35 36
f 37 38 39
f 37 39 20
f 37 20 24
f 40 6 5
f 40 11 6
f 41 5 4
f 42 43 44
f 42 44 45
f 46 1 12
f 46 2 1
f 47 48 49
f 47 49 50
f 47 51 48
f 23 22 52
f 23 52 53
f 54 44 43
f 54 43 42
f 42 53 52
f 42 52 54
f 21 52 22
f 55 51 41
f 55 41 4
f 55 48 51
f 56 35 50
f 56 50 49
f 56 36 35
f 57 8 7
f 57 7 34
f 57 34 36
f 58 19 28
f 28 45 44
f 28 44 58
f 59 33 9
f 59 9 8
f 59 8 57
f 59 57 36
f 59 36 56
f 59 56 49
f 59 49 48
f 59 48 55
f 59 55 4
f 59 4 6
f 59 6 1
f 59 1 3
f 59 3 30
f 59 30 26
f 59 26 15
f 59 15 14
f 59 14 17
f 59 17 19
f 59 19 58
f 59 58 44
f 59 44 54
f 59 54 52
f 59 52 21
f 59 21 20
f 59 20 39
f 59 39 38
f 59 38 32
f 59 32 33