# https://github.com/mikedh/trimesh

o geometry_0
v 0.07160779 -0.00784521 0.03798621
v 0.07796766 -0.02599329 0.03395416
v 0.08396486 -0.00784521 0.02823426
v 0.01854400 -0.02599329 0.02565562
v 0.02895509 -0.02599329 0.03542633
v 0.02661104 -0.00784521 0.03424484
v 0.04656635 -0.02599329 0.04209329
v 0.06081635 -0.02599329 0.04165258
v 0.05341272 -0.00928466 0.04276842
v 0.03717250 -0.02599329 0.03966468
v 0.03891505 -0.00784521 0.04068676
v 0.01805751 -0.00784521 0.02550559
v 0.09353563 -0.00784521 -0.00738851
v 0.09352679 -0.02599329 -0.01079232
v 0.09056356 -0.02599329 -0.01873453
v 0.09005053 -0.00784521 -0.01798438
v 0.07074978 -0.00784521 -0.03734764
v 0.07990481 -0.00784521 -0.03126204
v 0.08036477 -0.02599329 -0.03201219
v 0.07348302 -0.02599329 -0.03690692
v 0.00448860 -0.00784521 -0.03587547
v 0.00448860 -0.00784521 -0.05302578
v 0.00448860 -0.02424920 -0.05302578
v 0.01070695 -0.02599329 0.00809272
v 0.01086616 -0.00784521 0.00993059
v 0.03163525 -0.00784521 -0.05302578
v 0.06567250 -0.02599329 -0.04037637
v 0.05400537 -0.00784521 0.04273092
v 0.07001561 -0.02599329 0.03868011
v 0.06308963 -0.00784521 0.04132439
v 0.01433358 -0.00784521 0.01957002
v 0.01362594 -0.02599329 0.01733833
v 0.01789829 -0.01902230 -0.05302578
v 0.09455285 -0.02599329 0.00555159
v 0.09391598 -0.00784521 0.00632987
v 0.09194345 -0.00784521 0.01447838
v 0.09262454 -0.02599329 0.01377511
v 0.08840528 -0.00784521 0.02208303
v 0.08911291 -0.02599329 0.02143602
v 0.08415946 -0.02599329 0.02826239
v 0.08564550 -0.00784521 -0.02512019
v 0.08608777 -0.02599329 -0.02592660
v 0.09485360 -0.02599329 -0.00241876
v 0.02223255 -0.02604495 -0.02948044
f 39 40 2
f 39 2 29
f 39 29 8
f 39 8 7
f 39 7 10
f 39 10 5
f 39 5 4
f 39 4 32
f 39 32 24
f 39 24 44
f 39 44 27
f 39 27 20
f 39 20 19
f 39 19 42
f 39 42 15
f 39 15 14
f 39 14 43
f 39 43 34
f 39 34 37
f 1 2 3
f 4 5 6
f 7 8 9
f 6 5 10
f 6 10 11
f 11 7 9
f 12 4 6
f 13 14 15
f 13 15 16
f 17 18 19
f 17 19 20
f 21 22 23
f 21 23 24
f 21 24 25
f 26 17 20
f 26 20 27
f 28 11 9
f 29 2 1
f 10 7 11
f 30 28 9
f 30 9 8
f 30 8 29
f 30 29 1
f 31 25 24
f 31 24 32
f 32 4 12
f 32 12 31
f 33 26 27
f 33 27 23
f 33 23 22
f 33 22 26
f 34 35 36
f 34 36 37
f 37 36 38
f 37 38 39
f 40 3 2
f 40 39 38
f 40 38 3
f 41 16 15
f 41 15 42
f 41 42 19
f 41 19 18
f 43 13 35
f 43 35 34
f 43 14 13
f 44 23 27
f 44 24 23
f 38 36 35
f 38 35 13
f 38 13 16
f 38 16 41
f 38 41 18
f 38 18 17
f 38 17 26
f 38 26 22
f 38 22 21
f 38 21 25
f 38 25 31
f 38 31 12
f 38 12 6
f 38 6 11
f 38 11 28
f 38 28 30
f 38 30 1
f 38 1 3