# https://github.com/mikedh/trimesh

o geometry_0
v 0.01440855 0.01856901 -0.04928425
v 0.03068742 0.01856901 -0.03790370
v 0.03100978 0.01225929 -0.04928425
v -0.01496358 -0.00618450 0.04557269
v -0.00000257 0.00276530 0.04808899
v 0.00007328 0.01856901 0.04807946
v -0.01557036 0.01856901 0.04547738
v -0.04600437 -0.00150001 -0.04928425
v -0.04404180 0.01856901 -0.01939363
v -0.03967106 0.00693500 -0.04928425
v -0.04778679 -0.01285457 -0.04928425
v -0.04808070 0.01856901 -0.00017824
v -0.04697143 0.01856901 -0.01031970
v -0.01104793 -0.05477963 -0.00639274
v -0.01140821 -0.05561798 0.00410138
v -0.02666313 -0.05099232 -0.00144592
v -0.01461278 -0.04773451 -0.04928425
v 0.00184623 -0.04966125 -0.04928425
v 0.01072044 -0.05476491 -0.00644993
v 0.01852330 -0.04623429 -0.04928425
v 0.02641149 -0.05094085 -0.00158890
v -0.03288267 0.01856901 -0.03582584
v -0.04449689 -0.03553425 -0.00251345
v -0.04342553 -0.03618140 -0.01702984
v -0.03895050 -0.04304267 -0.00208453
v 0.03789298 -0.04290294 -0.01045314
v 0.03907811 -0.04249112 0.00150882
v 0.03189151 -0.04788159 0.00853350
v -0.04709468 -0.02920982 -0.01703937
v -0.04324540 -0.02646679 -0.04928425
v -0.04754977 -0.02499599 -0.00180812
v 0.03943838 -0.03100420 0.02032390
v 0.03241297 -0.03852732 0.02544228
v 0.03246985 -0.04363834 0.01942794
v 0.03966593 -0.03871852 0.01185044
v 0.02309315 -0.04199105 0.03171397
v 0.02271391 -0.03471060 0.03653688
v 0.01200038 -0.04065262 0.03840505
v 0.01209519 -0.04977156 0.02971237
v 0.02304574 -0.04938180 0.02210628
v -0.04216456 -0.02868034 0.01639694
v -0.03816358 -0.01970848 0.02695778
v -0.04534070 -0.01336199 0.01424284
v 0.03717243 -0.01058218 0.02976003
v 0.04354366 -0.01547994 0.01833182
v 0.04133458 0.01856901 0.02456539
v -0.01190122 -0.05345590 0.02234456
v -0.01767514 -0.04882290 0.02809202
v -0.02780085 -0.04914647 0.01575833
v -0.01725798 -0.05420601 0.01220311
v -0.00004049 -0.05612540 0.01537708
v 0.00005432 -0.05197775 0.02894032
v 0.02443945 -0.00464017 0.04129307
v 0.02365252 0.01856901 0.04182683
v 0.01552731 0.01856901 0.04549644
v 0.01035068 -0.00663310 0.04683085
v 0.01614357 -0.01662716 0.04440986
v -0.03136571 -0.02762136 0.03260039
v -0.02215018 -0.03049677 0.03862427
v -0.02078491 -0.01585499 0.04250357
v -0.02968757 -0.01361203 0.03702298
v 0.00616008 -0.04474144 0.03694673
v 0.01192453 -0.05342649 0.02225878
v 0.01715804 -0.05416924 0.01208873
v 0.04379016 -0.03640202 -0.00971922
v -0.00597559 -0.04782276 0.03408730
v -0.00587130 -0.04120417 0.03953929
v -0.01740968 -0.03982162 0.03678470
v 0.04458656 -0.02870240 0.00924836
v -0.02799047 -0.04574893 0.02292598
v -0.03229484 -0.03862292 0.02566150
v -0.03969002 -0.03882148 0.01209826
v -0.03124245 0.01231077 -0.04928425
v -0.01448953 0.01856901 -0.04928425
v 0.00015861 -0.01848772 0.04708819
v -0.00555843 -0.02796700 0.04498174
v 0.00588513 -0.02795229 0.04494362
v -0.03612517 -0.04450611 0.00911491
v 0.04450124 -0.03437232 0.00047943
v 0.04744983 -0.02486362 -0.00207500
v 0.04678616 -0.01092047 0.00952477
v 0.04657758 -0.00472106 -0.04928425
v 0.04546830 0.01856901 -0.01570497
v 0.04803765 0.01856901 -0.00194156
v 0.04729813 -0.01168528 -0.04928425
v 0.04371432 0.00169897 -0.04928425
v 0.01691153 -0.02679036 0.04228435
v 0.03930565 0.00687617 -0.04928425
v 0.03903070 0.01856901 -0.02842944
v -0.04132075 0.00155189 0.02450820
v -0.04161466 0.01856901 0.02408882
v -0.04562513 0.01856901 0.01510066
v 0.00607475 -0.03717419 0.04167433
v -0.02291814 -0.04204988 0.03187601
v -0.02764916 -0.03714477 0.03159006
v -0.00008789 -0.05655193 0.00634127
v -0.04468651 -0.03114392 0.00677018
v -0.04769198 -0.00867015 0.00535953
v -0.01141769 -0.03230585 0.04252263
v -0.01064025 -0.01725225 0.04600161
v 0.04596131 -0.01901720 -0.04928425
v 0.04757308 -0.02526809 -0.02098539
v -0.03171650 -0.04853609 0.00464467
v -0.03395402 -0.04495470 -0.01625779
v -0.02349648 -0.04434432 -0.04928425
v -0.03143207 -0.03944657 -0.04928425
v -0.03812566 -0.03340159 -0.04928425
v -0.03567008 -0.02979814 0.02691012
v -0.03955729 -0.03412964 0.01797916
v 0.02698035 -0.04207194 -0.04928425
v 0.03433761 -0.03654910 -0.04928425
v 0.03109511 0.01856901 0.03659407
v -0.04847891 -0.01984085 -0.01281694
v -0.03562268 -0.00130881 0.03219054
v -0.03047449 0.01856901 0.03718502
v -0.03794552 0.01856901 0.02946455
v 0.02569094 -0.01476660 0.03980617
v 0.03109511 -0.02311337 0.03413496
v 0.03581664 -0.02969519 0.02666230
v -0.02416015 0.00481706 0.04156948
v -0.02338271 0.01856901 0.04200793
v 0.04498477 0.01259022 0.01696882
v 0.04506061 0.01856901 0.01678773
v 0.04732658 0.01856901 0.00848584
v 0.02265702 -0.05198511 0.01428096
v -0.04654479 -0.01901720 -0.04928425
v 0.04264296 -0.02645944 -0.04928425
v 0.04836000 -0.01667864 -0.00796543
v 0.03240348 -0.00250016 0.03542170
v 0.04490892 -0.03237939 -0.02071851
v 0.04718436 -0.02851855 -0.01081533
v 0.01119449 -0.05559592 0.00403466
f 126 11 8
f 126 8 10
f 126 10 73
f 126 73 74
f 126 74 1
f 126 1 3
f 126 3 88
f 126 88 86
f 126 86 82
f 126 82 85
f 126 85 101
f 126 101 127
f 126 127 111
f 126 111 110
f 126 110 20
f 126 20 18
f 126 18 17
f 126 17 105
f 126 105 106
f 126 106 107
f 126 107 30
f 1 2 3
f 4 5 6
f 4 6 7
f 8 9 10
f 11 12 13
f 11 13 8
f 14 15 16
f 14 16 17
f 14 17 18
f 19 18 20
f 19 20 21
f 22 10 9
f 23 24 25
f 26 27 28
f 26 28 21
f 29 30 24
f 29 24 23
f 29 23 31
f 32 33 34
f 32 34 35
f 36 33 37
f 36 37 38
f 36 38 39
f 36 39 40
f 41 42 43
f 44 45 46
f 47 48 49
f 47 49 50
f 47 50 51
f 47 51 52
f 53 54 55
f 53 55 56
f 53 56 57
f 58 59 60
f 58 60 61
f 62 52 39
f 62 39 38
f 63 40 39
f 63 39 52
f 63 52 51
f 63 51 64
f 34 33 36
f 34 36 40
f 34 40 28
f 34 28 35
f 27 35 28
f 27 26 65
f 66 52 62
f 66 62 67
f 66 67 68
f 66 68 48
f 48 47 52
f 48 52 66
f 69 45 32
f 69 32 35
f 70 71 72
f 70 49 48
f 73 10 22
f 73 22 74
f 75 76 77
f 72 23 25
f 72 25 78
f 78 49 70
f 78 70 72
f 79 80 69
f 79 69 35
f 79 35 27
f 79 27 65
f 81 45 69
f 81 69 80
f 82 83 84
f 82 84 85
f 82 86 83
f 87 57 77
f 87 38 37
f 88 3 2
f 88 2 89
f 88 89 83
f 88 83 86
f 90 91 92
f 90 92 43
f 90 43 42
f 93 67 62
f 93 62 38
f 93 38 87
f 93 87 77
f 93 77 76
f 93 76 67
f 55 6 5
f 55 5 56
f 56 5 75
f 56 75 77
f 56 77 57
f 94 95 71
f 94 71 70
f 94 70 48
f 94 48 68
f 96 14 18
f 96 18 19
f 97 23 72
f 97 41 43
f 97 43 98
f 97 98 31
f 97 31 23
f 99 59 68
f 99 68 67
f 99 67 76
f 99 100 60
f 99 60 59
f 13 9 8
f 98 43 92
f 98 92 12
f 101 85 102
f 103 49 78
f 103 78 25
f 25 104 16
f 25 16 103
f 103 16 50
f 103 50 49
f 105 17 16
f 105 16 104
f 105 104 106
f 107 24 30
f 107 106 104
f 107 104 25
f 107 25 24
f 108 58 42
f 42 41 109
f 42 109 108
f 110 111 26
f 110 26 21
f 110 21 20
f 54 53 112
f 113 31 98
f 113 98 12
f 113 12 11
f 113 11 29
f 113 29 31
f 100 4 60
f 100 99 76
f 100 76 75
f 100 75 5
f 100 5 4
f 114 61 115
f 114 115 116
f 114 116 91
f 114 91 90
f 114 90 42
f 114 42 58
f 114 58 61
f 117 53 57
f 117 57 87
f 87 37 118
f 87 118 117
f 119 33 32
f 119 32 45
f 119 45 44
f 119 44 118
f 119 118 37
f 119 37 33
f 120 121 115
f 120 115 61
f 120 61 60
f 7 121 120
f 7 120 60
f 7 60 4
f 122 123 46
f 122 46 45
f 122 45 81
f 81 124 123
f 81 123 122
f 125 40 63
f 125 63 64
f 125 64 21
f 125 21 28
f 125 28 40
f 126 30 29
f 126 29 11
f 128 102 85
f 128 85 84
f 81 80 128
f 81 128 84
f 81 84 124
f 112 53 117
f 112 117 129
f 129 117 118
f 129 118 44
f 129 44 46
f 129 46 112
f 95 94 68
f 95 68 59
f 95 59 58
f 58 108 71
f 58 71 95
f 130 127 101
f 130 101 102
f 130 65 26
f 26 111 127
f 26 127 130
f 131 80 79
f 131 79 65
f 131 65 130
f 131 130 102
f 102 128 80
f 102 80 131
f 15 14 96
f 15 96 51
f 15 51 50
f 15 50 16
f 64 51 96
f 64 96 132
f 132 96 19
f 132 19 21
f 132 21 64
f 109 71 108
f 109 41 97
f 109 97 72
f 109 72 71
f 91 116 115
f 91 115 121
f 91 121 7
f 91 7 6
f 91 6 55
f 91 55 54
f 91 54 112
f 91 112 46
f 91 46 123
f 91 123 124
f 91 124 84
f 91 84 83
f 91 83 89
f 91 89 2
f 91 2 1
f 91 1 74
f 91 74 22
f 91 22 9
f 91 9 13
f 91 13 12
f 91 12 92