# https://github.com/mikedh/trimesh

o geometry_0
v 0.01359600 -0.01564700 0.00530300
v 0.01599500 -0.01131800 0.00750000
v -0.00565800 -0.00087700 0.00735600
v 0.01359600 -0.01564700 -0.00530300
v -0.00629400 -0.00202500 -0.00692900
v 0.01599500 -0.01131800 -0.00750000
v 0.01839500 -0.00698900 0.00530300
v 0.01938900 -0.00519500 0.00000000
v -0.00217400 0.00540800 0.00416700
v 0.01260200 -0.01744000 0.00000000
v 0.01839500 -0.00698900 -0.00530300
v -0.00781700 -0.00477300 0.00416700
v -0.00838900 -0.00580500 0.00000000
v -0.00160200 0.00644000 0.00000000
v -0.00259600 0.00464700 -0.00530300
v -0.00433300 0.00151200 -0.00735600
v -0.00369700 0.00266100 0.00692900
v -0.00781700 -0.00477300 -0.00416700
f 18 13 12
f 18 12 3
f 18 3 17
f 18 17 9
f 18 9 14
f 18 14 15
f 18 15 16
f 18 16 5
f 1 2 3
f 4 5 6
f 7 8 9
f 8 7 2
f 8 2 1
f 8 1 10
f 8 10 4
f 8 4 6
f 8 6 11
f 12 13 10
f 12 10 1
f 12 1 3
f 14 9 8
f 14 8 11
f 14 11 15
f 16 6 5
f 16 15 11
f 16 11 6
f 17 2 7
f 17 7 9
f 17 3 2
f 18 5 4
f 18 4 10
f 18 10 13