# https://github.com/mikedh/trimesh

o geometry_0
v 0.00738300 0.00363600 0.00650000
v 0.00555200 0.00263200 -0.00650000
v 0.00417000 0.00100000 0.00650000
v 0.01350600 0.00010000 0.00650000
v 0.01283000 -0.00400000 0.00650000
v 0.01355300 -0.00198700 -0.00650000
v 0.00961700 -0.00663600 0.00650000
v 0.00575000 -0.00626300 0.00650000
v 0.00861900 -0.00684900 -0.00650000
v 0.00349400 -0.00310000 0.00650000
v 0.01125000 0.00326300 0.00650000
v 0.00495800 -0.00568400 -0.00650000
v 0.00349400 -0.00310000 -0.00650000
v 0.01144800 -0.00563200 -0.00650000
v 0.00838100 0.00384900 -0.00650000
v 0.01125000 0.00326300 -0.00650000
v 0.01319200 0.00107100 -0.00650000
v 0.00371700 0.00002300 -0.00650000
f 18 2 15
f 18 15 16
f 18 16 17
f 18 17 6
f 18 6 14
f 18 14 9
f 18 9 12
f 18 12 13
f 1 2 3
f 4 5 6
f 7 8 9
f 10 8 7
f 10 7 5
f 10 5 4
f 10 4 11
f 10 11 1
f 10 1 3
f 12 9 8
f 12 8 10
f 12 10 13
f 14 6 5
f 14 5 7
f 14 7 9
f 15 2 1
f 15 1 11
f 15 11 16
f 17 16 11
f 17 11 4
f 17 4 6
f 18 3 2
f 18 13 10
f 18 10 3