# https://github.com/mikedh/trimesh

o geometry_0
v 0.02671096 -0.01201996 -0.01657532
v -0.00274993 -0.00408852 -0.00720092
v 0.02671096 0.00189478 -0.02030376
v 0.01614860 0.00722275 -0.00064179
v 0.02079294 0.00696482 -0.00157070
v 0.03233732 0.00371450 -0.01351244
v 0.03282834 0.00315346 -0.01560628
v 0.03173186 0.00234779 -0.01861308
v 0.02893345 0.00189478 -0.02030376
v -0.00117721 0.00482557 -0.00720310
v -0.00117721 0.00482548 0.00720141
v 0.01383382 0.00449905 0.00724985
v -0.00486166 0.00035604 -0.00720146
v -0.00488751 -0.00015727 0.00720119
v -0.00228107 -0.00443264 0.00720657
v 0.01061084 -0.00893047 0.00790438
v 0.03137006 -0.01167845 -0.01530081
v 0.03282834 -0.01076127 -0.01187784
v -0.00400516 0.00285510 0.00720528
v -0.00409007 0.00272991 -0.00720191
v 0.03174294 -0.00995421 -0.00886583
v 0.02154607 -0.00666192 0.00195234
v 0.00946637 -0.00873637 -0.00680024
v 0.01505951 0.00284179 0.00743186
f 4 5 6
f 4 6 7
f 4 7 8
f 4 8 9
f 4 9 3
f 4 3 10
f 1 2 3
f 4 10 11
f 4 11 12
f 13 3 2
f 13 2 14
f 15 16 14
f 15 14 2
f 17 8 18
f 17 18 16
f 17 16 1
f 5 4 12
f 19 20 13
f 19 13 14
f 21 22 16
f 21 16 18
f 21 18 6
f 23 2 1
f 23 1 16
f 16 15 2
f 16 2 23
f 20 19 11
f 20 11 10
f 20 10 3
f 20 3 13
f 24 16 22
f 24 22 21
f 24 21 6
f 24 6 5
f 24 5 12
f 24 12 11
f 24 11 19
f 24 19 14
f 24 14 16
f 7 18 8
f 7 6 18
f 9 8 17
f 9 17 1
f 9 1 3