# https://github.com/mikedh/trimesh

o geometry_0
v 0.04055086 -0.03115998 -0.05090822
v 0.01987877 -0.03356216 -0.05090822
v 0.01987877 -0.03407668 -0.05987690
v 0.04055086 -0.03128124 -0.06025843
v 0.04055086 -0.00059690 -0.05090822
v 0.01987877 -0.00100983 -0.05090822
v 0.02968466 -0.00295976 -0.06992658
v 0.03800530 -0.02682754 -0.07259146
v 0.03274419 -0.01526233 -0.07961496
v 0.03579766 -0.01266024 -0.07601939
v 0.03920321 -0.01902454 -0.07164921
v 0.02497597 -0.01526233 -0.07795013
v 0.02735966 -0.02312431 -0.07862935
v 0.02359594 -0.02690619 -0.07378228
v 0.01987877 -0.01970292 -0.07019827
v 0.02360404 -0.00927162 -0.07368978
v 0.02721194 -0.00484086 -0.07349324
v 0.03079961 -0.00602721 -0.07579972
v 0.03303355 -0.02994415 -0.07216080
v 0.02672832 -0.02929526 -0.07397593
v 0.03153414 -0.02706022 -0.07725934
v 0.03142487 -0.02271466 -0.07945599
v 0.02856769 -0.01637985 -0.08028840
v 0.02856769 -0.01128710 -0.07944732
v 0.04055086 -0.02419923 -0.06814902
v 0.04055086 -0.01077913 -0.06431067
v 0.03249126 -0.01020890 -0.07832009
v 0.03252363 -0.00460491 -0.07279378
v 0.03480816 -0.00789193 -0.07396148
v 0.01987877 -0.03249052 -0.06369214
v 0.02669999 -0.00887836 -0.07735472
v 0.03590693 -0.02816791 -0.07391234
v 0.04055086 -0.00306135 -0.05646632
v 0.02818322 -0.02694224 -0.07714951
v 0.01987877 -0.00548647 -0.05859938
f 33 5 1
f 33 1 4
f 33 4 25
f 33 25 26
f 1 2 3
f 1 3 4
f 2 1 5
f 2 5 6
f 7 6 5
f 8 9 10
f 8 10 11
f 12 13 14
f 12 14 15
f 12 15 16
f 17 7 18
f 17 16 6
f 17 6 7
f 19 4 3
f 20 21 19
f 20 19 3
f 22 9 8
f 23 24 9
f 23 9 22
f 23 22 13
f 23 13 12
f 23 12 24
f 25 4 8
f 25 8 11
f 25 11 26
f 27 9 24
f 27 24 18
f 27 18 28
f 27 28 29
f 30 15 14
f 30 14 20
f 30 20 3
f 10 9 27
f 10 27 29
f 10 26 11
f 28 18 7
f 28 7 5
f 31 16 17
f 31 17 18
f 31 18 24
f 31 24 12
f 31 12 16
f 32 8 4
f 32 4 19
f 32 19 21
f 32 21 22
f 32 22 8
f 33 26 10
f 33 10 29
f 33 29 28
f 33 28 5
f 34 21 20
f 34 20 14
f 34 14 13
f 34 13 22
f 34 22 21
f 35 6 16
f 35 16 15
f 35 15 30
f 35 30 3
f 35 3 2
f 35 2 6