# https://github.com/mikedh/trimesh

o geometry_0
v 0.00558512 0.00995637 0.03121490
v 0.00287109 -0.00520753 0.03171114
v 0.01739547 0.01712805 0.03048317
v -0.00821578 -0.03095312 -0.05421363
v 0.02108892 -0.02597743 0.02906460
v 0.01443506 -0.02372816 0.02923837
v -0.01665901 -0.02809724 -0.05151376
v 0.03080406 -0.02651396 0.02725036
v 0.03527099 -0.03210769 -0.05090533
v 0.05535094 -0.02794825 -0.05090533
v 0.01987877 -0.03380901 -0.05421363
v 0.06158001 -0.02157894 -0.05090533
v -0.01693275 -0.02831037 -0.05421363
v 0.03264263 0.01887334 0.02898503
v 0.05285846 0.00149187 0.02695594
v 0.04459124 0.01305650 0.02749703
v 0.03406084 0.01893177 0.02612839
v 0.02298269 0.02055730 0.02277841
v 0.06043780 -0.00388406 0.01336503
v 0.06153755 0.00211340 0.00666506
v 0.05725745 0.00685187 0.01272846
v 0.05149120 0.00655438 0.02563505
v -0.00697608 0.00785175 -0.01630614
v 0.00239789 0.01097937 -0.01459033
v -0.00692133 0.00324290 -0.03941061
v -0.01212649 0.00201210 -0.03784621
v -0.00001111 0.00454297 0.02902810
v -0.00439892 0.00096779 0.02225740
v -0.00216591 -0.00582560 0.02782535
v 0.03080406 0.01923457 0.01496443
v 0.04750409 0.01453328 0.01160649
v 0.05729991 0.00888112 -0.00514343
v 0.05415777 -0.00119609 -0.05090533
v 0.03080406 -0.02604648 0.02909643
v 0.00063807 0.00412205 -0.03868729
v 0.01987877 -0.00261273 -0.05421363
v -0.01052310 -0.00296971 -0.05421363
v 0.00692649 -0.01680690 0.03105510
v -0.00328828 -0.01472360 0.02002854
v 0.01550659 0.01889166 0.02693381
v 0.00813490 0.01527385 0.02613478
v 0.05820433 -0.00126515 -0.04489764
v 0.06149084 0.00424358 -0.00849342
v 0.06218720 -0.00297567 -0.03082930
v 0.06054820 -0.00714042 -0.05090533
v 0.00555383 -0.03370778 -0.05357441
v -0.01223208 -0.01473425 -0.00226850
v -0.01229856 -0.00967252 0.00351813
v -0.01896632 -0.01525641 -0.03104186
v 0.06036986 -0.02470250 -0.05062683
v -0.01538020 -0.00477595 -0.05223709
v -0.01553272 -0.00578297 -0.05421363
v -0.01802384 -0.00976310 -0.05421363
v -0.01784004 -0.00343859 -0.03732474
v 0.06036561 0.00645877 0.00044253
v 0.06249292 -0.00073924 0.00490652
v 0.06298548 -0.00073924 -0.00961538
v 0.05387328 0.01112818 0.01272846
v 0.03862118 -0.02415535 0.02612839
v 0.04577167 -0.01903440 0.02768801
v -0.01888420 -0.02467657 -0.04837653
v -0.01965461 -0.02195922 -0.05421363
v 0.06217022 -0.01414188 -0.05090533
v 0.06302369 -0.00632766 -0.00514343
v -0.01966243 -0.01079143 -0.03529773
v 0.05358455 -0.00632766 0.02654217
v 0.05146148 -0.01357879 0.02668540
v 0.02298269 0.01979766 0.02844394
v 0.01118135 0.01549231 0.03007945
v 0.01563956 0.01772480 0.03007945
v -0.01218515 0.00314167 -0.01854341
v 0.00473258 0.01191712 0.02836364
v 0.00232359 0.01097937 0.02218170
v -0.00906832 -0.00632644 0.01378772
v -0.01000689 -0.02031815 -0.00895509
v 0.00104869 -0.00074255 0.03127379
v 0.05756741 -0.00302879 -0.05090533
v -0.00218937 -0.01251775 0.02450308
v 0.01962848 -0.02419171 0.03035700
v 0.00337557 -0.01144679 0.03119809
v 0.05039995 -0.01809946 0.02013662
v 0.05864593 -0.01846600 -0.00961538
v 0.06039958 -0.01134767 0.00658549
v 0.06147385 -0.00769820 0.00854297
v -0.01977975 -0.01414283 -0.04981478
v 0.06184327 -0.01525744 -0.01742140
v 0.03929207 0.01662097 0.02786306
v -0.01398408 -0.00185613 -0.01518750
v -0.00881803 -0.01002418 0.01319896
v -0.01440644 0.00090918 -0.03641637
f 52 37 36
f 52 36 11
f 52 11 4
f 52 4 13
f 52 13 62
f 52 62 53
f 1 2 3
f 4 5 6
f 4 6 7
f 8 9 10
f 11 12 10
f 11 10 9
f 11 9 8
f 13 4 7
f 14 15 16
f 14 17 18
f 19 20 21
f 19 21 22
f 19 22 15
f 23 24 25
f 23 25 26
f 27 28 29
f 30 24 18
f 30 18 17
f 30 31 32
f 30 32 33
f 34 5 8
f 35 24 30
f 35 30 33
f 33 36 37
f 33 37 35
f 6 38 39
f 40 18 24
f 40 24 23
f 40 23 41
f 42 33 32
f 42 32 43
f 42 43 44
f 42 44 45
f 46 4 11
f 11 8 5
f 11 5 46
f 46 5 4
f 47 48 49
f 50 10 12
f 51 52 53
f 51 53 54
f 51 26 37
f 55 20 56
f 55 56 57
f 55 57 43
f 55 43 32
f 55 32 58
f 59 60 34
f 59 34 8
f 59 8 10
f 61 62 13
f 61 13 7
f 61 47 49
f 31 58 32
f 31 30 17
f 36 45 63
f 36 63 12
f 36 12 11
f 63 45 44
f 63 64 12
f 65 49 48
f 65 62 61
f 65 61 49
f 66 19 15
f 15 60 67
f 15 67 66
f 68 14 18
f 68 18 40
f 69 70 40
f 69 40 41
f 22 58 16
f 22 16 15
f 71 28 72
f 71 72 73
f 73 41 23
f 73 23 71
f 74 29 28
f 75 39 47
f 75 47 61
f 75 61 7
f 75 7 6
f 75 6 39
f 76 2 1
f 76 1 27
f 76 27 29
f 72 41 73
f 72 28 27
f 72 27 1
f 72 1 69
f 72 69 41
f 52 51 37
f 77 33 42
f 77 42 45
f 77 45 36
f 77 36 33
f 78 39 38
f 79 5 34
f 14 3 2
f 14 2 79
f 14 79 34
f 14 34 60
f 14 60 15
f 79 2 38
f 79 38 6
f 79 6 5
f 80 2 76
f 80 76 29
f 80 29 78
f 80 78 38
f 80 38 2
f 81 60 59
f 59 10 50
f 59 50 82
f 59 82 81
f 81 82 83
f 81 83 67
f 81 67 60
f 84 19 66
f 84 66 67
f 84 67 83
f 85 62 65
f 85 65 54
f 85 54 53
f 85 53 62
f 57 44 43
f 57 64 63
f 57 63 44
f 86 12 64
f 86 64 84
f 86 84 83
f 86 83 82
f 86 82 50
f 86 50 12
f 87 17 14
f 87 14 16
f 87 16 58
f 87 58 31
f 87 31 17
f 88 54 65
f 88 65 48
f 88 48 74
f 88 74 28
f 88 28 71
f 88 71 54
f 89 48 47
f 89 47 39
f 89 39 78
f 89 78 29
f 89 29 74
f 89 74 48
f 90 71 23
f 90 23 26
f 90 26 51
f 90 51 54
f 90 54 71
f 21 58 22
f 21 20 55
f 21 55 58
f 25 24 35
f 25 35 37
f 25 37 26
f 56 20 19
f 56 19 84
f 56 84 64
f 56 64 57
f 70 69 1
f 70 1 3
f 70 3 14
f 70 14 68
f 70 68 40