# https://github.com/mikedh/trimesh

o geometry_0
v -0.00130448 -0.03246058 -0.05421363
v -0.01693449 -0.02831242 -0.05421363
v -0.00130448 -0.03267424 -0.05764068
v -0.01584029 -0.02823000 -0.06657534
v -0.02009822 -0.02490598 -0.06322724
v -0.01965677 -0.02196045 -0.05421363
v -0.01052967 -0.00342650 -0.06953933
v -0.01338402 -0.00791653 -0.07279140
v -0.01443482 -0.00465355 -0.06599278
v -0.01052590 -0.00297170 -0.05421363
v -0.00130448 -0.00274277 -0.05421363
v -0.00941284 -0.00149130 -0.06322724
v -0.00332120 -0.00700387 -0.06812669
v -0.00130448 -0.01635326 -0.06797731
v -0.00130448 -0.03152655 -0.06163749
v -0.00829601 -0.02686560 -0.07148972
v -0.00130448 -0.02313256 -0.06778526
v -0.00641513 -0.00340514 -0.06848518
v -0.00708296 -0.00627741 -0.07220671
v -0.01837958 -0.01079491 -0.05421363
v -0.01999257 -0.01707056 -0.06453746
v -0.01553279 -0.00578293 -0.05421363
v -0.01671753 -0.01452795 -0.07167110
v -0.01276145 -0.01526051 -0.07557828
v -0.01329346 -0.02361788 -0.07382848
v -0.01779852 -0.02477168 -0.06938142
v -0.00941284 -0.02196045 -0.07453694
v -0.00695279 -0.01526051 -0.07473539
v -0.01453858 -0.02704569 -0.07055934
v -0.00420599 -0.01079491 -0.07180981
v -0.00867898 -0.01005929 -0.07504054
v -0.01578558 -0.00856363 -0.06988289
v -0.01221813 -0.01021801 -0.07496159
v -0.01891913 -0.02700295 -0.06382474
v -0.00941284 -0.01526051 -0.07591117
v -0.02019255 -0.02307761 -0.06532700
v -0.01765703 -0.00947018 -0.06322724
v -0.01142956 -0.00220250 -0.06545931
f 20 6 2
f 20 2 1
f 20 1 11
f 20 11 10
f 20 10 22
f 1 2 3
f 4 3 2
f 5 2 6
f 7 8 9
f 10 11 12
f 13 11 14
f 15 16 17
f 15 17 14
f 15 14 11
f 15 11 1
f 15 1 3
f 18 11 13
f 18 13 19
f 18 19 7
f 18 7 12
f 18 12 11
f 20 21 6
f 23 24 25
f 23 25 26
f 27 16 25
f 27 28 17
f 27 17 16
f 29 16 15
f 29 15 3
f 29 3 4
f 29 26 25
f 29 25 16
f 30 28 31
f 30 31 19
f 30 19 13
f 30 13 14
f 30 14 17
f 30 17 28
f 32 8 23
f 32 23 21
f 32 9 8
f 33 8 7
f 33 7 19
f 33 19 31
f 33 24 23
f 33 23 8
f 34 2 5
f 34 26 29
f 34 29 4
f 34 4 2
f 35 24 33
f 35 33 31
f 35 31 28
f 35 28 27
f 35 27 25
f 35 25 24
f 26 34 5
f 26 5 36
f 36 5 6
f 36 6 21
f 36 21 23
f 36 23 26
f 37 20 22
f 37 22 9
f 37 9 32
f 37 32 21
f 37 21 20
f 38 12 7
f 38 7 9
f 38 9 22
f 38 22 10
f 38 10 12