# https://github.com/mikedh/trimesh

o geometry_0
v 0.04979036 -0.02590034 -0.07052843
v 0.05702487 -0.02585311 -0.06594121
v 0.05263378 -0.02923195 -0.05713296
v 0.04055298 -0.03156533 -0.05875852
v 0.05269729 -0.01190948 -0.07506121
v 0.05743561 -0.02195154 -0.06998905
v 0.05148413 -0.02031092 -0.07496224
v 0.04808178 -0.01241961 -0.07607812
v 0.05049751 -0.00569027 -0.07389585
v 0.05037260 -0.00128801 -0.06938286
v 0.04680087 -0.00231142 -0.07061503
v 0.05488225 -0.00454719 -0.06840059
v 0.05202190 -0.00077473 -0.05090780
v 0.05756687 -0.00302624 -0.05090780
v 0.05151166 -0.00014494 -0.06503069
v 0.04979036 0.00059822 -0.06322698
v 0.04055298 -0.00059839 -0.05090780
v 0.05993603 -0.02196098 -0.06545873
v 0.05934322 -0.01562211 -0.06723028
v 0.06168485 -0.01076955 -0.05090780
v 0.06174201 -0.02084310 -0.05090780
v 0.06044205 -0.02482654 -0.05408471
v 0.04705069 -0.02134064 -0.07380925
v 0.05346796 -0.02462501 -0.07146121
v 0.04055298 -0.01077900 -0.06430575
v 0.04361658 -0.00792603 -0.07163935
v 0.04055298 -0.02419990 -0.06815070
v 0.06002707 -0.02505327 -0.05090780
v 0.04055298 -0.03115912 -0.05090780
v 0.05649345 -0.02748742 -0.05090780
v 0.04671829 -0.00657828 -0.07397750
v 0.04055298 -0.03022072 -0.06236842
v 0.04685591 -0.00011974 -0.06626286
v 0.04362928 -0.00351118 -0.06717832
v 0.05485050 -0.01013976 -0.07275771
v 0.04473659 -0.01302736 -0.07386616
v 0.05663742 -0.02793458 -0.05540842
v 0.06039123 -0.00690892 -0.05144471
v 0.04787217 -0.02487063 -0.07174822
f 28 21 20
f 28 20 14
f 28 14 13
f 28 13 17
f 28 17 29
f 28 29 30
f 1 2 3
f 1 3 4
f 5 6 7
f 5 7 8
f 5 8 9
f 10 9 11
f 10 12 9
f 13 14 15
f 13 15 16
f 13 16 17
f 18 19 20
f 18 20 21
f 18 21 22
f 18 22 2
f 18 2 6
f 18 6 19
f 23 8 7
f 24 7 6
f 24 6 2
f 24 2 1
f 25 26 27
f 28 22 21
f 31 11 9
f 31 9 8
f 31 26 11
f 3 30 29
f 3 29 4
f 32 1 4
f 32 4 29
f 32 29 17
f 32 17 25
f 32 25 27
f 33 16 10
f 33 10 11
f 33 17 16
f 34 17 33
f 34 33 11
f 34 11 26
f 34 26 25
f 34 25 17
f 35 19 6
f 35 6 5
f 35 5 9
f 35 9 12
f 35 12 19
f 36 26 31
f 36 31 8
f 36 8 23
f 36 23 27
f 36 27 26
f 37 30 3
f 37 3 2
f 37 2 22
f 37 22 28
f 37 28 30
f 15 12 10
f 15 10 16
f 15 14 12
f 38 14 20
f 38 20 19
f 38 19 12
f 38 12 14
f 39 1 32
f 39 32 27
f 39 27 23
f 39 23 7
f 39 7 24
f 39 24 1