# https://github.com/mikedh/trimesh

o geometry_0
v 0.01987877 -0.03249083 -0.06369294
v 0.01564084 -0.02914541 -0.07373739
v 0.01987877 -0.02196104 -0.07017905
v 0.00547312 -0.02510030 -0.07847312
v 0.01038282 -0.02496598 -0.07953539
v 0.00734328 -0.02940780 -0.07632242
v 0.01987877 -0.00261321 -0.05421625
v 0.01987877 -0.00548696 -0.05859876
v 0.01571755 -0.00912600 -0.07270914
v -0.00130260 -0.01044730 -0.06544071
v -0.00130260 -0.00274441 -0.05421625
v 0.00554776 -0.00896045 -0.07623607
v 0.01987877 -0.03381213 -0.05421625
v 0.01404436 -0.03448372 -0.05875836
v 0.01987877 -0.03388085 -0.05540672
v 0.00345160 -0.01477354 -0.07716229
v -0.00130260 -0.01635411 -0.06797602
v 0.00677726 -0.01580122 -0.08054271
v 0.00107761 -0.02721188 -0.07288967
v 0.00663212 -0.00562128 -0.07297863
v 0.01069382 -0.00506215 -0.07327690
v 0.00957628 -0.00790154 -0.07726171
v 0.01589171 -0.02084278 -0.07623869
v 0.00433692 -0.03047296 -0.07294723
v -0.00130260 -0.03260953 -0.05829263
v 0.01180928 -0.03108832 -0.07327690
v 0.01250178 -0.00786718 -0.07621514
v 0.01240019 -0.01350535 -0.07945166
v 0.00957628 -0.01749424 -0.08094040
v 0.01987877 -0.03395582 -0.06101110
v 0.01239604 -0.02813335 -0.07720677
v 0.00695557 -0.01149060 -0.07935747
v 0.01560766 -0.01302743 -0.07584099
v 0.00622782 -0.03380901 -0.05421625
v 0.01851243 -0.00257885 -0.05421625
v -0.00130260 -0.03245960 -0.05421625
v 0.00957628 -0.00371273 -0.06880805
v -0.00130260 -0.02313241 -0.06778502
v 0.00453804 -0.03369031 -0.06043810
f 30 1 3
f 30 3 8
f 30 8 7
f 30 7 13
f 30 13 15
f 1 2 3
f 4 5 6
f 7 8 9
f 10 11 12
f 13 14 15
f 16 17 10
f 16 10 12
f 16 18 4
f 16 4 19
f 16 19 17
f 20 21 22
f 20 22 12
f 20 12 11
f 23 3 2
f 24 25 19
f 19 4 6
f 19 6 24
f 24 6 26
f 27 28 22
f 27 22 21
f 27 21 7
f 27 7 9
f 29 28 23
f 29 23 5
f 5 4 18
f 5 18 29
f 26 2 1
f 26 1 30
f 30 15 14
f 31 2 26
f 31 26 6
f 31 6 5
f 31 5 23
f 31 23 2
f 32 12 22
f 32 22 28
f 32 28 29
f 32 29 18
f 32 18 16
f 32 16 12
f 33 9 8
f 33 8 3
f 33 3 23
f 33 23 28
f 33 28 27
f 33 27 9
f 34 14 13
f 34 13 7
f 34 7 35
f 34 35 11
f 34 11 36
f 37 35 7
f 37 7 21
f 37 21 20
f 37 20 11
f 37 11 35
f 38 17 19
f 38 19 25
f 38 25 36
f 38 36 11
f 38 11 10
f 38 10 17
f 39 25 24
f 39 24 26
f 39 26 30
f 39 30 14
f 39 14 34
f 39 34 36
f 39 36 25