# https://github.com/mikedh/trimesh

o geometry_0
v -0.00907893 -0.00154646 -0.00869177
v -0.00558571 -0.01155579 -0.01117821
v -0.00541838 -0.01204614 0.00322357
v -0.00908723 0.00040994 0.00103843
v 0.01599692 0.00121352 0.00767222
v -0.00330779 -0.01366014 0.00299575
v 0.01150955 -0.01297330 0.00440677
v 0.04632884 0.02114560 0.00658699
v -0.00532499 0.00730118 0.00109722
v 0.04904829 0.02664559 0.00136669
v 0.05717060 0.02469669 0.00452190
v 0.04083609 0.00693594 -0.01647201
v 0.04637720 0.00310543 -0.01337558
v 0.00850960 -0.01396157 -0.01370139
v 0.00945649 -0.01856233 -0.00261896
v 0.00864177 -0.01893355 -0.00415002
v 0.04364600 -0.00252282 -0.00663157
v 0.05028615 0.00081849 -0.00611468
v 0.04496770 -0.00158836 -0.00047058
v 0.06295328 0.02364364 -0.01051435
v 0.06222479 0.02082224 -0.01183473
v 0.05724180 0.02484305 -0.01237367
v 0.05285427 0.02073382 0.00746398
v 0.04504683 0.01133180 0.00830914
v 0.05712577 0.02742250 0.00079836
v 0.06484476 0.02116870 0.00167290
v 0.06642852 0.02240692 -0.00318485
v -0.00812834 0.00417584 0.00118296
v -0.00733844 0.00553695 -0.00904944
v -0.00477226 0.00766766 -0.00883386
v 0.05980391 0.02033398 0.00558996
v 0.05693682 0.02861763 -0.00444891
v 0.05386240 0.02864284 -0.00625188
v 0.06612134 0.02294264 -0.00680306
v 0.06500585 0.01784200 -0.00633271
v 0.04913483 0.00916620 -0.01522512
v 0.06228106 0.01672962 0.00388499
v 0.06508281 0.01765009 -0.00004679
v 0.01024049 -0.01667848 0.00152103
v 0.04637399 0.00143437 0.00311333
v 0.04099883 0.00102703 0.00519067
v 0.05135847 0.00215032 -0.00127653
v 0.04616211 0.02697356 -0.00373359
v 0.01216811 -0.00284519 -0.01531085
v 0.00910841 -0.00965028 -0.01522756
v -0.00432380 -0.01321602 -0.01078625
v 0.00833745 -0.01773839 -0.00938503
v 0.04724063 0.01275344 -0.01639362
v 0.03900555 0.01103583 -0.01657490
v 0.05117062 0.02085620 -0.01507813
v 0.05773371 0.01792279 -0.01405661
v 0.05303008 0.01409798 0.00753503
v 0.05770513 0.01337674 0.00521272
v 0.05189767 0.00789388 -0.01325801
v 0.05513805 0.00597827 -0.00768249
v 0.05072130 0.02464270 -0.01318208
v 0.04660711 0.02483317 -0.01176615
v 0.04642238 0.00021753 -0.01032816
v 0.05574646 0.02752344 -0.00946589
v 0.04556588 0.00764978 0.00759628
v 0.05893503 0.00938941 -0.00331223
v 0.05956293 0.01154817 0.00191543
v 0.06631789 0.01933282 -0.00245729
v 0.04543255 0.02620341 -0.00836842
f 15 16 17
f 15 17 18
f 15 18 19
f 1 2 3
f 4 1 3
f 5 3 6
f 5 6 7
f 5 8 9
f 10 8 11
f 10 9 8
f 12 13 14
f 20 21 22
f 23 8 5
f 23 5 24
f 23 11 8
f 25 10 11
f 25 11 26
f 25 26 27
f 1 4 28
f 1 28 29
f 29 9 30
f 29 2 1
f 31 26 11
f 31 11 23
f 32 33 10
f 32 10 25
f 32 25 27
f 34 35 21
f 34 21 20
f 34 20 32
f 34 32 27
f 36 13 12
f 37 38 26
f 37 26 31
f 39 15 19
f 39 40 41
f 39 41 7
f 18 42 19
f 43 9 10
f 43 10 33
f 43 30 9
f 2 29 44
f 2 44 45
f 45 12 14
f 45 14 2
f 46 2 14
f 46 14 47
f 46 3 2
f 48 12 45
f 48 45 44
f 48 44 49
f 44 29 30
f 44 30 49
f 49 30 50
f 50 22 21
f 50 21 51
f 28 9 29
f 28 4 3
f 28 3 5
f 28 5 9
f 52 53 37
f 52 37 31
f 52 31 23
f 52 23 24
f 40 39 19
f 40 19 42
f 6 15 39
f 6 39 7
f 6 3 46
f 54 13 36
f 54 36 51
f 54 51 21
f 21 35 55
f 21 55 54
f 56 50 30
f 56 30 57
f 56 22 50
f 58 13 54
f 58 54 55
f 58 55 18
f 58 18 17
f 58 17 47
f 47 14 13
f 47 13 58
f 48 50 51
f 48 51 36
f 48 36 12
f 48 49 50
f 59 33 32
f 59 32 20
f 59 20 22
f 59 22 56
f 59 56 57
f 60 41 40
f 60 40 53
f 60 53 52
f 60 52 24
f 60 24 5
f 60 5 7
f 60 7 41
f 61 42 18
f 61 18 55
f 61 55 35
f 62 38 37
f 62 37 53
f 62 53 40
f 62 40 42
f 62 42 61
f 62 61 38
f 63 38 61
f 63 61 35
f 63 35 34
f 63 34 27
f 63 27 26
f 63 26 38
f 64 30 43
f 64 43 33
f 64 33 59
f 64 59 57
f 64 57 30
f 16 15 6
f 16 6 46
f 16 46 47
f 16 47 17