# https://github.com/mikedh/trimesh

o geometry_0
v 0.00765400 0.01847800 0.00600000
v 0.00000000 0.02000000 0.00600000
v -0.00765400 0.01847800 0.00600000
v -0.01414200 0.01414200 0.00600000
v -0.01847800 0.00765400 0.00600000
v -0.02000000 0.00000000 0.00600000
v -0.01847800 -0.00765400 0.00600000
v -0.01414200 -0.01414200 0.00600000
v -0.00765400 -0.01847800 0.00600000
v 0.00000000 -0.02000000 0.00600000
v 0.00765400 -0.01847800 0.00600000
v 0.01414200 -0.01414200 0.00600000
v 0.01847800 -0.00765400 0.00600000
v 0.02000000 0.00000000 0.00600000
v 0.01847800 0.00765400 0.00600000
v 0.01414200 0.01414200 0.00600000
v -0.01847800 -0.00765400 0.00400000
v -0.01414200 -0.01414200 0.00400000
v -0.02000000 0.00000000 0.00400000
v -0.00765400 0.01847800 0.00400000
v -0.01414200 0.01414200 0.00400000
v 0.00000000 0.02000000 0.00400000
v 0.00765400 -0.01847800 0.00400000
v 0.01414200 -0.01414200 0.00400000
v 0.00000000 -0.02000000 0.00400000
v 0.01847800 0.00765400 0.00400000
v 0.01414200 0.01414200 0.00400000
v 0.02000000 0.00000000 0.00400000
v -0.00765400 -0.01847800 0.00400000
v -0.01847800 0.00765400 0.00400000
v 0.01847800 -0.00765400 0.00400000
v 0.00765400 0.01847800 0.00400000
f 1 2 3
f 1 3 4
f 1 4 5
f 1 5 6
f 1 6 7
f 1 7 8
f 1 8 9
f 1 9 10
f 1 10 11
f 1 11 12
f 1 12 13
f 1 13 14
f 1 14 15
f 1 15 16
f 17 18 8
f 17 8 7
f 17 7 6
f 17 6 19
f 20 21 4
f 20 4 3
f 20 3 2
f 20 2 22
f 23 24 12
f 23 12 11
f 23 11 10
f 23 10 25
f 26 27 16
f 26 16 15
f 26 15 14
f 26 14 28
f 29 25 10
f 29 10 9
f 29 9 8
f 29 8 18
f 30 19 6
f 30 6 5
f 30 5 4
f 30 4 21
f 31 28 14
f 31 14 13
f 31 13 12
f 31 12 24
f 32 22 2
f 32 2 1
f 32 1 16
f 32 16 27
f 32 27 26
f 32 26 28
f 32 28 31
f 32 31 24
f 32 24 23
f 32 23 25
f 32 25 29
f 32 29 18
f 32 18 17
f 32 17 19
f 32 19 30
f 32 30 21
f 32 21 20
f 32 20 22

o geometry_1
v 0.00688800 0.01663000 0.00420000
v 0.00000000 0.01800000 0.00420000
v -0.00688800 0.01663000 0.00420000
v -0.01272800 0.01272800 0.00420000
v -0.01663000 0.00688800 0.00420000
v -0.01800000 0.00000000 0.00420000
v -0.01663000 -0.00688800 0.00420000
v -0.01272800 -0.01272800 0.00420000
v -0.00688800 -0.01663000 0.00420000
v 0.00000000 -0.01800000 0.00420000
v 0.00688800 -0.01663000 0.00420000
v 0.01272800 -0.01272800 0.00420000
v 0.01663000 -0.00688800 0.00420000
v 0.01800000 0.00000000 0.00420000
v 0.01663000 0.00688800 0.00420000
v 0.01272800 0.01272800 0.00420000
v -0.01663000 -0.00688800 -0.00020000
v -0.01272800 -0.01272800 -0.00020000
v -0.01800000 0.00000000 -0.00020000
v -0.00688800 -0.01663000 -0.00020000
v 0.00000000 -0.01800000 -0.00020000
v -0.01663000 0.00688800 -0.00020000
v -0.01272800 0.01272800 -0.00020000
v -0.00688800 0.01663000 -0.00020000
v 0.00000000 0.01800000 -0.00020000
v 0.01663000 -0.00688800 -0.00020000
v 0.01800000 0.00000000 -0.00020000
v 0.01272800 -0.01272800 -0.00020000
v 0.00688800 -0.01663000 -0.00020000
v 0.01663000 0.00688800 -0.00020000
v 0.01272800 0.01272800 -0.00020000
v 0.00688800 0.01663000 -0.00020000
f 33 34 35
f 33 35 36
f 33 36 37
f 33 37 38
f 33 38 39
f 33 39 40
f 33 40 41
f 33 41 42
f 33 42 43
f 33 43 44
f 33 44 45
f 33 45 46
f 33 46 47
f 33 47 48
f 49 50 40
f 49 40 39
f 49 39 38
f 49 38 51
f 52 53 42
f 52 42 41
f 52 41 40
f 52 40 50
f 54 51 38
f 54 38 37
f 54 37 36
f 54 36 55
f 56 55 36
f 56 36 35
f 56 35 34
f 56 34 57
f 58 59 46
f 58 46 45
f 58 45 44
f 58 44 60
f 61 60 44
f 61 44 43
f 61 43 42
f 61 42 53
f 62 63 48
f 62 48 47
f 62 47 46
f 62 46 59
f 64 57 34
f 64 34 33
f 64 33 48
f 64 48 63
f 64 63 62
f 64 62 59
f 64 59 58
f 64 58 60
f 64 60 61
f 64 61 53
f 64 53 52
f 64 52 50
f 64 50 49
f 64 49 51
f 64 51 54
f 64 54 55
f 64 55 56
f 64 56 57