o geometry_0
v 0.00555635 -0.01166018 -0.00800000
v 0.00555635 -0.01166018 0.00800000
v 0.00454355 0.00029700 -0.00800000
v 0.00454355 0.00029700 0.00800000
v 0.03345644 -0.00929700 -0.00800000
v 0.03345644 -0.00929700 0.00800000
v 0.03244365 0.00266018 -0.00800000
v 0.03244365 0.00266018 0.00800000
f 2 4 1
f 5 2 1
f 1 4 3
f 3 5 1
f 2 8 4
f 6 2 5
f 6 8 2
f 4 8 3
f 7 5 3
f 3 8 7
f 7 6 5
f 8 6 7

o geometry_1
v -0.00647220 -0.00648499 0.00600000
v -0.00647220 -0.00648499 0.00800000
v -0.00748499 0.00547220 0.00600000
v -0.00748499 0.00547220 0.00800000
v 0.00548499 -0.00547220 0.00600000
v 0.00548499 -0.00547220 0.00800000
v 0.00447220 0.00648499 0.00600000
v 0.00447220 0.00648499 0.00800000
f 10 12 9
f 13 10 9
f 9 12 11
f 11 13 9
f 10 16 12
f 14 10 13
f 14 16 10
f 12 16 11
f 15 13 11
f 11 16 15
f 15 14 13
f 16 14 15

o geometry_2
v -0.00647220 -0.00648499 -0.00800000
v -0.00647220 -0.00648499 -0.00600000
v -0.00748499 0.00547220 -0.00800000
v -0.00748499 0.00547220 -0.00600000
v 0.00548499 -0.00547220 -0.00800000
v 0.00548499 -0.00547220 -0.00600000
v 0.00447220 0.00648499 -0.00800000
v 0.00447220 0.00648499 -0.00600000
f 18 20 17
f 21 18 17
f 17 20 19
f 19 21 17
f 18 24 20
f 22 18 21
f 22 24 18
f 20 24 19
f 23 21 19
f 19 24 23
f 23 22 21
f 24 22 23
