o geometry_0
v -0.00160200 0.00644000 0.00000000
v -0.00217400 0.00540800 0.00416700
v 0.01938900 -0.00519500 -0.00000000
v -0.00781700 -0.00477300 -0.00416700
v 0.01260200 -0.01744000 -0.00000000
v -0.00838900 -0.00580500 0.00000000
v 0.01359600 -0.01564700 0.00530300
v 0.01599500 -0.01131800 0.00750000
v -0.00565800 -0.00087700 0.00735600
v 0.01839500 -0.00698900 -0.00530300
v 0.01599500 -0.01131800 -0.00750000
v -0.00433300 0.00151200 -0.00735600
v 0.01359600 -0.01564700 -0.00530300
v 0.01839500 -0.00698900 0.00530300
v -0.00781700 -0.00477300 0.00416700
v -0.00259600 0.00464700 -0.00530300
v -0.00369700 0.00266100 0.00692900
v -0.00629400 -0.00202500 -0.00692900
f 18 4 6
f 18 6 15
f 18 15 9
f 18 9 17
f 18 17 2
f 18 2 1
f 18 1 16
f 18 16 12
f 1 2 3
f 4 5 6
f 7 8 9
f 10 11 12
f 13 5 4
f 14 3 2
f 8 7 5
f 8 5 13
f 8 13 11
f 8 11 10
f 8 10 3
f 8 3 14
f 15 6 5
f 15 5 7
f 15 7 9
f 1 3 10
f 1 10 16
f 16 10 12
f 17 8 14
f 17 14 2
f 17 9 8
f 18 11 13
f 18 13 4
f 18 12 11

o geometry_1
v 0.01667400 -0.00703700 0.00495000
v 0.01531000 -0.01179500 0.00700000
v 0.03142800 -0.01363000 0.00646700
v 0.01394600 -0.01655300 -0.00495000
v 0.02890800 -0.02242200 -0.00267900
v 0.01338000 -0.01852400 0.00000000
v 0.01394600 -0.01655300 0.00495000
v 0.01723900 -0.00506600 0.00000000
v 0.01667400 -0.00703700 -0.00495000
v 0.01531000 -0.01179500 -0.00700000
v 0.03205400 -0.01144700 -0.00495000
v 0.03069000 -0.01620500 -0.00700000
v 0.03262000 -0.00947600 -0.00000000
v 0.02879800 -0.02280500 0.00136600
v 0.02932600 -0.02096300 0.00495000
v 0.03229400 -0.01061000 0.00388900
v 0.03031400 -0.01751800 0.00686500
v 0.02961800 -0.01994300 -0.00582000
f 36 30 29
f 36 29 31
f 36 31 34
f 36 34 21
f 36 21 35
f 36 35 33
f 36 33 32
f 36 32 23
f 19 20 21
f 22 23 24
f 25 20 19
f 25 19 26
f 25 26 27
f 25 27 28
f 25 28 22
f 25 22 24
f 29 30 28
f 29 28 27
f 29 27 26
f 29 26 31
f 32 24 23
f 32 33 25
f 32 25 24
f 34 31 26
f 34 26 19
f 34 19 21
f 35 21 20
f 35 20 25
f 35 25 33
f 36 23 22
f 36 22 28
f 36 28 30

o geometry_2
v 0.01125000 0.00326300 0.00650000
v 0.01125000 0.00326300 -0.00650000
v 0.00838100 0.00384900 0.00650000
v 0.01350600 0.00010000 -0.00650000
v 0.01355300 -0.00198700 0.00650000
v 0.01283000 -0.00400000 -0.00650000
v 0.00738300 0.00363600 -0.00650000
v 0.00961700 -0.00663600 -0.00650000
v 0.00861900 -0.00684900 0.00650000
v 0.00575000 -0.00626300 -0.00650000
v 0.00349400 -0.00310000 -0.00650000
v 0.00349400 -0.00310000 0.00650000
v 0.00371700 0.00002300 0.00650000
v 0.00417000 0.00100000 -0.00650000
v 0.00495800 -0.00568400 0.00650000
v 0.01144800 -0.00563200 0.00650000
v 0.01319200 0.00107100 0.00650000
v 0.00555200 0.00263200 0.00650000
f 54 49 48
f 54 48 51
f 54 51 45
f 54 45 52
f 54 52 41
f 54 41 53
f 54 53 37
f 54 37 39
f 37 38 39
f 40 41 42
f 43 39 38
f 44 45 46
f 47 48 49
f 47 49 50
f 47 50 43
f 47 43 38
f 47 38 40
f 47 40 42
f 47 42 44
f 47 44 46
f 51 46 45
f 51 48 47
f 51 47 46
f 52 45 44
f 52 44 42
f 52 42 41
f 53 41 40
f 53 40 38
f 53 38 37
f 54 39 43
f 54 43 50
f 54 50 49

o geometry_3
v -0.00421051 0.00260224 0.00494975
v -0.00424778 -0.00165960 0.00531057
v 0.00000000 -0.00096567 0.00693307
v 0.00000000 0.00368012 0.00595456
v 0.00421051 0.00260224 0.00494975
v 0.00424778 -0.00165960 0.00531057
v -0.00421051 -0.00260224 -0.00494975
v -0.00424778 0.00165960 -0.00531057
v 0.00000000 0.00096567 -0.00693307
v 0.00000000 -0.00368012 -0.00595456
v 0.00421051 -0.00260224 -0.00494975
v 0.00424778 0.00165960 -0.00531057
v -0.00411450 -0.00481734 0.00297728
v -0.00399876 -0.00554854 -0.00149116
v 0.00000000 -0.00700000 0.00000000
v 0.00000000 -0.00595456 0.00368012
v 0.00411450 -0.00481734 0.00297728
v 0.00399876 -0.00554854 -0.00149116
v -0.00411450 0.00481734 -0.00297728
v -0.00399876 0.00554854 0.00149116
v 0.00000000 0.00700000 0.00000000
v 0.00000000 0.00595456 -0.00368012
v 0.00411450 0.00481734 -0.00297728
v 0.00399876 0.00554854 0.00149116
v -0.00109504 0.00588125 0.00363481
v -0.00109504 -0.00588125 -0.00363481
v -0.00595456 -0.00368012 0.00000000
v 0.00595456 -0.00368012 0.00000000
v -0.00595456 0.00368012 0.00000000
v 0.00595456 0.00368012 0.00000000
v -0.00149116 -0.00399876 0.00554854
v -0.00149116 0.00399876 -0.00554854
v -0.00595456 0.00000000 0.00368012
v -0.00700000 0.00000000 0.00000000
v 0.00595456 0.00000000 0.00368012
v 0.00700000 0.00000000 0.00000000
v -0.00595456 0.00000000 -0.00368012
v 0.00595456 0.00000000 -0.00368012
v 0.00149116 -0.00399876 0.00554854
v 0.00149116 0.00399876 -0.00554854
v 0.00260224 0.00494975 0.00421051
v 0.00260224 -0.00494975 -0.00421051
f 95 78 75
f 95 75 79
f 55 56 57
f 55 57 58
f 59 58 57
f 59 57 60
f 61 62 63
f 61 63 64
f 65 64 63
f 65 63 66
f 67 68 69
f 67 69 70
f 71 70 69
f 71 69 72
f 73 74 75
f 73 75 76
f 77 76 75
f 77 75 78
f 79 75 74
f 79 74 55
f 79 55 58
f 80 69 68
f 80 68 61
f 80 61 64
f 81 68 67
f 81 61 68
f 82 71 72
f 82 72 65
f 83 74 73
f 83 55 74
f 84 77 78
f 84 78 59
f 85 57 56
f 85 56 67
f 85 67 70
f 86 63 62
f 86 62 73
f 86 73 76
f 87 56 55
f 87 55 83
f 87 83 88
f 87 88 81
f 87 81 67
f 87 67 56
f 89 90 84
f 89 84 59
f 89 59 60
f 89 60 71
f 89 71 82
f 89 82 90
f 91 62 61
f 91 61 81
f 91 81 88
f 91 88 83
f 91 83 73
f 91 73 62
f 92 90 82
f 92 82 65
f 92 65 66
f 92 66 77
f 92 77 84
f 92 84 90
f 93 60 57
f 93 57 85
f 93 85 70
f 93 70 71
f 93 71 60
f 94 66 63
f 94 63 86
f 94 86 76
f 94 76 77
f 94 77 66
f 95 58 59
f 95 59 78
f 95 79 58
f 96 64 65
f 96 65 72
f 96 72 69
f 96 69 80
f 96 80 64
