# https://github.com/mikedh/trimesh

o geometry_0
v -0.00160200 0.00644000 0.00000000
v -0.00217400 0.00540800 0.00416700
v 0.01938900 -0.00519500 -0.00000000
v -0.00781700 -0.00477300 -0.00416700
v 0.01260200 -0.01744000 -0.00000000
v -0.00838900 -0.00580500 0.00000000
v 0.01359600 -0.01564700 0.00530300
v 0.01599500 -0.01131800 0.00750000
v -0.00565800 -0.00087700 0.00735600
v 0.01839500 -0.00698900 -0.00530300
v 0.01599500 -0.01131800 -0.00750000
v -0.00433300 0.00151200 -0.00735600
v 0.01359600 -0.01564700 -0.00530300
v 0.01839500 -0.00698900 0.00530300
v -0.00781700 -0.00477300 0.00416700
v -0.00259600 0.00464700 -0.00530300
v -0.00369700 0.00266100 0.00692900
v -0.00629400 -0.00202500 -0.00692900
f 18 4 6
f 18 6 15
f 18 15 9
f 18 9 17
f 18 17 2
f 18 2 1
f 18 1 16
f 18 16 12
f 1 2 3
f 4 5 6
f 7 8 9
f 10 11 12
f 13 5 4
f 14 3 2
f 8 7 5
f 8 5 13
f 8 13 11
f 8 11 10
f 8 10 3
f 8 3 14
f 15 6 5
f 15 5 7
f 15 7 9
f 1 3 10
f 1 10 16
f 16 10 12
f 17 8 14
f 17 14 2
f 17 9 8
f 18 11 13
f 18 13 4
f 18 12 11

o geometry_1
v 0.01667400 -0.00703700 0.00495000
v 0.01531000 -0.01179500 0.00700000
v 0.03142800 -0.01363000 0.00646700
v 0.01394600 -0.01655300 -0.00495000
v 0.02890800 -0.02242200 -0.00267900
v 0.01338000 -0.01852400 0.00000000
v 0.01394600 -0.01655300 0.00495000
v 0.01723900 -0.00506600 0.00000000
v 0.01667400 -0.00703700 -0.00495000
v 0.01531000 -0.01179500 -0.00700000
v 0.03205400 -0.01144700 -0.00495000
v 0.03069000 -0.01620500 -0.00700000
v 0.03262000 -0.00947600 -0.00000000
v 0.02879800 -0.02280500 0.00136600
v 0.02932600 -0.02096300 0.00495000
v 0.03229400 -0.01061000 0.00388900
v 0.03031400 -0.01751800 0.00686500
v 0.02961800 -0.01994300 -0.00582000
f 36 30 29
f 36 29 31
f 36 31 34
f 36 34 21
f 36 21 35
f 36 35 33
f 36 33 32
f 36 32 23
f 19 20 21
f 22 23 24
f 25 20 19
f 25 19 26
f 25 26 27
f 25 27 28
f 25 28 22
f 25 22 24
f 29 30 28
f 29 28 27
f 29 27 26
f 29 26 31
f 32 24 23
f 32 33 25
f 32 25 24
f 34 31 26
f 34 26 19
f 34 19 21
f 35 21 20
f 35 20 25
f 35 25 33
f 36 23 22
f 36 22 28
f 36 28 30

o geometry_2
v 0.01125000 0.00326300 0.00650000
v 0.01125000 0.00326300 -0.00650000
v 0.00838100 0.00384900 0.00650000
v 0.01350600 0.00010000 -0.00650000
v 0.01355300 -0.00198700 0.00650000
v 0.01283000 -0.00400000 -0.00650000
v 0.00738300 0.00363600 -0.00650000
v 0.00961700 -0.00663600 -0.00650000
v 0.00861900 -0.00684900 0.00650000
v 0.00575000 -0.00626300 -0.00650000
v 0.00349400 -0.00310000 -0.00650000
v 0.00349400 -0.00310000 0.00650000
v 0.00371700 0.00002300 0.00650000
v 0.00417000 0.00100000 -0.00650000
v 0.00495800 -0.00568400 0.00650000
v 0.01144800 -0.00563200 0.00650000
v 0.01319200 0.00107100 0.00650000
v 0.00555200 0.00263200 0.00650000
f 54 49 48
f 54 48 51
f 54 51 45
f 54 45 52
f 54 52 41
f 54 41 53
f 54 53 37
f 54 37 39
f 37 38 39
f 40 41 42
f 43 39 38
f 44 45 46
f 47 48 49
f 47 49 50
f 47 50 43
f 47 43 38
f 47 38 40
f 47 40 42
f 47 42 44
f 47 44 46
f 51 46 45
f 51 48 47
f 51 47 46
f 52 45 44
f 52 44 42
f 52 42 41
f 53 41 40
f 53 40 38
f 53 38 37
f 54 39 43
f 54 43 50
f 54 50 49

o geometry_3
v -0.00421051 0.00260224 0.00494975
v -0.00424778 -0.00165960 0.00531057
v 0.00000000 -0.00096567 0.00693307
v 0.00000000 0.00368012 0.00595456
v 0.00421051 0.00260224 0.00494975
v 0.00424778 -0.00165960 0.00531057
v -0.00421051 -0.00260224 -0.00494975
v -0.00424778 0.00165960 -0.00531057
v 0.00000000 0.00096567 -0.00693307
v 0.00000000 -0.00368012 -0.00595456
v 0.00421051 -0.00260224 -0.00494975
v 0.00424778 0.00165960 -0.00531057
v -0.00411450 -0.00481734 0.00297728
v -0.00399876 -0.00554854 -0.00149116
v 0.00000000 -0.00700000 0.00000000
v 0.00000000 -0.00595456 0.00368012
v 0.00411450 -0.00481734 0.00297728
v 0.00399876 -0.00554854 -0.00149116
v -0.00411450 0.00481734 -0.00297728
v -0.00399876 0.00554854 0.00149116
v 0.00000000 0.00700000 0.00000000
v 0.00000000 0.00595456 -0.00368012
v 0.00411450 0.00481734 -0.00297728
v 0.00399876 0.00554854 0.00149116
v -0.00109504 0.00588125 0.00363481
v -0.00109504 -0.00588125 -0.00363481
v -0.00595456 -0.00368012 0.00000000
v 0.00595456 -0.00368012 0.00000000
v -0.00595456 0.00368012 0.00000000
v 0.00595456 0.00368012 0.00000000
v -0.00149116 -0.00399876 0.00554854
v -0.00149116 0.00399876 -0.00554854
v -0.00595456 0.00000000 0.00368012
v -0.00700000 0.00000000 0.00000000
v 0.00595456 0.00000000 0.00368012
v 0.00700000 0.00000000 0.00000000
v -0.00595456 0.00000000 -0.00368012
v 0.00595456 0.00000000 -0.00368012
v 0.00149116 -0.00399876 0.00554854
v 0.00149116 0.00399876 -0.00554854
v 0.00260224 0.00494975 0.00421051
v 0.00260224 -0.00494975 -0.00421051
f 95 78 75
f 95 75 79
f 55 56 57
f 55 57 58
f 59 58 57
f 59 57 60
f 61 62 63
f 61 63 64
f 65 64 63
f 65 63 66
f 67 68 69
f 67 69 70
f 71 70 69
f 71 69 72
f 73 74 75
f 73 75 76
f 77 76 75
f 77 75 78
f 79 75 74
f 79 74 55
f 79 55 58
f 80 69 68
f 80 68 61
f 80 61 64
f 81 68 67
f 81 61 68
f 82 71 72
f 82 72 65
f 83 74 73
f 83 55 74
f 84 77 78
f 84 78 59
f 85 57 56
f 85 56 67
f 85 67 70
f 86 63 62
f 86 62 73
f 86 73 76
f 87 56 55
f 87 55 83
f 87 83 88
f 87 88 81
f 87 81 67
f 87 67 56
f 89 90 84
f 89 84 59
f 89 59 60
f 89 60 71
f 89 71 82
f 89 82 90
f 91 62 61
f 91 61 81
f 91 81 88
f 91 88 83
f 91 83 73
f 91 73 62
f 92 90 82
f 92 82 65
f 92 65 66
f 92 66 77
f 92 77 84
f 92 84 90
f 93 60 57
f 93 57 85
f 93 85 70
f 93 70 71
f 93 71 60
f 94 66 63
f 94 63 86
f 94 86 76
f 94 76 77
f 94 77 66
f 95 58 59
f 95 59 78
f 95 79 58
f 96 64 65
f 96 65 72
f 96 72 69
f 96 69 80
f 96 80 64

o geometry_4
v -0.00421051 0.00260224 0.00494975
v -0.00424778 -0.00165960 0.00531057
v 0.00000000 -0.00096567 0.00693307
v 0.00000000 0.00368012 0.00595456
v 0.00421051 0.00260224 0.00494975
v 0.00424778 -0.00165960 0.00531057
v -0.00421051 -0.00260224 -0.00494975
v -0.00424778 0.00165960 -0.00531057
v 0.00000000 0.00096567 -0.00693307
v 0.00000000 -0.00368012 -0.00595456
v 0.00421051 -0.00260224 -0.00494975
v 0.00424778 0.00165960 -0.00531057
v -0.00411450 -0.00481734 0.00297728
v -0.00399876 -0.00554854 -0.00149116
v 0.00000000 -0.00700000 0.00000000
v 0.00000000 -0.00595456 0.00368012
v 0.00411450 -0.00481734 0.00297728
v 0.00399876 -0.00554854 -0.00149116
v -0.00411450 0.00481734 -0.00297728
v -0.00399876 0.00554854 0.00149116
v 0.00000000 0.00700000 0.00000000
v 0.00000000 0.00595456 -0.00368012
v 0.00411450 0.00481734 -0.00297728
v 0.00399876 0.00554854 0.00149116
v -0.00109504 0.00588125 0.00363481
v -0.00109504 -0.00588125 -0.00363481
v -0.00595456 -0.00368012 0.00000000
v 0.00595456 -0.00368012 0.00000000
v -0.00595456 0.00368012 0.00000000
v 0.00595456 0.00368012 0.00000000
v -0.00149116 -0.00399876 0.00554854
v -0.00149116 0.00399876 -0.00554854
v -0.00595456 0.00000000 0.00368012
v -0.00700000 0.00000000 0.00000000
v 0.00595456 0.00000000 0.00368012
v 0.00700000 0.00000000 0.00000000
v -0.00595456 0.00000000 -0.00368012
v 0.00595456 0.00000000 -0.00368012
v 0.00149116 -0.00399876 0.00554854
v 0.00149116 0.00399876 -0.00554854
v 0.00260224 0.00494975 0.00421051
v 0.00260224 -0.00494975 -0.00421051
f 137 120 117
f 137 117 121
f 97 98 99
f 97 99 100
f 101 100 99
f 101 99 102
f 103 104 105
f 103 105 106
f 107 106 105
f 107 105 108
f 109 110 111
f 109 111 112
f 113 112 111
f 113 111 114
f 115 116 117
f 115 117 118
f 119 118 117
f 119 117 120
f 121 117 116
f 121 116 97
f 121 97 100
f 122 111 110
f 122 110 103
f 122 103 106
f 123 110 109
f 123 103 110
f 124 113 114
f 124 114 107
f 125 116 115
f 125 97 116
f 126 119 120
f 126 120 101
f 127 99 98
f 127 98 109
f 127 109 112
f 128 105 104
f 128 104 115
f 128 115 118
f 129 98 97
f 129 97 125
f 129 125 130
f 129 130 123
f 129 123 109
f 129 109 98
f 131 132 126
f 131 126 101
f 131 101 102
f 131 102 113
f 131 113 124
f 131 124 132
f 133 104 103
f 133 103 123
f 133 123 130
f 133 130 125
f 133 125 115
f 133 115 104
f 134 132 124
f 134 124 107
f 134 107 108
f 134 108 119
f 134 119 126
f 134 126 132
f 135 102 99
f 135 99 127
f 135 127 112
f 135 112 113
f 135 113 102
f 136 108 105
f 136 105 128
f 136 128 118
f 136 118 119
f 136 119 108
f 137 100 101
f 137 101 120
f 137 121 100
f 138 106 107
f 138 107 114
f 138 114 111
f 138 111 122
f 138 122 106

o geometry_5
v 0.02578949 -0.01339776 -0.00494975
v 0.03000000 -0.01231988 -0.00595456
v 0.03000000 -0.01696567 -0.00693307
v 0.02575222 -0.01765961 -0.00531057
v 0.03421051 -0.01339776 -0.00494975
v 0.03424778 -0.01765961 -0.00531057
v 0.02578949 -0.01860224 0.00494975
v 0.03000000 -0.01968012 0.00595456
v 0.03000000 -0.01503434 0.00693307
v 0.02575222 -0.01434040 0.00531057
v 0.03421051 -0.01860224 0.00494975
v 0.03424778 -0.01434040 0.00531057
v 0.02588550 -0.01118266 0.00297728
v 0.03000000 -0.01004544 0.00368012
v 0.03000000 -0.00900000 0.00000000
v 0.02600124 -0.01045146 -0.00149116
v 0.03411450 -0.01118266 0.00297728
v 0.03399876 -0.01045146 -0.00149116
v 0.02588550 -0.02081734 -0.00297728
v 0.03000000 -0.02195456 -0.00368012
v 0.03000000 -0.02300000 0.00000000
v 0.02600124 -0.02154855 0.00149116
v 0.03411450 -0.02081734 -0.00297728
v 0.03399876 -0.02154855 0.00149116
v 0.03109504 -0.02188125 0.00363481
v 0.02890496 -0.01011876 -0.00363481
v 0.02404544 -0.01231988 0.00000000
v 0.03595456 -0.01231988 0.00000000
v 0.03595456 -0.01968012 0.00000000
v 0.02404544 -0.01968012 0.00000000
v 0.02850884 -0.01200124 0.00554854
v 0.03149116 -0.01999876 -0.00554854
v 0.02404544 -0.01600000 -0.00368012
v 0.02300000 -0.01600000 0.00000000
v 0.02404544 -0.01600000 0.00368012
v 0.03595456 -0.01600000 -0.00368012
v 0.03700000 -0.01600000 0.00000000
v 0.03595456 -0.01600000 0.00368012
v 0.03149116 -0.01200124 0.00554854
v 0.02850884 -0.01999876 -0.00554854
v 0.03260224 -0.01105025 -0.00421051
v 0.02739776 -0.02094975 0.00421051
f 164 153 156
f 164 156 179
f 139 140 141
f 139 141 142
f 143 144 141
f 143 141 140
f 145 146 147
f 145 147 148
f 149 150 147
f 149 147 146
f 151 152 153
f 151 153 154
f 155 156 153
f 155 153 152
f 157 158 159
f 157 159 160
f 161 162 159
f 161 159 158
f 163 159 162
f 163 162 149
f 163 149 146
f 164 154 153
f 164 140 139
f 164 139 154
f 165 151 154
f 165 154 139
f 166 156 155
f 166 143 156
f 167 162 161
f 167 149 162
f 168 157 160
f 168 160 145
f 169 148 147
f 169 152 151
f 169 151 148
f 170 141 144
f 170 144 161
f 170 161 158
f 171 172 165
f 171 165 139
f 171 139 142
f 171 142 157
f 171 157 168
f 171 168 172
f 173 172 168
f 173 168 145
f 173 145 148
f 173 148 151
f 173 151 165
f 173 165 172
f 174 144 143
f 174 143 166
f 174 166 175
f 174 175 167
f 174 167 161
f 174 161 144
f 176 150 149
f 176 149 167
f 176 167 175
f 176 175 166
f 176 166 155
f 176 155 150
f 177 152 169
f 177 169 147
f 177 147 150
f 177 150 155
f 177 155 152
f 178 142 141
f 178 141 170
f 178 170 158
f 178 158 157
f 178 157 142
f 179 156 143
f 179 143 140
f 179 140 164
f 180 146 145
f 180 145 160
f 180 160 159
f 180 159 163
f 180 163 146

o geometry_6
v 0.02578949 -0.01339776 -0.00494975
v 0.03000000 -0.01231988 -0.00595456
v 0.03000000 -0.01696567 -0.00693307
v 0.02575222 -0.01765961 -0.00531057
v 0.03421051 -0.01339776 -0.00494975
v 0.03424778 -0.01765961 -0.00531057
v 0.02578949 -0.01860224 0.00494975
v 0.03000000 -0.01968012 0.00595456
v 0.03000000 -0.01503434 0.00693307
v 0.02575222 -0.01434040 0.00531057
v 0.03421051 -0.01860224 0.00494975
v 0.03424778 -0.01434040 0.00531057
v 0.02588550 -0.01118266 0.00297728
v 0.03000000 -0.01004544 0.00368012
v 0.03000000 -0.00900000 0.00000000
v 0.02600124 -0.01045146 -0.00149116
v 0.03411450 -0.01118266 0.00297728
v 0.03399876 -0.01045146 -0.00149116
v 0.02588550 -0.02081734 -0.00297728
v 0.03000000 -0.02195456 -0.00368012
v 0.03000000 -0.02300000 0.00000000
v 0.02600124 -0.02154855 0.00149116
v 0.03411450 -0.02081734 -0.00297728
v 0.03399876 -0.02154855 0.00149116
v 0.03109504 -0.02188125 0.00363481
v 0.02890496 -0.01011876 -0.00363481
v 0.02404544 -0.01231988 0.00000000
v 0.03595456 -0.01231988 0.00000000
v 0.03595456 -0.01968012 0.00000000
v 0.02404544 -0.01968012 0.00000000
v 0.02850884 -0.01200124 0.00554854
v 0.03149116 -0.01999876 -0.00554854
v 0.02404544 -0.01600000 -0.00368012
v 0.02300000 -0.01600000 0.00000000
v 0.02404544 -0.01600000 0.00368012
v 0.03595456 -0.01600000 -0.00368012
v 0.03700000 -0.01600000 0.00000000
v 0.03595456 -0.01600000 0.00368012
v 0.03149116 -0.01200124 0.00554854
v 0.02850884 -0.01999876 -0.00554854
v 0.03260224 -0.01105025 -0.00421051
v 0.02739776 -0.02094975 0.00421051
f 206 195 198
f 206 198 221
f 181 182 183
f 181 183 184
f 185 186 183
f 185 183 182
f 187 188 189
f 187 189 190
f 191 192 189
f 191 189 188
f 193 194 195
f 193 195 196
f 197 198 195
f 197 195 194
f 199 200 201
f 199 201 202
f 203 204 201
f 203 201 200
f 205 201 204
f 205 204 191
f 205 191 188
f 206 196 195
f 206 182 181
f 206 181 196
f 207 193 196
f 207 196 181
f 208 198 197
f 208 185 198
f 209 204 203
f 209 191 204
f 210 199 202
f 210 202 187
f 211 190 189
f 211 194 193
f 211 193 190
f 212 183 186
f 212 186 203
f 212 203 200
f 213 214 207
f 213 207 181
f 213 181 184
f 213 184 199
f 213 199 210
f 213 210 214
f 215 214 210
f 215 210 187
f 215 187 190
f 215 190 193
f 215 193 207
f 215 207 214
f 216 186 185
f 216 185 208
f 216 208 217
f 216 217 209
f 216 209 203
f 216 203 186
f 218 192 191
f 218 191 209
f 218 209 217
f 218 217 208
f 218 208 197
f 218 197 192
f 219 194 211
f 219 211 189
f 219 189 192
f 219 192 197
f 219 197 194
f 220 184 183
f 220 183 212
f 220 212 200
f 220 200 199
f 220 199 184
f 221 198 185
f 221 185 182
f 221 182 206
f 222 188 187
f 222 187 202
f 222 202 201
f 222 201 205
f 222 205 188

o geometry_7
v 0.02578949 -0.01339776 -0.00494975
v 0.03000000 -0.01231988 -0.00595456
v 0.03000000 -0.01696567 -0.00693307
v 0.02575222 -0.01765961 -0.00531057
v 0.03421051 -0.01339776 -0.00494975
v 0.03424778 -0.01765961 -0.00531057
v 0.02578949 -0.01860224 0.00494975
v 0.03000000 -0.01968012 0.00595456
v 0.03000000 -0.01503434 0.00693307
v 0.02575222 -0.01434040 0.00531057
v 0.03421051 -0.01860224 0.00494975
v 0.03424778 -0.01434040 0.00531057
v 0.02588550 -0.01118266 0.00297728
v 0.03000000 -0.01004544 0.00368012
v 0.03000000 -0.00900000 0.00000000
v 0.02600124 -0.01045146 -0.00149116
v 0.03411450 -0.01118266 0.00297728
v 0.03399876 -0.01045146 -0.00149116
v 0.02588550 -0.02081734 -0.00297728
v 0.03000000 -0.02195456 -0.00368012
v 0.03000000 -0.02300000 0.00000000
v 0.02600124 -0.02154855 0.00149116
v 0.03411450 -0.02081734 -0.00297728
v 0.03399876 -0.02154855 0.00149116
v 0.03109504 -0.02188125 0.00363481
v 0.02890496 -0.01011876 -0.00363481
v 0.02404544 -0.01231988 0.00000000
v 0.03595456 -0.01231988 0.00000000
v 0.03595456 -0.01968012 0.00000000
v 0.02404544 -0.01968012 0.00000000
v 0.02850884 -0.01200124 0.00554854
v 0.03149116 -0.01999876 -0.00554854
v 0.02404544 -0.01600000 -0.00368012
v 0.02300000 -0.01600000 0.00000000
v 0.02404544 -0.01600000 0.00368012
v 0.03595456 -0.01600000 -0.00368012
v 0.03700000 -0.01600000 0.00000000
v 0.03595456 -0.01600000 0.00368012
v 0.03149116 -0.01200124 0.00554854
v 0.02850884 -0.01999876 -0.00554854
v 0.03260224 -0.01105025 -0.00421051
v 0.02739776 -0.02094975 0.00421051
f 248 237 240
f 248 240 263
f 223 224 225
f 223 225 226
f 227 228 225
f 227 225 224
f 229 230 231
f 229 231 232
f 233 234 231
f 233 231 230
f 235 236 237
f 235 237 238
f 239 240 237
f 239 237 236
f 241 242 243
f 241 243 244
f 245 246 243
f 245 243 242
f 247 243 246
f 247 246 233
f 247 233 230
f 248 238 237
f 248 224 223
f 248 223 238
f 249 235 238
f 249 238 223
f 250 240 239
f 250 227 240
f 251 246 245
f 251 233 246
f 252 241 244
f 252 244 229
f 253 232 231
f 253 236 235
f 253 235 232
f 254 225 228
f 254 228 245
f 254 245 242
f 255 256 249
f 255 249 223
f 255 223 226
f 255 226 241
f 255 241 252
f 255 252 256
f 257 256 252
f 257 252 229
f 257 229 232
f 257 232 235
f 257 235 249
f 257 249 256
f 258 228 227
f 258 227 250
f 258 250 259
f 258 259 251
f 258 251 245
f 258 245 228
f 260 234 233
f 260 233 251
f 260 251 259
f 260 259 250
f 260 250 239
f 260 239 234
f 261 236 253
f 261 253 231
f 261 231 234
f 261 234 239
f 261 239 236
f 262 226 225
f 262 225 254
f 262 254 242
f 262 242 241
f 262 241 226
f 263 240 227
f 263 227 224
f 263 224 248
f 264 230 229
f 264 229 244
f 264 244 243
f 264 243 247
f 264 247 230

o geometry_8
v 0.02578949 -0.01339776 -0.00494975
v 0.03000000 -0.01231988 -0.00595456
v 0.03000000 -0.01696567 -0.00693307
v 0.02575222 -0.01765961 -0.00531057
v 0.03421051 -0.01339776 -0.00494975
v 0.03424778 -0.01765961 -0.00531057
v 0.02578949 -0.01860224 0.00494975
v 0.03000000 -0.01968012 0.00595456
v 0.03000000 -0.01503434 0.00693307
v 0.02575222 -0.01434040 0.00531057
v 0.03421051 -0.01860224 0.00494975
v 0.03424778 -0.01434040 0.00531057
v 0.02588550 -0.01118266 0.00297728
v 0.03000000 -0.01004544 0.00368012
v 0.03000000 -0.00900000 0.00000000
v 0.02600124 -0.01045146 -0.00149116
v 0.03411450 -0.01118266 0.00297728
v 0.03399876 -0.01045146 -0.00149116
v 0.02588550 -0.02081734 -0.00297728
v 0.03000000 -0.02195456 -0.00368012
v 0.03000000 -0.02300000 0.00000000
v 0.02600124 -0.02154855 0.00149116
v 0.03411450 -0.02081734 -0.00297728
v 0.03399876 -0.02154855 0.00149116
v 0.03109504 -0.02188125 0.00363481
v 0.02890496 -0.01011876 -0.00363481
v 0.02404544 -0.01231988 0.00000000
v 0.03595456 -0.01231988 0.00000000
v 0.03595456 -0.01968012 0.00000000
v 0.02404544 -0.01968012 0.00000000
v 0.02850884 -0.01200124 0.00554854
v 0.03149116 -0.01999876 -0.00554854
v 0.02404544 -0.01600000 -0.00368012
v 0.02300000 -0.01600000 0.00000000
v 0.02404544 -0.01600000 0.00368012
v 0.03595456 -0.01600000 -0.00368012
v 0.03700000 -0.01600000 0.00000000
v 0.03595456 -0.01600000 0.00368012
v 0.03149116 -0.01200124 0.00554854
v 0.02850884 -0.01999876 -0.00554854
v 0.03260224 -0.01105025 -0.00421051
v 0.02739776 -0.02094975 0.00421051
f 290 279 282
f 290 282 305
f 265 266 267
f 265 267 268
f 269 270 267
f 269 267 266
f 271 272 273
f 271 273 274
f 275 276 273
f 275 273 272
f 277 278 279
f 277 279 280
f 281 282 279
f 281 279 278
f 283 284 285
f 283 285 286
f 287 288 285
f 287 285 284
f 289 285 288
f 289 288 275
f 289 275 272
f 290 280 279
f 290 266 265
f 290 265 280
f 291 277 280
f 291 280 265
f 292 282 281
f 292 269 282
f 293 288 287
f 293 275 288
f 294 283 286
f 294 286 271
f 295 274 273
f 295 278 277
f 295 277 274
f 296 267 270
f 296 270 287
f 296 287 284
f 297 298 291
f 297 291 265
f 297 265 268
f 297 268 283
f 297 283 294
f 297 294 298
f 299 298 294
f 299 294 271
f 299 271 274
f 299 274 277
f 299 277 291
f 299 291 298
f 300 270 269
f 300 269 292
f 300 292 301
f 300 301 293
f 300 293 287
f 300 287 270
f 302 276 275
f 302 275 293
f 302 293 301
f 302 301 292
f 302 292 281
f 302 281 276
f 303 278 295
f 303 295 273
f 303 273 276
f 303 276 281
f 303 281 278
f 304 268 267
f 304 267 296
f 304 296 284
f 304 284 283
f 304 283 268
f 305 282 269
f 305 269 266
f 305 266 290
f 306 272 271
f 306 271 286
f 306 286 285
f 306 285 289
f 306 289 272

o geometry_9
v 0.02578949 -0.01339776 -0.00494975
v 0.03000000 -0.01231988 -0.00595456
v 0.03000000 -0.01696567 -0.00693307
v 0.02575222 -0.01765961 -0.00531057
v 0.03421051 -0.01339776 -0.00494975
v 0.03424778 -0.01765961 -0.00531057
v 0.02578949 -0.01860224 0.00494975
v 0.03000000 -0.01968012 0.00595456
v 0.03000000 -0.01503434 0.00693307
v 0.02575222 -0.01434040 0.00531057
v 0.03421051 -0.01860224 0.00494975
v 0.03424778 -0.01434040 0.00531057
v 0.02588550 -0.01118266 0.00297728
v 0.03000000 -0.01004544 0.00368012
v 0.03000000 -0.00900000 0.00000000
v 0.02600124 -0.01045146 -0.00149116
v 0.03411450 -0.01118266 0.00297728
v 0.03399876 -0.01045146 -0.00149116
v 0.02588550 -0.02081734 -0.00297728
v 0.03000000 -0.02195456 -0.00368012
v 0.03000000 -0.02300000 0.00000000
v 0.02600124 -0.02154855 0.00149116
v 0.03411450 -0.02081734 -0.00297728
v 0.03399876 -0.02154855 0.00149116
v 0.03109504 -0.02188125 0.00363481
v 0.02890496 -0.01011876 -0.00363481
v 0.02404544 -0.01231988 0.00000000
v 0.03595456 -0.01231988 0.00000000
v 0.03595456 -0.01968012 0.00000000
v 0.02404544 -0.01968012 0.00000000
v 0.02850884 -0.01200124 0.00554854
v 0.03149116 -0.01999876 -0.00554854
v 0.02404544 -0.01600000 -0.00368012
v 0.02300000 -0.01600000 0.00000000
v 0.02404544 -0.01600000 0.00368012
v 0.03595456 -0.01600000 -0.00368012
v 0.03700000 -0.01600000 0.00000000
v 0.03595456 -0.01600000 0.00368012
v 0.03149116 -0.01200124 0.00554854
v 0.02850884 -0.01999876 -0.00554854
v 0.03260224 -0.01105025 -0.00421051
v 0.02739776 -0.02094975 0.00421051
f 332 321 324
f 332 324 347
f 307 308 309
f 307 309 310
f 311 312 309
f 311 309 308
f 313 314 315
f 313 315 316
f 317 318 315
f 317 315 314
f 319 320 321
f 319 321 322
f 323 324 321
f 323 321 320
f 325 326 327
f 325 327 328
f 329 330 327
f 329 327 326
f 331 327 330
f 331 330 317
f 331 317 314
f 332 322 321
f 332 308 307
f 332 307 322
f 333 319 322
f 333 322 307
f 334 324 323
f 334 311 324
f 335 330 329
f 335 317 330
f 336 325 328
f 336 328 313
f 337 316 315
f 337 320 319
f 337 319 316
f 338 309 312
f 338 312 329
f 338 329 326
f 339 340 333
f 339 333 307
f 339 307 310
f 339 310 325
f 339 325 336
f 339 336 340
f 341 340 336
f 341 336 313
f 341 313 316
f 341 316 319
f 341 319 333
f 341 333 340
f 342 312 311
f 342 311 334
f 342 334 343
f 342 343 335
f 342 335 329
f 342 329 312
f 344 318 317
f 344 317 335
f 344 335 343
f 344 343 334
f 344 334 323
f 344 323 318
f 345 320 337
f 345 337 315
f 345 315 318
f 345 318 323
f 345 323 320
f 346 310 309
f 346 309 338
f 346 338 326
f 346 326 325
f 346 325 310
f 347 324 311
f 347 311 308
f 347 308 332
f 348 314 313
f 348 313 328
f 348 328 327
f 348 327 331
f 348 331 314

o geometry_10
v 0.02578949 -0.01339776 -0.00494975
v 0.03000000 -0.01231988 -0.00595456
v 0.03000000 -0.01696567 -0.00693307
v 0.02575222 -0.01765961 -0.00531057
v 0.03421051 -0.01339776 -0.00494975
v 0.03424778 -0.01765961 -0.00531057
v 0.02578949 -0.01860224 0.00494975
v 0.03000000 -0.01968012 0.00595456
v 0.03000000 -0.01503434 0.00693307
v 0.02575222 -0.01434040 0.00531057
v 0.03421051 -0.01860224 0.00494975
v 0.03424778 -0.01434040 0.00531057
v 0.02588550 -0.01118266 0.00297728
v 0.03000000 -0.01004544 0.00368012
v 0.03000000 -0.00900000 0.00000000
v 0.02600124 -0.01045146 -0.00149116
v 0.03411450 -0.01118266 0.00297728
v 0.03399876 -0.01045146 -0.00149116
v 0.02588550 -0.02081734 -0.00297728
v 0.03000000 -0.02195456 -0.00368012
v 0.03000000 -0.02300000 0.00000000
v 0.02600124 -0.02154855 0.00149116
v 0.03411450 -0.02081734 -0.00297728
v 0.03399876 -0.02154855 0.00149116
v 0.03109504 -0.02188125 0.00363481
v 0.02890496 -0.01011876 -0.00363481
v 0.02404544 -0.01231988 0.00000000
v 0.03595456 -0.01231988 0.00000000
v 0.03595456 -0.01968012 0.00000000
v 0.02404544 -0.01968012 0.00000000
v 0.02850884 -0.01200124 0.00554854
v 0.03149116 -0.01999876 -0.00554854
v 0.02404544 -0.01600000 -0.00368012
v 0.02300000 -0.01600000 0.00000000
v 0.02404544 -0.01600000 0.00368012
v 0.03595456 -0.01600000 -0.00368012
v 0.03700000 -0.01600000 0.00000000
v 0.03595456 -0.01600000 0.00368012
v 0.03149116 -0.01200124 0.00554854
v 0.02850884 -0.01999876 -0.00554854
v 0.03260224 -0.01105025 -0.00421051
v 0.02739776 -0.02094975 0.00421051
f 374 363 366
f 374 366 389
f 349 350 351
f 349 351 352
f 353 354 351
f 353 351 350
f 355 356 357
f 355 357 358
f 359 360 357
f 359 357 356
f 361 362 363
f 361 363 364
f 365 366 363
f 365 363 362
f 367 368 369
f 367 369 370
f 371 372 369
f 371 369 368
f 373 369 372
f 373 372 359
f 373 359 356
f 374 364 363
f 374 350 349
f 374 349 364
f 375 361 364
f 375 364 349
f 376 366 365
f 376 353 366
f 377 372 371
f 377 359 372
f 378 367 370
f 378 370 355
f 379 358 357
f 379 362 361
f 379 361 358
f 380 351 354
f 380 354 371
f 380 371 368
f 381 382 375
f 381 375 349
f 381 349 352
f 381 352 367
f 381 367 378
f 381 378 382
f 383 382 378
f 383 378 355
f 383 355 358
f 383 358 361
f 383 361 375
f 383 375 382
f 384 354 353
f 384 353 376
f 384 376 385
f 384 385 377
f 384 377 371
f 384 371 354
f 386 360 359
f 386 359 377
f 386 377 385
f 386 385 376
f 386 376 365
f 386 365 360
f 387 362 379
f 387 379 357
f 387 357 360
f 387 360 365
f 387 365 362
f 388 352 351
f 388 351 380
f 388 380 368
f 388 368 367
f 388 367 352
f 389 366 353
f 389 353 350
f 389 350 374
f 390 356 355
f 390 355 370
f 390 370 369
f 390 369 373
f 390 373 356

o geometry_11
v 0.02578949 -0.01339776 -0.00494975
v 0.03000000 -0.01231988 -0.00595456
v 0.03000000 -0.01696567 -0.00693307
v 0.02575222 -0.01765961 -0.00531057
v 0.03421051 -0.01339776 -0.00494975
v 0.03424778 -0.01765961 -0.00531057
v 0.02578949 -0.01860224 0.00494975
v 0.03000000 -0.01968012 0.00595456
v 0.03000000 -0.01503434 0.00693307
v 0.02575222 -0.01434040 0.00531057
v 0.03421051 -0.01860224 0.00494975
v 0.03424778 -0.01434040 0.00531057
v 0.02588550 -0.01118266 0.00297728
v 0.03000000 -0.01004544 0.00368012
v 0.03000000 -0.00900000 0.00000000
v 0.02600124 -0.01045146 -0.00149116
v 0.03411450 -0.01118266 0.00297728
v 0.03399876 -0.01045146 -0.00149116
v 0.02588550 -0.02081734 -0.00297728
v 0.03000000 -0.02195456 -0.00368012
v 0.03000000 -0.02300000 0.00000000
v 0.02600124 -0.02154855 0.00149116
v 0.03411450 -0.02081734 -0.00297728
v 0.03399876 -0.02154855 0.00149116
v 0.03109504 -0.02188125 0.00363481
v 0.02890496 -0.01011876 -0.00363481
v 0.02404544 -0.01231988 0.00000000
v 0.03595456 -0.01231988 0.00000000
v 0.03595456 -0.01968012 0.00000000
v 0.02404544 -0.01968012 0.00000000
v 0.02850884 -0.01200124 0.00554854
v 0.03149116 -0.01999876 -0.00554854
v 0.02404544 -0.01600000 -0.00368012
v 0.02300000 -0.01600000 0.00000000
v 0.02404544 -0.01600000 0.00368012
v 0.03595456 -0.01600000 -0.00368012
v 0.03700000 -0.01600000 0.00000000
v 0.03595456 -0.01600000 0.00368012
v 0.03149116 -0.01200124 0.00554854
v 0.02850884 -0.01999876 -0.00554854
v 0.03260224 -0.01105025 -0.00421051
v 0.02739776 -0.02094975 0.00421051
f 416 405 408
f 416 408 431
f 391 392 393
f 391 393 394
f 395 396 393
f 395 393 392
f 397 398 399
f 397 399 400
f 401 402 399
f 401 399 398
f 403 404 405
f 403 405 406
f 407 408 405
f 407 405 404
f 409 410 411
f 409 411 412
f 413 414 411
f 413 411 410
f 415 411 414
f 415 414 401
f 415 401 398
f 416 406 405
f 416 392 391
f 416 391 406
f 417 403 406
f 417 406 391
f 418 408 407
f 418 395 408
f 419 414 413
f 419 401 414
f 420 409 412
f 420 412 397
f 421 400 399
f 421 404 403
f 421 403 400
f 422 393 396
f 422 396 413
f 422 413 410
f 423 424 417
f 423 417 391
f 423 391 394
f 423 394 409
f 423 409 420
f 423 420 424
f 425 424 420
f 425 420 397
f 425 397 400
f 425 400 403
f 425 403 417
f 425 417 424
f 426 396 395
f 426 395 418
f 426 418 427
f 426 427 419
f 426 419 413
f 426 413 396
f 428 402 401
f 428 401 419
f 428 419 427
f 428 427 418
f 428 418 407
f 428 407 402
f 429 404 421
f 429 421 399
f 429 399 402
f 429 402 407
f 429 407 404
f 430 394 393
f 430 393 422
f 430 422 410
f 430 410 409
f 430 409 394
f 431 408 395
f 431 395 392
f 431 392 416
f 432 398 397
f 432 397 412
f 432 412 411
f 432 411 415
f 432 415 398

o geometry_12
v 0.02578949 -0.01339776 -0.00494975
v 0.03000000 -0.01231988 -0.00595456
v 0.03000000 -0.01696567 -0.00693307
v 0.02575222 -0.01765961 -0.00531057
v 0.03421051 -0.01339776 -0.00494975
v 0.03424778 -0.01765961 -0.00531057
v 0.02578949 -0.01860224 0.00494975
v 0.03000000 -0.01968012 0.00595456
v 0.03000000 -0.01503434 0.00693307
v 0.02575222 -0.01434040 0.00531057
v 0.03421051 -0.01860224 0.00494975
v 0.03424778 -0.01434040 0.00531057
v 0.02588550 -0.01118266 0.00297728
v 0.03000000 -0.01004544 0.00368012
v 0.03000000 -0.00900000 0.00000000
v 0.02600124 -0.01045146 -0.00149116
v 0.03411450 -0.01118266 0.00297728
v 0.03399876 -0.01045146 -0.00149116
v 0.02588550 -0.02081734 -0.00297728
v 0.03000000 -0.02195456 -0.00368012
v 0.03000000 -0.02300000 0.00000000
v 0.02600124 -0.02154855 0.00149116
v 0.03411450 -0.02081734 -0.00297728
v 0.03399876 -0.02154855 0.00149116
v 0.03109504 -0.02188125 0.00363481
v 0.02890496 -0.01011876 -0.00363481
v 0.02404544 -0.01231988 0.00000000
v 0.03595456 -0.01231988 0.00000000
v 0.03595456 -0.01968012 0.00000000
v 0.02404544 -0.01968012 0.00000000
v 0.02850884 -0.01200124 0.00554854
v 0.03149116 -0.01999876 -0.00554854
v 0.02404544 -0.01600000 -0.00368012
v 0.02300000 -0.01600000 0.00000000
v 0.02404544 -0.01600000 0.00368012
v 0.03595456 -0.01600000 -0.00368012
v 0.03700000 -0.01600000 0.00000000
v 0.03595456 -0.01600000 0.00368012
v 0.03149116 -0.01200124 0.00554854
v 0.02850884 -0.01999876 -0.00554854
v 0.03260224 -0.01105025 -0.00421051
v 0.02739776 -0.02094975 0.00421051
f 458 447 450
f 458 450 473
f 433 434 435
f 433 435 436
f 437 438 435
f 437 435 434
f 439 440 441
f 439 441 442
f 443 444 441
f 443 441 440
f 445 446 447
f 445 447 448
f 449 450 447
f 449 447 446
f 451 452 453
f 451 453 454
f 455 456 453
f 455 453 452
f 457 453 456
f 457 456 443
f 457 443 440
f 458 448 447
f 458 434 433
f 458 433 448
f 459 445 448
f 459 448 433
f 460 450 449
f 460 437 450
f 461 456 455
f 461 443 456
f 462 451 454
f 462 454 439
f 463 442 441
f 463 446 445
f 463 445 442
f 464 435 438
f 464 438 455
f 464 455 452
f 465 466 459
f 465 459 433
f 465 433 436
f 465 436 451
f 465 451 462
f 465 462 466
f 467 466 462
f 467 462 439
f 467 439 442
f 467 442 445
f 467 445 459
f 467 459 466
f 468 438 437
f 468 437 460
f 468 460 469
f 468 469 461
f 468 461 455
f 468 455 438
f 470 444 443
f 470 443 461
f 470 461 469
f 470 469 460
f 470 460 449
f 470 449 444
f 471 446 463
f 471 463 441
f 471 441 444
f 471 444 449
f 471 449 446
f 472 436 435
f 472 435 464
f 472 464 452
f 472 452 451
f 472 451 436
f 473 450 437
f 473 437 434
f 473 434 458
f 474 440 439
f 474 439 454
f 474 454 453
f 474 453 457
f 474 457 440

o geometry_13
v 0.02578949 -0.01339776 -0.00494975
v 0.03000000 -0.01231988 -0.00595456
v 0.03000000 -0.01696567 -0.00693307
v 0.02575222 -0.01765961 -0.00531057
v 0.03421051 -0.01339776 -0.00494975
v 0.03424778 -0.01765961 -0.00531057
v 0.02578949 -0.01860224 0.00494975
v 0.03000000 -0.01968012 0.00595456
v 0.03000000 -0.01503434 0.00693307
v 0.02575222 -0.01434040 0.00531057
v 0.03421051 -0.01860224 0.00494975
v 0.03424778 -0.01434040 0.00531057
v 0.02588550 -0.01118266 0.00297728
v 0.03000000 -0.01004544 0.00368012
v 0.03000000 -0.00900000 0.00000000
v 0.02600124 -0.01045146 -0.00149116
v 0.03411450 -0.01118266 0.00297728
v 0.03399876 -0.01045146 -0.00149116
v 0.02588550 -0.02081734 -0.00297728
v 0.03000000 -0.02195456 -0.00368012
v 0.03000000 -0.02300000 0.00000000
v 0.02600124 -0.02154855 0.00149116
v 0.03411450 -0.02081734 -0.00297728
v 0.03399876 -0.02154855 0.00149116
v 0.03109504 -0.02188125 0.00363481
v 0.02890496 -0.01011876 -0.00363481
v 0.02404544 -0.01231988 0.00000000
v 0.03595456 -0.01231988 0.00000000
v 0.03595456 -0.01968012 0.00000000
v 0.02404544 -0.01968012 0.00000000
v 0.02850884 -0.01200124 0.00554854
v 0.03149116 -0.01999876 -0.00554854
v 0.02404544 -0.01600000 -0.00368012
v 0.02300000 -0.01600000 0.00000000
v 0.02404544 -0.01600000 0.00368012
v 0.03595456 -0.01600000 -0.00368012
v 0.03700000 -0.01600000 0.00000000
v 0.03595456 -0.01600000 0.00368012
v 0.03149116 -0.01200124 0.00554854
v 0.02850884 -0.01999876 -0.00554854
v 0.03260224 -0.01105025 -0.00421051
v 0.02739776 -0.02094975 0.00421051
f 500 489 492
f 500 492 515
f 475 476 477
f 475 477 478
f 479 480 477
f 479 477 476
f 481 482 483
f 481 483 484
f 485 486 483
f 485 483 482
f 487 488 489
f 487 489 490
f 491 492 489
f 491 489 488
f 493 494 495
f 493 495 496
f 497 498 495
f 497 495 494
f 499 495 498
f 499 498 485
f 499 485 482
f 500 490 489
f 500 476 475
f 500 475 490
f 501 487 490
f 501 490 475
f 502 492 491
f 502 479 492
f 503 498 497
f 503 485 498
f 504 493 496
f 504 496 481
f 505 484 483
f 505 488 487
f 505 487 484
f 506 477 480
f 506 480 497
f 506 497 494
f 507 508 501
f 507 501 475
f 507 475 478
f 507 478 493
f 507 493 504
f 507 504 508
f 509 508 504
f 509 504 481
f 509 481 484
f 509 484 487
f 509 487 501
f 509 501 508
f 510 480 479
f 510 479 502
f 510 502 511
f 510 511 503
f 510 503 497
f 510 497 480
f 512 486 485
f 512 485 503
f 512 503 511
f 512 511 502
f 512 502 491
f 512 491 486
f 513 488 505
f 513 505 483
f 513 483 486
f 513 486 491
f 513 491 488
f 514 478 477
f 514 477 506
f 514 506 494
f 514 494 493
f 514 493 478
f 515 492 479
f 515 479 476
f 515 476 500
f 516 482 481
f 516 481 496
f 516 496 495
f 516 495 499
f 516 499 482

o geometry_14
v 0.02631988 -0.01004544 0.00000000
v 0.03368012 -0.01004544 0.00000000
v 0.02631988 -0.02195456 0.00000000
v 0.03368012 -0.02195456 0.00000000
v 0.03000000 -0.01968012 0.00595456
v 0.03000000 -0.01231988 0.00595456
v 0.03000000 -0.01968012 -0.00595456
v 0.03000000 -0.01231988 -0.00595456
v 0.03595456 -0.01600000 -0.00368012
v 0.03595456 -0.01600000 0.00368012
v 0.02404544 -0.01600000 -0.00368012
v 0.02404544 -0.01600000 0.00368012
v 0.03000000 -0.00900000 0.00000000
v 0.03000000 -0.02300000 0.00000000
v 0.02783688 -0.02166312 0.00350000
v 0.03216312 -0.02166312 0.00350000
v 0.02783688 -0.01033688 0.00350000
v 0.03216312 -0.01033688 0.00350000
v 0.03000000 -0.01600000 0.00700000
v 0.02783688 -0.02166312 -0.00350000
v 0.03216312 -0.02166312 -0.00350000
v 0.02783688 -0.01033688 -0.00350000
v 0.03216312 -0.01033688 -0.00350000
v 0.03000000 -0.01600000 -0.00700000
v 0.03566312 -0.01250000 -0.00216312
v 0.03566312 -0.01950000 -0.00216312
v 0.03350000 -0.01816312 -0.00566312
v 0.03350000 -0.01383688 -0.00566312
v 0.03566312 -0.01250000 0.00216312
v 0.03566312 -0.01950000 0.00216312
v 0.03350000 -0.01816312 0.00566312
v 0.03350000 -0.01383688 0.00566312
v 0.03700000 -0.01600000 0.00000000
v 0.02433688 -0.01250000 -0.00216312
v 0.02433688 -0.01950000 -0.00216312
v 0.02650000 -0.01816312 -0.00566312
v 0.02650000 -0.01383688 -0.00566312
v 0.02433688 -0.01250000 0.00216312
v 0.02433688 -0.01950000 0.00216312
v 0.02650000 -0.01816312 0.00566312
v 0.02650000 -0.01383688 0.00566312
v 0.02300000 -0.01600000 0.00000000
v 0.02808713 -0.00926643 0.00000000
v 0.03191287 -0.00926643 0.00000000
v 0.02808713 -0.02273357 0.00000000
v 0.03191287 -0.02273357 0.00000000
v 0.02696278 -0.02203868 0.00181924
v 0.02887565 -0.02085646 0.00491433
v 0.02886278 -0.02265740 0.00184006
v 0.03303722 -0.02203868 0.00181924
v 0.03112435 -0.02085646 0.00491433
v 0.03113722 -0.02265740 0.00184006
v 0.03000000 -0.02195456 0.00368012
v 0.02696278 -0.00996132 0.00181924
v 0.02887565 -0.01114354 0.00491433
v 0.02886278 -0.00934260 0.00184006
v 0.03303722 -0.00996132 0.00181924
v 0.03112435 -0.01114354 0.00491433
v 0.03113722 -0.00934260 0.00184006
v 0.03000000 -0.01004544 0.00368012
v 0.03000000 -0.01791287 0.00673357
v 0.03000000 -0.01408713 0.00673357
v 0.02696278 -0.02203868 -0.00181924
v 0.02887565 -0.02085646 -0.00491433
v 0.02886278 -0.02265740 -0.00184006
v 0.03303722 -0.02203868 -0.00181924
v 0.03112435 -0.02085646 -0.00491433
v 0.03113722 -0.02265740 -0.00184006
v 0.03000000 -0.02195456 -0.00368012
v 0.02696278 -0.00996132 -0.00181924
v 0.02887565 -0.01114354 -0.00491433
v 0.02886278 -0.00934260 -0.00184006
v 0.03303722 -0.00996132 -0.00181924
v 0.03112435 -0.01114354 -0.00491433
v 0.03113722 -0.00934260 -0.00184006
v 0.03000000 -0.01004544 -0.00368012
v 0.03000000 -0.01791287 -0.00673357
v 0.03000000 -0.01408713 -0.00673357
v 0.03485646 -0.01108568 -0.00112435
v 0.03603868 -0.01418076 -0.00303722
v 0.03411450 -0.01118266 -0.00297728
v 0.03485646 -0.02091433 -0.00112435
v 0.03603868 -0.01781924 -0.00303722
v 0.03411450 -0.02081734 -0.00297728
v 0.03181924 -0.01903722 -0.00603868
v 0.03491432 -0.01712436 -0.00485646
v 0.03297728 -0.02011450 -0.00481734
v 0.03184006 -0.01713722 -0.00665740
v 0.03481734 -0.01897728 -0.00411450
v 0.03181924 -0.01296278 -0.00603868
v 0.03491432 -0.01487565 -0.00485646
v 0.03297728 -0.01188550 -0.00481734
v 0.03184006 -0.01486278 -0.00665740
v 0.03481734 -0.01302272 -0.00411450
v 0.03368012 -0.01600000 -0.00595456
v 0.03485646 -0.01108568 0.00112435
v 0.03603868 -0.01418076 0.00303722
v 0.03411450 -0.01118266 0.00297728
v 0.03595456 -0.01231988 0.00000000
v 0.03485646 -0.02091433 0.00112435
v 0.03603868 -0.01781924 0.00303722
v 0.03411450 -0.02081734 0.00297728
v 0.03595456 -0.01968012 0.00000000
v 0.03181924 -0.01903722 0.00603868
v 0.03491432 -0.01712436 0.00485646
v 0.03297728 -0.02011450 0.00481734
v 0.03184006 -0.01713722 0.00665740
v 0.03481734 -0.01897728 0.00411450
v 0.03181924 -0.01296278 0.00603868
v 0.03491432 -0.01487565 0.00485646
v 0.03297728 -0.01188550 0.00481734
v 0.03184006 -0.01486278 0.00665740
v 0.03481734 -0.01302272 0.00411450
v 0.03368012 -0.01600000 0.00595456
v 0.03673357 -0.01600000 -0.00191287
v 0.03673357 -0.01600000 0.00191287
v 0.03665740 -0.01415994 -0.00113722
v 0.03665740 -0.01784006 -0.00113722
v 0.03665740 -0.01415994 0.00113722
v 0.03665740 -0.01784006 0.00113722
v 0.02514354 -0.01108568 -0.00112435
v 0.02396132 -0.01418076 -0.00303722
v 0.02588550 -0.01118266 -0.00297728
v 0.02514354 -0.02091433 -0.00112435
v 0.02396132 -0.01781924 -0.00303722
v 0.02588550 -0.02081734 -0.00297728
v 0.02818076 -0.01903722 -0.00603868
v 0.02508567 -0.01712436 -0.00485646
v 0.02702272 -0.02011450 -0.00481734
v 0.02815994 -0.01713722 -0.00665740
v 0.02518266 -0.01897728 -0.00411450
v 0.02818076 -0.01296278 -0.00603868
v 0.02508567 -0.01487565 -0.00485646
v 0.02702272 -0.01188550 -0.00481734
v 0.02815994 -0.01486278 -0.00665740
v 0.02518266 -0.01302272 -0.00411450
v 0.02631988 -0.01600000 -0.00595456
v 0.02514354 -0.01108568 0.00112435
v 0.02396132 -0.01418076 0.00303722
v 0.02588550 -0.01118266 0.00297728
v 0.02404544 -0.01231988 0.00000000
v 0.02514354 -0.02091433 0.00112435
v 0.02396132 -0.01781924 0.00303722
v 0.02588550 -0.02081734 0.00297728
v 0.02404544 -0.01968012 0.00000000
v 0.02818076 -0.01903722 0.00603868
v 0.02508567 -0.01712436 0.00485646
v 0.02702272 -0.02011450 0.00481734
v 0.02815994 -0.01713722 0.00665740
v 0.02518266 -0.01897728 0.00411450
v 0.02818076 -0.01296278 0.00603868
v 0.02508567 -0.01487565 0.00485646
v 0.02702272 -0.01188550 0.00481734
v 0.02815994 -0.01486278 0.00665740
v 0.02518266 -0.01302272 0.00411450
v 0.02631988 -0.01600000 0.00595456
v 0.02326643 -0.01600000 -0.00191287
v 0.02326643 -0.01600000 0.00191287
v 0.02334260 -0.01415994 -0.00113722
v 0.02334260 -0.01784006 -0.00113722
v 0.02334260 -0.01415994 0.00113722
v 0.02334260 -0.01784006 0.00113722
v 0.02717651 -0.00959470 0.00000000
v 0.02903433 -0.00906693 0.00000000
v 0.03282349 -0.00959470 0.00000000
v 0.03096567 -0.00906693 0.00000000
v 0.02717651 -0.02240530 0.00000000
v 0.02903433 -0.02293307 0.00000000
v 0.03282349 -0.02240530 0.00000000
v 0.03096567 -0.02293307 0.00000000
v 0.02660891 -0.02205451 0.00091840
v 0.02737473 -0.02190738 0.00268530
v 0.02749240 -0.02247013 0.00092159
v 0.02943240 -0.02030950 0.00548690
v 0.02834040 -0.02131057 0.00424778
v 0.02942430 -0.02291382 0.00093150
v 0.02832926 -0.02223705 0.00270331
v 0.02845918 -0.02276475 0.00092955
v 0.02789119 -0.02241371 0.00184858
v 0.03339109 -0.02205451 0.00091840
v 0.03262527 -0.02190738 0.00268530
v 0.03250760 -0.02247013 0.00092159
v 0.03056760 -0.02030950 0.00548690
v 0.03165960 -0.02131057 0.00424778
v 0.03000000 -0.02092035 0.00497897
v 0.03057570 -0.02291382 0.00093150
v 0.03167074 -0.02223705 0.00270331
v 0.03154082 -0.02276475 0.00092955
v 0.03000000 -0.02274703 0.00186483
v 0.03210881 -0.02241371 0.00184858
v 0.02890496 -0.02188125 0.00363481
v 0.03109504 -0.02188125 0.00363481
v 0.02943201 -0.02146143 0.00434168
v 0.02942373 -0.02239088 0.00279725
v 0.03056799 -0.02146143 0.00434168
v 0.03057626 -0.02239088 0.00279725
v 0.02660891 -0.00994550 0.00091840
v 0.02737473 -0.01009262 0.00268530
v 0.02749240 -0.00952987 0.00092159
v 0.02943240 -0.01169051 0.00548690
v 0.02834040 -0.01068943 0.00424778
v 0.02942430 -0.00908618 0.00093150
v 0.02832926 -0.00976295 0.00270331
v 0.02845918 -0.00923525 0.00092955
v 0.02789119 -0.00958629 0.00184858
v 0.03339109 -0.00994550 0.00091840
v 0.03262527 -0.01009262 0.00268530
v 0.03250760 -0.00952987 0.00092159
v 0.03056760 -0.01169051 0.00548690
v 0.03165960 -0.01068943 0.00424778
v 0.03000000 -0.01107965 0.00497897
v 0.03057570 -0.00908618 0.00093150
v 0.03167074 -0.00976295 0.00270331
v 0.03154082 -0.00923525 0.00092955
v 0.03000000 -0.00925297 0.00186483
v 0.03210881 -0.00958629 0.00184858
v 0.02890496 -0.01011876 0.00363481
v 0.03109504 -0.01011876 0.00363481
v 0.02943201 -0.01053857 0.00434168
v 0.02942373 -0.00960912 0.00279725
v 0.03056799 -0.01053857 0.00434168
v 0.03057626 -0.00960912 0.00279725
v 0.03000000 -0.01882349 0.00640530
v 0.03000000 -0.01696567 0.00693307
v 0.03000000 -0.01317651 0.00640530
v 0.03000000 -0.01503434 0.00693307
v 0.02660891 -0.02205451 -0.00091840
v 0.02737473 -0.02190738 -0.00268530
v 0.02749240 -0.02247013 -0.00092159
v 0.02943240 -0.02030950 -0.00548690
v 0.02834040 -0.02131057 -0.00424778
v 0.02942430 -0.02291382 -0.00093150
v 0.02832926 -0.02223705 -0.00270331
v 0.02845918 -0.02276475 -0.00092955
v 0.02789119 -0.02241371 -0.00184858
v 0.03339109 -0.02205451 -0.00091840
v 0.03262527 -0.02190738 -0.00268530
v 0.03250760 -0.02247013 -0.00092159
v 0.03056760 -0.02030950 -0.00548690
v 0.03165960 -0.02131057 -0.00424778
v 0.03000000 -0.02092035 -0.00497897
v 0.03057570 -0.02291382 -0.00093150
v 0.03167074 -0.02223705 -0.00270331
v 0.03154082 -0.02276475 -0.00092955
v 0.03000000 -0.02274703 -0.00186483
v 0.03210881 -0.02241371 -0.00184858
v 0.02890496 -0.02188125 -0.00363481
v 0.03109504 -0.02188125 -0.00363481
v 0.02943201 -0.02146143 -0.00434168
v 0.02942373 -0.02239088 -0.00279725
v 0.03056799 -0.02146143 -0.00434168
v 0.03057626 -0.02239088 -0.00279725
v 0.02660891 -0.00994550 -0.00091840
v 0.02737473 -0.01009262 -0.00268530
v 0.02749240 -0.00952987 -0.00092159
v 0.02943240 -0.01169051 -0.00548690
v 0.02834040 -0.01068943 -0.00424778
v 0.02942430 -0.00908618 -0.00093150
v 0.02832926 -0.00976295 -0.00270331
v 0.02845918 -0.00923525 -0.00092955
v 0.02789119 -0.00958629 -0.00184858
v 0.03339109 -0.00994550 -0.00091840
v 0.03262527 -0.01009262 -0.00268530
v 0.03250760 -0.00952987 -0.00092159
v 0.03056760 -0.01169051 -0.00548690
v 0.03165960 -0.01068943 -0.00424778
v 0.03000000 -0.01107965 -0.00497897
v 0.03057570 -0.00908618 -0.00093150
v 0.03167074 -0.00976295 -0.00270331
v 0.03154082 -0.00923525 -0.00092955
v 0.03000000 -0.00925297 -0.00186483
v 0.03210881 -0.00958629 -0.00184858
v 0.02890496 -0.01011876 -0.00363481
v 0.03109504 -0.01011876 -0.00363481
v 0.02943201 -0.01053857 -0.00434168
v 0.02942373 -0.00960912 -0.00279725
v 0.03056799 -0.01053857 -0.00434168
v 0.03057626 -0.00960912 -0.00279725
v 0.03000000 -0.01882349 -0.00640530
v 0.03000000 -0.01696567 -0.00693307
v 0.03000000 -0.01317651 -0.00640530
v 0.03000000 -0.01503434 -0.00693307
v 0.03430949 -0.01051310 -0.00056760
v 0.03531057 -0.01175222 -0.00165960
v 0.03399876 -0.01045146 -0.00149116
v 0.03605450 -0.01508160 -0.00339109
v 0.03590738 -0.01331470 -0.00262527
v 0.03317793 -0.01069445 -0.00327901
v 0.03494975 -0.01178949 -0.00260224
v 0.03361285 -0.01051584 -0.00242307
v 0.03453188 -0.01108383 -0.00207203
v 0.03430949 -0.02148690 -0.00056760
v 0.03531057 -0.02024778 -0.00165960
v 0.03399876 -0.02154855 -0.00149116
v 0.03605450 -0.01691840 -0.00339109
v 0.03590738 -0.01868530 -0.00262527
v 0.03317793 -0.02130555 -0.00327901
v 0.03494975 -0.02021051 -0.00260224
v 0.03361285 -0.02148416 -0.00242307
v 0.03453188 -0.02091617 -0.00207203
v 0.03091840 -0.01939109 -0.00605451
v 0.03268530 -0.01862527 -0.00590738
v 0.03149116 -0.01999876 -0.00554854
v 0.03092159 -0.01850760 -0.00647013
v 0.03548690 -0.01656760 -0.00430949
v 0.03424778 -0.01765961 -0.00531057
v 0.03554854 -0.01749116 -0.00399876
v 0.03260224 -0.02094975 -0.00421051
v 0.03327901 -0.01917793 -0.00530555
v 0.03207203 -0.02053188 -0.00491617
v 0.03359363 -0.02052605 -0.00394978
v 0.03242307 -0.01961285 -0.00548416
v 0.03093150 -0.01657570 -0.00691382
v 0.03270331 -0.01767074 -0.00623705
v 0.03092955 -0.01754082 -0.00676475
v 0.03184858 -0.01810881 -0.00641371
v 0.03530555 -0.01927901 -0.00317793
v 0.03421051 -0.01860224 -0.00494975
v 0.03548416 -0.01842307 -0.00361285
v 0.03452604 -0.01994978 -0.00359363
v 0.03491617 -0.01807203 -0.00453188
v 0.03394978 -0.01959363 -0.00452604
v 0.03091840 -0.01260891 -0.00605451
v 0.03268530 -0.01337473 -0.00590738
v 0.03149116 -0.01200124 -0.00554854
v 0.03092159 -0.01349240 -0.00647013
v 0.03548690 -0.01543240 -0.00430949
v 0.03424778 -0.01434040 -0.00531057
v 0.03554854 -0.01450884 -0.00399876
v 0.03497897 -0.01600000 -0.00492035
v 0.03260224 -0.01105025 -0.00421051
v 0.03327901 -0.01282207 -0.00530555
v 0.03207203 -0.01146812 -0.00491617
v 0.03359363 -0.01147396 -0.00394978
v 0.03242307 -0.01238715 -0.00548416
v 0.03093150 -0.01542430 -0.00691382
v 0.03270331 -0.01432926 -0.00623705
v 0.03092955 -0.01445918 -0.00676475
v 0.03186483 -0.01600000 -0.00674703
v 0.03184858 -0.01389119 -0.00641371
v 0.03530555 -0.01272099 -0.00317793
v 0.03421051 -0.01339776 -0.00494975
v 0.03548416 -0.01357693 -0.00361285
v 0.03452604 -0.01205022 -0.00359363
v 0.03491617 -0.01392797 -0.00453188
v 0.03394978 -0.01240637 -0.00452604
v 0.03363481 -0.01709504 -0.00588125
v 0.03363481 -0.01490496 -0.00588125
v 0.03434168 -0.01656799 -0.00546143
v 0.03279725 -0.01657627 -0.00639088
v 0.03434168 -0.01543201 -0.00546143
v 0.03279725 -0.01542374 -0.00639088
v 0.03430949 -0.01051310 0.00056760
v 0.03531057 -0.01175222 0.00165960
v 0.03399876 -0.01045146 0.00149116
v 0.03492035 -0.01102103 0.00000000
v 0.03605450 -0.01508160 0.00339109
v 0.03590738 -0.01331470 0.00262527
v 0.03317793 -0.01069445 0.00327901
v 0.03494975 -0.01178949 0.00260224
v 0.03361285 -0.01051584 0.00242307
v 0.03453188 -0.01108383 0.00207203
v 0.03588124 -0.01236519 -0.00109504
v 0.03588124 -0.01236519 0.00109504
v 0.03546143 -0.01165832 -0.00056799
v 0.03546143 -0.01165832 0.00056799
v 0.03430949 -0.02148690 0.00056760
v 0.03531057 -0.02024778 0.00165960
v 0.03399876 -0.02154855 0.00149116
v 0.03492035 -0.02097897 0.00000000
v 0.03605450 -0.01691840 0.00339109
v 0.03590738 -0.01868530 0.00262527
v 0.03317793 -0.02130555 0.00327901
v 0.03494975 -0.02021051 0.00260224
v 0.03361285 -0.02148416 0.00242307
v 0.03453188 -0.02091617 0.00207203
v 0.03588124 -0.01963481 -0.00109504
v 0.03588124 -0.01963481 0.00109504
v 0.03546143 -0.02034168 -0.00056799
v 0.03546143 -0.02034168 0.00056799
v 0.03091840 -0.01939109 0.00605451
v 0.03268530 -0.01862527 0.00590738
v 0.03149116 -0.01999876 0.00554854
v 0.03092159 -0.01850760 0.00647013
v 0.03548690 -0.01656760 0.00430949
v 0.03424778 -0.01765961 0.00531057
v 0.03554854 -0.01749116 0.00399876
v 0.03260224 -0.02094975 0.00421051
v 0.03327901 -0.01917793 0.00530555
v 0.03207203 -0.02053188 0.00491617
v 0.03359363 -0.02052605 0.00394978
v 0.03242307 -0.01961285 0.00548416
v 0.03093150 -0.01657570 0.00691382
v 0.03270331 -0.01767074 0.00623705
v 0.03092955 -0.01754082 0.00676475
v 0.03184858 -0.01810881 0.00641371
v 0.03530555 -0.01927901 0.00317793
v 0.03421051 -0.01860224 0.00494975
v 0.03548416 -0.01842307 0.00361285
v 0.03452604 -0.01994978 0.00359363
v 0.03491617 -0.01807203 0.00453188
v 0.03394978 -0.01959363 0.00452604
v 0.03091840 -0.01260891 0.00605451
v 0.03268530 -0.01337473 0.00590738
v 0.03149116 -0.01200124 0.00554854
v 0.03092159 -0.01349240 0.00647013
v 0.03548690 -0.01543240 0.00430949
v 0.03424778 -0.01434040 0.00531057
v 0.03554854 -0.01450884 0.00399876
v 0.03497897 -0.01600000 0.00492035
v 0.03260224 -0.01105025 0.00421051
v 0.03327901 -0.01282207 0.00530555
v 0.03207203 -0.01146812 0.00491617
v 0.03359363 -0.01147396 0.00394978
v 0.03242307 -0.01238715 0.00548416
v 0.03093150 -0.01542430 0.00691382
v 0.03270331 -0.01432926 0.00623705
v 0.03092955 -0.01445918 0.00676475
v 0.03186483 -0.01600000 0.00674703
v 0.03184858 -0.01389119 0.00641371
v 0.03530555 -0.01272099 0.00317793
v 0.03421051 -0.01339776 0.00494975
v 0.03548416 -0.01357693 0.00361285
v 0.03452604 -0.01205022 0.00359363
v 0.03491617 -0.01392797 0.00453188
v 0.03394978 -0.01240637 0.00452604
v 0.03363481 -0.01709504 0.00588125
v 0.03363481 -0.01490496 0.00588125
v 0.03434168 -0.01656799 0.00546143
v 0.03279725 -0.01657627 0.00639088
v 0.03434168 -0.01543201 0.00546143
v 0.03279725 -0.01542374 0.00639088
v 0.03640530 -0.01600000 -0.00282349
v 0.03693307 -0.01600000 -0.00096567
v 0.03647013 -0.01507841 -0.00250760
v 0.03647013 -0.01692159 -0.00250760
v 0.03640530 -0.01600000 0.00282349
v 0.03693307 -0.01600000 0.00096567
v 0.03647013 -0.01507841 0.00250760
v 0.03647013 -0.01692159 0.00250760
v 0.03623705 -0.01329669 -0.00167074
v 0.03691382 -0.01506850 -0.00057570
v 0.03641371 -0.01415142 -0.00210881
v 0.03639088 -0.01320275 -0.00057627
v 0.03676475 -0.01507045 -0.00154082
v 0.03623705 -0.01870331 -0.00167074
v 0.03691382 -0.01693150 -0.00057570
v 0.03641371 -0.01784858 -0.00210881
v 0.03639088 -0.01879725 -0.00057627
v 0.03676475 -0.01692955 -0.00154082
v 0.03623705 -0.01329669 0.00167074
v 0.03691382 -0.01506850 0.00057570
v 0.03641371 -0.01415142 0.00210881
v 0.03639088 -0.01320275 0.00057627
v 0.03676475 -0.01507045 0.00154082
v 0.03674703 -0.01413517 0.00000000
v 0.03623705 -0.01870331 0.00167074
v 0.03691382 -0.01693150 0.00057570
v 0.03641371 -0.01784858 0.00210881
v 0.03639088 -0.01879725 0.00057627
v 0.03676475 -0.01692955 0.00154082
v 0.03674703 -0.01786483 0.00000000
v 0.02569051 -0.01051310 -0.00056760
v 0.02468943 -0.01175222 -0.00165960
v 0.02600124 -0.01045146 -0.00149116
v 0.02394549 -0.01508160 -0.00339109
v 0.02409262 -0.01331470 -0.00262527
v 0.02682207 -0.01069445 -0.00327901
v 0.02505025 -0.01178949 -0.00260224
v 0.02638715 -0.01051584 -0.00242307
v 0.02546812 -0.01108383 -0.00207203
v 0.02569051 -0.02148690 -0.00056760
v 0.02468943 -0.02024778 -0.00165960
v 0.02600124 -0.02154855 -0.00149116
v 0.02394549 -0.01691840 -0.00339109
v 0.02409262 -0.01868530 -0.00262527
v 0.02682207 -0.02130555 -0.00327901
v 0.02505025 -0.02021051 -0.00260224
v 0.02638715 -0.02148416 -0.00242307
v 0.02546812 -0.02091617 -0.00207203
v 0.02908160 -0.01939109 -0.00605451
v 0.02731470 -0.01862527 -0.00590738
v 0.02850884 -0.01999876 -0.00554854
v 0.02907841 -0.01850760 -0.00647013
v 0.02451310 -0.01656760 -0.00430949
v 0.02575222 -0.01765961 -0.00531057
v 0.02445145 -0.01749116 -0.00399876
v 0.02739776 -0.02094975 -0.00421051
v 0.02672099 -0.01917793 -0.00530555
v 0.02792797 -0.02053188 -0.00491617
v 0.02640637 -0.02052605 -0.00394978
v 0.02757693 -0.01961285 -0.00548416
v 0.02906850 -0.01657570 -0.00691382
v 0.02729669 -0.01767074 -0.00623705
v 0.02907045 -0.01754082 -0.00676475
v 0.02815142 -0.01810881 -0.00641371
v 0.02469445 -0.01927901 -0.00317793
v 0.02578949 -0.01860224 -0.00494975
v 0.02451584 -0.01842307 -0.00361285
v 0.02547395 -0.01994978 -0.00359363
v 0.02508383 -0.01807203 -0.00453188
v 0.02605022 -0.01959363 -0.00452604
v 0.02908160 -0.01260891 -0.00605451
v 0.02731470 -0.01337473 -0.00590738
v 0.02850884 -0.01200124 -0.00554854
v 0.02907841 -0.01349240 -0.00647013
v 0.02451310 -0.01543240 -0.00430949
v 0.02575222 -0.01434040 -0.00531057
v 0.02445145 -0.01450884 -0.00399876
v 0.02502103 -0.01600000 -0.00492035
v 0.02739776 -0.01105025 -0.00421051
v 0.02672099 -0.01282207 -0.00530555
v 0.02792797 -0.01146812 -0.00491617
v 0.02640637 -0.01147396 -0.00394978
v 0.02757693 -0.01238715 -0.00548416
v 0.02906850 -0.01542430 -0.00691382
v 0.02729669 -0.01432926 -0.00623705
v 0.02907045 -0.01445918 -0.00676475
v 0.02813517 -0.01600000 -0.00674703
v 0.02815142 -0.01389119 -0.00641371
v 0.02469445 -0.01272099 -0.00317793
v 0.02578949 -0.01339776 -0.00494975
v 0.02451584 -0.01357693 -0.00361285
v 0.02547395 -0.01205022 -0.00359363
v 0.02508383 -0.01392797 -0.00453188
v 0.02605022 -0.01240637 -0.00452604
v 0.02636519 -0.01709504 -0.00588125
v 0.02636519 -0.01490496 -0.00588125
v 0.02565832 -0.01656799 -0.00546143
v 0.02720275 -0.01657627 -0.00639088
v 0.02565832 -0.01543201 -0.00546143
v 0.02720275 -0.01542374 -0.00639088
v 0.02569051 -0.01051310 0.00056760
v 0.02468943 -0.01175222 0.00165960
v 0.02600124 -0.01045146 0.00149116
v 0.02507965 -0.01102103 0.00000000
v 0.02394549 -0.01508160 0.00339109
v 0.02409262 -0.01331470 0.00262527
v 0.02682207 -0.01069445 0.00327901
v 0.02505025 -0.01178949 0.00260224
v 0.02638715 -0.01051584 0.00242307
v 0.02546812 -0.01108383 0.00207203
v 0.02411875 -0.01236519 -0.00109504
v 0.02411875 -0.01236519 0.00109504
v 0.02453857 -0.01165832 -0.00056799
v 0.02453857 -0.01165832 0.00056799
v 0.02569051 -0.02148690 0.00056760
v 0.02468943 -0.02024778 0.00165960
v 0.02600124 -0.02154855 0.00149116
v 0.02507965 -0.02097897 0.00000000
v 0.02394549 -0.01691840 0.00339109
v 0.02409262 -0.01868530 0.00262527
v 0.02682207 -0.02130555 0.00327901
v 0.02505025 -0.02021051 0.00260224
v 0.02638715 -0.02148416 0.00242307
v 0.02546812 -0.02091617 0.00207203
v 0.02411875 -0.01963481 -0.00109504
v 0.02411875 -0.01963481 0.00109504
v 0.02453857 -0.02034168 -0.00056799
v 0.02453857 -0.02034168 0.00056799
v 0.02908160 -0.01939109 0.00605451
v 0.02731470 -0.01862527 0.00590738
v 0.02850884 -0.01999876 0.00554854
v 0.02907841 -0.01850760 0.00647013
v 0.02451310 -0.01656760 0.00430949
v 0.02575222 -0.01765961 0.00531057
v 0.02445145 -0.01749116 0.00399876
v 0.02739776 -0.02094975 0.00421051
v 0.02672099 -0.01917793 0.00530555
v 0.02792797 -0.02053188 0.00491617
v 0.02640637 -0.02052605 0.00394978
v 0.02757693 -0.01961285 0.00548416
v 0.02906850 -0.01657570 0.00691382
v 0.02729669 -0.01767074 0.00623705
v 0.02907045 -0.01754082 0.00676475
v 0.02815142 -0.01810881 0.00641371
v 0.02469445 -0.01927901 0.00317793
v 0.02578949 -0.01860224 0.00494975
v 0.02451584 -0.01842307 0.00361285
v 0.02547395 -0.01994978 0.00359363
v 0.02508383 -0.01807203 0.00453188
v 0.02605022 -0.01959363 0.00452604
v 0.02908160 -0.01260891 0.00605451
v 0.02731470 -0.01337473 0.00590738
v 0.02850884 -0.01200124 0.00554854
v 0.02907841 -0.01349240 0.00647013
v 0.02451310 -0.01543240 0.00430949
v 0.02575222 -0.01434040 0.00531057
v 0.02445145 -0.01450884 0.00399876
v 0.02502103 -0.01600000 0.00492035
v 0.02739776 -0.01105025 0.00421051
v 0.02672099 -0.01282207 0.00530555
v 0.02792797 -0.01146812 0.00491617
v 0.02640637 -0.01147396 0.00394978
v 0.02757693 -0.01238715 0.00548416
v 0.02906850 -0.01542430 0.00691382
v 0.02729669 -0.01432926 0.00623705
v 0.02907045 -0.01445918 0.00676475
v 0.02813517 -0.01600000 0.00674703
v 0.02815142 -0.01389119 0.00641371
v 0.02469445 -0.01272099 0.00317793
v 0.02578949 -0.01339776 0.00494975
v 0.02451584 -0.01357693 0.00361285
v 0.02547395 -0.01205022 0.00359363
v 0.02508383 -0.01392797 0.00453188
v 0.02605022 -0.01240637 0.00452604
v 0.02636519 -0.01709504 0.00588125
v 0.02636519 -0.01490496 0.00588125
v 0.02565832 -0.01656799 0.00546143
v 0.02720275 -0.01657627 0.00639088
v 0.02565832 -0.01543201 0.00546143
v 0.02720275 -0.01542374 0.00639088
v 0.02359470 -0.01600000 -0.00282349
v 0.02306693 -0.01600000 -0.00096567
v 0.02352987 -0.01507841 -0.00250760
v 0.02352987 -0.01692159 -0.00250760
v 0.02359470 -0.01600000 0.00282349
v 0.02306693 -0.01600000 0.00096567
v 0.02352987 -0.01507841 0.00250760
v 0.02352987 -0.01692159 0.00250760
v 0.02376295 -0.01329669 -0.00167074
v 0.02308618 -0.01506850 -0.00057570
v 0.02358629 -0.01415142 -0.00210881
v 0.02360912 -0.01320275 -0.00057627
v 0.02323525 -0.01507045 -0.00154082
v 0.02376295 -0.01870331 -0.00167074
v 0.02308618 -0.01693150 -0.00057570
v 0.02358629 -0.01784858 -0.00210881
v 0.02360912 -0.01879725 -0.00057627
v 0.02323525 -0.01692955 -0.00154082
v 0.02376295 -0.01329669 0.00167074
v 0.02308618 -0.01506850 0.00057570
v 0.02358629 -0.01415142 0.00210881
v 0.02360912 -0.01320275 0.00057627
v 0.02323525 -0.01507045 0.00154082
v 0.02325297 -0.01413517 0.00000000
v 0.02376295 -0.01870331 0.00167074
v 0.02308618 -0.01693150 0.00057570
v 0.02358629 -0.01784858 0.00210881
v 0.02360912 -0.01879725 0.00057627
v 0.02323525 -0.01692955 0.00154082
v 0.02325297 -0.01786483 0.00000000
f 517 1049 713
f 1049 654 1051
f 713 1051 570
f 1049 1051 713
f 654 1050 1058
f 1050 554 1056
f 1058 1056 656
f 1050 1056 1058
f 570 1057 714
f 1057 656 1055
f 714 1055 533
f 1057 1055 714
f 654 1058 1051
f 1058 656 1057
f 1051 1057 570
f 1058 1057 1051
f 554 1054 1117
f 1054 655 1119
f 1117 1119 671
f 1054 1119 1117
f 655 1053 1105
f 1053 528 1103
f 1105 1103 668
f 1053 1103 1105
f 671 1121 1118
f 1121 668 1104
f 1118 1104 557
f 1121 1104 1118
f 655 1105 1119
f 1105 668 1121
f 1119 1121 671
f 1105 1121 1119
f 533 1107 717
f 1107 669 1109
f 717 1109 571
f 1107 1109 717
f 669 1108 1111
f 1108 557 1100
f 1111 1100 667
f 1108 1100 1111
f 571 1101 716
f 1101 667 1099
f 716 1099 522
f 1101 1099 716
f 669 1111 1109
f 1111 667 1101
f 1109 1101 571
f 1111 1101 1109
f 554 1117 1056
f 1117 671 1120
f 1056 1120 656
f 1117 1120 1056
f 671 1118 1122
f 1118 557 1108
f 1122 1108 669
f 1118 1108 1122
f 656 1110 1055
f 1110 669 1107
f 1055 1107 533
f 1110 1107 1055
f 671 1122 1120
f 1122 669 1110
f 1120 1110 656
f 1122 1110 1120
f 517 713 679
f 713 570 715
f 679 715 559
f 713 715 679
f 570 714 721
f 714 533 719
f 721 719 572
f 714 719 721
f 559 720 680
f 720 572 718
f 680 718 529
f 720 718 680
f 570 721 715
f 721 572 720
f 715 720 559
f 721 720 715
f 533 717 733
f 717 571 735
f 733 735 576
f 717 735 733
f 571 716 727
f 716 522 725
f 727 725 574
f 716 725 727
f 576 737 734
f 737 574 726
f 734 726 534
f 737 726 734
f 571 727 735
f 727 574 737
f 735 737 576
f 727 737 735
f 529 728 682
f 728 575 730
f 682 730 560
f 728 730 682
f 575 729 732
f 729 534 723
f 732 723 573
f 729 723 732
f 560 724 681
f 724 573 722
f 681 722 518
f 724 722 681
f 575 732 730
f 732 573 724
f 730 724 560
f 732 724 730
f 533 733 719
f 733 576 736
f 719 736 572
f 733 736 719
f 576 734 738
f 734 534 729
f 738 729 575
f 734 729 738
f 572 731 718
f 731 575 728
f 718 728 529
f 731 728 718
f 576 738 736
f 738 575 731
f 736 731 572
f 738 731 736
f 517 679 769
f 679 559 771
f 769 771 586
f 679 771 769
f 559 680 776
f 680 529 774
f 776 774 588
f 680 774 776
f 586 777 770
f 777 588 775
f 770 775 538
f 777 775 770
f 559 776 771
f 776 588 777
f 771 777 586
f 776 777 771
f 529 682 784
f 682 560 786
f 784 786 591
f 682 786 784
f 560 681 780
f 681 518 778
f 780 778 589
f 681 778 780
f 591 788 785
f 788 589 779
f 785 779 539
f 788 779 785
f 560 780 786
f 780 589 788
f 786 788 591
f 780 788 786
f 538 789 773
f 789 592 791
f 773 791 587
f 789 791 773
f 592 790 793
f 790 539 782
f 793 782 590
f 790 782 793
f 587 783 772
f 783 590 781
f 772 781 524
f 783 781 772
f 592 793 791
f 793 590 783
f 791 783 587
f 793 783 791
f 529 784 774
f 784 591 787
f 774 787 588
f 784 787 774
f 591 785 794
f 785 539 790
f 794 790 592
f 785 790 794
f 588 792 775
f 792 592 789
f 775 789 538
f 792 789 775
f 591 794 787
f 794 592 792
f 787 792 588
f 794 792 787
f 517 769 979
f 769 586 981
f 979 981 637
f 769 981 979
f 586 770 986
f 770 538 984
f 986 984 639
f 770 984 986
f 637 987 980
f 987 639 985
f 980 985 550
f 987 985 980
f 586 986 981
f 986 639 987
f 981 987 637
f 986 987 981
f 538 773 1027
f 773 587 1029
f 1027 1029 650
f 773 1029 1027
f 587 772 1021
f 772 524 1019
f 1021 1019 648
f 772 1019 1021
f 650 1031 1028
f 1031 648 1020
f 1028 1020 553
f 1031 1020 1028
f 587 1021 1029
f 1021 648 1031
f 1029 1031 650
f 1021 1031 1029
f 550 1037 983
f 1037 652 1039
f 983 1039 638
f 1037 1039 983
f 652 1038 1041
f 1038 553 1024
f 1041 1024 649
f 1038 1024 1041
f 638 1025 982
f 1025 649 1023
f 982 1023 527
f 1025 1023 982
f 652 1041 1039
f 1041 649 1025
f 1039 1025 638
f 1041 1025 1039
f 538 1027 984
f 1027 650 1030
f 984 1030 639
f 1027 1030 984
f 650 1028 1042
f 1028 553 1038
f 1042 1038 652
f 1028 1038 1042
f 639 1040 985
f 1040 652 1037
f 985 1037 550
f 1040 1037 985
f 650 1042 1030
f 1042 652 1040
f 1030 1040 639
f 1042 1040 1030
f 517 979 1049
f 979 637 1052
f 1049 1052 654
f 979 1052 1049
f 637 980 1061
f 980 550 1059
f 1061 1059 657
f 980 1059 1061
f 654 1062 1050
f 1062 657 1060
f 1050 1060 554
f 1062 1060 1050
f 637 1061 1052
f 1061 657 1062
f 1052 1062 654
f 1061 1062 1052
f 550 983 1137
f 983 638 1139
f 1137 1139 675
f 983 1139 1137
f 638 982 1131
f 982 527 1129
f 1131 1129 673
f 982 1129 1131
f 675 1141 1138
f 1141 673 1130
f 1138 1130 558
f 1141 1130 1138
f 638 1131 1139
f 1131 673 1141
f 1139 1141 675
f 1131 1141 1139
f 554 1147 1054
f 1147 677 1149
f 1054 1149 655
f 1147 1149 1054
f 677 1148 1151
f 1148 558 1134
f 1151 1134 674
f 1148 1134 1151
f 655 1135 1053
f 1135 674 1133
f 1053 1133 528
f 1135 1133 1053
f 677 1151 1149
f 1151 674 1135
f 1149 1135 655
f 1151 1135 1149
f 550 1137 1059
f 1137 675 1140
f 1059 1140 657
f 1137 1140 1059
f 675 1138 1152
f 1138 558 1148
f 1152 1148 677
f 1138 1148 1152
f 657 1150 1060
f 1150 677 1147
f 1060 1147 554
f 1150 1147 1060
f 675 1152 1140
f 1152 677 1150
f 1140 1150 657
f 1152 1150 1140
f 518 722 869
f 722 573 871
f 869 871 612
f 722 871 869
f 573 723 877
f 723 534 875
f 877 875 614
f 723 875 877
f 612 878 870
f 878 614 876
f 870 876 545
f 878 876 870
f 573 877 871
f 877 614 878
f 871 878 612
f 877 878 871
f 534 726 927
f 726 574 929
f 927 929 627
f 726 929 927
f 574 725 921
f 725 522 919
f 921 919 625
f 725 919 921
f 627 931 928
f 931 625 920
f 928 920 548
f 931 920 928
f 574 921 929
f 921 625 931
f 929 931 627
f 921 931 929
f 545 937 874
f 937 629 939
f 874 939 613
f 937 939 874
f 629 938 941
f 938 548 924
f 941 924 626
f 938 924 941
f 613 925 873
f 925 626 923
f 873 923 526
f 925 923 873
f 629 941 939
f 941 626 925
f 939 925 613
f 941 925 939
f 534 927 875
f 927 627 930
f 875 930 614
f 927 930 875
f 627 928 942
f 928 548 938
f 942 938 629
f 928 938 942
f 614 940 876
f 940 629 937
f 876 937 545
f 940 937 876
f 627 942 930
f 942 629 940
f 930 940 614
f 942 940 930
f 522 1099 741
f 1099 667 1102
f 741 1102 578
f 1099 1102 741
f 667 1100 1116
f 1100 557 1113
f 1116 1113 670
f 1100 1113 1116
f 578 1114 742
f 1114 670 1112
f 742 1112 535
f 1114 1112 742
f 667 1116 1102
f 1116 670 1114
f 1102 1114 578
f 1116 1114 1102
f 557 1104 1124
f 1104 668 1127
f 1124 1127 672
f 1104 1127 1124
f 668 1103 1106
f 1103 528 1081
f 1106 1081 663
f 1103 1081 1106
f 672 1125 1123
f 1125 663 1082
f 1123 1082 556
f 1125 1082 1123
f 668 1106 1127
f 1106 663 1125
f 1127 1125 672
f 1106 1125 1127
f 535 1089 740
f 1089 665 1091
f 740 1091 577
f 1089 1091 740
f 665 1090 1092
f 1090 556 1078
f 1092 1078 662
f 1090 1078 1092
f 577 1080 739
f 1080 662 1077
f 739 1077 521
f 1080 1077 739
f 665 1092 1091
f 1092 662 1080
f 1091 1080 577
f 1092 1080 1091
f 557 1124 1113
f 1124 672 1128
f 1113 1128 670
f 1124 1128 1113
f 672 1123 1126
f 1123 556 1090
f 1126 1090 665
f 1123 1090 1126
f 670 1115 1112
f 1115 665 1089
f 1112 1089 535
f 1115 1089 1112
f 672 1126 1128
f 1126 665 1115
f 1128 1115 670
f 1126 1115 1128
f 528 1133 1067
f 1133 674 1136
f 1067 1136 659
f 1133 1136 1067
f 674 1134 1157
f 1134 558 1154
f 1157 1154 678
f 1134 1154 1157
f 659 1155 1068
f 1155 678 1153
f 1068 1153 555
f 1155 1153 1068
f 674 1157 1136
f 1157 678 1155
f 1136 1155 659
f 1157 1155 1136
f 558 1130 1143
f 1130 673 1146
f 1143 1146 676
f 1130 1146 1143
f 673 1129 1132
f 1129 527 991
f 1132 991 641
f 1129 991 1132
f 676 1144 1142
f 1144 641 992
f 1142 992 551
f 1144 992 1142
f 673 1132 1146
f 1132 641 1144
f 1146 1144 676
f 1132 1144 1146
f 555 1074 1064
f 1074 661 1076
f 1064 1076 658
f 1074 1076 1064
f 661 1073 1075
f 1073 551 989
f 1075 989 640
f 1073 989 1075
f 658 1066 1063
f 1066 640 988
f 1063 988 519
f 1066 988 1063
f 661 1075 1076
f 1075 640 1066
f 1076 1066 658
f 1075 1066 1076
f 558 1143 1154
f 1143 676 1158
f 1154 1158 678
f 1143 1158 1154
f 676 1142 1145
f 1142 551 1073
f 1145 1073 661
f 1142 1073 1145
f 678 1156 1153
f 1156 661 1074
f 1153 1074 555
f 1156 1074 1153
f 676 1145 1158
f 1145 661 1156
f 1158 1156 678
f 1145 1156 1158
f 527 1023 1001
f 1023 649 1026
f 1001 1026 644
f 1023 1026 1001
f 649 1024 1047
f 1024 553 1044
f 1047 1044 653
f 1024 1044 1047
f 644 1045 1002
f 1045 653 1043
f 1002 1043 552
f 1045 1043 1002
f 649 1047 1026
f 1047 653 1045
f 1026 1045 644
f 1047 1045 1026
f 553 1020 1033
f 1020 648 1036
f 1033 1036 651
f 1020 1036 1033
f 648 1019 1022
f 1019 524 797
f 1022 797 594
f 1019 797 1022
f 651 1034 1032
f 1034 594 798
f 1032 798 540
f 1034 798 1032
f 648 1022 1036
f 1022 594 1034
f 1036 1034 651
f 1022 1034 1036
f 552 1010 998
f 1010 646 1012
f 998 1012 643
f 1010 1012 998
f 646 1009 1011
f 1009 540 796
f 1011 796 593
f 1009 796 1011
f 643 1000 997
f 1000 593 795
f 997 795 523
f 1000 795 997
f 646 1011 1012
f 1011 593 1000
f 1012 1000 643
f 1011 1000 1012
f 553 1033 1044
f 1033 651 1048
f 1044 1048 653
f 1033 1048 1044
f 651 1032 1035
f 1032 540 1009
f 1035 1009 646
f 1032 1009 1035
f 653 1046 1043
f 1046 646 1010
f 1043 1010 552
f 1046 1010 1043
f 651 1035 1048
f 1035 646 1046
f 1048 1046 653
f 1035 1046 1048
f 524 781 839
f 781 590 841
f 839 841 606
f 781 841 839
f 590 782 849
f 782 539 847
f 849 847 608
f 782 847 849
f 606 851 840
f 851 608 848
f 840 848 544
f 851 848 840
f 590 849 841
f 849 608 851
f 841 851 606
f 849 851 841
f 539 779 804
f 779 589 806
f 804 806 597
f 779 806 804
f 589 778 801
f 778 518 799
f 801 799 595
f 778 799 801
f 597 807 805
f 807 595 800
f 805 800 541
f 807 800 805
f 589 801 806
f 801 595 807
f 806 807 597
f 801 807 806
f 544 858 844
f 858 610 861
f 844 861 607
f 858 861 844
f 610 857 859
f 857 541 803
f 859 803 596
f 857 803 859
f 607 845 843
f 845 596 802
f 843 802 525
f 845 802 843
f 610 859 861
f 859 596 845
f 861 845 607
f 859 845 861
f 539 804 847
f 804 597 850
f 847 850 608
f 804 850 847
f 597 805 860
f 805 541 857
f 860 857 610
f 805 857 860
f 608 862 848
f 862 610 858
f 848 858 544
f 862 858 848
f 597 860 850
f 860 610 862
f 850 862 608
f 860 862 850
f 520 883 696
f 883 616 885
f 696 885 566
f 883 885 696
f 616 884 892
f 884 546 890
f 892 890 618
f 884 890 892
f 566 891 697
f 891 618 889
f 697 889 532
f 891 889 697
f 616 892 885
f 892 618 891
f 885 891 566
f 892 891 885
f 546 888 913
f 888 617 915
f 913 915 624
f 888 915 913
f 617 887 903
f 887 526 901
f 903 901 621
f 887 901 903
f 624 917 914
f 917 621 902
f 914 902 547
f 917 902 914
f 617 903 915
f 903 621 917
f 915 917 624
f 903 917 915
f 532 904 700
f 904 622 906
f 700 906 567
f 904 906 700
f 622 905 908
f 905 547 898
f 908 898 620
f 905 898 908
f 567 899 699
f 899 620 897
f 699 897 521
f 899 897 699
f 622 908 906
f 908 620 899
f 906 899 567
f 908 899 906
f 546 913 890
f 913 624 916
f 890 916 618
f 913 916 890
f 624 914 918
f 914 547 905
f 918 905 622
f 914 905 918
f 618 907 889
f 907 622 904
f 889 904 532
f 907 904 889
f 624 918 916
f 918 622 907
f 916 907 618
f 918 907 916
f 520 696 685
f 696 566 698
f 685 698 562
f 696 698 685
f 566 697 706
f 697 532 703
f 706 703 568
f 697 703 706
f 562 704 686
f 704 568 702
f 686 702 530
f 704 702 686
f 566 706 698
f 706 568 704
f 698 704 562
f 706 704 698
f 532 700 708
f 700 567 711
f 708 711 569
f 700 711 708
f 567 699 701
f 699 521 690
f 701 690 564
f 699 690 701
f 569 709 707
f 709 564 691
f 707 691 531
f 709 691 707
f 567 701 711
f 701 564 709
f 711 709 569
f 701 709 711
f 530 692 684
f 692 565 694
f 684 694 561
f 692 694 684
f 565 693 695
f 693 531 688
f 695 688 563
f 693 688 695
f 561 689 683
f 689 563 687
f 683 687 519
f 689 687 683
f 565 695 694
f 695 563 689
f 694 689 561
f 695 689 694
f 532 708 703
f 708 569 712
f 703 712 568
f 708 712 703
f 569 707 710
f 707 531 693
f 710 693 565
f 707 693 710
f 568 705 702
f 705 565 692
f 702 692 530
f 705 692 702
f 569 710 712
f 710 565 705
f 712 705 568
f 710 705 712
f 520 685 752
f 685 562 754
f 752 754 582
f 685 754 752
f 562 686 760
f 686 530 758
f 760 758 584
f 686 758 760
f 582 762 753
f 762 584 759
f 753 759 537
f 762 759 753
f 562 760 754
f 760 584 762
f 754 762 582
f 760 762 754
f 530 684 748
f 684 561 750
f 748 750 581
f 684 750 748
f 561 683 745
f 683 519 743
f 745 743 579
f 683 743 745
f 581 751 749
f 751 579 744
f 749 744 536
f 751 744 749
f 561 745 750
f 745 579 751
f 750 751 581
f 745 751 750
f 537 764 756
f 764 585 767
f 756 767 583
f 764 767 756
f 585 763 765
f 763 536 747
f 765 747 580
f 763 747 765
f 583 757 755
f 757 580 746
f 755 746 523
f 757 746 755
f 585 765 767
f 765 580 757
f 767 757 583
f 765 757 767
f 530 748 758
f 748 581 761
f 758 761 584
f 748 761 758
f 581 749 766
f 749 536 763
f 766 763 585
f 749 763 766
f 584 768 759
f 768 585 764
f 759 764 537
f 768 764 759
f 581 766 761
f 766 585 768
f 761 768 584
f 766 768 761
f 520 752 808
f 752 582 810
f 808 810 598
f 752 810 808
f 582 753 815
f 753 537 813
f 815 813 600
f 753 813 815
f 598 816 809
f 816 600 814
f 809 814 542
f 816 814 809
f 582 815 810
f 815 600 816
f 810 816 598
f 815 816 810
f 537 756 824
f 756 583 826
f 824 826 603
f 756 826 824
f 583 755 819
f 755 523 817
f 819 817 601
f 755 817 819
f 603 828 825
f 828 601 818
f 825 818 543
f 828 818 825
f 583 819 826
f 819 601 828
f 826 828 603
f 819 828 826
f 542 833 812
f 833 605 835
f 812 835 599
f 833 835 812
f 605 834 837
f 834 543 822
f 837 822 602
f 834 822 837
f 599 823 811
f 823 602 821
f 811 821 525
f 823 821 811
f 605 837 835
f 837 602 823
f 835 823 599
f 837 823 835
f 537 824 813
f 824 603 827
f 813 827 600
f 824 827 813
f 603 825 838
f 825 543 834
f 838 834 605
f 825 834 838
f 600 836 814
f 836 605 833
f 814 833 542
f 836 833 814
f 603 838 827
f 838 605 836
f 827 836 600
f 838 836 827
f 520 808 883
f 808 598 886
f 883 886 616
f 808 886 883
f 598 809 895
f 809 542 893
f 895 893 619
f 809 893 895
f 616 896 884
f 896 619 894
f 884 894 546
f 896 894 884
f 598 895 886
f 895 619 896
f 886 896 616
f 895 896 886
f 542 812 962
f 812 599 964
f 962 964 634
f 812 964 962
f 599 811 952
f 811 525 949
f 952 949 631
f 811 949 952
f 634 966 963
f 966 631 950
f 963 950 549
f 966 950 963
f 599 952 964
f 952 631 966
f 964 966 634
f 952 966 964
f 546 973 888
f 973 636 975
f 888 975 617
f 973 975 888
f 636 974 977
f 974 549 954
f 977 954 632
f 974 954 977
f 617 956 887
f 956 632 953
f 887 953 526
f 956 953 887
f 636 977 975
f 977 632 956
f 975 956 617
f 977 956 975
f 542 962 893
f 962 634 965
f 893 965 619
f 962 965 893
f 634 963 978
f 963 549 974
f 978 974 636
f 963 974 978
f 619 976 894
f 976 636 973
f 894 973 546
f 976 973 894
f 634 978 965
f 978 636 976
f 965 976 619
f 978 976 965
f 521 897 739
f 897 620 900
f 739 900 577
f 897 900 739
f 620 898 912
f 898 547 910
f 912 910 623
f 898 910 912
f 577 911 740
f 911 623 909
f 740 909 535
f 911 909 740
f 620 912 900
f 912 623 911
f 900 911 577
f 912 911 900
f 547 902 943
f 902 621 945
f 943 945 630
f 902 945 943
f 621 901 926
f 901 526 923
f 926 923 626
f 901 923 926
f 630 947 944
f 947 626 924
f 944 924 548
f 947 924 944
f 621 926 945
f 926 626 947
f 945 947 630
f 926 947 945
f 535 932 742
f 932 628 934
f 742 934 578
f 932 934 742
f 628 933 936
f 933 548 920
f 936 920 625
f 933 920 936
f 578 922 741
f 922 625 919
f 741 919 522
f 922 919 741
f 628 936 934
f 936 625 922
f 934 922 578
f 936 922 934
f 547 943 910
f 943 630 946
f 910 946 623
f 943 946 910
f 630 944 948
f 944 548 933
f 948 933 628
f 944 933 948
f 623 935 909
f 935 628 932
f 909 932 535
f 935 932 909
f 630 948 946
f 948 628 935
f 946 935 623
f 948 935 946
f 519 687 1063
f 687 563 1065
f 1063 1065 658
f 687 1065 1063
f 563 688 1071
f 688 531 1069
f 1071 1069 660
f 688 1069 1071
f 658 1072 1064
f 1072 660 1070
f 1064 1070 555
f 1072 1070 1064
f 563 1071 1065
f 1071 660 1072
f 1065 1072 658
f 1071 1072 1065
f 531 691 1084
f 691 564 1086
f 1084 1086 664
f 691 1086 1084
f 564 690 1079
f 690 521 1077
f 1079 1077 662
f 690 1077 1079
f 664 1088 1085
f 1088 662 1078
f 1085 1078 556
f 1088 1078 1085
f 564 1079 1086
f 1079 662 1088
f 1086 1088 664
f 1079 1088 1086
f 555 1093 1068
f 1093 666 1095
f 1068 1095 659
f 1093 1095 1068
f 666 1094 1097
f 1094 556 1082
f 1097 1082 663
f 1094 1082 1097
f 659 1083 1067
f 1083 663 1081
f 1067 1081 528
f 1083 1081 1067
f 666 1097 1095
f 1097 663 1083
f 1095 1083 659
f 1097 1083 1095
f 531 1084 1069
f 1084 664 1087
f 1069 1087 660
f 1084 1087 1069
f 664 1085 1098
f 1085 556 1094
f 1098 1094 666
f 1085 1094 1098
f 660 1096 1070
f 1096 666 1093
f 1070 1093 555
f 1096 1093 1070
f 664 1098 1087
f 1098 666 1096
f 1087 1096 660
f 1098 1096 1087
f 523 746 997
f 746 580 999
f 997 999 643
f 746 999 997
f 580 747 1006
f 747 536 1004
f 1006 1004 645
f 747 1004 1006
f 643 1008 998
f 1008 645 1005
f 998 1005 552
f 1008 1005 998
f 580 1006 999
f 1006 645 1008
f 999 1008 643
f 1006 1008 999
f 536 744 993
f 744 579 995
f 993 995 642
f 744 995 993
f 579 743 990
f 743 519 988
f 990 988 640
f 743 988 990
f 642 996 994
f 996 640 989
f 994 989 551
f 996 989 994
f 579 990 995
f 990 640 996
f 995 996 642
f 990 996 995
f 552 1014 1002
f 1014 647 1017
f 1002 1017 644
f 1014 1017 1002
f 647 1013 1015
f 1013 551 992
f 1015 992 641
f 1013 992 1015
f 644 1003 1001
f 1003 641 991
f 1001 991 527
f 1003 991 1001
f 647 1015 1017
f 1015 641 1003
f 1017 1003 644
f 1015 1003 1017
f 536 993 1004
f 993 642 1007
f 1004 1007 645
f 993 1007 1004
f 642 994 1016
f 994 551 1013
f 1016 1013 647
f 994 1013 1016
f 645 1018 1005
f 1018 647 1014
f 1005 1014 552
f 1018 1014 1005
f 642 1016 1007
f 1016 647 1018
f 1007 1018 645
f 1016 1018 1007
f 525 821 843
f 821 602 846
f 843 846 607
f 821 846 843
f 602 822 865
f 822 543 863
f 865 863 611
f 822 863 865
f 607 867 844
f 867 611 864
f 844 864 544
f 867 864 844
f 602 865 846
f 865 611 867
f 846 867 607
f 865 867 846
f 543 818 830
f 818 601 832
f 830 832 604
f 818 832 830
f 601 817 820
f 817 523 795
f 820 795 593
f 817 795 820
f 604 831 829
f 831 593 796
f 829 796 540
f 831 796 829
f 601 820 832
f 820 593 831
f 832 831 604
f 820 831 832
f 544 853 840
f 853 609 856
f 840 856 606
f 853 856 840
f 609 852 854
f 852 540 798
f 854 798 594
f 852 798 854
f 606 842 839
f 842 594 797
f 839 797 524
f 842 797 839
f 609 854 856
f 854 594 842
f 856 842 606
f 854 842 856
f 543 830 863
f 830 604 866
f 863 866 611
f 830 866 863
f 604 829 855
f 829 540 852
f 855 852 609
f 829 852 855
f 611 868 864
f 868 609 853
f 864 853 544
f 868 853 864
f 604 855 866
f 855 609 868
f 866 868 611
f 855 868 866
f 526 953 873
f 953 632 955
f 873 955 613
f 953 955 873
f 632 954 971
f 954 549 968
f 971 968 635
f 954 968 971
f 613 969 874
f 969 635 967
f 874 967 545
f 969 967 874
f 632 971 955
f 971 635 969
f 955 969 613
f 971 969 955
f 549 950 958
f 950 631 961
f 958 961 633
f 950 961 958
f 631 949 951
f 949 525 802
f 951 802 596
f 949 802 951
f 633 959 957
f 959 596 803
f 957 803 541
f 959 803 957
f 631 951 961
f 951 596 959
f 961 959 633
f 951 959 961
f 545 880 870
f 880 615 882
f 870 882 612
f 880 882 870
f 615 879 881
f 879 541 800
f 881 800 595
f 879 800 881
f 612 872 869
f 872 595 799
f 869 799 518
f 872 799 869
f 615 881 882
f 881 595 872
f 882 872 612
f 881 872 882
f 549 958 968
f 958 633 972
f 968 972 635
f 958 972 968
f 633 957 960
f 957 541 879
f 960 879 615
f 957 879 960
f 635 970 967
f 970 615 880
f 967 880 545
f 970 880 967
f 633 960 972
f 960 615 970
f 972 970 635
f 960 970 972