o geometry_0
v 0.01359600 -0.01564700 0.00530300
v 0.01599500 -0.01131800 0.00750000
v -0.00565800 -0.00087700 0.00735600
v 0.01359600 -0.01564700 -0.00530300
v -0.00629400 -0.00202500 -0.00692900
v 0.01599500 -0.01131800 -0.00750000
v 0.01839500 -0.00698900 0.00530300
v 0.01938900 -0.00519500 -0.00000000
v -0.00217400 0.00540800 0.00416700
v 0.01260200 -0.01744000 -0.00000000
v 0.01839500 -0.00698900 -0.00530300
v -0.00781700 -0.00477300 0.00416700
v -0.00838900 -0.00580500 0.00000000
v -0.00160200 0.00644000 0.00000000
v -0.00259600 0.00464700 -0.00530300
v -0.00433300 0.00151200 -0.00735600
v -0.00369700 0.00266100 0.00692900
v -0.00781700 -0.00477300 -0.00416700
f 18 13 12
f 18 12 3
f 18 3 17
f 18 17 9
f 18 9 14
f 18 14 15
f 18 15 16
f 18 16 5
f 1 2 3
f 4 5 6
f 7 8 9
f 8 7 2
f 8 2 1
f 8 1 10
f 8 10 4
f 8 4 6
f 8 6 11
f 12 13 10
f 12 10 1
f 12 1 3
f 14 9 8
f 14 8 11
f 14 11 15
f 16 6 5
f 16 15 11
f 16 11 6
f 17 2 7
f 17 7 9
f 17 3 2
f 18 5 4
f 18 4 10
f 18 10 13

o geometry_1
v 0.01667400 -0.00703700 0.00495000
v 0.01531000 -0.01179500 0.00700000
v 0.03142800 -0.01363000 0.00646700
v 0.01394600 -0.01655300 -0.00495000
v 0.02890800 -0.02242200 -0.00267900
v 0.01338000 -0.01852400 0.00000000
v 0.01394600 -0.01655300 0.00495000
v 0.01723900 -0.00506600 0.00000000
v 0.01667400 -0.00703700 -0.00495000
v 0.01531000 -0.01179500 -0.00700000
v 0.03205400 -0.01144700 -0.00495000
v 0.03069000 -0.01620500 -0.00700000
v 0.03262000 -0.00947600 -0.00000000
v 0.02879800 -0.02280500 0.00136600
v 0.02932600 -0.02096300 0.00495000
v 0.03229400 -0.01061000 0.00388900
v 0.03031400 -0.01751800 0.00686500
v 0.02961800 -0.01994300 -0.00582000
f 36 30 29
f 36 29 31
f 36 31 34
f 36 34 21
f 36 21 35
f 36 35 33
f 36 33 32
f 36 32 23
f 19 20 21
f 22 23 24
f 25 20 19
f 25 19 26
f 25 26 27
f 25 27 28
f 25 28 22
f 25 22 24
f 29 30 28
f 29 28 27
f 29 27 26
f 29 26 31
f 32 24 23
f 32 33 25
f 32 25 24
f 34 31 26
f 34 26 19
f 34 19 21
f 35 21 20
f 35 20 25
f 35 25 33
f 36 23 22
f 36 22 28
f 36 28 30

o geometry_2
v 0.00738300 0.00363600 -0.00650000
v 0.00417000 0.00100000 -0.00650000
v 0.00555200 0.00263200 0.00650000
v 0.01350600 0.00010000 -0.00650000
v 0.01355300 -0.00198700 0.00650000
v 0.01283000 -0.00400000 -0.00650000
v 0.00961700 -0.00663600 -0.00650000
v 0.00861900 -0.00684900 0.00650000
v 0.00575000 -0.00626300 -0.00650000
v 0.00349400 -0.00310000 -0.00650000
v 0.01125000 0.00326300 -0.00650000
v 0.00495800 -0.00568400 0.00650000
v 0.00349400 -0.00310000 0.00650000
v 0.01144800 -0.00563200 0.00650000
v 0.00838100 0.00384900 0.00650000
v 0.01125000 0.00326300 0.00650000
v 0.01319200 0.00107100 0.00650000
v 0.00371700 0.00002300 0.00650000
f 54 49 48
f 54 48 44
f 54 44 50
f 54 50 41
f 54 41 53
f 54 53 52
f 54 52 51
f 54 51 39
f 37 38 39
f 40 41 42
f 43 44 45
f 46 38 37
f 46 37 47
f 46 47 40
f 46 40 42
f 46 42 43
f 46 43 45
f 48 45 44
f 48 49 46
f 48 46 45
f 50 42 41
f 50 44 43
f 50 43 42
f 51 52 47
f 51 47 37
f 51 37 39
f 53 41 40
f 53 40 47
f 53 47 52
f 54 39 38
f 54 38 46
f 54 46 49
