# https://github.com/mikedh/trimesh

o geometry_0
v 0.01359600 -0.01564700 0.00530300
v 0.01599500 -0.01131800 0.00750000
v -0.00565800 -0.00087700 0.00735600
v 0.01359600 -0.01564700 -0.00530300
v -0.00629400 -0.00202500 -0.00692900
v 0.01599500 -0.01131800 -0.00750000
v 0.01839500 -0.00698900 0.00530300
v 0.01938900 -0.00519500 -0.00000000
v -0.00217400 0.00540800 0.00416700
v 0.01260200 -0.01744000 -0.00000000
v 0.01839500 -0.00698900 -0.00530300
v -0.00781700 -0.00477300 0.00416700
v -0.00838900 -0.00580500 0.00000000
v -0.00160200 0.00644000 0.00000000
v -0.00259600 0.00464700 -0.00530300
v -0.00433300 0.00151200 -0.00735600
v -0.00369700 0.00266100 0.00692900
v -0.00781700 -0.00477300 -0.00416700
f 18 13 12
f 18 12 3
f 18 3 17
f 18 17 9
f 18 9 14
f 18 14 15
f 18 15 16
f 18 16 5
f 1 2 3
f 4 5 6
f 7 8 9
f 8 7 2
f 8 2 1
f 8 1 10
f 8 10 4
f 8 4 6
f 8 6 11
f 12 13 10
f 12 10 1
f 12 1 3
f 14 9 8
f 14 8 11
f 14 11 15
f 16 6 5
f 16 15 11
f 16 11 6
f 17 2 7
f 17 7 9
f 17 3 2
f 18 5 4
f 18 4 10
f 18 10 13

o geometry_1
v 0.01667400 -0.00703700 0.00495000
v 0.01531000 -0.01179500 0.00700000
v 0.03142800 -0.01363000 0.00646700
v 0.01394600 -0.01655300 -0.00495000
v 0.02890800 -0.02242200 -0.00267900
v 0.01338000 -0.01852400 0.00000000
v 0.01394600 -0.01655300 0.00495000
v 0.01723900 -0.00506600 0.00000000
v 0.01667400 -0.00703700 -0.00495000
v 0.01531000 -0.01179500 -0.00700000
v 0.03205400 -0.01144700 -0.00495000
v 0.03069000 -0.01620500 -0.00700000
v 0.03262000 -0.00947600 -0.00000000
v 0.02879800 -0.02280500 0.00136600
v 0.02932600 -0.02096300 0.00495000
v 0.03229400 -0.01061000 0.00388900
v 0.03031400 -0.01751800 0.00686500
v 0.02961800 -0.01994300 -0.00582000
f 36 30 29
f 36 29 31
f 36 31 34
f 36 34 21
f 36 21 35
f 36 35 33
f 36 33 32
f 36 32 23
f 19 20 21
f 22 23 24
f 25 20 19
f 25 19 26
f 25 26 27
f 25 27 28
f 25 28 22
f 25 22 24
f 29 30 28
f 29 28 27
f 29 27 26
f 29 26 31
f 32 24 23
f 32 33 25
f 32 25 24
f 34 31 26
f 34 26 19
f 34 19 21
f 35 21 20
f 35 20 25
f 35 25 33
f 36 23 22
f 36 22 28
f 36 28 30

o geometry_2
v 0.00738300 0.00363600 -0.00650000
v 0.00417000 0.00100000 -0.00650000
v 0.00555200 0.00263200 0.00650000
v 0.01350600 0.00010000 -0.00650000
v 0.01355300 -0.00198700 0.00650000
v 0.01283000 -0.00400000 -0.00650000
v 0.00961700 -0.00663600 -0.00650000
v 0.00861900 -0.00684900 0.00650000
v 0.00575000 -0.00626300 -0.00650000
v 0.00349400 -0.00310000 -0.00650000
v 0.01125000 0.00326300 -0.00650000
v 0.00495800 -0.00568400 0.00650000
v 0.00349400 -0.00310000 0.00650000
v 0.01144800 -0.00563200 0.00650000
v 0.00838100 0.00384900 0.00650000
v 0.01125000 0.00326300 0.00650000
v 0.01319200 0.00107100 0.00650000
v 0.00371700 0.00002300 0.00650000
f 54 49 48
f 54 48 44
f 54 44 50
f 54 50 41
f 54 41 53
f 54 53 52
f 54 52 51
f 54 51 39
f 37 38 39
f 40 41 42
f 43 44 45
f 46 38 37
f 46 37 47
f 46 47 40
f 46 40 42
f 46 42 43
f 46 43 45
f 48 45 44
f 48 49 46
f 48 46 45
f 50 42 41
f 50 44 43
f 50 43 42
f 51 52 47
f 51 47 37
f 51 37 39
f 53 41 40
f 53 40 47
f 53 47 52
f 54 39 38
f 54 38 46
f 54 46 49

o geometry_3
v 0.02631988 -0.01004544 0.00000000
v 0.03368012 -0.01004544 0.00000000
v 0.02631988 -0.02195456 0.00000000
v 0.03368012 -0.02195456 0.00000000
v 0.03000000 -0.01968012 0.00595456
v 0.03000000 -0.01231988 0.00595456
v 0.03000000 -0.01968012 -0.00595456
v 0.03000000 -0.01231988 -0.00595456
v 0.03595456 -0.01600000 -0.00368012
v 0.03595456 -0.01600000 0.00368012
v 0.02404544 -0.01600000 -0.00368012
v 0.02404544 -0.01600000 0.00368012
v 0.03000000 -0.00900000 0.00000000
v 0.03000000 -0.02300000 0.00000000
v 0.02783688 -0.02166312 0.00350000
v 0.03216312 -0.02166312 0.00350000
v 0.02783688 -0.01033688 0.00350000
v 0.03216312 -0.01033688 0.00350000
v 0.03000000 -0.01600000 0.00700000
v 0.02783688 -0.02166312 -0.00350000
v 0.03216312 -0.02166312 -0.00350000
v 0.02783688 -0.01033688 -0.00350000
v 0.03216312 -0.01033688 -0.00350000
v 0.03000000 -0.01600000 -0.00700000
v 0.03566312 -0.01250000 -0.00216312
v 0.03566312 -0.01950000 -0.00216312
v 0.03350000 -0.01816312 -0.00566312
v 0.03350000 -0.01383688 -0.00566312
v 0.03566312 -0.01250000 0.00216312
v 0.03566312 -0.01950000 0.00216312
v 0.03350000 -0.01816312 0.00566312
v 0.03350000 -0.01383688 0.00566312
v 0.03700000 -0.01600000 0.00000000
v 0.02433688 -0.01250000 -0.00216312
v 0.02433688 -0.01950000 -0.00216312
v 0.02650000 -0.01816312 -0.00566312
v 0.02650000 -0.01383688 -0.00566312
v 0.02433688 -0.01250000 0.00216312
v 0.02433688 -0.01950000 0.00216312
v 0.02650000 -0.01816312 0.00566312
v 0.02650000 -0.01383688 0.00566312
v 0.02300000 -0.01600000 0.00000000
v 0.02808713 -0.00926643 0.00000000
v 0.03191287 -0.00926643 0.00000000
v 0.02808713 -0.02273357 0.00000000
v 0.03191287 -0.02273357 0.00000000
v 0.02696278 -0.02203868 0.00181924
v 0.02887565 -0.02085646 0.00491433
v 0.02886278 -0.02265740 0.00184006
v 0.03303722 -0.02203868 0.00181924
v 0.03112435 -0.02085646 0.00491433
v 0.03113722 -0.02265740 0.00184006
v 0.03000000 -0.02195456 0.00368012
v 0.02696278 -0.00996132 0.00181924
v 0.02887565 -0.01114354 0.00491433
v 0.02886278 -0.00934260 0.00184006
v 0.03303722 -0.00996132 0.00181924
v 0.03112435 -0.01114354 0.00491433
v 0.03113722 -0.00934260 0.00184006
v 0.03000000 -0.01004544 0.00368012
v 0.03000000 -0.01791287 0.00673357
v 0.03000000 -0.01408713 0.00673357
v 0.02696278 -0.02203868 -0.00181924
v 0.02887565 -0.02085646 -0.00491433
v 0.02886278 -0.02265740 -0.00184006
v 0.03303722 -0.02203868 -0.00181924
v 0.03112435 -0.02085646 -0.00491433
v 0.03113722 -0.02265740 -0.00184006
v 0.03000000 -0.02195456 -0.00368012
v 0.02696278 -0.00996132 -0.00181924
v 0.02887565 -0.01114354 -0.00491433
v 0.02886278 -0.00934260 -0.00184006
v 0.03303722 -0.00996132 -0.00181924
v 0.03112435 -0.01114354 -0.00491433
v 0.03113722 -0.00934260 -0.00184006
v 0.03000000 -0.01004544 -0.00368012
v 0.03000000 -0.01791287 -0.00673357
v 0.03000000 -0.01408713 -0.00673357
v 0.03485646 -0.01108568 -0.00112435
v 0.03603868 -0.01418076 -0.00303722
v 0.03411450 -0.01118266 -0.00297728
v 0.03485646 -0.02091433 -0.00112435
v 0.03603868 -0.01781924 -0.00303722
v 0.03411450 -0.02081734 -0.00297728
v 0.03181924 -0.01903722 -0.00603868
v 0.03491432 -0.01712436 -0.00485646
v 0.03297728 -0.02011450 -0.00481734
v 0.03184006 -0.01713722 -0.00665740
v 0.03481734 -0.01897728 -0.00411450
v 0.03181924 -0.01296278 -0.00603868
v 0.03491432 -0.01487565 -0.00485646
v 0.03297728 -0.01188550 -0.00481734
v 0.03184006 -0.01486278 -0.00665740
v 0.03481734 -0.01302272 -0.00411450
v 0.03368012 -0.01600000 -0.00595456
v 0.03485646 -0.01108568 0.00112435
v 0.03603868 -0.01418076 0.00303722
v 0.03411450 -0.01118266 0.00297728
v 0.03595456 -0.01231988 0.00000000
v 0.03485646 -0.02091433 0.00112435
v 0.03603868 -0.01781924 0.00303722
v 0.03411450 -0.02081734 0.00297728
v 0.03595456 -0.01968012 0.00000000
v 0.03181924 -0.01903722 0.00603868
v 0.03491432 -0.01712436 0.00485646
v 0.03297728 -0.02011450 0.00481734
v 0.03184006 -0.01713722 0.00665740
v 0.03481734 -0.01897728 0.00411450
v 0.03181924 -0.01296278 0.00603868
v 0.03491432 -0.01487565 0.00485646
v 0.03297728 -0.01188550 0.00481734
v 0.03184006 -0.01486278 0.00665740
v 0.03481734 -0.01302272 0.00411450
v 0.03368012 -0.01600000 0.00595456
v 0.03673357 -0.01600000 -0.00191287
v 0.03673357 -0.01600000 0.00191287
v 0.03665740 -0.01415994 -0.00113722
v 0.03665740 -0.01784006 -0.00113722
v 0.03665740 -0.01415994 0.00113722
v 0.03665740 -0.01784006 0.00113722
v 0.02514354 -0.01108568 -0.00112435
v 0.02396132 -0.01418076 -0.00303722
v 0.02588550 -0.01118266 -0.00297728
v 0.02514354 -0.02091433 -0.00112435
v 0.02396132 -0.01781924 -0.00303722
v 0.02588550 -0.02081734 -0.00297728
v 0.02818076 -0.01903722 -0.00603868
v 0.02508567 -0.01712436 -0.00485646
v 0.02702272 -0.02011450 -0.00481734
v 0.02815994 -0.01713722 -0.00665740
v 0.02518266 -0.01897728 -0.00411450
v 0.02818076 -0.01296278 -0.00603868
v 0.02508567 -0.01487565 -0.00485646
v 0.02702272 -0.01188550 -0.00481734
v 0.02815994 -0.01486278 -0.00665740
v 0.02518266 -0.01302272 -0.00411450
v 0.02631988 -0.01600000 -0.00595456
v 0.02514354 -0.01108568 0.00112435
v 0.02396132 -0.01418076 0.00303722
v 0.02588550 -0.01118266 0.00297728
v 0.02404544 -0.01231988 0.00000000
v 0.02514354 -0.02091433 0.00112435
v 0.02396132 -0.01781924 0.00303722
v 0.02588550 -0.02081734 0.00297728
v 0.02404544 -0.01968012 0.00000000
v 0.02818076 -0.01903722 0.00603868
v 0.02508567 -0.01712436 0.00485646
v 0.02702272 -0.02011450 0.00481734
v 0.02815994 -0.01713722 0.00665740
v 0.02518266 -0.01897728 0.00411450
v 0.02818076 -0.01296278 0.00603868
v 0.02508567 -0.01487565 0.00485646
v 0.02702272 -0.01188550 0.00481734
v 0.02815994 -0.01486278 0.00665740
v 0.02518266 -0.01302272 0.00411450
v 0.02631988 -0.01600000 0.00595456
v 0.02326643 -0.01600000 -0.00191287
v 0.02326643 -0.01600000 0.00191287
v 0.02334260 -0.01415994 -0.00113722
v 0.02334260 -0.01784006 -0.00113722
v 0.02334260 -0.01415994 0.00113722
v 0.02334260 -0.01784006 0.00113722
v 0.02717651 -0.00959470 0.00000000
v 0.02903433 -0.00906693 0.00000000
v 0.03282349 -0.00959470 0.00000000
v 0.03096567 -0.00906693 0.00000000
v 0.02717651 -0.02240530 0.00000000
v 0.02903433 -0.02293307 0.00000000
v 0.03282349 -0.02240530 0.00000000
v 0.03096567 -0.02293307 0.00000000
v 0.02660891 -0.02205451 0.00091840
v 0.02737473 -0.02190738 0.00268530
v 0.02749240 -0.02247013 0.00092159
v 0.02943240 -0.02030950 0.00548690
v 0.02834040 -0.02131057 0.00424778
v 0.02942430 -0.02291382 0.00093150
v 0.02832926 -0.02223705 0.00270331
v 0.02845918 -0.02276475 0.00092955
v 0.02789119 -0.02241371 0.00184858
v 0.03339109 -0.02205451 0.00091840
v 0.03262527 -0.02190738 0.00268530
v 0.03250760 -0.02247013 0.00092159
v 0.03056760 -0.02030950 0.00548690
v 0.03165960 -0.02131057 0.00424778
v 0.03000000 -0.02092035 0.00497897
v 0.03057570 -0.02291382 0.00093150
v 0.03167074 -0.02223705 0.00270331
v 0.03154082 -0.02276475 0.00092955
v 0.03000000 -0.02274703 0.00186483
v 0.03210881 -0.02241371 0.00184858
v 0.02890496 -0.02188125 0.00363481
v 0.03109504 -0.02188125 0.00363481
v 0.02943201 -0.02146143 0.00434168
v 0.02942373 -0.02239088 0.00279725
v 0.03056799 -0.02146143 0.00434168
v 0.03057626 -0.02239088 0.00279725
v 0.02660891 -0.00994550 0.00091840
v 0.02737473 -0.01009262 0.00268530
v 0.02749240 -0.00952987 0.00092159
v 0.02943240 -0.01169051 0.00548690
v 0.02834040 -0.01068943 0.00424778
v 0.02942430 -0.00908618 0.00093150
v 0.02832926 -0.00976295 0.00270331
v 0.02845918 -0.00923525 0.00092955
v 0.02789119 -0.00958629 0.00184858
v 0.03339109 -0.00994550 0.00091840
v 0.03262527 -0.01009262 0.00268530
v 0.03250760 -0.00952987 0.00092159
v 0.03056760 -0.01169051 0.00548690
v 0.03165960 -0.01068943 0.00424778
v 0.03000000 -0.01107965 0.00497897
v 0.03057570 -0.00908618 0.00093150
v 0.03167074 -0.00976295 0.00270331
v 0.03154082 -0.00923525 0.00092955
v 0.03000000 -0.00925297 0.00186483
v 0.03210881 -0.00958629 0.00184858
v 0.02890496 -0.01011876 0.00363481
v 0.03109504 -0.01011876 0.00363481
v 0.02943201 -0.01053857 0.00434168
v 0.02942373 -0.00960912 0.00279725
v 0.03056799 -0.01053857 0.00434168
v 0.03057626 -0.00960912 0.00279725
v 0.03000000 -0.01882349 0.00640530
v 0.03000000 -0.01696567 0.00693307
v 0.03000000 -0.01317651 0.00640530
v 0.03000000 -0.01503434 0.00693307
v 0.02660891 -0.02205451 -0.00091840
v 0.02737473 -0.02190738 -0.00268530
v 0.02749240 -0.02247013 -0.00092159
v 0.02943240 -0.02030950 -0.00548690
v 0.02834040 -0.02131057 -0.00424778
v 0.02942430 -0.02291382 -0.00093150
v 0.02832926 -0.02223705 -0.00270331
v 0.02845918 -0.02276475 -0.00092955
v 0.02789119 -0.02241371 -0.00184858
v 0.03339109 -0.02205451 -0.00091840
v 0.03262527 -0.02190738 -0.00268530
v 0.03250760 -0.02247013 -0.00092159
v 0.03056760 -0.02030950 -0.00548690
v 0.03165960 -0.02131057 -0.00424778
v 0.03000000 -0.02092035 -0.00497897
v 0.03057570 -0.02291382 -0.00093150
v 0.03167074 -0.02223705 -0.00270331
v 0.03154082 -0.02276475 -0.00092955
v 0.03000000 -0.02274703 -0.00186483
v 0.03210881 -0.02241371 -0.00184858
v 0.02890496 -0.02188125 -0.00363481
v 0.03109504 -0.02188125 -0.00363481
v 0.02943201 -0.02146143 -0.00434168
v 0.02942373 -0.02239088 -0.00279725
v 0.03056799 -0.02146143 -0.00434168
v 0.03057626 -0.02239088 -0.00279725
v 0.02660891 -0.00994550 -0.00091840
v 0.02737473 -0.01009262 -0.00268530
v 0.02749240 -0.00952987 -0.00092159
v 0.02943240 -0.01169051 -0.00548690
v 0.02834040 -0.01068943 -0.00424778
v 0.02942430 -0.00908618 -0.00093150
v 0.02832926 -0.00976295 -0.00270331
v 0.02845918 -0.00923525 -0.00092955
v 0.02789119 -0.00958629 -0.00184858
v 0.03339109 -0.00994550 -0.00091840
v 0.03262527 -0.01009262 -0.00268530
v 0.03250760 -0.00952987 -0.00092159
v 0.03056760 -0.01169051 -0.00548690
v 0.03165960 -0.01068943 -0.00424778
v 0.03000000 -0.01107965 -0.00497897
v 0.03057570 -0.00908618 -0.00093150
v 0.03167074 -0.00976295 -0.00270331
v 0.03154082 -0.00923525 -0.00092955
v 0.03000000 -0.00925297 -0.00186483
v 0.03210881 -0.00958629 -0.00184858
v 0.02890496 -0.01011876 -0.00363481
v 0.03109504 -0.01011876 -0.00363481
v 0.02943201 -0.01053857 -0.00434168
v 0.02942373 -0.00960912 -0.00279725
v 0.03056799 -0.01053857 -0.00434168
v 0.03057626 -0.00960912 -0.00279725
v 0.03000000 -0.01882349 -0.00640530
v 0.03000000 -0.01696567 -0.00693307
v 0.03000000 -0.01317651 -0.00640530
v 0.03000000 -0.01503434 -0.00693307
v 0.03430949 -0.01051310 -0.00056760
v 0.03531057 -0.01175222 -0.00165960
v 0.03399876 -0.01045146 -0.00149116
v 0.03605450 -0.01508160 -0.00339109
v 0.03590738 -0.01331470 -0.00262527
v 0.03317793 -0.01069445 -0.00327901
v 0.03494975 -0.01178949 -0.00260224
v 0.03361285 -0.01051584 -0.00242307
v 0.03453188 -0.01108383 -0.00207203
v 0.03430949 -0.02148690 -0.00056760
v 0.03531057 -0.02024778 -0.00165960
v 0.03399876 -0.02154855 -0.00149116
v 0.03605450 -0.01691840 -0.00339109
v 0.03590738 -0.01868530 -0.00262527
v 0.03317793 -0.02130555 -0.00327901
v 0.03494975 -0.02021051 -0.00260224
v 0.03361285 -0.02148416 -0.00242307
v 0.03453188 -0.02091617 -0.00207203
v 0.03091840 -0.01939109 -0.00605451
v 0.03268530 -0.01862527 -0.00590738
v 0.03149116 -0.01999876 -0.00554854
v 0.03092159 -0.01850760 -0.00647013
v 0.03548690 -0.01656760 -0.00430949
v 0.03424778 -0.01765961 -0.00531057
v 0.03554854 -0.01749116 -0.00399876
v 0.03260224 -0.02094975 -0.00421051
v 0.03327901 -0.01917793 -0.00530555
v 0.03207203 -0.02053188 -0.00491617
v 0.03359363 -0.02052605 -0.00394978
v 0.03242307 -0.01961285 -0.00548416
v 0.03093150 -0.01657570 -0.00691382
v 0.03270331 -0.01767074 -0.00623705
v 0.03092955 -0.01754082 -0.00676475
v 0.03184858 -0.01810881 -0.00641371
v 0.03530555 -0.01927901 -0.00317793
v 0.03421051 -0.01860224 -0.00494975
v 0.03548416 -0.01842307 -0.00361285
v 0.03452604 -0.01994978 -0.00359363
v 0.03491617 -0.01807203 -0.00453188
v 0.03394978 -0.01959363 -0.00452604
v 0.03091840 -0.01260891 -0.00605451
v 0.03268530 -0.01337473 -0.00590738
v 0.03149116 -0.01200124 -0.00554854
v 0.03092159 -0.01349240 -0.00647013
v 0.03548690 -0.01543240 -0.00430949
v 0.03424778 -0.01434040 -0.00531057
v 0.03554854 -0.01450884 -0.00399876
v 0.03497897 -0.01600000 -0.00492035
v 0.03260224 -0.01105025 -0.00421051
v 0.03327901 -0.01282207 -0.00530555
v 0.03207203 -0.01146812 -0.00491617
v 0.03359363 -0.01147396 -0.00394978
v 0.03242307 -0.01238715 -0.00548416
v 0.03093150 -0.01542430 -0.00691382
v 0.03270331 -0.01432926 -0.00623705
v 0.03092955 -0.01445918 -0.00676475
v 0.03186483 -0.01600000 -0.00674703
v 0.03184858 -0.01389119 -0.00641371
v 0.03530555 -0.01272099 -0.00317793
v 0.03421051 -0.01339776 -0.00494975
v 0.03548416 -0.01357693 -0.00361285
v 0.03452604 -0.01205022 -0.00359363
v 0.03491617 -0.01392797 -0.00453188
v 0.03394978 -0.01240637 -0.00452604
v 0.03363481 -0.01709504 -0.00588125
v 0.03363481 -0.01490496 -0.00588125
v 0.03434168 -0.01656799 -0.00546143
v 0.03279725 -0.01657627 -0.00639088
v 0.03434168 -0.01543201 -0.00546143
v 0.03279725 -0.01542374 -0.00639088
v 0.03430949 -0.01051310 0.00056760
v 0.03531057 -0.01175222 0.00165960
v 0.03399876 -0.01045146 0.00149116
v 0.03492035 -0.01102103 0.00000000
v 0.03605450 -0.01508160 0.00339109
v 0.03590738 -0.01331470 0.00262527
v 0.03317793 -0.01069445 0.00327901
v 0.03494975 -0.01178949 0.00260224
v 0.03361285 -0.01051584 0.00242307
v 0.03453188 -0.01108383 0.00207203
v 0.03588124 -0.01236519 -0.00109504
v 0.03588124 -0.01236519 0.00109504
v 0.03546143 -0.01165832 -0.00056799
v 0.03546143 -0.01165832 0.00056799
v 0.03430949 -0.02148690 0.00056760
v 0.03531057 -0.02024778 0.00165960
v 0.03399876 -0.02154855 0.00149116
v 0.03492035 -0.02097897 0.00000000
v 0.03605450 -0.01691840 0.00339109
v 0.03590738 -0.01868530 0.00262527
v 0.03317793 -0.02130555 0.00327901
v 0.03494975 -0.02021051 0.00260224
v 0.03361285 -0.02148416 0.00242307
v 0.03453188 -0.02091617 0.00207203
v 0.03588124 -0.01963481 -0.00109504
v 0.03588124 -0.01963481 0.00109504
v 0.03546143 -0.02034168 -0.00056799
v 0.03546143 -0.02034168 0.00056799
v 0.03091840 -0.01939109 0.00605451
v 0.03268530 -0.01862527 0.00590738
v 0.03149116 -0.01999876 0.00554854
v 0.03092159 -0.01850760 0.00647013
v 0.03548690 -0.01656760 0.00430949
v 0.03424778 -0.01765961 0.00531057
v 0.03554854 -0.01749116 0.00399876
v 0.03260224 -0.02094975 0.00421051
v 0.03327901 -0.01917793 0.00530555
v 0.03207203 -0.02053188 0.00491617
v 0.03359363 -0.02052605 0.00394978
v 0.03242307 -0.01961285 0.00548416
v 0.03093150 -0.01657570 0.00691382
v 0.03270331 -0.01767074 0.00623705
v 0.03092955 -0.01754082 0.00676475
v 0.03184858 -0.01810881 0.00641371
v 0.03530555 -0.01927901 0.00317793
v 0.03421051 -0.01860224 0.00494975
v 0.03548416 -0.01842307 0.00361285
v 0.03452604 -0.01994978 0.00359363
v 0.03491617 -0.01807203 0.00453188
v 0.03394978 -0.01959363 0.00452604
v 0.03091840 -0.01260891 0.00605451
v 0.03268530 -0.01337473 0.00590738
v 0.03149116 -0.01200124 0.00554854
v 0.03092159 -0.01349240 0.00647013
v 0.03548690 -0.01543240 0.00430949
v 0.03424778 -0.01434040 0.00531057
v 0.03554854 -0.01450884 0.00399876
v 0.03497897 -0.01600000 0.00492035
v 0.03260224 -0.01105025 0.00421051
v 0.03327901 -0.01282207 0.00530555
v 0.03207203 -0.01146812 0.00491617
v 0.03359363 -0.01147396 0.00394978
v 0.03242307 -0.01238715 0.00548416
v 0.03093150 -0.01542430 0.00691382
v 0.03270331 -0.01432926 0.00623705
v 0.03092955 -0.01445918 0.00676475
v 0.03186483 -0.01600000 0.00674703
v 0.03184858 -0.01389119 0.00641371
v 0.03530555 -0.01272099 0.00317793
v 0.03421051 -0.01339776 0.00494975
v 0.03548416 -0.01357693 0.00361285
v 0.03452604 -0.01205022 0.00359363
v 0.03491617 -0.01392797 0.00453188
v 0.03394978 -0.01240637 0.00452604
v 0.03363481 -0.01709504 0.00588125
v 0.03363481 -0.01490496 0.00588125
v 0.03434168 -0.01656799 0.00546143
v 0.03279725 -0.01657627 0.00639088
v 0.03434168 -0.01543201 0.00546143
v 0.03279725 -0.01542374 0.00639088
v 0.03640530 -0.01600000 -0.00282349
v 0.03693307 -0.01600000 -0.00096567
v 0.03647013 -0.01507841 -0.00250760
v 0.03647013 -0.01692159 -0.00250760
v 0.03640530 -0.01600000 0.00282349
v 0.03693307 -0.01600000 0.00096567
v 0.03647013 -0.01507841 0.00250760
v 0.03647013 -0.01692159 0.00250760
v 0.03623705 -0.01329669 -0.00167074
v 0.03691382 -0.01506850 -0.00057570
v 0.03641371 -0.01415142 -0.00210881
v 0.03639088 -0.01320275 -0.00057627
v 0.03676475 -0.01507045 -0.00154082
v 0.03623705 -0.01870331 -0.00167074
v 0.03691382 -0.01693150 -0.00057570
v 0.03641371 -0.01784858 -0.00210881
v 0.03639088 -0.01879725 -0.00057627
v 0.03676475 -0.01692955 -0.00154082
v 0.03623705 -0.01329669 0.00167074
v 0.03691382 -0.01506850 0.00057570
v 0.03641371 -0.01415142 0.00210881
v 0.03639088 -0.01320275 0.00057627
v 0.03676475 -0.01507045 0.00154082
v 0.03674703 -0.01413517 0.00000000
v 0.03623705 -0.01870331 0.00167074
v 0.03691382 -0.01693150 0.00057570
v 0.03641371 -0.01784858 0.00210881
v 0.03639088 -0.01879725 0.00057627
v 0.03676475 -0.01692955 0.00154082
v 0.03674703 -0.01786483 0.00000000
v 0.02569051 -0.01051310 -0.00056760
v 0.02468943 -0.01175222 -0.00165960
v 0.02600124 -0.01045146 -0.00149116
v 0.02394549 -0.01508160 -0.00339109
v 0.02409262 -0.01331470 -0.00262527
v 0.02682207 -0.01069445 -0.00327901
v 0.02505025 -0.01178949 -0.00260224
v 0.02638715 -0.01051584 -0.00242307
v 0.02546812 -0.01108383 -0.00207203
v 0.02569051 -0.02148690 -0.00056760
v 0.02468943 -0.02024778 -0.00165960
v 0.02600124 -0.02154855 -0.00149116
v 0.02394549 -0.01691840 -0.00339109
v 0.02409262 -0.01868530 -0.00262527
v 0.02682207 -0.02130555 -0.00327901
v 0.02505025 -0.02021051 -0.00260224
v 0.02638715 -0.02148416 -0.00242307
v 0.02546812 -0.02091617 -0.00207203
v 0.02908160 -0.01939109 -0.00605451
v 0.02731470 -0.01862527 -0.00590738
v 0.02850884 -0.01999876 -0.00554854
v 0.02907841 -0.01850760 -0.00647013
v 0.02451310 -0.01656760 -0.00430949
v 0.02575222 -0.01765961 -0.00531057
v 0.02445145 -0.01749116 -0.00399876
v 0.02739776 -0.02094975 -0.00421051
v 0.02672099 -0.01917793 -0.00530555
v 0.02792797 -0.02053188 -0.00491617
v 0.02640637 -0.02052605 -0.00394978
v 0.02757693 -0.01961285 -0.00548416
v 0.02906850 -0.01657570 -0.00691382
v 0.02729669 -0.01767074 -0.00623705
v 0.02907045 -0.01754082 -0.00676475
v 0.02815142 -0.01810881 -0.00641371
v 0.02469445 -0.01927901 -0.00317793
v 0.02578949 -0.01860224 -0.00494975
v 0.02451584 -0.01842307 -0.00361285
v 0.02547395 -0.01994978 -0.00359363
v 0.02508383 -0.01807203 -0.00453188
v 0.02605022 -0.01959363 -0.00452604
v 0.02908160 -0.01260891 -0.00605451
v 0.02731470 -0.01337473 -0.00590738
v 0.02850884 -0.01200124 -0.00554854
v 0.02907841 -0.01349240 -0.00647013
v 0.02451310 -0.01543240 -0.00430949
v 0.02575222 -0.01434040 -0.00531057
v 0.02445145 -0.01450884 -0.00399876
v 0.02502103 -0.01600000 -0.00492035
v 0.02739776 -0.01105025 -0.00421051
v 0.02672099 -0.01282207 -0.00530555
v 0.02792797 -0.01146812 -0.00491617
v 0.02640637 -0.01147396 -0.00394978
v 0.02757693 -0.01238715 -0.00548416
v 0.02906850 -0.01542430 -0.00691382
v 0.02729669 -0.01432926 -0.00623705
v 0.02907045 -0.01445918 -0.00676475
v 0.02813517 -0.01600000 -0.00674703
v 0.02815142 -0.01389119 -0.00641371
v 0.02469445 -0.01272099 -0.00317793
v 0.02578949 -0.01339776 -0.00494975
v 0.02451584 -0.01357693 -0.00361285
v 0.02547395 -0.01205022 -0.00359363
v 0.02508383 -0.01392797 -0.00453188
v 0.02605022 -0.01240637 -0.00452604
v 0.02636519 -0.01709504 -0.00588125
v 0.02636519 -0.01490496 -0.00588125
v 0.02565832 -0.01656799 -0.00546143
v 0.02720275 -0.01657627 -0.00639088
v 0.02565832 -0.01543201 -0.00546143
v 0.02720275 -0.01542374 -0.00639088
v 0.02569051 -0.01051310 0.00056760
v 0.02468943 -0.01175222 0.00165960
v 0.02600124 -0.01045146 0.00149116
v 0.02507965 -0.01102103 0.00000000
v 0.02394549 -0.01508160 0.00339109
v 0.02409262 -0.01331470 0.00262527
v 0.02682207 -0.01069445 0.00327901
v 0.02505025 -0.01178949 0.00260224
v 0.02638715 -0.01051584 0.00242307
v 0.02546812 -0.01108383 0.00207203
v 0.02411875 -0.01236519 -0.00109504
v 0.02411875 -0.01236519 0.00109504
v 0.02453857 -0.01165832 -0.00056799
v 0.02453857 -0.01165832 0.00056799
v 0.02569051 -0.02148690 0.00056760
v 0.02468943 -0.02024778 0.00165960
v 0.02600124 -0.02154855 0.00149116
v 0.02507965 -0.02097897 0.00000000
v 0.02394549 -0.01691840 0.00339109
v 0.02409262 -0.01868530 0.00262527
v 0.02682207 -0.02130555 0.00327901
v 0.02505025 -0.02021051 0.00260224
v 0.02638715 -0.02148416 0.00242307
v 0.02546812 -0.02091617 0.00207203
v 0.02411875 -0.01963481 -0.00109504
v 0.02411875 -0.01963481 0.00109504
v 0.02453857 -0.02034168 -0.00056799
v 0.02453857 -0.02034168 0.00056799
v 0.02908160 -0.01939109 0.00605451
v 0.02731470 -0.01862527 0.00590738
v 0.02850884 -0.01999876 0.00554854
v 0.02907841 -0.01850760 0.00647013
v 0.02451310 -0.01656760 0.00430949
v 0.02575222 -0.01765961 0.00531057
v 0.02445145 -0.01749116 0.00399876
v 0.02739776 -0.02094975 0.00421051
v 0.02672099 -0.01917793 0.00530555
v 0.02792797 -0.02053188 0.00491617
v 0.02640637 -0.02052605 0.00394978
v 0.02757693 -0.01961285 0.00548416
v 0.02906850 -0.01657570 0.00691382
v 0.02729669 -0.01767074 0.00623705
v 0.02907045 -0.01754082 0.00676475
v 0.02815142 -0.01810881 0.00641371
v 0.02469445 -0.01927901 0.00317793
v 0.02578949 -0.01860224 0.00494975
v 0.02451584 -0.01842307 0.00361285
v 0.02547395 -0.01994978 0.00359363
v 0.02508383 -0.01807203 0.00453188
v 0.02605022 -0.01959363 0.00452604
v 0.02908160 -0.01260891 0.00605451
v 0.02731470 -0.01337473 0.00590738
v 0.02850884 -0.01200124 0.00554854
v 0.02907841 -0.01349240 0.00647013
v 0.02451310 -0.01543240 0.00430949
v 0.02575222 -0.01434040 0.00531057
v 0.02445145 -0.01450884 0.00399876
v 0.02502103 -0.01600000 0.00492035
v 0.02739776 -0.01105025 0.00421051
v 0.02672099 -0.01282207 0.00530555
v 0.02792797 -0.01146812 0.00491617
v 0.02640637 -0.01147396 0.00394978
v 0.02757693 -0.01238715 0.00548416
v 0.02906850 -0.01542430 0.00691382
v 0.02729669 -0.01432926 0.00623705
v 0.02907045 -0.01445918 0.00676475
v 0.02813517 -0.01600000 0.00674703
v 0.02815142 -0.01389119 0.00641371
v 0.02469445 -0.01272099 0.00317793
v 0.02578949 -0.01339776 0.00494975
v 0.02451584 -0.01357693 0.00361285
v 0.02547395 -0.01205022 0.00359363
v 0.02508383 -0.01392797 0.00453188
v 0.02605022 -0.01240637 0.00452604
v 0.02636519 -0.01709504 0.00588125
v 0.02636519 -0.01490496 0.00588125
v 0.02565832 -0.01656799 0.00546143
v 0.02720275 -0.01657627 0.00639088
v 0.02565832 -0.01543201 0.00546143
v 0.02720275 -0.01542374 0.00639088
v 0.02359470 -0.01600000 -0.00282349
v 0.02306693 -0.01600000 -0.00096567
v 0.02352987 -0.01507841 -0.00250760
v 0.02352987 -0.01692159 -0.00250760
v 0.02359470 -0.01600000 0.00282349
v 0.02306693 -0.01600000 0.00096567
v 0.02352987 -0.01507841 0.00250760
v 0.02352987 -0.01692159 0.00250760
v 0.02376295 -0.01329669 -0.00167074
v 0.02308618 -0.01506850 -0.00057570
v 0.02358629 -0.01415142 -0.00210881
v 0.02360912 -0.01320275 -0.00057627
v 0.02323525 -0.01507045 -0.00154082
v 0.02376295 -0.01870331 -0.00167074
v 0.02308618 -0.01693150 -0.00057570
v 0.02358629 -0.01784858 -0.00210881
v 0.02360912 -0.01879725 -0.00057627
v 0.02323525 -0.01692955 -0.00154082
v 0.02376295 -0.01329669 0.00167074
v 0.02308618 -0.01506850 0.00057570
v 0.02358629 -0.01415142 0.00210881
v 0.02360912 -0.01320275 0.00057627
v 0.02323525 -0.01507045 0.00154082
v 0.02325297 -0.01413517 0.00000000
v 0.02376295 -0.01870331 0.00167074
v 0.02308618 -0.01693150 0.00057570
v 0.02358629 -0.01784858 0.00210881
v 0.02360912 -0.01879725 0.00057627
v 0.02323525 -0.01692955 0.00154082
v 0.02325297 -0.01786483 0.00000000
f 55 587 251
f 587 192 589
f 251 589 108
f 587 589 251
f 192 588 596
f 588 92 594
f 596 594 194
f 588 594 596
f 108 595 252
f 595 194 593
f 252 593 71
f 595 593 252
f 192 596 589
f 596 194 595
f 589 595 108
f 596 595 589
f 92 592 655
f 592 193 657
f 655 657 209
f 592 657 655
f 193 591 643
f 591 66 641
f 643 641 206
f 591 641 643
f 209 659 656
f 659 206 642
f 656 642 95
f 659 642 656
f 193 643 657
f 643 206 659
f 657 659 209
f 643 659 657
f 71 645 255
f 645 207 647
f 255 647 109
f 645 647 255
f 207 646 649
f 646 95 638
f 649 638 205
f 646 638 649
f 109 639 254
f 639 205 637
f 254 637 60
f 639 637 254
f 207 649 647
f 649 205 639
f 647 639 109
f 649 639 647
f 92 655 594
f 655 209 658
f 594 658 194
f 655 658 594
f 209 656 660
f 656 95 646
f 660 646 207
f 656 646 660
f 194 648 593
f 648 207 645
f 593 645 71
f 648 645 593
f 209 660 658
f 660 207 648
f 658 648 194
f 660 648 658
f 55 251 217
f 251 108 253
f 217 253 97
f 251 253 217
f 108 252 259
f 252 71 257
f 259 257 110
f 252 257 259
f 97 258 218
f 258 110 256
f 218 256 67
f 258 256 218
f 108 259 253
f 259 110 258
f 253 258 97
f 259 258 253
f 71 255 271
f 255 109 273
f 271 273 114
f 255 273 271
f 109 254 265
f 254 60 263
f 265 263 112
f 254 263 265
f 114 275 272
f 275 112 264
f 272 264 72
f 275 264 272
f 109 265 273
f 265 112 275
f 273 275 114
f 265 275 273
f 67 266 220
f 266 113 268
f 220 268 98
f 266 268 220
f 113 267 270
f 267 72 261
f 270 261 111
f 267 261 270
f 98 262 219
f 262 111 260
f 219 260 56
f 262 260 219
f 113 270 268
f 270 111 262
f 268 262 98
f 270 262 268
f 71 271 257
f 271 114 274
f 257 274 110
f 271 274 257
f 114 272 276
f 272 72 267
f 276 267 113
f 272 267 276
f 110 269 256
f 269 113 266
f 256 266 67
f 269 266 256
f 114 276 274
f 276 113 269
f 274 269 110
f 276 269 274
f 55 217 307
f 217 97 309
f 307 309 124
f 217 309 307
f 97 218 314
f 218 67 312
f 314 312 126
f 218 312 314
f 124 315 308
f 315 126 313
f 308 313 76
f 315 313 308
f 97 314 309
f 314 126 315
f 309 315 124
f 314 315 309
f 67 220 322
f 220 98 324
f 322 324 129
f 220 324 322
f 98 219 318
f 219 56 316
f 318 316 127
f 219 316 318
f 129 326 323
f 326 127 317
f 323 317 77
f 326 317 323
f 98 318 324
f 318 127 326
f 324 326 129
f 318 326 324
f 76 327 311
f 327 130 329
f 311 329 125
f 327 329 311
f 130 328 331
f 328 77 320
f 331 320 128
f 328 320 331
f 125 321 310
f 321 128 319
f 310 319 62
f 321 319 310
f 130 331 329
f 331 128 321
f 329 321 125
f 331 321 329
f 67 322 312
f 322 129 325
f 312 325 126
f 322 325 312
f 129 323 332
f 323 77 328
f 332 328 130
f 323 328 332
f 126 330 313
f 330 130 327
f 313 327 76
f 330 327 313
f 129 332 325
f 332 130 330
f 325 330 126
f 332 330 325
f 55 307 517
f 307 124 519
f 517 519 175
f 307 519 517
f 124 308 524
f 308 76 522
f 524 522 177
f 308 522 524
f 175 525 518
f 525 177 523
f 518 523 88
f 525 523 518
f 124 524 519
f 524 177 525
f 519 525 175
f 524 525 519
f 76 311 565
f 311 125 567
f 565 567 188
f 311 567 565
f 125 310 559
f 310 62 557
f 559 557 186
f 310 557 559
f 188 569 566
f 569 186 558
f 566 558 91
f 569 558 566
f 125 559 567
f 559 186 569
f 567 569 188
f 559 569 567
f 88 575 521
f 575 190 577
f 521 577 176
f 575 577 521
f 190 576 579
f 576 91 562
f 579 562 187
f 576 562 579
f 176 563 520
f 563 187 561
f 520 561 65
f 563 561 520
f 190 579 577
f 579 187 563
f 577 563 176
f 579 563 577
f 76 565 522
f 565 188 568
f 522 568 177
f 565 568 522
f 188 566 580
f 566 91 576
f 580 576 190
f 566 576 580
f 177 578 523
f 578 190 575
f 523 575 88
f 578 575 523
f 188 580 568
f 580 190 578
f 568 578 177
f 580 578 568
f 55 517 587
f 517 175 590
f 587 590 192
f 517 590 587
f 175 518 599
f 518 88 597
f 599 597 195
f 518 597 599
f 192 600 588
f 600 195 598
f 588 598 92
f 600 598 588
f 175 599 590
f 599 195 600
f 590 600 192
f 599 600 590
f 88 521 675
f 521 176 677
f 675 677 213
f 521 677 675
f 176 520 669
f 520 65 667
f 669 667 211
f 520 667 669
f 213 679 676
f 679 211 668
f 676 668 96
f 679 668 676
f 176 669 677
f 669 211 679
f 677 679 213
f 669 679 677
f 92 685 592
f 685 215 687
f 592 687 193
f 685 687 592
f 215 686 689
f 686 96 672
f 689 672 212
f 686 672 689
f 193 673 591
f 673 212 671
f 591 671 66
f 673 671 591
f 215 689 687
f 689 212 673
f 687 673 193
f 689 673 687
f 88 675 597
f 675 213 678
f 597 678 195
f 675 678 597
f 213 676 690
f 676 96 686
f 690 686 215
f 676 686 690
f 195 688 598
f 688 215 685
f 598 685 92
f 688 685 598
f 213 690 678
f 690 215 688
f 678 688 195
f 690 688 678
f 56 260 407
f 260 111 409
f 407 409 150
f 260 409 407
f 111 261 415
f 261 72 413
f 415 413 152
f 261 413 415
f 150 416 408
f 416 152 414
f 408 414 83
f 416 414 408
f 111 415 409
f 415 152 416
f 409 416 150
f 415 416 409
f 72 264 465
f 264 112 467
f 465 467 165
f 264 467 465
f 112 263 459
f 263 60 457
f 459 457 163
f 263 457 459
f 165 469 466
f 469 163 458
f 466 458 86
f 469 458 466
f 112 459 467
f 459 163 469
f 467 469 165
f 459 469 467
f 83 475 412
f 475 167 477
f 412 477 151
f 475 477 412
f 167 476 479
f 476 86 462
f 479 462 164
f 476 462 479
f 151 463 411
f 463 164 461
f 411 461 64
f 463 461 411
f 167 479 477
f 479 164 463
f 477 463 151
f 479 463 477
f 72 465 413
f 465 165 468
f 413 468 152
f 465 468 413
f 165 466 480
f 466 86 476
f 480 476 167
f 466 476 480
f 152 478 414
f 478 167 475
f 414 475 83
f 478 475 414
f 165 480 468
f 480 167 478
f 468 478 152
f 480 478 468
f 60 637 279
f 637 205 640
f 279 640 116
f 637 640 279
f 205 638 654
f 638 95 651
f 654 651 208
f 638 651 654
f 116 652 280
f 652 208 650
f 280 650 73
f 652 650 280
f 205 654 640
f 654 208 652
f 640 652 116
f 654 652 640
f 95 642 662
f 642 206 665
f 662 665 210
f 642 665 662
f 206 641 644
f 641 66 619
f 644 619 201
f 641 619 644
f 210 663 661
f 663 201 620
f 661 620 94
f 663 620 661
f 206 644 665
f 644 201 663
f 665 663 210
f 644 663 665
f 73 627 278
f 627 203 629
f 278 629 115
f 627 629 278
f 203 628 630
f 628 94 616
f 630 616 200
f 628 616 630
f 115 618 277
f 618 200 615
f 277 615 59
f 618 615 277
f 203 630 629
f 630 200 618
f 629 618 115
f 630 618 629
f 95 662 651
f 662 210 666
f 651 666 208
f 662 666 651
f 210 661 664
f 661 94 628
f 664 628 203
f 661 628 664
f 208 653 650
f 653 203 627
f 650 627 73
f 653 627 650
f 210 664 666
f 664 203 653
f 666 653 208
f 664 653 666
f 66 671 605
f 671 212 674
f 605 674 197
f 671 674 605
f 212 672 695
f 672 96 692
f 695 692 216
f 672 692 695
f 197 693 606
f 693 216 691
f 606 691 93
f 693 691 606
f 212 695 674
f 695 216 693
f 674 693 197
f 695 693 674
f 96 668 681
f 668 211 684
f 681 684 214
f 668 684 681
f 211 667 670
f 667 65 529
f 670 529 179
f 667 529 670
f 214 682 680
f 682 179 530
f 680 530 89
f 682 530 680
f 211 670 684
f 670 179 682
f 684 682 214
f 670 682 684
f 93 612 602
f 612 199 614
f 602 614 196
f 612 614 602
f 199 611 613
f 611 89 527
f 613 527 178
f 611 527 613
f 196 604 601
f 604 178 526
f 601 526 57
f 604 526 601
f 199 613 614
f 613 178 604
f 614 604 196
f 613 604 614
f 96 681 692
f 681 214 696
f 692 696 216
f 681 696 692
f 214 680 683
f 680 89 611
f 683 611 199
f 680 611 683
f 216 694 691
f 694 199 612
f 691 612 93
f 694 612 691
f 214 683 696
f 683 199 694
f 696 694 216
f 683 694 696
f 65 561 539
f 561 187 564
f 539 564 182
f 561 564 539
f 187 562 585
f 562 91 582
f 585 582 191
f 562 582 585
f 182 583 540
f 583 191 581
f 540 581 90
f 583 581 540
f 187 585 564
f 585 191 583
f 564 583 182
f 585 583 564
f 91 558 571
f 558 186 574
f 571 574 189
f 558 574 571
f 186 557 560
f 557 62 335
f 560 335 132
f 557 335 560
f 189 572 570
f 572 132 336
f 570 336 78
f 572 336 570
f 186 560 574
f 560 132 572
f 574 572 189
f 560 572 574
f 90 548 536
f 548 184 550
f 536 550 181
f 548 550 536
f 184 547 549
f 547 78 334
f 549 334 131
f 547 334 549
f 181 538 535
f 538 131 333
f 535 333 61
f 538 333 535
f 184 549 550
f 549 131 538
f 550 538 181
f 549 538 550
f 91 571 582
f 571 189 586
f 582 586 191
f 571 586 582
f 189 570 573
f 570 78 547
f 573 547 184
f 570 547 573
f 191 584 581
f 584 184 548
f 581 548 90
f 584 548 581
f 189 573 586
f 573 184 584
f 586 584 191
f 573 584 586
f 62 319 377
f 319 128 379
f 377 379 144
f 319 379 377
f 128 320 387
f 320 77 385
f 387 385 146
f 320 385 387
f 144 389 378
f 389 146 386
f 378 386 82
f 389 386 378
f 128 387 379
f 387 146 389
f 379 389 144
f 387 389 379
f 77 317 342
f 317 127 344
f 342 344 135
f 317 344 342
f 127 316 339
f 316 56 337
f 339 337 133
f 316 337 339
f 135 345 343
f 345 133 338
f 343 338 79
f 345 338 343
f 127 339 344
f 339 133 345
f 344 345 135
f 339 345 344
f 82 396 382
f 396 148 399
f 382 399 145
f 396 399 382
f 148 395 397
f 395 79 341
f 397 341 134
f 395 341 397
f 145 383 381
f 383 134 340
f 381 340 63
f 383 340 381
f 148 397 399
f 397 134 383
f 399 383 145
f 397 383 399
f 77 342 385
f 342 135 388
f 385 388 146
f 342 388 385
f 135 343 398
f 343 79 395
f 398 395 148
f 343 395 398
f 146 400 386
f 400 148 396
f 386 396 82
f 400 396 386
f 135 398 388
f 398 148 400
f 388 400 146
f 398 400 388
f 58 421 234
f 421 154 423
f 234 423 104
f 421 423 234
f 154 422 430
f 422 84 428
f 430 428 156
f 422 428 430
f 104 429 235
f 429 156 427
f 235 427 70
f 429 427 235
f 154 430 423
f 430 156 429
f 423 429 104
f 430 429 423
f 84 426 451
f 426 155 453
f 451 453 162
f 426 453 451
f 155 425 441
f 425 64 439
f 441 439 159
f 425 439 441
f 162 455 452
f 455 159 440
f 452 440 85
f 455 440 452
f 155 441 453
f 441 159 455
f 453 455 162
f 441 455 453
f 70 442 238
f 442 160 444
f 238 444 105
f 442 444 238
f 160 443 446
f 443 85 436
f 446 436 158
f 443 436 446
f 105 437 237
f 437 158 435
f 237 435 59
f 437 435 237
f 160 446 444
f 446 158 437
f 444 437 105
f 446 437 444
f 84 451 428
f 451 162 454
f 428 454 156
f 451 454 428
f 162 452 456
f 452 85 443
f 456 443 160
f 452 443 456
f 156 445 427
f 445 160 442
f 427 442 70
f 445 442 427
f 162 456 454
f 456 160 445
f 454 445 156
f 456 445 454
f 58 234 223
f 234 104 236
f 223 236 100
f 234 236 223
f 104 235 244
f 235 70 241
f 244 241 106
f 235 241 244
f 100 242 224
f 242 106 240
f 224 240 68
f 242 240 224
f 104 244 236
f 244 106 242
f 236 242 100
f 244 242 236
f 70 238 246
f 238 105 249
f 246 249 107
f 238 249 246
f 105 237 239
f 237 59 228
f 239 228 102
f 237 228 239
f 107 247 245
f 247 102 229
f 245 229 69
f 247 229 245
f 105 239 249
f 239 102 247
f 249 247 107
f 239 247 249
f 68 230 222
f 230 103 232
f 222 232 99
f 230 232 222
f 103 231 233
f 231 69 226
f 233 226 101
f 231 226 233
f 99 227 221
f 227 101 225
f 221 225 57
f 227 225 221
f 103 233 232
f 233 101 227
f 232 227 99
f 233 227 232
f 70 246 241
f 246 107 250
f 241 250 106
f 246 250 241
f 107 245 248
f 245 69 231
f 248 231 103
f 245 231 248
f 106 243 240
f 243 103 230
f 240 230 68
f 243 230 240
f 107 248 250
f 248 103 243
f 250 243 106
f 248 243 250
f 58 223 290
f 223 100 292
f 290 292 120
f 223 292 290
f 100 224 298
f 224 68 296
f 298 296 122
f 224 296 298
f 120 300 291
f 300 122 297
f 291 297 75
f 300 297 291
f 100 298 292
f 298 122 300
f 292 300 120
f 298 300 292
f 68 222 286
f 222 99 288
f 286 288 119
f 222 288 286
f 99 221 283
f 221 57 281
f 283 281 117
f 221 281 283
f 119 289 287
f 289 117 282
f 287 282 74
f 289 282 287
f 99 283 288
f 283 117 289
f 288 289 119
f 283 289 288
f 75 302 294
f 302 123 305
f 294 305 121
f 302 305 294
f 123 301 303
f 301 74 285
f 303 285 118
f 301 285 303
f 121 295 293
f 295 118 284
f 293 284 61
f 295 284 293
f 123 303 305
f 303 118 295
f 305 295 121
f 303 295 305
f 68 286 296
f 286 119 299
f 296 299 122
f 286 299 296
f 119 287 304
f 287 74 301
f 304 301 123
f 287 301 304
f 122 306 297
f 306 123 302
f 297 302 75
f 306 302 297
f 119 304 299
f 304 123 306
f 299 306 122
f 304 306 299
f 58 290 346
f 290 120 348
f 346 348 136
f 290 348 346
f 120 291 353
f 291 75 351
f 353 351 138
f 291 351 353
f 136 354 347
f 354 138 352
f 347 352 80
f 354 352 347
f 120 353 348
f 353 138 354
f 348 354 136
f 353 354 348
f 75 294 362
f 294 121 364
f 362 364 141
f 294 364 362
f 121 293 357
f 293 61 355
f 357 355 139
f 293 355 357
f 141 366 363
f 366 139 356
f 363 356 81
f 366 356 363
f 121 357 364
f 357 139 366
f 364 366 141
f 357 366 364
f 80 371 350
f 371 143 373
f 350 373 137
f 371 373 350
f 143 372 375
f 372 81 360
f 375 360 140
f 372 360 375
f 137 361 349
f 361 140 359
f 349 359 63
f 361 359 349
f 143 375 373
f 375 140 361
f 373 361 137
f 375 361 373
f 75 362 351
f 362 141 365
f 351 365 138
f 362 365 351
f 141 363 376
f 363 81 372
f 376 372 143
f 363 372 376
f 138 374 352
f 374 143 371
f 352 371 80
f 374 371 352
f 141 376 365
f 376 143 374
f 365 374 138
f 376 374 365
f 58 346 421
f 346 136 424
f 421 424 154
f 346 424 421
f 136 347 433
f 347 80 431
f 433 431 157
f 347 431 433
f 154 434 422
f 434 157 432
f 422 432 84
f 434 432 422
f 136 433 424
f 433 157 434
f 424 434 154
f 433 434 424
f 80 350 500
f 350 137 502
f 500 502 172
f 350 502 500
f 137 349 490
f 349 63 487
f 490 487 169
f 349 487 490
f 172 504 501
f 504 169 488
f 501 488 87
f 504 488 501
f 137 490 502
f 490 169 504
f 502 504 172
f 490 504 502
f 84 511 426
f 511 174 513
f 426 513 155
f 511 513 426
f 174 512 515
f 512 87 492
f 515 492 170
f 512 492 515
f 155 494 425
f 494 170 491
f 425 491 64
f 494 491 425
f 174 515 513
f 515 170 494
f 513 494 155
f 515 494 513
f 80 500 431
f 500 172 503
f 431 503 157
f 500 503 431
f 172 501 516
f 501 87 512
f 516 512 174
f 501 512 516
f 157 514 432
f 514 174 511
f 432 511 84
f 514 511 432
f 172 516 503
f 516 174 514
f 503 514 157
f 516 514 503
f 59 435 277
f 435 158 438
f 277 438 115
f 435 438 277
f 158 436 450
f 436 85 448
f 450 448 161
f 436 448 450
f 115 449 278
f 449 161 447
f 278 447 73
f 449 447 278
f 158 450 438
f 450 161 449
f 438 449 115
f 450 449 438
f 85 440 481
f 440 159 483
f 481 483 168
f 440 483 481
f 159 439 464
f 439 64 461
f 464 461 164
f 439 461 464
f 168 485 482
f 485 164 462
f 482 462 86
f 485 462 482
f 159 464 483
f 464 164 485
f 483 485 168
f 464 485 483
f 73 470 280
f 470 166 472
f 280 472 116
f 470 472 280
f 166 471 474
f 471 86 458
f 474 458 163
f 471 458 474
f 116 460 279
f 460 163 457
f 279 457 60
f 460 457 279
f 166 474 472
f 474 163 460
f 472 460 116
f 474 460 472
f 85 481 448
f 481 168 484
f 448 484 161
f 481 484 448
f 168 482 486
f 482 86 471
f 486 471 166
f 482 471 486
f 161 473 447
f 473 166 470
f 447 470 73
f 473 470 447
f 168 486 484
f 486 166 473
f 484 473 161
f 486 473 484
f 57 225 601
f 225 101 603
f 601 603 196
f 225 603 601
f 101 226 609
f 226 69 607
f 609 607 198
f 226 607 609
f 196 610 602
f 610 198 608
f 602 608 93
f 610 608 602
f 101 609 603
f 609 198 610
f 603 610 196
f 609 610 603
f 69 229 622
f 229 102 624
f 622 624 202
f 229 624 622
f 102 228 617
f 228 59 615
f 617 615 200
f 228 615 617
f 202 626 623
f 626 200 616
f 623 616 94
f 626 616 623
f 102 617 624
f 617 200 626
f 624 626 202
f 617 626 624
f 93 631 606
f 631 204 633
f 606 633 197
f 631 633 606
f 204 632 635
f 632 94 620
f 635 620 201
f 632 620 635
f 197 621 605
f 621 201 619
f 605 619 66
f 621 619 605
f 204 635 633
f 635 201 621
f 633 621 197
f 635 621 633
f 69 622 607
f 622 202 625
f 607 625 198
f 622 625 607
f 202 623 636
f 623 94 632
f 636 632 204
f 623 632 636
f 198 634 608
f 634 204 631
f 608 631 93
f 634 631 608
f 202 636 625
f 636 204 634
f 625 634 198
f 636 634 625
f 61 284 535
f 284 118 537
f 535 537 181
f 284 537 535
f 118 285 544
f 285 74 542
f 544 542 183
f 285 542 544
f 181 546 536
f 546 183 543
f 536 543 90
f 546 543 536
f 118 544 537
f 544 183 546
f 537 546 181
f 544 546 537
f 74 282 531
f 282 117 533
f 531 533 180
f 282 533 531
f 117 281 528
f 281 57 526
f 528 526 178
f 281 526 528
f 180 534 532
f 534 178 527
f 532 527 89
f 534 527 532
f 117 528 533
f 528 178 534
f 533 534 180
f 528 534 533
f 90 552 540
f 552 185 555
f 540 555 182
f 552 555 540
f 185 551 553
f 551 89 530
f 553 530 179
f 551 530 553
f 182 541 539
f 541 179 529
f 539 529 65
f 541 529 539
f 185 553 555
f 553 179 541
f 555 541 182
f 553 541 555
f 74 531 542
f 531 180 545
f 542 545 183
f 531 545 542
f 180 532 554
f 532 89 551
f 554 551 185
f 532 551 554
f 183 556 543
f 556 185 552
f 543 552 90
f 556 552 543
f 180 554 545
f 554 185 556
f 545 556 183
f 554 556 545
f 63 359 381
f 359 140 384
f 381 384 145
f 359 384 381
f 140 360 403
f 360 81 401
f 403 401 149
f 360 401 403
f 145 405 382
f 405 149 402
f 382 402 82
f 405 402 382
f 140 403 384
f 403 149 405
f 384 405 145
f 403 405 384
f 81 356 368
f 356 139 370
f 368 370 142
f 356 370 368
f 139 355 358
f 355 61 333
f 358 333 131
f 355 333 358
f 142 369 367
f 369 131 334
f 367 334 78
f 369 334 367
f 139 358 370
f 358 131 369
f 370 369 142
f 358 369 370
f 82 391 378
f 391 147 394
f 378 394 144
f 391 394 378
f 147 390 392
f 390 78 336
f 392 336 132
f 390 336 392
f 144 380 377
f 380 132 335
f 377 335 62
f 380 335 377
f 147 392 394
f 392 132 380
f 394 380 144
f 392 380 394
f 81 368 401
f 368 142 404
f 401 404 149
f 368 404 401
f 142 367 393
f 367 78 390
f 393 390 147
f 367 390 393
f 149 406 402
f 406 147 391
f 402 391 82
f 406 391 402
f 142 393 404
f 393 147 406
f 404 406 149
f 393 406 404
f 64 491 411
f 491 170 493
f 411 493 151
f 491 493 411
f 170 492 509
f 492 87 506
f 509 506 173
f 492 506 509
f 151 507 412
f 507 173 505
f 412 505 83
f 507 505 412
f 170 509 493
f 509 173 507
f 493 507 151
f 509 507 493
f 87 488 496
f 488 169 499
f 496 499 171
f 488 499 496
f 169 487 489
f 487 63 340
f 489 340 134
f 487 340 489
f 171 497 495
f 497 134 341
f 495 341 79
f 497 341 495
f 169 489 499
f 489 134 497
f 499 497 171
f 489 497 499
f 83 418 408
f 418 153 420
f 408 420 150
f 418 420 408
f 153 417 419
f 417 79 338
f 419 338 133
f 417 338 419
f 150 410 407
f 410 133 337
f 407 337 56
f 410 337 407
f 153 419 420
f 419 133 410
f 420 410 150
f 419 410 420
f 87 496 506
f 496 171 510
f 506 510 173
f 496 510 506
f 171 495 498
f 495 79 417
f 498 417 153
f 495 417 498
f 173 508 505
f 508 153 418
f 505 418 83
f 508 418 505
f 171 498 510
f 498 153 508
f 510 508 173
f 498 508 510