# https://github.com/mikedh/trimesh
v 0.02671096 -0.01201996 -0.01657532
v 0.02671096 0.00189478 -0.02030376
v -0.00274993 -0.00408852 -0.00720092
v 0.01614860 0.00722275 -0.00064179
v 0.01383382 0.00449905 0.00724985
v -0.00117721 0.00482548 0.00720141
v -0.00117721 0.00482557 -0.00720310
v 0.02893345 0.00189478 -0.02030376
v 0.03173186 0.00234779 -0.01861308
v 0.03282834 0.00315346 -0.01560628
v 0.03233732 0.00371450 -0.01351244
v 0.02079294 0.00696482 -0.00157070
v -0.00486166 0.00035604 -0.00720146
v -0.00488751 -0.00015727 0.00720119
v -0.00228107 -0.00443264 0.00720657
v 0.01061084 -0.00893047 0.00790438
v 0.03137006 -0.01167845 -0.01530081
v 0.03282834 -0.01076127 -0.01187784
v -0.00409007 0.00272991 -0.00720191
v -0.00400516 0.00285510 0.00720528
v 0.03174294 -0.00995421 -0.00886583
v 0.02154607 -0.00666192 0.00195234
v 0.00946637 -0.00873637 -0.00680024
v 0.01505951 0.00284179 0.00743186
f 8 2 7
f 9 8 7
f 10 9 7
f 11 10 7
f 12 11 7
f 4 12 7
f 3 2 1
f 6 5 4
f 7 6 4
f 2 3 13
f 3 14 13
f 16 14 15
f 14 3 15
f 9 18 17
f 16 1 17
f 18 16 17
f 4 5 12
f 19 13 14
f 20 19 14
f 16 18 21
f 22 16 21
f 18 11 21
f 1 16 23
f 3 1 23
f 15 3 23
f 16 15 23
f 6 7 19
f 20 6 19
f 2 13 19
f 7 2 19
f 12 5 24
f 11 12 24
f 21 11 24
f 22 21 24
f 16 22 24
f 14 16 24
f 20 14 24
f 6 20 24
f 5 6 24
f 18 9 10
f 11 18 10
f 1 2 8
f 17 1 8
f 9 17 8