# https://github.com/mikedh/trimesh

o geometry_0
v -0.00352900 -0.03323500 -0.05837100
v -0.01131200 -0.03061000 -0.07345800
v -0.00640600 -0.02896200 -0.07578200
v 0.01524800 -0.02701000 -0.06896400
v 0.01286800 -0.02092200 -0.07421600
v -0.00812500 -0.02634300 -0.07847900
v -0.00920500 -0.01690900 -0.08053900
v -0.02942700 0.01915800 0.01624300
v -0.00112800 0.00976700 -0.01694300
v 0.01022000 -0.00293100 -0.06762000
v -0.05003600 -0.00022200 -0.06556000
v -0.03035100 -0.01622200 -0.07993700
v -0.03104200 -0.02609600 -0.07753600
v -0.05128600 -0.02270900 -0.07330300
v -0.05079200 -0.01214800 -0.07558600
v -0.02069100 -0.02566600 0.02853800
v 0.01660300 -0.02793300 -0.05390500
v -0.01123500 -0.02089900 0.02982600
v -0.00856400 -0.01026000 -0.07846200
v 0.01263800 -0.01041700 -0.07428200
v -0.02990700 -0.00808900 -0.07718500
v -0.03327800 -0.02914300 -0.07301000
v -0.05053400 -0.01387500 0.02651400
v -0.05850400 -0.01350800 0.00690800
v -0.04615200 -0.01995100 0.02264900
v -0.04520900 -0.01899900 0.02746000
v -0.05263200 0.00099100 0.02674500
v -0.01192100 0.01680500 0.02748200
v -0.00384900 0.01026500 0.02800600
v 0.00722500 0.00712100 -0.01673600
v -0.02067200 0.01991900 0.02516800
v -0.02063800 0.01826400 0.02974800
v 0.01139300 0.00305900 -0.01657800
v 0.01224100 -0.00876800 0.00228300
v 0.01910500 -0.01115000 -0.03420900
v 0.01695900 -0.00279900 -0.03711100
v -0.04635900 0.01057400 0.02739500
v -0.03908300 0.01627000 0.02738000
v -0.05430700 0.01029600 0.01199200
v -0.02835400 0.01923700 0.02846800
v 0.01831700 -0.01577900 -0.03087100
v 0.02013700 -0.02252600 -0.06272300
v 0.01827100 -0.02683200 -0.06428700
v 0.01818200 -0.02408600 -0.06830200
v -0.00064200 0.00527300 0.02870800
v 0.00343900 0.00145300 0.02267000
v -0.05361700 -0.02844300 -0.05661100
v -0.03217700 -0.03245100 -0.05916100
v -0.02964200 -0.02616500 0.02779200
v -0.05656600 -0.02699500 -0.05184200
v -0.05972800 -0.02512500 -0.05384400
v -0.05840600 -0.02430000 -0.06561200
v -0.04707200 0.01417800 0.01177800
v -0.05771200 0.00807900 -0.00509600
v -0.05391300 -0.00325900 -0.06661900
v -0.06145400 0.00259500 -0.01205500
v -0.06223000 -0.00608300 0.00032900
v -0.06087800 -0.00761000 0.00886000
v -0.06030000 -0.00384000 0.01228100
v -0.06158500 0.00191500 0.00384400
v -0.05425400 -0.02578300 -0.06822900
v -0.05705300 -0.02190800 -0.06977800
v -0.05374600 -0.02113200 -0.07287500
v -0.01224800 0.01560700 0.02983600
v -0.00413500 0.00670700 0.03105100
v -0.05329200 -0.00660500 0.02598000
v -0.01445800 -0.03385300 -0.06019200
v 0.01970900 -0.01789500 -0.06427300
v 0.01537500 -0.00896200 -0.07003900
v 0.01457600 -0.00594100 -0.06683100
v 0.01589200 -0.01314100 -0.07155800
v -0.03770100 -0.02375300 0.02747400
v -0.03043100 -0.02575000 0.02882100
v 0.01821800 -0.02518100 -0.04901600
v 0.01084100 -0.01549300 -0.00168200
v -0.06156800 -0.01494900 -0.05179900
v -0.05996400 -0.02099900 -0.06325700
v -0.06258400 -0.01188800 -0.03108200
v -0.05958400 -0.00682300 -0.05184400
v -0.05681200 -0.00778100 -0.06577000
v -0.05903200 -0.01612500 -0.06674900
v -0.02064600 -0.02481500 0.02971200
v 0.00946900 -0.00666000 0.01152000
v 0.00139900 -0.00121700 0.02811300
v 0.01349800 -0.02480700 -0.07252200
v -0.00760200 -0.01680600 0.03084700
v 0.00268700 -0.01227300 0.02310700
v 0.00186900 -0.00597800 0.02726100
v -0.00270500 -0.00756900 0.03119800
v -0.05976900 0.00627000 0.00079000
v 0.00969200 -0.00525300 -0.07130200
v -0.06103300 -0.01590600 -0.01810900
v 0.00931300 -0.01972600 -0.00799400
v 0.01252800 0.00121500 -0.03832000
v -0.05945400 0.00245700 0.01096100
v -0.00137800 -0.00094400 0.03090300
v 0.01391000 -0.01472300 -0.07439400
v 0.01182500 -0.00490400 -0.07018800
v 0.01054700 -0.01190500 0.00561500
v -0.06193600 -0.00241200 -0.02719100
v -0.05088700 0.00572500 0.02642300
v 0.00286600 -0.01483700 0.01912500
v -0.05844500 -0.01852900 -0.01231000
v -0.02975800 -0.00518400 -0.07408900
v -0.04980400 -0.00171500 -0.06935000
v -0.04959200 -0.00488500 -0.07296100
v -0.05426500 -0.00759600 -0.07134100
v -0.05452800 -0.01090100 -0.07246700
v -0.05137300 -0.00883600 -0.07459600
v -0.02561000 0.02019500 0.02259500
v -0.05927700 -0.02177000 -0.06639400
f 89 65 32
f 89 32 37
f 89 37 27
f 89 27 26
f 89 26 73
f 89 73 82
f 89 82 86
f 1 2 3
f 1 3 4
f 5 6 7
f 8 9 10
f 8 10 11
f 12 7 6
f 12 6 13
f 12 13 14
f 12 14 15
f 16 17 18
f 16 1 17
f 19 20 7
f 19 7 12
f 19 12 21
f 22 13 2
f 23 24 25
f 23 25 26
f 26 27 23
f 28 29 30
f 28 30 31
f 28 31 32
f 33 30 29
f 33 34 35
f 33 35 36
f 37 38 39
f 40 38 37
f 40 37 32
f 40 32 31
f 41 35 34
f 41 42 35
f 43 4 44
f 43 44 42
f 43 17 1
f 43 1 4
f 33 29 45
f 33 45 46
f 47 48 49
f 47 50 51
f 47 51 52
f 53 39 38
f 53 8 11
f 53 11 54
f 53 54 39
f 55 56 54
f 55 54 11
f 57 58 59
f 57 59 60
f 61 14 13
f 61 13 22
f 22 48 47
f 22 47 61
f 61 47 52
f 61 52 62
f 61 62 63
f 61 63 14
f 64 65 29
f 64 29 28
f 64 28 32
f 64 32 65
f 66 27 59
f 66 23 27
f 9 31 30
f 9 30 10
f 67 2 1
f 67 1 16
f 67 16 49
f 67 49 48
f 67 48 22
f 67 22 2
f 68 69 70
f 68 70 36
f 68 36 35
f 68 35 42
f 68 42 44
f 68 44 71
f 72 26 25
f 72 25 50
f 49 73 72
f 49 72 50
f 49 50 47
f 74 42 41
f 74 41 75
f 74 17 43
f 74 43 42
f 76 77 51
f 76 51 78
f 76 79 80
f 76 80 81
f 82 16 18
f 83 34 33
f 83 33 46
f 83 46 84
f 45 84 46
f 45 29 65
f 85 6 5
f 85 5 44
f 85 44 4
f 86 87 88
f 86 88 89
f 86 82 18
f 90 39 54
f 90 54 56
f 90 56 60
f 91 20 19
f 3 2 13
f 3 13 6
f 3 6 85
f 3 85 4
f 92 57 78
f 92 78 51
f 93 17 74
f 93 74 75
f 93 18 17
f 94 10 30
f 94 30 33
f 94 33 36
f 94 36 70
f 94 70 10
f 58 57 92
f 58 92 24
f 58 24 23
f 58 23 66
f 58 66 59
f 73 49 16
f 73 16 82
f 73 26 72
f 39 90 60
f 39 60 95
f 95 60 59
f 95 59 27
f 96 84 45
f 96 45 65
f 96 65 89
f 97 71 44
f 97 44 5
f 97 5 7
f 97 7 20
f 97 20 71
f 98 20 91
f 98 91 10
f 98 10 70
f 77 76 81
f 99 75 41
f 99 41 34
f 99 34 83
f 99 83 87
f 100 79 76
f 100 76 78
f 78 57 60
f 78 60 56
f 78 56 100
f 56 55 79
f 56 79 100
f 101 27 37
f 101 37 39
f 101 39 95
f 101 95 27
f 102 18 93
f 102 93 75
f 102 75 99
f 102 99 87
f 102 87 86
f 102 86 18
f 103 24 92
f 103 92 51
f 103 51 50
f 103 50 25
f 103 25 24
f 91 19 21
f 91 21 104
f 69 20 98
f 69 98 70
f 69 68 71
f 69 71 20
f 105 11 10
f 105 10 91
f 105 91 104
f 105 104 21
f 105 21 106
f 105 106 107
f 105 107 55
f 105 55 11
f 80 79 55
f 80 55 107
f 80 107 81
f 88 87 83
f 88 83 84
f 88 84 96
f 88 96 89
f 108 62 81
f 108 81 107
f 109 107 106
f 109 106 21
f 109 21 12
f 109 12 15
f 109 15 108
f 109 108 107
f 38 40 110
f 38 110 8
f 38 8 53
f 110 40 31
f 110 31 9
f 110 9 8
f 63 62 108
f 63 108 15
f 63 15 14
f 52 51 77
f 52 77 111
f 111 77 81
f 111 81 62
f 111 62 52