# https://github.com/mikedh/trimesh

o geometry_0
v -0.00907893 -0.00154646 -0.00082211
v -0.00558572 -0.01155578 -0.00330856
v -0.00541838 -0.01204615 0.01109322
v -0.00908723 0.00040994 0.00890809
v 0.01599692 0.00121351 0.01554187
v -0.00330778 -0.01366015 0.01086539
v 0.01150955 -0.01297331 0.01227641
v 0.04632885 0.02114558 0.01445666
v -0.00532499 0.00730117 0.00896689
v 0.04904829 0.02664558 0.00923636
v 0.05717060 0.02469668 0.01239156
v 0.04083609 0.00693596 -0.00860236
v 0.04637719 0.00310544 -0.00550594
v 0.00850959 -0.01396155 -0.00583175
v 0.00945649 -0.01856233 0.00525068
v 0.00864177 -0.01893355 0.00371962
v 0.04364600 -0.00252282 0.00123807
v 0.05028615 0.00081849 0.00175496
v 0.04496771 -0.00158837 0.00739906
v 0.06295328 0.02364364 -0.00264469
v 0.06222478 0.02082225 -0.00396507
v 0.05724179 0.02484306 -0.00450401
v 0.05285428 0.02073380 0.01533364
v 0.04504684 0.01133178 0.01617879
v 0.05712578 0.02742250 0.00866803
v 0.06484476 0.02116870 0.00954256
v 0.06642852 0.02240692 0.00468481
v -0.00812834 0.00417583 0.00905263
v -0.00733845 0.00553695 -0.00117977
v -0.00477226 0.00766766 -0.00096419
v 0.05980392 0.02033396 0.01345962
v 0.05693682 0.02861763 0.00342076
v 0.05386240 0.02864284 0.00161780
v 0.06612134 0.02294264 0.00106660
v 0.06500585 0.01784201 0.00153695
v 0.04913483 0.00916621 -0.00735547
v 0.06228107 0.01672961 0.01175464
v 0.06508281 0.01765008 0.00782287
v 0.01024050 -0.01667849 0.00939067
v 0.04637399 0.00143436 0.01098297
v 0.04099884 0.00102702 0.01306031
v 0.05135847 0.00215032 0.00659311
v 0.04616211 0.02697356 0.00413609
v 0.01216811 -0.00284518 -0.00744120
v 0.00910841 -0.00965027 -0.00735791
v -0.00432381 -0.01321601 -0.00291661
v 0.00833744 -0.01773838 -0.00151539
v 0.04724063 0.01275346 -0.00852397
v 0.03900554 0.01103585 -0.00870525
v 0.05117062 0.02085621 -0.00720847
v 0.05773370 0.01792280 -0.00618695
v 0.05303009 0.01409796 0.01540468
v 0.05770513 0.01337673 0.01308237
v 0.05189767 0.00789389 -0.00538836
v 0.05513805 0.00597828 0.00018715
v 0.05072130 0.02464271 -0.00531241
v 0.04660711 0.02483318 -0.00389648
v 0.04642238 0.00021754 -0.00245852
v 0.05574645 0.02752345 -0.00159622
v 0.04556589 0.00764977 0.01546593
v 0.05893503 0.00938941 0.00455741
v 0.05956294 0.01154816 0.00978508
v 0.06631789 0.01933282 0.00541237
v 0.04543254 0.02620342 -0.00049875
f 15 16 17
f 15 17 18
f 15 18 19
f 1 2 3
f 4 1 3
f 5 3 6
f 5 6 7
f 5 8 9
f 10 8 11
f 10 9 8
f 12 13 14
f 20 21 22
f 23 8 5
f 23 5 24
f 23 11 8
f 25 10 11
f 25 11 26
f 25 26 27
f 1 4 28
f 1 28 29
f 29 9 30
f 29 2 1
f 31 26 11
f 31 11 23
f 32 33 10
f 32 10 25
f 32 25 27
f 34 35 21
f 34 21 20
f 34 20 32
f 34 32 27
f 36 13 12
f 37 38 26
f 37 26 31
f 39 15 19
f 39 40 41
f 39 41 7
f 18 42 19
f 43 9 10
f 43 10 33
f 43 30 9
f 2 29 44
f 2 44 45
f 45 12 14
f 45 14 2
f 46 2 14
f 46 14 47
f 46 3 2
f 48 12 45
f 48 45 44
f 48 44 49
f 44 29 30
f 44 30 49
f 49 30 50
f 50 22 21
f 50 21 51
f 28 9 29
f 28 4 3
f 28 3 5
f 28 5 9
f 52 53 37
f 52 37 31
f 52 31 23
f 52 23 24
f 40 39 19
f 40 19 42
f 6 15 39
f 6 39 7
f 6 3 46
f 54 13 36
f 54 36 51
f 54 51 21
f 21 35 55
f 21 55 54
f 56 50 30
f 56 30 57
f 56 22 50
f 58 13 54
f 58 54 55
f 58 55 18
f 58 18 17
f 58 17 47
f 47 14 13
f 47 13 58
f 48 50 51
f 48 51 36
f 48 36 12
f 48 49 50
f 59 33 32
f 59 32 20
f 59 20 22
f 59 22 56
f 59 56 57
f 60 41 40
f 60 40 53
f 60 53 52
f 60 52 24
f 60 24 5
f 60 5 7
f 60 7 41
f 61 42 18
f 61 18 55
f 61 55 35
f 62 38 37
f 62 37 53
f 62 53 40
f 62 40 42
f 62 42 61
f 62 61 38
f 63 38 61
f 63 61 35
f 63 35 34
f 63 34 27
f 63 27 26
f 63 26 38
f 64 30 43
f 64 43 33
f 64 33 59
f 64 59 57
f 64 57 30
f 16 15 6
f 16 6 46
f 16 46 47
f 16 47 17