# https://github.com/mikedh/trimesh
v 0.00352900 -0.03323500 -0.05837100
v 0.01131200 -0.03061000 -0.07345800
v 0.00640600 -0.02896200 -0.07578200
v -0.01524800 -0.02701000 -0.06896400
v -0.01286800 -0.02092200 -0.07421600
v 0.00812500 -0.02634300 -0.07847900
v 0.00920500 -0.01690900 -0.08053900
v 0.02942700 0.01915800 0.01624300
v 0.00112800 0.00976700 -0.01694300
v -0.01022000 -0.00293100 -0.06762000
v 0.05003600 -0.00022200 -0.06556000
v 0.03035100 -0.01622200 -0.07993700
v 0.03104200 -0.02609600 -0.07753600
v 0.05128600 -0.02270900 -0.07330300
v 0.05079200 -0.01214800 -0.07558600
v 0.02069100 -0.02566600 0.02853800
v -0.01660300 -0.02793300 -0.05390500
v 0.01123500 -0.02089900 0.02982600
v 0.00856400 -0.01026000 -0.07846200
v -0.01263800 -0.01041700 -0.07428200
v 0.02990700 -0.00808900 -0.07718500
v 0.03327800 -0.02914300 -0.07301000
v 0.05053400 -0.01387500 0.02651400
v 0.05850400 -0.01350800 0.00690800
v 0.04615200 -0.01995100 0.02264900
v 0.04520900 -0.01899900 0.02746000
v 0.05263200 0.00099100 0.02674500
v 0.01192100 0.01680500 0.02748200
v 0.00384900 0.01026500 0.02800600
v -0.00722500 0.00712100 -0.01673600
v 0.02067200 0.01991900 0.02516800
v 0.02063800 0.01826400 0.02974800
v -0.01139300 0.00305900 -0.01657800
v -0.01224100 -0.00876800 0.00228300
v -0.01910500 -0.01115000 -0.03420900
v -0.01695900 -0.00279900 -0.03711100
v 0.04635900 0.01057400 0.02739500
v 0.03908300 0.01627000 0.02738000
v 0.05430700 0.01029600 0.01199200
v 0.02835400 0.01923700 0.02846800
v -0.01831700 -0.01577900 -0.03087100
v -0.02013700 -0.02252600 -0.06272300
v -0.01827100 -0.02683200 -0.06428700
v -0.01818200 -0.02408600 -0.06830200
v 0.00064200 0.00527300 0.02870800
v -0.00343900 0.00145300 0.02267000
v 0.05361700 -0.02844300 -0.05661100
v 0.03217700 -0.03245100 -0.05916100
v 0.02964200 -0.02616500 0.02779200
v 0.05656600 -0.02699500 -0.05184200
v 0.05972800 -0.02512500 -0.05384400
v 0.05840600 -0.02430000 -0.06561200
v 0.04707200 0.01417800 0.01177800
v 0.05771200 0.00807900 -0.00509600
v 0.05391300 -0.00325900 -0.06661900
v 0.06145400 0.00259500 -0.01205500
v 0.06223000 -0.00608300 0.00032900
v 0.06087800 -0.00761000 0.00886000
v 0.06030000 -0.00384000 0.01228100
v 0.06158500 0.00191500 0.00384400
v 0.05425400 -0.02578300 -0.06822900
v 0.05705300 -0.02190800 -0.06977800
v 0.05374600 -0.02113200 -0.07287500
v 0.01224800 0.01560700 0.02983600
v 0.00413500 0.00670700 0.03105100
v 0.05329200 -0.00660500 0.02598000
v 0.01445800 -0.03385300 -0.06019200
v -0.01970900 -0.01789500 -0.06427300
v -0.01537500 -0.00896200 -0.07003900
v -0.01457600 -0.00594100 -0.06683100
v -0.01589200 -0.01314100 -0.07155800
v 0.03770100 -0.02375300 0.02747400
v 0.03043100 -0.02575000 0.02882100
v -0.01821800 -0.02518100 -0.04901600
v -0.01084100 -0.01549300 -0.00168200
v 0.06156800 -0.01494900 -0.05179900
v 0.05996400 -0.02099900 -0.06325700
v 0.06258400 -0.01188800 -0.03108200
v 0.05958400 -0.00682300 -0.05184400
v 0.05681200 -0.00778100 -0.06577000
v 0.05903200 -0.01612500 -0.06674900
v 0.02064600 -0.02481500 0.02971200
v -0.00946900 -0.00666000 0.01152000
v -0.00139900 -0.00121700 0.02811300
v -0.01349800 -0.02480700 -0.07252200
v 0.00760200 -0.01680600 0.03084700
v -0.00268700 -0.01227300 0.02310700
v -0.00186900 -0.00597800 0.02726100
v 0.00270500 -0.00756900 0.03119800
v 0.05976900 0.00627000 0.00079000
v -0.00969200 -0.00525300 -0.07130200
v 0.06103300 -0.01590600 -0.01810900
v -0.00931300 -0.01972600 -0.00799400
v -0.01252800 0.00121500 -0.03832000
v 0.05945400 0.00245700 0.01096100
v 0.00137800 -0.00094400 0.03090300
v -0.01391000 -0.01472300 -0.07439400
v -0.01182500 -0.00490400 -0.07018800
v -0.01054700 -0.01190500 0.00561500
v 0.06193600 -0.00241200 -0.02719100
v 0.05088700 0.00572500 0.02642300
v -0.00286600 -0.01483700 0.01912500
v 0.05844500 -0.01852900 -0.01231000
v 0.02975800 -0.00518400 -0.07408900
v 0.04980400 -0.00171500 -0.06935000
v 0.04959200 -0.00488500 -0.07296100
v 0.05426500 -0.00759600 -0.07134100
v 0.05452800 -0.01090100 -0.07246700
v 0.05137300 -0.00883600 -0.07459600
v 0.02561000 0.02019500 0.02259500
v 0.05927700 -0.02177000 -0.06639400
f 32 65 89
f 37 32 89
f 27 37 89
f 26 27 89
f 73 26 89
f 82 73 89
f 86 82 89
f 3 2 1
f 4 3 1
f 7 6 5
f 10 9 8
f 11 10 8
f 6 7 12
f 13 6 12
f 14 13 12
f 15 14 12
f 18 17 16
f 17 1 16
f 7 20 19
f 12 7 19
f 21 12 19
f 2 13 22
f 25 24 23
f 26 25 23
f 23 27 26
f 30 29 28
f 31 30 28
f 32 31 28
f 29 30 33
f 35 34 33
f 36 35 33
f 39 38 37
f 37 38 40
f 32 37 40
f 31 32 40
f 34 35 41
f 35 42 41
f 44 4 43
f 42 44 43
f 1 17 43
f 4 1 43
f 45 29 33
f 46 45 33
f 49 48 47
f 51 50 47
f 52 51 47
f 38 39 53
f 11 8 53
f 54 11 53
f 39 54 53
f 54 56 55
f 11 54 55
f 59 58 57
f 60 59 57
f 13 14 61
f 22 13 61
f 47 48 22
f 61 47 22
f 52 47 61
f 62 52 61
f 63 62 61
f 14 63 61
f 29 65 64
f 28 29 64
f 32 28 64
f 65 32 64
f 59 27 66
f 27 23 66
f 30 31 9
f 10 30 9
f 1 2 67
f 16 1 67
f 49 16 67
f 48 49 67
f 22 48 67
f 2 22 67
f 70 69 68
f 36 70 68
f 35 36 68
f 42 35 68
f 44 42 68
f 71 44 68
f 25 26 72
f 50 25 72
f 72 73 49
f 50 72 49
f 47 50 49
f 41 42 74
f 75 41 74
f 43 17 74
f 42 43 74
f 51 77 76
f 78 51 76
f 80 79 76
f 81 80 76
f 18 16 82
f 33 34 83
f 46 33 83
f 84 46 83
f 46 84 45
f 65 29 45
f 5 6 85
f 44 5 85
f 4 44 85
f 88 87 86
f 89 88 86
f 18 82 86
f 54 39 90
f 56 54 90
f 60 56 90
f 19 20 91
f 13 2 3
f 6 13 3
f 85 6 3
f 4 85 3
f 78 57 92
f 51 78 92
f 74 17 93
f 75 74 93
f 17 18 93
f 30 10 94
f 33 30 94
f 36 33 94
f 70 36 94
f 10 70 94
f 92 57 58
f 24 92 58
f 23 24 58
f 66 23 58
f 59 66 58
f 16 49 73
f 82 16 73
f 72 26 73
f 60 90 39
f 95 60 39
f 59 60 95
f 27 59 95
f 45 84 96
f 65 45 96
f 89 65 96
f 44 71 97
f 5 44 97
f 7 5 97
f 20 7 97
f 71 20 97
f 91 20 98
f 10 91 98
f 70 10 98
f 81 76 77
f 41 75 99
f 34 41 99
f 83 34 99
f 87 83 99
f 76 79 100
f 78 76 100
f 60 57 78
f 56 60 78
f 100 56 78
f 79 55 56
f 100 79 56
f 37 27 101
f 39 37 101
f 95 39 101
f 27 95 101
f 93 18 102
f 75 93 102
f 99 75 102
f 87 99 102
f 86 87 102
f 18 86 102
f 92 24 103
f 51 92 103
f 50 51 103
f 25 50 103
f 24 25 103
f 21 19 91
f 104 21 91
f 98 20 69
f 70 98 69
f 71 68 69
f 20 71 69
f 10 11 105
f 91 10 105
f 104 91 105
f 21 104 105
f 106 21 105
f 107 106 105
f 55 107 105
f 11 55 105
f 55 79 80
f 107 55 80
f 81 107 80
f 83 87 88
f 84 83 88
f 96 84 88
f 89 96 88
f 81 62 108
f 107 81 108
f 106 107 109
f 21 106 109
f 12 21 109
f 15 12 109
f 108 15 109
f 107 108 109
f 110 40 38
f 8 110 38
f 53 8 38
f 31 40 110
f 9 31 110
f 8 9 110
f 108 62 63
f 15 108 63
f 14 15 63
f 77 51 52
f 111 77 52
f 81 77 111
f 62 81 111
f 52 62 111