# Created by Open3D 
# object name: cuboid_3_6
# number of vertices: 25
# number of triangles: 14
v -0.054 0.054 0
vn 0.00097752 0.999999 0.00097752
v 0.054 0.054 0.3
vn 0.00097752 0.999999 0.00097752
v 0.054 0.054 0
vn 0.00097752 0.999999 0.00097752
v -0.054 0.054 0.3
vn 0.00097752 0.999999 0.00097752
v -0.054 -0.054 0
vn -0.999999 0.00097752 0.00097752
v -0.054 -0.054 0.3
vn -0.999999 0.00097752 0.00097752
v -0.054 0.054 0
vn -0.999999 0.00097752 0.00097752
v -0.054 0.054 0.3
vn -0.999999 0.00097752 0.00097752
v -0.054 -0.054 0
vn 0.00097752 -0.999999 0.00097752
v 0.054 -0.054 0
vn 0.00097752 -0.999999 0.00097752
v -0.054 -0.054 0.3
vn 0.00097752 -0.999999 0.00097752
v 0.054 -0.054 0.3
vn 0.00097752 -0.999999 0.00097752
v 0.054 -0.054 0
vn 0.999999 0.00097752 0.00097752
v 0.054 0.054 0
vn 0.999999 0.00097752 0.00097752
v 0.054 0.054 0.3
vn 0.999999 0.00097752 0.00097752
v 0.054 -0.054 0.3
vn 0.999999 0.00097752 0.00097752
v -0.054 -0.054 0.3
vn 0.00097752 0.00097752 0.999999
v 0.054 -0.054 0.3
vn 0.00097752 0.00097752 0.999999
v 0.054 0.054 0.3
vn 0.00097752 0.00097752 0.999999
v -0.054 0.054 0.3
vn 0.00097752 0.00097752 0.999999
v -0.054 -0.054 0
vn 0.00097752 0.00097752 -0.999999
v 0 0 0
vn 0.00097752 0.00097752 -0.999999
v 0.054 -0.054 0
vn 0.00097752 0.00097752 -0.999999
v 0.054 0.054 0
vn 0.00097752 0.00097752 -0.999999
v -0.054 0.054 0
vn 0.00097752 0.00097752 -0.999999
f 1//1 2//2 3//3
f 1//1 4//4 2//2
f 5//5 6//6 7//7
f 6//6 8//8 7//7
f 9//9 10//10 11//11
f 10//10 12//12 11//11
f 13//13 14//14 15//15
f 13//13 15//15 16//16
f 17//17 18//18 19//19
f 17//17 19//19 20//20
f 21//21 22//22 23//23
f 22//22 24//24 23//23
f 21//21 25//25 22//22
f 22//22 25//25 24//24
