# Created by Open3D 
# object name: cylinder
# number of vertices: 482
# number of triangles: 400
v 0 0 0.3
vn -0 -0 1
v 0.09 0 0.3
vn -0 -0 1
v 0.088892 0.014079 0.3
vn -0 -0 1
v 0 -0 0
vn -0 -0 -1
v 0.088892 0.014079 0
vn -0 -0 -1
v 0.09 -0 0
vn -0 -0 -1
v 0.085595 0.027812 0.3
vn -0 -0 1
v 0.085595 0.027812 0
vn -0 -0 -1
v 0.080191 0.040859 0.3
vn -0 -0 1
v 0.080191 0.040859 0
vn -0 -0 -1
v 0.072811 0.052901 0.3
vn -0 -0 1
v 0.072811 0.0529 0
vn -0 -0 -1
v 0.063639 0.06364 0.3
vn -0 -0 1
v 0.063639 0.063639 0
vn -0 -0 -1
v 0.052901 0.072812 0.3
vn -0 -0 1
v 0.052901 0.072811 0
vn -0 -0 -1
v 0.040859 0.080191 0.3
vn -0 -0 1
v 0.040859 0.08019 0
vn -0 -0 -1
v 0.027812 0.085595 0.3
vn -0 -0 1
v 0.027812 0.085595 0
vn -0 -0 -1
v 0.014079 0.088892 0.3
vn -0 -0 1
v 0.014079 0.088892 0
vn -0 -0 -1
v 0 0.09 0.3
vn -0 -0 1
v 0 0.09 0
vn -0 -0 -1
v -0.014079 0.088892 0.3
vn -0 -0 1
v -0.014079 0.088892 0
vn -0 -0 -1
v -0.027812 0.085595 0.3
vn -0 -0 1
v -0.027812 0.085595 0
vn -0 -0 -1
v -0.040859 0.080191 0.3
vn -0 -0 1
v -0.040859 0.08019 0
vn -0 -0 -1
v -0.052901 0.072812 0.3
vn -0 -0 1
v -0.052901 0.072811 0
vn -0 -0 -1
v -0.063639 0.06364 0.3
vn -0 -0 1
v -0.063639 0.063639 0
vn -0 -0 -1
v -0.072811 0.052901 0.3
vn -0 -0 1
v -0.072811 0.0529 0
vn -0 -0 -1
v -0.080191 0.040859 0.3
vn -0 -0 1
v -0.080191 0.040859 0
vn -0 -0 -1
v -0.085595 0.027812 0.3
vn -0 -0 1
v -0.085595 0.027812 0
vn -0 -0 -1
v -0.088892 0.014079 0.3
vn -0 -0 1
v -0.088892 0.014079 0
vn -0 -0 -1
v -0.09 0 0.3
vn -0 -0 1
v -0.09 -0 0
vn -0 -0 -1
v -0.088892 -0.014079 0.3
vn -0 -0 1
v -0.088892 -0.014079 0
vn -0 -0 -1
v -0.085595 -0.027812 0.3
vn -0 -0 1
v -0.085595 -0.027812 0
vn -0 -0 -1
v -0.080191 -0.040859 0.3
vn -0 -0 1
v -0.080191 -0.040859 0
vn -0 -0 -1
v -0.072811 -0.0529 0.3
vn -0 -0 1
v -0.072811 -0.052901 0
vn -0 -0 -1
v -0.063639 -0.063639 0.3
vn -0 -0 1
v -0.063639 -0.06364 0
vn -0 -0 -1
v -0.052901 -0.072811 0.3
vn -0 -0 1
v -0.052901 -0.072812 0
vn -0 -0 -1
v -0.040859 -0.08019 0.3
vn -0 -0 1
v -0.040859 -0.080191 0
vn -0 -0 -1
v -0.027812 -0.085595 0.3
vn -0 -0 1
v -0.027812 -0.085595 0
vn -0 -0 -1
v -0.014079 -0.088892 0.3
vn -0 -0 1
v -0.014079 -0.088892 0
vn -0 -0 -1
v -0 -0.09 0.3
vn -0 -0 1
v -0 -0.09 0
vn -0 -0 -1
v 0.014079 -0.088892 0.3
vn -0 -0 1
v 0.014079 -0.088892 0
vn -0 -0 -1
v 0.027812 -0.085595 0.3
vn -0 -0 1
v 0.027812 -0.085595 0
vn -0 -0 -1
v 0.040859 -0.08019 0.3
vn -0 -0 1
v 0.040859 -0.080191 0
vn -0 -0 -1
v 0.052901 -0.072811 0.3
vn -0 -0 1
v 0.052901 -0.072812 0
vn -0 -0 -1
v 0.063639 -0.063639 0.3
vn -0 -0 1
v 0.063639 -0.06364 0
vn -0 -0 -1
v 0.072811 -0.0529 0.3
vn -0 -0 1
v 0.072811 -0.052901 0
vn -0 -0 -1
v 0.080191 -0.040859 0.3
vn -0 -0 1
v 0.080191 -0.040859 0
vn -0 -0 -1
v 0.085595 -0.027812 0.3
vn -0 -0 1
v 0.085595 -0.027812 0
vn -0 -0 -1
v 0.088892 -0.014079 0.3
vn -0 -0 1
v 0.088892 -0.014079 0
vn -0 -0 -1
v 0.09 0 0.225
vn 0.9969 0.0785 -0
v 0.088892 0.014079 0.3
vn 0.9969 0.0785 -0
v 0.09 0 0.3
vn 0.9969 0.0785 -0
v 0.088892 0.014079 0.225
vn 0.9969 0.0785 -0
v 0.088892 0.014079 0.225
vn 0.9724 0.2335 -0
v 0.085595 0.027812 0.3
vn 0.9724 0.2335 -0
v 0.088892 0.014079 0.3
vn 0.9724 0.2335 -0
v 0.085595 0.027812 0.225
vn 0.9724 0.2335 -0
v 0.085595 0.027812 0.225
vn 0.9239 0.3827 -0
v 0.080191 0.040859 0.3
vn 0.9239 0.3827 -0
v 0.085595 0.027812 0.3
vn 0.9239 0.3827 -0
v 0.080191 0.040859 0.225
vn 0.9239 0.3827 -0
v 0.080191 0.040859 0.225
vn 0.8526 0.5225 -0
v 0.072811 0.052901 0.3
vn 0.8526 0.5225 -0
v 0.080191 0.040859 0.3
vn 0.8526 0.5225 -0
v 0.072811 0.052901 0.225
vn 0.8526 0.5225 -0
v 0.072811 0.052901 0.225
vn 0.7604 0.6494 -0
v 0.063639 0.06364 0.3
vn 0.7604 0.6494 -0
v 0.072811 0.052901 0.3
vn 0.7604 0.6494 -0
v 0.063639 0.06364 0.225
vn 0.7604 0.6494 -0
v 0.063639 0.06364 0.225
vn 0.6494 0.7604 -0
v 0.052901 0.072812 0.3
vn 0.6494 0.7604 -0
v 0.063639 0.06364 0.3
vn 0.6494 0.7604 -0
v 0.052901 0.072812 0.225
vn 0.6494 0.7604 -0
v 0.052901 0.072812 0.225
vn 0.5225 0.8526 -0
v 0.040859 0.080191 0.3
vn 0.5225 0.8526 -0
v 0.052901 0.072812 0.3
vn 0.5225 0.8526 -0
v 0.040859 0.080191 0.225
vn 0.5225 0.8526 -0
v 0.040859 0.080191 0.225
vn 0.3827 0.9239 -0
v 0.027812 0.085595 0.3
vn 0.3827 0.9239 -0
v 0.040859 0.080191 0.3
vn 0.3827 0.9239 -0
v 0.027812 0.085595 0.225
vn 0.3827 0.9239 -0
v 0.027812 0.085595 0.225
vn 0.2335 0.9724 -0
v 0.014079 0.088892 0.3
vn 0.2335 0.9724 -0
v 0.027812 0.085595 0.3
vn 0.2335 0.9724 -0
v 0.014079 0.088892 0.225
vn 0.2335 0.9724 -0
v 0.014079 0.088892 0.225
vn 0.0785 0.9969 -0
v 0 0.09 0.3
vn 0.0785 0.9969 -0
v 0.014079 0.088892 0.3
vn 0.0785 0.9969 -0
v 0 0.09 0.225
vn 0.0785 0.9969 -0
v 0 0.09 0.225
vn -0.0785 0.9969 -0
v -0.014079 0.088892 0.3
vn -0.0785 0.9969 -0
v 0 0.09 0.3
vn -0.0785 0.9969 -0
v -0.014079 0.088892 0.225
vn -0.0785 0.9969 -0
v -0.014079 0.088892 0.225
vn -0.2335 0.9724 -0
v -0.027812 0.085595 0.3
vn -0.2335 0.9724 -0
v -0.014079 0.088892 0.3
vn -0.2335 0.9724 -0
v -0.027812 0.085595 0.225
vn -0.2335 0.9724 -0
v -0.027812 0.085595 0.225
vn -0.3827 0.9239 -0
v -0.040859 0.080191 0.3
vn -0.3827 0.9239 -0
v -0.027812 0.085595 0.3
vn -0.3827 0.9239 -0
v -0.040859 0.080191 0.225
vn -0.3827 0.9239 -0
v -0.040859 0.080191 0.225
vn -0.5225 0.8526 -0
v -0.052901 0.072812 0.3
vn -0.5225 0.8526 -0
v -0.040859 0.080191 0.3
vn -0.5225 0.8526 -0
v -0.052901 0.072812 0.225
vn -0.5225 0.8526 -0
v -0.052901 0.072812 0.225
vn -0.6494 0.7604 -0
v -0.063639 0.06364 0.3
vn -0.6494 0.7604 -0
v -0.052901 0.072812 0.3
vn -0.6494 0.7604 -0
v -0.063639 0.06364 0.225
vn -0.6494 0.7604 -0
v -0.063639 0.06364 0.225
vn -0.7604 0.6494 -0
v -0.072811 0.052901 0.3
vn -0.7604 0.6494 -0
v -0.063639 0.06364 0.3
vn -0.7604 0.6494 -0
v -0.072811 0.052901 0.225
vn -0.7604 0.6494 -0
v -0.072811 0.052901 0.225
vn -0.8526 0.5225 -0
v -0.080191 0.040859 0.3
vn -0.8526 0.5225 -0
v -0.072811 0.052901 0.3
vn -0.8526 0.5225 -0
v -0.080191 0.040859 0.225
vn -0.8526 0.5225 -0
v -0.080191 0.040859 0.225
vn -0.9239 0.3827 -0
v -0.085595 0.027812 0.3
vn -0.9239 0.3827 -0
v -0.080191 0.040859 0.3
vn -0.9239 0.3827 -0
v -0.085595 0.027812 0.225
vn -0.9239 0.3827 -0
v -0.085595 0.027812 0.225
vn -0.9724 0.2335 -0
v -0.088892 0.014079 0.3
vn -0.9724 0.2335 -0
v -0.085595 0.027812 0.3
vn -0.9724 0.2335 -0
v -0.088892 0.014079 0.225
vn -0.9724 0.2335 -0
v -0.088892 0.014079 0.225
vn -0.9969 0.0785 -0
v -0.09 0 0.3
vn -0.9969 0.0785 -0
v -0.088892 0.014079 0.3
vn -0.9969 0.0785 -0
v -0.09 0 0.225
vn -0.9969 0.0785 -0
v -0.09 0 0.225
vn -0.9969 -0.0785 -0
v -0.088892 -0.014079 0.3
vn -0.9969 -0.0785 -0
v -0.09 0 0.3
vn -0.9969 -0.0785 -0
v -0.088892 -0.014079 0.225
vn -0.9969 -0.0785 -0
v -0.088892 -0.014079 0.225
vn -0.9724 -0.2335 -0
v -0.085595 -0.027812 0.3
vn -0.9724 -0.2335 -0
v -0.088892 -0.014079 0.3
vn -0.9724 -0.2335 -0
v -0.085595 -0.027812 0.225
vn -0.9724 -0.2335 -0
v -0.085595 -0.027812 0.225
vn -0.9239 -0.3827 -0
v -0.080191 -0.040859 0.3
vn -0.9239 -0.3827 -0
v -0.085595 -0.027812 0.3
vn -0.9239 -0.3827 -0
v -0.080191 -0.040859 0.225
vn -0.9239 -0.3827 -0
v -0.080191 -0.040859 0.225
vn -0.8526 -0.5225 -0
v -0.072811 -0.0529 0.3
vn -0.8526 -0.5225 -0
v -0.080191 -0.040859 0.3
vn -0.8526 -0.5225 -0
v -0.072811 -0.0529 0.225
vn -0.8526 -0.5225 -0
v -0.072811 -0.0529 0.225
vn -0.7604 -0.6494 -0
v -0.063639 -0.063639 0.3
vn -0.7604 -0.6494 -0
v -0.072811 -0.0529 0.3
vn -0.7604 -0.6494 -0
v -0.063639 -0.063639 0.225
vn -0.7604 -0.6494 -0
v -0.063639 -0.063639 0.225
vn -0.6494 -0.7604 -0
v -0.052901 -0.072811 0.3
vn -0.6494 -0.7604 -0
v -0.063639 -0.063639 0.3
vn -0.6494 -0.7604 -0
v -0.052901 -0.072811 0.225
vn -0.6494 -0.7604 -0
v -0.052901 -0.072811 0.225
vn -0.5225 -0.8526 -0
v -0.040859 -0.08019 0.3
vn -0.5225 -0.8526 -0
v -0.052901 -0.072811 0.3
vn -0.5225 -0.8526 -0
v -0.040859 -0.08019 0.225
vn -0.5225 -0.8526 -0
v -0.040859 -0.08019 0.225
vn -0.3827 -0.9239 -0
v -0.027812 -0.085595 0.3
vn -0.3827 -0.9239 -0
v -0.040859 -0.08019 0.3
vn -0.3827 -0.9239 -0
v -0.027812 -0.085595 0.225
vn -0.3827 -0.9239 -0
v -0.027812 -0.085595 0.225
vn -0.2335 -0.9724 -0
v -0.014079 -0.088892 0.3
vn -0.2335 -0.9724 -0
v -0.027812 -0.085595 0.3
vn -0.2335 -0.9724 -0
v -0.014079 -0.088892 0.225
vn -0.2335 -0.9724 -0
v -0.014079 -0.088892 0.225
vn -0.0785 -0.9969 -0
v -0 -0.09 0.3
vn -0.0785 -0.9969 -0
v -0.014079 -0.088892 0.3
vn -0.0785 -0.9969 -0
v -0 -0.09 0.225
vn -0.0785 -0.9969 -0
v -0 -0.09 0.225
vn 0.0785 -0.9969 -0
v 0.014079 -0.088892 0.3
vn 0.0785 -0.9969 -0
v -0 -0.09 0.3
vn 0.0785 -0.9969 -0
v 0.014079 -0.088892 0.225
vn 0.0785 -0.9969 -0
v 0.014079 -0.088892 0.225
vn 0.2335 -0.9724 -0
v 0.027812 -0.085595 0.3
vn 0.2335 -0.9724 -0
v 0.014079 -0.088892 0.3
vn 0.2335 -0.9724 -0
v 0.027812 -0.085595 0.225
vn 0.2335 -0.9724 -0
v 0.027812 -0.085595 0.225
vn 0.3827 -0.9239 -0
v 0.040859 -0.08019 0.3
vn 0.3827 -0.9239 -0
v 0.027812 -0.085595 0.3
vn 0.3827 -0.9239 -0
v 0.040859 -0.08019 0.225
vn 0.3827 -0.9239 -0
v 0.040859 -0.08019 0.225
vn 0.5225 -0.8526 -0
v 0.052901 -0.072811 0.3
vn 0.5225 -0.8526 -0
v 0.040859 -0.08019 0.3
vn 0.5225 -0.8526 -0
v 0.052901 -0.072811 0.225
vn 0.5225 -0.8526 -0
v 0.052901 -0.072811 0.225
vn 0.6494 -0.7604 -0
v 0.063639 -0.063639 0.3
vn 0.6494 -0.7604 -0
v 0.052901 -0.072811 0.3
vn 0.6494 -0.7604 -0
v 0.063639 -0.063639 0.225
vn 0.6494 -0.7604 -0
v 0.063639 -0.063639 0.225
vn 0.7604 -0.6494 -0
v 0.072811 -0.0529 0.3
vn 0.7604 -0.6494 -0
v 0.063639 -0.063639 0.3
vn 0.7604 -0.6494 -0
v 0.072811 -0.0529 0.225
vn 0.7604 -0.6494 -0
v 0.072811 -0.0529 0.225
vn 0.8526 -0.5225 -0
v 0.080191 -0.040859 0.3
vn 0.8526 -0.5225 -0
v 0.072811 -0.0529 0.3
vn 0.8526 -0.5225 -0
v 0.080191 -0.040859 0.225
vn 0.8526 -0.5225 -0
v 0.080191 -0.040859 0.225
vn 0.9239 -0.3827 -0
v 0.085595 -0.027812 0.3
vn 0.9239 -0.3827 -0
v 0.080191 -0.040859 0.3
vn 0.9239 -0.3827 -0
v 0.085595 -0.027812 0.225
vn 0.9239 -0.3827 -0
v 0.085595 -0.027812 0.225
vn 0.9724 -0.2335 -0
v 0.088892 -0.014079 0.3
vn 0.9724 -0.2335 -0
v 0.085595 -0.027812 0.3
vn 0.9724 -0.2335 -0
v 0.088892 -0.014079 0.225
vn 0.9724 -0.2335 -0
v 0.088892 -0.014079 0.225
vn 0.9969 -0.0785 -0
v 0.09 0 0.3
vn 0.9969 -0.0785 -0
v 0.088892 -0.014079 0.3
vn 0.9969 -0.0785 -0
v 0.09 0 0.225
vn 0.9969 -0.0785 -0
v 0.09 0 0.15
vn 0.9969 0.0785 -0
v 0.088892 0.014079 0.15
vn 0.9969 0.0785 -0
v 0.088892 0.014079 0.15
vn 0.9724 0.2335 -0
v 0.085595 0.027812 0.15
vn 0.9724 0.2335 -0
v 0.085595 0.027812 0.15
vn 0.9239 0.3827 -0
v 0.080191 0.040859 0.15
vn 0.9239 0.3827 -0
v 0.080191 0.040859 0.15
vn 0.8526 0.5225 -0
v 0.072811 0.052901 0.15
vn 0.8526 0.5225 -0
v 0.072811 0.052901 0.15
vn 0.7604 0.6494 -0
v 0.063639 0.063639 0.15
vn 0.7604 0.6494 -0
v 0.063639 0.063639 0.15
vn 0.6494 0.7604 -0
v 0.052901 0.072811 0.15
vn 0.6494 0.7604 -0
v 0.052901 0.072811 0.15
vn 0.5225 0.8526 -0
v 0.040859 0.080191 0.15
vn 0.5225 0.8526 -0
v 0.040859 0.080191 0.15
vn 0.3827 0.9239 -0
v 0.027812 0.085595 0.15
vn 0.3827 0.9239 -0
v 0.027812 0.085595 0.15
vn 0.2335 0.9724 -0
v 0.014079 0.088892 0.15
vn 0.2335 0.9724 -0
v 0.014079 0.088892 0.15
vn 0.0785 0.9969 -0
v 0 0.09 0.15
vn 0.0785 0.9969 -0
v 0 0.09 0.15
vn -0.0785 0.9969 -0
v -0.014079 0.088892 0.15
vn -0.0785 0.9969 -0
v -0.014079 0.088892 0.15
vn -0.2335 0.9724 -0
v -0.027812 0.085595 0.15
vn -0.2335 0.9724 -0
v -0.027812 0.085595 0.15
vn -0.3827 0.9239 -0
v -0.040859 0.080191 0.15
vn -0.3827 0.9239 -0
v -0.040859 0.080191 0.15
vn -0.5225 0.8526 -0
v -0.052901 0.072811 0.15
vn -0.5225 0.8526 -0
v -0.052901 0.072811 0.15
vn -0.6494 0.7604 -0
v -0.063639 0.063639 0.15
vn -0.6494 0.7604 -0
v -0.063639 0.063639 0.15
vn -0.7604 0.6494 -0
v -0.072811 0.052901 0.15
vn -0.7604 0.6494 -0
v -0.072811 0.052901 0.15
vn -0.8526 0.5225 -0
v -0.080191 0.040859 0.15
vn -0.8526 0.5225 -0
v -0.080191 0.040859 0.15
vn -0.9239 0.3827 -0
v -0.085595 0.027812 0.15
vn -0.9239 0.3827 -0
v -0.085595 0.027812 0.15
vn -0.9724 0.2335 -0
v -0.088892 0.014079 0.15
vn -0.9724 0.2335 -0
v -0.088892 0.014079 0.15
vn -0.9969 0.0785 -0
v -0.09 0 0.15
vn -0.9969 0.0785 -0
v -0.09 0 0.15
vn -0.9969 -0.0785 -0
v -0.088892 -0.014079 0.15
vn -0.9969 -0.0785 -0
v -0.088892 -0.014079 0.15
vn -0.9724 -0.2335 -0
v -0.085595 -0.027812 0.15
vn -0.9724 -0.2335 -0
v -0.085595 -0.027812 0.15
vn -0.9239 -0.3827 -0
v -0.080191 -0.040859 0.15
vn -0.9239 -0.3827 -0
v -0.080191 -0.040859 0.15
vn -0.8526 -0.5225 -0
v -0.072811 -0.052901 0.15
vn -0.8526 -0.5225 -0
v -0.072811 -0.052901 0.15
vn -0.7604 -0.6494 -0
v -0.063639 -0.063639 0.15
vn -0.7604 -0.6494 -0
v -0.063639 -0.063639 0.15
vn -0.6494 -0.7604 -0
v -0.052901 -0.072811 0.15
vn -0.6494 -0.7604 -0
v -0.052901 -0.072811 0.15
vn -0.5225 -0.8526 -0
v -0.040859 -0.080191 0.15
vn -0.5225 -0.8526 -0
v -0.040859 -0.080191 0.15
vn -0.3827 -0.9239 -0
v -0.027812 -0.085595 0.15
vn -0.3827 -0.9239 -0
v -0.027812 -0.085595 0.15
vn -0.2335 -0.9724 -0
v -0.014079 -0.088892 0.15
vn -0.2335 -0.9724 -0
v -0.014079 -0.088892 0.15
vn -0.0785 -0.9969 -0
v -0 -0.09 0.15
vn -0.0785 -0.9969 -0
v -0 -0.09 0.15
vn 0.0785 -0.9969 -0
v 0.014079 -0.088892 0.15
vn 0.0785 -0.9969 -0
v 0.014079 -0.088892 0.15
vn 0.2335 -0.9724 -0
v 0.027812 -0.085595 0.15
vn 0.2335 -0.9724 -0
v 0.027812 -0.085595 0.15
vn 0.3827 -0.9239 -0
v 0.040859 -0.080191 0.15
vn 0.3827 -0.9239 -0
v 0.040859 -0.080191 0.15
vn 0.5225 -0.8526 -0
v 0.052901 -0.072811 0.15
vn 0.5225 -0.8526 -0
v 0.052901 -0.072811 0.15
vn 0.6494 -0.7604 -0
v 0.063639 -0.063639 0.15
vn 0.6494 -0.7604 -0
v 0.063639 -0.063639 0.15
vn 0.7604 -0.6494 -0
v 0.072811 -0.052901 0.15
vn 0.7604 -0.6494 -0
v 0.072811 -0.052901 0.15
vn 0.8526 -0.5225 -0
v 0.080191 -0.040859 0.15
vn 0.8526 -0.5225 -0
v 0.080191 -0.040859 0.15
vn 0.9239 -0.3827 -0
v 0.085595 -0.027812 0.15
vn 0.9239 -0.3827 -0
v 0.085595 -0.027812 0.15
vn 0.9724 -0.2335 -0
v 0.088892 -0.014079 0.15
vn 0.9724 -0.2335 -0
v 0.088892 -0.014079 0.15
vn 0.9969 -0.0785 -0
v 0.09 0 0.15
vn 0.9969 -0.0785 -0
v 0.09 -0 0.075
vn 0.9969 0.0785 -0
v 0.088892 0.014079 0.075
vn 0.9969 0.0785 -0
v 0.088892 0.014079 0.075
vn 0.9724 0.2335 -0
v 0.085595 0.027812 0.075
vn 0.9724 0.2335 -0
v 0.085595 0.027812 0.075
vn 0.9239 0.3827 -0
v 0.080191 0.040859 0.075
vn 0.9239 0.3827 -0
v 0.080191 0.040859 0.075
vn 0.8526 0.5225 -0
v 0.072811 0.0529 0.075
vn 0.8526 0.5225 -0
v 0.072811 0.0529 0.075
vn 0.7604 0.6494 -0
v 0.063639 0.063639 0.075
vn 0.7604 0.6494 -0
v 0.063639 0.063639 0.075
vn 0.6494 0.7604 -0
v 0.052901 0.072811 0.075
vn 0.6494 0.7604 -0
v 0.052901 0.072811 0.075
vn 0.5225 0.8526 -0
v 0.040859 0.08019 0.075
vn 0.5225 0.8526 -0
v 0.040859 0.08019 0.075
vn 0.3827 0.9239 -0
v 0.027812 0.085595 0.075
vn 0.3827 0.9239 -0
v 0.027812 0.085595 0.075
vn 0.2335 0.9724 -0
v 0.014079 0.088892 0.075
vn 0.2335 0.9724 -0
v 0.014079 0.088892 0.075
vn 0.0785 0.9969 -0
v 0 0.09 0.075
vn 0.0785 0.9969 -0
v 0 0.09 0.075
vn -0.0785 0.9969 -0
v -0.014079 0.088892 0.075
vn -0.0785 0.9969 -0
v -0.014079 0.088892 0.075
vn -0.2335 0.9724 -0
v -0.027812 0.085595 0.075
vn -0.2335 0.9724 -0
v -0.027812 0.085595 0.075
vn -0.3827 0.9239 -0
v -0.040859 0.08019 0.075
vn -0.3827 0.9239 -0
v -0.040859 0.08019 0.075
vn -0.5225 0.8526 -0
v -0.052901 0.072811 0.075
vn -0.5225 0.8526 -0
v -0.052901 0.072811 0.075
vn -0.6494 0.7604 -0
v -0.063639 0.063639 0.075
vn -0.6494 0.7604 -0
v -0.063639 0.063639 0.075
vn -0.7604 0.6494 -0
v -0.072811 0.0529 0.075
vn -0.7604 0.6494 -0
v -0.072811 0.0529 0.075
vn -0.8526 0.5225 -0
v -0.080191 0.040859 0.075
vn -0.8526 0.5225 -0
v -0.080191 0.040859 0.075
vn -0.9239 0.3827 -0
v -0.085595 0.027812 0.075
vn -0.9239 0.3827 -0
v -0.085595 0.027812 0.075
vn -0.9724 0.2335 -0
v -0.088892 0.014079 0.075
vn -0.9724 0.2335 -0
v -0.088892 0.014079 0.075
vn -0.9969 0.0785 -0
v -0.09 -0 0.075
vn -0.9969 0.0785 -0
v -0.09 -0 0.075
vn -0.9969 -0.0785 -0
v -0.088892 -0.014079 0.075
vn -0.9969 -0.0785 -0
v -0.088892 -0.014079 0.075
vn -0.9724 -0.2335 -0
v -0.085595 -0.027812 0.075
vn -0.9724 -0.2335 -0
v -0.085595 -0.027812 0.075
vn -0.9239 -0.3827 -0
v -0.080191 -0.040859 0.075
vn -0.9239 -0.3827 -0
v -0.080191 -0.040859 0.075
vn -0.8526 -0.5225 -0
v -0.072811 -0.052901 0.075
vn -0.8526 -0.5225 -0
v -0.072811 -0.052901 0.075
vn -0.7604 -0.6494 -0
v -0.063639 -0.06364 0.075
vn -0.7604 -0.6494 -0
v -0.063639 -0.06364 0.075
vn -0.6494 -0.7604 -0
v -0.052901 -0.072812 0.075
vn -0.6494 -0.7604 -0
v -0.052901 -0.072812 0.075
vn -0.5225 -0.8526 -0
v -0.040859 -0.080191 0.075
vn -0.5225 -0.8526 -0
v -0.040859 -0.080191 0.075
vn -0.3827 -0.9239 -0
v -0.027812 -0.085595 0.075
vn -0.3827 -0.9239 -0
v -0.027812 -0.085595 0.075
vn -0.2335 -0.9724 -0
v -0.014079 -0.088892 0.075
vn -0.2335 -0.9724 -0
v -0.014079 -0.088892 0.075
vn -0.0785 -0.9969 -0
v -0 -0.09 0.075
vn -0.0785 -0.9969 -0
v -0 -0.09 0.075
vn 0.0785 -0.9969 -0
v 0.014079 -0.088892 0.075
vn 0.0785 -0.9969 -0
v 0.014079 -0.088892 0.075
vn 0.2335 -0.9724 -0
v 0.027812 -0.085595 0.075
vn 0.2335 -0.9724 -0
v 0.027812 -0.085595 0.075
vn 0.3827 -0.9239 -0
v 0.040859 -0.080191 0.075
vn 0.3827 -0.9239 -0
v 0.040859 -0.080191 0.075
vn 0.5225 -0.8526 -0
v 0.052901 -0.072812 0.075
vn 0.5225 -0.8526 -0
v 0.052901 -0.072812 0.075
vn 0.6494 -0.7604 -0
v 0.063639 -0.06364 0.075
vn 0.6494 -0.7604 -0
v 0.063639 -0.06364 0.075
vn 0.7604 -0.6494 -0
v 0.072811 -0.052901 0.075
vn 0.7604 -0.6494 -0
v 0.072811 -0.052901 0.075
vn 0.8526 -0.5225 -0
v 0.080191 -0.040859 0.075
vn 0.8526 -0.5225 -0
v 0.080191 -0.040859 0.075
vn 0.9239 -0.3827 -0
v 0.085595 -0.027812 0.075
vn 0.9239 -0.3827 -0
v 0.085595 -0.027812 0.075
vn 0.9724 -0.2335 -0
v 0.088892 -0.014079 0.075
vn 0.9724 -0.2335 -0
v 0.088892 -0.014079 0.075
vn 0.9969 -0.0785 -0
v 0.09 -0 0.075
vn 0.9969 -0.0785 -0
v 0.09 -0 0
vn 0.9969 0.0785 -0
v 0.088892 0.014079 0
vn 0.9969 0.0785 -0
v 0.088892 0.014079 0
vn 0.9724 0.2335 -0
v 0.085595 0.027812 0
vn 0.9724 0.2335 -0
v 0.085595 0.027812 0
vn 0.9239 0.3827 -0
v 0.080191 0.040859 0
vn 0.9239 0.3827 -0
v 0.080191 0.040859 0
vn 0.8526 0.5225 -0
v 0.072811 0.0529 0
vn 0.8526 0.5225 -0
v 0.072811 0.0529 0
vn 0.7604 0.6494 -0
v 0.063639 0.063639 0
vn 0.7604 0.6494 -0
v 0.063639 0.063639 0
vn 0.6494 0.7604 -0
v 0.052901 0.072811 0
vn 0.6494 0.7604 -0
v 0.052901 0.072811 0
vn 0.5225 0.8526 -0
v 0.040859 0.08019 0
vn 0.5225 0.8526 -0
v 0.040859 0.08019 0
vn 0.3827 0.9239 -0
v 0.027812 0.085595 0
vn 0.3827 0.9239 -0
v 0.027812 0.085595 0
vn 0.2335 0.9724 -0
v 0.014079 0.088892 0
vn 0.2335 0.9724 -0
v 0.014079 0.088892 0
vn 0.0785 0.9969 -0
v 0 0.09 0
vn 0.0785 0.9969 -0
v 0 0.09 0
vn -0.0785 0.9969 -0
v -0.014079 0.088892 0
vn -0.0785 0.9969 -0
v -0.014079 0.088892 0
vn -0.2335 0.9724 -0
v -0.027812 0.085595 0
vn -0.2335 0.9724 -0
v -0.027812 0.085595 0
vn -0.3827 0.9239 -0
v -0.040859 0.08019 0
vn -0.3827 0.9239 -0
v -0.040859 0.08019 0
vn -0.5225 0.8526 -0
v -0.052901 0.072811 0
vn -0.5225 0.8526 -0
v -0.052901 0.072811 0
vn -0.6494 0.7604 -0
v -0.063639 0.063639 0
vn -0.6494 0.7604 -0
v -0.063639 0.063639 0
vn -0.7604 0.6494 -0
v -0.072811 0.0529 0
vn -0.7604 0.6494 -0
v -0.072811 0.0529 0
vn -0.8526 0.5225 -0
v -0.080191 0.040859 0
vn -0.8526 0.5225 -0
v -0.080191 0.040859 0
vn -0.9239 0.3827 -0
v -0.085595 0.027812 0
vn -0.9239 0.3827 -0
v -0.085595 0.027812 0
vn -0.9724 0.2335 -0
v -0.088892 0.014079 0
vn -0.9724 0.2335 -0
v -0.088892 0.014079 0
vn -0.9969 0.0785 -0
v -0.09 -0 0
vn -0.9969 0.0785 -0
v -0.09 -0 0
vn -0.9969 -0.0785 -0
v -0.088892 -0.014079 0
vn -0.9969 -0.0785 -0
v -0.088892 -0.014079 0
vn -0.9724 -0.2335 -0
v -0.085595 -0.027812 0
vn -0.9724 -0.2335 -0
v -0.085595 -0.027812 0
vn -0.9239 -0.3827 -0
v -0.080191 -0.040859 0
vn -0.9239 -0.3827 -0
v -0.080191 -0.040859 0
vn -0.8526 -0.5225 -0
v -0.072811 -0.052901 0
vn -0.8526 -0.5225 -0
v -0.072811 -0.052901 0
vn -0.7604 -0.6494 -0
v -0.063639 -0.06364 0
vn -0.7604 -0.6494 -0
v -0.063639 -0.06364 0
vn -0.6494 -0.7604 -0
v -0.052901 -0.072812 0
vn -0.6494 -0.7604 -0
v -0.052901 -0.072812 0
vn -0.5225 -0.8526 -0
v -0.040859 -0.080191 0
vn -0.5225 -0.8526 -0
v -0.040859 -0.080191 0
vn -0.3827 -0.9239 -0
v -0.027812 -0.085595 0
vn -0.3827 -0.9239 -0
v -0.027812 -0.085595 0
vn -0.2335 -0.9724 -0
v -0.014079 -0.088892 0
vn -0.2335 -0.9724 -0
v -0.014079 -0.088892 0
vn -0.0785 -0.9969 -0
v -0 -0.09 0
vn -0.0785 -0.9969 -0
v -0 -0.09 0
vn 0.0785 -0.9969 -0
v 0.014079 -0.088892 0
vn 0.0785 -0.9969 -0
v 0.014079 -0.088892 0
vn 0.2335 -0.9724 -0
v 0.027812 -0.085595 0
vn 0.2335 -0.9724 -0
v 0.027812 -0.085595 0
vn 0.3827 -0.9239 -0
v 0.040859 -0.080191 0
vn 0.3827 -0.9239 -0
v 0.040859 -0.080191 0
vn 0.5225 -0.8526 -0
v 0.052901 -0.072812 0
vn 0.5225 -0.8526 -0
v 0.052901 -0.072812 0
vn 0.6494 -0.7604 -0
v 0.063639 -0.06364 0
vn 0.6494 -0.7604 -0
v 0.063639 -0.06364 0
vn 0.7604 -0.6494 -0
v 0.072811 -0.052901 0
vn 0.7604 -0.6494 -0
v 0.072811 -0.052901 0
vn 0.8526 -0.5225 -0
v 0.080191 -0.040859 0
vn 0.8526 -0.5225 -0
v 0.080191 -0.040859 0
vn 0.9239 -0.3827 -0
v 0.085595 -0.027812 0
vn 0.9239 -0.3827 -0
v 0.085595 -0.027812 0
vn 0.9724 -0.2335 -0
v 0.088892 -0.014079 0
vn 0.9724 -0.2335 -0
v 0.088892 -0.014079 0
vn 0.9969 -0.0785 -0
v 0.09 -0 0
vn 0.9969 -0.0785 -0
f 1//1 2//2 3//3
f 4//4 5//5 6//6
f 1//1 3//3 7//7
f 4//4 8//8 5//5
f 1//1 7//7 9//9
f 4//4 10//10 8//8
f 1//1 9//9 11//11
f 4//4 12//12 10//10
f 1//1 11//11 13//13
f 4//4 14//14 12//12
f 1//1 13//13 15//15
f 4//4 16//16 14//14
f 1//1 15//15 17//17
f 4//4 18//18 16//16
f 1//1 17//17 19//19
f 4//4 20//20 18//18
f 1//1 19//19 21//21
f 4//4 22//22 20//20
f 1//1 21//21 23//23
f 4//4 24//24 22//22
f 1//1 23//23 25//25
f 4//4 26//26 24//24
f 1//1 25//25 27//27
f 4//4 28//28 26//26
f 1//1 27//27 29//29
f 4//4 30//30 28//28
f 1//1 29//29 31//31
f 4//4 32//32 30//30
f 1//1 31//31 33//33
f 4//4 34//34 32//32
f 1//1 33//33 35//35
f 4//4 36//36 34//34
f 1//1 35//35 37//37
f 4//4 38//38 36//36
f 1//1 37//37 39//39
f 4//4 40//40 38//38
f 1//1 39//39 41//41
f 4//4 42//42 40//40
f 1//1 41//41 43//43
f 4//4 44//44 42//42
f 1//1 43//43 45//45
f 4//4 46//46 44//44
f 1//1 45//45 47//47
f 4//4 48//48 46//46
f 1//1 47//47 49//49
f 4//4 50//50 48//48
f 1//1 49//49 51//51
f 4//4 52//52 50//50
f 1//1 51//51 53//53
f 4//4 54//54 52//52
f 1//1 53//53 55//55
f 4//4 56//56 54//54
f 1//1 55//55 57//57
f 4//4 58//58 56//56
f 1//1 57//57 59//59
f 4//4 60//60 58//58
f 1//1 59//59 61//61
f 4//4 62//62 60//60
f 1//1 61//61 63//63
f 4//4 64//64 62//62
f 1//1 63//63 65//65
f 4//4 66//66 64//64
f 1//1 65//65 67//67
f 4//4 68//68 66//66
f 1//1 67//67 69//69
f 4//4 70//70 68//68
f 1//1 69//69 71//71
f 4//4 72//72 70//70
f 1//1 71//71 73//73
f 4//4 74//74 72//72
f 1//1 73//73 75//75
f 4//4 76//76 74//74
f 1//1 75//75 77//77
f 4//4 78//78 76//76
f 1//1 77//77 79//79
f 4//4 80//80 78//78
f 1//1 79//79 81//81
f 4//4 82//82 80//80
f 1//1 81//81 2//2
f 4//4 6//6 82//82
f 83//83 84//84 85//85
f 83//83 86//86 84//84
f 87//87 88//88 89//89
f 87//87 90//90 88//88
f 91//91 92//92 93//93
f 91//91 94//94 92//92
f 95//95 96//96 97//97
f 95//95 98//98 96//96
f 99//99 100//100 101//101
f 99//99 102//102 100//100
f 103//103 104//104 105//105
f 103//103 106//106 104//104
f 107//107 108//108 109//109
f 107//107 110//110 108//108
f 111//111 112//112 113//113
f 111//111 114//114 112//112
f 115//115 116//116 117//117
f 115//115 118//118 116//116
f 119//119 120//120 121//121
f 119//119 122//122 120//120
f 123//123 124//124 125//125
f 123//123 126//126 124//124
f 127//127 128//128 129//129
f 127//127 130//130 128//128
f 131//131 132//132 133//133
f 131//131 134//134 132//132
f 135//135 136//136 137//137
f 135//135 138//138 136//136
f 139//139 140//140 141//141
f 139//139 142//142 140//140
f 143//143 144//144 145//145
f 143//143 146//146 144//144
f 147//147 148//148 149//149
f 147//147 150//150 148//148
f 151//151 152//152 153//153
f 151//151 154//154 152//152
f 155//155 156//156 157//157
f 155//155 158//158 156//156
f 159//159 160//160 161//161
f 159//159 162//162 160//160
f 163//163 164//164 165//165
f 163//163 166//166 164//164
f 167//167 168//168 169//169
f 167//167 170//170 168//168
f 171//171 172//172 173//173
f 171//171 174//174 172//172
f 175//175 176//176 177//177
f 175//175 178//178 176//176
f 179//179 180//180 181//181
f 179//179 182//182 180//180
f 183//183 184//184 185//185
f 183//183 186//186 184//184
f 187//187 188//188 189//189
f 187//187 190//190 188//188
f 191//191 192//192 193//193
f 191//191 194//194 192//192
f 195//195 196//196 197//197
f 195//195 198//198 196//196
f 199//199 200//200 201//201
f 199//199 202//202 200//200
f 203//203 204//204 205//205
f 203//203 206//206 204//204
f 207//207 208//208 209//209
f 207//207 210//210 208//208
f 211//211 212//212 213//213
f 211//211 214//214 212//212
f 215//215 216//216 217//217
f 215//215 218//218 216//216
f 219//219 220//220 221//221
f 219//219 222//222 220//220
f 223//223 224//224 225//225
f 223//223 226//226 224//224
f 227//227 228//228 229//229
f 227//227 230//230 228//228
f 231//231 232//232 233//233
f 231//231 234//234 232//232
f 235//235 236//236 237//237
f 235//235 238//238 236//236
f 239//239 240//240 241//241
f 239//239 242//242 240//240
f 243//243 86//86 83//83
f 243//243 244//244 86//86
f 245//245 90//90 87//87
f 245//245 246//246 90//90
f 247//247 94//94 91//91
f 247//247 248//248 94//94
f 249//249 98//98 95//95
f 249//249 250//250 98//98
f 251//251 102//102 99//99
f 251//251 252//252 102//102
f 253//253 106//106 103//103
f 253//253 254//254 106//106
f 255//255 110//110 107//107
f 255//255 256//256 110//110
f 257//257 114//114 111//111
f 257//257 258//258 114//114
f 259//259 118//118 115//115
f 259//259 260//260 118//118
f 261//261 122//122 119//119
f 261//261 262//262 122//122
f 263//263 126//126 123//123
f 263//263 264//264 126//126
f 265//265 130//130 127//127
f 265//265 266//266 130//130
f 267//267 134//134 131//131
f 267//267 268//268 134//134
f 269//269 138//138 135//135
f 269//269 270//270 138//138
f 271//271 142//142 139//139
f 271//271 272//272 142//142
f 273//273 146//146 143//143
f 273//273 274//274 146//146
f 275//275 150//150 147//147
f 275//275 276//276 150//150
f 277//277 154//154 151//151
f 277//277 278//278 154//154
f 279//279 158//158 155//155
f 279//279 280//280 158//158
f 281//281 162//162 159//159
f 281//281 282//282 162//162
f 283//283 166//166 163//163
f 283//283 284//284 166//166
f 285//285 170//170 167//167
f 285//285 286//286 170//170
f 287//287 174//174 171//171
f 287//287 288//288 174//174
f 289//289 178//178 175//175
f 289//289 290//290 178//178
f 291//291 182//182 179//179
f 291//291 292//292 182//182
f 293//293 186//186 183//183
f 293//293 294//294 186//186
f 295//295 190//190 187//187
f 295//295 296//296 190//190
f 297//297 194//194 191//191
f 297//297 298//298 194//194
f 299//299 198//198 195//195
f 299//299 300//300 198//198
f 301//301 202//202 199//199
f 301//301 302//302 202//202
f 303//303 206//206 203//203
f 303//303 304//304 206//206
f 305//305 210//210 207//207
f 305//305 306//306 210//210
f 307//307 214//214 211//211
f 307//307 308//308 214//214
f 309//309 218//218 215//215
f 309//309 310//310 218//218
f 311//311 222//222 219//219
f 311//311 312//312 222//222
f 313//313 226//226 223//223
f 313//313 314//314 226//226
f 315//315 230//230 227//227
f 315//315 316//316 230//230
f 317//317 234//234 231//231
f 317//317 318//318 234//234
f 319//319 238//238 235//235
f 319//319 320//320 238//238
f 321//321 242//242 239//239
f 321//321 322//322 242//242
f 323//323 244//244 243//243
f 323//323 324//324 244//244
f 325//325 246//246 245//245
f 325//325 326//326 246//246
f 327//327 248//248 247//247
f 327//327 328//328 248//248
f 329//329 250//250 249//249
f 329//329 330//330 250//250
f 331//331 252//252 251//251
f 331//331 332//332 252//252
f 333//333 254//254 253//253
f 333//333 334//334 254//254
f 335//335 256//256 255//255
f 335//335 336//336 256//256
f 337//337 258//258 257//257
f 337//337 338//338 258//258
f 339//339 260//260 259//259
f 339//339 340//340 260//260
f 341//341 262//262 261//261
f 341//341 342//342 262//262
f 343//343 264//264 263//263
f 343//343 344//344 264//264
f 345//345 266//266 265//265
f 345//345 346//346 266//266
f 347//347 268//268 267//267
f 347//347 348//348 268//268
f 349//349 270//270 269//269
f 349//349 350//350 270//270
f 351//351 272//272 271//271
f 351//351 352//352 272//272
f 353//353 274//274 273//273
f 353//353 354//354 274//274
f 355//355 276//276 275//275
f 355//355 356//356 276//276
f 357//357 278//278 277//277
f 357//357 358//358 278//278
f 359//359 280//280 279//279
f 359//359 360//360 280//280
f 361//361 282//282 281//281
f 361//361 362//362 282//282
f 363//363 284//284 283//283
f 363//363 364//364 284//284
f 365//365 286//286 285//285
f 365//365 366//366 286//286
f 367//367 288//288 287//287
f 367//367 368//368 288//288
f 369//369 290//290 289//289
f 369//369 370//370 290//290
f 371//371 292//292 291//291
f 371//371 372//372 292//292
f 373//373 294//294 293//293
f 373//373 374//374 294//294
f 375//375 296//296 295//295
f 375//375 376//376 296//296
f 377//377 298//298 297//297
f 377//377 378//378 298//298
f 379//379 300//300 299//299
f 379//379 380//380 300//300
f 381//381 302//302 301//301
f 381//381 382//382 302//302
f 383//383 304//304 303//303
f 383//383 384//384 304//304
f 385//385 306//306 305//305
f 385//385 386//386 306//306
f 387//387 308//308 307//307
f 387//387 388//388 308//308
f 389//389 310//310 309//309
f 389//389 390//390 310//310
f 391//391 312//312 311//311
f 391//391 392//392 312//312
f 393//393 314//314 313//313
f 393//393 394//394 314//314
f 395//395 316//316 315//315
f 395//395 396//396 316//316
f 397//397 318//318 317//317
f 397//397 398//398 318//318
f 399//399 320//320 319//319
f 399//399 400//400 320//320
f 401//401 322//322 321//321
f 401//401 402//402 322//322
f 403//403 324//324 323//323
f 403//403 404//404 324//324
f 405//405 326//326 325//325
f 405//405 406//406 326//326
f 407//407 328//328 327//327
f 407//407 408//408 328//328
f 409//409 330//330 329//329
f 409//409 410//410 330//330
f 411//411 332//332 331//331
f 411//411 412//412 332//332
f 413//413 334//334 333//333
f 413//413 414//414 334//334
f 415//415 336//336 335//335
f 415//415 416//416 336//336
f 417//417 338//338 337//337
f 417//417 418//418 338//338
f 419//419 340//340 339//339
f 419//419 420//420 340//340
f 421//421 342//342 341//341
f 421//421 422//422 342//342
f 423//423 344//344 343//343
f 423//423 424//424 344//344
f 425//425 346//346 345//345
f 425//425 426//426 346//346
f 427//427 348//348 347//347
f 427//427 428//428 348//348
f 429//429 350//350 349//349
f 429//429 430//430 350//350
f 431//431 352//352 351//351
f 431//431 432//432 352//352
f 433//433 354//354 353//353
f 433//433 434//434 354//354
f 435//435 356//356 355//355
f 435//435 436//436 356//356
f 437//437 358//358 357//357
f 437//437 438//438 358//358
f 439//439 360//360 359//359
f 439//439 440//440 360//360
f 441//441 362//362 361//361
f 441//441 442//442 362//362
f 443//443 364//364 363//363
f 443//443 444//444 364//364
f 445//445 366//366 365//365
f 445//445 446//446 366//366
f 447//447 368//368 367//367
f 447//447 448//448 368//368
f 449//449 370//370 369//369
f 449//449 450//450 370//370
f 451//451 372//372 371//371
f 451//451 452//452 372//372
f 453//453 374//374 373//373
f 453//453 454//454 374//374
f 455//455 376//376 375//375
f 455//455 456//456 376//376
f 457//457 378//378 377//377
f 457//457 458//458 378//378
f 459//459 380//380 379//379
f 459//459 460//460 380//380
f 461//461 382//382 381//381
f 461//461 462//462 382//382
f 463//463 384//384 383//383
f 463//463 464//464 384//384
f 465//465 386//386 385//385
f 465//465 466//466 386//386
f 467//467 388//388 387//387
f 467//467 468//468 388//388
f 469//469 390//390 389//389
f 469//469 470//470 390//390
f 471//471 392//392 391//391
f 471//471 472//472 392//392
f 473//473 394//394 393//393
f 473//473 474//474 394//394
f 475//475 396//396 395//395
f 475//475 476//476 396//396
f 477//477 398//398 397//397
f 477//477 478//478 398//398
f 479//479 400//400 399//399
f 479//479 480//480 400//400
f 481//481 402//402 401//401
f 481//481 482//482 402//402
