# Created by Open3D 
# object name: small_cube_6
# number of vertices: 8
# number of triangles: 12
v -0.012 0.012 0
vn -0.680414 0.680414 -0.272166
v 0.012 0.012 0.1
vn 0.680414 0.680414 0.272166
v 0.012 0.012 0
vn 0.680414 0.680414 -0.272166
v -0.012 0.012 0.1
vn -0.680414 0.680414 0.272166
v -0.012 -0.012 0
vn -0.680414 -0.680414 -0.272166
v -0.012 -0.012 0.1
vn -0.680414 -0.680414 0.272166
v 0.012 -0.012 0
vn 0.680414 -0.680414 -0.272166
v 0.012 -0.012 0.1
vn 0.680414 -0.680414 0.272166
f 1//1 2//2 3//3
f 1//1 4//4 2//2
f 5//5 6//6 1//1
f 6//6 4//4 1//1
f 5//5 7//7 6//6
f 7//7 8//8 6//6
f 7//7 3//3 2//2
f 7//7 2//2 8//8
f 6//6 8//8 2//2
f 6//6 2//2 4//4
f 5//5 1//1 7//7
f 7//7 1//1 3//3
