# Blender 4.1.1
# www.blender.org
mtllib idx-F2_B.mtl
o idx-F2_B
v 0.034039 -0.012271 -0.001774
v 0.032787 -0.011846 0.003333
v 0.028228 -0.010084 0.004377
v 0.028097 -0.009986 -0.004260
v 0.030168 -0.009733 0.001402
v 0.030227 -0.009948 -0.001770
v 0.031553 -0.010443 0.000144
v 0.024329 -0.009127 0.004954
v 0.028418 -0.009103 -0.001066
v 0.025855 -0.008766 -0.003817
v 0.025907 -0.008728 0.003439
v 0.025883 -0.008342 0.001873
v 0.019254 -0.007817 0.004937
v 0.019365 -0.007037 -0.003419
v 0.025492 -0.008084 -0.000659
v 0.019967 -0.007224 0.003237
v 0.020311 -0.006963 0.001729
v 0.019853 -0.006828 -0.001464
v 0.019512 -0.006410 0.000217
v 0.014446 -0.002702 0.002618
v 0.013517 -0.003411 -0.004266
v 0.015075 -0.003808 -0.003049
v 0.012566 -0.003195 0.005280
v 0.014778 -0.002823 -0.000151
v 0.013628 -0.002439 0.003662
v 0.014003 -0.002197 -0.001985
v 0.013896 -0.001537 0.001214
v 0.012711 0.000708 0.003638
v 0.012711 0.001012 -0.003516
v 0.013260 0.000849 0.000144
v 0.004330 0.001749 0.003074
v 0.003469 0.001851 0.004513
v 0.004858 0.001388 -0.004667
v 0.005355 0.001430 0.004233
v 0.012018 0.002349 -0.002442
v 0.003908 0.002101 -0.003569
v 0.007832 0.002799 0.003953
v 0.010048 0.002378 0.004819
v 0.010895 0.002495 -0.004342
v 0.012018 0.002272 0.002640
v 0.004381 0.002042 -0.000985
v 0.005433 0.002192 0.000026
v 0.008900 0.002621 -0.004712
v 0.007426 0.003461 -0.002798
v 0.007269 0.003342 0.001854
v 0.010924 0.003056 0.002148
v 0.002636 0.003740 -0.003889
v 0.002829 0.003636 0.002571
v 0.010027 0.003402 -0.002753
v 0.009097 0.003497 0.002208
v 0.001190 0.004467 0.005239
v -0.000280 0.004592 0.005252
v -0.005069 -0.001415 0.005200
v 0.026665 -0.010251 0.005200
v -0.004455 0.001093 0.005200
v 0.002549 0.003516 0.005200
v 0.002710 0.003006 0.005200
v -0.002938 0.003535 0.005200
v -0.004748 -0.000774 0.005200
v -0.001600 0.004304 0.005200
v 0.016365 -0.005532 0.005141
v 0.011539 0.000995 0.005250
v 0.004235 0.000450 0.005200
v 0.003979 0.000764 0.005200
v 0.004505 0.000548 0.005200
v -0.002797 0.003644 0.005200
v 0.006612 0.000971 0.005200
v 0.008511 0.001497 0.005200
v 0.005751 0.000596 0.005200
v -0.002881 0.003596 0.005200
v 0.009823 0.001693 0.005200
v -0.003895 0.002495 0.005200
v 0.003004 0.001577 0.005200
v 0.019019 -0.008018 0.005200
v 0.022730 -0.008964 0.005200
v -0.004426 0.001209 0.005200
v -0.004446 0.001159 0.005200
v 0.024941 -0.009591 0.005200
v 0.002192 0.003945 0.005200
v -0.004735 -0.000747 0.005200
v -0.004706 -0.000706 -0.005200
v 0.011747 -0.000021 -0.005200
v -0.004437 0.001124 -0.005200
v -0.003920 0.002442 -0.005200
v 0.002664 0.003326 -0.005200
v 0.001696 0.004232 -0.005200
v 0.025700 -0.009782 -0.005200
v -0.003870 0.002561 -0.005200
v 0.001470 0.004351 -0.005200
v -0.002962 0.003527 -0.005200
v -0.001759 0.004218 -0.005200
v -0.005401 -0.002058 -0.005200
v -0.001636 0.004286 -0.005200
v -0.001501 0.004316 -0.005200
v -0.003782 0.002658 -0.005200
v 0.004129 0.001218 -0.005200
v 0.005026 0.000928 -0.005200
v 0.006920 0.001526 -0.005200
v 0.011167 0.001296 -0.005200
v 0.011447 0.000941 -0.005200
v 0.009448 0.001969 -0.005200
v 0.010443 0.001713 -0.005200
v 0.025239 -0.009603 -0.005200
v 0.002370 0.003726 -0.005200
v 0.001389 0.004392 -0.005200
v -0.004687 -0.000580 -0.005200
v -0.000135 0.004604 -0.005200
v 0.000035 0.004590 -0.005200
v 0.003351 0.001333 -0.005200
v 0.012620 -0.003754 -0.005200
v 0.016421 -0.006442 -0.005200
v 0.018870 -0.007818 -0.005103
v -0.005414 -0.002342 0.005200
v 0.027581 -0.010691 0.005200
v -0.005426 -0.002367 -0.005200
v -0.005544 -0.002336 -0.005043
v -0.005542 -0.002330 -0.002437
v -0.005521 -0.002316 0.005030
v 0.030096 -0.011328 0.004689
v 0.032639 -0.011975 0.003630
v 0.032435 -0.011943 -0.003761
v 0.032066 -0.011850 -0.003969
v 0.029625 -0.011234 -0.004746
v 0.027753 -0.010762 -0.005176
v 0.033584 -0.012216 0.002582
v 0.034199 -0.012376 0.001334
v 0.032973 -0.012060 0.003376
vn 0.4934 0.6814 0.5406
vn 0.6186 0.6328 0.4657
vn 0.5362 0.7521 0.3832
vn 0.6043 0.7491 0.2715
vn 0.2906 0.7210 -0.6290
vn 0.3630 0.7834 -0.5044
vn 0.3983 0.7704 -0.4978
vn 0.3406 0.7800 0.5249
vn 0.4160 0.8959 0.1558
vn 0.3595 0.6958 0.6218
vn 0.6717 0.7170 -0.1862
vn 0.5147 0.8574 -0.0002
vn 0.5650 0.8214 0.0777
vn 0.4212 0.8817 -0.2125
vn 0.3485 0.9301 -0.1156
vn 0.1793 0.6678 0.7224
vn 0.2259 0.6723 0.7050
vn 0.2181 0.7595 0.6128
vn 0.3105 0.8883 0.3384
vn 0.2927 0.8746 -0.3865
vn 0.2942 0.9434 0.1528
vn 0.3069 0.7216 -0.6205
vn 0.2538 0.7734 -0.5809
vn 0.3935 0.8500 -0.3501
vn 0.3567 0.7061 0.6117
vn 0.2756 0.9598 -0.0540
vn 0.3928 0.8639 0.3153
vn 0.2637 0.9532 0.1478
vn 0.4197 0.8992 -0.1238
vn 0.3115 0.5997 0.7371
vn 0.4536 0.6003 0.6587
vn 0.6088 0.7933 -0.0019
vn 0.6613 0.7114 0.2377
vn 0.5808 0.4042 -0.7066
vn 0.6480 0.4843 -0.5878
vn 0.3934 0.5933 -0.7023
vn 0.5832 0.7328 -0.3506
vn 0.7080 0.7030 -0.0673
vn 0.7332 0.5056 0.4546
vn 0.4802 0.3472 0.8055
vn 0.8647 0.4558 -0.2109
vn 0.9042 0.4156 0.0980
vn 0.5191 0.4194 0.7447
vn 0.8451 0.3972 0.3577
vn 0.8311 0.4226 -0.3616
vn 0.8939 0.4480 0.0146
vn 0.4474 0.8566 0.2573
vn 0.6221 0.6058 0.4959
vn 0.2462 0.8221 0.5134
vn 0.1903 0.8293 -0.5254
vn -0.0274 0.8748 -0.4836
vn 0.0140 0.7590 -0.6509
vn 0.6685 0.7297 -0.1435
vn 0.7583 0.4054 0.5106
vn 0.6746 0.4044 0.6175
vn 0.1806 0.7436 0.6438
vn 0.0395 0.4760 0.8786
vn 0.5163 0.5728 -0.6367
vn 0.7290 0.3885 -0.5637
vn 0.6723 0.7045 0.2275
vn 0.3975 0.9149 -0.0704
vn 0.6658 0.7116 -0.2243
vn -0.3775 0.9257 0.0246
vn -0.2750 0.8235 0.4962
vn 0.0402 0.6204 -0.7833
vn -0.1600 0.6285 -0.7612
vn -0.0261 0.7721 -0.6350
vn 0.4235 0.7514 -0.5060
vn 0.8406 0.4478 -0.3047
vn 0.5556 0.6627 -0.5021
vn -0.2691 0.9378 -0.2196
vn -0.3501 0.9254 0.1448
vn -0.2086 0.8329 0.5126
vn 0.3980 0.9044 0.1539
vn 0.8137 0.2135 0.5407
vn 0.6520 0.7542 -0.0781
vn 0.6333 0.7728 0.0402
vn 0.2352 0.9538 -0.1869
vn 0.0638 0.9812 0.1820
vn 0.3022 0.9513 0.0604
vn 0.4596 0.8881 0.0013
vn 0.6259 0.7775 0.0605
vn 0.2589 0.9573 0.1289
vn -0.1176 0.9931 0.0003
vn -0.2033 0.9777 0.0518
vn -0.0420 0.9931 0.1097
vn 0.0555 0.9985 -0.0008
vn -0.1652 0.7965 0.5816
vn -0.4905 0.8714 -0.0007
vn -0.3515 0.9362 -0.0004
vn -0.3526 0.9358 -0.0004
vn -0.1258 0.5705 0.8116
vn -0.1606 0.7141 0.6814
vn -0.2324 0.6492 0.7243
vn -0.6195 0.7850 0.0002
vn -0.4910 0.8712 -0.0009
vn -0.7314 0.6820 0.0018
vn -0.7317 0.6817 0.0020
vn 0.8294 0.4667 0.3070
vn -0.8435 0.5372 0.0014
vn -0.8431 0.5377 0.0011
vn -0.9665 0.2567 -0.0017
vn -0.9278 0.3731 -0.0009
vn -0.9274 0.3740 -0.0008
vn -0.9891 0.1473 -0.0017
vn -0.9890 0.1478 -0.0018
vn -0.9514 0.3080 -0.0014
vn -0.9516 0.3074 -0.0012
vn -0.8777 0.3866 0.2833
vn -0.8917 0.4526 0.0008
vn -0.9294 0.2636 0.2583
vn 0.2607 0.6414 -0.7216
vn 0.3090 0.7082 -0.6348
vn 0.7024 0.6958 -0.1498
vn 0.5323 0.8441 -0.0647
vn 0.7294 0.2007 -0.6540
vn -0.8460 0.3760 -0.3780
vn -0.9027 0.2801 -0.3267
vn -0.6611 -0.0519 -0.7485
vn -0.8914 0.4532 0.0004
vn -0.7827 0.2268 0.5795
vn 0.3138 0.6163 0.7223
vn 0.2986 0.5529 -0.7779
vn 0.4601 0.8283 -0.3197
vn -0.6194 0.7851 -0.0003
vn -0.9664 0.2571 -0.0017
vn 0.2879 0.6711 0.6832
s 1
usemtl rubber_black
f 120//1 127//2 2//3
f 125//4 2//3 127//2
f 123//5 4//6 122//7
f 3//8 2//3 5//9
f 2//3 119//10 120//1
f 1//11 7//12 126//13
f 6//14 7//12 1//11
f 7//12 5//9 2//3
f 6//14 9//15 7//12
f 9//15 5//9 7//12
f 75//16 78//17 8//18
f 8//18 3//8 11//19
f 9//15 4//6 10//20
f 11//19 3//8 12//21
f 6//14 4//6 9//15
f 3//8 5//9 12//21
f 112//22 10//20 103//23
f 12//21 5//9 9//15
f 10//20 112//22 14//24
f 11//19 13//25 8//18
f 15//26 9//15 10//20
f 12//21 9//15 15//26
f 11//19 16//27 13//25
f 16//27 11//19 17//28
f 12//21 17//28 11//19
f 14//24 18//29 15//26
f 10//20 14//24 15//26
f 18//29 17//28 15//26
f 15//26 17//28 12//21
f 74//30 13//25 61//31
f 19//32 17//28 18//29
f 20//33 16//27 19//32
f 16//27 17//28 19//32
f 110//34 21//35 111//36
f 112//22 22//37 14//24
f 61//31 13//25 16//27
f 112//22 21//35 22//37
f 14//24 22//37 18//29
f 16//27 20//33 61//31
f 18//29 24//38 19//32
f 20//33 25//39 61//31
f 20//33 19//32 24//38
f 61//31 25//39 23//40
f 24//38 18//29 22//37
f 22//37 21//35 26//41
f 24//38 22//37 26//41
f 27//42 24//38 26//41
f 20//33 24//38 27//42
f 27//42 25//39 20//33
f 62//43 23//40 25//39
f 27//42 28//44 25//39
f 62//43 25//39 28//44
f 29//45 26//41 21//35
f 26//41 30//46 27//42
f 27//42 30//46 28//44
f 26//41 29//45 30//46
f 31//47 64//48 63//49
f 96//50 33//51 97//52
f 30//46 29//45 35//53
f 64//48 32//54 73//55
f 62//43 38//56 71//57
f 99//58 29//45 100//59
f 40//60 62//43 28//44
f 40//60 28//44 30//46
f 41//61 33//51 36//62
f 33//51 41//61 42//63
f 41//61 31//47 42//63
f 31//47 34//64 42//63
f 101//65 98//66 43//67
f 40//60 38//56 62//43
f 29//45 39//68 35//53
f 35//53 40//60 30//46
f 85//69 36//62 109//70
f 33//51 42//63 44//71
f 44//71 42//63 45//72
f 42//63 34//64 45//72
f 45//72 34//64 37//73
f 43//67 33//51 44//71
f 38//56 40//60 46//74
f 35//53 46//74 40//60
f 73//55 32//54 57//75
f 36//62 47//76 41//61
f 47//76 48//77 41//61
f 48//77 31//47 41//61
f 43//67 44//71 49//78
f 50//79 37//73 38//56
f 39//68 43//67 49//78
f 46//74 50//79 38//56
f 49//78 35//53 39//68
f 46//74 35//53 49//78
f 45//72 37//73 50//79
f 49//78 44//71 50//79
f 44//71 45//72 50//79
f 49//78 50//79 46//74
f 105//80 48//77 89//81
f 79//82 48//77 51//83
f 107//84 94//85 52//86
f 52//86 108//87 107//84
f 105//80 108//87 51//83
f 34//64 63//49 65//88
f 91//89 60//90 93//91
f 37//73 68//92 38//56
f 34//64 65//88 69//93
f 34//64 67//94 37//73
f 90//95 66//96 91//89
f 58//97 90//95 95//98
f 32//54 56//99 57//75
f 38//56 68//92 71//57
f 72//100 95//98 88//101
f 13//25 75//16 8//18
f 83//102 76//103 84//104
f 48//77 56//99 31//47
f 55//105 83//102 106//106
f 78//17 3//8 8//18
f 60//90 94//85 93//91
f 80//107 106//106 81//108
f 53//109 117//110 118//111
f 33//51 98//66 97//52
f 39//68 101//65 43//67
f 39//68 99//58 102//112
f 87//113 10//20 4//6
f 47//76 104//114 86//115
f 47//76 89//81 48//77
f 47//76 85//69 104//114
f 72//100 84//104 76//103
f 82//116 29//45 21//35
f 116//117 92//118 115//119
f 59//120 81//108 116//117
f 96//50 36//62 33//51
f 21//35 110//34 82//116
f 21//35 112//22 111//36
f 53//109 118//111 113//121
f 3//8 114//122 119//10
f 6//14 122//7 4//6
f 4//6 124//123 87//113
f 7//12 125//4 126//13
f 6//14 1//11 121//124
f 2//3 3//8 119//10
f 31//47 32//54 64//48
f 99//58 39//68 29//45
f 105//80 51//83 48//77
f 52//86 51//83 108//87
f 34//64 31//47 63//49
f 91//89 66//96 60//90
f 37//73 67//94 68//92
f 34//64 69//93 67//94
f 90//95 70//125 66//96
f 58//97 70//125 90//95
f 32//54 31//47 56//99
f 72//100 58//97 95//98
f 13//25 74//30 75//16
f 83//102 77//126 76//103
f 48//77 79//82 56//99
f 55//105 77//126 83//102
f 78//17 54//127 3//8
f 60//90 52//86 94//85
f 80//107 55//105 106//106
f 53//109 59//120 117//110
f 33//51 43//67 98//66
f 39//68 102//112 101//65
f 87//113 103//23 10//20
f 47//76 86//115 89//81
f 47//76 36//62 85//69
f 72//100 88//101 84//104
f 82//116 100//59 29//45
f 116//117 117//110 59//120
f 59//120 80//107 81//108
f 81//108 92//118 116//117
f 96//50 109//70 36//62
f 3//8 54//127 114//122
f 6//14 121//124 122//7
f 4//6 123//5 124//123
f 7//12 2//3 125//4
