# Blender 4.1.1
# www.blender.org
mtllib idx-F2_L.mtl
o idx-F2_L
v 0.029571 -0.019419 -0.005568
v 0.032172 -0.019096 -0.005513
v 0.024568 -0.017575 -0.005808
v 0.032391 -0.016951 -0.005873
v 0.030095 -0.017629 -0.006289
v 0.017968 -0.015972 -0.006271
v 0.030545 -0.015616 -0.006267
v 0.024634 -0.015845 -0.006385
v 0.014269 -0.015171 -0.005921
v 0.015736 -0.014765 -0.006460
v 0.018021 -0.013909 -0.006845
v 0.027191 -0.014064 -0.006449
v 0.030301 -0.013644 -0.005921
v 0.019277 -0.011325 -0.006924
v 0.024584 -0.010864 -0.006235
v 0.030861 -0.012244 -0.005139
v 0.005286 -0.010019 -0.005837
v 0.012548 -0.011488 -0.006739
v 0.016209 -0.009554 -0.006630
v 0.011541 -0.009933 -0.006866
v 0.006466 -0.009545 -0.006350
v 0.025141 -0.009735 -0.005419
v 0.007517 -0.008840 -0.006748
v 0.020549 -0.009445 -0.006218
v 0.000107 -0.008066 -0.005665
v -0.000356 -0.006412 -0.006484
v 0.004179 -0.005994 -0.006933
v 0.010439 -0.006981 -0.006861
v 0.018118 -0.008214 -0.005746
v 0.018870 -0.007818 -0.005103
v 0.002411 -0.005856 -0.006969
v -0.001196 -0.006600 -0.005213
v 0.012056 -0.005277 -0.006225
v -0.002036 -0.005204 -0.006329
v -0.004776 -0.005562 -0.005178
v -0.001213 -0.004240 -0.006981
v 0.004858 -0.004668 -0.006803
v 0.012507 -0.003797 -0.005317
v -0.004594 -0.003258 -0.006378
v 0.010223 -0.003094 -0.006223
v 0.006310 -0.001079 -0.006172
v -0.000913 -0.000578 -0.007384
v -0.003538 -0.001406 -0.007008
v -0.004704 -0.000703 -0.005964
v 0.002634 -0.000728 -0.006727
v 0.010126 0.001164 -0.005803
v 0.011250 0.000930 -0.005462
v -0.004436 0.001120 -0.006437
v 0.005163 0.000554 -0.005633
v 0.003091 0.000975 -0.005959
v -0.002410 0.003280 -0.007295
v 0.000243 0.001983 -0.007249
v -0.003868 0.002568 -0.006262
v 0.002263 0.003721 -0.005726
v -0.002964 0.003525 -0.005480
v 0.000839 0.003816 -0.006891
v -0.001640 0.004284 -0.006393
v -0.000116 0.004606 -0.006567
v 0.001397 0.004389 -0.005617
v 0.032771 -0.018851 -0.005200
v 0.012620 -0.003754 -0.005200
v 0.003351 0.001333 -0.005200
v 0.033416 -0.014998 -0.005200
v 0.010543 -0.014112 -0.005200
v -0.005472 -0.002926 -0.005200
v 0.000035 0.004590 -0.005200
v -0.000135 0.004604 -0.005200
v 0.001389 0.004392 -0.005200
v -0.001709 -0.005836 -0.005200
v -0.002372 -0.005556 -0.005200
v 0.010443 0.001713 -0.005200
v 0.009448 0.001969 -0.005200
v 0.002370 0.003726 -0.005200
v 0.025239 -0.009603 -0.005200
v 0.016421 -0.006442 -0.005200
v 0.011447 0.000941 -0.005200
v 0.005026 0.000928 -0.005200
v 0.011167 0.001296 -0.005200
v 0.006920 0.001526 -0.005200
v 0.004129 0.001218 -0.005200
v -0.001501 0.004316 -0.005200
v -0.004687 -0.000580 -0.005200
v -0.003782 0.002658 -0.005200
v -0.001636 0.004286 -0.005200
v -0.001759 0.004218 -0.005200
v -0.002962 0.003527 -0.005200
v 0.028504 -0.019457 -0.005200
v 0.025096 -0.018368 -0.005200
v -0.000090 -0.008412 -0.005200
v -0.000450 -0.007948 -0.005200
v 0.018559 -0.017444 -0.005200
v 0.022169 -0.017986 -0.005200
v 0.023948 -0.018258 -0.005200
v -0.003870 0.002561 -0.005200
v 0.025700 -0.009782 -0.005200
v 0.033168 -0.014575 -0.005200
v 0.033309 -0.014784 -0.005200
v 0.001696 0.004232 -0.005200
v 0.001470 0.004351 -0.005200
v 0.032045 -0.019489 -0.005200
v 0.032469 -0.019368 -0.005200
v 0.029964 -0.019800 -0.005200
v 0.002664 0.003326 -0.005200
v -0.003920 0.002442 -0.005200
v -0.004437 0.001124 -0.005200
v 0.011747 -0.000021 -0.005200
v -0.005731 -0.003957 -0.005200
v -0.005401 -0.002058 -0.005200
v 0.001994 -0.009395 -0.005200
v 0.004496 -0.010435 -0.005200
v 0.009188 -0.013315 -0.005200
v 0.033354 -0.017292 -0.005200
v -0.004706 -0.000706 -0.005200
v 0.014483 -0.016334 -0.005110
vn 0.3720 -0.4963 -0.7844
vn 0.1400 -0.6444 -0.7518
vn 0.2923 -0.4085 -0.8647
vn 0.5275 -0.2541 -0.8107
vn -0.0772 -0.6227 -0.7786
vn -0.0846 -0.4829 -0.8716
vn -0.1395 -0.6592 -0.7389
vn 0.3821 -0.0472 -0.9229
vn 0.5445 -0.1046 -0.8322
vn -0.0700 -0.5868 -0.8067
vn 0.0615 -0.1962 -0.9786
vn 0.4476 0.0722 -0.8913
vn -0.0927 -0.6113 -0.7860
vn -0.1395 -0.6185 -0.7733
vn -0.1019 -0.4586 -0.8828
vn 0.1766 0.0889 -0.9803
vn -0.2861 -0.7149 -0.6381
vn -0.0028 -0.1951 -0.9808
vn -0.2472 -0.4990 -0.8306
vn -0.1442 -0.3314 -0.9324
vn -0.0239 -0.1463 -0.9890
vn -0.3062 -0.5473 -0.7789
vn 0.0847 0.0573 -0.9948
vn 0.3069 0.1793 -0.9347
vn 0.2412 0.2805 -0.9291
vn 0.0476 0.1243 -0.9911
vn 0.1684 0.3471 -0.9226
vn 0.3496 0.5314 -0.7716
vn 0.3182 0.2783 -0.9063
vn -0.3176 -0.5282 -0.7875
vn -0.2979 -0.5866 -0.7531
vn -0.2556 -0.5044 -0.8248
vn -0.0400 -0.1019 -0.9940
vn 0.0805 0.2093 -0.9745
vn -0.0011 -0.0531 -0.9986
vn -0.1844 -0.3549 -0.9165
vn 0.2392 0.6496 -0.7217
vn -0.1109 -0.2148 -0.9704
vn 0.1330 0.4914 -0.8607
vn 0.3090 0.7082 -0.6348
vn -0.2932 -0.6585 -0.6931
vn 0.2539 0.7733 -0.5809
vn -0.4797 -0.5939 -0.6459
vn -0.4062 -0.5484 -0.7309
vn -0.3624 -0.4419 -0.8206
vn 0.0184 0.0205 -0.9996
vn 0.0753 0.1043 -0.9917
vn 0.2204 0.5240 -0.8227
vn 0.3068 0.7216 -0.6206
vn -0.0342 -0.1504 -0.9880
vn 0.2521 0.3001 -0.9200
vn -0.8116 -0.5142 -0.2772
vn -0.3552 -0.5912 -0.7241
vn -0.1670 -0.2219 -0.9607
vn 0.0746 0.0899 -0.9932
vn 0.3934 0.5933 -0.7023
vn -0.2914 -0.7125 -0.6383
vn -0.1838 -0.9214 -0.3423
vn 0.4731 0.3448 -0.8107
vn -0.5327 -0.1501 -0.8329
vn 0.2059 0.1515 -0.9668
vn -0.6928 -0.0809 -0.7165
vn -0.7777 0.1281 -0.6155
vn 0.0624 0.2063 -0.9765
vn 0.0039 -0.0280 -0.9996
vn -0.3726 -0.0468 -0.9268
vn -0.9027 0.2800 -0.3268
vn 0.2374 0.1829 -0.9540
vn -0.8949 0.1322 -0.4263
vn 0.1574 0.3986 -0.9035
vn 0.5291 0.3456 -0.7750
vn 0.7293 0.2007 -0.6541
vn 0.5808 0.4042 -0.7066
vn -0.8414 0.1843 -0.5080
vn 0.0569 0.5502 -0.8331
vn 0.4662 0.4062 -0.7859
vn -0.3513 0.4500 -0.8210
vn 0.2128 0.0739 -0.9743
vn 0.7290 0.3885 -0.5637
vn 0.1904 0.8292 -0.5255
vn 0.5556 0.6627 -0.5021
vn -0.9276 0.3736 -0.0009
vn -0.8432 0.5375 0.0011
vn -0.7888 0.5235 -0.3220
vn 0.0140 0.7590 -0.6509
vn -0.1598 0.6282 -0.7614
vn 0.0403 0.6204 -0.7832
vn 0.2607 0.6414 -0.7216
vn 0.5163 0.5728 -0.6367
vn 0.3699 0.4183 -0.8296
vn 0.6965 0.5525 -0.4578
vn -0.3632 0.8825 -0.2989
vn -0.6178 0.7824 -0.0787
vn 0.7024 0.6958 -0.1498
vn 0.8406 0.4477 -0.3048
vn 0.0457 0.8648 -0.5000
vn 0.3955 0.8884 -0.2333
vn 0.5323 0.8441 -0.0647
vn 0.4593 0.8883 0.0014
vn -0.9515 0.3075 -0.0011
vn -0.3525 0.9358 -0.0004
vn -0.2033 0.9777 0.0518
vn -0.4908 0.8713 -0.0007
vn -0.7317 0.6816 0.0020
vn -0.2002 -0.7289 -0.6547
vn -0.6776 -0.4467 -0.5842
vn -0.6267 -0.7431 -0.2347
vn -0.0439 -0.7173 -0.6954
vn 0.3022 0.9513 0.0611
vn -0.9665 0.2568 -0.0017
vn -0.1177 0.9930 0.0003
vn 0.0552 0.9985 -0.0010
vn -0.9890 0.1478 -0.0017
vn -0.6194 0.7851 0.0001
s 1
usemtl rubber_black
f 101//1 100//2 2//3
f 60//4 101//1 2//3
f 93//5 3//6 88//7
f 60//4 4//8 112//9
f 2//3 1//10 5//11
f 4//8 2//3 5//11
f 5//11 1//10 3//6
f 63//12 112//9 4//8
f 92//13 91//14 6//15
f 5//11 7//16 4//8
f 114//17 6//15 91//14
f 3//6 6//15 8//18
f 5//11 3//6 8//18
f 7//16 5//11 8//18
f 114//17 9//19 6//15
f 9//19 10//20 6//15
f 10//20 11//21 6//15
f 6//15 11//21 8//18
f 64//22 9//19 114//17
f 7//16 8//18 12//23
f 4//8 97//24 63//12
f 8//18 11//21 12//23
f 7//16 12//23 13//25
f 12//23 11//21 14//26
f 13//25 15//27 16//28
f 96//29 13//25 16//28
f 111//30 110//31 17//32
f 9//19 17//32 10//20
f 11//21 10//20 18//33
f 11//21 18//33 14//26
f 15//27 13//25 12//23
f 19//34 18//33 20//35
f 14//26 18//33 19//34
f 15//27 12//23 14//26
f 10//20 17//32 21//36
f 16//28 15//27 22//37
f 10//20 21//36 23//38
f 18//33 10//20 23//38
f 24//39 15//27 14//26
f 16//28 22//37 95//40
f 18//33 23//38 20//35
f 19//34 24//39 14//26
f 24//39 22//37 15//27
f 109//41 17//32 110//31
f 95//40 22//37 74//42
f 109//41 89//43 25//44
f 17//32 25//44 26//45
f 21//36 17//32 26//45
f 20//35 23//38 27//46
f 19//34 20//35 28//47
f 24//39 19//34 29//48
f 24//39 30//49 22//37
f 29//48 30//49 24//39
f 21//36 26//45 31//50
f 23//38 21//36 31//50
f 20//35 27//46 28//47
f 23//38 31//50 27//46
f 33//51 19//34 28//47
f 29//48 19//34 33//51
f 26//45 32//52 34//53
f 26//45 34//53 36//54
f 31//50 26//45 36//54
f 28//47 27//46 37//55
f 30//49 29//48 75//56
f 35//57 34//53 70//58
f 37//55 27//46 31//50
f 33//51 38//59 29//48
f 34//53 35//57 39//60
f 39//60 36//54 34//53
f 40//61 33//51 28//47
f 28//47 37//55 40//61
f 33//51 40//61 38//59
f 107//62 65//63 39//60
f 40//61 37//55 41//64
f 37//55 31//50 42//65
f 36//54 39//60 43//66
f 31//50 36//54 42//65
f 42//65 36//54 43//66
f 108//67 39//60 65//63
f 37//55 42//65 45//68
f 45//68 41//64 37//55
f 43//66 39//60 44//69
f 46//70 40//61 41//64
f 38//59 40//61 47//71
f 47//71 40//61 46//70
f 38//59 106//72 61//73
f 43//66 44//69 48//74
f 49//75 45//68 50//76
f 41//64 45//68 49//75
f 48//74 51//77 43//66
f 42//65 43//66 51//77
f 52//78 45//68 42//65
f 52//78 50//76 45//68
f 46//70 41//64 49//75
f 106//72 47//71 76//79
f 80//80 50//76 62//81
f 104//82 94//83 53//84
f 48//74 53//84 51//77
f 52//78 42//65 51//77
f 77//85 79//86 49//75
f 72//87 71//88 46//70
f 78//89 46//70 71//88
f 56//90 50//76 52//78
f 50//76 56//90 54//91
f 51//77 53//84 57//92
f 57//92 53//84 55//93
f 52//78 51//77 56//90
f 73//94 103//95 54//91
f 58//96 51//77 57//92
f 56//90 51//77 58//96
f 56//90 58//96 59//97
f 54//91 56//90 59//97
f 54//91 98//98 73//94
f 98//98 59//97 99//99
f 108//67 113//100 44//69
f 57//92 84//101 81//102
f 57//92 85//103 84//101
f 55//93 85//103 57//92
f 83//104 55//93 53//84
f 80//80 49//75 50//76
f 47//71 78//89 76//79
f 87//105 3//6 1//10
f 25//44 90//106 26//45
f 3//6 92//13 6//15
f 46//70 79//86 72//87
f 53//84 94//83 83//104
f 34//53 69//107 70//58
f 7//16 96//29 97//24
f 1//10 102//108 87//105
f 2//3 102//108 1//10
f 59//97 68//109 99//99
f 48//74 104//82 53//84
f 44//69 105//110 48//74
f 34//53 32//52 69//107
f 26//45 90//106 32//52
f 57//92 67//111 58//96
f 58//96 67//111 66//112
f 59//97 66//112 68//109
f 39//60 35//57 107//62
f 9//19 111//30 17//32
f 44//69 113//100 82//113
f 103//95 50//76 54//91
f 38//59 75//56 29//48
f 22//37 30//49 74//42
f 60//4 2//3 4//8
f 4//8 7//16 97//24
f 109//41 25//44 17//32
f 108//67 44//69 39//60
f 38//59 47//71 106//72
f 78//89 47//71 46//70
f 54//91 59//97 98//98
f 55//93 86//114 85//103
f 83//104 86//114 55//93
f 80//80 77//85 49//75
f 87//105 88//7 3//6
f 25//44 89//43 90//106
f 3//6 93//5 92//13
f 46//70 49//75 79//86
f 7//16 13//25 96//29
f 2//3 100//2 102//108
f 48//74 105//110 104//82
f 44//69 82//113 105//110
f 57//92 81//102 67//111
f 59//97 58//96 66//112
f 9//19 64//22 111//30
f 103//95 62//81 50//76
f 38//59 61//73 75//56
