# Blender 4.1.1
# www.blender.org
mtllib idx-F2_TIP.mtl
o idx-F2_TIP
v 0.033965 -0.021291 -0.001662
v 0.033955 -0.021300 0.001750
v 0.032933 -0.021029 0.003601
v 0.033445 -0.020266 -0.004169
v 0.035898 -0.019372 0.001109
v 0.035186 -0.019789 -0.002444
v 0.034429 -0.019585 0.003812
v 0.035083 -0.017905 -0.003992
v 0.035121 -0.017152 0.003980
v 0.036218 -0.017358 -0.001401
v 0.035967 -0.016329 0.002173
v 0.033759 -0.015631 0.005175
v 0.035236 -0.014426 -0.003244
v 0.034690 -0.014033 0.003777
v 0.035509 -0.014254 -0.001030
v 0.034679 -0.012726 0.001550
v 0.032335 -0.019414 0.005200
v 0.031547 -0.019596 0.005200
v 0.033033 -0.018367 0.005200
v 0.032765 -0.019078 0.005200
v 0.033354 -0.017292 -0.005200
v 0.032771 -0.018851 -0.005200
v 0.034199 -0.012376 0.001334
v 0.034039 -0.012271 -0.001774
v 0.031801 -0.021390 0.002871
v 0.032175 -0.021526 0.002041
v 0.032696 -0.021714 0.000195
v 0.032696 -0.021712 -0.000841
v 0.031168 -0.020824 0.004159
v 0.033265 -0.013269 0.004415
v 0.033968 -0.013304 -0.003575
v 0.033655 -0.014885 -0.005037
v 0.032915 -0.014271 0.005192
v 0.033393 -0.015872 -0.005200
v 0.033512 -0.012679 0.003502
v 0.033718 -0.012279 0.002456
v 0.031686 -0.021341 -0.003269
v 0.032469 -0.019368 -0.005200
v 0.033741 -0.012257 0.002263
v 0.031376 -0.019800 0.005050
v 0.031414 -0.019617 0.005200
v 0.033704 -0.014683 -0.004950
v 0.031809 -0.021091 -0.003853
v 0.031734 -0.021264 -0.003563
v 0.033097 -0.013740 0.004821
v 0.031141 -0.021149 0.003444
v 0.033407 -0.018150 0.004982
v 0.034127 -0.013929 0.004146
v 0.033187 -0.019206 0.004848
v 0.033878 -0.015763 0.005071
v 0.033945 -0.015312 0.004896
v 0.032422 -0.021495 0.002000
v 0.032656 -0.021117 0.003422
v 0.032802 -0.020675 0.003952
v 0.032342 -0.021586 0.001451
v 0.032707 -0.021003 0.003673
v 0.034149 -0.013743 0.004020
v 0.034167 -0.013432 0.003655
v 0.034166 -0.012487 0.002034
v 0.031895 -0.021417 -0.002767
v 0.031809 -0.021091 -0.003853
v 0.031734 -0.021264 -0.003563
v 0.034166 -0.012487 0.002034
v 0.034167 -0.013432 0.003655
v 0.034149 -0.013743 0.004020
v 0.034199 -0.012376 0.001334
v 0.032707 -0.021003 0.003673
v 0.032802 -0.020675 0.003952
v 0.032656 -0.021117 0.003422
v 0.032422 -0.021495 0.002000
v 0.032342 -0.021586 0.001451
v 0.031895 -0.021417 -0.002767
v 0.033945 -0.015312 0.004896
v 0.033878 -0.015763 0.005071
v 0.033187 -0.019206 0.004848
v 0.034127 -0.013929 0.004146
v 0.033407 -0.018150 0.004982
vn 0.1452 -0.9810 0.1287
vn 0.1469 -0.9715 0.1862
vn 0.1534 -0.9707 0.1852
vn 0.4967 -0.8463 -0.1924
vn 0.2322 -0.9701 0.0704
vn 0.2472 -0.9625 -0.1118
vn 0.4651 -0.6152 -0.6366
vn 0.2809 -0.8782 -0.3871
vn 0.3358 -0.7254 -0.6008
vn 0.8992 -0.4124 0.1460
vn 0.4939 -0.8467 0.1978
vn 0.7992 -0.5062 -0.3242
vn 0.0894 -0.6377 0.7651
vn 0.1317 -0.6500 0.7484
vn 0.1276 -0.6549 0.7448
vn 0.6691 -0.4511 0.5905
vn 0.3092 -0.8003 0.5137
vn 0.7645 -0.1563 -0.6253
vn 0.9855 -0.0366 -0.1657
vn 0.7869 -0.0833 0.6115
vn 0.9630 0.1128 0.2447
vn 0.5802 -0.1762 0.7952
vn 0.6555 -0.0469 0.7537
vn 0.8311 0.3558 -0.4274
vn 0.6552 0.0490 -0.7538
vn 0.6826 0.3134 -0.6602
vn 0.7616 0.4008 0.5093
vn 0.9162 0.3964 -0.0593
vn 0.6555 -0.0469 0.7538
vn 0.6355 0.2106 0.7428
vn 0.5665 0.0998 0.8180
vn 0.7683 0.6237 0.1439
vn 0.5617 0.3800 0.7349
vn 0.5654 0.5150 0.6442
vn 0.6720 0.7168 -0.1862
vn 0.6412 0.5738 -0.5095
vn 0.5200 -0.3794 0.7653
vn 0.5724 -0.1808 0.7998
vn 0.5160 -0.3918 0.7618
vn 0.1055 -0.8080 0.5797
vn 0.2948 -0.6170 0.7297
vn 0.2951 -0.6148 0.7314
vn 0.5689 -0.0218 -0.8221
vn 0.5275 -0.2541 -0.8107
vn 0.5445 -0.1045 -0.8322
vn 0.6187 0.6222 0.4797
vn 0.5650 0.8214 0.0777
vn 0.0927 -0.9421 0.3224
vn 0.5322 0.8304 0.1648
vn 0.6103 0.7631 0.2126
vn 0.6144 0.7595 0.2137
vn 0.6187 0.6222 0.4796
vn 0.3721 -0.4962 -0.7844
vn 0.2808 -0.8782 -0.3871
vn 0.1602 -0.9569 -0.2421
vn 0.6356 0.2104 0.7428
vn 0.0914 -0.8063 0.5844
vn 0.0925 -0.9421 0.3225
vn 0.5656 0.5209 0.6393
vn 0.6161 0.6259 0.4782
vn 0.6106 0.7629 0.2124
vn 0.1056 -0.8079 0.5797
vn 0.0925 -0.9421 0.3224
vn 0.1602 -0.9570 -0.2420
vn 0.5470 0.3827 0.7445
vn 0.5597 0.3198 0.7645
vn 0.5199 -0.3795 0.7653
vn -0.0223 -0.9065 0.4215
vn 0.5654 0.5151 0.6442
s 1
usemtl rubber_black
f 71//1 52//2 26//3
f 1//4 27//5 28//6
f 4//7 62//8 61//9
f 5//10 2//11 1//4
f 5//10 1//4 6//12
f 41//13 40//14 18//15
f 1//4 4//7 6//12
f 2//11 7//16 3//17
f 7//16 2//11 5//10
f 4//7 8//18 6//12
f 6//12 8//18 10//19
f 6//12 10//19 5//10
f 7//16 5//10 9//20
f 11//21 9//20 5//10
f 5//10 10//19 11//21
f 77//22 9//20 50//23
f 13//24 32//25 42//26
f 8//18 13//24 10//19
f 11//21 14//27 9//20
f 15//28 10//19 13//24
f 10//19 15//28 11//21
f 74//29 51//30 12//31
f 11//21 15//28 16//32
f 16//32 14//27 11//21
f 76//33 14//27 57//34
f 13//24 24//35 15//28
f 16//32 15//28 24//35
f 24//35 13//24 31//36
f 49//37 19//38 20//39
f 56//40 3//17 54//41
f 49//37 17//42 68//41
f 8//18 34//43 32//25
f 4//7 22//44 8//18
f 8//18 22//44 21//45
f 57//34 14//27 58//46
f 16//32 24//35 66//47
f 52//2 25//48 26//3
f 39//49 63//50 23//47
f 36//51 64//52 63//50
f 4//7 43//9 38//53
f 44//54 72//55 37//55
f 13//24 42//26 31//36
f 73//56 14//27 76//33
f 29//57 25//48 53//58
f 16//32 58//46 14//27
f 30//59 64//52 35//60
f 16//32 66//47 59//61
f 67//62 17//42 40//14
f 3//17 56//40 69//63
f 2//11 55//1 27//5
f 2//11 69//63 70//2
f 1//4 60//64 62//8
f 9//20 73//56 50//23
f 7//16 54//41 3//17
f 48//33 30//59 45//65
f 51//30 45//65 33//66
f 47//22 12//31 19//38
f 7//16 77//22 75//67
f 1//4 2//11 27//5
f 4//7 1//4 62//8
f 13//24 8//18 32//25
f 49//37 47//22 19//38
f 49//37 20//39 17//42
f 8//18 21//45 34//43
f 4//7 38//53 22//44
f 52//2 53//58 25//48
f 39//49 36//51 63//50
f 36//51 35//60 64//52
f 53//58 67//62 29//57
f 29//57 46//68 25//48
f 16//32 59//61 58//46
f 30//59 65//69 64//52
f 40//14 29//57 67//62
f 67//62 68//41 17//42
f 17//42 18//15 40//14
f 2//11 70//2 55//1
f 2//11 3//17 69//63
f 1//4 28//6 60//64
f 9//20 14//27 73//56
f 7//16 75//67 54//41
f 48//33 65//69 30//59
f 33//66 12//31 51//30
f 51//30 48//33 45//65
f 47//22 74//29 12//31
f 7//16 9//20 77//22
