# Blender 4.1.1
# www.blender.org
mtllib idx-F2_R.mtl
o idx-F2_R
v 0.032139 -0.018887 0.005722
v 0.029865 -0.019368 0.005618
v 0.030408 -0.017950 0.006300
v 0.015916 -0.016469 0.005476
v 0.022605 -0.016301 0.006162
v 0.031160 -0.016044 0.006325
v 0.017427 -0.015332 0.006250
v 0.027712 -0.015406 0.006615
v 0.022651 -0.014872 0.006450
v 0.012095 -0.014406 0.005616
v 0.031822 -0.013505 0.005657
v 0.013085 -0.013489 0.006347
v 0.015506 -0.013103 0.006696
v 0.023579 -0.012423 0.006590
v 0.029109 -0.013810 0.006343
v 0.024614 -0.011005 0.006213
v 0.005882 -0.011322 0.005143
v 0.016355 -0.011150 0.006733
v 0.006752 -0.010059 0.006160
v 0.008590 -0.008850 0.006836
v 0.025918 -0.010331 0.005593
v 0.008840 -0.007343 0.006919
v 0.017162 -0.009641 0.006498
v 0.000695 -0.007566 0.006177
v 0.011023 -0.006921 0.006790
v 0.018428 -0.008525 0.005862
v 0.015349 -0.007251 0.006361
v 0.001808 -0.006643 0.006809
v 0.003806 -0.006020 0.007020
v -0.001272 -0.005262 0.006517
v 0.010941 -0.004414 0.006274
v 0.016365 -0.005532 0.005141
v -0.001834 -0.005811 0.005356
v -0.002431 -0.003703 0.006751
v 0.005350 -0.004840 0.006818
v -0.004699 -0.003775 0.005894
v -0.001364 -0.002392 0.007103
v 0.000533 -0.001178 0.007000
v 0.008676 -0.002822 0.006257
v 0.006005 0.000061 0.005821
v -0.003829 -0.000922 0.006738
v 0.003249 -0.001120 0.006441
v -0.004735 -0.000748 0.005326
v 0.009475 0.000637 0.005788
v 0.011539 0.000995 0.005250
v -0.004446 0.001160 0.005617
v -0.003898 0.002488 0.006255
v 0.004220 0.000252 0.005524
v -0.002289 0.003315 0.007031
v 0.002424 0.001235 0.006058
v 0.000149 0.004108 0.006972
v -0.002875 0.003601 0.005978
v 0.002046 0.004015 0.005800
v -0.001597 0.004306 0.006051
v 0.033033 -0.018367 0.005200
v 0.032519 -0.013633 0.005200
v 0.031917 -0.012853 0.005200
v -0.004735 -0.000747 0.005200
v 0.032765 -0.019078 0.005200
v 0.026432 -0.018860 0.005200
v 0.014536 -0.016126 0.005200
v 0.002192 0.003945 0.005200
v 0.024941 -0.009591 0.005200
v -0.004446 0.001159 0.005200
v -0.004426 0.001209 0.005200
v 0.022730 -0.008964 0.005200
v 0.019019 -0.008018 0.005200
v 0.003004 0.001577 0.005200
v -0.003895 0.002495 0.005200
v -0.003698 -0.005533 0.005200
v -0.002488 -0.005518 0.005200
v -0.005461 -0.003022 0.005200
v 0.009823 0.001693 0.005200
v -0.001843 -0.005808 0.005200
v -0.002115 -0.005755 0.005200
v -0.002881 0.003596 0.005200
v 0.005751 0.000596 0.005200
v 0.006612 0.000971 0.005200
v 0.008511 0.001497 0.005200
v -0.002797 0.003644 0.005200
v 0.004235 0.000450 0.005200
v 0.003979 0.000764 0.005200
v 0.004505 0.000548 0.005200
v 0.012566 -0.003195 0.005280
v 0.001190 0.004467 0.005239
v -0.000280 0.004592 0.005252
v -0.001600 0.004304 0.005200
v -0.002938 0.003535 0.005200
v 0.018939 -0.017262 0.005200
v 0.016244 -0.016759 0.005200
v 0.023043 -0.017783 0.005200
v -0.000499 -0.008021 0.005200
v -0.000093 -0.008387 0.005200
v 0.002549 0.003516 0.005200
v 0.002710 0.003006 0.005200
v -0.001830 -0.005815 0.005200
v 0.012187 -0.014964 0.005200
v -0.001620 -0.006083 0.005200
v -0.001238 -0.006344 0.005200
v 0.030099 -0.019824 0.005200
v 0.031547 -0.019596 0.005200
v -0.004455 0.001093 0.005200
v -0.004756 -0.004784 0.005200
v 0.026665 -0.010251 0.005200
v 0.029928 -0.011817 0.005200
v -0.004748 -0.000774 0.005200
v -0.005069 -0.001415 0.005200
v -0.005469 -0.002491 0.005200
v -0.005274 -0.004129 0.005200
v 0.033759 -0.015631 0.005175
v 0.015429 -0.016477 0.005200
v 0.032335 -0.019414 0.005200
vn 0.1276 -0.6550 0.7448
vn 0.2951 -0.6148 0.7314
vn 0.3253 -0.3802 0.8658
vn 0.5160 -0.3918 0.7618
vn -0.1857 -0.6464 0.7401
vn -0.0437 -0.6871 0.7253
vn -0.0623 -0.5827 0.8103
vn 0.0704 -0.2504 0.9656
vn 0.5724 -0.1808 0.7998
vn -0.1075 -0.6667 0.7375
vn -0.2052 -0.6393 0.7410
vn -0.2120 -0.7884 0.5774
vn -0.0743 -0.3780 0.9228
vn -0.2920 -0.7908 0.5380
vn 0.2534 0.0319 0.9668
vn 0.5673 0.1001 0.8174
vn -0.0696 -0.3529 0.9331
vn 0.0173 -0.0381 0.9991
vn -0.0211 -0.1300 0.9913
vn -0.3031 -0.6925 0.6547
vn -0.2879 -0.5201 0.8041
vn -0.3246 -0.5994 0.7317
vn 0.3741 0.3448 0.8609
vn -0.1694 -0.3359 0.9266
vn -0.0402 -0.1510 0.9877
vn 0.0411 0.0852 0.9955
vn 0.1497 0.2153 0.9650
vn 0.1313 0.3477 0.9284
vn 0.0385 0.0374 0.9986
vn -0.1967 -0.4069 0.8921
vn -0.3239 -0.6065 0.7261
vn -0.0744 -0.1671 0.9831
vn 0.2879 0.6711 0.6832
vn 0.2340 0.5697 0.7878
vn 0.2901 0.5821 0.7596
vn 0.4165 0.4804 0.7718
vn 0.0228 0.0227 0.9995
vn 0.1214 0.1964 0.9730
vn -0.2952 -0.4727 0.8303
vn 0.0790 0.1267 0.9888
vn 0.2427 0.4537 0.8574
vn 0.2258 0.6722 0.7051
vn 0.2113 0.2888 0.9338
vn -0.1369 -0.2672 0.9539
vn 0.1793 0.6678 0.7224
vn 0.3115 0.5997 0.7371
vn -0.0006 -0.0459 0.9989
vn -0.6924 -0.4594 0.5564
vn -0.3557 -0.4704 0.8076
vn -0.7029 -0.5582 0.4409
vn 0.1952 0.2223 0.9552
vn 0.4535 0.6002 0.6588
vn -0.6641 -0.6891 0.2901
vn -0.5021 -0.7749 0.3840
vn -0.6347 -0.7727 0.0036
vn -0.3258 -0.9454 0.0020
vn -0.3399 -0.8951 0.2886
vn -0.2528 -0.2300 0.9398
vn 0.0773 0.1318 0.9883
vn -0.6590 -0.2899 0.6941
vn -0.4669 -0.4833 0.7406
vn -0.5308 -0.2633 0.8056
vn -0.2277 -0.8948 0.3841
vn -0.1943 -0.8265 0.5283
vn -0.0827 -0.0550 0.9951
vn 0.4800 0.3472 0.8056
vn 0.1249 0.0736 0.9894
vn 0.0576 0.1551 0.9862
vn -0.0446 0.4569 0.8884
vn -0.7072 -0.0671 0.7039
vn -0.5111 0.0201 0.8593
vn 0.1925 0.2546 0.9477
vn -0.8776 0.3865 0.2838
vn -0.9236 0.2452 0.2947
vn -0.8918 0.4525 0.0006
vn -0.9516 0.3075 -0.0014
vn 0.0597 0.3164 0.9467
vn 0.5191 0.4193 0.7448
vn -0.9891 0.1474 -0.0017
vn -0.9442 0.1930 0.2669
vn -0.7796 0.4100 0.4735
vn 0.1907 0.6290 0.7536
vn -0.9665 0.2567 -0.0017
vn -0.3131 0.4223 0.8507
vn 0.5020 0.2367 0.8318
vn -0.1652 0.7965 0.5816
vn 0.2459 0.8222 0.5134
vn -0.1606 0.7141 0.6814
vn 0.1633 0.5869 0.7930
vn -0.2324 0.6492 0.7243
vn -0.1258 0.5705 0.8116
vn 0.0395 0.4760 0.8786
vn -0.9276 0.3735 -0.0009
vn -0.7318 0.6816 0.0018
vn -0.5947 0.7713 0.2266
vn -0.6195 0.7850 -0.0003
vn -0.8432 0.5376 0.0014
vn 0.6167 0.6142 0.4924
vn 0.6259 0.7775 0.0605
vn 0.8294 0.4667 0.3070
vn 0.8137 0.2135 0.5407
vn -0.4908 0.8713 -0.0009
vn -0.3034 0.9085 0.2873
vn -0.3516 0.9361 -0.0004
vn -0.0418 0.9930 0.1108
vn 0.2588 0.9573 0.1290
vn 0.6220 0.6058 0.4961
vn -0.1266 -0.5662 0.8145
vn -0.3646 -0.5468 0.7537
vn -0.7466 0.1439 0.6495
vn 0.5549 0.3813 0.7394
vn 0.6745 0.4046 0.6175
s 1
usemtl rubber_black
f 101//1 112//2 1//3
f 112//2 59//4 1//3
f 60//5 100//6 2//7
f 1//3 3//8 2//7
f 59//4 55//9 1//3
f 89//10 4//11 90//12
f 3//8 5//13 2//7
f 111//14 90//12 4//11
f 1//3 6//15 3//8
f 1//3 110//16 6//15
f 4//11 5//13 7//17
f 6//15 8//18 3//8
f 9//19 7//17 5//13
f 8//18 9//19 5//13
f 3//8 8//18 5//13
f 61//20 10//21 97//22
f 110//16 11//23 6//15
f 12//24 10//21 4//11
f 4//11 7//17 12//24
f 12//24 7//17 13//25
f 9//19 13//25 7//17
f 8//18 14//26 9//19
f 6//15 15//27 8//18
f 15//27 14//26 8//18
f 6//15 11//23 15//27
f 14//26 13//25 9//19
f 15//27 16//28 14//26
f 16//28 15//27 11//23
f 14//26 18//29 13//25
f 10//21 19//30 17//31
f 19//30 10//21 12//24
f 13//25 20//32 12//24
f 104//33 21//34 105//35
f 105//35 11//23 57//36
f 20//32 13//25 22//37
f 18//29 22//37 13//25
f 23//38 18//29 14//26
f 16//28 23//38 14//26
f 11//23 21//34 16//28
f 24//39 17//31 19//30
f 12//24 20//32 19//30
f 23//38 25//40 18//29
f 23//38 16//28 26//41
f 21//34 26//41 16//28
f 63//42 21//34 104//33
f 18//29 25//40 22//37
f 23//38 27//43 25//40
f 26//41 27//43 23//38
f 20//32 28//44 19//30
f 66//45 67//46 26//41
f 24//39 19//30 28//44
f 20//32 29//47 28//44
f 22//37 29//47 20//32
f 92//48 30//49 99//50
f 27//43 31//51 25//40
f 28//44 30//49 24//39
f 26//41 32//52 27//43
f 98//53 33//54 96//55
f 99//50 33//54 98//53
f 74//56 33//54 75//57
f 74//56 96//55 33//54
f 34//58 30//49 28//44
f 22//37 35//59 29//47
f 25//40 35//59 22//37
f 109//60 103//61 36//62
f 71//63 30//49 70//64
f 29//47 37//65 28//44
f 27//43 84//66 31//51
f 32//52 84//66 27//43
f 34//58 36//62 30//49
f 28//44 37//65 34//58
f 29//47 38//67 37//65
f 39//68 40//69 35//59
f 25//40 39//68 35//59
f 72//70 109//60 36//62
f 35//59 38//67 29//47
f 25//40 31//51 39//68
f 34//58 41//71 36//62
f 37//65 41//71 34//58
f 35//59 42//72 38//67
f 40//69 42//72 35//59
f 107//73 43//74 106//75
f 106//75 43//74 58//76
f 31//51 44//77 39//68
f 84//66 45//78 31//51
f 44//77 40//69 39//68
f 43//74 102//79 58//76
f 43//74 41//71 46//80
f 41//71 47//81 46//80
f 40//69 48//82 42//72
f 45//78 44//77 31//51
f 102//79 46//80 64//83
f 37//65 49//84 41//71
f 48//82 50//85 42//72
f 47//81 41//71 49//84
f 42//72 50//85 38//67
f 83//86 81//87 48//82
f 83//86 40//69 77//88
f 38//67 49//84 37//65
f 51//89 49//84 38//67
f 78//90 77//88 40//69
f 79//91 44//77 73//92
f 64//83 46//80 65//93
f 50//85 51//89 38//67
f 78//90 40//69 79//91
f 88//94 52//95 76//96
f 69//97 52//95 88//94
f 47//81 49//84 52//95
f 50//85 53//98 51//89
f 62//99 53//98 94//100
f 95//101 94//100 53//98
f 76//96 52//95 80//102
f 80//102 54//103 87//104
f 52//95 49//84 54//103
f 49//84 51//89 54//103
f 87//104 54//103 86//105
f 86//105 54//103 51//89
f 85//106 86//105 51//89
f 85//106 51//89 53//98
f 48//82 81//87 82//107
f 5//13 89//10 91//108
f 92//48 24//39 30//49
f 71//63 33//54 30//49
f 10//21 17//31 97//22
f 24//39 93//109 17//31
f 82//107 50//85 48//82
f 50//85 95//101 53//98
f 44//77 45//78 73//92
f 46//80 69//97 65//93
f 21//34 66//45 26//41
f 2//7 101//1 1//3
f 36//62 70//64 30//49
f 5//13 60//5 2//7
f 108//110 36//62 41//71
f 107//73 41//71 43//74
f 26//41 67//46 32//52
f 53//98 62//99 85//106
f 11//23 56//111 57//36
f 11//23 110//16 56//111
f 4//11 61//20 111//14
f 1//3 55//9 110//16
f 61//20 4//11 10//21
f 105//35 21//34 11//23
f 99//50 30//49 33//54
f 43//74 46//80 102//79
f 83//86 48//82 40//69
f 79//91 40//69 44//77
f 69//97 47//81 52//95
f 80//102 52//95 54//103
f 5//13 4//11 89//10
f 92//48 93//109 24//39
f 71//63 75//57 33//54
f 82//107 68//112 50//85
f 50//85 68//112 95//101
f 46//80 47//81 69//97
f 21//34 63//42 66//45
f 2//7 100//6 101//1
f 36//62 103//61 70//64
f 5//13 91//108 60//5
f 108//110 72//70 36//62
f 107//73 108//110 41//71
