# Blender 4.1.1
# www.blender.org
mtllib idx-F2_Base.mtl
o idx-F2.002
v 0.029750 -0.021467 -0.002168
v 0.030050 -0.021702 0.000565
v 0.024331 -0.020141 -0.000322
v 0.031470 -0.021261 -0.003788
v 0.032146 -0.021895 -0.000485
v 0.030849 -0.021694 0.002257
v 0.025130 -0.020263 0.001171
v 0.030578 -0.020756 0.004346
v 0.024578 -0.020071 -0.001912
v 0.024530 -0.019673 0.003092
v 0.018101 -0.018735 -0.002019
v 0.023700 -0.019440 -0.003480
v 0.025881 -0.019549 -0.004295
v 0.023221 -0.018385 0.004809
v 0.017584 -0.018791 -0.000153
v 0.017192 -0.018441 0.002450
v 0.016999 -0.018053 -0.003703
v 0.023581 -0.018663 -0.004840
v 0.017577 -0.017941 0.004076
v 0.014355 -0.017699 -0.001728
v 0.014162 -0.017738 0.000751
v 0.018629 -0.017620 -0.005072
v 0.012655 -0.016522 0.003628
v 0.033570 -0.014705 -0.005099
v 0.012140 -0.016363 -0.003426
v 0.014483 -0.016334 -0.005110
v 0.010662 -0.016125 -0.000815
v 0.011001 -0.016254 0.001519
v 0.012287 -0.015567 0.004750
v 0.004359 -0.012615 -0.001893
v 0.009923 -0.013936 -0.005080
v -0.000367 -0.010353 -0.000141
v 0.004259 -0.012498 0.002002
v 0.004460 -0.012006 0.003441
v 0.003131 -0.011378 -0.003388
v 0.031958 -0.012569 0.005001
v 0.003910 -0.010744 -0.004728
v 0.032620 -0.012110 -0.003928
v -0.000763 -0.009837 0.002501
v -0.001054 -0.009537 -0.002692
v -0.000526 -0.009179 -0.004171
v -0.000328 -0.008633 0.004908
v -0.001233 -0.009386 0.001056
v -0.001051 -0.007315 0.004278
v -0.001030 -0.007401 -0.004216
v -0.001231 -0.006577 0.004917
v -0.006134 -0.006400 -0.003295
v -0.004869 -0.006688 -0.002541
v -0.006390 -0.006831 -0.000779
v -0.005178 -0.006938 0.000921
v -0.005939 -0.006713 0.002135
v -0.007404 -0.005281 0.001815
v -0.003741 -0.005916 0.004083
v -0.004805 -0.005657 0.004599
v -0.003377 -0.005757 -0.004276
v -0.001600 -0.006048 -0.004821
v -0.007728 -0.004942 -0.001299
v -0.006488 -0.004875 0.003736
v -0.002438 -0.005625 -0.004980
v -0.002881 -0.005601 0.004774
v -0.006467 -0.004409 -0.004437
v -0.007244 -0.004292 0.001772
v -0.005786 -0.002807 -0.004778
v -0.005738 -0.002748 0.004948
v 0.015429 -0.016477 0.005200
v -0.005274 -0.004129 0.005200
v -0.005469 -0.002491 0.005200
v -0.004756 -0.004784 0.005200
v 0.030099 -0.019824 0.005200
v -0.001238 -0.006344 0.005200
v -0.001620 -0.006083 0.005200
v -0.001830 -0.005815 0.005200
v 0.012187 -0.014964 0.005200
v -0.000499 -0.008021 0.005200
v 0.018939 -0.017262 0.005200
v 0.023043 -0.017783 0.005200
v -0.000093 -0.008387 0.005200
v 0.016244 -0.016759 0.005200
v 0.029928 -0.011817 0.005200
v -0.001843 -0.005808 0.005200
v -0.002115 -0.005755 0.005200
v -0.002488 -0.005518 0.005200
v -0.003698 -0.005533 0.005200
v 0.005882 -0.011322 0.005143
v 0.014536 -0.016126 0.005200
v 0.026432 -0.018860 0.005200
v -0.005461 -0.003022 0.005200
v 0.031917 -0.012853 0.005200
v 0.032519 -0.013633 0.005200
v 0.004496 -0.010435 -0.005200
v 0.001994 -0.009395 -0.005200
v 0.029964 -0.019800 -0.005200
v 0.032045 -0.019489 -0.005200
v 0.033309 -0.014784 -0.005200
v 0.033168 -0.014575 -0.005200
v 0.009188 -0.013315 -0.005200
v 0.023948 -0.018258 -0.005200
v 0.022169 -0.017986 -0.005200
v -0.000090 -0.008412 -0.005200
v -0.000450 -0.007948 -0.005200
v 0.028504 -0.019457 -0.005200
v 0.032469 -0.019368 -0.005200
v 0.025096 -0.018368 -0.005200
v 0.018559 -0.017444 -0.005200
v -0.005731 -0.003957 -0.005200
v -0.001709 -0.005836 -0.005200
v -0.002372 -0.005556 -0.005200
v 0.030861 -0.012244 -0.005139
v -0.001196 -0.006600 -0.005213
v -0.005472 -0.002926 -0.005200
v -0.004776 -0.005562 -0.005178
v 0.010543 -0.014112 -0.005200
v 0.033416 -0.014998 -0.005200
v 0.032973 -0.012060 0.003376
v 0.033584 -0.012216 0.002582
v 0.029625 -0.011234 -0.004746
v 0.032066 -0.011850 -0.003969
v 0.032435 -0.011943 -0.003761
v 0.032639 -0.011975 0.003630
v 0.030096 -0.011328 0.004689
v -0.005521 -0.002316 0.005030
v -0.005542 -0.002330 -0.002437
v -0.005544 -0.002336 -0.005043
v 0.027753 -0.010762 -0.005176
v -0.005426 -0.002367 -0.005200
v -0.005414 -0.002342 0.005200
v 0.027581 -0.010691 0.005200
v -0.001222 -0.009261 0.001251
v -0.001220 -0.009261 0.000723
v 0.023869 -0.018481 0.004888
v 0.029584 -0.020578 0.004140
v 0.026396 -0.019408 0.004609
v 0.006299 -0.012012 -0.004868
v -0.000634 -0.009480 0.003214
v -0.000811 -0.009414 0.002799
v 0.032696 -0.021712 -0.000841
v 0.032696 -0.021714 0.000195
v 0.005230 -0.011636 0.004363
v 0.002522 -0.010640 0.004035
v 0.032175 -0.021526 0.002041
v 0.031801 -0.021390 0.002871
v 0.030638 -0.020965 0.003881
v 0.007757 -0.012564 0.005028
v 0.003578 -0.011014 -0.004157
v 0.000878 -0.010023 -0.003870
v -0.000841 -0.009393 -0.003288
v -0.001051 -0.009316 -0.002849
v 0.023174 -0.018226 0.004913
v 0.021398 -0.017574 0.005200
v 0.008517 -0.012844 0.005167
v 0.023789 -0.018434 -0.005044
v 0.026740 -0.019519 -0.004591
v 0.025577 -0.019091 -0.004646
v 0.022855 -0.018091 -0.005200
v 0.008204 -0.012711 -0.005200
v 0.026740 -0.019519 -0.004591
v 0.025577 -0.019091 -0.004646
v 0.023789 -0.018434 -0.005044
v 0.022855 -0.018091 -0.005200
v 0.021398 -0.017574 0.005200
v 0.023174 -0.018226 0.004913
v -0.001051 -0.009316 -0.002849
v -0.000841 -0.009393 -0.003288
v 0.000878 -0.010023 -0.003870
v 0.003578 -0.011014 -0.004157
v 0.007757 -0.012564 0.005028
v 0.008517 -0.012844 0.005167
v 0.030638 -0.020965 0.003881
v 0.005230 -0.011636 0.004363
v 0.002522 -0.010640 0.004035
v -0.000634 -0.009480 0.003214
v -0.000811 -0.009414 0.002799
v 0.006299 -0.012012 -0.004868
v 0.008204 -0.012711 -0.005200
v 0.029584 -0.020578 0.004140
v 0.026396 -0.019408 0.004609
v 0.023869 -0.018481 0.004888
v -0.001220 -0.009261 0.000723
v -0.001222 -0.009261 0.001251
v 0.031470 -0.021261 -0.003788
v 0.033097 -0.013740 0.004821
v 0.031734 -0.021264 -0.003563
v 0.031809 -0.021091 -0.003853
v 0.033704 -0.014683 -0.004950
v 0.031376 -0.019800 0.005050
v 0.031414 -0.019617 0.005200
v 0.033741 -0.012257 0.002263
v 0.031141 -0.021149 0.003444
v 0.034039 -0.012271 -0.001774
v 0.033718 -0.012279 0.002456
v 0.033512 -0.012679 0.003502
v 0.033655 -0.014885 -0.005037
v 0.033393 -0.015872 -0.005200
v 0.031686 -0.021341 -0.003269
v 0.033968 -0.013304 -0.003575
v 0.033265 -0.013269 0.004415
v 0.032915 -0.014271 0.005192
v 0.031168 -0.020824 0.004159
v 0.033728 -0.012236 -0.002246
v 0.033445 -0.012840 -0.003712
v 0.033022 -0.014207 -0.005107
v 0.033184 -0.013651 -0.004623
v 0.032978 -0.014382 -0.005195
v 0.033745 -0.012211 -0.002138
v 0.033184 -0.013651 -0.004623
v 0.033022 -0.014207 -0.005107
v 0.032978 -0.014382 -0.005195
v 0.033445 -0.012840 -0.003712
v 0.033728 -0.012236 -0.002246
v 0.033745 -0.012211 -0.002138
vn -0.1892 -0.9604 -0.2046
vn -0.1880 -0.9818 0.0263
vn -0.2251 -0.9741 -0.0219
vn 0.0537 -0.8690 -0.4918
vn 0.0982 -0.9941 -0.0470
vn -0.0675 -0.9693 0.2363
vn 0.2472 -0.9625 -0.1118
vn 0.1534 -0.9707 0.1851
vn 0.0928 -0.9421 0.3222
vn -0.2434 -0.9608 0.1328
vn -0.1075 -0.9121 0.3956
vn -0.2380 -0.9579 -0.1604
vn -0.2181 -0.9106 0.3511
vn -0.2428 -0.8776 0.4133
vn -0.1074 -0.9121 0.3956
vn -0.0514 -0.8108 0.5831
vn -0.2238 -0.9600 -0.1683
vn -0.2009 -0.9059 -0.3729
vn -0.1977 -0.7999 -0.5667
vn -0.2196 -0.7925 0.5689
vn -0.1781 -0.7377 -0.6513
vn 0.1400 -0.6444 -0.7518
vn 0.0537 -0.8691 -0.4918
vn -0.0439 -0.7173 -0.6954
vn -0.2427 -0.9701 -0.0027
vn -0.2502 -0.9422 0.2228
vn -0.2509 -0.8911 -0.3782
vn -0.1308 -0.7472 -0.6515
vn -0.1580 -0.6616 -0.7330
vn -0.2042 -0.8535 0.4794
vn -0.1579 -0.7223 0.6733
vn -0.3436 -0.9273 -0.1484
vn -0.3506 -0.9336 0.0735
vn -0.1567 -0.7489 -0.6439
vn -0.3692 -0.8480 0.3802
vn -0.4038 -0.8394 -0.3637
vn -0.2862 -0.7150 -0.6378
vn -0.0869 -0.5607 0.8235
vn -0.1348 -0.5655 0.8136
vn -0.0947 -0.6141 -0.7835
vn -0.0790 -0.6247 -0.7769
vn -0.2245 -0.6323 0.7415
vn -0.4441 -0.8926 -0.0775
vn -0.4395 -0.8887 0.1307
vn -0.3031 -0.6929 0.6542
vn -0.2920 -0.7908 0.5380
vn -0.4623 -0.8596 -0.2177
vn -0.5900 -0.8073 -0.0151
vn -0.4564 -0.8563 0.2417
vn 0.5597 0.3198 0.7645
vn 0.5470 0.3827 0.7445
vn 0.5549 0.3813 0.7394
vn -0.4083 -0.7829 0.4694
vn -0.3612 -0.6375 -0.6806
vn -0.3553 -0.6944 0.6258
vn 0.3069 0.1793 -0.9347
vn 0.3182 0.2784 -0.9062
vn 0.5429 0.2615 -0.7980
vn -0.4073 -0.7970 -0.4459
vn -0.3752 -0.6319 -0.6782
vn -0.3743 -0.7351 -0.5654
vn -0.3379 -0.6709 -0.6601
vn 0.4215 0.4889 -0.7637
vn 0.5372 0.5024 -0.6775
vn 0.6403 0.5695 -0.5155
vn 0.5209 0.6803 -0.5156
vn -0.4474 -0.5908 0.6714
vn -0.3241 -0.6068 0.7258
vn -0.3016 -0.7295 0.6138
vn -0.3426 -0.5977 0.7248
vn -0.4473 -0.5910 0.6713
vn -0.3062 -0.5473 -0.7789
vn -0.3176 -0.5282 -0.7875
vn -0.7142 -0.6458 0.2699
vn 0.5306 0.7395 -0.4143
vn 0.4601 0.8283 -0.3197
vn 0.5056 0.8218 -0.2626
vn 0.5323 0.8304 0.1648
vn 0.6044 0.7489 0.2717
vn 0.6144 0.7595 0.2137
vn -0.8256 -0.5244 -0.2084
vn -0.7062 -0.5880 -0.3945
vn -0.6362 -0.5989 -0.4863
vn -0.3841 -0.8017 -0.4579
vn -0.3765 -0.7630 0.5254
vn -0.6877 -0.5919 0.4204
vn -0.3017 -0.7295 0.6138
vn 0.3982 0.7702 -0.4982
vn -0.9458 -0.3226 0.0371
vn -0.3646 -0.5468 0.7537
vn -0.6115 -0.5724 0.5463
vn -0.9898 -0.0876 0.1122
vn -0.9142 -0.2979 0.2747
vn -0.9507 -0.2792 0.1352
vn -0.6883 -0.5914 0.4202
vn -0.9770 -0.2027 -0.0662
vn -0.9650 -0.1450 -0.2184
vn -0.9991 0.0354 -0.0251
vn -0.4797 -0.5939 -0.6459
vn -0.6777 -0.4467 -0.5842
vn -0.8532 -0.4873 0.1859
vn -0.6937 -0.4591 0.5549
vn -0.4746 -0.7751 -0.4172
vn 0.2195 -0.9601 -0.1734
vn -0.4724 -0.8794 -0.0584
vn 0.2188 -0.9742 0.0547
vn -0.3614 -0.8789 0.3114
vn -0.8118 -0.5141 -0.2770
vn -0.9204 -0.2822 0.2708
vn 0.1749 -0.9558 0.2365
vn -0.3303 -0.7316 0.5964
vn 0.1366 -0.9797 -0.1469
vn -0.6779 -0.7313 -0.0751
vn -0.6262 -0.7434 -0.2350
vn -0.9928 0.0102 -0.1193
vn -0.7922 -0.2824 0.5409
vn -0.2914 -0.7127 -0.6380
vn -0.1756 -0.9635 -0.2022
vn -0.0410 -0.9879 0.1499
vn -0.2301 -0.8933 0.3861
vn -0.3398 -0.8952 0.2883
vn -0.1838 -0.9214 -0.3423
vn -0.8292 -0.0883 -0.5519
vn -0.8931 0.4198 0.1614
vn -0.4670 -0.4833 0.7405
vn -0.1937 -0.8272 0.5274
vn -0.6927 -0.0813 -0.7166
vn -0.8765 0.3425 -0.3384
vn -0.8734 0.2167 0.4362
vn -0.7466 0.1437 0.6496
vn -0.7072 -0.0671 0.7039
vn -0.9296 0.2631 0.2581
vn -0.7827 0.2268 0.5795
vn -0.1076 -0.6670 0.7372
vn -0.3258 -0.9454 0.0020
vn -0.6346 -0.7728 0.0036
vn -0.7011 -0.5595 0.4420
vn -0.6643 -0.6890 0.2898
vn 0.3594 0.6957 0.6220
vn 0.2902 0.5822 0.7595
vn 0.4384 0.5902 0.6779
vn -0.3246 -0.5994 0.7317
vn -0.1857 -0.6465 0.7400
vn -0.2247 -0.6323 0.7414
vn -0.6589 -0.2900 0.6941
vn 0.4165 0.4804 0.7718
vn -0.0925 -0.6110 -0.7862
vn -0.0790 -0.6246 -0.7769
vn -0.1395 -0.6592 -0.7390
vn -0.1579 -0.6616 -0.7330
vn 0.2906 0.7210 -0.6290
vn 0.3499 0.5320 -0.7711
vn 0.2987 0.5530 -0.7778
vn 0.4215 0.4889 -0.7638
vn 0.3306 0.3103 -0.8913
vn 0.3356 -0.7254 -0.6010
vn 0.3720 -0.4963 -0.7844
vn -0.2933 -0.6586 -0.6930
vn -0.2979 -0.5866 -0.7531
vn -0.3224 -0.5583 -0.7644
vn 0.4478 0.0720 -0.8912
vn -0.1395 -0.6185 -0.7733
vn -0.8452 0.3758 -0.3799
vn -0.7777 0.1281 -0.6155
vn -0.8918 0.4525 0.0008
vn 0.4934 0.6814 0.5406
vn 0.6162 0.6259 0.4782
vn -0.1781 -0.7376 -0.6513
vn -0.2001 -0.7290 -0.6546
vn -0.0772 -0.6227 -0.7786
vn -0.1266 -0.5662 0.8145
vn -0.7057 -0.5885 -0.3944
vn -0.3842 -0.8019 -0.4576
vn 0.0913 -0.8064 0.5842
vn -0.0223 -0.9065 0.4215
vn -0.3765 -0.7630 0.5255
vn 0.2322 -0.9701 0.0704
vn -0.9142 -0.2980 0.2747
vn -0.3754 -0.6323 -0.6777
vn -0.2195 -0.7924 0.5692
vn -0.9991 0.0353 -0.0252
vn -0.9898 -0.0880 0.1125
vn 0.2809 -0.8783 -0.3868
vn 0.1602 -0.9570 -0.2420
vn -0.0433 -0.6870 0.7254
vn 0.1317 -0.6500 0.7484
vn 0.0894 -0.6377 0.7651
vn 0.6552 0.0490 -0.7538
vn 0.6826 0.3134 -0.6602
vn 0.5656 0.5210 0.6392
vn 0.6186 0.6328 0.4658
vn 0.5307 0.7389 -0.4151
vn 0.6412 0.5739 -0.5094
vn 0.6403 0.5694 -0.5156
vn 0.6719 0.7168 -0.1863
vn -0.2120 -0.7884 0.5774
vn 0.3138 0.6163 0.7223
vn -0.6612 -0.0519 -0.7484
vn 0.5689 -0.0218 -0.8221
s 1
usemtl rubber_black
f 1//1 2//2 3//3
f 1//1 180//4 5//5
f 1//1 5//5 2//2
f 5//5 6//6 2//2
f 136//7 5//5 180//4
f 140//8 141//9 6//6
f 3//3 2//2 7//10
f 2//2 6//6 7//10
f 141//9 142//11 6//6
f 1//1 3//3 9//12
f 6//6 10//13 7//10
f 131//14 168//15 8//16
f 9//12 3//3 11//17
f 9//12 12//18 1//1
f 13//19 1//1 12//18
f 1//1 13//19 180//4
f 176//20 10//13 175//14
f 180//4 13//19 152//21
f 93//22 4//23 92//24
f 3//3 7//10 15//25
f 15//25 11//17 3//3
f 10//13 16//26 7//10
f 12//18 9//12 17//27
f 13//19 12//18 18//28
f 152//21 13//19 153//29
f 15//25 7//10 16//26
f 17//27 9//12 11//17
f 17//27 18//28 12//18
f 10//13 19//30 16//26
f 19//30 10//13 14//31
f 20//32 17//27 11//17
f 11//17 15//25 20//32
f 20//32 15//25 21//33
f 15//25 16//26 21//33
f 18//28 17//27 22//34
f 23//35 21//33 16//26
f 25//36 17//27 20//32
f 16//26 19//30 23//35
f 22//34 17//27 26//37
f 149//38 14//31 148//39
f 18//28 159//40 151//41
f 177//42 148//39 14//31
f 27//43 25//36 20//32
f 20//32 21//33 27//43
f 27//43 21//33 28//44
f 21//33 23//35 28//44
f 25//36 26//37 17//27
f 85//45 23//35 65//46
f 25//36 27//43 30//47
f 27//43 28//44 32//48
f 28//44 23//35 33//49
f 197//50 181//51 89//52
f 32//48 30//47 27//43
f 34//53 33//49 23//35
f 31//54 26//37 25//36
f 23//35 29//55 34//53
f 94//56 95//57 24//58
f 30//47 35//59 25//36
f 28//44 33//49 32//48
f 173//60 165//61 37//62
f 31//54 25//36 35//59
f 201//63 202//64 24//58
f 208//65 205//64 38//66
f 166//67 84//68 169//69
f 29//55 167//70 143//71
f 112//72 31//54 96//73
f 39//74 33//49 34//53
f 33//49 39//74 32//48
f 209//75 118//76 210//77
f 187//78 115//79 190//80
f 35//59 30//47 40//81
f 32//48 40//81 30//47
f 163//82 41//83 164//84
f 39//74 139//85 134//86
f 138//87 139//85 34//53
f 118//76 38//66 117//88
f 40//81 32//48 43//89
f 39//74 43//89 32//48
f 164//84 37//62 165//61
f 77//90 42//91 84//68
f 179//92 172//93 44//94
f 171//95 44//94 172//93
f 45//96 163//82 162//97
f 162//97 178//98 45//96
f 44//94 178//98 179//92
f 99//99 41//83 100//100
f 42//91 46//101 44//94
f 74//102 42//91 77//90
f 47//103 48//104 49//105
f 48//104 50//106 49//105
f 49//105 50//106 51//107
f 109//108 44//94 46//101
f 100//100 41//83 109//108
f 109//108 41//83 45//96
f 44//94 109//108 45//96
f 52//109 49//105 51//107
f 50//106 53//110 51//107
f 51//107 53//110 54//111
f 47//103 55//112 48//104
f 48//104 53//110 50//106
f 109//108 56//113 106//114
f 109//108 46//101 56//113
f 47//103 49//105 57//115
f 49//105 52//109 57//115
f 52//109 51//107 58//116
f 54//111 58//116 51//107
f 111//117 59//118 55//112
f 47//103 111//117 55//112
f 48//104 55//112 53//110
f 55//112 60//119 53//110
f 55//112 59//118 60//119
f 53//110 60//119 54//111
f 82//120 60//119 81//121
f 106//114 59//118 107//122
f 111//117 47//103 61//123
f 57//115 52//109 62//124
f 47//103 57//115 61//123
f 68//125 54//111 83//126
f 52//109 58//116 62//124
f 111//117 61//123 105//127
f 61//123 57//115 63//128
f 58//116 64//129 62//124
f 62//124 63//128 57//115
f 64//129 63//128 62//124
f 67//130 64//129 87//131
f 121//132 67//130 126//133
f 75//134 19//30 14//31
f 80//135 60//119 59//118
f 56//113 80//135 59//118
f 60//119 83//126 54//111
f 46//101 72//136 56//113
f 74//102 46//101 42//91
f 46//101 70//137 71//138
f 120//139 79//140 36//141
f 29//55 85//45 73//142
f 8//16 86//143 130//144
f 54//111 66//145 58//116
f 64//129 66//145 87//131
f 36//141 79//140 88//146
f 19//30 65//46 23//35
f 22//34 98//147 18//28
f 158//148 103//149 157//150
f 116//151 108//152 124//153
f 206//154 207//155 108//152
f 183//156 93//22 102//157
f 63//128 105//127 61//123
f 59//118 111//117 107//122
f 41//83 91//158 37//62
f 173//60 90//159 155//160
f 37//62 91//158 90//159
f 24//58 113//161 94//56
f 22//34 26//37 104//162
f 31//54 112//72 26//37
f 123//163 110//164 63//128
f 63//128 122//165 123//163
f 64//129 122//165 63//128
f 36//141 119//166 120//139
f 108//152 117//88 38//66
f 115//79 191//167 190//80
f 156//168 103//149 101//169
f 97//170 158//148 154//40
f 18//28 153//29 13//19
f 76//171 160//38 161//39
f 40//81 147//97 146//172
f 40//81 145//173 35//59
f 35//59 145//173 144//61
f 84//68 166//67 150//70
f 198//174 168//15 188//175
f 143//71 34//53 29//55
f 84//68 170//176 169//69
f 137//177 6//6 5//5
f 5//5 136//7 137//177
f 42//91 171//95 170//176
f 39//74 134//86 135//178
f 35//59 133//179 31//54
f 31//54 174//160 96//73
f 6//6 175//14 10//13
f 8//16 132//180 131//14
f 76//171 130//144 86//143
f 14//31 176//20 177//42
f 40//81 129//181 147//97
f 39//74 128//182 43//89
f 43//89 128//182 129//181
f 4//23 101//169 92//24
f 182//183 194//184 4//23
f 69//185 185//186 186//187
f 192//188 113//161 24//58
f 24//58 184//189 192//188
f 4//23 183//156 182//183
f 196//190 114//191 119//166
f 199//192 195//193 200//194
f 181//51 36//141 88//146
f 8//16 198//174 185//186
f 108//152 205//64 206//154
f 95//57 201//63 24//58
f 24//58 200//194 195//193
f 189//195 199//192 204//77
f 38//66 209//75 208//65
f 176//20 14//31 10//13
f 149//38 75//134 14//31
f 18//28 98//147 159//40
f 85//45 29//55 23//35
f 29//55 73//142 167//70
f 209//75 38//66 118//76
f 39//74 34//53 139//85
f 164//84 41//83 37//62
f 171//95 42//91 44//94
f 45//96 41//83 163//82
f 44//94 45//96 178//98
f 106//114 56//113 59//118
f 121//132 64//129 67//130
f 75//134 78//196 19//30
f 80//135 81//121 60//119
f 56//113 72//136 80//135
f 60//119 82//120 83//126
f 46//101 71//138 72//136
f 74//102 70//137 46//101
f 120//139 127//197 79//140
f 130//144 132//180 8//16
f 8//16 69//185 86//143
f 54//111 68//125 66//145
f 64//129 58//116 66//145
f 19//30 78//196 65//46
f 22//34 104//162 98//147
f 158//148 97//170 103//149
f 183//156 4//23 93//22
f 63//128 110//164 105//127
f 41//83 99//99 91//158
f 173//60 37//62 90//159
f 123//163 125//198 110//164
f 64//129 121//132 122//165
f 108//152 116//151 117//88
f 115//79 114//191 191//167
f 156//168 157//150 103//149
f 18//28 151//41 153//29
f 40//81 146//172 145//173
f 198//174 8//16 168//15
f 143//71 138//87 34//53
f 84//68 42//91 170//176
f 137//177 140//8 6//6
f 35//59 144//61 133//179
f 31//54 133//179 174//160
f 6//6 142//11 175//14
f 76//171 161//39 130//144
f 40//81 43//89 129//181
f 39//74 135//178 128//182
f 4//23 156//168 101//169
f 69//185 8//16 185//186
f 192//188 193//199 113//161
f 119//166 36//141 196//190
f 196//190 191//167 114//191
f 199//192 189//195 195//193
f 88//146 89//52 181//51
f 181//51 196//190 36//141
f 108//152 38//66 205//64
f 95//57 203//155 201//63
f 195//193 184//189 24//58
f 24//58 202//64 200//194
