# Blender 4.1.1
# www.blender.org
mtllib thumb_F2_Base.mtl
o thumb-F2
v -0.078322 -0.001125 -0.004598
v -0.078311 -0.001607 0.004757
v -0.067493 0.020738 0.000214
v -0.077768 0.010985 0.006852
v -0.077868 0.011550 -0.006827
v -0.065224 0.019156 -0.005458
v -0.067139 0.019813 -0.003321
v -0.066595 0.020665 -0.001317
v -0.028991 0.017088 0.002699
v -0.067372 0.019512 0.005452
v -0.028590 0.016293 0.005237
v -0.021618 0.016183 0.002182
v -0.028610 0.017308 0.000143
v -0.077658 -0.003451 -0.004975
v -0.067598 0.020365 0.002709
v -0.067072 0.018645 0.007093
v -0.029591 0.015546 0.006915
v -0.032061 0.017466 -0.001782
v -0.065165 0.020126 -0.003517
v -0.027437 0.016655 -0.003465
v -0.025454 0.015445 0.006394
v -0.017400 0.014577 -0.000459
v -0.020160 0.015290 -0.002660
v -0.015308 0.012959 0.003749
v -0.014012 0.010941 0.006251
v -0.032069 0.016401 -0.005085
v -0.010584 0.011030 -0.000624
v -0.017944 0.012690 -0.006743
v -0.014970 0.011532 -0.006743
v -0.077806 0.007515 -0.006743
v -0.066052 -0.004478 -0.006743
v -0.064252 0.018692 -0.006655
v -0.031005 0.015791 -0.006834
v -0.076966 0.012517 -0.006675
v -0.025091 0.015052 -0.006792
v -0.077885 0.007751 -0.006743
v -0.070193 -0.001803 -0.006743
v -0.069116 -0.002998 -0.006743
v -0.067700 -0.003936 -0.006743
v -0.078347 0.009338 -0.006743
v -0.067394 -0.004119 -0.006743
v -0.078394 0.010304 -0.006743
v -0.078401 0.010281 -0.006743
v -0.078396 0.009623 -0.006743
v -0.078400 0.009020 0.007000
v -0.078398 0.008789 0.007000
v -0.076814 0.011538 0.007000
v -0.077168 0.011240 0.007000
v -0.077276 0.011117 0.007000
v -0.025269 0.014902 0.007000
v -0.066513 -0.004522 0.007000
v -0.069612 -0.003337 0.007000
v -0.070735 -0.002460 0.007000
v -0.014914 0.010727 0.007000
v -0.012304 0.009120 0.007000
v -0.027386 0.015224 0.007000
v -0.072527 -0.000580 0.007000
v -0.020431 0.013695 0.006966
v -0.078225 0.007397 0.007000
v -0.078007 0.010235 0.007000
v -0.078391 0.007958 0.007000
v -0.068193 -0.004627 -0.006530
v -0.076933 -0.004451 0.005194
v -0.077117 -0.004448 0.005045
v -0.068672 -0.004618 -0.006470
v -0.075888 -0.004473 -0.005390
v -0.071814 -0.004555 -0.006055
v -0.076311 -0.004464 0.005349
v -0.064565 -0.004700 -0.006743
v -0.072153 -0.004548 0.006248
v -0.070938 -0.004572 0.006466
v -0.066838 -0.004655 0.006921
v -0.066126 -0.004669 0.007000
v -0.066309 -0.004665 -0.006667
v -0.076915 -0.004452 -0.005217
v -0.077163 -0.004447 0.001354
v -0.077136 -0.004447 -0.005096
v -0.010000 0.009615 -0.005637
v -0.010000 0.009826 0.003210
v -0.010000 0.009690 -0.005366
v -0.010000 0.009311 -0.006743
v -0.010000 0.009505 -0.005967
v -0.010000 0.008992 0.004963
v -0.010000 0.008392 0.005930
v -0.010000 0.007503 0.007000
v -0.010000 0.010627 -0.000418
v -0.010000 0.010669 -0.000633
v -0.010000 0.010641 -0.000846
v -0.010000 0.010221 -0.002942
vn -0.6728 0.7386 0.0438
vn -0.7335 0.6789 0.0334
vn 0.0813 0.9498 -0.3020
vn -0.3567 0.7364 -0.5749
vn -0.5149 0.8153 -0.2649
vn -0.3878 0.8815 -0.2695
vn 0.0809 0.9540 0.2888
vn 0.0809 0.9544 0.2874
vn 0.0808 0.9547 0.2863
vn 0.1362 0.9513 0.2765
vn 0.0879 0.9961 0.0040
vn -0.3645 0.7468 -0.5563
vn 0.0810 0.9536 0.2899
vn 0.0836 0.9850 0.1508
vn -0.4588 0.6207 0.6358
vn 0.0883 0.9792 -0.1825
vn 0.0896 0.9710 -0.2216
vn 0.0907 0.9925 -0.0819
vn 0.0908 0.9925 -0.0814
vn 0.1453 0.9435 0.2977
vn 0.3094 0.9475 -0.0810
vn 0.3097 0.9473 -0.0815
vn -0.8859 -0.4639 -0.0037
vn -0.6566 0.7494 0.0847
vn -0.4992 -0.1447 -0.8543
vn -0.4991 -0.1450 -0.8543
vn -0.4990 -0.1440 -0.8545
vn -0.1802 0.9219 -0.3430
vn 0.1954 0.9734 -0.1196
vn 0.1914 0.9747 -0.1154
vn 0.1959 0.9732 -0.1205
vn 0.2079 0.9305 -0.3016
vn 0.0876 0.9913 0.0984
vn 0.1284 0.9863 0.1040
vn 0.0763 0.8897 0.4502
vn 0.0763 0.8915 0.4465
vn 0.0755 0.8873 0.4550
vn -0.5848 0.7597 0.2844
vn -0.5205 0.7120 0.4713
vn 0.1221 0.9829 -0.1382
vn 0.1903 0.9750 -0.1146
vn 0.4245 0.8956 0.1333
vn 0.2622 0.8812 0.3932
vn 0.5031 0.7345 0.4555
vn 0.0941 0.8006 0.5918
vn -0.9621 -0.2725 -0.0129
vn -0.3474 0.3039 0.8871
vn -0.3478 0.3036 0.8870
vn -0.3475 0.3038 0.8871
vn -0.3451 0.2861 0.8939
vn -0.1830 0.8816 -0.4350
vn 0.0850 0.9182 -0.3870
vn 0.0824 0.9558 -0.2823
vn 0.0824 0.9557 -0.2824
vn 0.0825 0.9557 -0.2826
vn 0.1215 0.9579 -0.2600
vn 0.0772 0.8929 0.4436
vn 0.0777 0.8928 0.4438
vn -0.3934 0.4661 0.7925
vn 0.4750 0.6768 0.5624
vn 0.3946 0.8043 0.4443
vn 0.3513 0.8635 0.3619
vn 0.1937 0.7592 0.6214
vn 0.4609 0.8807 0.1095
vn 0.2905 0.8707 -0.3968
vn 0.0838 0.9196 -0.3839
vn 0.1152 0.7569 0.6433
vn 0.3948 0.6410 0.6582
vn 0.4184 0.8757 -0.2411
vn 0.0790 0.8905 -0.4480
vn 0.0790 0.8905 -0.4482
vn -0.0480 -0.3204 -0.9461
vn -0.1630 -0.1424 -0.9763
vn -0.1614 -0.1406 -0.9768
vn -0.1645 -0.1561 -0.9740
vn -0.1666 -0.1554 -0.9737
vn -0.1677 -0.1370 -0.9763
vn -0.1319 -0.2008 -0.9707
vn -0.1322 -0.2001 -0.9708
vn 0.3978 0.8901 -0.2223
vn 0.3905 0.8691 -0.3034
vn 0.3812 0.8691 -0.3153
vn 0.3883 0.8691 -0.3063
vn -0.1261 -0.2097 -0.9696
vn -0.1255 -0.2098 -0.9697
vn -0.1254 -0.2103 -0.9696
vn -0.1257 -0.2102 -0.9695
vn -0.0725 -0.2886 -0.9547
vn -0.0754 -0.2839 -0.9559
vn -0.0747 -0.2851 -0.9556
vn -0.9206 0.3899 0.0228
vn -0.9510 0.3080 0.0283
vn -0.7840 -0.1265 -0.6078
vn -0.2110 -0.2012 0.9566
vn 0.3637 0.6834 0.6329
vn -0.2406 -0.1718 0.9553
vn -0.1114 -0.2915 0.9501
vn -0.1109 -0.2926 0.9498
vn -0.1112 -0.2919 0.9500
vn -0.6212 -0.1839 0.7618
vn -1.0000 -0.0086 0.0007
vn -1.0000 -0.0075 -0.0002
vn -1.0000 -0.0077 -0.0000
vn -1.0000 -0.0070 -0.0006
vn -0.1761 -0.2255 0.9582
vn -0.1115 -0.2914 0.9501
vn -0.9222 -0.3865 0.0114
vn -0.4760 -0.1463 -0.8672
vn -0.4773 -0.1462 -0.8665
vn -0.4768 -0.1462 -0.8668
vn 0.5199 0.8379 0.1662
vn 0.5209 0.8462 -0.1123
vn 0.4995 0.7823 0.3722
vn 0.5134 0.8380 0.1849
vn 0.4495 0.8726 -0.1912
vn 0.5006 0.8488 -0.1700
s 1
usemtl rubber_black
f 3//1 34//1 4//1
f 5//2 4//2 34//2
f 32//3 6//3 33//3
f 34//4 6//4 32//4
f 3//5 7//5 34//5
f 3//6 8//6 7//6
f 9//7 10//8 11//9
f 9//10 11//10 12//10
f 13//11 8//11 3//11
f 6//12 34//12 7//12
f 15//13 10//8 9//7
f 9//14 3//14 15//14
f 16//15 4//15 47//15
f 18//16 19//16 8//16
f 18//17 20//17 19//17
f 18//18 8//18 13//19
f 21//20 12//20 11//20
f 22//21 23//22 12//22
f 76//23 14//23 77//23
f 4//24 15//24 3//24
f 36//25 14//26 40//27
f 8//28 19//28 7//28
f 20//29 12//30 23//31
f 23//32 35//32 20//32
f 13//33 3//33 9//33
f 13//34 9//34 12//34
f 17//35 10//36 16//37
f 10//38 15//38 4//38
f 10//39 4//39 16//39
f 20//40 18//40 13//40
f 20//29 13//41 12//30
f 24//42 22//42 12//42
f 58//43 12//43 21//43
f 84//44 83//44 25//44
f 56//45 21//45 17//45
f 2//46 1//46 14//46
f 48//47 4//48 49//49
f 60//50 49//50 4//50
f 6//51 7//51 19//51
f 19//52 20//52 26//52
f 6//53 26//54 33//55
f 35//56 33//56 26//56
f 11//57 17//35 21//58
f 11//57 10//36 17//35
f 47//59 4//59 48//59
f 85//60 84//60 25//60 55//60
f 58//61 25//61 24//61
f 58//62 24//62 12//62
f 58//63 21//63 50//63
f 27//64 22//64 24//64
f 35//65 23//65 28//65
f 20//66 35//66 26//66
f 50//67 21//67 56//67
f 54//68 55//68 25//68
f 78//69 23//69 22//69 80//69
f 19//70 26//70 6//71
f 74//72 31//72 69//72
f 66//73 37//74 38//75 67//76
f 75//77 30//77 37//74 66//73
f 67//78 38//79 39//79 65//79
f 82//80 81//80 29//80
f 82//81 29//82 28//82 23//82 78//83
f 65//84 39//85 41//86 62//87
f 62//88 41//89 31//89 74//90
f 4//91 5//91 42//91
f 60//92 4//92 42//92 43//92 45//92
f 14//93 1//93 44//93 40//93
f 68//94 70//94 53//94 57//94
f 25//95 58//95 54//95
f 68//96 57//96 59//96 63//96
f 72//97 73//98 51//99
f 63//100 59//100 61//100 2//100 64//100
f 2//101 61//101 46//102 1//103
f 44//104 1//103 46//102 45//104 43//104
f 52//105 53//105 70//105 71//105
f 52//106 71//106 72//97 51//99
f 2//107 14//107 76//107 64//107
f 14//108 36//108 30//108 75//109 77//110
f 27//111 86//111 87//111
f 27//112 87//112 88//112
f 25//113 83//113 79//113 24//113
f 24//114 79//114 86//114 27//114
f 27//115 89//115 80//115 22//115
f 27//116 88//116 89//116
