# Blender 4.1.1
# www.blender.org
mtllib thumb_F2_TIP.mtl
o thumb-F2_TIP
v 0.000855 0.001294 -0.000752
v -0.001048 0.001928 -0.005610
v -0.000280 0.004153 -0.001478
v -0.002490 0.003621 0.005329
v -0.002018 0.005115 0.002399
v -0.009267 0.009206 -0.005852
v -0.002628 0.006117 -0.000744
v -0.002011 0.005320 -0.003889
v 0.000749 0.000689 0.002870
v -0.001999 -0.001039 0.006580
v -0.003993 -0.000186 -0.006743
v -0.002832 0.002374 -0.006743
v -0.003509 0.004782 -0.006743
v -0.004347 0.006029 -0.006743
v -0.006758 0.007666 -0.006743
v -0.009511 -0.005709 -0.006743
v -0.006740 -0.004222 -0.006743
v -0.009661 0.009159 -0.006743
v -0.007222 -0.005594 0.007000
v -0.006007 0.004701 0.007000
v -0.003234 0.002159 0.007000
v -0.002851 0.001249 0.007000
v -0.003122 -0.001729 0.007000
v -0.002726 -0.001042 0.007000
v -0.002520 -0.000272 0.007000
v -0.007776 -0.005843 0.007000
v -0.007265 -0.005854 0.006751
v -0.006364 -0.005872 -0.005327
v -0.006350 -0.005872 0.005747
v -0.004884 -0.005902 0.002185
v -0.004513 -0.005909 0.001028
v -0.004588 -0.005908 0.000256
v -0.005793 -0.005883 -0.004804
v -0.005599 -0.005887 -0.004392
v -0.010000 0.010221 -0.002942
v -0.010000 0.010641 -0.000846
v -0.010000 0.010669 -0.000633
v -0.010000 0.008392 0.005930
v -0.010000 0.008992 0.004963
v -0.010000 0.010627 -0.000418
v -0.010000 0.009505 -0.005967
v -0.010000 0.009311 -0.006743
v -0.010000 0.007503 0.007000
v -0.010000 0.009826 0.003210
v -0.010000 0.009690 -0.005366
v -0.010000 0.009615 -0.005637
vn 0.9062 0.2788 -0.3180
vn 0.9061 0.2788 -0.3182
vn 0.6262 0.7762 -0.0739
vn 0.7743 -0.6092 -0.1710
vn 0.7902 -0.6077 -0.0790
vn 0.7899 -0.6081 -0.0791
vn 0.7905 -0.6074 -0.0785
vn 0.6577 0.7452 0.1099
vn 0.9173 0.3874 0.0916
vn 0.4495 0.8726 -0.1912
vn 0.5573 0.1568 -0.8154
vn 0.7628 0.5181 0.3870
vn 0.4995 0.7823 0.3722
vn 0.8134 0.5333 0.2323
vn 0.8198 0.4266 -0.3821
vn 0.4440 0.8629 -0.2413
vn 0.5199 0.8379 0.1662
vn 0.5006 0.8488 -0.1700
vn 0.5209 0.8462 -0.1123
vn 0.4817 -0.2779 0.8311
vn 0.5134 0.8380 0.1849
vn 0.4909 0.5355 0.6872
vn 0.4835 -0.2195 -0.8474
vn 0.5141 0.8421 -0.1630
vn 0.7441 0.4663 -0.4784
vn 0.7370 0.3108 0.6002
vn 0.4964 -0.1329 0.8579
vn 0.7545 0.1642 0.6354
vn 0.3078 -0.6852 0.6601
vn 0.3099 -0.5776 -0.7552
vn 0.5781 -0.6132 0.5383
vn 0.6865 -0.6676 0.2880
vn 0.7261 -0.6453 0.2373
vn 0.5923 -0.4216 -0.6867
vn 0.5969 -0.4272 -0.6792
vn 0.5958 -0.4259 -0.6809
vn 0.7763 -0.5098 -0.3706
vn 0.3978 0.8901 -0.2223
vn 0.5031 0.7345 0.4555
vn 0.4750 0.6768 0.5624
vn 0.4184 0.8757 -0.2411
vn 0.4000 0.8690 -0.2913
vn 0.3906 0.8691 -0.3034
vn 0.3883 0.8691 -0.3063
s 1
usemtl rubber_black
f 1//1 2//1 3//2
f 7//3 3//3 8//3
f 34//4 1//4 32//4
f 32//5 1//6 9//6 31//7
f 5//8 3//8 7//8
f 9//9 1//9 3//9
f 35//10 6//10 45//10
f 13//11 2//11 12//11
f 4//12 9//12 5//12
f 39//13 5//13 44//13
f 5//14 9//14 3//14
f 8//15 3//15 2//15
f 18//16 6//16 15//16
f 40//17 5//17 7//17 37//17
f 36//18 8//18 6//18 35//18
f 37//19 7//19 8//19 36//19
f 23//20 10//20 24//20
f 44//21 5//21 40//21
f 20//22 21//22 4//22
f 11//23 12//23 2//23
f 8//24 14//24 15//24 6//24
f 2//25 13//25 14//25 8//25
f 4//26 21//26 22//26 9//26
f 10//27 25//27 24//27
f 9//28 22//28 25//28 10//28
f 19//29 26//29 27//29
f 17//30 28//30 16//30
f 19//31 27//31 29//31 10//31 23//31
f 10//32 29//32 30//32
f 10//33 30//33 31//33 9//33
f 2//34 33//35 28//36 17//34 11//34
f 1//37 34//37 33//37 2//37
f 6//38 18//38 42//38 41//38
f 4//39 5//39 39//39 38//39
f 20//40 4//40 38//40 43//40
f 6//41 46//41 45//41
f 6//42 41//43 46//44
