# Blender 4.1.1
# www.blender.org
mtllib thumb_F2_R.mtl
o thumb-F2_R
v -0.078400 0.008998 0.007244
v -0.016983 -0.007669 0.007832
v -0.017409 -0.006188 0.009318
v -0.013177 -0.006103 0.009249
v -0.025964 -0.000312 0.012013
v -0.054179 0.000503 0.009988
v -0.058744 0.006782 0.011378
v -0.062391 0.009825 0.011424
v -0.063920 0.012158 0.011295
v -0.018338 -0.004478 0.010399
v -0.023451 -0.001832 0.011533
v -0.014030 -0.002389 0.011146
v -0.032237 0.014669 0.008522
v -0.066602 0.017464 0.008585
v -0.022413 0.001249 0.012562
v -0.028539 0.005319 0.012782
v -0.028790 0.002758 0.012642
v -0.028454 0.007236 0.012539
v -0.007297 -0.001064 0.009642
v -0.003635 0.001371 0.007900
v -0.008843 0.002586 0.010122
v -0.020431 0.013695 0.006966
v -0.017715 0.010064 0.009326
v -0.065937 0.016014 0.009768
v -0.065167 0.014354 0.010639
v -0.006972 -0.004095 0.008440
v -0.028654 0.010796 0.011344
v -0.009030 0.005629 0.008436
v -0.014154 0.000761 0.011559
v -0.032017 0.013049 0.010067
v -0.024524 0.012712 0.009443
v -0.020462 0.003917 0.012459
v -0.019887 0.007936 0.011292
v -0.028842 0.009362 0.011936
v -0.015204 -0.008180 0.007000
v -0.002520 -0.000272 0.007000
v -0.078391 0.007958 0.007000
v -0.078007 0.010235 0.007000
v -0.003122 -0.001729 0.007000
v -0.078225 0.007397 0.007000
v -0.013610 -0.008018 0.007000
v -0.009728 -0.006720 0.007000
v -0.002726 -0.001042 0.007000
v -0.003234 0.002159 0.007000
v -0.002851 0.001249 0.007000
v -0.072527 -0.000580 0.007000
v -0.027386 0.015224 0.007000
v -0.067072 0.018645 0.007093
v -0.029591 0.015546 0.006915
v -0.012304 0.009120 0.007000
v -0.014914 0.010727 0.007000
v -0.070735 -0.002460 0.007000
v -0.069612 -0.003337 0.007000
v -0.066513 -0.004522 0.007000
v -0.025269 0.014902 0.007000
v -0.077168 0.011240 0.007000
v -0.077276 0.011117 0.007000
v -0.076814 0.011538 0.007000
v -0.006007 0.004701 0.007000
v -0.007222 -0.005594 0.007000
v -0.065503 -0.004905 0.007000
v -0.060236 -0.006054 0.007000
v -0.057158 -0.006599 0.007000
v -0.052225 -0.007129 0.007000
v -0.046881 -0.007524 0.007000
v -0.058860 -0.006315 0.007000
v -0.078398 0.008789 0.007000
v -0.045614 -0.007574 0.007000
v -0.032360 -0.007998 0.007000
v -0.078400 0.009020 0.007000
vn -1.0000 -0.0070 -0.0006
vn -1.0000 -0.0079 0.0001
vn -1.0000 -0.0077 -0.0000
vn -1.0000 -0.0086 0.0007
vn -0.0228 -0.7114 0.7024
vn -0.0270 -0.6817 0.7311
vn -0.0265 -0.6817 0.7311
vn -0.0266 -0.6817 0.7311
vn 0.0257 -0.7044 0.7094
vn -0.0091 -0.8605 0.5094
vn -0.0771 -0.3536 0.9322
vn -0.2406 -0.1718 0.9553
vn -0.2459 -0.1079 0.9633
vn 0.0244 -0.5247 0.8510
vn 0.0779 -0.7663 0.6377
vn 0.0598 -0.4431 0.8945
vn 0.0656 0.7923 0.6065
vn 0.0707 0.8221 0.5650
vn -0.2110 -0.2012 0.9566
vn -0.6212 -0.1839 0.7618
vn -0.0004 -0.0545 0.9985
vn -0.0467 -0.0500 0.9977
vn -0.0525 -0.0780 0.9956
vn -0.0172 0.1265 0.9918
vn -0.0766 -0.2682 0.9603
vn -0.0767 -0.2674 0.9605
vn -0.0767 -0.2675 0.9605
vn -0.0358 0.0317 0.9989
vn 0.2541 -0.7599 0.5983
vn 0.4018 0.0499 0.9144
vn 0.0165 -0.3661 0.9304
vn -0.0446 -0.2397 0.9698
vn 0.3637 0.6834 0.6329
vn -0.0087 -0.3141 0.9493
vn -0.1111 -0.2921 0.9499
vn -0.1109 -0.2926 0.9498
vn -0.1114 -0.2914 0.9501
vn 0.0293 0.4748 0.8796
vn 0.0198 -0.3227 0.9463
vn 0.0198 -0.3230 0.9462
vn 0.1123 -0.1248 0.9858
vn 0.2657 -0.0142 0.9639
vn 0.0577 0.6931 0.7185
vn 0.0395 0.5372 0.8425
vn 0.0933 0.5927 0.8000
vn -0.2914 0.1181 0.9493
vn 0.2436 -0.3962 0.8852
vn 0.2672 -0.3303 0.9052
vn 0.2679 0.6579 0.7038
vn 0.3256 0.4735 0.8184
vn 0.0907 0.6937 0.7145
vn 0.1176 -0.0477 0.9919
vn 0.0414 0.0083 0.9991
vn 0.0609 0.1229 0.9906
vn 0.2384 -0.1170 0.9641
vn 0.0497 0.6450 0.7626
vn 0.4964 -0.1329 0.8579
vn 0.7545 0.1642 0.6354
vn 0.7370 0.3108 0.6002
vn 0.4371 0.4563 0.7751
vn 0.3092 0.4556 0.8347
vn 0.2180 0.2433 0.9452
vn 0.2112 0.1465 0.9664
vn 0.1654 0.4916 0.8549
vn 0.2205 0.5309 0.8183
vn 0.1244 0.3646 0.9228
vn 0.1146 0.2904 0.9500
vn 0.1181 0.2613 0.9580
vn 0.0056 0.2891 0.9573
vn 0.0191 0.3794 0.9250
vn 0.0041 0.2740 0.9617
vn 0.0041 0.2739 0.9618
vn 0.3948 0.6410 0.6582
vn -0.1761 -0.2255 0.9582
vn -0.1115 -0.2914 0.9501
vn 0.1152 0.7569 0.6433
vn -0.3478 0.3036 0.8871
vn -0.3475 0.3039 0.8870
vn -0.3476 0.3038 0.8871
vn -0.3934 0.4661 0.7924
vn 0.4750 0.6768 0.5624
vn 0.4909 0.5355 0.6872
vn 0.1937 0.7592 0.6214
vn 0.3078 -0.6852 0.6601
vn 0.4817 -0.2779 0.8311
vn 0.5781 -0.6132 0.5383
vn -0.3451 0.2861 0.8939
vn -0.0510 -0.4750 0.8785
vn -0.0511 -0.4747 0.8787
vn -0.0407 -0.5496 0.8344
vn -0.0666 -0.3989 0.9146
vn -0.0717 -0.3779 0.9231
vn -0.0716 -0.3771 0.9234
vn -0.0714 -0.3779 0.9231
vn 0.0941 0.8006 0.5918
vn -0.4588 0.6207 0.6358
vn -0.9509 0.3081 0.0283
s 1
usemtl rubber_black
f 70//1 67//2 1//3
f 37//4 1//3 67//2
f 69//5 2//5 3//5 68//5
f 65//6 68//7 3//8
f 4//9 3//9 2//9
f 35//10 2//10 69//10
f 62//11 5//11 6//11 61//11
f 46//12 8//12 1//12 40//12
f 9//13 1//13 8//13
f 4//14 10//14 3//14
f 41//15 4//15 2//15 35//15
f 12//16 10//16 4//16
f 13//17 48//17 14//17
f 49//18 48//18 13//18
f 46//19 52//19 8//19
f 40//20 1//20 37//20
f 15//21 16//21 17//21
f 17//22 16//22 8//22
f 17//23 8//23 7//23
f 18//24 9//24 16//24
f 6//25 5//26 17//27
f 9//28 8//28 16//28
f 42//29 4//29 41//29
f 19//30 20//30 21//30
f 11//31 10//31 12//31
f 15//32 17//32 5//32
f 22//33 23//33 51//33
f 7//25 6//25 17//27
f 15//34 5//34 11//34
f 54//35 61//36 6//37
f 24//38 25//38 27//38
f 15//39 11//39 12//40
f 15//41 12//41 29//41
f 29//42 19//42 21//42
f 30//43 13//43 14//43
f 30//44 24//44 27//44
f 30//45 27//45 31//45
f 25//46 1//46 9//46
f 26//47 12//47 4//47
f 19//48 12//48 26//48
f 23//49 22//49 31//49
f 23//50 21//50 28//50
f 31//51 13//51 30//51
f 32//52 15//52 29//52
f 16//53 15//53 32//53
f 16//54 32//54 18//54
f 12//55 19//55 29//55
f 24//56 30//56 14//56
f 36//57 20//57 19//57 43//57
f 45//58 20//58 36//58
f 44//59 20//59 45//59
f 28//60 21//60 20//60
f 33//61 21//61 23//61
f 32//62 21//62 33//62
f 32//63 29//63 21//63
f 33//64 31//64 27//64
f 33//65 23//65 31//65
f 33//66 27//66 34//66
f 33//67 34//67 18//67
f 33//68 18//68 32//68
f 34//69 25//69 9//69
f 34//70 27//70 25//70
f 34//71 9//72 18//71
f 23//73 28//73 50//73 51//73
f 7//74 8//74 52//74 53//74
f 7//75 53//75 54//35 6//37
f 31//76 55//76 47//76 13//76
f 24//77 56//78 57//79 25//77
f 14//80 58//80 56//80 24//80
f 28//81 59//81 50//81
f 28//82 20//82 44//82 59//82
f 31//83 22//83 55//83
f 26//84 4//84 42//84 60//84
f 26//85 39//85 43//85 19//85
f 26//86 60//86 39//86
f 1//87 25//87 57//87 38//87
f 10//88 11//88 63//89 64//88
f 10//90 64//90 65//90 3//90
f 5//91 66//91 63//91 11//91
f 5//92 62//93 66//94
f 13//95 47//95 49//95
f 14//96 48//96 58//96
f 1//97 38//97 70//97
