# Blender 4.1.1
# www.blender.org
mtllib thumb_F2_L.mtl
o thumb-F2_L
v -0.078401 0.009517 -0.007160
v -0.076966 0.011747 -0.006932
v -0.053743 0.002087 -0.011218
v -0.017491 -0.002649 -0.011538
v -0.053772 0.004247 -0.011609
v -0.053909 0.005418 -0.011496
v -0.053723 0.003249 -0.011545
v -0.061842 0.014630 -0.009087
v -0.057017 0.010423 -0.010418
v -0.062779 0.016095 -0.008342
v -0.023563 0.001886 -0.012189
v -0.023007 0.004514 -0.012244
v -0.064252 0.017922 -0.006912
v -0.031005 0.015021 -0.007091
v -0.015759 -0.007027 -0.007951
v -0.018626 -0.005946 -0.009136
v -0.017863 -0.000914 -0.012011
v -0.077907 0.008011 -0.007200
v -0.025604 0.005585 -0.012092
v -0.014224 -0.004671 -0.010165
v -0.018492 -0.004294 -0.010524
v -0.018560 -0.005134 -0.009883
v -0.010359 -0.006458 -0.007581
v -0.030292 0.012854 -0.009128
v -0.027866 0.010942 -0.010336
v -0.023758 0.008160 -0.011532
v -0.012483 -0.001706 -0.011401
v -0.015747 0.000723 -0.012075
v -0.019972 0.009155 -0.010440
v -0.010398 0.006861 -0.009148
v -0.014560 0.004602 -0.011470
v -0.025091 0.014282 -0.007049
v -0.017667 0.011498 -0.007543
v -0.007083 -0.003982 -0.008458
v -0.010781 0.002851 -0.010944
v -0.006074 0.001014 -0.009527
v -0.004963 0.005243 -0.007821
v -0.078396 0.008852 -0.007000
v -0.078401 0.009511 -0.007000
v -0.078394 0.009534 -0.007000
v -0.067394 -0.004889 -0.007000
v -0.078347 0.008567 -0.007000
v -0.009661 0.008389 -0.007000
v -0.067700 -0.004707 -0.007000
v -0.070193 -0.002573 -0.007000
v -0.069116 -0.003769 -0.007000
v -0.077885 0.006981 -0.007000
v -0.032931 -0.007597 -0.007000
v -0.016174 -0.007623 -0.007000
v -0.015154 -0.007576 -0.007000
v -0.077868 0.010780 -0.007084
v -0.050198 -0.007235 -0.007000
v -0.052694 -0.007102 -0.007000
v -0.055369 -0.006849 -0.007000
v -0.066052 -0.005248 -0.007000
v -0.048394 -0.007296 -0.007000
v -0.044682 -0.007418 -0.007000
v -0.006740 -0.004992 -0.007000
v -0.009511 -0.006479 -0.007000
v -0.077806 0.006745 -0.007000
v -0.010421 -0.006764 -0.007000
v -0.006758 0.006895 -0.007000
v -0.011307 -0.006993 -0.007000
v -0.004347 0.005259 -0.007000
v -0.003509 0.004012 -0.007000
v -0.002832 0.001604 -0.007000
v -0.003993 -0.000956 -0.007000
v -0.014970 0.010762 -0.007000
v -0.017944 0.011920 -0.007000
vn -0.0624 -0.4167 -0.9069
vn -0.1615 0.0761 -0.9839
vn -0.0438 -0.2709 -0.9616
vn -0.0438 -0.2699 -0.9619
vn -0.0439 -0.2713 -0.9615
vn -0.1544 0.1306 -0.9793
vn -0.1543 0.1328 -0.9791
vn -0.1545 0.1282 -0.9796
vn -0.1969 0.3414 -0.9191
vn -0.0242 -0.0652 -0.9976
vn -0.0205 -0.0166 -0.9997
vn -0.1590 -0.2648 -0.9511
vn -0.1582 -0.2654 -0.9511
vn -0.1584 -0.2656 -0.9510
vn -0.9521 0.3056 0.0110
vn -0.9213 0.3888 0.0009
vn -0.0440 -0.2720 -0.9613
vn -0.1545 0.1175 -0.9810
vn -0.2002 -0.1737 -0.9642
vn -0.2027 -0.1782 -0.9629
vn -0.2038 -0.1893 -0.9605
vn -0.1901 -0.0721 -0.9791
vn -0.2306 0.4776 -0.8478
vn -0.1912 0.3235 -0.9267
vn -0.1912 0.3234 -0.9268
vn -0.0214 0.0918 -0.9955
vn -0.0213 0.0896 -0.9957
vn -0.0214 0.0907 -0.9956
vn -0.1667 -0.2517 -0.9533
vn -0.0980 -0.3668 -0.9251
vn -0.0983 -0.3670 -0.9250
vn -0.0974 -0.3674 -0.9249
vn -0.8147 -0.1414 -0.5623
vn 0.0340 -0.6961 -0.7172
vn 0.0246 -0.6779 -0.7347
vn 0.0132 -0.6073 -0.7944
vn -0.0265 -0.1170 -0.9928
vn -0.0246 -0.6748 -0.7376
vn -0.0220 -0.6734 -0.7390
vn -0.0225 -0.6740 -0.7384
vn -0.0222 -0.6759 -0.7367
vn -0.1544 0.1155 -0.9812
vn -0.0215 0.0935 -0.9954
vn -0.2064 -0.1686 -0.9638
vn 0.0451 0.6380 -0.7687
vn 0.0366 0.5665 -0.8232
vn 0.0176 0.4621 -0.8866
vn 0.0108 0.4083 -0.9128
vn 0.0567 0.6936 -0.7181
vn 0.0731 -0.2477 -0.9661
vn 0.1064 -0.4352 -0.8940
vn 0.0238 -0.5350 -0.8445
vn 0.0073 -0.0485 -0.9988
vn 0.2253 -0.8718 -0.4349
vn -0.0174 0.2244 -0.9744
vn -0.0218 0.1975 -0.9801
vn 0.2266 0.4632 -0.8568
vn 0.1283 0.6397 -0.7579
vn 0.1344 0.6381 -0.7581
vn 0.1271 0.6401 -0.7577
vn 0.0923 0.6979 -0.7102
vn -0.0124 0.2886 -0.9574
vn 0.0893 -0.1538 -0.9841
vn 0.0894 -0.1539 -0.9840
vn 0.3193 0.8205 -0.4741
vn 0.2410 -0.5914 -0.7695
vn 0.1812 0.0972 -0.9786
vn 0.7138 -0.4856 -0.5047
vn 0.1227 -0.7209 -0.6821
vn -0.1848 -0.0345 -0.9822
vn -0.5234 -0.1733 -0.8343
vn -0.5238 -0.1733 -0.8340
vn -0.5231 -0.1730 -0.8345
vn 0.1340 0.6363 -0.7597
vn 0.1070 0.5218 -0.8463
vn 0.3705 0.2621 -0.8911
vn 0.2148 0.0177 -0.9765
vn 0.0236 0.1963 -0.9803
vn 0.0111 -0.0233 -0.9997
vn 0.2470 -0.4928 -0.8343
vn 0.1580 0.3925 -0.9061
vn 0.1581 0.3928 -0.9059
vn 0.2057 0.6748 -0.7088
vn 0.2057 0.6749 -0.7087
vn 0.5144 0.7580 -0.4011
vn 0.3203 0.7165 -0.6197
vn 0.3727 -0.2655 -0.8892
vn 0.0892 0.1268 -0.9879
vn 0.2846 -0.0102 -0.9586
vn 0.2519 0.6447 -0.7218
vn 0.3213 0.3614 -0.8753
vn 0.7011 0.4708 -0.5356
vn 0.0871 0.2082 -0.9742
vn 0.2931 0.3674 -0.8827
vn -0.0324 -0.6047 -0.7958
vn -0.0476 -0.5030 -0.8630
vn 0.0399 -0.8543 -0.5182
vn -0.0115 -0.7524 -0.6586
vn -0.0013 -0.8470 -0.5316
vn 0.3834 -0.7142 -0.5856
vn 0.3837 -0.7142 -0.5853
vn 0.3833 -0.7144 -0.5854
vn 0.3835 -0.7141 -0.5857
vn 0.2701 -0.8636 -0.4258
vn 0.3591 0.6979 -0.6197
vn 0.1247 -0.8230 -0.5542
vn 0.5874 0.1653 -0.7923
vn 0.6211 -0.2819 -0.7312
vn 0.2752 0.8223 -0.4981
vn -0.5775 -0.1677 -0.7990
vn -0.5775 -0.1674 -0.7991
vn -0.5771 -0.1668 -0.7994
vn -0.5774 -0.1677 -0.7990
vn -1.0000 -0.0075 -0.0002
s 1
usemtl rubber_black
f 55//1 3//1 4//1 54//1
f 5//2 1//2 6//2
f 4//3 3//4 7//5
f 51//6 8//7 9//8
f 8//9 51//9 10//9
f 11//10 7//10 5//10
f 11//11 5//11 12//11
f 44//12 7//13 3//13 41//14
f 39//15 40//15 1//15
f 51//16 1//16 40//16
f 17//17 4//3 7//5
f 51//6 9//8 1//18
f 45//19 7//20 46//21
f 18//22 5//22 7//22
f 10//23 2//23 13//23
f 10//24 51//24 2//25
f 19//26 12//27 5//28
f 46//29 7//29 44//29
f 41//30 3//31 55//32
f 42//33 38//33 1//33
f 15//34 16//34 20//34
f 22//35 20//35 16//35
f 20//36 22//36 21//36
f 11//37 17//37 7//37
f 56//38 52//39 22//40
f 56//38 22//40 16//41 57//41
f 6//42 1//18 9//8
f 6//43 19//26 5//28
f 60//44 18//44 7//20 45//19
f 13//45 24//45 10//45
f 25//46 10//46 24//46
f 25//47 8//47 10//47
f 25//48 26//48 8//48
f 24//49 13//49 14//49
f 17//50 27//50 4//50
f 20//51 4//51 27//51
f 20//52 21//52 4//52
f 28//53 17//53 11//53
f 63//54 23//54 61//54
f 9//55 26//55 19//55
f 6//56 9//56 19//56
f 29//57 30//57 31//57
f 32//58 25//59 24//60
f 32//61 24//61 14//61
f 9//62 8//62 26//62
f 28//63 27//64 17//63
f 68//65 33//65 69//65
f 34//66 23//66 20//66
f 35//67 28//67 31//67
f 67//68 58//68 34//68
f 23//69 15//69 20//69
f 1//70 5//70 18//70
f 47//71 18//72 60//73
f 25//59 32//58 29//74
f 26//75 25//75 29//75
f 36//76 35//76 37//76
f 27//77 28//77 35//77
f 19//78 26//78 12//78
f 28//79 11//79 12//79
f 34//80 20//80 27//80
f 29//81 31//82 26//81
f 32//83 33//84 29//83
f 64//85 37//85 62//85
f 43//86 30//86 33//86 68//86
f 27//87 36//87 34//87
f 12//88 31//88 28//88
f 35//89 36//89 27//89
f 30//90 29//90 33//90
f 30//91 37//91 35//91
f 65//92 37//92 64//92
f 31//93 12//93 26//93
f 35//94 31//94 30//94
f 22//95 52//95 53//95 21//95
f 4//96 21//96 53//96 54//96
f 15//97 50//97 49//97
f 15//98 48//98 57//98 16//98
f 15//99 49//99 48//99
f 34//100 58//101 59//102 23//103
f 23//104 59//104 61//104
f 30//105 43//105 62//105 37//105
f 15//106 23//106 63//106 50//106
f 37//107 65//107 66//107 36//107
f 34//108 36//108 66//108 67//108
f 33//109 32//109 69//109
f 18//110 47//111 42//112 1//113
f 1//114 38//114 39//114
