# Blender 4.1.1
# www.blender.org
mtllib thumb_F2_B.mtl
o thumb-F2_B
v -0.071795 -0.008670 -0.005032
v -0.016682 -0.009836 -0.000203
v -0.017542 -0.009855 0.001069
v -0.069797 -0.008996 -0.004448
v -0.071154 -0.008829 0.004901
v -0.071636 -0.008647 0.005053
v -0.072056 -0.008034 0.005271
v -0.073534 -0.008027 -0.005103
v -0.069153 -0.008800 -0.004994
v -0.069076 -0.008957 -0.004701
v -0.016506 -0.008101 -0.006238
v -0.014074 -0.008554 -0.005304
v -0.016574 -0.009089 -0.003939
v -0.010840 -0.008843 -0.003049
v -0.016609 -0.009440 -0.002711
v -0.016646 -0.009691 -0.001459
v -0.070034 -0.008988 0.004587
v -0.013887 -0.009838 0.002009
v -0.017631 -0.009356 0.004434
v -0.013742 -0.008601 0.006316
v -0.074286 -0.007689 0.005117
v -0.076879 -0.004937 -0.005155
v -0.075487 -0.006673 -0.005119
v -0.076869 -0.005037 0.005105
v -0.006206 -0.006563 -0.004734
v -0.005981 -0.007750 0.000514
v -0.008869 -0.008810 0.002319
v -0.007476 -0.007123 0.005532
v -0.011307 -0.006223 -0.006743
v -0.010421 -0.005994 -0.006743
v -0.044682 -0.006648 -0.006743
v -0.048394 -0.006526 -0.006743
v -0.055369 -0.006078 -0.006743
v -0.052694 -0.006332 -0.006743
v -0.050198 -0.006465 -0.006743
v -0.015154 -0.006805 -0.006743
v -0.016174 -0.006853 -0.006743
v -0.032931 -0.006827 -0.006743
v -0.032360 -0.007998 0.007000
v -0.045614 -0.007574 0.007000
v -0.058860 -0.006315 0.007000
v -0.052225 -0.007129 0.007000
v -0.057158 -0.006599 0.007000
v -0.060236 -0.006054 0.007000
v -0.065503 -0.004905 0.007000
v -0.046881 -0.007524 0.007000
v -0.009728 -0.006720 0.007000
v -0.013610 -0.008018 0.007000
v -0.015204 -0.008180 0.007000
v -0.077136 -0.004447 -0.005096
v -0.005599 -0.005887 -0.004392
v -0.005793 -0.005883 -0.004804
v -0.004588 -0.005908 0.000256
v -0.004513 -0.005909 0.001028
v -0.004884 -0.005902 0.002185
v -0.077163 -0.004447 0.001354
v -0.006350 -0.005872 0.005747
v -0.076915 -0.004452 -0.005217
v -0.006364 -0.005872 -0.005327
v -0.066309 -0.004665 -0.006667
v -0.007265 -0.005854 0.006751
v -0.066838 -0.004655 0.006921
v -0.070938 -0.004572 0.006466
v -0.072153 -0.004548 0.006248
v -0.007776 -0.005843 0.007000
v -0.066126 -0.004669 0.007000
v -0.009511 -0.005709 -0.006743
v -0.064565 -0.004700 -0.006743
v -0.076311 -0.004464 0.005349
v -0.075888 -0.004473 -0.005390
v -0.071814 -0.004555 -0.006055
v -0.068672 -0.004618 -0.006470
v -0.077117 -0.004448 0.005045
v -0.076933 -0.004451 0.005194
v -0.068193 -0.004627 -0.006530
vn -0.0139 -0.9996 -0.0243
vn -0.2333 0.1806 -0.9555
vn -0.2333 0.1808 -0.9554
vn -0.2333 0.1807 -0.9555
vn -0.0087 -0.5693 -0.8221
vn 0.0006 -0.8828 -0.4697
vn 0.0018 -0.8980 -0.4401
vn -0.0371 -0.8863 -0.4616
vn 0.0833 -0.9588 -0.2717
vn 0.0029 -0.9328 -0.3603
vn 0.0016 -0.9614 -0.2752
vn 0.0016 -0.9615 -0.2748
vn 0.0782 -0.9685 -0.2363
vn 0.0898 -0.9770 -0.1932
vn -0.0065 -0.9934 -0.1149
vn -0.0016 -0.9806 -0.1961
vn -0.0016 -0.9805 -0.1963
vn -0.0037 -0.9867 -0.1628
vn -0.0165 -0.9999 0.0005
vn -0.1413 -0.9900 -0.0028
vn -0.1595 -0.9872 -0.0055
vn -0.0609 -0.9459 -0.3188
vn -0.0609 -0.9458 -0.3190
vn -0.0064 -0.9826 0.1855
vn -0.0121 -0.9978 0.0647
vn -0.0121 -0.9978 0.0651
vn -0.0121 -0.9978 0.0646
vn -0.0071 -0.9019 0.4319
vn -0.1417 -0.5457 0.8259
vn -0.1416 -0.5456 0.8260
vn -0.1761 -0.2255 0.9582
vn -0.0109 -0.4872 -0.8732
vn 0.1693 -0.5064 -0.8455
vn -0.0361 -0.3812 -0.9238
vn -0.0243 -0.4537 -0.8908
vn 0.1088 -0.9857 -0.1284
vn 0.0877 -0.9899 -0.1118
vn 0.0875 -0.9899 -0.1115
vn 0.3650 -0.9046 -0.2202
vn 0.0907 -0.5989 -0.7957
vn 0.0538 -0.9602 0.2740
vn 0.0072 -0.9999 -0.0100
vn -0.0054 -0.9242 0.3819
vn -0.0666 -0.3989 0.9146
vn -0.0716 -0.3773 0.9233
vn -0.0717 -0.3778 0.9231
vn -0.0716 -0.3781 0.9230
vn -0.0715 -0.3779 0.9231
vn -0.3416 -0.9398 0.0070
vn -0.3457 -0.9383 0.0059
vn -0.3430 -0.9393 0.0067
vn -0.1115 -0.2914 0.9501
vn -0.1111 -0.2921 0.9499
vn -0.1113 -0.2921 0.9499
vn 0.2043 -0.9765 -0.0690
vn 0.7763 -0.5098 -0.3706
vn 0.2566 -0.8971 0.3598
vn -0.7163 -0.6976 0.0148
vn -0.7801 -0.6256 -0.0053
vn 0.1777 -0.9474 0.2661
vn -0.0510 -0.4750 0.8785
vn -0.0407 -0.5496 0.8344
vn -0.5696 -0.8218 -0.0147
vn -0.9222 -0.3865 0.0114
vn 0.4653 -0.8506 0.2449
vn 0.1796 -0.7811 -0.5980
vn 0.2874 -0.9526 -0.0997
vn 0.3078 -0.6852 0.6601
vn 0.3099 -0.5776 -0.7552
vn 0.7261 -0.6453 0.2373
vn 0.6865 -0.6676 0.2880
vn 0.5781 -0.6132 0.5383
vn -0.3470 -0.9379 0.0055
vn -0.0146 -0.5206 -0.8537
vn -0.0150 -0.5184 -0.8550
vn -0.0143 -0.5185 -0.8550
vn -0.0190 -0.5085 -0.8608
vn -0.0167 -0.5091 -0.8605
vn -0.4769 -0.1462 -0.8667
vn -0.4774 -0.1462 -0.8665
vn -0.4787 -0.1461 -0.8657
vn 0.3044 -0.7584 -0.5764
vn 0.5969 -0.4272 -0.6792
vn 0.6036 -0.4356 -0.6678
vn 0.5958 -0.4259 -0.6809
vn 0.2541 -0.7599 0.5983
vn -0.0771 -0.3536 0.9322
vn 0.0779 -0.7663 0.6377
vn -0.0266 -0.6820 0.7308
vn -0.0266 -0.6819 0.7310
vn -0.0264 -0.6819 0.7310
vn -0.0270 -0.6817 0.7311
vn -0.0228 -0.7114 0.7024
vn -0.0091 -0.8605 0.5094
vn -0.1109 -0.2926 0.9498
vn -0.0480 -0.3204 -0.9461
vn 0.7899 -0.6081 -0.0790
vn 0.7901 -0.6079 -0.0787
vn 0.7903 -0.6076 -0.0785
vn -0.2110 -0.2012 0.9566
vn 0.7743 -0.6092 -0.1710
vn -0.1647 -0.1438 -0.9758
vn -0.1630 -0.1424 -0.9763
vn -0.1666 -0.1554 -0.9737
vn -0.1621 -0.1498 -0.9753
vn -0.1677 -0.1370 -0.9763
vn -0.1318 -0.2009 -0.9707
vn -0.1321 -0.2003 -0.9708
vn -0.8859 -0.4639 -0.0037
vn -0.2406 -0.1718 0.9553
vn -0.6212 -0.1839 0.7618
vn -0.1255 -0.2098 -0.9697
vn -0.1258 -0.2097 -0.9696
vn -0.0718 -0.2897 -0.9544
vn -0.0725 -0.2886 -0.9547
vn -0.0746 -0.2851 -0.9556
s 1
usemtl rubber_black
f 2//1 3//1 4//1
f 5//2 6//3 7//4
f 38//5 9//5 31//5
f 10//6 9//6 11//6
f 10//7 11//7 12//7
f 10//8 1//8 9//8
f 13//9 14//9 15//9
f 13//10 10//10 12//10
f 13//11 15//11 10//12
f 12//13 14//13 13//13
f 16//14 15//14 14//14
f 16//15 2//15 4//15
f 16//16 10//17 15//16
f 16//18 4//18 10//18
f 4//19 3//19 17//19
f 4//20 17//20 5//20
f 4//21 5//21 1//21
f 4//22 1//23 10//23
f 18//24 19//24 17//24
f 18//25 17//26 3//27
f 20//28 5//28 17//28
f 21//29 5//29 7//30
f 63//31 64//31 21//31
f 37//32 11//32 9//32 38//32
f 36//33 12//33 11//33 37//33
f 33//34 34//34 1//34
f 35//35 1//35 34//35
f 18//36 16//36 14//36
f 18//37 2//38 16//37
f 25//39 26//39 14//39
f 36//40 29//40 12//40
f 18//41 20//41 19//41
f 18//42 3//42 2//42
f 19//43 20//43 17//43
f 41//44 6//44 43//44
f 44//45 7//46 6//47 41//48
f 5//49 21//50 1//51
f 63//52 21//53 62//54
f 18//55 14//55 27//55
f 51//56 25//56 52//56
f 27//57 28//57 20//57
f 24//58 23//58 21//58
f 22//59 23//59 24//59
f 20//60 18//60 27//60
f 42//61 43//61 6//61
f 42//62 6//62 46//62
f 8//63 21//63 23//63
f 73//64 56//64 24//64
f 26//65 28//65 27//65
f 67//66 25//66 14//66 30//66
f 26//67 27//67 14//67
f 65//68 47//68 28//68 61//68
f 59//69 25//69 67//69
f 55//70 26//70 54//70
f 57//71 28//71 26//71 55//71
f 61//72 28//72 57//72
f 21//50 8//73 1//51
f 9//74 1//75 35//76 32//77
f 9//74 32//77 31//78
f 50//79 58//80 22//81
f 12//82 29//82 30//82 14//82
f 52//83 25//84 59//85
f 28//86 47//86 48//86 20//86
f 7//87 44//87 45//87
f 20//88 48//88 49//88
f 6//89 5//90 40//91 46//92
f 5//93 39//93 40//93
f 20//94 49//94 39//94 5//94
f 21//53 7//95 45//95 66//95 62//54
f 1//96 60//96 68//96 33//96
f 26//97 53//98 54//99
f 24//100 21//100 64//100 69//100
f 25//101 51//101 53//101 26//101
f 22//102 70//103 71//104 23//105
f 22//102 58//106 70//103
f 23//107 71//107 72//108 8//107
f 24//109 56//109 50//109 22//109
f 24//110 69//110 74//110
f 24//111 74//111 73//111
f 8//112 72//113 75//112
f 8//114 75//115 60//116 1//114
